<?xml version="1.0" encoding="utf-8"?>
<!-- Generator: Adobe Illustrator 18.0.0, SVG Export Plug-In . SVG Version: 6.00 Build 0)  -->
<!DOCTYPE svg PUBLIC "-//W3C//DTD SVG 1.1//EN" "http://www.w3.org/Graphics/SVG/1.1/DTD/svg11.dtd">
<svg version="1.1" id="Layer_1" xmlns="http://www.w3.org/2000/svg" xmlns:xlink="http://www.w3.org/1999/xlink" x="0px" y="0px"
	 viewBox="0 0 269 88.7" enable-background="new 0 0 269 88.7" xml:space="preserve">
<rect x="-5.2" y="-1" fill="#A81F3D" width="279.1" height="89.7"/>
<g opacity="0.35">
	<polyline fill="#9E4F5A" points="0,0.1 0.2,34 33.9,0.3 	"/>
	<polyline fill="#A53637" points="33.9,-1 33.7,32.9 67.6,32.7 33.9,-1 	"/>
	<polygon opacity="0.91" fill="#D8D277" points="34,66.2 34.2,32.8 0.3,32.6 	"/>
	<polygon opacity="0.91" fill="#E1DC9B" points="67.6,32.7 33.8,32.8 33.9,66.2 	"/>
	<polygon opacity="0.91" fill="#E1DC9B" points="34,66.3 0.1,66.1 0.2,32.7 	"/>
	<polyline fill="#C5C173" points="102.2,-0.6 68.5,33 68.3,-0.8 	"/>
	<g>
		<g>
			<polygon fill="#F0C049" points="101.6,66.1 67.8,66.3 68,32.5 			"/>
		</g>
	</g>
	<polygon fill="#F0C049" points="68.3,32.9 34.4,32.7 34.6,66.6 	"/>
	<polygon fill="#A23838" points="34.6,66.7 34.8,31.3 -0.5,31.5 	"/>
	<line fill="#7B3132" x1="68.3" y1="33.1" x2="34.6" y2="-0.6"/>
	<path fill="#7B3132" d="M34.6-0.6"/>
	<polyline fill="#FBE752" points="68.1,-0.5 68.3,33.3 101.9,-0.3 	"/>
	<polyline fill="#9E4F5A" points="34.6,-0.2 68.3,33.4 68.5,-0.4 	"/>
	<path fill="#ECAB32" d="M0.3,33"/>
	<polygon fill="#7B3132" points="35.7,67.1 -0.7,66.3 -0.5,31 	"/>
	<polyline fill="#7B3132" points="102.3,-1.1 67.9,32.5 67.7,-0.9 	"/>
	<polygon fill="#9E4F5A" points="70.4,32.3 34.5,32.1 34.7,67 	"/>
	<polyline fill="#7B3132" points="35.9,-1.5 0.9,32.9 35.2,32.2 35.9,-1.5 	"/>
	<line fill="#D79228" x1="0.2" y1="34" x2="0.6" y2="-1.2"/>
	<g>
		<polygon fill="#C47429" points="101.7,66.4 67.8,66.3 67.9,32.8 		"/>
	</g>
	<path fill="#B4AE46" d="M102.6,0.2"/>
	<line fill="#B4AE46" x1="102.6" y1="0.2" x2="102.4" y2="34.1"/>
	<polyline fill="#A19333" points="136.4,0.2 136.2,34.1 102.6,0.4 	"/>
	<g>
		<polygon fill="#A53637" points="135.1,31.4 135.3,66.7 100,66.5 		"/>
	</g>
	<polyline fill="#A53637" points="135.1,-0.9 135,32.5 101.2,-1.1 	"/>
	<polyline fill="#831F25" points="101.7,-1.2 135.3,32.5 101.5,32.7 101.7,-1.2 	"/>
	<polyline fill="#A53637" points="101.7,-1.3 101.9,32.6 68,32.4 101.7,-1.3 	"/>
	<polygon fill="#992A29" points="101.7,66 101.5,32.5 135.3,32.3 	"/>
	<g>
		<polygon fill="#A53637" points="68,32.3 65.8,66.7 102.7,66.9 		"/>
	</g>
	<line fill="#CDC97B" x1="268.4" y1="33.5" x2="234.7" y2="-0.1"/>
	<path fill="#CDC97B" d="M268.6-0.3"/>
	<polyline fill="#C5C388" points="235.4,-0.4 269,33.3 235.2,33.5 235.4,-0.4 	"/>
	<polyline fill="#C5C388" points="235.4,-0.5 235.6,33.4 201.7,33.2 235.4,-0.5 	"/>
	<polygon opacity="0.91" fill="#E1DC9B" points="201.7,33.2 235.6,33.3 235.5,66.7 	"/>
	<polygon fill="#C5C37E" points="167.3,67.1 167.1,33.2 201,33.4 	"/>
	<polyline fill="#CDC97B" points="167.3,-0.1 201,33.4 167.2,33.3 167.3,-0.1 	"/>
	<polyline fill="#C5C173" points="200.6,-0.4 200.8,33.5 234.5,-0.2 	"/>
	<polyline fill="#C5C173" points="167.2,-0.1 200.8,33.6 201,-0.3 	"/>
	<polyline fill="#7B3132" points="268.5,-1 268.3,34.4 233.2,-0.8 	"/>
	<polyline fill="#F0C049" points="167.7,-0.3 201.4,33.4 167.5,33.6 167.7,-0.3 	"/>
	<polygon fill="#ECAB32" points="167.7,66.9 167.5,33.4 201.4,33.2 	"/>
	<polygon fill="#7B3132" points="234.7,67.2 234.5,33.3 268.4,33.5 	"/>
	<polyline fill="#992A29" points="234.7,0 236.7,33.7 201.1,33.6 234.7,0 	"/>
	<polyline fill="#9E4F5A" points="234.6,0 268.4,33.5 235.2,33.5 234.6,0 	"/>
	<polyline fill="#FBE752" points="201.3,0 201.1,33.8 167.4,0.2 	"/>
	<polyline fill="#7B3132" points="236,-0.7 200.8,34.5 200.6,-0.9 	"/>
	<polyline fill="#9E4F5A" points="166.1,-1.2 202,34 202.2,-0.9 	"/>
	<polygon fill="#831F25" points="201,32.9 234.8,32.7 234.6,66.5 	"/>
	<polyline fill="#B46C29" points="167.7,-0.3 202.1,33.4 167.5,33.6 167.7,-0.3 	"/>
	<polygon fill="#C47429" points="167.7,66.9 167.5,33.4 202.1,33.2 	"/>
	<g>
		<polygon fill="#C47429" points="167.7,66.9 201.5,66.8 201.4,33.3 		"/>
	</g>
	<line fill="#605A26" x1="166.7" y1="101.3" x2="200.5" y2="101.5"/>
	<polyline fill="#AAA034" points="166.7,0.8 200.3,34.5 166.5,34.7 166.7,0.8 	"/>
	<polygon fill="#988932" points="166.7,68 166.5,34.5 200.3,34.3 	"/>
	<g>
		<polygon fill="#AD3434" points="135,32.5 134,67.2 167.9,67 		"/>
	</g>
	<polyline fill="#9E4F5A" points="134.3,-1 134.3,32.4 168.1,-1.1 	"/>
	<polyline fill="#831F25" points="167.7,-0.6 134,33 167.9,33.2 167.7,-0.6 	"/>
	<polyline fill="#992A29" points="167.7,-0.7 167.5,33.1 201.3,32.9 167.7,-0.7 	"/>
	<polygon fill="#A23838" points="167.7,66.5 167.9,33.1 134,32.8 	"/>
	<polygon fill="#AD3434" points="201.3,32.9 167.5,33 167.6,66.5 	"/>
	<g>
		<polygon fill="#A23838" points="201.3,32.8 203,67.7 164.7,68 		"/>
		<polygon fill="#A53637" points="236.7,66.9 201.7,67 201.2,31.7 		"/>
	</g>
</g>
<rect x="0" y="37.4" fill="none" width="269" height="41.7"/>
<text transform="matrix(1 0 0 1 65.2851 56.5683)" fill="#FFFFFF" font-family="'MyriadPro-Bold'" font-size="27">ASTD Week</text>
</svg>
