<?xml version="1.0" encoding="utf-8"?>
<!-- Generator: Adobe Illustrator 15.0.0, SVG Export Plug-In . SVG Version: 6.00 Build 0)  -->
<!DOCTYPE svg PUBLIC "-//W3C//DTD SVG 1.1//EN" "http://www.w3.org/Graphics/SVG/1.1/DTD/svg11.dtd">
<svg version="1.1" id="Layer_1" xmlns="http://www.w3.org/2000/svg" xmlns:xlink="http://www.w3.org/1999/xlink" x="0px" y="0px"
	 width="290.827px" height="248.287px" viewBox="0 0 290.827 248.287" enable-background="new 0 0 290.827 248.287"
	 xml:space="preserve">
<g>
	<rect y="-0.5" fill="#BDC537" width="290.943" height="250.426"/>
	<g opacity="0.44">
		<polygon fill="#C4C14C" points="250.98,144.998 287.004,144.789 286.799,180.813 		"/>
		<polygon fill="#CAB851" points="286.891,111.164 287.092,144.95 251.068,145.186 		"/>
		<polyline fill="#C2B43C" points="215.832,249.689 180.785,214.643 216.041,214.436 215.832,249.689 		"/>
		<polyline fill="#CBB534" points="215.811,249.793 215.6,214.539 250.855,214.746 215.811,249.793 		"/>
		<polygon fill="#B5B046" points="215.832,179.782 216.041,214.596 180.785,214.829 		"/>
		<polygon fill="#C3B943" points="250.883,214.746 215.627,214.624 215.721,179.811 		"/>
		<polygon fill="#C2B43C" points="215.832,179.928 251.086,180.135 250.883,144.883 		"/>
		<polygon fill="#CBB534" points="250.857,144.777 250.645,180.031 286.799,180.813 		"/>
		<polygon fill="#B5B046" points="250.881,214.789 251.086,179.977 215.07,179.744 		"/>
		<polygon fill="#C2B43C" points="286.619,180.262 250.438,179.173 250.98,216.423 		"/>
		<polyline fill="#AAA134" points="286.891,249.926 250.645,214.76 250.438,249.574 		"/>
		<polyline fill="#B5B046" points="250.852,249.602 250.754,214.789 215.6,249.725 		"/>
		<polygon fill="#CBB534" points="286.498,179.865 286.711,215.119 251.451,214.914 		"/>
		<polyline fill="#C3B943" points="286.891,249.926 250.645,214.742 286.711,215.119 285.803,249.678 		"/>
		<polyline fill="#B5B046" points="146.506,249.895 181.547,214.844 181.758,249.659 		"/>
		<polyline fill="#B5B046" points="181.344,249.688 181.443,214.874 216.6,249.81 		"/>
		<polygon fill="#BDC537" points="286.891,111.164 251.092,111.164 251.162,145.523 		"/>
		<polygon fill="#C4C14C" points="251.188,146.395 251.092,111.164 216.289,111.045 		"/>
		<g>
			<g>
				<polygon fill="#C4C152" points="146.375,181.146 146.164,145.893 181.422,146.1 				"/>
				<polygon fill="#C4C278" points="181.447,146.1 146.195,145.977 146.289,111.164 				"/>
			</g>
			<polygon fill="#C4C152" points="181.447,146.141 181.654,111.329 146.398,111.092 			"/>
			<polygon fill="#BDC537" points="216.289,111.045 181.654,111.329 181.34,146.113 			"/>
			<g>
				<polygon fill="#CBB534" points="216.26,180.207 181.006,180 181.213,215.254 				"/>
				<polygon fill="#C4C14C" points="181.24,215.357 181.447,180.104 146.191,180.311 				"/>
				<polygon fill="#BFBF39" points="181.213,145.346 181.006,180.16 217.029,180.396 				"/>
				<polygon fill="#B5B046" points="146.164,180.311 181.42,180.188 181.322,145.375 				"/>
			</g>
			<g>
				<polygon fill="#C0C06E" points="251.309,146.197 216.057,146.406 216.289,111.045 				"/>
				<polygon fill="#CAB851" points="216.289,111.045 216.496,146.302 181.24,146.096 				"/>
				<polygon fill="#BFBF39" points="216.26,181.06 216.057,146.246 251.309,146.01 				"/>
				<polygon fill="#C3B943" points="181.213,146.094 216.469,146.217 216.371,181.031 				"/>
			</g>
		</g>
		<polyline fill="#CBB534" points="146.045,250.645 181.861,214.827 145.842,214.62 146.816,249.877 		"/>
		<polygon fill="#BFBF39" points="146.045,179.969 145.842,214.783 181.098,215.016 		"/>
		<polygon fill="#C4C14C" points="112.646,144.477 148.668,144.268 148.461,180.292 		"/>
		<polygon fill="#CAB851" points="148.52,110.594 148.727,145.407 112.703,145.643 		"/>
		<polyline fill="#C2B43C" points="77.412,249.17 42.363,214.12 77.619,213.913 77.412,249.17 		"/>
		<polyline fill="#CBB534" points="77.385,249.273 77.18,214.017 112.432,214.225 77.385,249.273 		"/>
		<polygon fill="#B5B046" points="77.412,179.262 77.619,214.076 42.363,214.309 		"/>
		<polygon fill="#C3B943" points="112.459,214.225 77.205,214.102 77.299,179.289 		"/>
		<polygon fill="#C2B43C" points="77.412,179.404 112.664,179.615 112.459,144.363 		"/>
		<polygon fill="#CBB534" points="112.436,144.256 112.223,179.512 147.477,179.306 		"/>
		<polygon fill="#B5B046" points="112.453,214.267 112.664,179.457 76.646,179.221 		"/>
		<polygon fill="#C2B43C" points="147.508,179.305 112.252,179.427 112.35,214.24 		"/>
		<polyline fill="#AAA134" points="147.27,249.287 112.223,214.24 112.016,249.054 		"/>
		<polyline fill="#B5B046" points="112.43,249.08 112.332,214.267 77.18,249.202 		"/>
		<polygon fill="#CBB534" points="147.295,179.173 147.508,214.43 112.25,214.222 		"/>
		<polyline fill="#C3B943" points="147.381,249.926 112.223,214.222 147.477,214.344 147.381,249.157 		"/>
		<polyline fill="#B5B046" points="8.084,249.373 43.125,214.326 43.336,249.139 		"/>
		<polyline fill="#B5B046" points="42.922,249.166 43.018,214.352 78.174,249.287 		"/>
		<polygon fill="#C3B943" points="148.176,111.174 113.256,110.631 112.703,145.643 		"/>
		<polygon fill="#C4C14C" points="113.047,146.652 113.256,110.631 77.232,110.838 		"/>
		<g>
			<g>
				<polygon fill="#C4C152" points="7.953,180.627 7.742,145.371 42.998,145.578 				"/>
				<polygon fill="#C4C278" points="43.025,145.578 7.771,145.455 7.867,110.643 				"/>
			</g>
			<polygon fill="#C4C152" points="43.025,145.619 43.232,110.807 7.977,110.573 			"/>
			<polygon fill="#BDC537" points="78.072,110.656 42.82,110.78 42.918,145.594 			"/>
			<g>
				<polygon fill="#CBB534" points="77.838,179.685 42.582,179.478 42.789,214.734 				"/>
				<polygon fill="#C4C14C" points="42.818,214.838 43.025,179.583 7.77,179.79 				"/>
				<polygon fill="#BFBF39" points="42.789,144.826 42.582,179.64 78.605,179.873 				"/>
				<polygon fill="#B5B046" points="7.742,179.79 42.998,179.668 42.9,144.854 				"/>
			</g>
			<g>
				<polygon fill="#C0C06E" points="112.887,145.678 77.631,145.887 77.838,110.633 				"/>
				<polygon fill="#CAB851" points="77.865,110.525 78.072,145.783 42.818,145.576 				"/>
				<polygon fill="#BFBF39" points="77.838,180.537 77.631,145.727 112.887,145.488 				"/>
				<polygon fill="#C3B943" points="42.789,145.574 78.045,145.695 77.951,180.512 				"/>
			</g>
		</g>
		<polyline fill="#CBB534" points="7.627,250.122 43.439,214.307 7.418,214.1 8.395,249.354 		"/>
		<polygon fill="#BFBF39" points="7.627,179.447 7.418,214.26 42.674,214.496 		"/>
	</g>
	
		<radialGradient id="SVGID_1_" cx="173.562" cy="-366.5029" r="128.3595" gradientTransform="matrix(0.7071 -0.7071 -0.7071 -0.7071 -151.1569 -80.5719)" gradientUnits="userSpaceOnUse">
		<stop  offset="0" style="stop-color:#ACA134"/>
		<stop  offset="0.0557" style="stop-color:#B0A539"/>
		<stop  offset="0.1741" style="stop-color:#B7AC43"/>
		<stop  offset="0.314" style="stop-color:#BBB04A"/>
		<stop  offset="0.5273" style="stop-color:#BCB14C"/>
		<stop  offset="1" style="stop-color:#AA9F34"/>
	</radialGradient>
	<polygon fill="url(#SVGID_1_)" points="58.104,-0.313 290.863,-0.453 290.943,224.419 	"/>
</g>
<rect x="9.635" y="22.391" fill="none" width="258.262" height="274.5"/>
<text transform="matrix(1 0 0 1 184.2471 42.3247)"><tspan x="0" y="0" fill="#FFFFFF" font-family="'MyriadPro-Bold'" font-size="28.08">Events</tspan><tspan x="-138.403" y="37.44" fill="#FFFFFF" font-family="'MyriadPro-Bold'" font-size="18.72">CLO Innovation Africa Net</tspan><tspan x="77.62" y="37.44" fill="#FFFFFF" font-family="'MyriadPro-Bold'" font-size="18.72">-</tspan><tspan x="41.38" y="74.88" fill="#FFFFFF" font-family="'MyriadPro-Bold'" font-size="18.72">work</tspan><tspan x="-161.548" y="90.043" fill="#FFFFFF" font-family="'MyriadPro-Regular'" font-size="12.636">These events are opportunities for ASTD mem</tspan><tspan x="79.769" y="90.043" fill="#FFFFFF" font-family="'MyriadPro-Regular'" font-size="12.636">-</tspan><tspan x="-162.71" y="105.207" fill="#FFFFFF" font-family="'MyriadPro-Regular'" font-size="12.636">bers and colleagues in the industry to network.  </tspan><tspan x="-171.998" y="120.37" fill="#FFFFFF" font-family="'MyriadPro-Regular'" font-size="12.636">Prominent speakers present on topics of particu</tspan><tspan x="79.77" y="120.37" fill="#FFFFFF" font-family="'MyriadPro-Regular'" font-size="12.636">-</tspan><tspan x="-97.017" y="135.533" fill="#FFFFFF" font-family="'MyriadPro-Regular'" font-size="12.636">lar interest and encourage debate.</tspan><tspan x="-43.308" y="160.493" fill="#FFFFFF" font-family="'MyriadPro-Bold'" font-size="18.72">Company visits</tspan><tspan x="83.647" y="160.493" fill="#FFFFFF" font-family="'MyriadPro-Bold'" font-size="28.08"> </tspan><tspan x="-144.136" y="175.656" fill="#FFFFFF" font-family="'MyriadPro-Regular'" font-size="12.636">Visits are coordinated with industry specific </tspan><tspan x="-137.881" y="190.819" fill="#FFFFFF" font-family="'MyriadPro-Regular'" font-size="12.636">ASTD member companies, and provide an </tspan><tspan x="-169.66" y="205.982" fill="#FFFFFF" font-family="'MyriadPro-Regular'" font-size="12.636">opportunity for the  presentation of case studies </tspan><tspan x="-127.166" y="221.146" fill="#FFFFFF" font-family="'MyriadPro-Regular'" font-size="12.636">and sharing of challenges and solutions.</tspan></text>
<line fill="none" stroke="#FFFFFF" stroke-width="0.5" x1="266.367" y1="53.461" x2="13.693" y2="53.461"/>
</svg>
