<?xml version="1.0" encoding="utf-8"?>
<!-- Generator: Adobe Illustrator 15.0.0, SVG Export Plug-In . SVG Version: 6.00 Build 0)  -->
<!DOCTYPE svg PUBLIC "-//W3C//DTD SVG 1.1//EN" "http://www.w3.org/Graphics/SVG/1.1/DTD/svg11.dtd">
<svg version="1.1" id="Layer_1" xmlns="http://www.w3.org/2000/svg" xmlns:xlink="http://www.w3.org/1999/xlink" x="0px" y="0px"
	 width="285.313px" height="567.629px" viewBox="0 0 285.313 567.629" enable-background="new 0 0 285.313 567.629"
	 xml:space="preserve">
<g>
	<g>
		<g>
			<g>
				<polygon fill="#E3D270" points="30.384,140.006 30.216,168.813 59.024,168.646 				"/>
				<polygon fill="#EFDD93" points="59.113,168.626 30.348,168.813 30.47,197.266 				"/>
				<polygon fill="#DFC881" points="1.896,168.645 30.348,168.813 30.536,140.006 				"/>
				<polygon fill="#DAC168" points="30.47,197.287 30.348,168.813 1.921,168.558 				"/>
				<g>
					<polygon fill="#EED16F" points="59.027,111.532 58.856,140.339 87.666,140.172 					"/>
					<polygon fill="#EFE17C" points="87.752,140.151 58.989,140.339 59.11,168.792 					"/>
					<polygon fill="#DAC168" points="30.536,140.171 58.989,140.339 59.18,111.532 					"/>
					<polygon fill="#EED16F" points="59.11,168.813 58.989,140.339 30.563,140.082 					"/>
				</g>
				<g>
					<polygon fill="#F7F2AD" points="58.905,168.558 58.736,197.364 87.547,197.196 					"/>
					<polygon fill="#EFF0AB" points="87.631,197.177 58.867,197.364 58.99,225.816 					"/>
					<polygon fill="#F8E8A6" points="30.417,197.195 58.867,197.364 59.061,168.558 					"/>
					<polygon fill="#EFF0AB" points="58.99,225.839 58.867,197.364 30.441,197.106 					"/>
				</g>
				<g>
					<polygon fill="#EEEF9C" points="87.431,140.15 87.258,168.959 116.068,168.789 					"/>
					<polygon fill="#EEF0AA" points="116.154,168.771 87.39,168.959 87.512,197.409 					"/>
					<polygon fill="#F0E385" points="58.94,168.788 87.39,168.959 87.58,140.15 					"/>
					<polygon fill="#EFF0AB" points="87.512,197.434 87.39,168.959 58.964,168.701 					"/>
				</g>
				<g>
					<polygon fill="#DBC152" points="30.421,82.944 30.25,111.754 59.061,111.584 					"/>
					<polygon fill="#E3D270" points="59.146,111.563 30.382,111.754 30.503,140.203 					"/>
					<polygon fill="#D1B35C" points="1.93,111.584 30.382,111.754 30.573,82.944 					"/>
					<polygon fill="#BD9D55" points="30.503,140.225 30.382,111.754 1.956,111.495 					"/>
				</g>
				<g>
					<polygon fill="#BD9D55" points="58.99,54.394 58.822,83.201 87.63,83.032 					"/>
					<polygon fill="#E1BF61" points="87.717,83.013 58.953,83.201 59.074,111.651 					"/>
					<polygon fill="#D2AB50" points="30.503,83.032 58.953,83.201 59.143,54.394 					"/>
					<polygon fill="#D1B35C" points="59.074,111.677 58.953,83.201 30.525,82.944 					"/>
				</g>
				<g>
					<polygon fill="#E3D270" points="87.427,83.034 87.255,111.844 116.065,111.674 					"/>
					<polygon fill="#DAC168" points="116.15,111.655 87.388,111.844 87.509,140.295 					"/>
					<polygon fill="#EED16F" points="58.938,111.674 87.388,111.844 87.577,83.034 					"/>
					<polygon fill="#E8D37C" points="87.509,140.317 87.388,111.844 58.962,111.584 					"/>
				</g>
				<g>
					<polygon fill="#F3EAA8" points="87.302,140.147 115.753,140.317 115.942,111.509 					"/>
					<polygon fill="#F8E8A6" points="115.874,168.792 115.753,140.317 87.324,140.061 					"/>
				</g>
				<g>
					<polygon fill="#DAC168" points="1.833,111.509 1.664,140.317 30.476,140.148 					"/>
					<polygon fill="#DBC152" points="30.563,140.129 1.799,140.317 1.921,168.768 					"/>
				</g>
				<g>
					<polygon fill="#AF8740" points="1.833,54.303 1.664,83.113 30.476,82.944 					"/>
					<polygon fill="#BD9D55" points="30.563,82.923 1.799,83.113 1.921,111.563 					"/>
				</g>
				<g>
					<polygon fill="#D1B35C" points="87.266,82.852 115.717,83.021 115.91,54.212 					"/>
					<polygon fill="#DAC168" points="115.839,111.495 115.717,83.021 87.29,82.764 					"/>
				</g>
				<g>
					<polygon fill="#BA9A58" points="30.452,25.752 30.284,54.56 59.096,54.394 					"/>
					<polygon fill="#AF8740" points="59.18,54.372 30.415,54.56 30.535,83.013 					"/>
					<polygon fill="#88674F" points="1.966,54.394 30.415,54.56 30.606,25.752 					"/>
					<polygon fill="#B89152" points="30.535,83.034 30.415,54.56 1.987,54.303 					"/>
				</g>
				<g>
					<polygon fill="#E1BF61" points="87.207,25.919 87.037,54.729 115.847,54.56 					"/>
					<polygon fill="#DDC25F" points="115.933,54.539 87.167,54.729 87.29,83.178 					"/>
					<polygon fill="#BA9A58" points="58.717,54.56 87.167,54.729 87.359,25.919 					"/>
					<polygon fill="#AF8740" points="87.29,83.201 87.167,54.729 58.74,54.47 					"/>
				</g>
				<g>
					<polygon fill="#D2AB50" points="87.717,25.899 58.953,26.087 59.074,54.539 					"/>
					<polygon fill="#B89152" points="59.074,54.56 58.953,26.087 30.525,25.828 					"/>
				</g>
				<g>
					<polygon fill="#8C705E" points="30.481,25.782 1.717,25.97 1.838,54.418 					"/>
				</g>
				<g>
					<polygon fill="#D8BD6F" points="115.759,54.729 115.636,26.255 87.209,25.996 					"/>
				</g>
				<polygon fill="#EFF1B0" points="30.412,197.171 30.242,225.979 59.053,225.813 				"/>
				<polygon fill="#EEF1BB" points="59.138,225.79 30.373,225.979 30.497,254.432 				"/>
				<polygon fill="#F7F2AD" points="1.924,225.809 30.373,225.979 30.565,197.171 				"/>
				<polygon fill="#EEEF9C" points="30.497,254.452 30.373,225.979 1.946,225.722 				"/>
				<g>
					<polygon fill="#FAF5CA" points="58.934,225.722 58.763,254.532 87.574,254.361 					"/>
					<polygon fill="#F9F4AC" points="30.446,254.361 58.896,254.532 59.085,225.722 					"/>
				</g>
				<g>
					<polygon fill="#F7F2AD" points="87.455,197.313 87.284,226.124 116.095,225.955 					"/>
					<polygon fill="#F5F5C7" points="116.182,225.936 87.418,226.124 87.54,254.574 					"/>
					<polygon fill="#F7F2AD" points="58.967,225.954 87.418,226.124 87.608,197.313 					"/>
					<polygon fill="#F7F2AD" points="87.54,254.598 87.418,226.124 58.99,225.865 					"/>
				</g>
				<g>
					<polygon fill="#F8F4C9" points="87.328,197.31 115.778,197.48 115.972,168.675 					"/>
					<polygon fill="#F9F4AC" points="115.9,225.955 115.778,197.48 87.352,197.225 					"/>
				</g>
				<g>
					<polygon fill="#D2AB50" points="1.862,168.675 1.691,197.48 30.503,197.313 					"/>
					<polygon fill="#BD9D55" points="30.588,197.294 1.824,197.48 1.946,225.933 					"/>
				</g>
				<g>
					<polygon fill="#F9F4AC" points="87.289,254.455 115.738,254.623 115.93,225.816 					"/>
				</g>
				<g>
					<polygon fill="#F3EAB1" points="1.82,225.816 1.652,254.623 30.461,254.455 					"/>
					<polygon fill="#EEEF9C" points="30.549,254.435 1.784,254.623 1.905,283.074 					"/>
				</g>
				<polygon fill="#EEEF9C" points="143.966,140.073 143.797,168.882 172.605,168.712 				"/>
				<polygon fill="#F0F0A7" points="172.691,168.691 143.927,168.882 144.048,197.332 				"/>
				<polygon fill="#E4ECA4" points="115.478,168.711 143.927,168.882 144.118,140.073 				"/>
				<polygon fill="#E7EDAE" points="144.048,197.356 143.927,168.882 115.499,168.625 				"/>
				<g>
					<polygon fill="#E4ECA4" points="172.606,111.599 172.436,140.408 201.246,140.24 					"/>
					<polygon fill="#E7EDAE" points="201.333,140.22 172.57,140.408 172.691,168.858 					"/>
					<polygon fill="#ECF0B2" points="144.118,140.239 172.57,140.408 172.758,111.599 					"/>
					<polygon fill="#DFE69A" points="172.691,168.882 172.57,140.408 144.142,140.15 					"/>
				</g>
				<g>
					<polygon fill="#EDF0AE" points="172.486,168.625 172.316,197.434 201.128,197.263 					"/>
					<polygon fill="#EEF1BB" points="201.213,197.244 172.449,197.434 172.572,225.883 					"/>
					<polygon fill="#ECF1BC" points="143.998,197.262 172.449,197.434 172.64,168.625 					"/>
					<polygon fill="#F2F1BE" points="172.572,225.906 172.449,197.434 144.022,197.176 					"/>
				</g>
				<g>
					<polygon fill="#EDF0AE" points="201.009,140.218 200.838,169.024 229.647,168.856 					"/>
					<polygon fill="#EEEF9C" points="229.735,168.837 200.971,169.024 201.092,197.476 					"/>
					<polygon fill="#EEEF9C" points="172.521,168.856 200.971,169.024 201.161,140.218 					"/>
					<polygon fill="#F0F0A7" points="201.092,197.499 200.971,169.024 172.543,168.768 					"/>
				</g>
				<g>
					<polygon fill="#EAE494" points="143.999,83.013 143.829,111.82 172.64,111.651 					"/>
					<polygon fill="#F8E8A6" points="172.727,111.63 143.962,111.82 144.085,140.271 					"/>
					<polygon fill="#EAE494" points="115.511,111.649 143.962,111.82 144.152,83.013 					"/>
					<polygon fill="#F3EAA8" points="144.085,140.295 143.962,111.82 115.535,111.563 					"/>
				</g>
				<g>
					<polygon fill="#DFE69A" points="172.572,54.459 172.401,83.27 201.213,83.102 					"/>
					<polygon fill="#DEDB89" points="201.298,83.081 172.534,83.27 172.657,111.721 					"/>
					<polygon fill="#F2E28E" points="144.085,83.102 172.534,83.27 172.725,54.459 					"/>
					<polygon fill="#EAE494" points="172.657,111.744 172.534,83.27 144.107,83.013 					"/>
				</g>
				<g>
					<polygon fill="#DFE69A" points="201.006,83.102 200.836,111.912 229.646,111.741 					"/>
					<polygon fill="#E7EDAE" points="229.73,111.723 200.968,111.912 201.089,140.36 					"/>
					<polygon fill="#DFE69A" points="172.518,111.741 200.968,111.912 201.158,83.102 					"/>
					<polygon fill="#DCDF97" points="201.089,140.384 200.968,111.912 172.54,111.651 					"/>
				</g>
				<g>
					<polygon fill="#E4ECA4" points="200.881,140.214 229.332,140.384 229.522,111.574 					"/>
					<polygon fill="#DCE9AB" points="229.454,168.858 229.332,140.384 200.904,140.126 					"/>
				</g>
				<g>
					<polygon fill="#ECF0B2" points="115.416,111.574 115.245,140.384 144.055,140.214 					"/>
					<polygon fill="#F7F2AD" points="144.142,140.194 115.377,140.384 115.499,168.835 					"/>
				</g>
				<g>
					<polygon fill="#DBC152" points="115.416,54.37 115.245,83.178 144.055,83.01 					"/>
					<polygon fill="#E3D270" points="144.142,82.99 115.377,83.178 115.499,111.629 					"/>
				</g>
				<g>
					<polygon fill="#DAD493" points="200.847,82.919 229.297,83.086 229.488,54.28 					"/>
					<polygon fill="#D4DE8E" points="229.418,111.563 229.297,83.086 200.868,82.83 					"/>
				</g>
				<g>
					<polygon fill="#DAC168" points="144.033,25.818 143.862,54.627 172.674,54.459 					"/>
					<polygon fill="#DAC168" points="172.758,54.441 143.994,54.627 144.117,83.077 					"/>
					<polygon fill="#D2AB50" points="115.546,54.459 143.994,54.627 144.186,25.818 					"/>
					<polygon fill="#DAC168" points="144.117,83.102 143.994,54.627 115.568,54.37 					"/>
				</g>
				<g>
					<polygon fill="#B7B46C" points="200.785,25.987 200.616,54.796 229.427,54.627 					"/>
					<polygon fill="#D8D389" points="229.511,54.607 200.748,54.796 200.868,83.246 					"/>
					<polygon fill="#ADA05F" points="172.298,54.627 200.748,54.796 200.938,25.987 					"/>
					<polygon fill="#D1D88C" points="200.868,83.27 200.748,54.796 172.32,54.539 					"/>
				</g>
				<g>
					<polygon fill="#C8C674" points="201.298,25.966 172.534,26.152 172.657,54.604 					"/>
					<polygon fill="#DAC168" points="172.657,54.627 172.534,26.152 144.107,25.896 					"/>
				</g>
				<g>
					<polygon fill="#D1B35C" points="144.06,25.849 115.296,26.036 115.418,54.487 					"/>
				</g>
				<g>
					<polygon fill="#ADA05F" points="229.337,54.796 229.215,26.322 200.79,26.063 					"/>
				</g>
				<polygon fill="#FAF2BA" points="143.991,197.237 143.822,226.046 172.635,225.879 				"/>
				<polygon fill="#F2F2C0" points="172.721,225.858 143.956,226.046 144.076,254.498 				"/>
				<polygon fill="#FAF5CA" points="115.505,225.878 143.956,226.046 144.144,197.237 				"/>
				<polygon fill="#F5F5C7" points="144.076,254.52 143.956,226.046 115.526,225.79 				"/>
				<g>
					<polygon fill="#FAF2BA" points="172.515,225.79 172.345,254.598 201.153,254.429 					"/>
					<polygon fill="#F9F8CE" points="144.026,254.429 172.476,254.598 172.668,225.79 					"/>
				</g>
				<g>
					<polygon fill="#EFF0AB" points="201.033,197.382 200.866,226.191 229.678,226.021 					"/>
					<polygon fill="#F5F5C7" points="229.762,226.003 200.997,226.191 201.119,254.641 					"/>
					<polygon fill="#F2F1BE" points="172.546,226.021 200.997,226.191 201.189,197.382 					"/>
					<polygon fill="#EFF0AB" points="201.119,254.665 200.997,226.191 172.572,225.933 					"/>
				</g>
				<g>
					<polygon fill="#EDF0B5" points="200.91,197.38 229.358,197.551 229.55,168.74 					"/>
					<polygon fill="#FAF2BA" points="229.48,226.021 229.358,197.551 200.934,197.294 					"/>
				</g>
				<g>
					<polygon fill="#EFF0AB" points="115.44,168.74 115.273,197.551 144.085,197.382 					"/>
					<polygon fill="#F8F4C9" points="144.17,197.361 115.405,197.551 115.526,226.001 					"/>
				</g>
				<g>
					<polygon fill="#FAF2BA" points="200.868,254.522 229.319,254.691 229.508,225.883 					"/>
				</g>
				<g>
					<polygon fill="#F9F8CE" points="115.402,225.883 115.231,254.691 144.043,254.522 					"/>
				</g>
			</g>
			<g>
				<polyline fill="#DCDF97" points="286.09,140.738 257.279,140.574 285.919,111.931 				"/>
				<polyline fill="#D4DE8E" points="285.834,169.19 257.192,140.551 285.956,140.738 				"/>
				<polyline fill="#D8D797" points="286.209,197.765 257.397,197.596 286.038,168.956 				"/>
				<polyline fill="#DEE899" points="285.954,226.215 257.313,197.575 286.077,197.765 				"/>
				<polygon fill="#D5E597" points="257.517,140.547 257.688,169.357 228.878,169.19 				"/>
				<polygon fill="#DCDF97" points="228.791,169.17 257.556,169.357 257.435,197.809 				"/>
				<polyline fill="#DEDB89" points="286.005,169.187 257.556,169.357 257.365,140.547 286.005,169.187 				"/>
				<polyline fill="#DEE899" points="285.982,169.101 257.435,197.831 257.556,169.357 285.982,169.101 				"/>
				<polyline fill="#C1BF71" points="286.126,83.6 257.313,83.432 285.952,54.792 				"/>
				<polyline fill="#D3C577" points="285.869,112.05 257.227,83.413 285.991,83.6 				"/>
				<polygon fill="#DEDB89" points="257.521,83.433 257.691,112.242 228.882,112.074 				"/>
				<polygon fill="#CCD287" points="228.795,112.054 257.559,112.242 257.437,140.693 				"/>
				<polyline fill="#CCD287" points="286.009,112.074 257.559,112.242 257.369,83.433 286.009,112.074 				"/>
				<polyline fill="#D8D797" points="285.986,111.983 257.437,140.716 257.559,112.242 285.986,111.983 				"/>
				<g>
					<polygon fill="#DEDB89" points="257.645,140.547 229.194,140.716 229.003,111.906 					"/>
					<polygon fill="#D4DE8E" points="229.071,169.19 229.194,140.716 257.62,140.458 					"/>
				</g>
				<g>
					<polygon fill="#D3C577" points="257.678,83.248 229.23,83.42 229.038,54.613 					"/>
					<polygon fill="#D8D389" points="229.108,111.894 229.23,83.42 257.655,83.163 					"/>
				</g>
				<polygon fill="#C1BF71" points="257.739,26.318 257.91,55.129 229.1,54.959 				"/>
				<polygon fill="#C1BF71" points="229.015,54.939 257.778,55.129 257.655,83.578 				"/>
				<polyline fill="#B7B46C" points="286.228,54.959 257.778,55.129 257.588,26.318 286.228,54.959 				"/>
				<polyline fill="#A8A76E" points="286.205,54.868 257.655,83.6 257.778,55.129 286.205,54.868 				"/>
				<polyline fill="#A8A76E" points="285.869,54.937 257.227,26.299 285.991,26.484 				"/>
				<g>
					<polygon fill="#B7B46C" points="228.325,56.251 228.447,27.78 256.872,27.52 					"/>
				</g>
				<polyline fill="#EFF0AB" points="286.185,254.93 257.373,254.76 286.011,226.12 				"/>
				<polygon fill="#EFF0AB" points="257.491,197.714 257.66,226.523 228.849,226.354 				"/>
				<polygon fill="#EEF1BB" points="228.765,226.334 257.53,226.523 257.406,254.971 				"/>
				<polyline fill="#EDEE9D" points="285.979,226.352 257.53,226.523 257.338,197.714 285.979,226.352 				"/>
				<polyline fill="#EFF0AB" points="285.954,226.265 257.406,254.996 257.53,226.523 285.954,226.265 				"/>
				<g>
					<polygon fill="#EEEF9C" points="257.616,197.712 229.166,197.88 228.975,169.073 					"/>
					<polygon fill="#EDF1BA" points="229.044,226.354 229.166,197.88 257.593,197.624 					"/>
				</g>
				<g>
					<polygon fill="#EEEF9C" points="257.657,254.854 229.206,255.023 229.017,226.215 					"/>
				</g>
			</g>
			<g>
				<polyline fill="#EFF0AB" points="229.19,254.259 229.069,282.707 200.427,254.067 				"/>
				<polyline fill="#EEF1BB" points="257.617,254 229.069,282.732 229.19,254.259 				"/>
				<polyline fill="#EEF1BB" points="257.717,254.04 257.886,282.85 229.076,282.682 257.717,254.04 				"/>
				<polyline fill="#F2F1BE" points="257.563,254.04 286.205,282.679 257.754,282.85 257.563,254.04 				"/>
				<polyline fill="#ECF0B2" points="200.674,254.185 200.844,282.992 172.033,282.823 200.674,254.185 				"/>
				<polyline fill="#EFF0AB" points="200.52,254.185 229.162,282.823 200.71,282.992 200.52,254.185 				"/>
				<polyline fill="#FAF5CA" points="200.775,254.093 172.229,282.823 172.35,254.352 				"/>
				<polyline fill="#EEEF9C" points="286.304,254.352 286.183,282.802 257.539,254.162 				"/>
				<polygon fill="#EED16F" points="257.438,425.624 257.607,396.817 228.797,396.984 				"/>
				<polygon fill="#E9D872" points="228.712,397.004 257.475,396.817 257.354,368.366 				"/>
				<polygon fill="#D7B763" points="285.926,396.984 257.475,396.817 257.285,425.624 				"/>
				<polygon fill="#D8BD6F" points="257.354,368.343 257.475,396.817 285.904,397.076 				"/>
				<g>
					<polygon fill="#DAC168" points="228.797,454.099 228.967,425.291 200.154,425.459 					"/>
					<polygon fill="#E8D37C" points="200.071,425.479 228.834,425.291 228.714,396.84 					"/>
					<polygon fill="#DAC168" points="257.285,425.459 228.834,425.291 228.645,454.099 					"/>
					<polygon fill="#E3D270" points="228.714,396.817 228.834,425.291 257.262,425.547 					"/>
				</g>
				<g>
					<polygon fill="#EFE4A0" points="228.915,397.076 229.086,368.267 200.277,368.434 					"/>
					<polygon fill="#EFF1B0" points="200.191,368.453 228.956,368.267 228.833,339.813 					"/>
					<polygon fill="#DFE69A" points="257.406,368.434 228.956,368.267 228.764,397.076 					"/>
					<polygon fill="#EFE4A0" points="228.833,339.792 228.956,368.267 257.381,368.525 					"/>
				</g>
				<g>
					<polygon fill="#DFE69A" points="200.395,425.481 200.565,396.671 171.754,396.84 					"/>
					<polygon fill="#EEEE99" points="171.666,396.862 200.431,396.671 200.311,368.224 					"/>
					<polygon fill="#EFE17C" points="228.883,396.842 200.431,396.671 200.242,425.481 					"/>
					<polygon fill="#EEEF9C" points="200.311,368.201 200.431,396.671 228.86,396.931 					"/>
				</g>
				<g>
					<polygon fill="#DBC152" points="257.402,482.686 257.574,453.875 228.764,454.047 					"/>
					<polygon fill="#D7B763" points="228.678,454.066 257.44,453.875 257.32,425.428 					"/>
					<polygon fill="#C2B05B" points="285.892,454.047 257.44,453.875 257.249,482.686 					"/>
					<polygon fill="#DFC765" points="257.32,425.405 257.44,453.875 285.868,454.135 					"/>
				</g>
				<g>
					<polygon fill="#C2B05B" points="228.832,511.236 229.003,482.427 200.191,482.598 					"/>
					<polygon fill="#DBC152" points="200.106,482.618 228.87,482.427 228.747,453.979 					"/>
					<polygon fill="#BD9D55" points="257.32,482.598 228.87,482.427 228.679,511.236 					"/>
					<polygon fill="#D7B763" points="228.747,453.956 228.87,482.427 257.297,482.686 					"/>
				</g>
				<g>
					<polygon fill="#DAC168" points="200.397,482.596 200.568,453.788 171.758,453.956 					"/>
					<polygon fill="#E8D37C" points="171.672,453.976 200.434,453.788 200.313,425.337 					"/>
					<polygon fill="#DAC168" points="228.886,453.959 200.434,453.788 200.246,482.596 					"/>
					<polygon fill="#E8D37C" points="200.313,425.313 200.434,453.788 228.862,454.045 					"/>
				</g>
				<g>
					<polygon fill="#DEDB89" points="200.521,425.484 172.071,425.313 171.879,454.121 					"/>
					<polygon fill="#EEEF9C" points="171.948,396.84 172.071,425.313 200.498,425.573 					"/>
				</g>
				<g>
					<polygon fill="#D9BB6C" points="285.987,454.121 286.156,425.313 257.349,425.484 					"/>
					<polygon fill="#DFC765" points="257.262,425.502 286.024,425.313 285.904,396.865 					"/>
				</g>
				<g>
					<polygon fill="#D1B35A" points="285.987,511.325 286.156,482.519 257.349,482.686 					"/>
					<polygon fill="#D7B763" points="257.262,482.706 286.024,482.519 285.904,454.069 					"/>
				</g>
				<g>
					<polygon fill="#D1B35A" points="200.558,482.777 172.104,482.609 171.915,511.42 					"/>
					<polygon fill="#D8BD6F" points="171.984,454.135 172.104,482.609 200.534,482.868 					"/>
				</g>
				<g>
					<polygon fill="#D1B35A" points="228.645,511.257 257.408,511.068 257.287,482.62 					"/>
					<polygon fill="#D2AB50" points="257.287,482.596 257.408,511.068 285.834,511.325 					"/>
				</g>
				<g>
					<polygon fill="#D9BB6C" points="171.89,511.093 200.654,510.9 200.534,482.453 					"/>
					<polygon opacity="0.91" fill="#C2BD56" points="200.534,482.427 200.654,510.9 229.083,511.16 					"/>
				</g>
				<polygon fill="#EEEE99" points="257.412,368.462 257.58,339.649 228.771,339.818 				"/>
				<polygon fill="#EEEE99" points="228.685,339.841 257.449,339.649 257.327,311.201 				"/>
				<polygon fill="#F0E385" points="285.898,339.821 257.449,339.649 257.257,368.462 				"/>
				<polygon fill="#EFE4A0" points="257.327,311.178 257.449,339.649 285.875,339.908 				"/>
				<g>
					<polygon fill="#E5EEB9" points="228.889,339.908 229.06,311.101 200.249,311.269 					"/>
					<polygon fill="#F2F1BE" points="200.162,311.29 228.925,311.101 228.804,282.65 					"/>
					<polygon fill="#EEF1BB" points="257.377,311.269 228.925,311.101 228.735,339.908 					"/>
					<polygon fill="#F7F2AD" points="228.804,282.628 228.925,311.101 257.354,311.357 					"/>
				</g>
				<g>
					<polygon fill="#EFF0AB" points="200.367,368.317 200.538,339.508 171.727,339.675 					"/>
					<polygon fill="#F9F4AC" points="171.642,339.694 200.406,339.508 200.283,311.056 					"/>
					<polygon fill="#EEF1BB" points="228.856,339.675 200.406,339.508 200.213,368.317 					"/>
					<polygon fill="#EEEF9C" points="200.283,311.033 200.406,339.508 228.833,339.767 					"/>
				</g>
				<g>
					<polygon fill="#EFF0AB" points="200.492,368.317 172.042,368.149 171.854,396.957 					"/>
					<polygon fill="#EDF0B5" points="171.922,339.675 172.042,368.149 200.47,368.405 					"/>
				</g>
				<g>
					<g>
						<g>
							<polygon fill="#DAC168" points="285.962,396.957 286.132,368.149 257.32,368.317 							"/>
						</g>
						<g>
							<polygon fill="#E8D37C" points="257.234,368.337 285.999,368.149 285.876,339.697 							"/>
						</g>
					</g>
				</g>
				<polygon fill="#F2F1BE" points="257.45,311.317 257.62,282.507 228.81,282.679 				"/>
				<polygon fill="#EFF0AB" points="285.938,282.679 257.489,282.507 257.298,311.317 				"/>
				<g>
					<polygon fill="#F9F4AC" points="200.408,311.176 200.578,282.365 171.768,282.533 					"/>
					<polygon fill="#EEF1BB" points="228.896,282.533 200.446,282.365 200.255,311.176 					"/>
				</g>
				<g>
					<polygon fill="#EEF1BB" points="200.535,311.176 172.084,311.008 171.894,339.813 					"/>
					<polygon fill="#ECF0B2" points="171.962,282.533 172.084,311.008 200.511,311.263 					"/>
				</g>
				<g>
					<polygon fill="#DFE69A" points="286,339.813 286.17,311.008 257.361,311.176 					"/>
					<polygon fill="#DFE69A" points="257.275,311.195 286.04,311.008 285.918,282.556 					"/>
				</g>
				<polyline fill="#FAF5CA" points="115.611,254.325 115.489,282.774 86.847,254.136 				"/>
				<polyline fill="#FAF5CA" points="144.038,254.066 115.489,282.799 115.611,254.325 				"/>
				<polyline fill="#F9F8CE" points="144.137,254.107 144.307,282.915 115.495,282.747 144.137,254.107 				"/>
				<polyline fill="#F5F5C7" points="143.983,254.107 172.625,282.747 144.172,282.915 143.983,254.107 				"/>
				<polyline fill="#F5F5C7" points="87.094,254.25 87.262,283.061 58.453,282.892 87.094,254.25 				"/>
				<polyline fill="#FAF5CA" points="86.939,254.25 115.582,282.892 87.131,283.061 86.939,254.25 				"/>
				<polyline fill="#EEF1BB" points="87.194,254.158 58.647,282.892 58.769,254.419 				"/>
				<polyline fill="#FAF2BA" points="172.726,254.419 172.603,282.869 143.961,254.229 				"/>
				<polygon fill="#EEEF9C" points="143.858,425.559 144.027,396.748 115.216,396.917 				"/>
				<polygon fill="#EEEF9C" points="115.131,396.939 143.896,396.748 143.773,368.3 				"/>
				<polygon fill="#EEEE99" points="172.347,396.919 143.896,396.748 143.704,425.559 				"/>
				<polygon fill="#E4ECA4" points="143.773,368.274 143.896,396.748 172.323,397.007 				"/>
				<g>
					<polygon fill="#E5EEB9" points="115.216,454.032 115.387,425.222 86.576,425.392 					"/>
					<polygon fill="#EEF1BB" points="86.49,425.41 115.255,425.222 115.131,396.771 					"/>
					<polygon fill="#EFF0AB" points="143.704,425.392 115.255,425.222 115.063,454.032 					"/>
					<polygon fill="#EEEF9C" points="115.131,396.748 115.255,425.222 143.682,425.481 					"/>
				</g>
				<g>
					<polygon fill="#EEEF9C" points="115.335,397.007 115.506,368.201 86.695,368.366 					"/>
					<polygon fill="#EFF0AB" points="86.609,368.388 115.374,368.201 115.254,339.746 					"/>
					<polygon fill="#EFF0AB" points="143.823,368.366 115.374,368.201 115.184,397.007 					"/>
					<polygon fill="#EEEE99" points="115.254,339.727 115.374,368.201 143.801,368.457 					"/>
				</g>
				<g>
					<polygon fill="#EFF1B0" points="86.814,425.414 86.985,396.605 58.175,396.771 					"/>
					<polygon fill="#E4ECA4" points="58.088,396.795 86.853,396.605 86.73,368.154 					"/>
					<polygon fill="#EEEE99" points="115.303,396.774 86.853,396.605 86.661,425.414 					"/>
					<polygon fill="#EFF1B0" points="86.73,368.131 86.853,396.605 115.279,396.865 					"/>
				</g>
				<g>
					<polygon fill="#EFE4A0" points="143.823,482.62 143.993,453.81 115.184,453.979 					"/>
					<polygon fill="#EEEF9C" points="115.098,453.999 143.862,453.81 143.74,425.362 					"/>
					<polygon fill="#F0E385" points="172.313,453.98 143.862,453.81 143.67,482.62 					"/>
					<polygon fill="#F0E385" points="143.74,425.34 143.862,453.81 172.289,454.069 					"/>
				</g>
				<g>
					<polygon fill="#DFE69A" points="115.252,511.169 115.423,482.361 86.61,482.529 					"/>
					<polygon fill="#EEEE99" points="86.523,482.55 115.288,482.361 115.168,453.909 					"/>
					<polygon fill="#E0DB86" points="143.74,482.529 115.288,482.361 115.099,511.169 					"/>
					<polygon fill="#EEEE99" points="115.168,453.888 115.288,482.361 143.716,482.62 					"/>
				</g>
				<g>
					<polygon fill="#EDF0B5" points="86.818,482.529 86.989,453.72 58.179,453.891 					"/>
					<polygon fill="#EFF1B0" points="58.093,453.907 86.855,453.72 86.733,425.271 					"/>
					<polygon fill="#E4ECA4" points="115.307,453.891 86.855,453.72 86.663,482.529 					"/>
					<polygon fill="#EEEF9C" points="86.733,425.245 86.855,453.72 115.283,453.979 					"/>
				</g>
				<g>
					<polygon fill="#EEEE99" points="86.941,425.416 58.492,425.245 58.301,454.056 					"/>
					<polygon fill="#EEEF9C" points="58.369,396.771 58.492,425.245 86.918,425.505 					"/>
				</g>
				<g>
					<polygon fill="#DFE69A" points="172.407,454.056 172.577,425.245 143.767,425.416 					"/>
					<polygon fill="#EFF1B0" points="143.682,425.436 172.446,425.245 172.323,396.798 					"/>
				</g>
				<g>
					<polygon fill="#DAC168" points="172.407,511.26 172.577,482.453 143.767,482.62 					"/>
					<polygon fill="#E9D872" points="143.682,482.638 172.446,482.453 172.323,454.002 					"/>
				</g>
				<g>
					<polygon fill="#E4ECA4" points="86.975,482.712 58.526,482.541 58.335,511.352 					"/>
					<polygon fill="#E5EEB9" points="58.405,454.069 58.526,482.541 86.952,482.8 					"/>
				</g>
				<g>
					<polygon fill="#E9D872" points="115.063,511.192 143.828,511.003 143.705,482.553 					"/>
					<polygon opacity="0.91" fill="#C2BD56" points="143.705,482.529 143.828,511.003 172.254,511.26 					"/>
				</g>
				<g>
					<polygon fill="#DEE899" points="58.312,511.023 87.075,510.836 86.952,482.384 					"/>
					<polygon fill="#EEEE99" points="86.952,482.361 87.075,510.836 115.501,511.093 					"/>
				</g>
				<polygon fill="#EDF0B5" points="143.83,368.395 144,339.584 115.189,339.751 				"/>
				<polygon fill="#EFF0AB" points="115.104,339.771 143.868,339.584 143.745,311.135 				"/>
				<polygon fill="#EEEE99" points="172.317,339.751 143.868,339.584 143.678,368.395 				"/>
				<polygon fill="#EEEE99" points="143.745,311.11 143.868,339.584 172.295,339.843 				"/>
				<g>
					<polygon fill="#EFF1B0" points="115.309,339.843 115.479,311.033 86.669,311.201 					"/>
					<polygon fill="#F5F5C7" points="86.582,311.225 115.346,311.033 115.225,282.581 					"/>
					<polygon fill="#F9F4AC" points="143.799,311.201 115.346,311.033 115.155,339.843 					"/>
					<polygon fill="#FAF5CA" points="115.225,282.559 115.346,311.033 143.773,311.292 					"/>
				</g>
				<g>
					<polygon fill="#EEF1BB" points="86.789,368.249 86.957,339.438 58.146,339.607 					"/>
					<polygon fill="#EFF0AB" points="58.062,339.629 86.824,339.438 86.705,310.99 					"/>
					<polygon fill="#EFF1B0" points="115.275,339.609 86.824,339.438 86.635,368.249 					"/>
					<polygon fill="#F9F4AC" points="86.705,310.968 86.824,339.438 115.254,339.697 					"/>
				</g>
				<g>
					<polygon fill="#E5EEB9" points="86.914,368.253 58.463,368.081 58.272,396.888 					"/>
					<polygon fill="#E5EEB9" points="58.341,339.607 58.463,368.081 86.89,368.34 					"/>
				</g>
				<g>
					<polygon fill="#E6EDAD" points="172.38,396.888 172.55,368.081 143.74,368.253 					"/>
					<polygon fill="#EFF1B0" points="143.654,368.269 172.418,368.081 172.297,339.632 					"/>
				</g>
				<polygon fill="#F9F4AC" points="143.871,311.249 144.042,282.441 115.23,282.609 				"/>
				<polygon fill="#F7F2AD" points="172.359,282.609 143.908,282.441 143.72,311.249 				"/>
				<g>
					<polygon fill="#F9F4AC" points="86.828,311.106 86.999,282.3 58.187,282.468 					"/>
					<polygon fill="#FAF5CA" points="115.317,282.468 86.865,282.3 86.675,311.106 					"/>
				</g>
				<g>
					<polygon fill="#F5F5C7" points="86.953,311.11 58.505,310.938 58.313,339.746 					"/>
					<polygon fill="#F9F4AC" points="58.383,282.466 58.505,310.938 86.932,311.197 					"/>
				</g>
				<g>
					<polygon fill="#EFF0AB" points="172.421,339.746 172.592,310.938 143.779,311.106 					"/>
					<polygon fill="#EEF1BB" points="143.694,311.127 172.459,310.938 172.338,282.488 					"/>
				</g>
				<line fill="#ECF0B2" x1="2.16" y1="283.107" x2="30.802" y2="254.467"/>
				<polyline fill="#EFF0AB" points="30.558,254.584 30.388,283.394 59.198,283.223 30.558,254.584 				"/>
				<line fill="#FAF2BA" x1="30.71" y1="254.584" x2="2.069" y2="283.223"/>
				<polyline fill="#F3EAB1" points="2.069,283.223 30.519,283.394 30.71,254.584 				"/>
				<polyline fill="#EFF1B0" points="30.454,254.49 59.001,283.223 58.882,254.752 				"/>
				<polyline fill="#F3EAB1" points="2.262,425.557 31.072,425.725 2.433,454.363 				"/>
				<polyline fill="#EEEF9C" points="2.518,397.104 31.159,425.743 2.396,425.557 				"/>
				<polyline fill="#F3EAB1" points="2.143,368.53 30.953,368.699 2.313,397.338 				"/>
				<polyline fill="#EFF1B0" points="2.398,340.079 31.039,368.719 2.276,368.53 				"/>
				<polygon fill="#EDF1BA" points="30.835,425.743 30.664,396.937 59.474,397.104 				"/>
				<polygon fill="#E4ECA4" points="59.561,397.125 30.797,396.937 30.919,368.487 				"/>
				<polyline fill="#F3EAB1" points="2.346,397.107 30.797,396.937 30.989,425.743 2.346,397.107 				"/>
				<polyline fill="#EFF1B0" points="2.369,397.196 30.919,368.465 30.797,396.937 2.369,397.196 				"/>
				<polyline fill="#EFF1B0" points="2.228,482.695 31.037,482.861 2.398,511.502 				"/>
				<polyline fill="#F3EAB1" points="2.482,454.24 31.125,482.883 2.361,482.695 				"/>
				<polygon opacity="0.91" fill="#D8E29E" points="30.832,482.861 30.661,454.053 59.471,454.221 				"/>
				<polygon fill="#E5EEB9" points="59.559,454.24 30.793,454.053 30.916,425.601 				"/>
				<polyline fill="#EDF0B5" points="2.343,454.221 30.793,454.053 30.985,482.861 2.343,454.221 				"/>
				<polyline fill="#EEEF9C" points="2.366,454.309 30.916,425.578 30.793,454.053 2.366,454.309 				"/>
				<g>
					<polygon fill="#EFF1B0" points="30.71,425.747 59.16,425.578 59.349,454.387 					"/>
					<polygon fill="#EEEF9C" points="59.28,397.104 59.16,425.578 30.731,425.835 					"/>
				</g>
				<g>
					<polygon opacity="0.91" fill="#D8E29E" points="30.674,483.042 59.124,482.875 59.314,511.685 					"/>
					<polygon fill="#E4ECA4" points="59.246,454.402 59.124,482.875 30.696,483.134 					"/>
				</g>
				<polygon fill="#DFE69A" points="59.339,511.356 30.574,511.165 30.696,482.715 				"/>
				<polyline fill="#DEE899" points="2.148,511.426 30.696,482.695 30.574,511.165 2.148,511.426 				"/>
				<polyline fill="#F3EAB1" points="2.17,311.366 30.981,311.534 2.341,340.174 				"/>
				<polyline fill="#F3EAB1" points="2.426,282.915 31.067,311.554 2.303,311.366 				"/>
				<polygon fill="#EDF1BA" points="30.862,368.58 30.692,339.771 59.503,339.94 				"/>
				<polygon fill="#EEF1BB" points="59.588,339.96 30.825,339.771 30.944,311.32 				"/>
				<polyline fill="#EFF1B0" points="2.374,339.94 30.825,339.771 31.015,368.58 2.374,339.94 				"/>
				<polyline fill="#EEEF9C" points="2.398,340.03 30.944,311.298 30.825,339.771 2.398,340.03 				"/>
				<g>
					<polygon fill="#EEEF9C" points="30.735,368.582 59.186,368.415 59.377,397.221 					"/>
					<polygon fill="#EDF1BA" points="59.309,339.94 59.186,368.415 30.759,368.673 					"/>
				</g>
				<polygon fill="#ECF0B2" points="30.821,311.44 30.65,282.631 59.462,282.799 				"/>
				<polyline fill="#EEF1BB" points="2.333,282.799 30.783,282.631 30.974,311.44 2.333,282.799 				"/>
				<g>
					<polygon fill="#F9F4AC" points="30.695,311.443 59.146,311.272 59.336,340.079 					"/>
					<polygon fill="#FAF2BA" points="59.268,282.799 59.146,311.272 30.718,311.528 					"/>
				</g>
			</g>
		</g>
		<g>
			<polygon fill="none" points="186.243,371.753 77.874,260.516 231.835,110.506 340.215,221.729 			"/>
			<text transform="matrix(0.682 -0.7314 0.7314 0.682 97.4707 279.9648)" opacity="0.9"><tspan x="0" y="0" font-family="'MyriadPro-Regular'" font-size="14.0027">GLOBAL BEST PRACTICE</tspan><tspan x="-0.84" y="17.504" font-family="'MyriadPro-Regular'" font-size="14.0027">HUMAN PERFORMANCE</tspan><tspan x="-1.68" y="35.007" font-family="'MyriadPro-Regular'" font-size="14.0027">WORKPLACE IMPROVEMENT</tspan><tspan x="-2.52" y="52.509" font-family="'MyriadPro-Regular'" font-size="14.0027">TRAINING DESIGN AND DELIVERY</tspan><tspan x="-3.36" y="70.013" font-family="'MyriadPro-Regular'" font-size="14.0027"> LEADERSHIP DEVELOPMENT</tspan><tspan x="-4.2" y="87.516" font-family="'MyriadPro-Regular'" font-size="14.0027"> INFORMATION SHARING</tspan><tspan x="-5.041" y="105.019" font-family="'MyriadPro-Regular'" font-size="14.0027"> COLLABORATION</tspan><tspan x="-5.881" y="122.523" font-family="'MyriadPro-Regular'" font-size="14.0027"> NETWORKING</tspan></text>
			<polygon fill="none" points="19.459,337.152 91.387,269.49 265.579,454.626 193.665,522.302 			"/>
			<text transform="matrix(0.7193 0.6947 -0.6947 0.7193 72.1582 288.1416)" opacity="0.9"><tspan x="0" y="0" font-family="'MyriadPro-Regular'" font-size="14.0026">SCIENCE OF ART AND LEARNING</tspan><tspan x="-0.807" y="16.803" font-family="'MyriadPro-Regular'" font-size="14.0026">LEARNING MEASUREMENT AND ANALYTICS</tspan><tspan x="-1.614" y="33.606" font-family="'MyriadPro-Regular'" font-size="14.0026">TRAINING DESIGN AND DELIVERY</tspan><tspan x="-2.421" y="50.41" font-family="'MyriadPro-Regular'" font-size="14.0026">SALES ENABLEMENT</tspan></text>
			<g>
				<polygon fill="none" points="179.306,157.138 28.015,316.564 -12.037,278.554 139.246,119.124 				"/>
				<text transform="matrix(0.6884 -0.7254 0.7254 0.6884 4.1182 293.8877)"><tspan x="0" y="0" fill="#D89328" font-family="'MyriadPro-Bold'" font-size="21.879">           </tspan><tspan x="48.613" y="0" fill="#D89328" font-family="'MyriadPro-Bold'" font-size="31.3599">LEARNING </tspan><tspan x="-0.002" y="26.255" fill="#D89328" font-family="'MyriadPro-Bold'" font-size="21.879" letter-spacing="-1">AND</tspan><tspan x="41.392" y="26.255" fill="#D89328" font-family="'MyriadPro-Bold'" font-size="21.879"> DEVELOPMENT</tspan></text>
			</g>
		</g>
		<g>
			<g>
				<path fill="#9B8A34" d="M259.488,80.31c-0.104-0.452,0.384-1.503,0.088-1.836c-0.45-0.51-1.561,0.353-1.969,0.527
					c-0.557,0.234-1.638,0.724-2.212,0.579c-0.494-0.126-2.341,0.009-2.703,0.458c-0.68,0.831-1.397,0.713-2.359,0.713
					c-0.823,0-1.533,0.582-2.305,0.753c-0.925,0.19-1.503-0.808-1.983-1.396c-0.661-0.819-1.474-0.872-1.474-0.872
					c-0.128,0.016,1.156-0.246,0.847-1.266c-0.174-0.567-0.936-0.668-1.32-1.13c-0.194-0.23-0.554-0.582-0.552-0.9
					c0-0.384-0.232-0.086-0.41-0.259c-0.512-0.474-1.008-0.791-1.402-1.388c-0.347-0.519-1.503-1.038-2.08-1.268
					c-0.209-0.078-0.232-0.516-0.336-0.682c-0.197-0.312-0.773-0.354-1.063-0.549c-0.495-0.335-2.344-4.055-2.344-4.055
					c-0.056-0.119-0.185-0.295-0.281-0.381c0,0-1.471-1.384-1.72-2.287c-0.386-1.417-0.13-3.084-0.889-4.373
					c-0.228-0.388-0.171-0.901-0.515-1.196c-0.289-0.253-0.762-0.419-0.912-0.79c-0.193-0.505-1.499-0.64-1.499-0.64
					c-0.133-0.021-0.173-0.116-0.09-0.228c0,0,0.276-0.359,0.129-0.739c-0.199-0.526,0.134-0.833,0.134-0.833
					c0.098-0.087,0.1-0.234,0.003-0.327c0,0-1.422-1.368-1.79-2.032c-0.672-1.211-1.334-2.414-1.994-3.619
					c-0.567-1.035-0.333-1.421-1.359-2.189c-0.621-0.482-1.057-2.73-1.057-2.73c-0.029-0.132-0.011-0.138,0.033-0.009
					c0,0,0.287,0.789,0.599,1.24c0.487,0.712,0.873,1.499,1.557,2.05c1.074,0.866,1.21-0.295,1.291-1.163
					c0.156-1.737-0.076-2.89-0.646-4.539c-0.199-0.58-0.854-0.209-1.239-0.123c-0.883,0.195-1.548,0.131-2.35-0.271
					c-0.285-0.139-1.244-0.529-1.556-0.349c-0.549,0.329-0.563-0.108-1.024-0.089c-0.896,0.057-1.574,1.072-2.415,1.329
					c-0.488,0.154-0.983-0.205-1.439-0.337c-0.625-0.176-1.396,0.143-1.951-0.284c-0.736-0.581-3.059-0.596-3.059-0.596
					c-0.135-0.006-0.321-0.088-0.41-0.184c0,0-0.429-0.429-0.832-0.478c-0.66-0.092-1.88,0.059-2.446-0.316
					c-0.335-0.219-0.169-0.7-0.642-0.803c-0.966-0.211-1.659-0.594-2.683-0.36c-1.205,0.264-2.616,1.387-1.835,2.755
					c0.662,1.154-0.63,1.849-1.63,1.828c-0.537-0.013-0.898-0.295-1.307-0.607c-0.643-0.49-1.353-0.686-2.13-0.875
					c-1.063-0.256-2.394-0.33-2.629-1.661c-0.188-1.048-1.85-1.239-2.657-1.49c-0.658-0.205-1.211-0.12-1.879-0.205
					c-0.534-0.064-1.583-0.693-1.583-0.693c-0.115-0.069-0.176-0.023-0.128,0.102l0.09,0.466c0.011,0.126-0.009,0.132-0.045,0.002
					l-1.112-1.021c-0.115-0.062-0.29-0.189-0.389-0.274c0,0-0.387-0.351-0.584-0.637c-0.286-0.409,0.864-1.109,1.063-1.357
					c0.418-0.532,0.422-1.406,0.422-1.406c0.001-0.128-0.038-0.338-0.087-0.461l-0.149-0.273c-0.083-0.106-0.16-0.305-0.167-0.432
					c0,0-0.047-0.478-0.108-0.762c-0.38-1.679-0.69-1.796-2.3-1.296c-0.529,0.158-1.28,0.433-1.93,0.2
					c-0.582-0.208-0.979,0.004-1.508-0.2c-0.671-0.254-0.751-0.031-1.348,0.244c-0.848,0.403-1.403-0.054-2.229-0.229
					c-0.779-0.159-1.57,0.099-2.348,0.126c-0.852,0.028-2.028-0.098-2.835,0.181c-0.579,0.209-0.969,0.724-1.542,0.947
					c-0.522,0.208-1.049,0.079-1.571,0.239c-0.527,0.162-0.722,0.176-0.954,0.713c-0.285,0.686-1.476,0.628-1.476,0.628
					c-0.13-0.005-0.92,0.201-1.532-0.398c-0.359-0.344-2.225-0.328-2.713-0.223c-0.748,0.154-0.689-1.318-1.37-1.307
					c-0.802,0.01-1.218,1.563-1.461,2.119c-0.405,0.928-0.997,1.487-2.012,1.698c-1.223,0.247-1.602,0.604-2.501,1.398
					c-0.775,0.68-1.1,1.54-1.827,2.247c-0.855,0.823-0.173,2.202-0.698,3.177c-0.939,1.729-3.674,3.038-5.527,3.478
					c-0.776,0.176-1.156,0.864-1.493,1.56c-0.453,0.928-1.418,1.46-2.001,2.302c-0.634,0.898-0.873,1.988-1.665,2.793
					c-0.813,0.827-1.354,1.339-1.925,2.376c-0.195,0.364-0.484,0.693-0.653,1.07c-0.142,0.337-0.583,0.119-0.813,0.403
					c-0.453,0.524-0.526,2.196-0.526,2.196c-0.004,0.132,0.086,0.292,0.205,0.349c0,0,0.992,0.49,0.613,1.242
					c-0.216,0.427-0.229,0.912-0.445,1.339c-0.258,0.496,0.164,0.691,0.293,1.119c0.203,0.703-0.769,5.174-0.769,5.174
					c-0.029,0.134-0.089,0.343-0.132,0.467c0,0-0.402,1.097-0.682,1.548c-0.472,0.742-1.436,1.029-1.436,1.029
					c-0.125,0.038-0.141,0.125-0.023,0.197c0,0,0.521,0.323,0.576,0.602c0.095,0.479,0.338,0.912,0.411,1.403
					c0.1,0.644-0.308,0.473-0.411,0.9c-0.122,0.476,0.35,1.674,0.35,1.674c0.054,0.126,0.018,0.305-0.072,0.399
					c0,0-0.467,0.501,0.054,0.501c0.543,0,0.259-0.647,0.947-0.594c0.68,0.057,0.836-0.541,1.3-0.541
					c0.822,0,2.325,0.221,2.325,0.221c0.136,0.021,0.229,0.146,0.216,0.275c0,0-0.142,1.519-0.979,1.725
					c-0.707,0.172-1.645,0.791-1.071,1.601c0.266,0.376-0.105,0.721,0.166,1.122c0.198,0.312,0.614,0.457,0.899,0.678
					c0.312,0.24,0.616,0.507,0.809,0.859c0.174,0.323,0.376,0.743,0.376,0.743c0.056,0.119,0.133,0.324,0.174,0.447l2.408,3.318
					c0.095,0.1,0.242,0.25,0.333,0.348c0,0,1.49,1.566,2.078,2.141c0.591,0.588,1.037,1.286,1.608,1.89
					c0.64,0.672,1.67,0.647,2.209,1.317c0.506,0.628,1.359-0.29,1.917-0.544c0.99-0.451,2.057-0.749,3.135-0.869
					c1.185-0.135,3.645-0.031,3.645-0.031c0.128,0.009,0.263,0.119,0.294,0.25c0,0,0.018,0.072,0.502,0.296
					c0.367,0.174,0.798,0.354,1.212,0.265c0.328-0.071,0.583-0.438,0.864-0.602c0.459-0.263,0.904-0.147,1.373-0.313
					c0.738-0.263,0.987-0.891,1.837-0.889c0.47,0,1.101-0.65,1.101-0.65c0.086-0.1,0.27-0.178,0.404-0.185l2.624-0.778
					c0.119-0.055,0.324-0.083,0.452-0.055c0,0,1.59,0.339,2.166,0.425c1.186,0.185,2.12,1.156,2.439,2.254
					c0.347,1.22,1.097,2.027,2.408,1.809c0.855-0.147,2.686-0.976,2.686-0.976c0.125-0.054,0.328-0.072,0.456-0.041
					c0,0,1.004,0.265,0.83,1.106c-0.029,0.129,1.14,0.743,1.321,0.922c0.561,0.561,0.894,1.044,0.626,1.851
					c-0.222,0.648,0.291,0.946,0.291,0.946c0.115,0.067,0.147,0.209,0.07,0.319l-0.306,1.858c0.05,0.117-0.02,0.229-0.155,0.229
					c0,0-0.215,0.013-0.427,0.111c-0.107,0.047-0.579,1.35-0.68,1.555c-0.27,0.523-0.21,1.129-0.432,1.667
					c-0.222,0.554-0.446,0.502-0.111,0.788c0.244,0.214,0.297,0.659,0.297,0.659c0.019,0.128,0.118,0.303,0.223,0.38
					c0,0,0.58,0.443,0.422,0.704c-0.27,0.465,0.443,0.76,0.722,1.002c0.746,0.661,1.221,1.562,1.9,2.287
					c0.593,0.629,1.263,0.875,1.757,1.644c0.123,0.188,0.884,1.946,0.884,1.946c0.046,0.121,0.454,0.553,0.445,0.681
					c0,0-0.108,1.027,0.351,1.472c0.33,0.323,0.361,0.612,0.43,1.06c0.114,0.713,0.517,1.179,0.745,1.831
					c0.402,1.139-0.322,0.791-0.599,1.37c-0.308,0.624,0.957,2.177,1.198,2.737c0.396,0.911,0.445,2.052,0.179,3.007
					c-0.271,0.983-1.205,1.327-1.739,2.13c-0.56,0.849-0.403,1.927-0.526,2.923c-0.141,1.127-1.125,1.853-1.173,3.007
					c-0.027,0.524,0.069,1.053,0.185,1.563c0.131,0.58-0.14,0.773-0.098,1.344c0.066,0.889,0.98,1.46,1.405,2.179
					c1.163,1.971,2.034,4.093,3.254,6.021c0.737,1.172,0.338,1.774,0.502,3.083c0.184,1.424,0.867,2.61,0.867,4.082
					c0,0.735,0.603,2.317,0.96,2.974c0.226,0.389,1.866,1.705,1.866,1.705c0.104,0.084,0.228,0.259,0.275,0.375
					c0,0,1.31,3.368,1.713,3.949c0.847,1.229,1.196,3.5,1.196,3.5c0.019,0.132,0.002,0.341-0.037,0.464c0,0-0.25,0.784-0.095,1.053
					c0.22,0.371,0.892,1.426,1.269,1.62c0.401,0.204,0.79,0.603,1.216,0.716c0.859,0.242,1.205-0.625,1.992-0.625
					c0.728,0,1.511,0.104,1.946-0.536c0.272-0.394,0.969-0.113,1.383-0.161c0.686-0.086,1.163,0.027,1.824,0.125
					c0.959,0.144,1.581-0.19,2.486-0.474c1.526-0.483,2.595-0.572,3.882-1.556c1.262-0.967,2.305-2.042,3.602-2.897
					c0.578-0.395,0.703-1.201,1.094-1.75c0.687-0.954,1.586-1.712,2.435-2.514c0.568-0.535,1.034-1.054,1.217-1.831
					c0.126-0.53,0.132-1.829,0.132-1.829c0-0.13-0.01-0.347-0.029-0.481c0,0-0.142-1.108,0.152-1.652
					c0.459-0.843,2.245-1.431,3.109-1.646c1.225-0.305,1.98-0.704,2.066-2.044c0.038-0.523,0.19-0.897,0.333-1.397
					c0.066-0.244-0.161-0.997-0.161-0.997c-0.033-0.134-0.072-0.338-0.077-0.476c0,0-0.106-2.229-0.722-3.556
					c-0.521-1.117,1.693-1.98,2.351-2.408c1.011-0.665,1.478-1.813,2.413-2.569c0.45-0.377,0.951-0.688,1.479-0.936
					c0.604-0.274,1.292-0.2,1.869-0.498c0.869-0.454,1.955-1.628,2.533-2.412c0.349-0.476,0.322-1.077,0.581-1.586
					c0.472-0.907-0.184-1.073-0.134-1.938c0.063-1.063,0.139-2.137,0.239-3.194c0.049-0.494,0.111-2.943,0.111-2.943
					c0.01-0.135-0.003-0.353-0.027-0.485c0,0-0.07-0.446-0.438-0.655c-0.11-0.065-0.433-0.2-0.433-0.2
					c-0.123-0.057-0.198-0.199-0.166-0.331c0,0,0.095-0.397-0.075-0.611c-0.33-0.413-0.736-1.51-0.736-2.015
					c0-0.532,0.071-1.082,0.086-1.628c0.017-0.403,0.34-0.703,0.36-1.116c0.022-0.422-0.417-0.631-0.55-0.979
					c-0.172-0.446-0.546-0.247-0.599-0.829c-0.042-0.389,0.147-0.756,0.337-1.078c0.21-0.355,0.476-1.596,0.476-1.596
					c0.027-0.124,0.111-0.322,0.183-0.43c0,0,1.12-1.646,1.471-2.229c0.279-0.448-0.175-0.87,0.341-1.291
					c0.683-0.553,1.002-1.132,1.002-1.132c0.063-0.122,0.22-0.208,0.352-0.194l0.908-0.707c0.068-0.115,0.188-0.286,0.282-0.391
					c0,0,0.417-0.455,0.698-0.791c0.422-0.493,0.908-0.937,1.316-1.44c0.747-0.927,1.574-1.703,2.463-2.504
					c0.835-0.756,1.119-1.465,2.212-2.022c1.104-0.562,1.9-1.389,2.751-2.279c0.986-1.051,1.711-2.287,2.515-3.465
					c0.806-1.205,1.138-2.637,1.922-3.789c0.68-1.015,1.184-2.321,1.732-3.419c0.691-1.356,1.534-3.688,1.534-3.688
					c0.044-0.126-0.022-0.25-0.153-0.261C259.992,80.878,259.604,80.813,259.488,80.31C259.416,79.987,259.615,80.856,259.488,80.31
					z"/>
			</g>
		</g>
		<line fill="#D8BD6F" x1="115.969" y1="-2.116" x2="87.542" y2="-2.373"/>
		<g>
			<polygon fill="#BA9A58" points="58.028,-0.645 57.86,28.163 86.672,27.998 			"/>
			<polygon fill="#88674F" points="29.542,27.998 57.991,28.163 58.183,-0.645 			"/>
			<polygon fill="#E1BF61" points="114.783,-0.477 114.613,28.332 143.424,28.163 			"/>
			<polygon fill="#BA9A58" points="86.293,28.163 114.743,28.332 114.937,-0.477 			"/>
			<g>
				<polygon fill="#D2AB50" points="115.294,-0.498 86.529,-0.309 86.651,28.143 				"/>
				<polygon fill="#B89152" points="86.651,28.163 86.529,-0.309 58.103,-0.567 				"/>
			</g>
			<g>
				<polygon fill="#8C705E" points="58.06,-0.612 29.294,-0.427 29.415,28.022 				"/>
			</g>
			<polygon fill="#D1B35C" points="171.609,-0.578 171.438,28.231 200.25,28.063 			"/>
			<polygon fill="#D2AB50" points="143.122,28.063 171.572,28.231 171.762,-0.578 			"/>
			<polygon fill="#B7B46C" points="228.361,-0.408 228.193,28.398 257.004,28.231 			"/>
			<polygon fill="#ADA05F" points="199.874,28.231 228.325,28.398 228.516,-0.408 			"/>
			<g>
				<polygon fill="#C8C674" points="228.875,-0.432 200.111,-0.243 200.234,28.209 				"/>
				<polygon fill="#DAC168" points="200.234,28.231 200.111,-0.243 171.685,-0.5 				"/>
			</g>
			<g>
				<polygon fill="#D1B35C" points="171.638,-0.547 142.873,-0.36 142.994,28.093 				"/>
			</g>
			<g>
				<polygon fill="#ADA05F" points="256.913,28.398 256.791,-0.072 228.365,-0.333 				"/>
			</g>
			<polygon fill="#C1BF71" points="285.316,-0.078 285.486,28.732 256.676,28.563 			"/>
			<g>
				<g>
					<g>
						<polygon fill="#AE9951" points="256.766,28.729 256.889,0.26 285.313,0 						"/>
					</g>
				</g>
			</g>
			<g>
				<polygon fill="#D8BD6F" points="143.317,28.192 143.196,-0.281 114.77,-0.539 				"/>
			</g>
		</g>
		<polygon fill="#88674F" points="1.738,28.234 30.188,28.398 30.378,-0.408 		"/>
		<g>
			<polygon fill="#8C705E" points="30.254,-0.376 1.488,-0.19 1.61,28.26 			"/>
		</g>
	</g>
	<polygon fill="#DBC152" points="257.277,538.989 257.449,510.179 228.639,510.351 	"/>
	<polygon fill="#C2B05B" points="285.767,510.351 257.315,510.179 257.124,538.989 	"/>
	<polygon fill="#C2B05B" points="228.707,567.54 228.878,538.73 200.066,538.901 	"/>
	<polygon fill="#DBC152" points="199.981,538.922 228.745,538.73 228.622,510.282 	"/>
	<polygon fill="#BD9D55" points="257.195,538.901 228.745,538.73 228.554,567.54 	"/>
	<polygon fill="#D7B763" points="228.622,510.26 228.745,538.73 257.172,538.989 	"/>
	<polygon fill="#C2B05B" points="200.272,538.899 200.443,510.092 171.633,510.26 	"/>
	<polygon fill="#D2AB50" points="228.761,510.263 200.309,510.092 200.121,538.899 	"/>
	<polygon fill="#D1B35A" points="285.862,567.629 286.031,538.822 257.224,538.989 	"/>
	<polygon fill="#D7B763" points="257.137,539.01 285.899,538.822 285.779,510.373 	"/>
	<polygon fill="#D1B35A" points="200.433,539.081 171.979,538.913 171.79,567.724 	"/>
	<polygon fill="#D2AB50" points="171.859,510.438 171.979,538.913 200.409,539.172 	"/>
	<g>
		<polygon fill="#D1B35A" points="228.52,567.561 257.283,567.372 257.162,538.924 		"/>
		<polygon fill="#D2AB50" points="257.162,538.899 257.283,567.372 285.709,567.629 		"/>
	</g>
	<g>
		<polygon fill="#C2B05B" points="171.765,567.396 200.529,567.204 200.409,538.757 		"/>
		<polygon opacity="0.91" fill="#C2BD56" points="200.409,538.73 200.529,567.204 228.958,567.464 		"/>
	</g>
	<polygon fill="#E8D37C" points="143.698,538.924 143.868,510.113 115.059,510.282 	"/>
	<polygon fill="#DAC168" points="172.188,510.284 143.737,510.113 143.545,538.924 	"/>
	<polygon fill="#E8D37C" points="115.127,567.473 115.298,538.665 86.485,538.833 	"/>
	<polygon fill="#F0E385" points="86.398,538.854 115.163,538.665 115.043,510.213 	"/>
	<polygon fill="#DAC168" points="143.615,538.833 115.163,538.665 114.974,567.473 	"/>
	<polygon fill="#E9D872" points="115.043,510.191 115.163,538.665 143.591,538.924 	"/>
	<polygon fill="#DEE899" points="86.693,538.833 86.864,510.023 58.054,510.194 	"/>
	<polygon fill="#E4ECA4" points="115.182,510.194 86.73,510.023 86.538,538.833 	"/>
	<polygon fill="#C2B05B" points="172.282,567.563 172.452,538.757 143.642,538.924 	"/>
	<polygon fill="#DAC168" points="143.557,538.941 172.321,538.757 172.198,510.306 	"/>
	<polygon fill="#E4ECA4" points="86.85,539.016 58.401,538.845 58.21,567.655 	"/>
	<polygon fill="#EFE4A0" points="58.28,510.373 58.401,538.845 86.827,539.104 	"/>
	<g>
		<polygon fill="#DAC168" points="114.938,567.496 143.703,567.307 143.58,538.856 		"/>
		<polygon opacity="0.91" fill="#C2BD56" points="143.58,538.833 143.703,567.307 172.129,567.563 		"/>
	</g>
	<g>
		<polygon fill="#DEE899" points="58.187,567.327 86.95,567.14 86.827,538.688 		"/>
		<polygon fill="#E0DB86" points="86.827,538.665 86.95,567.14 115.376,567.396 		"/>
	</g>
	<polyline fill="#EFF1B0" points="2.103,538.999 30.912,539.165 2.273,567.806 	"/>
	<polyline fill="#F3EAB1" points="2.357,510.544 31,539.187 2.236,538.999 	"/>
	<polygon opacity="0.91" fill="#D8E29E" points="30.707,539.165 30.536,510.356 59.346,510.524 	"/>
	<polyline fill="#EDF0B5" points="2.218,510.524 30.668,510.356 30.86,539.165 2.218,510.524 	"/>
	<polygon opacity="0.91" fill="#D8E29E" points="30.549,539.346 58.999,539.179 59.189,567.988 	"/>
	<polygon fill="#E4ECA4" points="59.121,510.706 58.999,539.179 30.571,539.438 	"/>
	<polygon fill="#DFE69A" points="59.214,567.66 30.449,567.469 30.571,539.019 	"/>
	<polyline fill="#DEE899" points="2.023,567.729 30.571,538.999 30.449,567.469 2.023,567.729 	"/>
</g>
</svg>
