<?xml version="1.0" encoding="utf-8"?>
<!-- Generator: Adobe Illustrator 15.0.0, SVG Export Plug-In . SVG Version: 6.00 Build 0)  -->
<!DOCTYPE svg PUBLIC "-//W3C//DTD SVG 1.1//EN" "http://www.w3.org/Graphics/SVG/1.1/DTD/svg11.dtd">
<svg version="1.1" id="Layer_1" xmlns="http://www.w3.org/2000/svg" xmlns:xlink="http://www.w3.org/1999/xlink" x="0px" y="0px"
	 width="290.827px" height="248.287px" viewBox="0 0 290.827 248.287" enable-background="new 0 0 290.827 248.287"
	 xml:space="preserve">
<rect x="0.248" fill="#8CB3AC" width="290.33" height="250.797"/>
<g opacity="0.27">
	<polygon fill="#8AB1AA" points="248.936,145.15 284.957,144.943 284.754,180.965 	"/>
	<polygon fill="#87B0A8" points="284.846,111.316 285.047,145.104 249.025,145.34 	"/>
	<polyline fill="#75A099" points="213.787,249.842 178.74,214.797 213.996,214.59 213.787,249.842 	"/>
	<polyline fill="#7CA7A0" points="213.764,249.946 213.555,214.693 248.813,214.9 213.764,249.946 	"/>
	<polygon fill="#739F96" points="213.787,179.936 213.996,214.75 178.74,214.98 	"/>
	<polygon fill="#6C9690" points="248.838,214.9 213.584,214.777 213.676,179.965 	"/>
	<polygon fill="#85AFA7" points="213.787,180.08 249.043,180.289 248.838,145.036 	"/>
	<polygon fill="#84ADA7" points="248.813,144.93 248.6,180.186 284.754,180.965 	"/>
	<polygon fill="#78A39C" points="248.834,214.942 249.043,180.129 213.023,179.896 	"/>
	<polygon fill="#85AFA7" points="284.574,180.416 248.393,179.326 248.936,216.576 	"/>
	<polyline fill="#6C9690" points="284.846,250.077 248.6,214.914 248.393,249.727 	"/>
	<polyline fill="#70999E" points="248.809,249.756 248.709,214.942 213.555,249.878 	"/>
	<polygon fill="#739F96" points="284.453,180.02 284.666,215.273 249.406,215.066 	"/>
	<polyline fill="#85AFA7" points="284.846,250.077 248.6,214.895 284.666,215.273 283.758,249.832 	"/>
	<polyline fill="#739E97" points="144.461,250.047 179.506,214.998 179.713,249.813 	"/>
	<polyline fill="#6C9690" points="179.299,249.84 179.398,215.027 214.553,249.963 	"/>
	<polygon fill="#8CB3AC" points="284.846,111.316 249.047,111.316 249.117,145.677 	"/>
	<polygon fill="#87B0A8" points="249.143,146.547 249.047,111.316 214.244,111.199 	"/>
	<g>
		<g>
			<polygon fill="#84ADA7" points="144.33,181.3 144.123,146.047 179.377,146.252 			"/>
			<polygon fill="#8AB1AA" points="179.402,146.252 144.152,146.128 144.246,111.316 			"/>
		</g>
		<polygon fill="#87B0A8" points="179.402,146.293 179.609,111.482 144.357,111.245 		"/>
		<polygon fill="#8CB3AC" points="214.244,111.199 179.609,111.482 179.295,146.266 		"/>
		<g>
			<polygon fill="#85AFA7" points="214.217,180.36 178.963,180.153 179.168,215.408 			"/>
			<polygon fill="#6C9690" points="179.195,215.51 179.402,180.257 144.15,180.465 			"/>
			<polygon fill="#84ADA7" points="179.168,145.5 178.963,180.314 214.982,180.549 			"/>
			<polygon fill="#87B0A8" points="144.123,180.465 179.377,180.342 179.279,145.529 			"/>
		</g>
		<g>
			<polygon fill="#8CB3AC" points="249.264,146.352 214.012,146.561 214.244,111.199 			"/>
			<polygon fill="#87B0A8" points="214.244,111.199 214.451,146.455 179.195,146.25 			"/>
			<polygon fill="#84ADA7" points="214.217,181.211 214.012,146.4 249.264,146.162 			"/>
			<polygon fill="#8AB1AA" points="179.168,146.248 214.422,146.369 214.328,181.186 			"/>
		</g>
	</g>
	<polyline fill="#75A099" points="144.004,250.797 179.816,214.98 143.799,214.773 144.771,250.03 	"/>
	<polygon fill="#739F96" points="144.004,180.123 143.799,214.935 179.051,215.17 	"/>
	<polygon fill="#87B0A8" points="110.6,144.629 146.623,144.422 146.42,180.445 	"/>
	<polygon fill="#84ADA7" points="146.475,110.746 146.682,145.561 110.658,145.795 	"/>
	<polyline fill="#7CA7A0" points="75.367,249.324 40.32,214.274 75.574,214.066 75.367,249.324 	"/>
	<polyline fill="#75A099" points="75.342,249.426 75.135,214.171 110.387,214.378 75.342,249.426 	"/>
	<polygon fill="#82AEA7" points="75.367,179.416 75.574,214.229 40.32,214.463 	"/>
	<polygon fill="#6C9690" points="110.418,214.378 75.162,214.256 75.254,179.442 	"/>
	<polygon fill="#8AB1AA" points="75.367,179.559 110.621,179.77 110.418,144.518 	"/>
	<polygon fill="#78A39C" points="110.391,144.41 110.18,179.666 145.434,179.459 	"/>
	<polygon fill="#739F96" points="110.412,214.42 110.621,179.609 74.602,179.375 	"/>
	<polygon fill="#82AEA7" points="145.463,179.459 110.207,179.58 110.305,214.395 	"/>
	<polyline fill="#6C9690" points="145.225,249.44 110.18,214.395 109.973,249.205 	"/>
	<polyline fill="#70999E" points="110.387,249.234 110.287,214.42 75.135,249.355 	"/>
	<polygon fill="#78A39C" points="145.252,179.326 145.463,214.581 110.205,214.376 	"/>
	<polyline fill="#7CA7A0" points="145.338,250.077 110.18,214.376 145.434,214.498 145.338,249.312 	"/>
	<polyline fill="#70999E" points="6.037,249.525 41.08,214.478 41.291,249.293 	"/>
	<polyline fill="#6C9690" points="40.879,249.318 40.977,214.506 76.131,249.441 	"/>
	<polygon fill="#8CB3AC" points="146.131,111.326 111.209,110.784 110.658,145.795 	"/>
	<polygon fill="#87B0A8" points="111.002,146.805 111.209,110.784 75.188,110.99 	"/>
	<g>
		<g>
			<polygon fill="#8AB1AA" points="5.906,180.781 5.699,145.523 40.955,145.73 			"/>
			<polygon fill="#87B0A8" points="40.979,145.73 5.727,145.607 5.824,110.795 			"/>
		</g>
		<polygon fill="#8CB3AC" points="40.979,145.772 41.186,110.961 5.934,110.725 		"/>
		<polygon fill="#87B0A8" points="76.031,110.809 40.775,110.935 40.873,145.746 		"/>
		<g>
			<polygon fill="#78A39C" points="75.797,179.838 40.537,179.631 40.748,214.886 			"/>
			<polygon fill="#82AEA7" points="40.771,214.991 40.979,179.734 5.727,179.941 			"/>
			<polygon fill="#6C9690" points="40.748,144.98 40.537,179.794 76.561,180.027 			"/>
			<polygon fill="#87B0A8" points="5.699,179.941 40.951,179.82 40.854,145.007 			"/>
		</g>
		<g>
			<polygon fill="#87B0A8" points="110.844,145.829 75.588,146.041 75.797,110.784 			"/>
			<polygon fill="#8CB3AC" points="75.82,110.679 76.031,145.936 40.771,145.73 			"/>
			<polygon fill="#78A39C" points="75.797,180.689 75.588,145.878 110.844,145.641 			"/>
			<polygon fill="#8AB1AA" points="40.748,145.726 76,145.848 75.906,180.665 			"/>
		</g>
	</g>
	<polyline fill="#6C9690" points="5.58,250.276 41.395,214.461 5.377,214.254 6.348,249.508 	"/>
	<polygon fill="#739F96" points="5.58,179.6 5.377,214.414 40.629,214.65 	"/>
</g>
<linearGradient id="SVGID_1_" gradientUnits="userSpaceOnUse" x1="739.2002" y1="-747.4063" x2="714.2807" y2="-924.7174" gradientTransform="matrix(-0.7071 0.7071 0.7071 0.7071 1174.3464 137.3726)">
	<stop  offset="0" style="stop-color:#729691"/>
	<stop  offset="0.3366" style="stop-color:#89ACA6"/>
	<stop  offset="0.5939" style="stop-color:#99BCB5"/>
	<stop  offset="0.7748" style="stop-color:#92B7B1"/>
	<stop  offset="1" style="stop-color:#84ADA7"/>
</linearGradient>
<polygon fill="url(#SVGID_1_)" points="0.248,224.197 0.248,0 216.734,0.005 "/>
<rect x="21.576" y="1.211" fill="none" width="250.105" height="60.104"/>
<text transform="matrix(1 0 0 1 21.5752 21.146)"><tspan x="0" y="0" fill="#FFFFFF" font-family="'MyriadPro-Bold'" font-size="17.16">USB &amp; USB-ED</tspan><tspan x="107.866" y="0" fill="#FFFFFF" font-family="'MyriadPro-Bold'" font-size="28.08"> </tspan><tspan x="0" y="23.4" fill="#FFFFFF" font-family="'MyriadPro-Bold'" font-size="28.08">knowledge hubs </tspan></text>
<rect x="21.576" y="65.125" fill="none" width="263.27" height="92.102"/>
<text transform="matrix(1 0 0 1 21.5752 76.2021)"><tspan x="0" y="0" fill="#FFFFFF" font-family="'MyriadPro-Bold'" font-size="15.6">We Read for You </tspan><tspan x="0" y="15.164" fill="#FFFFFF" font-family="'MyriadPro-Regular'" font-size="12.636">This is a forum where highly rated books </tspan><tspan x="0" y="30.327" fill="#FFFFFF" font-family="'MyriadPro-Regular'" font-size="12.636">are read on </tspan><tspan x="62.219" y="30.327" fill="#FFFFFF" font-family="'MyriadPro-Regular'" font-size="12.636">your behalf.  A presenter delivers </tspan><tspan x="0" y="45.49" fill="#FFFFFF" font-family="'MyriadPro-Regular'" font-size="12.636">the content </tspan><tspan x="63.747" y="45.49" fill="#FFFFFF" font-family="'MyriadPro-Regular'" font-size="12.636">and guides an in-depth and </tspan><tspan x="0" y="60.653" fill="#FFFFFF" font-family="'MyriadPro-Regular'" font-size="12.636">academically driven discussion around the topic. </tspan></text>
<rect x="23.137" y="147.461" fill="none" width="251.961" height="130.955"/>
<text transform="matrix(1 0 0 1 23.1348 158.5342)"><tspan x="0" y="0" fill="#FFFFFF" font-family="'MyriadPro-Bold'" font-size="15.6">The Leader’s Angle </tspan><tspan x="0" y="15.164" fill="#FFFFFF" font-family="'MyriadPro-Regular'" font-size="12.636">This talk series is used as a forum where knowl</tspan><tspan x="242.392" y="15.164" fill="#FFFFFF" font-family="'MyriadPro-Regular'" font-size="12.636">-</tspan><tspan x="0" y="30.327" fill="#FFFFFF" font-family="'MyriadPro-Regular'" font-size="12.636">edge is shared and debate is encouraged.  </tspan><tspan x="223.641" y="30.327" fill="#FFFFFF" font-family="'MyriadPro-Regular'" font-size="12.636">Past </tspan><tspan x="0" y="45.49" fill="#FFFFFF" font-family="'MyriadPro-Regular'" font-size="12.636">guest speakers include the CEOs of leading</tspan><tspan x="225.094" y="45.49" fill="#FFFFFF" font-family="'MyriadPro-Regular'" font-size="12.636"> </tspan><tspan x="0" y="60.653" fill="#FFFFFF" font-family="'MyriadPro-Regular'" font-size="12.636">companies, opinion leaders from various indus</tspan><tspan x="245.25" y="60.653" fill="#FFFFFF" font-family="'MyriadPro-Regular'" font-size="12.636">-</tspan><tspan x="0" y="75.816" fill="#FFFFFF" font-family="'MyriadPro-Regular'" font-size="12.636">tries, academics and other specialists.</tspan></text>
<line fill="none" stroke="#FFFFFF" stroke-width="0.5" x1="279.277" y1="54.373" x2="21.854" y2="54.373"/>
</svg>
