<svg class="svg-logo" version="1.1" id="Layer_1" xmlns="http://www.w3.org/2000/svg" xmlns:xlink="http://www.w3.org/1999/xlink" x="0px" y="0px"
	 viewBox="0 0 300.4 148.1" enable-background="new 0 0 300.4 148.1" xml:space="preserve" width="100%" height="100%">
<g>
	<rect y="0" fill="#191616" width="300.4" height="148.1"/>
	<g>
		<rect x="22.8" y="43.8" fill="#F0C335" width="159.1" height="62"/>
		<g>
			<g>
				<path fill="#191616" d="M156.6,59.4c-3.7,0-8.3-0.6-8.3,0.2c0,1.6,0,4.1-0.1,7.3c-0.1,3.2-0.1,5.7-0.1,7.3c0,1.6,0,4,0.1,7.2
					c0.1,3.2,0.1,5.6,0.1,7.2c0,0,1.3-0.2,3.8-0.1c-0.3,0,9,0.1,10.4-0.4c1.8-0.6,3-1.1,4.4-2.8c2.6-3.2,2.9-6.8,2.9-11.5
					c0-4.6-0.6-7.6-3.2-10.4C164.1,60.5,161.2,59.4,156.6,59.4z"/>
				<path fill="#191616" d="M47.7,61c-3.5,10.9-5.8,17-5.8,17.6c0,0.7,0.1,1.1,1.7,1.3c0.1,0,1.1,0,3.1,0H50c3,0,3.8-0.4,3.8-1.3
					c0-0.6-1-3.4-2.9-8.3C49.1,65.6,48.5,62.5,47.7,61z"/>
				<g>
					<path fill="#191616" d="M19.5,38.1l0,73.1h163.8l0-70.9L19.5,38.1z M59.5,97.8c0,0-2.4-10.9-3.2-11c-0.8,0-11.1-0.1-11.1-0.1
						c-3.5,0-5.5,0-6,0.1c-0.7,0.1-3,11-3,11l-11.3,0.1l18.2-47.6h9.6l14.1,37.2l4.7,10.4L59.5,97.8z M99.3,59.3
						c0,0-10.1-0.1-13.4,0.6c-1.4,0.3-3.8,1.5-3.8,4c0,1.9,1.4,2.8,4.1,4.2c4.6,2.4,7.1,4.9,7.6,5.2c2.7,2.2,4.1,5.1,4.1,8.8
						c0,4.7-2.2,9.6-6,12.3c-3.4,2.5-9.3,3.1-12.5,3.2c-1.4,0.1-5.7,0-5.7,0l-3.4-9.8c0,0,7.4,0.4,9.9,0.4c2.6,0,9-0.3,8.8-5.4
						c-0.1-2.1-0.2-3.1-2.9-4.7c-4.8-2.8-7.7-4.6-7.8-4.7c-2.5-2.3-5.4-3.2-5.5-9.4c0-5.4,2-8.2,4.6-10.6c2.2-2,6.8-2.9,9.2-3.1
						c3.2-0.3,12.7-0.1,12.7-0.1V59.3z M136.6,59.4h-11.9c-0.2,5.7,0.2,38.5,0.2,38.5h-11.5c0,0,0.1-32.6-0.1-38.5h-11.7v-8.9h35.1
						V59.4z M174.8,90.1c-5.7,8.5-15.4,7.6-15.4,7.6h-20.5v-0.2V95V54.4v-4v-0.2h16.5c2.5,0.3,8.1-1.3,16.5,5.1c2.6,2,3.8,5,5.3,8.4
						c1.3,3.1,2,6.8,2,10.2C179.2,79.9,177.9,85.6,174.8,90.1z"/>
				</g>
				<path fill="#C5BF69" d="M103,57.7C102.9,57.7,103,57.8,103,57.7L103,57.7z"/>
				<path fill="#C5BF69" d="M134.2,51.7c0,0,0,0-0.1,0C134.1,51.7,134.1,51.7,134.2,51.7z"/>
				<path fill="#C5BF69" d="M97.1,57.3C97.1,57.3,97.1,57.4,97.1,57.3C97,57.6,97.1,57.5,97.1,57.3z"/>
			</g>
			<rect x="19.8" y="111.2" fill="none" width="250.6" height="22.1"/>
			<text transform="matrix(1 0 0 1 23.8696 120.2363)" fill="#EDCA87" font-family="'MyriadPro-Regular'" font-size="12.7107">AFRICAN SOCIETY FOR TALENT DEVELOPMENT</text>
			<g>
				<circle opacity="0.91" fill="#CFD54C" cx="229.4" cy="51.3" r="7.4"/>
				<polygon fill="#EFC223" points="242.2,52.2 247.9,59.6 224.8,86.2 224.8,72.4 				"/>
				<linearGradient id="SVGID_1_" gradientUnits="userSpaceOnUse" x1="216.4482" y1="87.9794" x2="233.8105" y2="87.9794">
					<stop  offset="0" style="stop-color:#6F5321"/>
					<stop  offset="0" style="stop-color:#775924"/>
					<stop  offset="0" style="stop-color:#99742F"/>
					<stop  offset="0" style="stop-color:#B18838"/>
					<stop  offset="0" style="stop-color:#C0943D"/>
					<stop  offset="0" style="stop-color:#C5983F"/>
					<stop  offset="0" style="stop-color:#CBA64B"/>
					<stop  offset="0" style="stop-color:#D6BC5D"/>
					<stop  offset="0" style="stop-color:#DDCD6B"/>
					<stop  offset="0" style="stop-color:#E3D875"/>
					<stop  offset="0" style="stop-color:#E6DF7A"/>
					<stop  offset="0" style="stop-color:#E7E17C"/>
					<stop  offset="0.4215" style="stop-color:#E7E17C"/>
					<stop  offset="0.4909" style="stop-color:#E7E17C"/>
					<stop  offset="0.6149" style="stop-color:#E2D672"/>
					<stop  offset="0.8338" style="stop-color:#D4B859"/>
					<stop  offset="1" style="stop-color:#C79D42"/>
				</linearGradient>
				<polygon fill="url(#SVGID_1_)" points="233.8,77.9 233.8,90.6 227,98.1 216.4,98 				"/>
				<polyline fill="#E0AB26" points="241.5,98.1 229,98 233.9,92.4 				"/>
				<circle opacity="0.91" fill="#CFD54C" cx="199.3" cy="62.7" r="5.3"/>
				<linearGradient id="SVGID_2_" gradientUnits="userSpaceOnUse" x1="206.9982" y1="59.7515" x2="206.4914" y2="88.7872">
					<stop  offset="0" style="stop-color:#6F5321"/>
					<stop  offset="0" style="stop-color:#775924"/>
					<stop  offset="0" style="stop-color:#99742F"/>
					<stop  offset="0" style="stop-color:#B18838"/>
					<stop  offset="0" style="stop-color:#C0943D"/>
					<stop  offset="0" style="stop-color:#C5983F"/>
					<stop  offset="0" style="stop-color:#CBA64B"/>
					<stop  offset="0" style="stop-color:#D6BC5D"/>
					<stop  offset="0" style="stop-color:#DDCD6B"/>
					<stop  offset="0" style="stop-color:#E3D875"/>
					<stop  offset="0" style="stop-color:#E6DF7A"/>
					<stop  offset="0" style="stop-color:#E7E17C"/>
					<stop  offset="0.4215" style="stop-color:#E7E17C"/>
					<stop  offset="0.4909" style="stop-color:#E7E17C"/>
					<stop  offset="0.6149" style="stop-color:#E2D672"/>
					<stop  offset="0.8338" style="stop-color:#D4B859"/>
					<stop  offset="1" style="stop-color:#C79D42"/>
				</linearGradient>
				<polygon fill="url(#SVGID_2_)" points="210.6,59.8 217.5,66.1 196.1,88.6 196.1,79.6 				"/>
				<linearGradient id="SVGID_3_" gradientUnits="userSpaceOnUse" x1="189.4023" y1="90.5361" x2="203.2529" y2="90.5361">
					<stop  offset="0" style="stop-color:#6F5321"/>
					<stop  offset="0" style="stop-color:#775924"/>
					<stop  offset="0" style="stop-color:#99742F"/>
					<stop  offset="0" style="stop-color:#B18838"/>
					<stop  offset="0" style="stop-color:#C0943D"/>
					<stop  offset="0" style="stop-color:#C5983F"/>
					<stop  offset="0" style="stop-color:#CBA64B"/>
					<stop  offset="0" style="stop-color:#D6BC5D"/>
					<stop  offset="0" style="stop-color:#DDCD6B"/>
					<stop  offset="0" style="stop-color:#E3D875"/>
					<stop  offset="0" style="stop-color:#E6DF7A"/>
					<stop  offset="0" style="stop-color:#E7E17C"/>
					<stop  offset="0.4215" style="stop-color:#E7E17C"/>
					<stop  offset="0.4909" style="stop-color:#E7E17C"/>
					<stop  offset="0.6149" style="stop-color:#E2D672"/>
					<stop  offset="0.8338" style="stop-color:#D4B859"/>
					<stop  offset="1" style="stop-color:#C79D42"/>
				</linearGradient>
				<path fill="url(#SVGID_3_)" d="M203.3,83.1l0,8.9l-5.6,5.9c0,0-5,0-8.3,0L203.3,83.1z"/>
				<polygon fill="#D37828" points="207,98.1 203.6,94 199.9,98 				"/>
				<path fill="none" stroke="#161616" stroke-width="0.25" stroke-miterlimit="10" d="M222.1,80"/>
				<polygon fill="#ECAB32" points="190.3,65.3 186.3,69 195.7,77.6 199.6,72.7 				"/>
				<linearGradient id="SVGID_4_" gradientUnits="userSpaceOnUse" x1="211.3652" y1="62.3457" x2="230.124" y2="62.3457">
					<stop  offset="0" style="stop-color:#6F5321"/>
					<stop  offset="0" style="stop-color:#775924"/>
					<stop  offset="0" style="stop-color:#99742F"/>
					<stop  offset="0" style="stop-color:#B18838"/>
					<stop  offset="0" style="stop-color:#C0943D"/>
					<stop  offset="0" style="stop-color:#C5983F"/>
					<stop  offset="0" style="stop-color:#CBA64B"/>
					<stop  offset="0" style="stop-color:#D6BC5D"/>
					<stop  offset="0" style="stop-color:#DDCD6B"/>
					<stop  offset="0" style="stop-color:#E3D875"/>
					<stop  offset="0" style="stop-color:#E6DF7A"/>
					<stop  offset="0" style="stop-color:#E7E17C"/>
					<stop  offset="0.4215" style="stop-color:#E7E17C"/>
					<stop  offset="0.4909" style="stop-color:#E7E17C"/>
					<stop  offset="0.6149" style="stop-color:#E2D672"/>
					<stop  offset="0.8338" style="stop-color:#D4B859"/>
					<stop  offset="1" style="stop-color:#C79D42"/>
				</linearGradient>
				<polygon fill="url(#SVGID_4_)" points="214.9,54 211.4,58.9 224.5,70.7 230.1,64.3 				"/>
				<path fill="none" stroke="#999F38" stroke-width="5" stroke-miterlimit="10" d="M207.6,49.6"/>
				<circle opacity="0.91" fill="#CFD54C" cx="259.3" cy="62.7" r="5.3"/>
				<linearGradient id="SVGID_5_" gradientUnits="userSpaceOnUse" x1="242.8935" y1="74.666" x2="262.5097" y2="74.666">
					<stop  offset="0" style="stop-color:#6F5321"/>
					<stop  offset="0" style="stop-color:#775924"/>
					<stop  offset="0" style="stop-color:#99742F"/>
					<stop  offset="0" style="stop-color:#B18838"/>
					<stop  offset="0" style="stop-color:#C0943D"/>
					<stop  offset="0" style="stop-color:#C5983F"/>
					<stop  offset="0" style="stop-color:#CBA64B"/>
					<stop  offset="0" style="stop-color:#D6BC5D"/>
					<stop  offset="0" style="stop-color:#DDCD6B"/>
					<stop  offset="0" style="stop-color:#E3D875"/>
					<stop  offset="0" style="stop-color:#E6DF7A"/>
					<stop  offset="0" style="stop-color:#E7E17C"/>
					<stop  offset="0.4215" style="stop-color:#E7E17C"/>
					<stop  offset="0.4909" style="stop-color:#E7E17C"/>
					<stop  offset="0.6149" style="stop-color:#E2D672"/>
					<stop  offset="0.8338" style="stop-color:#D4B859"/>
					<stop  offset="1" style="stop-color:#C79D42"/>
				</linearGradient>
				<polygon fill="url(#SVGID_5_)" points="248.9,60.7 242.9,67.6 262.5,88.6 262.5,79.6 				"/>
				<linearGradient id="SVGID_6_" gradientUnits="userSpaceOnUse" x1="255.3437" y1="90.5537" x2="266.236" y2="90.5537">
					<stop  offset="0" style="stop-color:#6F5321"/>
					<stop  offset="0" style="stop-color:#775924"/>
					<stop  offset="0" style="stop-color:#99742F"/>
					<stop  offset="0" style="stop-color:#B18838"/>
					<stop  offset="0" style="stop-color:#C0943D"/>
					<stop  offset="0" style="stop-color:#C5983F"/>
					<stop  offset="0" style="stop-color:#CBA64B"/>
					<stop  offset="0" style="stop-color:#D6BC5D"/>
					<stop  offset="0" style="stop-color:#DDCD6B"/>
					<stop  offset="0" style="stop-color:#E3D875"/>
					<stop  offset="0" style="stop-color:#E6DF7A"/>
					<stop  offset="0" style="stop-color:#E7E17C"/>
					<stop  offset="0.4215" style="stop-color:#E7E17C"/>
					<stop  offset="0.4909" style="stop-color:#E7E17C"/>
					<stop  offset="0.6149" style="stop-color:#E2D672"/>
					<stop  offset="0.8338" style="stop-color:#D4B859"/>
					<stop  offset="1" style="stop-color:#C79D42"/>
				</linearGradient>
				<path fill="url(#SVGID_6_)" d="M255.3,83.1l0,8.9l5.6,5.9c0,0,5,0,8.3,0L255.3,83.1z"/>
				<polygon fill="#D37828" points="251.6,98.1 255,94 258.7,98 				"/>
				<polygon fill="#ECAB32" points="268.3,65.4 272.3,69.1 262.9,77.6 259,72.7 				"/>
			</g>
		</g>
	</g>
</g>
</svg>