<?xml version="1.0" encoding="utf-8"?>
<!-- Generator: Adobe Illustrator 15.0.0, SVG Export Plug-In . SVG Version: 6.00 Build 0)  -->
<!DOCTYPE svg PUBLIC "-//W3C//DTD SVG 1.1//EN" "http://www.w3.org/Graphics/SVG/1.1/DTD/svg11.dtd">
<svg version="1.1" id="Layer_1" xmlns="http://www.w3.org/2000/svg" xmlns:xlink="http://www.w3.org/1999/xlink" x="0px" y="0px"
	 width="287.575px" height="59.248px" viewBox="0 0 287.575 59.248" enable-background="new 0 0 287.575 59.248"
	 xml:space="preserve">
<g>
	<rect y="-0.191" fill="#1A1616" width="287.575" height="59.438"/>
	<g>
		<rect x="116.354" y="5.625" fill="#F1C536" width="95.235" height="37.107"/>
		<g>
			<g>
				<path fill="#1A1616" d="M196.487,14.986c-2.24,0-4.941-0.351-4.941,0.118c0,0.976-0.022,2.436-0.066,4.379
					c-0.045,1.947-0.067,3.407-0.067,4.381c0,0.965,0.022,2.408,0.067,4.333c0.044,1.927,0.066,3.372,0.066,4.335
					c0,0,0.761-0.123,2.28-0.047c-0.202-0.013,5.392,0.05,6.253-0.255c1.064-0.38,1.802-0.642,2.65-1.667
					c1.583-1.928,1.714-4.068,1.714-6.868c0-2.738-0.34-4.527-1.897-6.249C200.925,15.659,199.198,14.986,196.487,14.986z"/>
				<path fill="#1A1616" d="M131.287,15.919c-2.104,6.552-3.492,10.194-3.492,10.511c0,0.432,0.04,0.686,1.004,0.761
					c0.049,0.013,0.671,0.019,1.861,0.019h1.959c1.812,0,2.275-0.252,2.275-0.76c0-0.368-0.57-2.014-1.71-4.942
					C132.082,18.67,131.744,16.807,131.287,15.919z"/>
				<path fill="#1A1616" d="M114.39,2.226l0.028,43.763h98.067l-0.028-42.45L114.39,2.226z M138.354,37.935
					c0,0-1.447-6.541-1.935-6.563c-0.469-0.024-6.673-0.038-6.673-0.038c-2.09,0-3.279,0.014-3.57,0.038
					c-0.394,0.032-1.789,6.563-1.789,6.563l-6.768,0.052l10.894-28.485h5.773l8.413,22.263l2.793,6.223L138.354,37.935z
					 M162.136,14.915c0,0-6.069-0.06-8.039,0.349c-0.816,0.17-2.303,0.881-2.303,2.414c0,1.14,0.816,1.692,2.45,2.542
					c2.749,1.431,4.27,2.917,4.561,3.131c1.636,1.307,2.452,3.068,2.452,5.285c0,2.838-1.341,5.736-3.585,7.37
					c-2.015,1.471-5.549,1.838-7.477,1.915c-0.856,0.035-3.431,0-3.431,0l-2.017-5.86c0,0,4.438,0.25,5.92,0.255
					c1.545,0.005,5.371-0.195,5.263-3.243c-0.043-1.24-0.129-1.88-1.714-2.79c-2.885-1.652-4.58-2.725-4.646-2.786
					c-1.526-1.376-3.263-1.927-3.279-5.648c-0.014-3.207,1.214-4.904,2.761-6.325c1.313-1.192,4.063-1.718,5.511-1.834
					c1.887-0.151,7.573-0.064,7.573-0.064V14.915z M184.489,14.96h-7.124c-0.092,3.429,0.129,23.029,0.129,23.029h-6.913
					c0,0,0.062-19.537-0.053-23.029h-7.023V9.624h20.984V14.96z M207.382,33.371c-3.391,5.092-9.24,4.55-9.24,4.55h-12.268v-0.111
					v-1.514V12.002V9.624V9.501h9.898c1.493,0.203,4.875-0.79,9.86,3.052c1.547,1.191,2.303,3.013,3.151,5.029
					c0.797,1.874,1.197,4.059,1.197,6.112C209.981,27.253,209.206,30.629,207.382,33.371z"/>
				<path fill="#C5BF69" d="M164.366,13.925C164.284,13.947,164.36,14.022,164.366,13.925L164.366,13.925z"/>
				<path fill="#C5BF69" d="M183.027,10.355c-0.004-0.003-0.027-0.004-0.07-0.004C182.983,10.351,183.004,10.354,183.027,10.355z"/>
				<path fill="#C5BF69" d="M160.866,13.727c-0.007,0.014-0.014,0.025-0.02,0.04C160.8,13.899,160.825,13.837,160.866,13.727z"/>
			</g>
			<g>
				<rect x="114.563" y="45.99" fill="none" width="150.048" height="13.258"/>
				<text transform="matrix(1 0 0 1 117.001 51.3926)" fill="#EDCB88" font-family="'MyriadPro-Regular'" font-size="7.6093">AFRICAN SOCIETY FOR TALENT DEVELOPMENT</text>
			</g>
			<g>
				<circle opacity="0.91" fill="#CFD64D" cx="240.053" cy="10.135" r="4.441"/>
				<polygon fill="#F0C324" points="247.711,10.66 251.091,15.083 237.296,31.004 237.296,22.783 				"/>
				<linearGradient id="SVGID_1_" gradientUnits="userSpaceOnUse" x1="232.29" y1="32.0825" x2="242.6836" y2="32.0825">
					<stop  offset="0" style="stop-color:#6F5322"/>
					<stop  offset="0" style="stop-color:#755824"/>
					<stop  offset="0" style="stop-color:#95722F"/>
					<stop  offset="0" style="stop-color:#AF8638"/>
					<stop  offset="0" style="stop-color:#BF933D"/>
					<stop  offset="0" style="stop-color:#C5983F"/>
					<stop  offset="0" style="stop-color:#C79B41"/>
					<stop  offset="0" style="stop-color:#D0B051"/>
					<stop  offset="0" style="stop-color:#D8C160"/>
					<stop  offset="0" style="stop-color:#DFD06D"/>
					<stop  offset="0" style="stop-color:#E4DA76"/>
					<stop  offset="0" style="stop-color:#E7E07B"/>
					<stop  offset="0" style="stop-color:#E8E27C"/>
					<stop  offset="0.4215" style="stop-color:#E8E27C"/>
					<stop  offset="0.4909" style="stop-color:#E8E27C"/>
					<stop  offset="0.5963" style="stop-color:#E3D874"/>
					<stop  offset="0.7831" style="stop-color:#D6BE5E"/>
					<stop  offset="1" style="stop-color:#C79D43"/>
				</linearGradient>
				<polygon fill="url(#SVGID_1_)" points="242.668,26.042 242.684,33.625 238.621,38.123 232.29,38.093 				"/>
				<polyline fill="#E1AC27" points="247.306,38.118 239.83,38.053 242.731,34.711 				"/>
				<circle opacity="0.91" fill="#CFD64D" cx="222.016" cy="16.964" r="3.197"/>
				<linearGradient id="SVGID_2_" gradientUnits="userSpaceOnUse" x1="226.6328" y1="15.1841" x2="226.3294" y2="32.5657">
					<stop  offset="0" style="stop-color:#6F5322"/>
					<stop  offset="0" style="stop-color:#755824"/>
					<stop  offset="0" style="stop-color:#95722F"/>
					<stop  offset="0" style="stop-color:#AF8638"/>
					<stop  offset="0" style="stop-color:#BF933D"/>
					<stop  offset="0" style="stop-color:#C5983F"/>
					<stop  offset="0" style="stop-color:#C79B41"/>
					<stop  offset="0" style="stop-color:#D0B051"/>
					<stop  offset="0" style="stop-color:#D8C160"/>
					<stop  offset="0" style="stop-color:#DFD06D"/>
					<stop  offset="0" style="stop-color:#E4DA76"/>
					<stop  offset="0" style="stop-color:#E7E07B"/>
					<stop  offset="0" style="stop-color:#E8E27C"/>
					<stop  offset="0.4215" style="stop-color:#E8E27C"/>
					<stop  offset="0.4909" style="stop-color:#E8E27C"/>
					<stop  offset="0.5963" style="stop-color:#E3D874"/>
					<stop  offset="0.7831" style="stop-color:#D6BE5E"/>
					<stop  offset="1" style="stop-color:#C79D43"/>
				</linearGradient>
				<polygon fill="url(#SVGID_2_)" points="228.788,15.221 232.893,18.969 220.1,32.457 220.1,27.051 				"/>
				<linearGradient id="SVGID_3_" gradientUnits="userSpaceOnUse" x1="216.0996" y1="33.6123" x2="224.3906" y2="33.6123">
					<stop  offset="0" style="stop-color:#6F5322"/>
					<stop  offset="0" style="stop-color:#755824"/>
					<stop  offset="0" style="stop-color:#95722F"/>
					<stop  offset="0" style="stop-color:#AF8638"/>
					<stop  offset="0" style="stop-color:#BF933D"/>
					<stop  offset="0" style="stop-color:#C5983F"/>
					<stop  offset="0" style="stop-color:#C79B41"/>
					<stop  offset="0" style="stop-color:#D0B051"/>
					<stop  offset="0" style="stop-color:#D8C160"/>
					<stop  offset="0" style="stop-color:#DFD06D"/>
					<stop  offset="0" style="stop-color:#E4DA76"/>
					<stop  offset="0" style="stop-color:#E7E07B"/>
					<stop  offset="0" style="stop-color:#E8E27C"/>
					<stop  offset="0.4215" style="stop-color:#E8E27C"/>
					<stop  offset="0.4909" style="stop-color:#E8E27C"/>
					<stop  offset="0.5963" style="stop-color:#E3D874"/>
					<stop  offset="0.7831" style="stop-color:#D6BE5E"/>
					<stop  offset="1" style="stop-color:#C79D43"/>
				</linearGradient>
				<path fill="url(#SVGID_3_)" d="M224.391,29.168L224.38,34.5l-3.334,3.556c0,0-3.013,0-4.946,0L224.391,29.168z"/>
				<polygon fill="#D37828" points="226.613,38.132 224.577,35.659 222.354,38.081 				"/>
				<path fill="none" stroke="#171717" stroke-width="0.25" stroke-miterlimit="10" d="M235.65,27.279"/>
				<polygon fill="#ECAB33" points="216.624,18.53 214.236,20.746 219.869,25.868 222.179,22.907 				"/>
				<linearGradient id="SVGID_4_" gradientUnits="userSpaceOnUse" x1="229.2471" y1="16.7358" x2="240.4766" y2="16.7358">
					<stop  offset="0" style="stop-color:#6F5322"/>
					<stop  offset="0" style="stop-color:#755824"/>
					<stop  offset="0" style="stop-color:#95722F"/>
					<stop  offset="0" style="stop-color:#AF8638"/>
					<stop  offset="0" style="stop-color:#BF933D"/>
					<stop  offset="0" style="stop-color:#C5983F"/>
					<stop  offset="0" style="stop-color:#C79B41"/>
					<stop  offset="0" style="stop-color:#D0B051"/>
					<stop  offset="0" style="stop-color:#D8C160"/>
					<stop  offset="0" style="stop-color:#DFD06D"/>
					<stop  offset="0" style="stop-color:#E4DA76"/>
					<stop  offset="0" style="stop-color:#E7E07B"/>
					<stop  offset="0" style="stop-color:#E8E27C"/>
					<stop  offset="0.4215" style="stop-color:#E8E27C"/>
					<stop  offset="0.4909" style="stop-color:#E8E27C"/>
					<stop  offset="0.5963" style="stop-color:#E3D874"/>
					<stop  offset="0.7831" style="stop-color:#D6BE5E"/>
					<stop  offset="1" style="stop-color:#C79D43"/>
				</linearGradient>
				<polygon fill="url(#SVGID_4_)" points="231.387,11.756 229.247,14.645 237.116,21.715 240.477,17.879 				"/>
				<path fill="none" stroke="#9AA038" stroke-width="5" stroke-miterlimit="10" d="M227.001,9.08"/>
				<circle opacity="0.91" fill="#CFD64D" cx="257.949" cy="16.975" r="3.199"/>
				<linearGradient id="SVGID_5_" gradientUnits="userSpaceOnUse" x1="248.1221" y1="24.1118" x2="259.8652" y2="24.1118">
					<stop  offset="0" style="stop-color:#6F5322"/>
					<stop  offset="0" style="stop-color:#755824"/>
					<stop  offset="0" style="stop-color:#95722F"/>
					<stop  offset="0" style="stop-color:#AF8638"/>
					<stop  offset="0" style="stop-color:#BF933D"/>
					<stop  offset="0" style="stop-color:#C5983F"/>
					<stop  offset="0" style="stop-color:#C79B41"/>
					<stop  offset="0" style="stop-color:#D0B051"/>
					<stop  offset="0" style="stop-color:#D8C160"/>
					<stop  offset="0" style="stop-color:#DFD06D"/>
					<stop  offset="0" style="stop-color:#E4DA76"/>
					<stop  offset="0" style="stop-color:#E7E07B"/>
					<stop  offset="0" style="stop-color:#E8E27C"/>
					<stop  offset="0.4215" style="stop-color:#E8E27C"/>
					<stop  offset="0.4909" style="stop-color:#E8E27C"/>
					<stop  offset="0.5963" style="stop-color:#E3D874"/>
					<stop  offset="0.7831" style="stop-color:#D6BE5E"/>
					<stop  offset="1" style="stop-color:#C79D43"/>
				</linearGradient>
				<polygon fill="url(#SVGID_5_)" points="251.702,15.756 248.122,19.856 259.865,32.467 259.865,27.062 				"/>
				<linearGradient id="SVGID_6_" gradientUnits="userSpaceOnUse" x1="255.5752" y1="33.6226" x2="262.0963" y2="33.6226">
					<stop  offset="0" style="stop-color:#6F5322"/>
					<stop  offset="0" style="stop-color:#755824"/>
					<stop  offset="0" style="stop-color:#95722F"/>
					<stop  offset="0" style="stop-color:#AF8638"/>
					<stop  offset="0" style="stop-color:#BF933D"/>
					<stop  offset="0" style="stop-color:#C5983F"/>
					<stop  offset="0" style="stop-color:#C79B41"/>
					<stop  offset="0" style="stop-color:#D0B051"/>
					<stop  offset="0" style="stop-color:#D8C160"/>
					<stop  offset="0" style="stop-color:#DFD06D"/>
					<stop  offset="0" style="stop-color:#E4DA76"/>
					<stop  offset="0" style="stop-color:#E7E07B"/>
					<stop  offset="0" style="stop-color:#E8E27C"/>
					<stop  offset="0.4215" style="stop-color:#E8E27C"/>
					<stop  offset="0.4909" style="stop-color:#E8E27C"/>
					<stop  offset="0.5963" style="stop-color:#E3D874"/>
					<stop  offset="0.7831" style="stop-color:#D6BE5E"/>
					<stop  offset="1" style="stop-color:#C79D43"/>
				</linearGradient>
				<path fill="url(#SVGID_6_)" d="M255.575,29.179l0.011,5.332l3.334,3.555c0,0,3.01,0,4.946,0L255.575,29.179z"/>
				<polygon fill="#D37828" points="253.352,38.143 255.389,35.668 257.61,38.09 				"/>
				<polygon fill="#ECAB33" points="263.34,18.54 265.729,20.755 260.096,25.878 257.786,22.918 				"/>
			</g>
		</g>
	</g>
</g>
</svg>
