<svg version="1.1" id="Layer_1" xmlns="http://www.w3.org/2000/svg" xmlns:xlink="http://www.w3.org/1999/xlink" x="0px" y="0px"
	 viewBox="0 0 276.6 59.4" enable-background="new 0 0 276.6 59.4" xml:space="preserve" width="100%" height="100%">
<g>
	<rect x="0" y="0" fill="#191616" width="276.6" height="59.4"/>
	<g>
		<rect x="110.4" y="5.8" fill="#F0C335" width="95.2" height="37.1"/>
		<g>
			<g>
				<path fill="#191616" d="M190.5,15.2c-2.2,0-4.9-0.4-4.9,0.1c0,1,0,2.4-0.1,4.4c0,1.9-0.1,3.4-0.1,4.4c0,1,0,2.4,0.1,4.3
					c0,1.9,0.1,3.4,0.1,4.3c0,0,0.8-0.1,2.3,0c-0.2,0,5.4,0,6.3-0.3c1.1-0.4,1.8-0.6,2.7-1.7c1.6-1.9,1.7-4.1,1.7-6.9
					c0-2.7-0.3-4.5-1.9-6.2C194.9,15.8,193.2,15.2,190.5,15.2z"/>
				<path fill="#191616" d="M125.3,16.1c-2.1,6.6-3.5,10.2-3.5,10.5c0,0.4,0,0.7,1,0.8c0,0,0.7,0,1.9,0h2c1.8,0,2.3-0.3,2.3-0.8
					c0-0.4-0.6-2-1.7-4.9C126.1,18.9,125.7,17,125.3,16.1z"/>
				<path fill="#191616" d="M108.4,2.4l0,43.8h98.1l0-42.5L108.4,2.4z M132.4,38.1c0,0-1.4-6.5-1.9-6.6c-0.5,0-6.7,0-6.7,0
					c-2.1,0-3.3,0-3.6,0c-0.4,0-1.8,6.6-1.8,6.6l-6.8,0.1l10.9-28.5h5.8l8.4,22.3l2.8,6.2L132.4,38.1z M156.1,15.1
					c0,0-6.1-0.1-8,0.3c-0.8,0.2-2.3,0.9-2.3,2.4c0,1.1,0.8,1.7,2.5,2.5c2.7,1.4,4.3,2.9,4.6,3.1c1.6,1.3,2.5,3.1,2.5,5.3
					c0,2.8-1.3,5.7-3.6,7.4c-2,1.5-5.5,1.8-7.5,1.9c-0.9,0-3.4,0-3.4,0l-2-5.9c0,0,4.4,0.2,5.9,0.3c1.5,0,5.4-0.2,5.3-3.2
					c0-1.2-0.1-1.9-1.7-2.8c-2.9-1.7-4.6-2.7-4.6-2.8c-1.5-1.4-3.3-1.9-3.3-5.6c0-3.2,1.2-4.9,2.8-6.3c1.3-1.2,4.1-1.7,5.5-1.8
					c1.9-0.2,7.6-0.1,7.6-0.1V15.1z M178.5,15.2h-7.1c-0.1,3.4,0.1,23,0.1,23h-6.9c0,0,0.1-19.5-0.1-23h-7V9.8h21V15.2z M201.4,33.6
					c-3.4,5.1-9.2,4.5-9.2,4.5h-12.3V38v-1.5V12.2V9.8V9.7h9.9c1.5,0.2,4.9-0.8,9.9,3.1c1.5,1.2,2.3,3,3.2,5
					c0.8,1.9,1.2,4.1,1.2,6.1C204,27.4,203.2,30.8,201.4,33.6z"/>
				<path fill="#C5BF69" d="M158.4,14.1C158.3,14.1,158.4,14.2,158.4,14.1L158.4,14.1z"/>
				<path fill="#C5BF69" d="M177,10.5C177,10.5,177,10.5,177,10.5C177,10.5,177,10.5,177,10.5z"/>
				<path fill="#C5BF69" d="M154.9,13.9C154.9,13.9,154.9,13.9,154.9,13.9C154.8,14.1,154.8,14,154.9,13.9z"/>
			</g>
			<g>
				<rect x="108.6" y="46.2" fill="none" width="150" height="13.3"/>
				<text transform="matrix(1 0 0 1 111.001 51.584)" fill="#EDCA87" font-family="'MyriadPro-Regular'" font-size="7.6093">AFRICAN SOCIETY FOR TALENT DEVELOPMENT</text>
			</g>
			<g>
				<circle opacity="0.91" fill="#CFD54C" cx="234.1" cy="10.3" r="4.4"/>
				<polygon fill="#EFC223" points="241.7,10.9 245.1,15.3 231.3,31.2 231.3,23 				"/>
				<linearGradient id="SVGID_1_" gradientUnits="userSpaceOnUse" x1="226.29" y1="32.2734" x2="236.6836" y2="32.2734">
					<stop  offset="0" style="stop-color:#6F5321"/>
					<stop  offset="0" style="stop-color:#775924"/>
					<stop  offset="0" style="stop-color:#99742F"/>
					<stop  offset="0" style="stop-color:#B18838"/>
					<stop  offset="0" style="stop-color:#C0943D"/>
					<stop  offset="0" style="stop-color:#C5983F"/>
					<stop  offset="0" style="stop-color:#CBA64B"/>
					<stop  offset="0" style="stop-color:#D6BC5D"/>
					<stop  offset="0" style="stop-color:#DDCD6B"/>
					<stop  offset="0" style="stop-color:#E3D875"/>
					<stop  offset="0" style="stop-color:#E6DF7A"/>
					<stop  offset="0" style="stop-color:#E7E17C"/>
					<stop  offset="0.4215" style="stop-color:#E7E17C"/>
					<stop  offset="0.4909" style="stop-color:#E7E17C"/>
					<stop  offset="0.6149" style="stop-color:#E2D672"/>
					<stop  offset="0.8338" style="stop-color:#D4B859"/>
					<stop  offset="1" style="stop-color:#C79D42"/>
				</linearGradient>
				<polygon fill="url(#SVGID_1_)" points="236.7,26.2 236.7,33.8 232.6,38.3 226.3,38.3 				"/>
				<polyline fill="#E0AB26" points="241.3,38.3 233.8,38.2 236.7,34.9 				"/>
				<circle opacity="0.91" fill="#CFD54C" cx="216" cy="17.2" r="3.2"/>
				<linearGradient id="SVGID_2_" gradientUnits="userSpaceOnUse" x1="220.6327" y1="15.3745" x2="220.3293" y2="32.7562">
					<stop  offset="0" style="stop-color:#6F5321"/>
					<stop  offset="0" style="stop-color:#775924"/>
					<stop  offset="0" style="stop-color:#99742F"/>
					<stop  offset="0" style="stop-color:#B18838"/>
					<stop  offset="0" style="stop-color:#C0943D"/>
					<stop  offset="0" style="stop-color:#C5983F"/>
					<stop  offset="0" style="stop-color:#CBA64B"/>
					<stop  offset="0" style="stop-color:#D6BC5D"/>
					<stop  offset="0" style="stop-color:#DDCD6B"/>
					<stop  offset="0" style="stop-color:#E3D875"/>
					<stop  offset="0" style="stop-color:#E6DF7A"/>
					<stop  offset="0" style="stop-color:#E7E17C"/>
					<stop  offset="0.4215" style="stop-color:#E7E17C"/>
					<stop  offset="0.4909" style="stop-color:#E7E17C"/>
					<stop  offset="0.6149" style="stop-color:#E2D672"/>
					<stop  offset="0.8338" style="stop-color:#D4B859"/>
					<stop  offset="1" style="stop-color:#C79D42"/>
				</linearGradient>
				<polygon fill="url(#SVGID_2_)" points="222.8,15.4 226.9,19.2 214.1,32.6 214.1,27.2 				"/>
				<linearGradient id="SVGID_3_" gradientUnits="userSpaceOnUse" x1="210.0996" y1="33.8032" x2="218.3906" y2="33.8032">
					<stop  offset="0" style="stop-color:#6F5321"/>
					<stop  offset="0" style="stop-color:#775924"/>
					<stop  offset="0" style="stop-color:#99742F"/>
					<stop  offset="0" style="stop-color:#B18838"/>
					<stop  offset="0" style="stop-color:#C0943D"/>
					<stop  offset="0" style="stop-color:#C5983F"/>
					<stop  offset="0" style="stop-color:#CBA64B"/>
					<stop  offset="0" style="stop-color:#D6BC5D"/>
					<stop  offset="0" style="stop-color:#DDCD6B"/>
					<stop  offset="0" style="stop-color:#E3D875"/>
					<stop  offset="0" style="stop-color:#E6DF7A"/>
					<stop  offset="0" style="stop-color:#E7E17C"/>
					<stop  offset="0.4215" style="stop-color:#E7E17C"/>
					<stop  offset="0.4909" style="stop-color:#E7E17C"/>
					<stop  offset="0.6149" style="stop-color:#E2D672"/>
					<stop  offset="0.8338" style="stop-color:#D4B859"/>
					<stop  offset="1" style="stop-color:#C79D42"/>
				</linearGradient>
				<path fill="url(#SVGID_3_)" d="M218.4,29.4l0,5.3l-3.3,3.6c0,0-3,0-4.9,0L218.4,29.4z"/>
				<polygon fill="#D37828" points="220.6,38.3 218.6,35.8 216.4,38.3 				"/>
				<path fill="none" stroke="#161616" stroke-width="0.25" stroke-miterlimit="10" d="M229.7,27.5"/>
				<polygon fill="#ECAB32" points="210.6,18.7 208.2,20.9 213.9,26.1 216.2,23.1 				"/>
				<linearGradient id="SVGID_4_" gradientUnits="userSpaceOnUse" x1="223.2471" y1="16.9268" x2="234.4766" y2="16.9268">
					<stop  offset="0" style="stop-color:#6F5321"/>
					<stop  offset="0" style="stop-color:#775924"/>
					<stop  offset="0" style="stop-color:#99742F"/>
					<stop  offset="0" style="stop-color:#B18838"/>
					<stop  offset="0" style="stop-color:#C0943D"/>
					<stop  offset="0" style="stop-color:#C5983F"/>
					<stop  offset="0" style="stop-color:#CBA64B"/>
					<stop  offset="0" style="stop-color:#D6BC5D"/>
					<stop  offset="0" style="stop-color:#DDCD6B"/>
					<stop  offset="0" style="stop-color:#E3D875"/>
					<stop  offset="0" style="stop-color:#E6DF7A"/>
					<stop  offset="0" style="stop-color:#E7E17C"/>
					<stop  offset="0.4215" style="stop-color:#E7E17C"/>
					<stop  offset="0.4909" style="stop-color:#E7E17C"/>
					<stop  offset="0.6149" style="stop-color:#E2D672"/>
					<stop  offset="0.8338" style="stop-color:#D4B859"/>
					<stop  offset="1" style="stop-color:#C79D42"/>
				</linearGradient>
				<polygon fill="url(#SVGID_4_)" points="225.4,11.9 223.2,14.8 231.1,21.9 234.5,18.1 				"/>
				<path fill="none" stroke="#999F38" stroke-width="5" stroke-miterlimit="10" d="M221,9.3"/>
				<circle opacity="0.91" fill="#CFD54C" cx="251.9" cy="17.2" r="3.2"/>
				<linearGradient id="SVGID_5_" gradientUnits="userSpaceOnUse" x1="242.1221" y1="24.3027" x2="253.8652" y2="24.3027">
					<stop  offset="0" style="stop-color:#6F5321"/>
					<stop  offset="0" style="stop-color:#775924"/>
					<stop  offset="0" style="stop-color:#99742F"/>
					<stop  offset="0" style="stop-color:#B18838"/>
					<stop  offset="0" style="stop-color:#C0943D"/>
					<stop  offset="0" style="stop-color:#C5983F"/>
					<stop  offset="0" style="stop-color:#CBA64B"/>
					<stop  offset="0" style="stop-color:#D6BC5D"/>
					<stop  offset="0" style="stop-color:#DDCD6B"/>
					<stop  offset="0" style="stop-color:#E3D875"/>
					<stop  offset="0" style="stop-color:#E6DF7A"/>
					<stop  offset="0" style="stop-color:#E7E17C"/>
					<stop  offset="0.4215" style="stop-color:#E7E17C"/>
					<stop  offset="0.4909" style="stop-color:#E7E17C"/>
					<stop  offset="0.6149" style="stop-color:#E2D672"/>
					<stop  offset="0.8338" style="stop-color:#D4B859"/>
					<stop  offset="1" style="stop-color:#C79D42"/>
				</linearGradient>
				<polygon fill="url(#SVGID_5_)" points="245.7,15.9 242.1,20 253.9,32.7 253.9,27.3 				"/>
				<linearGradient id="SVGID_6_" gradientUnits="userSpaceOnUse" x1="249.5752" y1="33.8134" x2="256.0963" y2="33.8134">
					<stop  offset="0" style="stop-color:#6F5321"/>
					<stop  offset="0" style="stop-color:#775924"/>
					<stop  offset="0" style="stop-color:#99742F"/>
					<stop  offset="0" style="stop-color:#B18838"/>
					<stop  offset="0" style="stop-color:#C0943D"/>
					<stop  offset="0" style="stop-color:#C5983F"/>
					<stop  offset="0" style="stop-color:#CBA64B"/>
					<stop  offset="0" style="stop-color:#D6BC5D"/>
					<stop  offset="0" style="stop-color:#DDCD6B"/>
					<stop  offset="0" style="stop-color:#E3D875"/>
					<stop  offset="0" style="stop-color:#E6DF7A"/>
					<stop  offset="0" style="stop-color:#E7E17C"/>
					<stop  offset="0.4215" style="stop-color:#E7E17C"/>
					<stop  offset="0.4909" style="stop-color:#E7E17C"/>
					<stop  offset="0.6149" style="stop-color:#E2D672"/>
					<stop  offset="0.8338" style="stop-color:#D4B859"/>
					<stop  offset="1" style="stop-color:#C79D42"/>
				</linearGradient>
				<path fill="url(#SVGID_6_)" d="M249.6,29.4l0,5.3l3.3,3.6c0,0,3,0,4.9,0L249.6,29.4z"/>
				<polygon fill="#D37828" points="247.4,38.3 249.4,35.9 251.6,38.3 				"/>
				<polygon fill="#ECAB32" points="257.3,18.7 259.7,20.9 254.1,26.1 251.8,23.1 				"/>
			</g>
		</g>
	</g>
</g>
</svg>
