<?xml version="1.0" encoding="utf-8"?>
<!-- Generator: Adobe Illustrator 15.0.0, SVG Export Plug-In . SVG Version: 6.00 Build 0)  -->
<!DOCTYPE svg PUBLIC "-//W3C//DTD SVG 1.1//EN" "http://www.w3.org/Graphics/SVG/1.1/DTD/svg11.dtd">
<svg version="1.1" id="Layer_1" xmlns="http://www.w3.org/2000/svg" xmlns:xlink="http://www.w3.org/1999/xlink" x="0px" y="0px"
	 width="285.313px" height="651.16px" viewBox="0 0 285.313 651.16" enable-background="new 0 0 285.313 651.16"
	 xml:space="preserve">
<g>
	<g>
		<g>
			<g>
				<g>
					<polygon fill="#E2D170" points="30.234,141.425 30.066,170.233 58.875,170.065 					"/>
					<polygon fill="#EEDC92" points="58.964,170.045 30.198,170.233 30.32,198.685 					"/>
					<polygon fill="#DEC780" points="1.746,170.064 30.198,170.233 30.386,141.425 					"/>
					<polygon fill="#D9C068" points="30.32,198.706 30.198,170.233 1.771,169.977 					"/>
					<g>
						<polygon fill="#EDD06F" points="58.878,112.951 58.707,141.758 87.516,141.591 						"/>
						<polygon fill="#EEE07C" points="87.602,141.571 58.84,141.758 58.961,170.211 						"/>
						<polygon fill="#D9C068" points="30.386,141.59 58.84,141.758 59.03,112.951 						"/>
						<polygon fill="#EDD06F" points="58.961,170.233 58.84,141.758 30.414,141.501 						"/>
					</g>
					<g>
						<polygon fill="#F6F1AC" points="58.756,169.977 58.587,198.783 87.397,198.615 						"/>
						<polygon fill="#EEEFAA" points="87.481,198.596 58.718,198.783 58.841,227.236 						"/>
						<polygon fill="#F7E7A5" points="30.267,198.615 58.718,198.783 58.911,169.977 						"/>
						<polygon fill="#EEEFAA" points="58.841,227.258 58.718,198.783 30.292,198.526 						"/>
					</g>
					<g>
						<polygon fill="#EDEE9B" points="87.281,141.57 87.108,170.378 115.919,170.208 						"/>
						<polygon fill="#EDEFA9" points="116.005,170.19 87.24,170.378 87.362,198.828 						"/>
						<polygon fill="#EFE284" points="58.791,170.207 87.24,170.378 87.43,141.57 						"/>
						<polygon fill="#EEEFAA" points="87.362,198.853 87.24,170.378 58.814,170.12 						"/>
					</g>
					<g>
						<polygon fill="#DAC052" points="30.271,84.364 30.1,113.173 58.911,113.003 						"/>
						<polygon fill="#E2D170" points="58.996,112.983 30.232,113.173 30.353,141.622 						"/>
						<polygon fill="#D0B25C" points="1.78,113.003 30.232,113.173 30.424,84.364 						"/>
						<polygon fill="#BC9C55" points="30.353,141.644 30.232,113.173 1.806,112.914 						"/>
					</g>
					<g>
						<polygon fill="#BC9C55" points="58.841,55.813 58.673,84.62 87.48,84.451 						"/>
						<polygon fill="#E0BE61" points="87.567,84.432 58.803,84.62 58.925,113.071 						"/>
						<polygon fill="#D1AA50" points="30.353,84.451 58.803,84.62 58.993,55.813 						"/>
						<polygon fill="#D0B25C" points="58.925,113.096 58.803,84.62 30.376,84.364 						"/>
					</g>
					<g>
						<polygon fill="#E2D170" points="87.277,84.453 87.105,113.263 115.916,113.093 						"/>
						<polygon fill="#D9C068" points="116.001,113.074 87.238,113.263 87.359,141.714 						"/>
						<polygon fill="#EDD06F" points="58.788,113.093 87.238,113.263 87.427,84.453 						"/>
						<polygon fill="#E7D27C" points="87.359,141.737 87.238,113.263 58.812,113.003 						"/>
					</g>
					<g>
						<polygon fill="#F2E9A7" points="87.152,141.567 115.603,141.737 115.793,112.928 						"/>
						<polygon fill="#F7E7A5" points="115.724,170.211 115.603,141.737 87.175,141.48 						"/>
					</g>
					<g>
						<polygon fill="#D9C068" points="1.683,112.928 1.514,141.737 30.326,141.568 						"/>
						<polygon fill="#DAC052" points="30.414,141.548 1.649,141.737 1.771,170.187 						"/>
					</g>
					<g>
						<polygon fill="#AE8640" points="1.683,55.722 1.514,84.532 30.326,84.364 						"/>
						<polygon fill="#BC9C55" points="30.414,84.342 1.649,84.532 1.771,112.983 						"/>
					</g>
					<g>
						<polygon fill="#D0B25C" points="87.116,84.271 115.567,84.44 115.76,55.631 						"/>
						<polygon fill="#D9C068" points="115.689,112.914 115.567,84.44 87.14,84.183 						"/>
					</g>
					<g>
						<polygon fill="#B99958" points="30.302,27.171 30.135,55.979 58.946,55.813 						"/>
						<polygon fill="#AE8640" points="59.03,55.791 30.265,55.979 30.385,84.432 						"/>
						<polygon fill="#87674F" points="1.816,55.813 30.265,55.979 30.457,27.171 						"/>
						<polygon fill="#B79052" points="30.385,84.453 30.265,55.979 1.838,55.722 						"/>
					</g>
					<g>
						<polygon fill="#E0BE61" points="87.057,27.338 86.887,56.148 115.697,55.979 						"/>
						<polygon fill="#DCC15F" points="115.783,55.958 87.017,56.148 87.14,84.597 						"/>
						<polygon fill="#B99958" points="58.567,55.979 87.017,56.148 87.21,27.338 						"/>
						<polygon fill="#AE8640" points="87.14,84.62 87.017,56.148 58.591,55.889 						"/>
					</g>
					<g>
						<polygon fill="#D1AA50" points="87.567,27.319 58.803,27.506 58.925,55.958 						"/>
						<polygon fill="#B79052" points="58.925,55.979 58.803,27.506 30.376,27.247 						"/>
					</g>
					<g>
						<polygon fill="#8B705E" points="30.332,27.201 1.567,27.389 1.688,55.837 						"/>
					</g>
					<g>
						<polygon fill="#D7BC6F" points="115.609,56.148 115.486,27.674 87.059,27.415 						"/>
					</g>
					<polygon fill="#EEF0AF" points="30.262,198.59 30.093,227.398 58.903,227.232 					"/>
					<polygon fill="#EDF0BA" points="58.988,227.209 30.223,227.398 30.347,255.851 					"/>
					<polygon fill="#F6F1AC" points="1.774,227.228 30.223,227.398 30.416,198.59 					"/>
					<polygon fill="#EDEE9B" points="30.347,255.871 30.223,227.398 1.797,227.141 					"/>
					<g>
						<polygon fill="#F9F4C9" points="58.784,227.141 58.613,255.951 87.425,255.781 						"/>
						<polygon fill="#F8F3AB" points="30.297,255.781 58.746,255.951 58.935,227.141 						"/>
					</g>
					<g>
						<polygon fill="#F6F1AC" points="87.305,198.733 87.135,227.543 115.945,227.374 						"/>
						<polygon fill="#F4F4C6" points="116.032,227.355 87.268,227.543 87.39,255.993 						"/>
						<polygon fill="#F6F1AC" points="58.817,227.373 87.268,227.543 87.459,198.733 						"/>
						<polygon fill="#F6F1AC" points="87.39,256.017 87.268,227.543 58.841,227.284 						"/>
					</g>
					<g>
						<polygon fill="#F7F3C8" points="87.178,198.729 115.629,198.9 115.822,170.094 						"/>
						<polygon fill="#F8F3AB" points="115.751,227.374 115.629,198.9 87.202,198.644 						"/>
					</g>
					<g>
						<polygon fill="#D1AA50" points="1.713,170.094 1.542,198.9 30.353,198.733 						"/>
						<polygon fill="#BC9C55" points="30.438,198.713 1.675,198.9 1.797,227.352 						"/>
					</g>
					<g>
						<polygon fill="#F8F3AB" points="87.139,255.874 115.589,256.042 115.78,227.236 						"/>
					</g>
					<g>
						<polygon fill="#F2E9B0" points="1.671,227.236 1.503,256.042 30.311,255.874 						"/>
						<polygon fill="#EDEE9B" points="30.399,255.854 1.635,256.042 1.756,284.493 						"/>
					</g>
					<polygon fill="#EDEE9B" points="143.817,141.492 143.647,170.301 172.455,170.131 					"/>
					<polygon fill="#EFEFA6" points="172.541,170.111 143.778,170.301 143.899,198.751 					"/>
					<polygon fill="#E3EBA3" points="115.328,170.13 143.778,170.301 143.969,141.492 					"/>
					<polygon fill="#E6ECAD" points="143.899,198.776 143.778,170.301 115.349,170.044 					"/>
					<g>
						<polygon fill="#E3EBA3" points="172.457,113.018 172.285,141.827 201.096,141.659 						"/>
						<polygon fill="#E6ECAD" points="201.184,141.639 172.42,141.827 172.541,170.278 						"/>
						<polygon fill="#EBEFB1" points="143.969,141.658 172.42,141.827 172.608,113.018 						"/>
						<polygon fill="#DEE599" points="172.541,170.301 172.42,141.827 143.992,141.57 						"/>
					</g>
					<g>
						<polygon fill="#ECEFAD" points="172.336,170.044 172.166,198.853 200.979,198.682 						"/>
						<polygon fill="#EDF0BA" points="201.063,198.663 172.299,198.853 172.422,227.302 						"/>
						<polygon fill="#EBF0BB" points="143.848,198.681 172.299,198.853 172.49,170.044 						"/>
						<polygon fill="#F1F0BD" points="172.422,227.325 172.299,198.853 143.873,198.595 						"/>
					</g>
					<g>
						<polygon fill="#ECEFAD" points="200.86,141.637 200.688,170.444 229.498,170.276 						"/>
						<polygon fill="#EDEE9B" points="229.586,170.256 200.821,170.444 200.942,198.895 						"/>
						<polygon fill="#EDEE9B" points="172.371,170.276 200.821,170.444 201.012,141.637 						"/>
						<polygon fill="#EFEFA6" points="200.942,198.918 200.821,170.444 172.393,170.187 						"/>
					</g>
					<g>
						<polygon fill="#E9E393" points="143.85,84.432 143.68,113.24 172.49,113.071 						"/>
						<polygon fill="#F7E7A5" points="172.576,113.049 143.813,113.24 143.936,141.691 						"/>
						<polygon fill="#E9E393" points="115.361,113.069 143.813,113.24 144.002,84.432 						"/>
						<polygon fill="#F2E9A7" points="143.936,141.714 143.813,113.24 115.385,112.983 						"/>
					</g>
					<g>
						<polygon fill="#DEE599" points="172.422,55.878 172.252,84.689 201.063,84.521 						"/>
						<polygon fill="#DDDA88" points="201.149,84.5 172.385,84.689 172.508,113.14 						"/>
						<polygon fill="#F1E18D" points="143.936,84.521 172.385,84.689 172.574,55.878 						"/>
						<polygon fill="#E9E393" points="172.508,113.163 172.385,84.689 143.957,84.432 						"/>
					</g>
					<g>
						<polygon fill="#DEE599" points="200.856,84.521 200.686,113.331 229.496,113.16 						"/>
						<polygon fill="#E6ECAD" points="229.58,113.142 200.819,113.331 200.94,141.78 						"/>
						<polygon fill="#DEE599" points="172.367,113.16 200.819,113.331 201.008,84.521 						"/>
						<polygon fill="#DBDE96" points="200.94,141.803 200.819,113.331 172.391,113.071 						"/>
					</g>
					<g>
						<polygon fill="#E3EBA3" points="200.731,141.633 229.182,141.803 229.373,112.993 						"/>
						<polygon fill="#DBE8AA" points="229.305,170.278 229.182,141.803 200.754,141.545 						"/>
					</g>
					<g>
						<polygon fill="#EBEFB1" points="115.266,112.993 115.095,141.803 143.905,141.633 						"/>
						<polygon fill="#F6F1AC" points="143.992,141.614 115.227,141.803 115.349,170.254 						"/>
					</g>
					<g>
						<polygon fill="#DAC052" points="115.266,55.789 115.095,84.597 143.905,84.429 						"/>
						<polygon fill="#E2D170" points="143.992,84.409 115.227,84.597 115.349,113.048 						"/>
					</g>
					<g>
						<polygon fill="#D9D392" points="200.698,84.338 229.147,84.505 229.338,55.699 						"/>
						<polygon fill="#D3DD8D" points="229.268,112.983 229.147,84.505 200.719,84.249 						"/>
					</g>
					<g>
						<polygon fill="#D9C068" points="143.883,27.238 143.713,56.046 172.524,55.878 						"/>
						<polygon fill="#D9C068" points="172.608,55.861 143.844,56.046 143.967,84.496 						"/>
						<polygon fill="#D1AA50" points="115.396,55.878 143.844,56.046 144.035,27.238 						"/>
						<polygon fill="#D9C068" points="143.967,84.521 143.844,56.046 115.419,55.789 						"/>
					</g>
					<g>
						<polygon fill="#B6B36C" points="200.635,27.406 200.467,56.215 229.278,56.046 						"/>
						<polygon fill="#D7D288" points="229.362,56.027 200.598,56.215 200.719,84.665 						"/>
						<polygon fill="#AC9F5F" points="172.149,56.046 200.598,56.215 200.789,27.406 						"/>
						<polygon fill="#D0D78B" points="200.719,84.689 200.598,56.215 172.17,55.958 						"/>
					</g>
					<g>
						<polygon fill="#C7C574" points="201.149,27.385 172.385,27.572 172.508,56.024 						"/>
						<polygon fill="#D9C068" points="172.508,56.046 172.385,27.572 143.957,27.315 						"/>
					</g>
					<g>
						<polygon fill="#D0B25C" points="143.91,27.268 115.146,27.455 115.268,55.906 						"/>
					</g>
					<g>
						<polygon fill="#AC9F5F" points="229.188,56.215 229.065,27.741 200.641,27.482 						"/>
					</g>
					<polygon fill="#F9F1B9" points="143.842,198.656 143.672,227.465 172.485,227.298 					"/>
					<polygon fill="#F1F1BF" points="172.571,227.278 143.807,227.465 143.926,255.917 					"/>
					<polygon fill="#F9F4C9" points="115.355,227.297 143.807,227.465 143.994,198.656 					"/>
					<polygon fill="#F4F4C6" points="143.926,255.939 143.807,227.465 115.377,227.209 					"/>
					<g>
						<polygon fill="#F9F1B9" points="172.365,227.209 172.196,256.017 201.004,255.848 						"/>
						<polygon fill="#F8F7CD" points="143.877,255.848 172.326,256.017 172.518,227.209 						"/>
					</g>
					<g>
						<polygon fill="#EEEFAA" points="200.883,198.801 200.717,227.611 229.528,227.441 						"/>
						<polygon fill="#F4F4C6" points="229.612,227.422 200.848,227.611 200.969,256.06 						"/>
						<polygon fill="#F1F0BD" points="172.397,227.44 200.848,227.611 201.039,198.801 						"/>
						<polygon fill="#EEEFAA" points="200.969,256.084 200.848,227.611 172.422,227.352 						"/>
					</g>
					<g>
						<polygon fill="#ECEFB4" points="200.76,198.799 229.209,198.97 229.401,170.159 						"/>
						<polygon fill="#F9F1B9" points="229.33,227.441 229.209,198.97 200.783,198.713 						"/>
					</g>
					<g>
						<polygon fill="#EEEFAA" points="115.291,170.159 115.124,198.97 143.936,198.801 						"/>
						<polygon fill="#F7F3C8" points="144.02,198.781 115.256,198.97 115.377,227.42 						"/>
					</g>
					<g>
						<polygon fill="#F9F1B9" points="200.719,255.942 229.17,256.111 229.358,227.302 						"/>
					</g>
					<g>
						<polygon fill="#F8F7CD" points="115.253,227.302 115.082,256.111 143.893,255.942 						"/>
					</g>
				</g>
				<g>
					<polyline fill="#DBDE96" points="285.94,142.157 257.129,141.993 285.77,113.35 					"/>
					<polyline fill="#D3DD8D" points="285.684,170.61 257.043,141.97 285.807,142.157 					"/>
					<polyline fill="#D7D696" points="286.059,199.184 257.248,199.015 285.889,170.375 					"/>
					<polyline fill="#DDE798" points="285.805,227.634 257.162,198.994 285.928,199.184 					"/>
					<polygon fill="#D4E496" points="257.367,141.966 257.537,170.777 228.729,170.61 					"/>
					<polygon fill="#DBDE96" points="228.641,170.589 257.406,170.777 257.285,199.228 					"/>
					<polyline fill="#DDDA88" points="285.856,170.606 257.406,170.777 257.215,141.966 285.856,170.606 					"/>
					<polyline fill="#DDE798" points="285.832,170.52 257.285,199.25 257.406,170.777 285.832,170.52 					"/>
					<polyline fill="#C0BE71" points="285.977,85.019 257.164,84.851 285.803,56.211 					"/>
					<polyline fill="#D2C477" points="285.719,113.469 257.076,84.832 285.842,85.019 					"/>
					<polygon fill="#DDDA88" points="257.371,84.852 257.541,113.661 228.733,113.493 					"/>
					<polygon fill="#CBD186" points="228.645,113.473 257.408,113.661 257.287,142.113 					"/>
					<polyline fill="#CBD186" points="285.86,113.493 257.408,113.661 257.219,84.852 285.86,113.493 					"/>
					<polyline fill="#D7D696" points="285.836,113.403 257.287,142.135 257.408,113.661 285.836,113.403 					"/>
					<g>
						<polygon fill="#DDDA88" points="257.494,141.966 229.045,142.135 228.854,113.325 						"/>
						<polygon fill="#D3DD8D" points="228.922,170.61 229.045,142.135 257.471,141.877 						"/>
					</g>
					<g>
						<polygon fill="#D2C477" points="257.528,84.667 229.08,84.839 228.889,56.032 						"/>
						<polygon fill="#D7D288" points="228.959,113.313 229.08,84.839 257.506,84.582 						"/>
					</g>
					<polygon fill="#C0BE71" points="257.59,27.738 257.76,56.548 228.949,56.378 					"/>
					<polygon fill="#C0BE71" points="228.865,56.359 257.629,56.548 257.506,84.997 					"/>
					<polyline fill="#B6B36C" points="286.078,56.378 257.629,56.548 257.438,27.738 286.078,56.378 					"/>
					<polyline fill="#A7A66E" points="286.055,56.287 257.506,85.019 257.629,56.548 286.055,56.287 					"/>
					<polyline fill="#A7A66E" points="285.719,56.356 257.076,27.718 285.842,27.904 					"/>
					<g>
						<polygon fill="#B6B36C" points="228.176,57.67 228.297,29.199 256.723,28.939 						"/>
					</g>
					<polyline fill="#EEEFAA" points="286.035,256.349 257.223,256.179 285.862,227.539 					"/>
					<polygon fill="#EEEFAA" points="257.342,199.133 257.51,227.943 228.699,227.773 					"/>
					<polygon fill="#EDF0BA" points="228.615,227.753 257.381,227.943 257.256,256.39 					"/>
					<polyline fill="#ECED9C" points="285.83,227.771 257.381,227.943 257.188,199.133 285.83,227.771 					"/>
					<polyline fill="#EEEFAA" points="285.805,227.684 257.256,256.415 257.381,227.943 285.805,227.684 					"/>
					<g>
						<polygon fill="#EDEE9B" points="257.467,199.131 229.016,199.299 228.824,170.492 						"/>
						<polygon fill="#ECF0B9" points="228.895,227.773 229.016,199.299 257.444,199.043 						"/>
					</g>
					<g>
						<polygon fill="#EDEE9B" points="257.508,256.274 229.057,256.443 228.867,227.634 						"/>
					</g>
				</g>
				<g>
					<polyline fill="#EEEFAA" points="229.041,255.678 228.92,284.126 200.278,255.487 					"/>
					<polyline fill="#EDF0BA" points="257.467,255.419 228.92,284.152 229.041,255.678 					"/>
					<polyline fill="#EDF0BA" points="257.567,255.459 257.737,284.269 228.926,284.101 257.567,255.459 					"/>
					<polyline fill="#F1F0BD" points="257.414,255.459 286.055,284.098 257.604,284.269 257.414,255.459 					"/>
					<polyline fill="#EBEFB1" points="200.524,255.604 200.694,284.411 171.883,284.242 200.524,255.604 					"/>
					<polyline fill="#EEEFAA" points="200.369,255.604 229.012,284.242 200.561,284.411 200.369,255.604 					"/>
					<polyline fill="#F9F4C9" points="200.625,255.512 172.078,284.242 172.199,255.771 					"/>
					<polyline fill="#EDEE9B" points="286.155,255.771 286.033,284.221 257.389,255.581 					"/>
					<polygon fill="#EDD06F" points="257.287,427.043 257.457,398.237 228.647,398.404 					"/>
					<polygon fill="#E8D772" points="228.563,398.423 257.324,398.237 257.203,369.785 					"/>
					<polygon fill="#D6B663" points="285.776,398.404 257.324,398.237 257.135,427.043 					"/>
					<polygon fill="#D7BC6F" points="257.203,369.762 257.324,398.237 285.754,398.495 					"/>
					<g>
						<polygon fill="#D9C068" points="228.647,455.518 228.817,426.71 200.004,426.878 						"/>
						<polygon fill="#E7D27C" points="199.922,426.898 228.684,426.71 228.565,398.259 						"/>
						<polygon fill="#D9C068" points="257.135,426.878 228.684,426.71 228.494,455.518 						"/>
						<polygon fill="#E2D170" points="228.565,398.237 228.684,426.71 257.112,426.966 						"/>
					</g>
					<g>
						<polygon fill="#EEE39F" points="228.766,398.495 228.936,369.686 200.127,369.853 						"/>
						<polygon fill="#EEF0AF" points="200.041,369.872 228.807,369.686 228.684,341.233 						"/>
						<polygon fill="#DEE599" points="257.256,369.853 228.807,369.686 228.614,398.495 						"/>
						<polygon fill="#EEE39F" points="228.684,341.211 228.807,369.686 257.231,369.945 						"/>
					</g>
					<g>
						<polygon fill="#DEE599" points="200.244,426.901 200.416,398.09 171.604,398.259 						"/>
						<polygon fill="#EDED98" points="171.516,398.281 200.281,398.09 200.16,369.643 						"/>
						<polygon fill="#EEE07C" points="228.733,398.261 200.281,398.09 200.092,426.901 						"/>
						<polygon fill="#EDEE9B" points="200.16,369.62 200.281,398.09 228.711,398.35 						"/>
					</g>
					<g>
						<polygon fill="#DAC052" points="257.252,484.105 257.424,455.294 228.614,455.466 						"/>
						<polygon fill="#D6B663" points="228.528,455.486 257.291,455.294 257.17,426.847 						"/>
						<polygon fill="#C1AF5B" points="285.742,455.466 257.291,455.294 257.1,484.105 						"/>
						<polygon fill="#DEC665" points="257.17,426.824 257.291,455.294 285.719,455.554 						"/>
					</g>
					<g>
						<polygon fill="#C1AF5B" points="228.682,512.656 228.854,483.846 200.041,484.017 						"/>
						<polygon fill="#DAC052" points="199.957,484.037 228.721,483.846 228.598,455.398 						"/>
						<polygon fill="#BC9C55" points="257.17,484.017 228.721,483.846 228.53,512.656 						"/>
						<polygon fill="#D6B663" points="228.598,455.375 228.721,483.846 257.147,484.105 						"/>
					</g>
					<g>
						<polygon fill="#D9C068" points="200.248,484.015 200.418,455.207 171.608,455.375 						"/>
						<polygon fill="#E7D27C" points="171.522,455.395 200.283,455.207 200.162,426.756 						"/>
						<polygon fill="#D9C068" points="228.737,455.378 200.283,455.207 200.096,484.015 						"/>
						<polygon fill="#E7D27C" points="200.162,426.733 200.283,455.207 228.713,455.464 						"/>
					</g>
					<g>
						<polygon fill="#DDDA88" points="200.371,426.904 171.922,426.733 171.729,455.54 						"/>
						<polygon fill="#EDEE9B" points="171.799,398.259 171.922,426.733 200.348,426.992 						"/>
					</g>
					<g>
						<polygon fill="#D8BA6C" points="285.838,455.54 286.006,426.733 257.199,426.904 						"/>
						<polygon fill="#DEC665" points="257.112,426.921 285.875,426.733 285.754,398.284 						"/>
					</g>
					<g>
						<polygon fill="#D0B25A" points="285.838,512.744 286.006,483.938 257.199,484.105 						"/>
						<polygon fill="#D6B663" points="257.112,484.125 285.875,483.938 285.754,455.489 						"/>
					</g>
					<g>
						<polygon fill="#D0B25A" points="200.408,484.197 171.955,484.029 171.766,512.839 						"/>
						<polygon fill="#D7BC6F" points="171.834,455.554 171.955,484.029 200.385,484.287 						"/>
					</g>
					<g>
						<polygon fill="#D0B25A" points="228.494,512.676 257.258,512.488 257.137,484.039 						"/>
						<polygon fill="#D1AA50" points="257.137,484.015 257.258,512.488 285.684,512.744 						"/>
					</g>
					<g>
						<polygon fill="#D8BA6C" points="171.74,512.512 200.504,512.32 200.385,483.872 						"/>
						<polygon opacity="0.91" fill="#C1BC56" points="200.385,483.846 200.504,512.32 228.934,512.579 						"/>
					</g>
					<polygon fill="#EDED98" points="257.262,369.881 257.43,341.069 228.621,341.238 					"/>
					<polygon fill="#EDED98" points="228.535,341.26 257.299,341.069 257.178,312.62 					"/>
					<polygon fill="#EFE284" points="285.748,341.24 257.299,341.069 257.108,369.881 					"/>
					<polygon fill="#EEE39F" points="257.178,312.597 257.299,341.069 285.725,341.327 					"/>
					<g>
						<polygon fill="#E4EDB8" points="228.739,341.327 228.91,312.52 200.1,312.688 						"/>
						<polygon fill="#F1F0BD" points="200.012,312.709 228.776,312.52 228.655,284.07 						"/>
						<polygon fill="#EDF0BA" points="257.227,312.688 228.776,312.52 228.586,341.327 						"/>
						<polygon fill="#F6F1AC" points="228.655,284.047 228.776,312.52 257.203,312.777 						"/>
					</g>
					<g>
						<polygon fill="#EEEFAA" points="200.217,369.737 200.389,340.927 171.576,341.094 						"/>
						<polygon fill="#F8F3AB" points="171.492,341.114 200.256,340.927 200.133,312.475 						"/>
						<polygon fill="#EDF0BA" points="228.707,341.094 200.256,340.927 200.063,369.737 						"/>
						<polygon fill="#EDEE9B" points="200.133,312.452 200.256,340.927 228.684,341.186 						"/>
					</g>
					<g>
						<polygon fill="#EEEFAA" points="200.342,369.737 171.893,369.569 171.703,398.376 						"/>
						<polygon fill="#ECEFB4" points="171.772,341.094 171.893,369.569 200.321,369.824 						"/>
					</g>
					<g>
						<g>
							<g>
								<polygon fill="#D9C068" points="285.813,398.376 285.983,369.569 257.17,369.737 								"/>
							</g>
							<g>
								<polygon fill="#E7D27C" points="257.084,369.756 285.85,369.569 285.727,341.116 								"/>
							</g>
						</g>
					</g>
					<polygon fill="#F1F0BD" points="257.301,312.737 257.471,283.926 228.66,284.098 					"/>
					<polygon fill="#EEEFAA" points="285.789,284.098 257.34,283.926 257.149,312.737 					"/>
					<g>
						<polygon fill="#F8F3AB" points="200.258,312.595 200.428,283.784 171.617,283.952 						"/>
						<polygon fill="#EDF0BA" points="228.746,283.952 200.297,283.784 200.106,312.595 						"/>
					</g>
					<g>
						<polygon fill="#EDF0BA" points="200.385,312.595 171.934,312.427 171.744,341.233 						"/>
						<polygon fill="#EBEFB1" points="171.813,283.952 171.934,312.427 200.362,312.682 						"/>
					</g>
					<g>
						<polygon fill="#DEE599" points="285.85,341.233 286.02,312.427 257.211,312.595 						"/>
						<polygon fill="#DEE599" points="257.125,312.615 285.891,312.427 285.768,283.975 						"/>
					</g>
					<polyline fill="#F9F4C9" points="115.462,255.744 115.34,284.194 86.697,255.555 					"/>
					<polyline fill="#F9F4C9" points="143.889,255.486 115.34,284.218 115.462,255.744 					"/>
					<polyline fill="#F8F7CD" points="143.987,255.527 144.156,284.334 115.345,284.166 143.987,255.527 					"/>
					<polyline fill="#F4F4C6" points="143.834,255.527 172.475,284.166 144.022,284.334 143.834,255.527 					"/>
					<polyline fill="#F4F4C6" points="86.944,255.669 87.112,284.48 58.303,284.311 86.944,255.669 					"/>
					<polyline fill="#F9F4C9" points="86.79,255.669 115.432,284.311 86.981,284.48 86.79,255.669 					"/>
					<polyline fill="#EDF0BA" points="87.045,255.577 58.498,284.311 58.619,255.838 					"/>
					<polyline fill="#F9F1B9" points="172.576,255.838 172.453,284.288 143.811,255.649 					"/>
					<polygon fill="#EDEE9B" points="143.709,426.978 143.877,398.167 115.066,398.336 					"/>
					<polygon fill="#EDEE9B" points="114.981,398.359 143.746,398.167 143.623,369.719 					"/>
					<polygon fill="#EDED98" points="172.198,398.338 143.746,398.167 143.555,426.978 					"/>
					<polygon fill="#E3EBA3" points="143.623,369.694 143.746,398.167 172.174,398.426 					"/>
					<g>
						<polygon fill="#E4EDB8" points="115.066,455.451 115.237,426.641 86.427,426.811 						"/>
						<polygon fill="#EDF0BA" points="86.341,426.829 115.105,426.641 114.981,398.19 						"/>
						<polygon fill="#EEEFAA" points="143.555,426.811 115.105,426.641 114.914,455.451 						"/>
						<polygon fill="#EDEE9B" points="114.981,398.167 115.105,426.641 143.531,426.901 						"/>
					</g>
					<g>
						<polygon fill="#EDEE9B" points="115.185,398.426 115.356,369.62 86.546,369.785 						"/>
						<polygon fill="#EEEFAA" points="86.46,369.807 115.224,369.62 115.104,341.165 						"/>
						<polygon fill="#EEEFAA" points="143.674,369.785 115.224,369.62 115.034,398.426 						"/>
						<polygon fill="#EDED98" points="115.104,341.146 115.224,369.62 143.651,369.876 						"/>
					</g>
					<g>
						<polygon fill="#EEF0AF" points="86.665,426.833 86.836,398.025 58.025,398.19 						"/>
						<polygon fill="#E3EBA3" points="57.938,398.214 86.703,398.025 86.581,369.573 						"/>
						<polygon fill="#EDED98" points="115.153,398.194 86.703,398.025 86.511,426.833 						"/>
						<polygon fill="#EEF0AF" points="86.581,369.55 86.703,398.025 115.13,398.284 						"/>
					</g>
					<g>
						<polygon fill="#EEE39F" points="143.674,484.039 143.844,455.229 115.034,455.398 						"/>
						<polygon fill="#EDEE9B" points="114.948,455.418 143.713,455.229 143.59,426.781 						"/>
						<polygon fill="#EFE284" points="172.162,455.4 143.713,455.229 143.52,484.039 						"/>
						<polygon fill="#EFE284" points="143.59,426.759 143.713,455.229 172.139,455.489 						"/>
					</g>
					<g>
						<polygon fill="#DEE599" points="115.102,512.588 115.273,483.781 86.461,483.948 						"/>
						<polygon fill="#EDED98" points="86.374,483.969 115.138,483.781 115.018,455.328 						"/>
						<polygon fill="#DFDA85" points="143.59,483.948 115.138,483.781 114.949,512.588 						"/>
						<polygon fill="#EDED98" points="115.018,455.307 115.138,483.781 143.567,484.039 						"/>
					</g>
					<g>
						<polygon fill="#ECEFB4" points="86.669,483.948 86.84,455.139 58.029,455.31 						"/>
						<polygon fill="#EEF0AF" points="57.943,455.326 86.706,455.139 86.584,426.69 						"/>
						<polygon fill="#E3EBA3" points="115.157,455.31 86.706,455.139 86.513,483.948 						"/>
						<polygon fill="#EDEE9B" points="86.584,426.664 86.706,455.139 115.134,455.398 						"/>
					</g>
					<g>
						<polygon fill="#EDED98" points="86.792,426.835 58.343,426.664 58.151,455.475 						"/>
						<polygon fill="#EDEE9B" points="58.219,398.19 58.343,426.664 86.768,426.924 						"/>
					</g>
					<g>
						<polygon fill="#DEE599" points="172.258,455.475 172.428,426.664 143.617,426.835 						"/>
						<polygon fill="#EEF0AF" points="143.531,426.855 172.297,426.664 172.174,398.217 						"/>
					</g>
					<g>
						<polygon fill="#D9C068" points="172.258,512.679 172.428,483.872 143.617,484.039 						"/>
						<polygon fill="#E8D772" points="143.531,484.057 172.297,483.872 172.174,455.421 						"/>
					</g>
					<g>
						<polygon fill="#E3EBA3" points="86.825,484.131 58.377,483.96 58.185,512.771 						"/>
						<polygon fill="#E4EDB8" points="58.256,455.489 58.377,483.96 86.802,484.219 						"/>
					</g>
					<g>
						<polygon fill="#E8D772" points="114.914,512.612 143.678,512.422 143.555,483.972 						"/>
						<polygon opacity="0.91" fill="#C1BC56" points="143.555,483.948 143.678,512.422 172.104,512.679 						"/>
					</g>
					<g>
						<polygon fill="#DDE798" points="58.162,512.443 86.926,512.255 86.802,483.803 						"/>
						<polygon fill="#EDED98" points="86.802,483.781 86.926,512.255 115.351,512.512 						"/>
					</g>
					<polygon fill="#ECEFB4" points="143.68,369.814 143.85,341.003 115.04,341.17 					"/>
					<polygon fill="#EEEFAA" points="114.955,341.191 143.719,341.003 143.596,312.554 					"/>
					<polygon fill="#EDED98" points="172.168,341.17 143.719,341.003 143.528,369.814 					"/>
					<polygon fill="#EDED98" points="143.596,312.53 143.719,341.003 172.145,341.262 					"/>
					<g>
						<polygon fill="#EEF0AF" points="115.159,341.262 115.33,312.452 86.519,312.62 						"/>
						<polygon fill="#F4F4C6" points="86.432,312.644 115.196,312.452 115.075,284 						"/>
						<polygon fill="#F8F3AB" points="143.649,312.62 115.196,312.452 115.006,341.262 						"/>
						<polygon fill="#F9F4C9" points="115.075,283.978 115.196,312.452 143.623,312.711 						"/>
					</g>
					<g>
						<polygon fill="#EDF0BA" points="86.639,369.668 86.807,340.858 57.997,341.027 						"/>
						<polygon fill="#EEEFAA" points="57.912,341.048 86.675,340.858 86.555,312.409 						"/>
						<polygon fill="#EEF0AF" points="115.126,341.029 86.675,340.858 86.485,369.668 						"/>
						<polygon fill="#F8F3AB" points="86.555,312.387 86.675,340.858 115.104,341.116 						"/>
					</g>
					<g>
						<polygon fill="#E4EDB8" points="86.764,369.672 58.313,369.5 58.123,398.307 						"/>
						<polygon fill="#E4EDB8" points="58.191,341.027 58.313,369.5 86.74,369.759 						"/>
					</g>
					<g>
						<polygon fill="#E5ECAC" points="172.231,398.307 172.401,369.5 143.59,369.672 						"/>
						<polygon fill="#EEF0AF" points="143.504,369.688 172.268,369.5 172.147,341.051 						"/>
					</g>
					<polygon fill="#F8F3AB" points="143.721,312.668 143.893,283.861 115.081,284.029 					"/>
					<polygon fill="#F6F1AC" points="172.209,284.029 143.758,283.861 143.571,312.668 					"/>
					<g>
						<polygon fill="#F8F3AB" points="86.678,312.526 86.849,283.719 58.037,283.887 						"/>
						<polygon fill="#F9F4C9" points="115.168,283.887 86.716,283.719 86.525,312.526 						"/>
					</g>
					<g>
						<polygon fill="#F4F4C6" points="86.803,312.53 58.355,312.358 58.163,341.165 						"/>
						<polygon fill="#F8F3AB" points="58.233,283.885 58.355,312.358 86.782,312.616 						"/>
					</g>
					<g>
						<polygon fill="#EEEFAA" points="172.272,341.165 172.442,312.358 143.629,312.526 						"/>
						<polygon fill="#EDF0BA" points="143.545,312.546 172.309,312.358 172.188,283.907 						"/>
					</g>
					<line fill="#EBEFB1" x1="2.01" y1="284.527" x2="30.652" y2="255.886"/>
					<polyline fill="#EEEFAA" points="30.408,256.003 30.238,284.813 59.049,284.642 30.408,256.003 					"/>
					<line fill="#F9F1B9" x1="30.56" y1="256.003" x2="1.92" y2="284.642"/>
					<polyline fill="#F2E9B0" points="1.92,284.642 30.369,284.813 30.56,256.003 					"/>
					<polyline fill="#EEF0AF" points="30.304,255.909 58.851,284.642 58.732,256.171 					"/>
					<polyline fill="#F2E9B0" points="2.112,426.976 30.923,427.144 2.283,455.782 					"/>
					<polyline fill="#EDEE9B" points="2.368,398.523 31.01,427.162 2.246,426.976 					"/>
					<polyline fill="#F2E9B0" points="1.993,369.949 30.803,370.118 2.164,398.757 					"/>
					<polyline fill="#EEF0AF" points="2.249,341.498 30.889,370.138 2.127,369.949 					"/>
					<polygon fill="#ECF0B9" points="30.685,427.162 30.514,398.356 59.324,398.523 					"/>
					<polygon fill="#E3EBA3" points="59.411,398.544 30.647,398.356 30.769,369.906 					"/>
					<polyline fill="#F2E9B0" points="2.196,398.527 30.647,398.356 30.84,427.162 2.196,398.527 					"/>
					<polyline fill="#EEF0AF" points="2.219,398.615 30.769,369.884 30.647,398.356 2.219,398.615 					"/>
					<polyline fill="#EEF0AF" points="2.078,484.115 30.887,484.281 2.249,512.921 					"/>
					<polyline fill="#F2E9B0" points="2.333,455.659 30.975,484.302 2.212,484.115 					"/>
					<polygon opacity="0.91" fill="#D7E19D" points="30.682,484.281 30.511,455.472 59.321,455.64 					"/>
					<polygon fill="#E4EDB8" points="59.409,455.659 30.643,455.472 30.766,427.02 					"/>
					<polyline fill="#ECEFB4" points="2.193,455.64 30.643,455.472 30.836,484.281 2.193,455.64 					"/>
					<polyline fill="#EDEE9B" points="2.217,455.728 30.766,426.997 30.643,455.472 2.217,455.728 					"/>
					<g>
						<polygon fill="#EEF0AF" points="30.56,427.166 59.01,426.997 59.199,455.806 						"/>
						<polygon fill="#EDEE9B" points="59.131,398.523 59.01,426.997 30.582,427.254 						"/>
					</g>
					<g>
						<polygon opacity="0.91" fill="#D7E19D" points="30.524,484.461 58.974,484.294 59.165,513.104 						"/>
						<polygon fill="#E3EBA3" points="59.096,455.822 58.974,484.294 30.547,484.553 						"/>
					</g>
					<polygon fill="#DEE599" points="59.189,512.776 30.425,512.584 30.547,484.134 					"/>
					<polyline fill="#DDE798" points="1.999,512.845 30.547,484.115 30.425,512.584 1.999,512.845 					"/>
					<polyline fill="#F2E9B0" points="2.02,312.785 30.832,312.953 2.191,341.593 					"/>
					<polyline fill="#F2E9B0" points="2.276,284.334 30.918,312.973 2.153,312.785 					"/>
					<polygon fill="#ECF0B9" points="30.713,369.999 30.543,341.191 59.353,341.36 					"/>
					<polygon fill="#EDF0BA" points="59.438,341.379 30.676,341.191 30.795,312.74 					"/>
					<polyline fill="#EEF0AF" points="2.224,341.36 30.676,341.191 30.865,369.999 2.224,341.36 					"/>
					<polyline fill="#EDEE9B" points="2.249,341.449 30.795,312.717 30.676,341.191 2.249,341.449 					"/>
					<g>
						<polygon fill="#EDEE9B" points="30.586,370.001 59.036,369.834 59.227,398.64 						"/>
						<polygon fill="#ECF0B9" points="59.159,341.36 59.036,369.834 30.609,370.092 						"/>
					</g>
					<polygon fill="#EBEFB1" points="30.672,312.86 30.501,284.05 59.312,284.218 					"/>
					<polyline fill="#EDF0BA" points="2.183,284.218 30.634,284.05 30.824,312.86 2.183,284.218 					"/>
					<g>
						<polygon fill="#F8F3AB" points="30.546,312.863 58.996,312.692 59.186,341.498 						"/>
						<polygon fill="#F9F1B9" points="59.118,284.218 58.996,312.692 30.568,312.948 						"/>
					</g>
				</g>
			</g>
			<g>
				<polygon fill="none" points="186.094,373.172 77.724,261.935 231.686,111.925 340.065,223.149 				"/>
				<text transform="matrix(0.682 -0.7314 0.7314 0.682 97.321 281.384)" opacity="0.9"><tspan x="0" y="0" fill="#231F20" font-family="'MyriadPro-Regular'" font-size="14.0027">GLOBAL BEST PRACTICE</tspan><tspan x="-0.84" y="17.503" fill="#231F20" font-family="'MyriadPro-Regular'" font-size="14.0027">HUMAN PERFORMANCE</tspan><tspan x="-1.68" y="35.007" fill="#231F20" font-family="'MyriadPro-Regular'" font-size="14.0027">WORKPLACE IMPROVEMENT</tspan><tspan x="-2.52" y="52.51" fill="#231F20" font-family="'MyriadPro-Regular'" font-size="14.0027">TRAINING DESIGN AND DELIVERY</tspan><tspan x="-3.36" y="70.012" fill="#231F20" font-family="'MyriadPro-Regular'" font-size="14.0027"> LEADERSHIP DEVELOPMENT</tspan><tspan x="-4.2" y="87.516" fill="#231F20" font-family="'MyriadPro-Regular'" font-size="14.0027"> INFORMATION SHARING</tspan><tspan x="-5.04" y="105.02" fill="#231F20" font-family="'MyriadPro-Regular'" font-size="14.0027"> COLLABORATION</tspan><tspan x="-5.881" y="122.522" fill="#231F20" font-family="'MyriadPro-Regular'" font-size="14.0027"> NETWORKING</tspan></text>
				<polygon fill="none" points="19.309,338.572 91.237,270.909 265.43,456.045 193.516,523.721 				"/>
				<text transform="matrix(0.7193 0.6947 -0.6947 0.7193 72.0085 289.5608)" opacity="0.9"><tspan x="0" y="0" fill="#231F20" font-family="'MyriadPro-Regular'" font-size="14.0026">SCIENCE OF ART AND LEARNING</tspan><tspan x="-0.807" y="16.803" fill="#231F20" font-family="'MyriadPro-Regular'" font-size="14.0026">LEARNING MEASUREMENT AND ANALYTICS</tspan><tspan x="-1.615" y="33.606" fill="#231F20" font-family="'MyriadPro-Regular'" font-size="14.0026">TRAINING DESIGN AND DELIVERY</tspan><tspan x="-2.421" y="50.41" fill="#231F20" font-family="'MyriadPro-Regular'" font-size="14.0026">SALES ENABLEMENT</tspan></text>
				<g>
					<polygon fill="none" points="179.156,158.557 27.865,317.984 -12.187,279.973 139.096,120.543 					"/>
					<text transform="matrix(0.6884 -0.7254 0.7254 0.6884 3.9685 295.3069)"><tspan x="0" y="0" fill="#D79228" font-family="'MyriadPro-Bold'" font-size="21.879">           </tspan><tspan x="48.613" y="0" fill="#D79228" font-family="'MyriadPro-Bold'" font-size="31.3599">LEARNING </tspan><tspan x="-0.002" y="26.255" fill="#D79228" font-family="'MyriadPro-Bold'" font-size="21.879" letter-spacing="-1">AND</tspan><tspan x="41.392" y="26.255" fill="#D79228" font-family="'MyriadPro-Bold'" font-size="21.879"> DEVELOPMENT</tspan></text>
				</g>
			</g>
			<g>
				<g>
					<path fill="#9A8934" d="M259.338,81.729c-0.104-0.452,0.385-1.503,0.088-1.836c-0.449-0.51-1.561,0.353-1.969,0.527
						c-0.557,0.234-1.637,0.724-2.211,0.579c-0.494-0.126-2.342,0.009-2.703,0.458c-0.68,0.831-1.398,0.713-2.359,0.713
						c-0.824,0-1.533,0.582-2.305,0.753c-0.926,0.19-1.504-0.808-1.984-1.396c-0.66-0.819-1.473-0.872-1.473-0.872
						c-0.129,0.016,1.156-0.246,0.846-1.266c-0.174-0.567-0.936-0.668-1.32-1.13c-0.193-0.23-0.553-0.582-0.551-0.9
						c0-0.384-0.232-0.086-0.41-0.259c-0.512-0.474-1.008-0.791-1.402-1.388c-0.348-0.519-1.504-1.038-2.08-1.268
						c-0.209-0.078-0.232-0.516-0.336-0.682c-0.197-0.312-0.773-0.354-1.063-0.549c-0.496-0.335-2.344-4.055-2.344-4.055
						c-0.057-0.119-0.186-0.295-0.281-0.381c0,0-1.471-1.384-1.721-2.287c-0.385-1.417-0.129-3.084-0.889-4.373
						c-0.227-0.388-0.17-0.901-0.514-1.196c-0.289-0.253-0.762-0.419-0.912-0.79c-0.193-0.505-1.5-0.64-1.5-0.64
						c-0.133-0.021-0.172-0.116-0.09-0.228c0,0,0.277-0.359,0.129-0.739c-0.199-0.526,0.135-0.833,0.135-0.833
						c0.098-0.087,0.1-0.234,0.002-0.327c0,0-1.422-1.368-1.789-2.032c-0.672-1.211-1.334-2.414-1.994-3.619
						c-0.568-1.035-0.334-1.421-1.359-2.189c-0.621-0.482-1.057-2.73-1.057-2.73c-0.029-0.132-0.012-0.138,0.033-0.009
						c0,0,0.287,0.789,0.598,1.24c0.488,0.712,0.873,1.499,1.557,2.05c1.074,0.866,1.211-0.295,1.291-1.163
						c0.156-1.737-0.076-2.89-0.645-4.539c-0.199-0.58-0.855-0.209-1.24-0.123c-0.883,0.195-1.547,0.131-2.35-0.271
						c-0.285-0.139-1.244-0.529-1.555-0.349c-0.549,0.329-0.563-0.108-1.025-0.089c-0.896,0.057-1.574,1.072-2.414,1.329
						c-0.488,0.154-0.984-0.205-1.439-0.337c-0.625-0.176-1.396,0.143-1.951-0.284c-0.736-0.581-3.059-0.596-3.059-0.596
						c-0.135-0.006-0.322-0.088-0.41-0.184c0,0-0.43-0.429-0.832-0.478c-0.66-0.092-1.881,0.059-2.447-0.316
						c-0.334-0.219-0.168-0.7-0.641-0.803c-0.967-0.211-1.66-0.594-2.684-0.36c-1.205,0.264-2.615,1.387-1.834,2.755
						c0.662,1.154-0.631,1.849-1.631,1.828c-0.537-0.013-0.898-0.295-1.307-0.607c-0.643-0.49-1.352-0.686-2.129-0.875
						c-1.064-0.256-2.395-0.33-2.629-1.661c-0.188-1.048-1.85-1.239-2.658-1.49c-0.658-0.205-1.211-0.12-1.879-0.205
						c-0.533-0.064-1.582-0.693-1.582-0.693c-0.115-0.069-0.176-0.023-0.129,0.102l0.09,0.466c0.012,0.126-0.008,0.132-0.045,0.002
						l-1.111-1.021c-0.115-0.062-0.291-0.189-0.389-0.274c0,0-0.387-0.351-0.584-0.637c-0.287-0.409,0.863-1.109,1.063-1.357
						c0.418-0.532,0.422-1.406,0.422-1.406c0-0.128-0.039-0.338-0.088-0.461l-0.148-0.273c-0.084-0.106-0.16-0.305-0.168-0.432
						c0,0-0.047-0.478-0.107-0.762c-0.381-1.679-0.691-1.796-2.301-1.296c-0.529,0.158-1.279,0.433-1.93,0.2
						c-0.582-0.208-0.979,0.004-1.508-0.2c-0.67-0.254-0.75-0.031-1.348,0.244c-0.848,0.403-1.402-0.054-2.229-0.229
						c-0.779-0.159-1.57,0.099-2.348,0.126c-0.852,0.028-2.029-0.098-2.836,0.181c-0.578,0.209-0.969,0.724-1.541,0.947
						c-0.523,0.208-1.049,0.079-1.572,0.239c-0.527,0.162-0.721,0.176-0.953,0.713c-0.285,0.686-1.477,0.628-1.477,0.628
						c-0.129-0.005-0.92,0.201-1.531-0.398c-0.359-0.344-2.225-0.328-2.713-0.223c-0.748,0.154-0.689-1.318-1.371-1.307
						c-0.801,0.01-1.217,1.563-1.461,2.119c-0.404,0.928-0.996,1.487-2.012,1.698c-1.223,0.247-1.602,0.604-2.5,1.398
						c-0.775,0.68-1.1,1.54-1.828,2.247c-0.855,0.823-0.172,2.202-0.697,3.177c-0.939,1.729-3.674,3.038-5.527,3.478
						c-0.777,0.176-1.156,0.864-1.494,1.56c-0.453,0.928-1.418,1.46-2,2.302c-0.635,0.898-0.873,1.988-1.666,2.793
						c-0.813,0.827-1.354,1.339-1.925,2.376c-0.195,0.364-0.484,0.693-0.653,1.07c-0.142,0.337-0.583,0.119-0.813,0.403
						c-0.453,0.524-0.526,2.196-0.526,2.196c-0.004,0.132,0.086,0.292,0.205,0.349c0,0,0.992,0.49,0.613,1.242
						c-0.216,0.427-0.229,0.912-0.445,1.339c-0.258,0.496,0.164,0.691,0.293,1.119c0.203,0.703-0.769,5.174-0.769,5.174
						c-0.029,0.134-0.089,0.343-0.132,0.467c0,0-0.402,1.097-0.682,1.548c-0.472,0.742-1.436,1.029-1.436,1.029
						c-0.125,0.038-0.141,0.125-0.023,0.197c0,0,0.521,0.323,0.576,0.602c0.095,0.479,0.338,0.912,0.411,1.403
						c0.1,0.644-0.308,0.473-0.411,0.9c-0.122,0.476,0.35,1.674,0.35,1.674c0.054,0.126,0.018,0.305-0.072,0.399
						c0,0-0.467,0.501,0.054,0.501c0.543,0,0.259-0.647,0.947-0.594c0.68,0.057,0.836-0.541,1.3-0.541
						c0.822,0,2.325,0.221,2.325,0.221c0.136,0.021,0.229,0.146,0.216,0.275c0,0-0.142,1.519-0.979,1.725
						c-0.707,0.172-1.645,0.791-1.071,1.601c0.266,0.376-0.105,0.721,0.166,1.122c0.198,0.312,0.614,0.457,0.899,0.678
						c0.312,0.24,0.616,0.507,0.809,0.859c0.174,0.323,0.376,0.743,0.376,0.743c0.056,0.119,0.133,0.324,0.174,0.447l2.408,3.318
						c0.096,0.1,0.242,0.25,0.334,0.348c0,0,1.49,1.566,2.078,2.141c0.59,0.588,1.037,1.286,1.607,1.89
						c0.641,0.672,1.67,0.647,2.209,1.317c0.506,0.628,1.359-0.29,1.918-0.544c0.99-0.451,2.057-0.749,3.135-0.869
						c1.184-0.135,3.645-0.031,3.645-0.031c0.127,0.009,0.262,0.119,0.293,0.25c0,0,0.018,0.072,0.502,0.296
						c0.367,0.174,0.799,0.354,1.213,0.265c0.328-0.071,0.582-0.438,0.863-0.602c0.459-0.263,0.904-0.147,1.373-0.313
						c0.738-0.263,0.988-0.891,1.838-0.889c0.469,0,1.1-0.65,1.1-0.65c0.086-0.1,0.27-0.178,0.404-0.185l2.625-0.778
						c0.119-0.055,0.324-0.083,0.451-0.055c0,0,1.59,0.339,2.166,0.425c1.186,0.185,2.121,1.156,2.439,2.254
						c0.348,1.22,1.098,2.027,2.408,1.809c0.855-0.147,2.686-0.976,2.686-0.976c0.125-0.054,0.328-0.072,0.457-0.041
						c0,0,1.004,0.265,0.83,1.106c-0.029,0.129,1.139,0.743,1.32,0.922c0.561,0.561,0.895,1.044,0.627,1.851
						c-0.223,0.648,0.291,0.946,0.291,0.946c0.115,0.067,0.146,0.209,0.07,0.319l-0.307,1.858c0.051,0.117-0.02,0.229-0.154,0.229
						c0,0-0.215,0.013-0.428,0.111c-0.107,0.047-0.578,1.35-0.68,1.555c-0.27,0.523-0.209,1.129-0.432,1.667
						c-0.221,0.554-0.445,0.502-0.111,0.788c0.244,0.214,0.297,0.659,0.297,0.659c0.02,0.128,0.119,0.303,0.223,0.38
						c0,0,0.58,0.443,0.422,0.704c-0.27,0.465,0.443,0.76,0.723,1.002c0.746,0.661,1.221,1.562,1.9,2.287
						c0.592,0.629,1.262,0.875,1.756,1.644c0.123,0.188,0.885,1.946,0.885,1.946c0.045,0.121,0.453,0.553,0.445,0.681
						c0,0-0.109,1.027,0.35,1.472c0.33,0.323,0.361,0.612,0.43,1.06c0.115,0.713,0.518,1.179,0.746,1.831
						c0.402,1.139-0.322,0.791-0.6,1.37c-0.307,0.624,0.957,2.177,1.199,2.737c0.395,0.911,0.445,2.052,0.178,3.007
						c-0.27,0.983-1.205,1.327-1.738,2.13c-0.561,0.849-0.404,1.927-0.527,2.923c-0.141,1.127-1.125,1.853-1.172,3.007
						c-0.027,0.524,0.068,1.053,0.184,1.563c0.131,0.58-0.139,0.773-0.098,1.344c0.066,0.889,0.98,1.46,1.406,2.179
						c1.162,1.971,2.033,4.093,3.254,6.021c0.736,1.172,0.338,1.774,0.502,3.083c0.184,1.424,0.867,2.61,0.867,4.082
						c0,0.735,0.602,2.317,0.959,2.974c0.227,0.389,1.867,1.705,1.867,1.705c0.104,0.084,0.227,0.259,0.275,0.375
						c0,0,1.309,3.368,1.713,3.949c0.846,1.229,1.195,3.5,1.195,3.5c0.02,0.132,0.002,0.341-0.037,0.464c0,0-0.25,0.784-0.094,1.053
						c0.219,0.371,0.891,1.426,1.268,1.62c0.402,0.204,0.791,0.603,1.217,0.716c0.859,0.242,1.205-0.625,1.992-0.625
						c0.727,0,1.51,0.104,1.945-0.536c0.273-0.394,0.969-0.113,1.383-0.161c0.686-0.086,1.164,0.027,1.824,0.125
						c0.959,0.144,1.582-0.19,2.486-0.474c1.527-0.483,2.596-0.572,3.883-1.556c1.262-0.967,2.305-2.042,3.602-2.897
						c0.578-0.395,0.703-1.201,1.094-1.75c0.686-0.954,1.586-1.712,2.434-2.514c0.568-0.535,1.035-1.054,1.217-1.831
						c0.127-0.53,0.133-1.829,0.133-1.829c0-0.13-0.01-0.347-0.029-0.481c0,0-0.143-1.108,0.152-1.652
						c0.459-0.843,2.244-1.431,3.109-1.646c1.225-0.305,1.98-0.704,2.066-2.044c0.037-0.523,0.189-0.897,0.332-1.397
						c0.066-0.244-0.16-0.997-0.16-0.997c-0.033-0.134-0.072-0.338-0.078-0.476c0,0-0.105-2.229-0.721-3.556
						c-0.521-1.117,1.693-1.98,2.35-2.408c1.012-0.665,1.479-1.813,2.414-2.569c0.449-0.377,0.951-0.688,1.479-0.936
						c0.604-0.274,1.291-0.2,1.869-0.498c0.869-0.454,1.955-1.628,2.533-2.412c0.348-0.476,0.322-1.077,0.58-1.586
						c0.473-0.907-0.184-1.073-0.133-1.938c0.063-1.063,0.139-2.137,0.238-3.194c0.049-0.494,0.111-2.943,0.111-2.943
						c0.01-0.135-0.002-0.353-0.027-0.485c0,0-0.07-0.446-0.438-0.655c-0.109-0.065-0.432-0.2-0.432-0.2
						c-0.123-0.057-0.199-0.199-0.166-0.331c0,0,0.094-0.397-0.076-0.611c-0.33-0.413-0.736-1.51-0.736-2.015
						c0-0.532,0.072-1.082,0.086-1.628c0.018-0.403,0.34-0.703,0.361-1.116c0.021-0.422-0.418-0.631-0.551-0.979
						c-0.172-0.446-0.545-0.247-0.598-0.829c-0.043-0.389,0.146-0.756,0.336-1.078c0.211-0.355,0.477-1.596,0.477-1.596
						c0.027-0.124,0.111-0.322,0.182-0.43c0,0,1.121-1.646,1.471-2.229c0.279-0.448-0.174-0.87,0.342-1.291
						c0.682-0.553,1.002-1.132,1.002-1.132c0.063-0.122,0.219-0.208,0.352-0.194l0.908-0.707c0.068-0.115,0.188-0.286,0.281-0.391
						c0,0,0.418-0.455,0.699-0.791c0.422-0.493,0.908-0.937,1.316-1.44c0.746-0.927,1.574-1.703,2.463-2.504
						c0.834-0.756,1.119-1.465,2.211-2.022c1.104-0.562,1.9-1.389,2.752-2.279c0.986-1.051,1.711-2.287,2.514-3.465
						c0.807-1.205,1.139-2.637,1.922-3.789c0.68-1.015,1.184-2.321,1.732-3.419c0.691-1.356,1.535-3.688,1.535-3.688
						c0.043-0.126-0.023-0.25-0.154-0.261C259.842,82.297,259.455,82.233,259.338,81.729
						C259.266,81.406,259.465,82.276,259.338,81.729z"/>
				</g>
			</g>
			<line fill="#D7BC6F" x1="115.819" y1="-0.697" x2="87.392" y2="-0.954"/>
			<g>
				<polygon fill="#B99958" points="57.879,0.775 57.711,29.582 86.522,29.417 				"/>
				<polygon fill="#87674F" points="29.392,29.417 57.842,29.582 58.033,0.775 				"/>
				<polygon fill="#E0BE61" points="114.634,0.943 114.464,29.751 143.274,29.582 				"/>
				<polygon fill="#B99958" points="86.143,29.582 114.594,29.751 114.787,0.943 				"/>
				<g>
					<polygon fill="#D1AA50" points="115.144,0.921 86.38,1.111 86.502,29.562 					"/>
					<polygon fill="#B79052" points="86.502,29.582 86.38,1.111 57.953,0.852 					"/>
				</g>
				<g>
					<polygon fill="#8B705E" points="57.91,0.807 29.144,0.992 29.265,29.442 					"/>
				</g>
				<polygon fill="#D0B25C" points="171.459,0.841 171.289,29.651 200.1,29.483 				"/>
				<polygon fill="#D1AA50" points="142.972,29.483 171.422,29.651 171.612,0.841 				"/>
				<polygon fill="#B6B36C" points="228.211,1.011 228.043,29.818 256.854,29.651 				"/>
				<polygon fill="#AC9F5F" points="199.725,29.651 228.176,29.818 228.365,1.011 				"/>
				<g>
					<polygon fill="#C7C574" points="228.725,0.988 199.961,1.176 200.084,29.628 					"/>
					<polygon fill="#D9C068" points="200.084,29.651 199.961,1.176 171.535,0.919 					"/>
				</g>
				<g>
					<polygon fill="#D0B25C" points="171.489,0.872 142.723,1.059 142.844,29.512 					"/>
				</g>
				<g>
					<polygon fill="#AC9F5F" points="256.764,29.818 256.641,1.347 228.215,1.086 					"/>
				</g>
				<polygon fill="#C0BE71" points="285.166,1.341 285.336,30.152 256.526,29.983 				"/>
				<g>
					<g>
						<g>
							<polygon fill="#AD9851" points="256.615,30.149 256.739,1.679 285.164,1.419 							"/>
						</g>
					</g>
				</g>
				<g>
					<polygon fill="#D7BC6F" points="143.168,29.612 143.047,1.138 114.62,0.88 					"/>
				</g>
			</g>
			<polygon fill="#87674F" points="1.589,29.654 30.038,29.818 30.228,1.011 			"/>
			<g>
				<polygon fill="#8B705E" points="30.104,1.043 1.339,1.229 1.461,29.679 				"/>
			</g>
		</g>
		<polygon fill="#DAC052" points="257.127,540.408 257.299,511.598 228.489,511.77 		"/>
		<polygon fill="#C1AF5B" points="285.617,511.77 257.166,511.598 256.975,540.408 		"/>
		<polygon fill="#C1AF5B" points="228.557,568.959 228.729,540.15 199.916,540.321 		"/>
		<polygon fill="#DAC052" points="199.832,540.341 228.596,540.15 228.473,511.701 		"/>
		<polygon fill="#BC9C55" points="257.045,540.321 228.596,540.15 228.405,568.959 		"/>
		<polygon fill="#D6B663" points="228.473,511.679 228.596,540.15 257.022,540.408 		"/>
		<polygon fill="#C1AF5B" points="200.123,540.319 200.293,511.511 171.483,511.679 		"/>
		<polygon fill="#D1AA50" points="228.612,511.682 200.158,511.511 199.971,540.319 		"/>
		<polygon fill="#D0B25A" points="285.713,569.048 285.881,540.241 257.074,540.408 		"/>
		<polygon fill="#D6B663" points="256.987,540.429 285.75,540.241 285.629,511.792 		"/>
		<polygon fill="#D0B25A" points="200.283,540.5 171.83,540.332 171.641,569.143 		"/>
		<polygon fill="#D1AA50" points="171.709,511.858 171.83,540.332 200.26,540.591 		"/>
		<g>
			<polygon fill="#D0B25A" points="228.369,568.98 257.133,568.791 257.012,540.343 			"/>
			<polygon fill="#D1AA50" points="257.012,540.319 257.133,568.791 285.559,569.048 			"/>
		</g>
		<g>
			<polygon fill="#C1AF5B" points="171.615,568.816 200.379,568.623 200.26,540.176 			"/>
			<polygon opacity="0.91" fill="#C1BC56" points="200.26,540.15 200.379,568.623 228.809,568.883 			"/>
		</g>
		<polygon fill="#E7D27C" points="143.549,540.343 143.719,511.532 114.909,511.701 		"/>
		<polygon fill="#D9C068" points="172.037,511.703 143.588,511.532 143.395,540.343 		"/>
		<polygon fill="#E7D27C" points="114.977,568.892 115.148,540.084 86.336,540.252 		"/>
		<polygon fill="#EFE284" points="86.249,540.273 115.013,540.084 114.893,511.632 		"/>
		<polygon fill="#D9C068" points="143.465,540.252 115.013,540.084 114.824,568.892 		"/>
		<polygon fill="#E8D772" points="114.893,511.611 115.013,540.084 143.442,540.343 		"/>
		<polygon fill="#DDE798" points="86.544,540.252 86.715,511.443 57.904,511.614 		"/>
		<polygon fill="#E3EBA3" points="115.032,511.614 86.581,511.443 86.388,540.252 		"/>
		<polygon fill="#C1AF5B" points="172.133,568.983 172.303,540.176 143.492,540.343 		"/>
		<polygon fill="#D9C068" points="143.406,540.361 172.172,540.176 172.049,511.725 		"/>
		<polygon fill="#E3EBA3" points="86.7,540.435 58.252,540.264 58.06,569.074 		"/>
		<polygon fill="#EEE39F" points="58.131,511.792 58.252,540.264 86.677,540.523 		"/>
		<g>
			<polygon fill="#D9C068" points="114.789,568.915 143.553,568.726 143.43,540.276 			"/>
			<polygon opacity="0.91" fill="#C1BC56" points="143.43,540.252 143.553,568.726 171.979,568.983 			"/>
		</g>
		<g>
			<polygon fill="#DDE798" points="58.037,568.746 86.801,568.559 86.677,540.107 			"/>
			<polygon fill="#DFDA85" points="86.677,540.084 86.801,568.559 115.226,568.816 			"/>
		</g>
		<polyline fill="#EEF0AF" points="1.953,540.418 30.762,540.584 2.124,569.225 		"/>
		<polyline fill="#F2E9B0" points="2.208,511.963 30.85,540.606 2.087,540.418 		"/>
		<polygon opacity="0.91" fill="#D7E19D" points="30.557,540.584 30.386,511.776 59.196,511.944 		"/>
		<polyline fill="#ECEFB4" points="2.068,511.944 30.518,511.776 30.711,540.584 2.068,511.944 		"/>
		<polygon opacity="0.91" fill="#D7E19D" points="30.399,540.765 58.849,540.598 59.04,569.407 		"/>
		<polygon fill="#E3EBA3" points="58.971,512.125 58.849,540.598 30.422,540.857 		"/>
		<polygon fill="#DEE599" points="59.064,569.079 30.3,568.888 30.422,540.438 		"/>
		<polyline fill="#DDE798" points="1.874,569.149 30.422,540.418 30.3,568.888 1.874,569.149 		"/>
	</g>
	<g>
		<g>
			<polygon fill="#C1AF5B" points="171.93,623.564 172.102,594.754 143.289,594.925 			"/>
			<polygon fill="#BC9C55" points="200.418,594.925 171.969,594.754 171.778,623.564 			"/>
			<polygon fill="#D0B25A" points="229.086,623.653 229.254,594.846 200.448,595.013 			"/>
			<polygon fill="#D0B25A" points="143.656,595.105 115.203,594.937 115.013,623.747 			"/>
			<g>
				<polygon fill="#D0B25A" points="171.742,623.584 200.506,623.396 200.385,594.948 				"/>
				<polygon fill="#D1AA50" points="200.385,594.923 200.506,623.396 228.932,623.653 				"/>
			</g>
			<polygon fill="#D8BA6C" points="114.988,623.42 143.752,623.228 143.633,594.781 			"/>
			<polygon opacity="0.91" fill="#C1BC56" points="143.633,594.754 143.752,623.228 172.182,623.488 			"/>
			<polygon fill="#DFDA85" points="58.35,623.496 58.521,594.689 29.709,594.857 			"/>
			<polygon fill="#DFDA85" points="86.839,594.857 58.386,594.689 58.197,623.496 			"/>
			<polygon fill="#D9C068" points="115.506,623.587 115.676,594.781 86.865,594.948 			"/>
			<polygon fill="#E3EBA3" points="30.073,595.039 1.625,594.868 1.433,623.679 			"/>
			<g>
				<polygon fill="#E8D772" points="58.162,623.52 86.927,623.33 86.803,594.88 				"/>
				<polygon opacity="0.91" fill="#C1BC56" points="86.803,594.857 86.927,623.33 115.352,623.587 				"/>
			</g>
			<g>
				<polygon fill="#DFDA85" points="1.41,623.351 30.174,623.163 30.051,594.711 				"/>
				<polygon fill="#E7D27C" points="30.051,594.689 30.174,623.163 58.599,623.42 				"/>
			</g>
			<polygon fill="#DAC052" points="200.375,651.317 200.547,622.506 171.737,622.678 			"/>
			<polygon fill="#C1AF5B" points="228.865,622.678 200.414,622.506 200.223,651.317 			"/>
			<polygon fill="#DAC052" points="143.08,651.249 171.844,651.058 171.721,622.61 			"/>
			<polygon fill="#D6B663" points="171.721,622.587 171.844,651.058 200.27,651.317 			"/>
			<polygon fill="#C1AF5B" points="143.371,651.227 143.541,622.419 114.731,622.587 			"/>
			<polygon fill="#D1AA50" points="171.86,622.59 143.406,622.419 143.219,651.227 			"/>
			<polygon fill="#D6B663" points="200.235,651.337 228.998,651.15 228.877,622.7 			"/>
			<polygon fill="#D1AA50" points="114.958,622.766 115.078,651.24 143.508,651.499 			"/>
			<polygon fill="#E7D27C" points="86.797,651.251 86.967,622.441 58.157,622.61 			"/>
			<polygon fill="#D9C068" points="115.286,622.612 86.836,622.441 86.643,651.251 			"/>
			<polygon fill="#EFE284" points="29.497,651.181 58.261,650.992 58.141,622.54 			"/>
			<polygon fill="#E8D772" points="58.141,622.519 58.261,650.992 86.689,651.251 			"/>
			<polygon fill="#DFDA85" points="29.792,651.16 29.963,622.351 1.152,622.522 			"/>
			<polygon fill="#E8D772" points="58.28,622.522 29.829,622.351 29.636,651.16 			"/>
			<polygon fill="#D9C068" points="86.655,651.269 115.42,651.084 115.297,622.633 			"/>
			<polygon fill="#E7D27C" points="1.379,622.7 1.5,651.172 29.926,651.431 			"/>
		</g>
		<g>
			<polygon fill="#DAC052" points="200.862,596.574 201.033,567.764 172.223,567.936 			"/>
			<polygon fill="#C1AF5B" points="229.352,567.936 200.901,567.764 200.709,596.574 			"/>
			<polygon fill="#DAC052" points="143.567,596.507 172.33,596.316 172.207,567.867 			"/>
			<polygon fill="#D6B663" points="172.207,567.845 172.33,596.316 200.756,596.574 			"/>
			<polygon fill="#D9C068" points="143.858,596.485 144.028,567.677 115.218,567.845 			"/>
			<polygon fill="#D9C068" points="172.346,567.848 143.893,567.677 143.705,596.485 			"/>
			<polygon fill="#D6B663" points="200.721,596.595 229.485,596.407 229.364,567.958 			"/>
			<polygon fill="#D7BC6F" points="115.444,568.024 115.564,596.498 143.994,596.757 			"/>
			<polygon fill="#DFDA85" points="87.283,596.509 87.453,567.698 58.643,567.867 			"/>
			<polygon fill="#EFE284" points="115.772,567.869 87.322,567.698 87.13,596.509 			"/>
			<polygon fill="#DFDA85" points="29.983,596.439 58.748,596.25 58.628,567.798 			"/>
			<polygon fill="#E7D27C" points="58.628,567.777 58.748,596.25 87.176,596.509 			"/>
			<polygon fill="#ECEFB4" points="30.278,596.418 30.449,567.609 1.638,567.78 			"/>
			<polygon fill="#E3EBA3" points="58.766,567.78 30.315,567.609 30.123,596.418 			"/>
			<polygon fill="#E8D772" points="87.141,596.527 115.906,596.342 115.783,567.891 			"/>
			<polygon fill="#E4EDB8" points="1.865,567.958 1.986,596.43 30.412,596.689 			"/>
		</g>
	</g>
	<g>
		<g>
			<polygon fill="#C1AF5B" points="256.842,595.076 228.391,594.906 228.199,623.715 			"/>
			<polygon fill="#D0B25A" points="285.508,623.804 285.678,594.997 256.869,595.164 			"/>
			<g>
				<polygon fill="#D0B25A" points="228.166,623.736 256.93,623.547 256.809,595.099 				"/>
				<polygon fill="#D1AA50" points="256.809,595.074 256.93,623.547 285.356,623.804 				"/>
			</g>
			<polygon fill="#DAC052" points="256.799,651.468 256.971,622.657 228.16,622.829 			"/>
			<polygon fill="#C1AF5B" points="285.287,622.829 256.836,622.657 256.645,651.468 			"/>
			<polygon fill="#D6B663" points="228.143,622.739 228.266,651.209 256.694,651.468 			"/>
			<polygon fill="#D6B663" points="256.658,651.489 285.42,651.301 285.301,622.852 			"/>
		</g>
		<g>
			<polygon fill="#DAC052" points="257.285,596.726 257.457,567.915 228.647,568.087 			"/>
			<polygon fill="#C1AF5B" points="285.774,568.087 257.323,567.915 257.131,596.726 			"/>
			<polygon fill="#D6B663" points="228.629,567.996 228.752,596.467 257.18,596.726 			"/>
			<polygon fill="#D6B663" points="257.145,596.746 285.906,596.559 285.787,568.11 			"/>
		</g>
	</g>
</g>
</svg>
