<?xml version="1.0" encoding="utf-8"?>
<!-- Generator: Adobe Illustrator 15.0.0, SVG Export Plug-In . SVG Version: 6.00 Build 0)  -->
<!DOCTYPE svg PUBLIC "-//W3C//DTD SVG 1.1//EN" "http://www.w3.org/Graphics/SVG/1.1/DTD/svg11.dtd">
<svg version="1.1" id="Layer_1" xmlns="http://www.w3.org/2000/svg" xmlns:xlink="http://www.w3.org/1999/xlink" x="0px" y="0px"
	 width="279.08px" height="89.684px" viewBox="0 0 279.08 89.684" enable-background="new 0 0 279.08 89.684" xml:space="preserve">
<g>
	<rect fill="#A91F3D" width="279.08" height="89.684"/>
	<g opacity="0.35">
		<polyline fill="#9F4F5B" points="5.23,1.131 5.426,34.986 39.087,1.33 		"/>
		<polyline fill="#A63637" points="39.176,0.003 38.976,33.858 72.83,33.662 39.176,0.003 		"/>
		<polygon opacity="0.91" fill="#D9D378" points="39.199,67.239 39.4,33.804 5.543,33.581 		"/>
		<polygon opacity="0.91" fill="#E2DD9C" points="72.857,33.662 39.002,33.779 39.094,67.212 		"/>
		<polygon opacity="0.91" fill="#E2DD9C" points="39.199,67.257 5.344,67.137 5.437,33.706 		"/>
		<polyline fill="#C6C273" points="107.404,0.374 73.75,34.03 73.551,0.176 		"/>
		<g>
			<g>
				<polygon fill="#F1C048" points="106.833,67.118 72.98,67.318 73.182,33.46 				"/>
			</g>
		</g>
		<polygon fill="#F1C048" points="73.504,33.911 39.646,33.712 39.848,67.567 		"/>
		<polygon fill="#A33838" points="39.871,67.667 40.07,32.312 4.716,32.508 		"/>
		<line fill="#7B3132" x1="73.504" y1="34.091" x2="39.848" y2="0.434"/>
		<path fill="#7B3132" d="M39.848,0.434"/>
		<polyline fill="#FCE953" points="73.307,0.458 73.504,34.313 107.161,0.656 		"/>
		<polyline fill="#9F4F5B" points="39.871,0.753 73.531,34.412 73.727,0.557 		"/>
		<path fill="#EDAC31" d="M5.555,34.049"/>
		<polygon fill="#7B3132" points="40.895,68.144 4.539,67.347 4.738,31.989 		"/>
		<polyline fill="#7B3132" points="107.521,-0.114 73.131,33.545 72.93,0.112 		"/>
		<polygon fill="#9F4F5B" points="75.599,33.346 39.743,33.144 39.942,68.001 		"/>
		<polyline fill="#7B3132" points="41.158,-0.48 6.16,33.913 40.44,33.205 41.158,-0.48 		"/>
		<line fill="#D89328" x1="5.426" y1="34.986" x2="5.813" y2="-0.226"/>
		<g>
			<polygon fill="#C57429" points="106.897,67.368 73.043,67.251 73.137,33.82 			"/>
		</g>
		<path fill="#B5B046" d="M107.876,1.213"/>
		<line fill="#B5B046" x1="107.876" y1="1.213" x2="107.68" y2="35.071"/>
		<polyline fill="#A29433" points="141.649,1.233 141.447,35.089 107.791,1.435 		"/>
		<g>
			<polygon fill="#A63637" points="140.34,32.355 140.539,67.711 105.181,67.512 			"/>
		</g>
		<polyline fill="#A63637" points="140.316,0.054 140.22,33.485 106.458,-0.064 		"/>
		<polyline fill="#842025" points="106.883,-0.171 140.539,33.485 106.681,33.686 106.883,-0.171 		"/>
		<polyline fill="#A63637" points="106.906,-0.27 107.108,33.583 73.253,33.387 106.906,-0.27 		"/>
		<polygon fill="#9A2A29" points="106.883,66.964 106.681,33.53 140.539,33.305 		"/>
		<g>
			<polygon fill="#A63637" points="73.26,33.27 71.06,67.703 107.915,67.931 			"/>
		</g>
		<line fill="#CEC97B" x1="273.585" y1="34.532" x2="239.923" y2="0.876"/>
		<path fill="#CEC97B" d="M273.781,0.677"/>
		<polyline fill="#C6C489" points="240.603,0.63 274.256,34.284 240.4,34.485 240.603,0.63 		"/>
		<polyline fill="#C6C489" points="240.623,0.527 240.822,34.383 206.97,34.187 240.623,0.527 		"/>
		<polygon opacity="0.91" fill="#E2DD9C" points="206.943,34.187 240.799,34.304 240.705,67.737 		"/>
		<polygon fill="#C6C47F" points="172.569,68.091 172.367,34.231 206.226,34.431 		"/>
		<polyline fill="#CEC97B" points="172.487,0.88 206.252,34.431 172.394,34.313 172.487,0.88 		"/>
		<polyline fill="#C6C273" points="205.827,0.601 206.029,34.456 239.683,0.8 		"/>
		<polyline fill="#C6C273" points="172.394,0.899 206.05,34.554 206.252,0.7 		"/>
		<polyline fill="#7B3132" points="273.767,0.003 273.562,35.358 238.405,0.202 		"/>
		<polyline fill="#F1C048" points="172.965,0.724 206.618,34.38 172.763,34.581 172.965,0.724 		"/>
		<polygon fill="#EDAC31" points="172.965,67.857 172.763,34.424 206.618,34.2 		"/>
		<polygon fill="#7B3132" points="239.932,68.191 239.729,34.336 273.585,34.532 		"/>
		<polyline fill="#9A2A29" points="239.952,0.958 241.892,34.746 206.296,34.616 239.952,0.958 		"/>
		<polyline fill="#9F4F5B" points="239.85,0.983 273.611,34.532 240.4,34.485 239.85,0.983 		"/>
		<polyline fill="#FCE953" points="206.495,0.981 206.296,34.839 172.637,1.181 		"/>
		<polyline fill="#7B3132" points="241.183,0.311 206.023,35.47 205.827,0.114 		"/>
		<polyline fill="#9F4F5B" points="171.33,-0.173 207.222,34.986 207.424,0.054 		"/>
		<polygon fill="#842025" points="206.202,33.87 240.058,33.668 239.858,67.524 		"/>
		<polyline fill="#B66C29" points="172.9,0.741 207.295,34.397 172.701,34.599 172.9,0.741 		"/>
		<polygon fill="#C57429" points="172.903,67.875 172.701,34.444 207.295,34.219 		"/>
		<g>
			<polygon fill="#C57429" points="172.9,67.893 206.756,67.775 206.665,34.345 			"/>
		</g>
		<line fill="#615A26" x1="171.898" y1="102.323" x2="205.754" y2="102.522"/>
		<polyline fill="#AAA134" points="171.896,1.84 205.552,35.495 171.699,35.698 171.896,1.84 		"/>
		<polygon fill="#998A31" points="171.898,68.974 171.699,35.543 205.552,35.314 		"/>
		<g>
			<polygon fill="#AE3434" points="140.22,33.485 139.259,68.235 173.117,68.036 			"/>
		</g>
		<polyline fill="#9F4F5B" points="139.484,0 139.578,33.431 173.343,-0.117 		"/>
		<polyline fill="#842025" points="172.918,0.352 139.259,34.009 173.117,34.21 172.918,0.352 		"/>
		<polyline fill="#9A2A29" points="172.895,0.253 172.689,34.107 206.545,33.911 172.895,0.253 		"/>
		<polygon fill="#A33838" points="172.915,67.487 173.117,34.055 139.259,33.829 		"/>
		<polygon fill="#AE3434" points="206.571,33.911 172.716,34.028 172.813,67.462 		"/>
		<g>
			<polygon fill="#A33838" points="206.539,33.794 208.241,68.728 169.883,68.954 			"/>
			<polygon fill="#A63637" points="241.892,67.882 206.943,67.976 206.454,32.665 			"/>
		</g>
	</g>
	<rect x="21.202" y="38.398" fill="none" width="236.155" height="41.672"/>
	<text transform="matrix(1 0 0 1 70.0527 57.5684)" fill="#FFFFFF" font-family="'MyriadPro-Bold'" font-size="27">ASTD Week</text>
</g>
</svg>
