<?xml version="1.0" encoding="utf-8"?>
<!-- Generator: Adobe Illustrator 15.0.0, SVG Export Plug-In . SVG Version: 6.00 Build 0)  -->
<!DOCTYPE svg PUBLIC "-//W3C//DTD SVG 1.1//EN" "http://www.w3.org/Graphics/SVG/1.1/DTD/svg11.dtd">
<svg version="1.1" id="Layer_1" xmlns="http://www.w3.org/2000/svg" xmlns:xlink="http://www.w3.org/1999/xlink" x="0px" y="0px"
	 width="290.827px" height="248.287px" viewBox="0 0 290.827 248.287" enable-background="new 0 0 290.827 248.287"
	 xml:space="preserve">
<rect x="-0.094" fill="#E1B530" width="291.014" height="247.591"/>
<g opacity="0.28">
	<polyline fill="#CEC97B" points="6.582,3.604 6.786,38.813 41.795,3.811 	"/>
	<g>
		<polygon fill="#C6C489" points="111.688,72.472 76.475,72.679 76.682,37.47 		"/>
		<polygon opacity="0.91" fill="#D9D378" points="76.709,37.366 76.916,72.575 41.707,72.368 		"/>
		<polygon opacity="0.91" fill="#E2DD9C" points="76.682,107.288 76.475,72.521 111.688,72.286 		"/>
		<polygon opacity="0.91" fill="#D3D063" points="41.68,72.368 76.887,72.49 76.791,107.261 		"/>
	</g>
	<polygon opacity="0.91" fill="#E2DD9C" points="41.68,72.325 41.469,107.097 76.682,107.328 	"/>
	<polygon opacity="0.91" fill="#D9D378" points="6.674,107.246 41.881,107.124 41.787,72.356 	"/>
	<polyline fill="#C6C489" points="41.911,2.537 6.908,37.536 42.121,37.747 41.911,2.537 	"/>
	<polyline fill="#C6C489" points="41.887,2.431 41.68,37.64 76.887,37.437 41.887,2.431 	"/>
	<polygon opacity="0.91" fill="#D9D378" points="41.911,72.354 42.121,37.582 6.908,37.351 	"/>
	<polygon opacity="0.91" fill="#E2DD9C" points="76.916,37.437 41.707,37.558 41.801,72.325 	"/>
	<polygon opacity="0.91" fill="#D3D063" points="6.881,107.377 6.674,72.167 41.884,72.374 	"/>
	<polygon opacity="0.91" fill="#E2DD9C" points="41.911,72.374 6.702,72.249 6.799,37.481 	"/>
	<polygon fill="#C6C47F" points="112.665,72.694 112.876,37.481 77.661,37.688 	"/>
	<polyline fill="#CEC97B" points="112.751,2.799 77.636,37.688 112.845,37.567 112.751,2.799 	"/>
	<polyline fill="#C6C273" points="78.077,2.505 77.868,37.714 42.864,2.712 	"/>
	<polyline fill="#C6C273" points="112.845,2.814 77.844,37.817 77.636,2.61 	"/>
	<g>
		<g>
			<polygon opacity="0.91" fill="#D9D378" points="77.358,106.95 112.564,107.157 112.36,71.948 			"/>
		</g>
	</g>
	<polyline fill="#DD9B2D" points="7.094,2.808 7.305,38.019 42.31,3.016 	"/>
	<polyline fill="#F1C048" points="112.251,2.632 77.252,37.638 112.461,37.845 112.251,2.632 	"/>
	<polygon fill="#EDAC31" points="112.251,72.454 112.461,37.683 77.252,37.45 	"/>
	<g>
		<g>
			<polygon fill="#F1C048" points="7.479,107.163 42.69,107.374 42.478,72.16 			"/>
			<polygon fill="#FCE953" points="42.453,72.058 42.246,107.267 77.459,107.06 			"/>
		</g>
		<g>
			<polygon fill="#F1C048" points="112.251,72.228 77.044,72.438 77.252,37.226 			"/>
			<polygon fill="#FCE953" points="77.276,37.123 77.483,72.332 42.273,72.124 			"/>
			<polygon fill="#EDAC31" points="77.252,107.045 77.044,72.276 112.251,72.042 			"/>
			<polygon fill="#F2C425" points="42.246,72.124 77.459,72.247 77.361,107.018 			"/>
		</g>
		<g>
			<polygon fill="#F2C425" points="77.252,107.065 112.461,106.943 112.36,72.171 			"/>
		</g>
	</g>
	<polygon fill="#F1C048" points="77.587,37.694 42.377,37.487 42.584,72.697 	"/>
	<polygon fill="#E8B433" points="42.608,72.8 42.815,37.591 7.609,37.796 	"/>
	<polyline fill="#DD9B2D" points="42.584,2.878 40.57,38.019 77.587,37.881 42.584,2.878 	"/>
	<polyline fill="#EAD764" points="42.694,2.905 7.579,37.796 42.121,37.747 42.694,2.905 	"/>
	<polyline fill="#FCE953" points="77.383,2.903 77.587,38.112 112.592,3.11 	"/>
	<polyline fill="#DD9B2D" points="42.608,3.21 77.618,38.216 77.818,3.007 	"/>
	<g>
		<polygon fill="#F1C048" points="42.804,73.785 7.594,73.578 7.798,108.788 		"/>
		<polygon fill="#FCE953" points="7.798,38.969 7.594,73.739 42.804,73.972 		"/>
	</g>
	<path fill="#EDAC31" d="M6.921,37.836"/>
	<polygon fill="#E2AA43" points="42.633,72.256 7.424,72.466 7.631,37.257 	"/>
	<polygon fill="#E8B433" points="6.332,107.901 7.424,72.308 42.633,72.069 	"/>
	<polyline fill="#E0933F" points="112.967,2.309 77.2,37.313 76.989,2.543 	"/>
	<polygon fill="#DD9B2D" points="77.688,37.104 42.478,36.896 42.685,72.106 	"/>
	<polyline fill="#E0933F" points="42.864,2.712 6.467,38.481 42.121,37.747 42.864,2.712 	"/>
	<line fill="#D89328" x1="6.786" y1="38.813" x2="7.188" y2="2.192"/>
	<g>
		<g>
			<polygon fill="#DD9B2D" points="6.332,107.901 42.31,108.109 42.103,72.136 			"/>
			<polygon fill="#B66C29" points="42.078,72.033 41.871,108.006 77.846,107.8 			"/>
		</g>
	</g>
	<polygon fill="#C57429" points="77.081,107.364 112.292,107.243 112.193,72.472 	"/>
	<polyline fill="#B66C29" points="112.318,2.651 76.548,37.655 112.528,37.864 112.318,2.651 	"/>
	<polygon fill="#C57429" points="112.318,72.472 112.528,37.702 76.548,37.47 	"/>
	<g>
		<polygon fill="#C57429" points="42.31,72.387 77.52,72.18 77.313,107.39 		"/>
		<polygon fill="#B66C29" points="77.288,107.493 77.081,72.284 112.292,72.49 		"/>
		<polygon fill="#B66C29" points="77.313,36.806 77.52,72.341 41.545,72.575 		"/>
		<polygon fill="#C57429" points="112.318,72.49 77.108,72.368 77.206,37.601 		"/>
	</g>
	<polygon fill="#F1C048" points="40.57,72.479 75.78,72.274 75.577,107.481 	"/>
	<polygon fill="#F6DF6E" points="75.577,37.665 75.78,72.436 40.57,72.667 	"/>
	<g>
		<polygon fill="#F4E768" points="40.454,142.093 40.244,107.321 75.46,107.087 		"/>
		<polygon fill="#F8EFA9" points="5.449,107.173 40.662,107.295 40.562,142.063 		"/>
	</g>
	<polygon fill="#F6DF6E" points="5.449,107.13 5.245,141.899 40.454,142.133 	"/>
	<g>
		<polygon fill="#B5B046" points="111.968,142.892 76.755,143.1 76.965,107.889 		"/>
		<polygon fill="#B5B046" points="76.989,107.785 77.2,142.998 41.987,142.788 		"/>
	</g>
	<g>
		<polygon fill="#89411E" points="7.194,107.956 42.401,108.166 42.194,72.953 		"/>
		<polygon fill="#753417" points="42.17,72.85 41.96,108.06 77.169,107.855 		"/>
		<polygon fill="#B66C29" points="42.194,142.772 42.401,108.003 7.194,107.769 		"/>
		<polygon fill="#7A401B" points="77.2,107.855 41.99,107.978 42.085,142.748 		"/>
	</g>
	<g>
		<polygon fill="#AAA134" points="148.158,38.621 148.37,73.834 113.159,73.63 		"/>
		<polygon fill="#A29433" points="113.132,73.63 148.341,73.749 148.24,108.521 		"/>
	</g>
	<line fill="#84762F" x1="148.137" y1="108.403" x2="112.921" y2="108.193"/>
	<polygon fill="#84762F" points="113.132,73.586 112.921,108.354 148.137,108.59 	"/>
	<polygon fill="#676E2F" points="78.126,108.505 113.336,108.382 113.244,73.614 	"/>
	<polyline fill="#AAA134" points="113.366,3.796 78.363,38.795 113.57,39.006 113.366,3.796 	"/>
	<polyline fill="#B5B046" points="113.336,3.688 113.132,38.9 148.341,38.694 113.336,3.688 	"/>
	<polygon fill="#998A31" points="113.363,73.614 113.57,38.844 78.363,38.608 	"/>
	<polygon fill="#AAA134" points="148.37,38.694 113.159,38.816 113.254,73.586 	"/>
	<g>
		<polygon fill="#6C6529" points="43.355,73.529 78.571,73.322 78.361,108.534 		"/>
		<polygon fill="#84762F" points="78.333,108.636 78.126,73.424 113.336,73.633 		"/>
		<polygon fill="#6E682B" points="78.361,38.712 78.571,73.483 43.355,73.715 		"/>
		<polygon fill="#8C8B34" points="113.366,73.633 78.153,73.508 78.251,38.74 		"/>
	</g>
	<polyline fill="#A29433" points="148.46,3.71 148.25,38.92 113.247,3.917 	"/>
	<g>
		<g>
			<polygon fill="#77702D" points="113.037,141.734 148.25,141.944 148.044,106.731 			"/>
		</g>
	</g>
	<g>
		<polygon fill="#E8B433" points="147.098,37.638 147.307,72.847 112.093,72.64 		"/>
		<polygon fill="#F1C048" points="112.068,72.64 147.281,72.759 147.184,107.532 		"/>
	</g>
	<polyline fill="#DD9B2D" points="147.074,2.482 146.974,37.25 111.861,2.36 	"/>
	<polyline fill="#E2AA43" points="112.303,2.247 147.307,37.25 112.093,37.46 112.303,2.247 	"/>
	<polyline fill="#E0933F" points="112.327,2.146 112.537,37.354 77.328,37.149 112.327,2.146 	"/>
	<polygon fill="#EDAC31" points="112.303,72.069 112.093,37.298 147.307,37.064 	"/>
	<polygon fill="#D88735" points="77.301,37.149 112.51,37.27 112.412,72.039 	"/>
	<g>
		<polygon fill="#DD9B2D" points="147.102,107.22 111.892,107.015 112.093,142.222 		"/>
		<polygon fill="#E2AA43" points="112.123,142.327 112.33,107.118 77.12,107.323 		"/>
		<polygon fill="#E2AA43" points="112.093,72.405 111.892,107.173 147.102,107.408 		"/>
		<polygon fill="#E5A232" points="77.09,107.323 112.303,107.201 112.206,72.433 		"/>
	</g>
	<g>
		<polygon fill="#E1B530" points="111.688,142.679 146.9,142.886 146.693,107.675 		"/>
	</g>
	<g>
		<polygon fill="#E2AA43" points="112.336,71.845 77.127,71.638 76.237,108.505 		"/>
		<polygon fill="#E2AA43" points="76.709,107.374 76.92,72.161 41.707,72.368 		"/>
		<polygon fill="#E2AA43" points="77.334,37.028 77.127,71.799 112.336,72.033 		"/>
		<polygon fill="#D89328" points="40.57,72.479 76.916,72.575 77.425,35.852 		"/>
	</g>
	<g>
		<polygon fill="#E5A232" points="76.603,107.481 41.393,107.69 41.597,72.481 		"/>
		<polygon fill="#E2AA43" points="42.685,142.057 42.478,107.286 77.688,107.051 		"/>
	</g>
	<g>
		<polygon fill="#E5A232" points="77.483,107.364 77.272,142.133 112.482,142.37 		"/>
		<polygon fill="#E1B530" points="42.478,142.285 77.685,142.163 77.59,107.394 		"/>
	</g>
	<polyline fill="#E8B433" points="42.69,142.082 6.089,107.39 42.69,107.374 	"/>
	<polyline fill="#E2AA43" points="42.407,107.481 6.332,107.901 41.911,72.354 	"/>
	<polyline fill="#E1B530" points="43.185,142.13 6.622,107.122 6.412,142.334 	"/>
	<line fill="#CEC97B" x1="285.673" y1="38.341" x2="250.664" y2="3.339"/>
	<path fill="#CEC97B" d="M285.877,3.132"/>
	<g>
		<polygon fill="#C6C489" points="181.595,73.015 216.805,73.225 216.598,38.015 		"/>
		<polygon opacity="0.91" fill="#D9D378" points="216.573,37.911 216.366,73.121 251.575,72.913 		"/>
		<polygon opacity="0.91" fill="#E2DD9C" points="216.598,107.834 216.805,73.065 181.595,72.831 		"/>
		<polygon opacity="0.91" fill="#D3D063" points="251.6,72.913 216.394,73.036 216.487,107.807 		"/>
	</g>
	<polygon opacity="0.91" fill="#E2DD9C" points="251.6,72.873 251.813,107.642 216.598,107.876 	"/>
	<polyline fill="#C6C489" points="251.371,3.083 286.371,38.082 251.161,38.292 251.371,3.083 	"/>
	<polyline fill="#C6C489" points="251.393,2.976 251.6,38.186 216.394,37.981 251.393,2.976 	"/>
	<polygon opacity="0.91" fill="#D9D378" points="251.371,72.901 251.161,38.128 286.371,37.897 	"/>
	<polygon opacity="0.91" fill="#E2DD9C" points="216.366,37.981 251.575,38.103 251.479,72.873 	"/>
	<polyline fill="#E2AA43" points="285.648,72.161 250.439,72.368 285.438,107.371 	"/>
	<polygon fill="#C6C47F" points="180.618,73.239 180.406,38.026 215.62,38.234 	"/>
	<polyline fill="#CEC97B" points="180.531,3.341 215.646,38.234 180.434,38.112 180.531,3.341 	"/>
	<polyline fill="#C6C273" points="215.205,3.051 215.415,38.262 250.415,3.259 	"/>
	<polyline fill="#C6C273" points="180.434,3.362 215.437,38.362 215.646,3.155 	"/>
	<g>
		<g>
			<polygon opacity="0.91" fill="#D9D378" points="215.924,107.495 180.714,107.705 180.922,72.493 			"/>
		</g>
	</g>
	<polyline fill="#DD9B2D" points="285.862,2.431 285.648,37.64 249.086,2.638 	"/>
	<polyline fill="#F1C048" points="181.028,3.179 216.027,38.183 180.818,38.39 181.028,3.179 	"/>
	<polygon fill="#EDAC31" points="181.028,72.999 180.818,38.228 216.027,37.993 	"/>
	<g>
		<g>
			<polygon fill="#F1C048" points="285.804,107.709 250.592,107.919 250.805,72.704 			"/>
			<polygon fill="#FCE953" points="250.827,72.603 251.034,107.811 215.827,107.605 			"/>
		</g>
		<g>
			<polygon fill="#F1C048" points="181.028,72.773 216.238,72.983 216.027,37.771 			"/>
			<polygon fill="#FCE953" points="216.003,37.667 215.796,72.88 251.006,72.67 			"/>
			<polygon fill="#EDAC31" points="216.027,107.591 216.238,72.819 181.028,72.588 			"/>
			<polygon fill="#F2C425" points="251.034,72.67 215.827,72.792 215.921,107.563 			"/>
		</g>
		<g>
			<polygon fill="#F2C425" points="216.027,107.608 180.818,107.487 180.922,72.716 			"/>
		</g>
	</g>
	<polygon fill="#F1C048" points="215.692,38.237 250.902,38.033 250.695,73.243 	"/>
	<polygon fill="#E8B433" points="250.674,73.347 250.463,38.137 285.673,38.341 	"/>
	<polyline fill="#DD9B2D" points="250.695,3.424 252.712,38.563 215.692,38.427 250.695,3.424 	"/>
	<polyline fill="#EAD764" points="250.588,3.448 285.7,38.341 251.161,38.292 250.588,3.448 	"/>
	<polyline fill="#FCE953" points="215.899,3.448 215.692,38.657 180.687,3.654 	"/>
	<polyline fill="#DD9B2D" points="251.975,2.751 216.969,37.756 215.205,2.545 	"/>
	<path fill="#EDAC31" d="M286.361,38.384"/>
	<polygon fill="#E2AA43" points="250.649,72.801 285.859,73.011 285.651,37.802 	"/>
	<polyline fill="#E0933F" points="179.329,2.247 216.655,38.812 216.865,2.482 	"/>
	<polygon fill="#DD9B2D" points="215.595,37.651 250.805,37.44 250.598,72.651 	"/>
	<polyline fill="#E0933F" points="250.415,3.259 285.673,38.341 251.161,38.292 250.415,3.259 	"/>
	<g>
		<g>
			<polygon fill="#DD9B2D" points="285.438,107.371 250.969,108.655 251.177,72.679 			"/>
			<polygon fill="#B66C29" points="251.204,72.577 251.411,108.552 215.434,108.346 			"/>
		</g>
	</g>
	<polygon fill="#C57429" points="216.202,107.908 180.991,107.788 181.086,73.015 	"/>
	<polyline fill="#B66C29" points="180.961,3.197 216.731,38.2 180.754,38.407 180.961,3.197 	"/>
	<polygon fill="#C57429" points="180.964,73.015 180.754,38.249 216.731,38.015 	"/>
	<g>
		<polygon fill="#C57429" points="250.969,72.933 215.76,72.725 215.97,107.935 		"/>
		<polygon fill="#B66C29" points="215.994,108.04 216.202,72.831 180.988,73.036 		"/>
		<polygon fill="#B66C29" points="215.97,37.351 215.76,72.886 251.737,73.119 		"/>
		<polygon fill="#C57429" points="180.961,73.036 216.171,72.913 216.077,38.146 		"/>
	</g>
	<polygon fill="#F1C048" points="252.712,73.023 217.499,72.816 217.703,108.028 	"/>
	<polygon fill="#F6DF6E" points="217.706,38.21 217.499,72.981 252.712,73.212 	"/>
	<g>
		<polygon fill="#EAD764" points="217.822,107.821 253.036,108.028 252.824,72.816 		"/>
		<polygon fill="#F4E768" points="252.824,142.639 253.036,107.868 217.822,107.633 		"/>
		<polygon fill="#F8EFA9" points="285.222,109.181 252.62,107.84 252.718,142.61 		"/>
	</g>
	<g>
		<polygon fill="#753417" points="251.109,73.396 251.319,108.604 216.109,108.401 		"/>
		<polygon fill="#7A401B" points="216.082,108.401 251.292,108.522 251.197,143.294 		"/>
	</g>
	<polygon fill="#E1B530" points="249.87,142.86 285.079,142.735 284.981,107.968 	"/>
	<line fill="#84762F" x1="145.146" y1="108.948" x2="180.357" y2="108.741"/>
	<line fill="#615A26" x1="179.919" y1="108.843" x2="215.129" y2="109.05"/>
	<polygon fill="#84762F" points="180.151,74.13 180.357,108.9 145.146,109.135 	"/>
	<polygon fill="#676E2F" points="215.156,109.05 179.946,108.926 180.038,74.159 	"/>
	<polyline fill="#AAA134" points="179.916,4.339 214.919,39.341 179.712,39.553 179.916,4.339 	"/>
	<polyline fill="#B5B046" points="179.943,4.234 180.151,39.444 144.941,39.241 179.943,4.234 	"/>
	<polygon fill="#998A31" points="179.919,74.159 179.712,39.39 214.919,39.154 	"/>
	<g>
		<polygon fill="#6C6529" points="249.924,74.075 214.715,73.867 214.922,109.078 		"/>
		<polygon fill="#84762F" points="214.947,109.181 215.153,73.97 179.946,74.179 		"/>
		<polygon fill="#6E682B" points="214.922,39.258 214.715,74.028 249.924,74.261 		"/>
		<polygon fill="#8C8B34" points="179.916,74.179 215.129,74.054 215.031,39.285 		"/>
	</g>
	<g>
		<polygon fill="#E8B433" points="146.974,37.25 145.974,73.392 181.187,73.185 		"/>
		<polygon fill="#F1C048" points="181.214,73.185 146.001,73.304 146.096,108.077 		"/>
	</g>
	<polyline fill="#DD9B2D" points="146.208,2.427 146.307,37.195 181.421,2.304 	"/>
	<polyline fill="#E2AA43" points="180.979,2.793 145.974,37.796 181.187,38.005 180.979,2.793 	"/>
	<polyline fill="#E0933F" points="180.955,2.689 180.743,37.899 215.952,37.694 180.955,2.689 	"/>
	<polygon fill="#EDAC31" points="180.977,72.612 181.187,37.843 145.974,37.609 	"/>
	<polygon fill="#D88735" points="215.979,37.694 180.77,37.815 180.87,72.587 	"/>
	<g>
		<polygon fill="#DD9B2D" points="146.181,107.767 181.391,107.56 181.187,142.769 		"/>
		<polygon fill="#E2AA43" points="181.159,142.873 180.952,107.663 216.162,107.87 		"/>
		<polygon fill="#E2AA43" points="181.187,72.948 181.391,107.718 146.181,107.952 		"/>
		<polygon fill="#E5A232" points="216.189,107.87 180.979,107.745 181.074,72.978 		"/>
	</g>
	<g>
		<polygon fill="#E1B530" points="180.979,142.641 145.77,142.846 145.974,107.634 		"/>
	</g>
	<g>
		<polygon fill="#E2AA43" points="180.942,72.39 216.155,72.183 217.045,109.05 		"/>
		<polygon fill="#E2AA43" points="216.573,107.919 216.362,72.706 251.575,72.913 		"/>
		<polygon fill="#E2AA43" points="215.946,37.573 216.155,72.344 180.942,72.579 		"/>
		<polygon fill="#D89328" points="252.712,73.023 216.366,73.121 215.857,36.397 		"/>
	</g>
	<g>
		<polygon fill="#E5A232" points="216.68,108.026 251.89,108.236 251.686,73.026 		"/>
		<polygon fill="#E2AA43" points="252.154,144.159 250.805,107.831 215.592,107.597 		"/>
	</g>
	<g>
		<polygon fill="#E5A232" points="215.799,107.91 216.01,142.679 180.8,142.915 		"/>
		<polygon fill="#E1B530" points="250.805,142.831 215.599,142.708 215.689,107.938 		"/>
	</g>
	<polyline fill="#E8B433" points="251.089,143.317 285.438,107.371 249.787,107.835 	"/>
	<polyline fill="#E2AA43" points="250.875,108.028 285.804,107.709 251.944,73.44 	"/>
</g>
<radialGradient id="SVGID_1_" cx="-262.645" cy="-309.2354" r="203.5296" gradientTransform="matrix(0.7071 -0.7071 0.7071 0.7071 383.5776 302.4694)" gradientUnits="userSpaceOnUse">
	<stop  offset="0" style="stop-color:#DDA62A"/>
	<stop  offset="0.5091" style="stop-color:#EBB122"/>
	<stop  offset="1" style="stop-color:#DDA627"/>
</radialGradient>
<polygon fill="url(#SVGID_1_)" points="0.547,16.636 -0.014,247.524 232.746,247.524 "/>
<rect x="22.387" y="26.203" fill="none" width="240.246" height="181.505"/>
<text transform="matrix(1 0 0 1 22.3867 46.1421)"><tspan x="0" y="0" fill="#FFFFFF" font-family="'MyriadPro-Bold'" font-size="28.08">Conferences</tspan><tspan x="0" y="29.64" fill="#FFFFFF" font-family="'MyriadPro-Regular'" font-size="12.636">ASTD is committed to building skills and </tspan><tspan x="0" y="44.803" fill="#FFFFFF" font-family="'MyriadPro-Regular'" font-size="12.636">talent throughout Africa. This is an oppor-</tspan><tspan x="0" y="59.966" fill="#FFFFFF" font-family="'MyriadPro-Regular'" font-size="12.636">tunity for members to participate in the </tspan><tspan x="0" y="75.13" fill="#FFFFFF" font-family="'MyriadPro-Regular'" font-size="12.636">process and to benefit from the opportunity </tspan><tspan x="0" y="90.293" fill="#FFFFFF" font-family="'MyriadPro-Regular'" font-size="12.636">to network with high-level strategic thinkers </tspan><tspan x="0" y="105.456" fill="#FFFFFF" font-family="'MyriadPro-Regular'" font-size="12.636">in the field throughout the continent. It also </tspan><tspan x="0" y="120.619" fill="#FFFFFF" font-family="'MyriadPro-Regular'" font-size="12.636">provides access to top international speakers </tspan><tspan x="0" y="135.782" fill="#FFFFFF" font-family="'MyriadPro-Regular'" font-size="12.636">and thought leaders in the field.</tspan></text>
<line fill="none" stroke="#FFFFFF" stroke-width="0.5" x1="261.292" y1="57.612" x2="21.765" y2="57.612"/>
</svg>
