<?xml version="1.0" encoding="utf-8"?>
<!-- Generator: Adobe Illustrator 15.0.0, SVG Export Plug-In . SVG Version: 6.00 Build 0)  -->
<!DOCTYPE svg PUBLIC "-//W3C//DTD SVG 1.1//EN" "http://www.w3.org/Graphics/SVG/1.1/DTD/svg11.dtd">
<svg version="1.1" id="Layer_1" xmlns="http://www.w3.org/2000/svg" xmlns:xlink="http://www.w3.org/1999/xlink" x="0px" y="0px"
	 width="279.163px" height="175.623px" viewBox="0 0 279.163 175.623" enable-background="new 0 0 279.163 175.623"
	 xml:space="preserve">
<rect fill="#1A1616" width="279.163" height="175.623"/>
<g>
	<rect x="18.994" y="75.313" fill="#F1C536" width="154.631" height="60.246"/>
	<g>
		<g>
			<path fill="#1A1616" d="M149.106,90.509c-3.642,0-8.024-0.569-8.024,0.192c0,1.587-0.034,3.956-0.105,7.113
				c-0.076,3.157-0.11,5.529-0.11,7.111c0,1.565,0.034,3.911,0.11,7.035c0.071,3.129,0.105,5.476,0.105,7.036
				c0,0,1.235-0.196,3.703-0.075c-0.328-0.021,8.754,0.082,10.151-0.414c1.729-0.614,2.924-1.041,4.303-2.707
				c2.568-3.129,2.779-6.603,2.779-11.152c0-4.443-0.543-7.348-3.074-10.144C156.312,91.602,153.507,90.509,149.106,90.509z"/>
			<path fill="#1A1616" d="M43.245,92.027c-3.418,10.637-5.67,16.55-5.67,17.065c0,0.7,0.063,1.11,1.627,1.235
				c0.082,0.021,1.09,0.03,3.021,0.03h3.18c2.941,0,3.697-0.41,3.697-1.235c0-0.596-0.925-3.27-2.776-8.025
				C44.536,96.492,43.983,93.469,43.245,92.027z"/>
			<path fill="#1A1616" d="M15.807,69.793l0.044,71.058h159.23l-0.047-68.928L15.807,69.793z M54.72,127.772
				c0,0-2.355-10.622-3.143-10.657c-0.76-0.04-10.836-0.063-10.836-0.063c-3.39,0-5.322,0.023-5.795,0.063
				c-0.639,0.054-2.907,10.657-2.907,10.657l-10.985,0.082l17.689-46.247h9.369l13.66,36.146l4.535,10.102L54.72,127.772z
				 M93.328,90.395c0,0-9.853-0.097-13.051,0.566c-1.325,0.277-3.739,1.43-3.739,3.919c0,1.85,1.326,2.749,3.979,4.128
				c4.464,2.322,6.932,4.736,7.403,5.086c2.653,2.118,3.982,4.978,3.982,8.578c0,4.609-2.176,9.313-5.822,11.967
				c-3.27,2.389-9.007,2.986-12.138,3.107c-1.393,0.057-5.569,0-5.569,0l-3.276-9.516c0,0,7.206,0.408,9.61,0.418
				c2.511,0.007,8.725-0.316,8.547-5.267c-0.066-2.016-0.206-3.054-2.784-4.53c-4.683-2.684-7.437-4.428-7.542-4.526
				c-2.478-2.231-5.3-3.129-5.325-9.169c-0.021-5.207,1.971-7.964,4.483-10.27c2.131-1.937,6.596-2.789,8.943-2.977
				c3.068-0.249,12.298-0.105,12.298-0.105V90.395z M129.624,90.472H118.06c-0.151,5.563,0.207,37.388,0.207,37.388h-11.228
				c0,0,0.104-31.721-0.084-37.388H95.553v-8.667h34.071V90.472z M166.796,120.361c-5.506,8.264-15.003,7.385-15.003,7.385h-19.921
				v-0.18v-2.457V85.667v-3.862v-0.197h16.068c2.426,0.33,7.919-1.284,16.016,4.952c2.51,1.934,3.737,4.894,5.117,8.166
				c1.289,3.044,1.941,6.591,1.941,9.923C171.015,110.429,169.757,115.91,166.796,120.361z"/>
			<path fill="#C5BF69" d="M96.949,88.789C96.818,88.821,96.941,88.945,96.949,88.789L96.949,88.789z"/>
			<path fill="#C5BF69" d="M127.253,82.992c-0.008-0.004-0.048-0.007-0.113-0.007C127.182,82.985,127.214,82.99,127.253,82.992z"/>
			<path fill="#C5BF69" d="M91.267,88.468c-0.008,0.021-0.021,0.04-0.029,0.063C91.161,88.744,91.198,88.646,91.267,88.468z"/>
		</g>
		<g>
			<rect x="16.089" y="140.851" fill="none" width="243.627" height="21.524"/>
			<text transform="matrix(1 0 0 1 20.0488 149.6221)" fill="#EDCB88" font-family="'MyriadPro-Regular'" font-size="12.3548">AFRICAN SOCIETY FOR TALENT DEVELOPMENT</text>
		</g>
		<g>
			<circle opacity="0.91" fill="#CFD64D" cx="219.839" cy="82.634" r="7.211"/>
			<polygon fill="#F0C324" points="232.272,83.484 237.763,90.668 215.365,116.518 215.365,103.17 			"/>
			<linearGradient id="SVGID_1_" gradientUnits="userSpaceOnUse" x1="207.2344" y1="118.2676" x2="224.1094" y2="118.2676">
				<stop  offset="0" style="stop-color:#6F5322"/>
				<stop  offset="0" style="stop-color:#755824"/>
				<stop  offset="0" style="stop-color:#95722F"/>
				<stop  offset="0" style="stop-color:#AF8638"/>
				<stop  offset="0" style="stop-color:#BF933D"/>
				<stop  offset="0" style="stop-color:#C5983F"/>
				<stop  offset="0" style="stop-color:#C79B41"/>
				<stop  offset="0" style="stop-color:#D0B051"/>
				<stop  offset="0" style="stop-color:#D8C160"/>
				<stop  offset="0" style="stop-color:#DFD06D"/>
				<stop  offset="0" style="stop-color:#E4DA76"/>
				<stop  offset="0" style="stop-color:#E7E07B"/>
				<stop  offset="0" style="stop-color:#E8E27C"/>
				<stop  offset="0.4215" style="stop-color:#E8E27C"/>
				<stop  offset="0.4909" style="stop-color:#E8E27C"/>
				<stop  offset="0.5963" style="stop-color:#E3D874"/>
				<stop  offset="0.7831" style="stop-color:#D6BE5E"/>
				<stop  offset="1" style="stop-color:#C79D43"/>
			</linearGradient>
			<polygon fill="url(#SVGID_1_)" points="224.086,108.46 224.109,120.771 217.517,128.074 207.234,128.027 			"/>
			<polyline fill="#E1AC27" points="231.612,128.07 219.479,127.962 224.191,122.539 			"/>
			<path opacity="0.91" fill="#CFD64D" d="M185.36,93.723c0,2.866,2.326,5.193,5.195,5.193c2.862,0,5.188-2.327,5.188-5.193
				c0-2.869-2.326-5.191-5.188-5.191C187.687,88.531,185.36,90.854,185.36,93.723z"/>
			<linearGradient id="SVGID_2_" gradientUnits="userSpaceOnUse" x1="198.0518" y1="90.8301" x2="197.5591" y2="119.0548">
				<stop  offset="0" style="stop-color:#6F5322"/>
				<stop  offset="0" style="stop-color:#755824"/>
				<stop  offset="0" style="stop-color:#95722F"/>
				<stop  offset="0" style="stop-color:#AF8638"/>
				<stop  offset="0" style="stop-color:#BF933D"/>
				<stop  offset="0" style="stop-color:#C5983F"/>
				<stop  offset="0" style="stop-color:#C79B41"/>
				<stop  offset="0" style="stop-color:#D0B051"/>
				<stop  offset="0" style="stop-color:#D8C160"/>
				<stop  offset="0" style="stop-color:#DFD06D"/>
				<stop  offset="0" style="stop-color:#E4DA76"/>
				<stop  offset="0" style="stop-color:#E7E07B"/>
				<stop  offset="0" style="stop-color:#E8E27C"/>
				<stop  offset="0.4215" style="stop-color:#E8E27C"/>
				<stop  offset="0.4909" style="stop-color:#E8E27C"/>
				<stop  offset="0.5963" style="stop-color:#E3D874"/>
				<stop  offset="0.7831" style="stop-color:#D6BE5E"/>
				<stop  offset="1" style="stop-color:#C79D43"/>
			</linearGradient>
			<polygon fill="url(#SVGID_2_)" points="201.549,90.891 208.219,96.978 187.441,118.878 187.441,110.101 			"/>
			<linearGradient id="SVGID_3_" gradientUnits="userSpaceOnUse" x1="180.9492" y1="120.752" x2="194.4092" y2="120.752">
				<stop  offset="0" style="stop-color:#6F5322"/>
				<stop  offset="0" style="stop-color:#755824"/>
				<stop  offset="0" style="stop-color:#95722F"/>
				<stop  offset="0" style="stop-color:#AF8638"/>
				<stop  offset="0" style="stop-color:#BF933D"/>
				<stop  offset="0" style="stop-color:#C5983F"/>
				<stop  offset="0" style="stop-color:#C79B41"/>
				<stop  offset="0" style="stop-color:#D0B051"/>
				<stop  offset="0" style="stop-color:#D8C160"/>
				<stop  offset="0" style="stop-color:#DFD06D"/>
				<stop  offset="0" style="stop-color:#E4DA76"/>
				<stop  offset="0" style="stop-color:#E7E07B"/>
				<stop  offset="0" style="stop-color:#E8E27C"/>
				<stop  offset="0.4215" style="stop-color:#E8E27C"/>
				<stop  offset="0.4909" style="stop-color:#E8E27C"/>
				<stop  offset="0.5963" style="stop-color:#E3D874"/>
				<stop  offset="0.7831" style="stop-color:#D6BE5E"/>
				<stop  offset="1" style="stop-color:#C79D43"/>
			</linearGradient>
			<path fill="url(#SVGID_3_)" d="M194.409,113.536l-0.015,8.66l-5.418,5.772c0,0-4.889,0-8.027,0L194.409,113.536z"/>
			<polygon fill="#D37828" points="198.017,128.091 194.711,124.074 191.104,128.007 			"/>
			<path fill="none" stroke="#171717" stroke-width="0.25" stroke-miterlimit="10" d="M212.69,110.471"/>
			<polygon fill="#ECAB33" points="181.802,96.266 177.92,99.86 187.069,108.179 190.821,103.371 			"/>
			<linearGradient id="SVGID_4_" gradientUnits="userSpaceOnUse" x1="202.2959" y1="93.3506" x2="220.5293" y2="93.3506">
				<stop  offset="0" style="stop-color:#6F5322"/>
				<stop  offset="0" style="stop-color:#755824"/>
				<stop  offset="0" style="stop-color:#95722F"/>
				<stop  offset="0" style="stop-color:#AF8638"/>
				<stop  offset="0" style="stop-color:#BF933D"/>
				<stop  offset="0" style="stop-color:#C5983F"/>
				<stop  offset="0" style="stop-color:#C79B41"/>
				<stop  offset="0" style="stop-color:#D0B051"/>
				<stop  offset="0" style="stop-color:#D8C160"/>
				<stop  offset="0" style="stop-color:#DFD06D"/>
				<stop  offset="0" style="stop-color:#E4DA76"/>
				<stop  offset="0" style="stop-color:#E7E07B"/>
				<stop  offset="0" style="stop-color:#E8E27C"/>
				<stop  offset="0.4215" style="stop-color:#E8E27C"/>
				<stop  offset="0.4909" style="stop-color:#E8E27C"/>
				<stop  offset="0.5963" style="stop-color:#E3D874"/>
				<stop  offset="0.7831" style="stop-color:#D6BE5E"/>
				<stop  offset="1" style="stop-color:#C79D43"/>
			</linearGradient>
			<polygon fill="url(#SVGID_4_)" points="205.768,85.266 202.296,89.958 215.069,101.436 220.529,95.206 			"/>
			<path fill="none" stroke="#9AA038" stroke-width="5" stroke-miterlimit="10" d="M198.649,80.921"/>
			<path opacity="0.91" fill="#CFD64D" d="M254.09,93.741c0,2.868-2.326,5.191-5.195,5.191c-2.862,0-5.191-2.323-5.191-5.191
				c0-2.869,2.329-5.191,5.191-5.191C251.764,88.55,254.09,90.872,254.09,93.741z"/>
			<linearGradient id="SVGID_5_" gradientUnits="userSpaceOnUse" x1="232.9404" y1="105.3281" x2="252.0098" y2="105.3281">
				<stop  offset="0" style="stop-color:#6F5322"/>
				<stop  offset="0" style="stop-color:#755824"/>
				<stop  offset="0" style="stop-color:#95722F"/>
				<stop  offset="0" style="stop-color:#AF8638"/>
				<stop  offset="0" style="stop-color:#BF933D"/>
				<stop  offset="0" style="stop-color:#C5983F"/>
				<stop  offset="0" style="stop-color:#C79B41"/>
				<stop  offset="0" style="stop-color:#D0B051"/>
				<stop  offset="0" style="stop-color:#D8C160"/>
				<stop  offset="0" style="stop-color:#DFD06D"/>
				<stop  offset="0" style="stop-color:#E4DA76"/>
				<stop  offset="0" style="stop-color:#E7E07B"/>
				<stop  offset="0" style="stop-color:#E8E27C"/>
				<stop  offset="0.4215" style="stop-color:#E8E27C"/>
				<stop  offset="0.4909" style="stop-color:#E8E27C"/>
				<stop  offset="0.5963" style="stop-color:#E3D874"/>
				<stop  offset="0.7831" style="stop-color:#D6BE5E"/>
				<stop  offset="1" style="stop-color:#C79D43"/>
			</linearGradient>
			<polygon fill="url(#SVGID_5_)" points="238.755,91.763 232.94,98.417 252.01,118.895 252.01,110.117 			"/>
			<linearGradient id="SVGID_6_" gradientUnits="userSpaceOnUse" x1="245.0439" y1="120.7695" x2="255.629" y2="120.7695">
				<stop  offset="0" style="stop-color:#6F5322"/>
				<stop  offset="0" style="stop-color:#755824"/>
				<stop  offset="0" style="stop-color:#95722F"/>
				<stop  offset="0" style="stop-color:#AF8638"/>
				<stop  offset="0" style="stop-color:#BF933D"/>
				<stop  offset="0" style="stop-color:#C5983F"/>
				<stop  offset="0" style="stop-color:#C79B41"/>
				<stop  offset="0" style="stop-color:#D0B051"/>
				<stop  offset="0" style="stop-color:#D8C160"/>
				<stop  offset="0" style="stop-color:#DFD06D"/>
				<stop  offset="0" style="stop-color:#E4DA76"/>
				<stop  offset="0" style="stop-color:#E7E07B"/>
				<stop  offset="0" style="stop-color:#E8E27C"/>
				<stop  offset="0.4215" style="stop-color:#E8E27C"/>
				<stop  offset="0.4909" style="stop-color:#E8E27C"/>
				<stop  offset="0.5963" style="stop-color:#E3D874"/>
				<stop  offset="0.7831" style="stop-color:#D6BE5E"/>
				<stop  offset="1" style="stop-color:#C79D43"/>
			</linearGradient>
			<path fill="url(#SVGID_6_)" d="M245.044,113.555l0.018,8.658l5.413,5.772c0,0,4.884,0,8.027,0L245.044,113.555z"/>
			<polygon fill="#D37828" points="241.434,128.109 244.739,124.09 248.347,128.023 			"/>
			<polygon fill="#ECAB33" points="257.648,96.281 261.527,99.879 252.385,108.197 248.635,103.391 			"/>
		</g>
	</g>
</g>
</svg>
