<?xml version="1.0" encoding="utf-8"?>
<!-- Generator: Adobe Illustrator 15.0.0, SVG Export Plug-In . SVG Version: 6.00 Build 0)  -->
<!DOCTYPE svg PUBLIC "-//W3C//DTD SVG 1.1//EN" "http://www.w3.org/Graphics/SVG/1.1/DTD/svg11.dtd">
<svg version="1.1" id="Layer_1" xmlns="http://www.w3.org/2000/svg" xmlns:xlink="http://www.w3.org/1999/xlink" x="0px" y="0px"
	 width="1198.17px" height="170.814px" viewBox="0 0 1198.17 170.814" enable-background="new 0 0 1198.17 170.814"
	 xml:space="preserve">
<g>
	<g>
		<polygon fill="#EEEF9C" points="270.552,34.34 316.655,34.068 316.386,80.176 		"/>
		<polygon fill="#DEE899" points="316.354,80.313 316.655,34.279 362.187,34.475 		"/>
		<polygon fill="#E4ECA4" points="316.384,-11.25 316.655,34.279 270.552,34.585 		"/>
		<polygon fill="#E7EDAE" points="362.224,34.475 316.655,34.279 316.243,-11.214 		"/>
		<g>
			<polygon fill="#E4ECA4" points="224.983,80.177 271.087,79.904 270.819,126.011 			"/>
			<polygon fill="#D4DE8E" points="270.786,126.148 271.087,80.116 316.618,80.312 			"/>
			<polygon fill="#ECF1BC" points="270.817,34.585 271.087,80.116 224.983,80.421 			"/>
			<polygon fill="#F6E582" points="316.655,80.312 271.087,80.116 270.675,34.623 			"/>
		</g>
		<g>
			<polygon fill="#F2E58E" points="316.243,79.985 362.347,79.712 362.077,125.819 			"/>
			<polygon fill="#DCE9AB" points="362.046,125.957 362.347,79.924 407.878,80.119 			"/>
			<polygon fill="#ECF1BC" points="362.075,34.394 362.347,79.924 316.243,80.229 			"/>
			<polygon fill="#F2E58E" points="407.915,80.119 362.347,79.924 361.935,34.431 			"/>
		</g>
		<g>
			<polygon fill="#D5E597" points="270.782,125.63 316.886,125.356 316.616,171.464 			"/>
			<polygon fill="#EDF1BA" points="316.585,171.602 316.886,125.568 362.417,125.764 			"/>
			<polygon fill="#EEEF9C" points="316.614,80.038 316.886,125.568 270.782,125.874 			"/>
			<polygon fill="#DEDB89" points="362.454,125.764 316.886,125.568 316.474,80.075 			"/>
		</g>
		<g>
			<polygon fill="#EDF1BA" points="179.233,34.396 225.337,34.123 225.067,80.229 			"/>
			<polygon fill="#EEEF9C" points="225.036,80.367 225.337,34.335 270.868,34.529 			"/>
			<polygon fill="#EDEE9D" points="225.065,-11.196 225.337,34.335 179.233,34.641 			"/>
			<polygon fill="#F6E582" points="270.905,34.529 225.337,34.335 224.925,-11.158 			"/>
		</g>
		<g>
			<polygon fill="#E4ECA4" points="133.542,80.12 179.646,79.848 179.376,125.955 			"/>
			<polygon fill="#DFE69A" points="179.345,126.093 179.646,80.06 225.177,80.255 			"/>
			<polygon fill="#E4ECA4" points="179.376,34.529 179.646,80.06 133.542,80.365 			"/>
			<polygon opacity="0.91" fill="#D8E29E" points="225.214,80.255 179.646,80.06 179.233,34.566 			"/>
		</g>
		<g>
			<polygon fill="#DFE69A" points="179.378,125.625 225.483,125.353 225.212,171.459 			"/>
			<polygon fill="#E7EDAE" points="225.181,171.596 225.483,125.564 271.013,125.759 			"/>
			<polygon fill="#F9F4AC" points="225.212,80.033 225.483,125.564 179.378,125.869 			"/>
			<polygon fill="#D4DE8E" points="271.05,125.759 225.483,125.564 225.069,80.071 			"/>
		</g>
		<g>
			<polygon fill="#E4ECA4" points="270.778,125.427 271.05,170.957 224.946,171.263 			"/>
			<polygon fill="#D4DE8E" points="316.618,171.152 271.05,170.957 270.638,125.464 			"/>
		</g>
		<g>
			<polygon fill="#F4F2AA" points="224.946,-11.35 271.05,-11.621 270.78,34.485 			"/>
			<polygon fill="#ECF1BC" points="270.749,34.623 271.05,-11.41 316.581,-11.215 			"/>
		</g>
		<g>
			<polygon fill="#FFED8F" points="133.397,-11.35 179.501,-11.621 179.231,34.485 			"/>
			<polygon fill="#F6E582" points="179.2,34.623 179.501,-11.41 225.032,-11.215 			"/>
		</g>
		<g>
			<polygon fill="#DEDB89" points="179.085,125.371 179.356,170.901 133.253,171.207 			"/>
			<polygon fill="#E4ECA4" points="224.925,171.097 179.356,170.901 178.944,125.408 			"/>
		</g>
		<g>
			<polygon fill="#EFF1B2" points="87.706,34.449 133.81,34.178 133.54,80.284 			"/>
			<polygon fill="#FFED8F" points="133.509,80.421 133.81,34.389 179.341,34.584 			"/>
			<polygon fill="#D8E299" points="133.54,-11.142 133.81,34.389 87.706,34.694 			"/>
			<polygon fill="#E0E99E" points="179.378,34.584 133.81,34.389 133.397,-11.104 			"/>
		</g>
		<g>
			<polygon fill="#EEEF9C" points="87.974,125.273 134.079,125.002 133.81,171.108 			"/>
			<polygon fill="#DFE69A" points="133.776,171.245 134.079,125.213 179.608,125.408 			"/>
			<polygon fill="#E7EEB4" points="133.808,79.683 134.079,125.213 87.974,125.519 			"/>
			<polygon fill="#DFE69A" points="179.646,125.408 134.079,125.213 133.665,79.72 			"/>
		</g>
		<g>
			<polygon fill="#D8E299" points="42.14,80.12 88.241,79.848 87.972,125.955 			"/>
			<polygon fill="#EBEFAC" points="87.94,126.093 88.241,80.06 133.772,80.255 			"/>
			<polygon fill="#EBEFAC" points="87.972,34.529 88.241,80.06 42.14,80.365 			"/>
			<polygon fill="#E4ECA4" points="133.81,80.255 88.241,80.06 87.829,34.566 			"/>
		</g>
		<g>
			<polygon fill="#E0E99E" points="41.95,-11.479 88.054,-11.751 87.786,34.356 			"/>
			<polygon fill="#DFE69A" points="87.753,34.493 88.054,-11.539 133.585,-11.345 			"/>
		</g>
		<g>
			<polygon fill="#EEEF9C" points="88.239,125.241 88.511,170.771 42.405,171.077 			"/>
			<polygon fill="#D8E299" points="134.077,170.967 88.511,170.771 88.097,125.278 			"/>
		</g>
		<g>
			<polygon fill="#D8E29E" points="42.062,80.292 42.364,34.26 87.894,34.454 			"/>
			<polygon fill="#EBEFAC" points="87.931,34.454 42.364,34.26 41.95,-11.233 			"/>
		</g>
		<g>
			<polygon fill="#D5E7AE" points="42.331,171.116 42.632,125.084 88.161,125.278 			"/>
			<polygon fill="#E1EBA8" points="88.2,125.278 42.632,125.084 42.22,79.591 			"/>
		</g>
		<polygon fill="#ECF0B2" points="362.036,34.384 408.14,34.112 407.87,80.219 		"/>
		<polygon fill="#EEEF9C" points="407.839,80.356 408.14,34.323 453.671,34.519 		"/>
		<polygon fill="#DEE899" points="407.868,-11.207 408.14,34.323 362.036,34.629 		"/>
		<polygon fill="#EFF0AB" points="453.708,34.519 408.14,34.323 407.728,-11.17 		"/>
		<g>
			<polygon opacity="0.91" fill="#D8E29E" points="407.728,80.028 453.831,79.756 453.562,125.863 			"/>
			<polygon fill="#ECF0B2" points="453.528,126.001 453.831,79.968 499.362,80.163 			"/>
			<polygon fill="#DEDB89" points="453.56,34.438 453.831,79.968 407.728,80.273 			"/>
			<polygon fill="#DEE899" points="499.399,80.163 453.831,79.968 453.417,34.475 			"/>
		</g>
		<g>
			<polygon fill="#DCE9AB" points="362.267,125.673 408.37,125.4 408.101,171.508 			"/>
			<polygon fill="#DEDB89" points="408.069,171.645 408.37,125.612 453.899,125.807 			"/>
			<polygon fill="#F2E58E" points="408.099,80.082 408.37,125.612 362.267,125.918 			"/>
			<polygon fill="#EFF0AB" points="453.938,125.807 408.37,125.612 407.958,80.119 			"/>
		</g>
		<g>
			<polygon fill="#EDF0B5" points="362.263,125.471 362.534,171.001 316.431,171.307 			"/>
			<polygon fill="#EDF1BA" points="408.103,171.196 362.534,171.001 362.122,125.508 			"/>
		</g>
		<g>
			<polygon fill="#EFF0AB" points="316.431,-11.306 362.534,-11.578 362.265,34.529 			"/>
			<polygon fill="#DCE9AB" points="362.233,34.667 362.534,-11.366 408.065,-11.171 			"/>
		</g>
		<polygon fill="#E4ECA4" points="453.483,34.319 499.587,34.047 499.317,80.153 		"/>
		<polygon fill="#DEE899" points="499.315,-11.272 499.587,34.259 453.483,34.563 		"/>
		<g>
			<polygon fill="#D9E8AE" points="453.714,125.608 499.817,125.336 499.548,171.442 			"/>
			<polygon fill="#DEDB89" points="499.546,80.017 499.817,125.548 453.714,125.853 			"/>
		</g>
		<g>
			<polygon fill="#D2D47E" points="453.71,125.405 453.981,170.937 407.878,171.241 			"/>
			<polygon fill="#DEDB89" points="499.548,171.131 453.981,170.937 453.567,125.443 			"/>
		</g>
		<g>
			<polygon fill="#DEE899" points="407.878,-11.37 453.981,-11.643 453.712,34.464 			"/>
			<polygon fill="#EEF1BB" points="453.679,34.602 453.981,-11.432 499.511,-11.236 			"/>
		</g>
		<g>
			<polygon fill="#DBE8A4" points="-3.479,125.949 -3.179,79.917 42.353,80.112 			"/>
			<polygon fill="#E4ECA4" points="42.39,80.112 -3.179,79.917 -3.591,34.424 			"/>
		</g>
		<polygon fill="#EEEF9C" points="-3.526,34.268 42.577,33.996 42.308,80.103 		"/>
		<polygon fill="#DBE8A4" points="42.306,-11.323 42.577,34.207 -3.526,34.513 		"/>
		<g>
			<polygon fill="#EEF0AA" points="-3.296,125.557 42.808,125.284 42.538,171.391 			"/>
			<polygon fill="#EEEF9C" points="42.536,79.965 42.808,125.496 -3.296,125.802 			"/>
		</g>
		<g>
			<polygon opacity="0.91" fill="#E1EBA8" points="42.54,171.08 -3.028,170.885 -3.44,125.392 			"/>
		</g>
		<g>
			<g>
				<g>
					<polygon fill="#D8D986" points="-3.329,34.55 -3.028,-11.482 42.503,-11.287 					"/>
				</g>
			</g>
		</g>
		<polygon fill="#E0DB8A" points="682.062,80.736 681.759,34.703 636.229,34.898 		"/>
		<polygon fill="#E0DB8A" points="636.192,34.898 681.759,34.703 682.173,-10.79 		"/>
		<g>
			<polygon fill="#DEDB89" points="682.173,80.409 636.069,80.136 636.337,126.243 			"/>
			<polygon fill="#E5EEB9" points="636.37,126.381 636.069,80.348 590.538,80.543 			"/>
			<polygon fill="#EEEE99" points="636.339,34.817 636.069,80.348 682.173,80.653 			"/>
			<polygon fill="#EEEE99" points="590.501,80.543 636.069,80.348 636.481,34.854 			"/>
		</g>
		<g>
			<polygon fill="#E4ECA4" points="681.831,172.025 681.528,125.992 635.999,126.188 			"/>
			<polygon fill="#EFF1B0" points="635.962,126.188 681.528,125.992 681.942,80.499 			"/>
		</g>
		<polygon fill="#EDF0B5" points="636.38,34.808 590.274,34.536 590.544,80.643 		"/>
		<polygon fill="#DEE899" points="590.577,80.78 590.274,34.747 544.745,34.942 		"/>
		<polygon fill="#EEEE99" points="590.546,-10.783 590.274,34.747 636.38,35.053 		"/>
		<polygon fill="#EEEE99" points="544.708,34.942 590.274,34.747 590.688,-10.746 		"/>
		<g>
			<polygon fill="#EFF1B0" points="590.688,80.452 544.585,80.18 544.854,126.287 			"/>
			<polygon fill="#EEF1BB" points="544.886,126.425 544.585,80.392 499.054,80.587 			"/>
			<polygon fill="#E4ECA4" points="544.854,34.861 544.585,80.392 590.688,80.697 			"/>
			<polygon fill="#D9E8AE" points="499.017,80.587 544.585,80.392 544.997,34.898 			"/>
		</g>
		<g>
			<polygon fill="#EDF1BA" points="636.149,126.097 590.044,125.824 590.313,171.932 			"/>
			<polygon fill="#DEDB89" points="590.347,172.068 590.044,126.036 544.515,126.23 			"/>
			<polygon fill="#EFF1B0" points="590.315,80.506 590.044,126.036 636.149,126.342 			"/>
			<polygon fill="#E5EEB9" points="544.478,126.23 590.044,126.036 590.458,80.543 			"/>
		</g>
		<g>
			<polygon fill="#EEEF9C" points="636.151,125.895 635.882,171.425 681.983,171.73 			"/>
			<polygon fill="#E5EEB9" points="590.313,171.62 635.882,171.425 636.294,125.932 			"/>
		</g>
		<g>
			<polygon fill="#E6EDAD" points="681.983,-10.882 635.882,-11.154 636.151,34.953 			"/>
			<polygon fill="#EFF1B0" points="636.183,35.091 635.882,-10.942 590.351,-10.747 			"/>
		</g>
		<polygon fill="#EEF1BB" points="544.933,34.743 498.829,34.471 499.099,80.577 		"/>
		<polygon fill="#F2E58E" points="499.099,-10.849 498.829,34.683 544.933,34.987 		"/>
		<g>
			<polygon fill="#ECF0B2" points="544.702,126.032 498.599,125.76 498.868,171.866 			"/>
			<polygon fill="#EDF0B5" points="498.868,80.44 498.599,125.972 544.702,126.276 			"/>
		</g>
		<g>
			<polygon fill="#DEE899" points="544.706,125.829 544.435,171.36 590.538,171.665 			"/>
			<polygon fill="#DEE899" points="498.866,171.555 544.435,171.36 544.847,125.867 			"/>
		</g>
		<g>
			<polygon fill="#DEE899" points="590.538,-10.946 544.435,-11.219 544.704,34.888 			"/>
			<polygon fill="#EEF1BB" points="544.735,35.025 544.435,-11.008 498.903,-10.813 			"/>
		</g>
	</g>
	<g>
		<polygon fill="#EEEF9C" points="1001.366,33.583 955.263,33.312 955.532,79.419 		"/>
		<polygon fill="#DEE899" points="955.563,79.556 955.263,33.522 909.731,33.718 		"/>
		<polygon fill="#E4ECA4" points="955.534,-12.007 955.263,33.522 1001.366,33.828 		"/>
		<polygon fill="#E7EDAE" points="909.694,33.718 955.263,33.522 955.675,-11.971 		"/>
		<g>
			<polygon fill="#E4ECA4" points="1046.935,79.42 1000.831,79.147 1001.099,125.254 			"/>
			<polygon fill="#D4DE8E" points="1001.132,125.392 1000.831,79.359 955.3,79.555 			"/>
			<polygon fill="#ECF1BC" points="1001.101,33.828 1000.831,79.359 1046.935,79.664 			"/>
			<polygon fill="#F6E582" points="955.263,79.555 1000.831,79.359 1001.243,33.866 			"/>
		</g>
		<g>
			<polygon fill="#F2E58E" points="955.675,79.229 909.571,78.955 909.841,125.063 			"/>
			<polygon fill="#DCE9AB" points="909.872,125.2 909.571,79.167 864.04,79.362 			"/>
			<polygon fill="#ECF1BC" points="909.843,33.637 909.571,79.167 955.675,79.473 			"/>
			<polygon fill="#F2E58E" points="864.003,79.362 909.571,79.167 909.983,33.674 			"/>
		</g>
		<g>
			<polygon fill="#D5E597" points="1001.136,124.873 955.032,124.6 955.302,170.707 			"/>
			<polygon fill="#EDF1BA" points="955.333,170.845 955.032,124.812 909.501,125.007 			"/>
			<polygon fill="#EEEF9C" points="955.304,79.281 955.032,124.812 1001.136,125.117 			"/>
			<polygon fill="#DEDB89" points="909.464,125.007 955.032,124.812 955.444,79.318 			"/>
		</g>
		<g>
			<polygon fill="#EDF1BA" points="1092.685,33.639 1046.581,33.366 1046.851,79.473 			"/>
			<polygon fill="#EEEF9C" points="1046.882,79.61 1046.581,33.578 1001.05,33.772 			"/>
			<polygon fill="#EDEE9D" points="1046.853,-11.953 1046.581,33.578 1092.685,33.884 			"/>
			<polygon fill="#F6E582" points="1001.013,33.772 1046.581,33.578 1046.993,-11.915 			"/>
		</g>
		<g>
			<polygon fill="#E4ECA4" points="1138.376,79.363 1092.272,79.091 1092.542,125.198 			"/>
			<polygon fill="#DFE69A" points="1092.573,125.336 1092.272,79.303 1046.741,79.498 			"/>
			<polygon fill="#E4ECA4" points="1092.542,33.772 1092.272,79.303 1138.376,79.608 			"/>
			<polygon opacity="0.91" fill="#D8E29E" points="1046.704,79.498 1092.272,79.303 1092.685,33.81 			"/>
		</g>
		<g>
			<polygon fill="#DFE69A" points="1092.54,124.868 1046.435,124.596 1046.706,170.702 			"/>
			<polygon fill="#E7EDAE" points="1046.737,170.839 1046.435,124.808 1000.905,125.002 			"/>
			<polygon fill="#F9F4AC" points="1046.706,79.276 1046.435,124.808 1092.54,125.112 			"/>
			<polygon fill="#D4DE8E" points="1000.868,125.002 1046.435,124.808 1046.849,79.314 			"/>
		</g>
		<g>
			<polygon fill="#E4ECA4" points="1001.14,124.67 1000.868,170.2 1046.972,170.506 			"/>
			<polygon fill="#D4DE8E" points="955.3,170.396 1000.868,170.2 1001.28,124.707 			"/>
		</g>
		<g>
			<polygon fill="#F4F2AA" points="1046.972,-12.106 1000.868,-12.378 1001.138,33.729 			"/>
			<polygon fill="#ECF1BC" points="1001.169,33.866 1000.868,-12.167 955.337,-11.972 			"/>
		</g>
		<g>
			<polygon fill="#FFED8F" points="1138.521,-12.106 1092.417,-12.378 1092.687,33.729 			"/>
			<polygon fill="#F6E582" points="1092.718,33.866 1092.417,-12.167 1046.886,-11.972 			"/>
		</g>
		<g>
			<polygon fill="#DEDB89" points="1092.833,124.614 1092.562,170.145 1138.665,170.45 			"/>
			<polygon fill="#E4ECA4" points="1046.993,170.34 1092.562,170.145 1092.974,124.651 			"/>
		</g>
		<g>
			<polygon fill="#EFF1B2" points="1184.212,33.692 1138.108,33.421 1138.378,79.527 			"/>
			<polygon fill="#FFED8F" points="1138.409,79.664 1138.108,33.632 1092.577,33.827 			"/>
			<polygon fill="#D8E299" points="1138.378,-11.898 1138.108,33.632 1184.212,33.938 			"/>
			<polygon fill="#E0E99E" points="1092.54,33.827 1138.108,33.632 1138.521,-11.861 			"/>
		</g>
		<g>
			<polygon fill="#EEEF9C" points="1183.944,124.517 1137.839,124.245 1138.108,170.352 			"/>
			<polygon fill="#DFE69A" points="1138.142,170.488 1137.839,124.456 1092.31,124.651 			"/>
			<polygon fill="#E7EEB4" points="1138.11,78.926 1137.839,124.456 1183.944,124.762 			"/>
			<polygon fill="#DFE69A" points="1092.272,124.651 1137.839,124.456 1138.253,78.963 			"/>
		</g>
		<g>
			<polygon fill="#D8E299" points="1229.778,79.363 1183.677,79.091 1183.946,125.198 			"/>
			<polygon fill="#EBEFAC" points="1183.978,125.336 1183.677,79.303 1138.146,79.498 			"/>
			<polygon fill="#EBEFAC" points="1183.946,33.772 1183.677,79.303 1229.778,79.608 			"/>
			<polygon fill="#E4ECA4" points="1138.108,79.498 1183.677,79.303 1184.089,33.81 			"/>
		</g>
		<g>
			<polygon fill="#E0E99E" points="1229.968,-12.235 1183.864,-12.508 1184.132,33.6 			"/>
			<polygon fill="#DFE69A" points="1184.165,33.736 1183.864,-12.296 1138.333,-12.102 			"/>
		</g>
		<g>
			<polygon fill="#EEEF9C" points="1183.679,124.484 1183.407,170.015 1229.513,170.32 			"/>
			<polygon fill="#D8E299" points="1137.841,170.21 1183.407,170.015 1183.821,124.521 			"/>
		</g>
		<g>
			<polygon fill="#D8E29E" points="1229.856,79.535 1229.554,33.503 1184.024,33.697 			"/>
			<polygon fill="#EBEFAC" points="1183.987,33.697 1229.554,33.503 1229.968,-11.99 			"/>
		</g>
		<g>
			<polygon fill="#D5E7AE" points="1229.587,170.359 1229.286,124.327 1183.757,124.521 			"/>
			<polygon fill="#E1EBA8" points="1183.718,124.521 1229.286,124.327 1229.698,78.834 			"/>
		</g>
		<polygon fill="#ECF0B2" points="909.882,33.627 863.778,33.355 864.048,79.462 		"/>
		<polygon fill="#EEEF9C" points="864.079,79.6 863.778,33.566 818.247,33.762 		"/>
		<polygon fill="#DEE899" points="864.05,-11.964 863.778,33.566 909.882,33.872 		"/>
		<polygon fill="#EFF0AB" points="818.21,33.762 863.778,33.566 864.19,-11.927 		"/>
		<g>
			<polygon fill="#E0DB8A" points="864.19,79.271 818.087,78.999 818.356,125.106 			"/>
			<polygon fill="#ECF0B2" points="818.39,125.244 818.087,79.211 772.556,79.406 			"/>
			<polygon fill="#DEDB89" points="818.358,33.681 818.087,79.211 864.19,79.517 			"/>
			<polygon fill="#DEE899" points="772.519,79.406 818.087,79.211 818.501,33.718 			"/>
		</g>
		<g>
			<polygon fill="#DCE9AB" points="909.651,124.916 863.548,124.644 863.817,170.751 			"/>
			<polygon fill="#DEDB89" points="863.849,170.888 863.548,124.855 818.019,125.05 			"/>
			<polygon fill="#F2E58E" points="863.819,79.325 863.548,124.855 909.651,125.161 			"/>
			<polygon fill="#EFF0AB" points="817.979,125.05 863.548,124.855 863.96,79.362 			"/>
		</g>
		<g>
			<polygon fill="#EDF0B5" points="909.655,124.714 909.384,170.244 955.487,170.55 			"/>
			<polygon fill="#EDF1BA" points="863.815,170.439 909.384,170.244 909.796,124.751 			"/>
		</g>
		<g>
			<polygon fill="#EFF0AB" points="955.487,-12.063 909.384,-12.335 909.653,33.772 			"/>
			<polygon fill="#DCE9AB" points="909.685,33.91 909.384,-12.123 863.853,-11.928 			"/>
		</g>
		<polygon fill="#E4ECA4" points="818.435,33.563 772.331,33.29 772.601,79.396 		"/>
		<polygon fill="#DEE899" points="772.603,-12.029 772.331,33.502 818.435,33.807 		"/>
		<g>
			<polygon fill="#D9E8AE" points="818.204,124.852 772.101,124.579 772.37,170.686 			"/>
			<polygon fill="#DEDB89" points="772.372,79.26 772.101,124.791 818.204,125.096 			"/>
		</g>
		<g>
			<polygon fill="#D2D47E" points="818.208,124.648 817.937,170.18 864.04,170.484 			"/>
			<polygon fill="#DEDB89" points="772.37,170.374 817.937,170.18 818.351,124.687 			"/>
		</g>
		<g>
			<polygon fill="#DEE899" points="864.04,-12.127 817.937,-12.399 818.206,33.707 			"/>
			<polygon fill="#EEF1BB" points="818.239,33.845 817.937,-12.188 772.407,-11.993 			"/>
		</g>
		<polygon fill="#E4ECA4" points="635.726,34.142 590.159,33.946 589.745,-11.547 		"/>
		<g>
			<polygon fill="#DEDB89" points="589.745,79.652 635.849,79.379 635.581,125.486 			"/>
			<polygon fill="#E5EEB9" points="635.548,125.624 635.849,79.591 681.38,79.786 			"/>
			<polygon fill="#EEEE99" points="635.579,34.061 635.849,79.591 589.745,79.896 			"/>
			<polygon fill="#EEEE99" points="681.417,79.786 635.849,79.591 635.437,34.098 			"/>
		</g>
		<g>
			<polygon fill="#E4ECA4" points="590.087,171.269 590.39,125.235 635.919,125.431 			"/>
			<polygon fill="#EFF1B0" points="635.956,125.431 590.39,125.235 589.976,79.742 			"/>
		</g>
		<polygon fill="#EDF0B5" points="635.538,34.051 681.644,33.779 681.374,79.886 		"/>
		<polygon fill="#DEE899" points="681.341,80.023 681.644,33.99 727.173,34.186 		"/>
		<polygon fill="#EEEE99" points="681.372,-11.54 681.644,33.99 635.538,34.296 		"/>
		<polygon fill="#EEEE99" points="727.21,34.186 681.644,33.99 681.229,-11.503 		"/>
		<g>
			<polygon fill="#EFF1B0" points="681.229,79.695 727.333,79.423 727.063,125.53 			"/>
			<polygon fill="#EEF1BB" points="727.032,125.668 727.333,79.635 772.864,79.83 			"/>
			<polygon fill="#E4ECA4" points="727.063,34.104 727.333,79.635 681.229,79.94 			"/>
			<polygon fill="#D9E8AE" points="772.901,79.83 727.333,79.635 726.921,34.142 			"/>
		</g>
		<g>
			<polygon fill="#EDF1BA" points="635.769,125.34 681.874,125.067 681.604,171.175 			"/>
			<polygon fill="#DEDB89" points="681.571,171.312 681.874,125.279 727.403,125.474 			"/>
			<polygon fill="#EFF1B0" points="681.603,79.749 681.874,125.279 635.769,125.585 			"/>
			<polygon fill="#E5EEB9" points="727.44,125.474 681.874,125.279 681.46,79.786 			"/>
		</g>
		<g>
			<polygon fill="#EEEF9C" points="635.767,125.138 636.036,170.668 589.935,170.974 			"/>
			<polygon fill="#E5EEB9" points="681.604,170.863 636.036,170.668 635.624,125.175 			"/>
		</g>
		<g>
			<polygon fill="#E6EDAD" points="589.935,-11.639 636.036,-11.911 635.767,34.196 			"/>
			<polygon fill="#EFF1B0" points="635.735,34.334 636.036,-11.699 681.567,-11.504 			"/>
		</g>
		<polygon fill="#EEF1BB" points="726.985,33.986 773.089,33.714 772.819,79.82 		"/>
		<polygon fill="#F2E58E" points="772.819,-11.605 773.089,33.926 726.985,34.23 		"/>
		<g>
			<polygon fill="#ECF0B2" points="727.216,125.275 773.319,125.003 773.05,171.109 			"/>
			<polygon fill="#EDF0B5" points="773.05,79.684 773.319,125.215 727.216,125.52 			"/>
		</g>
		<g>
			<polygon fill="#DEE899" points="727.212,125.072 727.483,170.604 681.38,170.908 			"/>
			<polygon fill="#DEE899" points="773.052,170.798 727.483,170.604 727.071,125.11 			"/>
		</g>
		<g>
			<polygon fill="#DEE899" points="681.38,-11.703 727.483,-11.976 727.214,34.131 			"/>
			<polygon fill="#EEF1BB" points="727.183,34.269 727.483,-11.765 773.015,-11.569 			"/>
		</g>
	</g>
</g>
<linearGradient id="SVGID_1_" gradientUnits="userSpaceOnUse" x1="617.4375" y1="194.1074" x2="618.7337" y2="37.7266">
	<stop  offset="0" style="stop-color:#D8E29E"/>
	<stop  offset="1" style="stop-color:#D8E29E;stop-opacity:0"/>
</linearGradient>
<rect x="-0.004" y="43.428" opacity="0.91" fill="url(#SVGID_1_)" width="1236.454" height="111.626"/>
<rect x="-21.786" y="-53.432" fill="#FFFFFF" width="1270.437" height="53.432"/>
<rect x="1198.17" y="-38.433" fill="#FFFFFF" width="69.979" height="248.987"/>
<rect x="-81.783" y="-38.433" fill="#FFFFFF" width="81.783" height="238.488"/>
</svg>
