<svg version="1.1" id="Layer_1" xmlns="http://www.w3.org/2000/svg" xmlns:xlink="http://www.w3.org/1999/xlink" x="0px" y="0px"
	 viewBox="0 0 1233.3 182.1" enable-background="new 0 0 1233.3 182.1" xml:space="preserve" width="100%" height="100%">
<polygon fill="#EDEE9B" points="274.3,45 320.4,44.7 320.1,90.9 "/>
<polygon fill="#DDE798" points="320.1,91 320.4,45 365.9,45.2 "/>
<polygon fill="#E3EBA3" points="320.1,-0.6 320.4,45 274.3,45.3 "/>
<polygon fill="#E6ECAD" points="365.9,45.2 320.4,45 319.9,-0.5 "/>
<g>
	<polygon fill="#E3EBA3" points="228.7,90.9 274.8,90.6 274.5,136.7 	"/>
	<polygon fill="#D3DD8D" points="274.5,136.8 274.8,90.8 320.3,91 	"/>
	<polygon fill="#EBF0BB" points="274.5,45.3 274.8,90.8 228.7,91.1 	"/>
	<polygon fill="#F5E481" points="320.4,91 274.8,90.8 274.4,45.3 	"/>
</g>
<g>
	<polygon fill="#F1E48D" points="319.9,90.7 366,90.4 365.8,136.5 	"/>
	<polygon fill="#DBE8AA" points="365.7,136.6 366,90.6 411.6,90.8 	"/>
	<polygon fill="#EBF0BB" points="365.8,45.1 366,90.6 319.9,90.9 	"/>
	<polygon fill="#F1E48D" points="411.6,90.8 366,90.6 365.6,45.1 	"/>
</g>
<g>
	<polygon fill="#D4E496" points="274.5,136.3 320.6,136 320.3,182.1 	"/>
	<polygon fill="#ECF0B9" points="320.3,182.3 320.6,136.2 366.1,136.4 	"/>
	<polygon fill="#EDEE9B" points="320.3,90.7 320.6,136.2 274.5,136.6 	"/>
	<polygon fill="#DDDA88" points="366.2,136.4 320.6,136.2 320.2,90.8 	"/>
</g>
<g>
	<polygon fill="#ECF0B9" points="182.9,45.1 229,44.8 228.8,90.9 	"/>
	<polygon fill="#EDEE9B" points="228.7,91 229,45 274.6,45.2 	"/>
	<polygon fill="#ECED9C" points="228.8,-0.5 229,45 182.9,45.3 	"/>
	<polygon fill="#F5E481" points="274.6,45.2 229,45 228.6,-0.5 	"/>
</g>
<g>
	<polygon fill="#E3EBA3" points="137.2,90.8 183.3,90.5 183.1,136.6 	"/>
	<polygon fill="#DEE599" points="183,136.8 183.3,90.7 228.9,90.9 	"/>
	<polygon fill="#E3EBA3" points="183.1,45.2 183.3,90.7 137.2,91 	"/>
	<polygon opacity="0.91" fill="#D7E19D" points="228.9,90.9 183.3,90.7 182.9,45.2 	"/>
</g>
<g>
	<polygon fill="#DEE599" points="183.1,136.3 229.2,136 228.9,182.1 	"/>
	<polygon fill="#E6ECAD" points="228.9,182.3 229.2,136.2 274.7,136.4 	"/>
	<polygon fill="#F8F3AB" points="228.9,90.7 229.2,136.2 183.1,136.5 	"/>
	<polygon fill="#D3DD8D" points="274.7,136.4 229.2,136.2 228.8,90.8 	"/>
</g>
<g>
	<polygon fill="#E3EBA3" points="274.5,136.1 274.7,181.6 228.6,181.9 	"/>
	<polygon fill="#D3DD8D" points="320.3,181.8 274.7,181.6 274.3,136.1 	"/>
</g>
<g>
	<polygon fill="#F3F1A9" points="228.6,-0.7 274.7,-0.9 274.5,45.2 	"/>
	<polygon fill="#EBF0BB" points="274.4,45.3 274.7,-0.7 320.3,-0.5 	"/>
</g>
<g>
	<polygon fill="#FFEC8E" points="137.1,-0.7 183.2,-0.9 182.9,45.2 	"/>
	<polygon fill="#F5E481" points="182.9,45.3 183.2,-0.7 228.7,-0.5 	"/>
</g>
<g>
	<polygon fill="#DDDA88" points="182.8,136.1 183.1,181.6 137,181.9 	"/>
	<polygon fill="#E3EBA3" points="228.6,181.8 183.1,181.6 182.6,136.1 	"/>
</g>
<g>
	<polygon fill="#EEF0B1" points="91.4,45.1 137.5,44.9 137.2,91 	"/>
	<polygon fill="#FFEC8E" points="137.2,91.1 137.5,45.1 183,45.3 	"/>
	<polygon fill="#D7E198" points="137.2,-0.5 137.5,45.1 91.4,45.4 	"/>
	<polygon fill="#DFE89D" points="183.1,45.3 137.5,45.1 137.1,-0.4 	"/>
</g>
<g>
	<polygon fill="#EDEE9B" points="91.7,136 137.8,135.7 137.5,181.8 	"/>
	<polygon fill="#DEE599" points="137.5,181.9 137.8,135.9 183.3,136.1 	"/>
	<polygon fill="#E6EDB3" points="137.5,90.4 137.8,135.9 91.7,136.2 	"/>
	<polygon fill="#DEE599" points="183.3,136.1 137.8,135.9 137.4,90.4 	"/>
</g>
<g>
	<polygon fill="#D7E198" points="45.8,90.8 91.9,90.5 91.7,136.6 	"/>
	<polygon fill="#EAEEAB" points="91.6,136.8 91.9,90.7 137.5,90.9 	"/>
	<polygon fill="#EAEEAB" points="91.7,45.2 91.9,90.7 45.8,91 	"/>
	<polygon fill="#E3EBA3" points="137.5,90.9 91.9,90.7 91.5,45.2 	"/>
</g>
<g>
	<polygon fill="#DFE89D" points="45.6,-0.8 91.8,-1.1 91.5,45 	"/>
	<polygon fill="#DEE599" points="91.5,45.2 91.8,-0.9 137.3,-0.7 	"/>
</g>
<g>
	<polygon fill="#EDEE9B" points="91.9,135.9 92.2,181.5 46.1,181.8 	"/>
	<polygon fill="#D7E198" points="137.8,181.6 92.2,181.5 91.8,136 	"/>
</g>
<g>
	<polygon fill="#D7E19D" points="45.8,91 46.1,44.9 91.6,45.1 	"/>
	<polygon fill="#EAEEAB" points="91.6,45.1 46.1,44.9 45.6,-0.6 	"/>
</g>
<g>
	<polygon fill="#D4E6AD" points="46,181.8 46.3,135.8 91.9,136 	"/>
	<polygon fill="#E0EAA7" points="91.9,136 46.3,135.8 45.9,90.3 	"/>
</g>
<polygon fill="#EBEFB1" points="365.7,45.1 411.8,44.8 411.6,90.9 "/>
<polygon fill="#EDEE9B" points="411.5,91 411.8,45 457.4,45.2 "/>
<polygon fill="#DDE798" points="411.6,-0.5 411.8,45 365.7,45.3 "/>
<polygon fill="#EEEFAA" points="457.4,45.2 411.8,45 411.4,-0.5 "/>
<g>
	<polygon fill="#DFDA89" points="411.4,90.7 457.5,90.4 457.3,136.5 	"/>
	<polygon fill="#EBEFB1" points="457.2,136.7 457.5,90.6 503.1,90.8 	"/>
	<polygon fill="#DDDA88" points="457.3,45.1 457.5,90.6 411.4,91 	"/>
	<polygon fill="#DDE798" points="503.1,90.8 457.5,90.6 457.1,45.2 	"/>
</g>
<g>
	<polygon fill="#DBE8AA" points="366,136.4 412.1,136.1 411.8,182.2 	"/>
	<polygon fill="#DDDA88" points="411.8,182.3 412.1,136.3 457.6,136.5 	"/>
	<polygon fill="#F1E48D" points="411.8,90.8 412.1,136.3 366,136.6 	"/>
	<polygon fill="#EEEFAA" points="457.6,136.5 412.1,136.3 411.7,90.8 	"/>
</g>
<g>
	<polygon fill="#ECEFB4" points="366,136.2 366.2,181.7 320.1,182 	"/>
	<polygon fill="#ECF0B9" points="411.8,181.9 366.2,181.7 365.8,136.2 	"/>
</g>
<g>
	<polygon fill="#EEEFAA" points="320.1,-0.6 366.2,-0.9 366,45.2 	"/>
	<polygon fill="#DBE8AA" points="365.9,45.3 366.2,-0.7 411.8,-0.5 	"/>
</g>
<polygon fill="#D1D37E" points="457.2,45 503.3,44.7 503,90.8 "/>
<polygon fill="#DDE798" points="503,-0.6 503.3,44.9 457.2,45.2 "/>
<g>
	<polygon fill="#D8E7AD" points="457.4,136.3 503.5,136 503.2,182.1 	"/>
	<polygon fill="#DDDA88" points="503.2,90.7 503.5,136.2 457.4,136.5 	"/>
</g>
<g>
	<polygon fill="#D1D37E" points="457.4,136.1 457.7,181.6 411.6,181.9 	"/>
	<polygon fill="#DDDA88" points="503.2,181.8 457.7,181.6 457.3,136.1 	"/>
</g>
<g>
	<polygon fill="#DDE798" points="411.6,-0.7 457.7,-1 457.4,45.1 	"/>
	<polygon fill="#EDF0BA" points="457.4,45.3 457.7,-0.8 503.2,-0.6 	"/>
</g>
<g>
	<polygon fill="#DAE7A3" points="0.2,136.6 0.5,90.6 46.1,90.8 	"/>
	<polygon fill="#E3EBA3" points="46.1,90.8 0.5,90.6 0.1,45.1 	"/>
</g>
<polygon fill="#EDEE9B" points="0.2,44.9 46.3,44.7 46,90.8 "/>
<polygon fill="#DAE7A3" points="46,-0.6 46.3,44.9 0.2,45.2 "/>
<g>
	<polygon fill="#EDEFA9" points="0.4,136.2 46.5,136 46.2,182.1 	"/>
	<polygon fill="#EDEE9B" points="46.2,90.6 46.5,136.2 0.4,136.5 	"/>
</g>
<g>
	<polygon opacity="0.91" fill="#E0EAA7" points="46.2,181.8 0.7,181.6 0.3,136.1 	"/>
</g>
<g>
	<g>
		<g>
			<polygon fill="#D7D885" points="0.4,45.2 0.7,-0.8 46.2,-0.6 			"/>
		</g>
	</g>
</g>
<polygon fill="#DFDA89" points="731.6,45.4 685.5,45.2 685.7,91.3 "/>
<polygon fill="#DFDA89" points="685.8,91.4 685.5,45.4 639.9,45.6 "/>
<polygon fill="#E3EBA3" points="685.7,-0.1 685.5,45.4 731.6,45.7 "/>
<polygon fill="#DFDA89" points="639.9,45.6 685.5,45.4 685.9,-0.1 "/>
<g>
	<polygon fill="#DFDA89" points="777.1,91.3 731,91 731.3,137.1 	"/>
	<polygon fill="#DFDA89" points="731.3,137.3 731,91.2 685.5,91.4 	"/>
	<polygon fill="#DCCD89" points="731.3,45.7 731,91.2 777.1,91.5 	"/>
	<polygon fill="#DDDA88" points="685.5,91.4 731,91.2 731.4,45.7 	"/>
</g>
<g>
	<polygon fill="#DDDA88" points="685.9,91.1 639.8,90.8 640,136.9 	"/>
	<polygon fill="#E4EDB8" points="640.1,137.1 639.8,91 594.2,91.2 	"/>
	<polygon fill="#EDED98" points="640,45.5 639.8,91 685.9,91.3 	"/>
	<polygon fill="#EDED98" points="594.2,91.2 639.8,91 640.2,45.5 	"/>
</g>
<g>
	<polygon fill="#DFDA89" points="731.3,136.7 685.2,136.5 685.5,182.6 	"/>
	<polygon fill="#E3EBA3" points="685.5,182.7 685.2,136.7 639.7,136.9 	"/>
	<polygon fill="#EDED98" points="685.5,91.1 685.2,136.7 731.3,137 	"/>
	<polygon fill="#EEF0AF" points="639.7,136.9 685.2,136.7 685.6,91.2 	"/>
</g>
<g>
	<polygon fill="#DDDA88" points="822.9,45.5 776.8,45.2 777,91.3 	"/>
	<polygon fill="#DFDA89" points="777.1,91.5 776.8,45.4 731.2,45.6 	"/>
	<polygon fill="#D4D184" points="777,-0.1 776.8,45.4 822.9,45.7 	"/>
	<polygon fill="#D3DD8D" points="731.2,45.6 776.8,45.4 777.2,-0.1 	"/>
</g>
<g>
	<polygon fill="#DFDA89" points="868.6,91.2 822.5,91 822.7,137.1 	"/>
	<polygon fill="#DDDA88" points="822.8,137.2 822.5,91.2 776.9,91.4 	"/>
	<polygon fill="#D4E6AD" points="822.7,45.6 822.5,91.2 868.6,91.5 	"/>
	<polygon opacity="0.91" fill="#D7E19D" points="776.9,91.4 822.5,91.2 822.9,45.7 	"/>
</g>
<g>
	<polygon opacity="0.91" fill="#CBC364" points="822.7,136.7 776.6,136.5 776.9,182.6 	"/>
	<polygon fill="#DCCD89" points="776.9,182.7 776.6,136.7 731.1,136.9 	"/>
	<polygon fill="#EDDA7F" points="776.9,91.1 776.6,136.7 822.7,137 	"/>
	<polygon fill="#DFDA89" points="731.1,136.9 776.6,136.7 777,91.2 	"/>
</g>
<g>
	<polygon fill="#EDED98" points="731.3,136.5 731.1,182.1 777.2,182.4 	"/>
	<polygon fill="#EDEE9B" points="685.5,182.3 731.1,182.1 731.5,136.6 	"/>
</g>
<g>
	<polygon fill="#DFDA85" points="777.2,-0.2 731.1,-0.5 731.3,45.6 	"/>
	<polygon fill="#E5ECAC" points="731.4,45.7 731.1,-0.3 685.5,-0.1 	"/>
</g>
<g>
	<polygon fill="#FFEC8E" points="868.7,-0.2 822.6,-0.5 822.9,45.6 	"/>
	<polygon fill="#DFDA89" points="822.9,45.7 822.6,-0.3 777.1,-0.1 	"/>
</g>
<g>
	<polygon opacity="0.91" fill="#C1BC56" points="823,136.5 822.8,182 868.9,182.3 	"/>
	<polygon fill="#DDE798" points="777.2,182.2 822.8,182 823.2,136.5 	"/>
</g>
<g>
	<polygon fill="#EDD06B" points="914.4,45.6 868.3,45.3 868.6,91.4 	"/>
	<polygon fill="#DFDA89" points="868.6,91.5 868.3,45.5 822.8,45.7 	"/>
	<polygon fill="#FFD852" points="868.6,0 868.3,45.5 914.4,45.8 	"/>
	<polygon fill="#FFD852" points="822.7,45.7 868.3,45.5 868.7,0 	"/>
</g>
<g>
	<polygon opacity="0.91" fill="#CBC364" points="914.1,136.4 868,136.1 868.3,182.2 	"/>
	<polygon fill="#DDE798" points="868.3,182.3 868,136.3 822.5,136.5 	"/>
	<polygon opacity="0.91" fill="#CBC364" points="868.3,90.8 868,136.3 914.1,136.6 	"/>
	<polygon opacity="0.91" fill="#CBC364" points="822.5,136.5 868,136.3 868.4,90.8 	"/>
</g>
<g>
	<polygon opacity="0.91" fill="#CBC364" points="960,91.2 913.9,91 914.1,137.1 	"/>
	<polygon opacity="0.91" fill="#C1BC56" points="914.2,137.2 913.9,91.2 868.3,91.4 	"/>
	<polygon fill="#DDD580" points="914.1,45.6 913.9,91.2 960,91.5 	"/>
	<polygon fill="#DDE798" points="868.3,91.4 913.9,91.2 914.3,45.7 	"/>
</g>
<g>
	<polygon fill="#DFDA89" points="960.2,-0.4 914.1,-0.6 914.3,45.5 	"/>
	<polygon fill="#D8D486" points="914.4,45.6 914.1,-0.4 868.5,-0.2 	"/>
</g>
<g>
	<polygon fill="#D7D288" points="913.9,136.3 913.6,181.9 959.7,182.2 	"/>
	<polygon opacity="0.91" fill="#CBC364" points="868,182.1 913.6,181.9 914,136.4 	"/>
</g>
<g>
	<polygon fill="#FFD852" points="960.1,91.4 959.8,45.4 914.2,45.6 	"/>
	<polygon opacity="0.91" fill="#CBC364" points="914.2,45.6 959.8,45.4 960.2,-0.1 	"/>
</g>
<g>
	<polygon opacity="0.91" fill="#C1BC56" points="959.8,182.2 959.5,136.2 914,136.4 	"/>
	<polygon opacity="0.91" fill="#CBC364" points="913.9,136.4 959.5,136.2 959.9,90.7 	"/>
</g>
<polygon fill="#ECEFB4" points="640.1,45.5 594,45.2 594.2,91.3 "/>
<polygon fill="#DDE798" points="594.3,91.5 594,45.4 548.4,45.6 "/>
<polygon fill="#EDED98" points="594.2,-0.1 594,45.4 640.1,45.7 "/>
<polygon fill="#EDED98" points="548.4,45.6 594,45.4 594.4,-0.1 "/>
<g>
	<polygon fill="#EEF0AF" points="594.4,91.1 548.3,90.9 548.6,137 	"/>
	<polygon fill="#EDF0BA" points="548.6,137.1 548.3,91.1 502.8,91.3 	"/>
	<polygon fill="#DDDA88" points="548.6,45.5 548.3,91.1 594.4,91.4 	"/>
	<polygon fill="#D8E7AD" points="502.7,91.3 548.3,91.1 548.7,45.6 	"/>
</g>
<g>
	<polygon fill="#ECF0B9" points="639.8,136.8 593.7,136.5 594,182.6 	"/>
	<polygon fill="#DDDA88" points="594,182.7 593.7,136.7 548.2,136.9 	"/>
	<polygon fill="#EEF0AF" points="594,91.2 593.7,136.7 639.8,137 	"/>
	<polygon fill="#E4EDB8" points="548.2,136.9 593.7,136.7 594.2,91.2 	"/>
</g>
<g>
	<polygon fill="#EDEE9B" points="639.9,136.6 639.6,182.1 685.7,182.4 	"/>
	<polygon fill="#E4EDB8" points="594,182.3 639.6,182.1 640,136.6 	"/>
</g>
<g>
	<polygon fill="#E5ECAC" points="685.7,-0.2 639.6,-0.5 639.8,45.6 	"/>
	<polygon fill="#EEF0AF" points="639.9,45.8 639.6,-0.3 594,-0.1 	"/>
</g>
<polygon fill="#EDF0BA" points="548.6,45.4 502.5,45.2 502.8,91.3 "/>
<polygon fill="#F1E48D" points="502.8,-0.2 502.5,45.4 548.6,45.7 "/>
<g>
	<polygon fill="#EBEFB1" points="548.4,136.7 502.3,136.4 502.6,182.5 	"/>
	<polygon fill="#ECEFB4" points="502.6,91.1 502.3,136.7 548.4,137 	"/>
</g>
<g>
	<polygon fill="#DDE798" points="548.4,136.5 548.1,182 594.2,182.3 	"/>
	<polygon fill="#DDE798" points="502.6,182.2 548.1,182 548.5,136.5 	"/>
</g>
<g>
	<polygon fill="#DDE798" points="594.2,-0.3 548.1,-0.5 548.4,45.6 	"/>
	<polygon fill="#EDF0BA" points="548.4,45.7 548.1,-0.3 502.6,-0.1 	"/>
</g>
<g>
	<polygon opacity="0.91" fill="#CBC364" points="1005.6,137.1 1005.3,91 959.8,91.2 	"/>
	<polygon fill="#CBC364" points="959.7,91.2 1005.3,91 1005.7,45.5 	"/>
</g>
<polygon fill="#D3B55E" points="1005.6,45.4 959.5,45.1 959.8,91.2 "/>
<polygon fill="#DDD580" points="959.8,-0.2 959.5,45.3 1005.6,45.6 "/>
<g>
	<polygon fill="#AD9851" points="1005.4,136.7 959.3,136.4 959.6,182.5 	"/>
	<polygon opacity="0.91" fill="#C1BC56" points="959.6,91.1 959.3,136.6 1005.4,136.9 	"/>
</g>
<g>
	<g>
		<g>
			<polygon fill="#C7AC4A" points="959.6,182.2 1005.1,182 1005.6,136.5 			"/>
		</g>
	</g>
</g>
<g>
	<polygon fill="#D4D184" points="1005.4,45.7 1005.1,-0.4 959.6,-0.2 	"/>
</g>
<g>
	<polygon fill="#544727" points="1187.6,45.3 1233.7,45 1233.4,91.1 	"/>
	<polygon fill="#83723C" points="1233.4,-0.3 1233.7,45.2 1187.6,45.5 	"/>
</g>
<g>
	<polygon fill="#BA9F4F" points="1141.9,91 1188,90.8 1187.7,136.9 	"/>
	<polygon fill="#7F692F" points="1187.7,137 1188,91 1233.5,91.2 	"/>
	<polygon fill="#D0AD55" points="1187.7,45.4 1188,91 1141.9,91.3 	"/>
	<polygon fill="#CFB247" points="1233.6,91.2 1188,91 1187.6,45.5 	"/>
</g>
<g>
	<polygon fill="#544727" points="1187.7,136.5 1233.8,136.3 1233.6,182.4 	"/>
	<polygon fill="#83723C" points="1233.6,90.9 1233.8,136.5 1187.7,136.8 	"/>
</g>
<g>
	<polygon fill="#E4C167" points="1141.7,-0.4 1187.8,-0.7 1187.6,45.4 	"/>
	<polygon fill="#D0AD55" points="1187.5,45.5 1187.8,-0.5 1233.4,-0.3 	"/>
</g>
<g>
	<g>
		<g>
			<polygon fill="#83723C" points="1187.4,136.3 1187.7,181.8 1141.6,182.1 			"/>
		</g>
		<g>
			<polygon fill="#544727" points="1233.3,182 1187.7,181.8 1187.3,136.3 			"/>
		</g>
	</g>
</g>
<g>
	<polygon fill="#AD9851" points="1096.1,45.4 1142.2,45.1 1141.9,91.2 	"/>
	<polygon fill="#E4C167" points="1141.9,91.3 1142.2,45.3 1187.7,45.5 	"/>
	<polygon fill="#C7AC4A" points="1141.9,-0.2 1142.2,45.3 1096.1,45.6 	"/>
	<polygon fill="#B69849" points="1187.7,45.5 1142.2,45.3 1141.7,-0.2 	"/>
</g>
<g>
	<polygon fill="#D0AD55" points="1096.3,136.2 1142.4,135.9 1142.2,182 	"/>
	<polygon fill="#E4C167" points="1142.1,182.2 1142.4,136.1 1188,136.3 	"/>
	<polygon fill="#BA9F4F" points="1142.2,90.6 1142.4,136.1 1096.3,136.4 	"/>
	<polygon fill="#CFB247" points="1188,136.3 1142.4,136.1 1142,90.6 	"/>
</g>
<g>
	<polygon fill="#E4C167" points="1050.5,91 1096.6,90.8 1096.3,136.9 	"/>
	<polygon fill="#C7AC4A" points="1096.3,137 1096.6,91 1142.1,91.2 	"/>
	<polygon fill="#AD9851" points="1096.3,45.4 1096.6,91 1050.5,91.3 	"/>
	<polygon fill="#B2954B" points="1142.2,91.2 1096.6,91 1096.2,45.5 	"/>
</g>
<g>
	<polygon fill="#CBB356" points="1050.3,-0.6 1096.4,-0.8 1096.1,45.3 	"/>
	<polygon fill="#C8BE75" points="1096.1,45.4 1096.4,-0.6 1141.9,-0.4 	"/>
</g>
<g>
	<polygon fill="#D0AD55" points="1096.6,136.1 1096.9,181.7 1050.8,182 	"/>
	<polygon fill="#E4C167" points="1142.4,181.9 1096.9,181.7 1096.4,136.2 	"/>
</g>
<g>
	<polygon fill="#C8BE75" points="1050.4,91.2 1050.7,45.2 1096.2,45.4 	"/>
	<polygon fill="#D8B558" points="1096.3,45.4 1050.7,45.2 1050.3,-0.3 	"/>
</g>
<g>
	<polygon fill="#B2954B" points="1050.7,182 1051,136 1096.5,136.2 	"/>
	<polygon fill="#C7AC4A" points="1096.5,136.2 1051,136 1050.6,90.5 	"/>
</g>
<g>
	<polygon fill="#C8BE75" points="1004.9,136.9 1005.2,90.8 1050.7,91 	"/>
	<polygon opacity="0.91" fill="#C1BC56" points="1050.7,91 1005.2,90.8 1004.8,45.3 	"/>
</g>
<polygon fill="#BA9F4F" points="1004.8,45.2 1050.9,44.9 1050.7,91 "/>
<polygon fill="#D2BB59" points="1050.7,-0.4 1050.9,45.1 1004.8,45.4 "/>
<g>
	<polygon fill="#E4C167" points="1005.1,136.5 1051.2,136.2 1050.9,182.3 	"/>
	<polygon fill="#AF924F" points="1050.9,90.9 1051.2,136.4 1005.1,136.7 	"/>
</g>
<g>
	<g>
		<g>
			<polygon fill="#BA9F4F" points="1050.9,182 1005.3,181.8 1004.9,136.3 			"/>
		</g>
	</g>
</g>
<g opacity="0.91">
	<polygon fill="#CBC364" points="1005,45.5 1005.3,-0.6 1050.8,-0.4 	"/>
</g>
</svg>
