<?xml version="1.0" encoding="utf-8"?>
<!-- Generator: Adobe Illustrator 18.0.0, SVG Export Plug-In . SVG Version: 6.00 Build 0)  -->
<!DOCTYPE svg PUBLIC "-//W3C//DTD SVG 1.1//EN" "http://www.w3.org/Graphics/SVG/1.1/DTD/svg11.dtd">
<svg version="1.1" id="Layer_1" xmlns="http://www.w3.org/2000/svg" xmlns:xlink="http://www.w3.org/1999/xlink" x="0px" y="0px"
	 viewBox="0 0 1233.8 271.2" enable-background="new 0 0 1233.8 271.2" xml:space="preserve">
<path fill="none" d="M666.4,153.2"/>
<path fill="none" d="M674.4,126.4"/>
<g>
	<defs>
		<rect id="SVGID_1_" y="0" width="1233.8" height="272.2"/>
	</defs>
	<clipPath id="SVGID_2_">
		<use xlink:href="#SVGID_1_"  overflow="visible"/>
	</clipPath>
	<g clip-path="url(#SVGID_2_)">
		<g>
			<g>
				<g>
					<polygon fill="#E4ECA4" points="220.3,-26.6 267.4,-26.9 267.1,20.2 					"/>
					<polygon fill="#DFE69A" points="267.1,20.3 267.4,-26.7 313.9,-26.5 					"/>
				</g>
				<g>
					<polygon fill="#DEE899" points="313.5,-26.8 360.6,-27.1 360.3,20 					"/>
					<polygon fill="#DCE9AB" points="360.2,20.1 360.6,-26.9 407,-26.7 					"/>
				</g>
				<g>
					<polygon fill="#F2E58E" points="267.1,19.8 314.1,19.5 313.9,66.5 					"/>
					<polygon fill="#EEEF9C" points="313.8,66.7 314.1,19.7 360.6,19.9 					"/>
					<polygon fill="#E4ECA4" points="313.9,-26.7 314.1,19.7 267.1,20 					"/>
					<polygon fill="#DCE9AB" points="360.7,19.9 314.1,19.7 313.7,-26.7 					"/>
				</g>
				<g>
					<polygon fill="#DFE69A" points="127,-26.6 174,-26.9 173.8,20.1 					"/>
					<polygon fill="#E4ECA4" points="173.7,20.2 174,-26.7 220.5,-26.5 					"/>
				</g>
				<g>
					<polygon fill="#E4ECA4" points="173.8,19.8 220.8,19.5 220.6,66.5 					"/>
					<polygon fill="#EEEF9C" points="220.5,66.7 220.8,19.7 267.3,19.9 					"/>
					<polygon fill="#D8E299" points="220.6,-26.7 220.8,19.7 173.8,20 					"/>
					<polygon fill="#EDEE9D" points="267.4,19.9 220.8,19.7 220.4,-26.7 					"/>
				</g>
				<g>
					<polygon fill="#E0E99E" points="267.1,19.6 267.4,66 220.3,66.3 					"/>
					<polygon fill="#EEEF9C" points="313.9,66.2 267.4,66 266.9,19.6 					"/>
				</g>
				<g>
					<polygon fill="#D8E299" points="173.5,19.5 173.8,65.9 126.7,66.3 					"/>
					<polygon fill="#E4ECA4" points="220.3,66.1 173.8,65.9 173.3,19.5 					"/>
				</g>
				<g>
					<polygon fill="#DFE69A" points="80.5,19.4 127.5,19.1 127.3,66.2 					"/>
					<polygon fill="#FFED8F" points="127.2,66.3 127.5,19.3 174,19.5 					"/>
					<polygon fill="#E1EBA8" points="127.3,-27.1 127.5,19.3 80.5,19.7 					"/>
					<polygon fill="#D4DE8E" points="174,19.5 127.5,19.3 127.1,-27.1 					"/>
				</g>
				<g>
					<polygon fill="#F6E582" points="33.7,-26.6 80.7,-26.9 80.5,20.1 					"/>
					<polygon fill="#D8E299" points="80.4,20.2 80.7,-26.7 127.2,-26.5 					"/>
				</g>
				<g>
					<polygon fill="#F6E582" points="80.7,19.4 81,65.8 33.9,66.1 					"/>
					<polygon fill="#D8E299" points="127.5,66 81,65.8 80.6,19.4 					"/>
				</g>
				<g>
					<polygon fill="#DEE899" points="33.9,66.2 34.2,19.2 80.7,19.4 					"/>
					<polygon fill="#E3D981" points="80.7,19.4 34.2,19.2 33.8,-27.2 					"/>
				</g>
				<g>
					<polygon fill="#D9E8AE" points="406.9,-26.7 453.9,-27 453.7,20 					"/>
					<polygon fill="#EFF0AB" points="453.6,20.1 453.9,-26.8 500.4,-26.6 					"/>
				</g>
				<g>
					<polygon fill="#D9E8AE" points="360.5,19.8 407.5,19.5 407.3,66.6 					"/>
					<polygon fill="#DEE899" points="407.2,66.7 407.5,19.8 454,20 					"/>
					<polygon fill="#E7EDAE" points="407.3,-26.7 407.5,19.8 360.5,20.1 					"/>
					<polygon fill="#DEE899" points="454.1,20 407.5,19.8 407.1,-26.7 					"/>
				</g>
				<g>
					<polygon fill="#F2E58E" points="360.5,19.6 360.7,66 313.7,66.4 					"/>
					<polygon fill="#EEEF9C" points="407.3,66.2 360.7,66 360.3,19.6 					"/>
				</g>
				<g>
					<polygon fill="#F2E58E" points="453.8,19.7 500.9,19.5 500.6,66.5 					"/>
					<polygon fill="#EEEF9C" points="500.6,-26.8 500.9,19.7 453.8,20 					"/>
				</g>
				<g>
					<polygon fill="#DEE899" points="453.8,19.5 454.1,66 407,66.3 					"/>
					<polygon fill="#F6E582" points="500.6,66.2 454.1,66 453.7,19.6 					"/>
				</g>
				<g>
					<polygon fill="#DEDB89" points="-12.9,20.1 -12.6,-26.9 33.9,-26.7 					"/>
				</g>
				<g>
					<polygon fill="#DFE69A" points="-12.7,19.7 34.4,19.4 34.1,66.4 					"/>
					<polygon fill="#D8D986" points="34.1,-26.8 34.4,19.6 -12.7,19.9 					"/>
				</g>
				<g>
					<polygon opacity="0.91" fill="#DBD686" enable-background="new    " points="34.1,66.1 -12.4,65.9 -12.9,19.5 					"/>
				</g>
				<g>
					<polygon fill="#D8D389" points="780.4,-26.2 733.4,-26.4 733.6,20.6 					"/>
					<polygon fill="#E0DB8A" points="733.7,20.7 733.4,-26.2 686.9,-26 					"/>
				</g>
				<g>
					<polygon fill="#E6EDAD" points="687.3,-26.4 640.2,-26.6 640.5,20.4 					"/>
					<polygon fill="#EFF1B0" points="640.5,20.5 640.2,-26.4 593.7,-26.2 					"/>
				</g>
				<g>
					<polygon fill="#EDEE9D" points="733.7,20.2 686.6,19.9 686.9,67 					"/>
					<polygon fill="#EEEE99" points="686.9,67.1 686.6,20.1 640.1,20.3 					"/>
					<polygon fill="#EDEE9D" points="686.9,-26.3 686.6,20.1 733.7,20.5 					"/>
					<polygon fill="#EFF1B0" points="640.1,20.3 686.6,20.1 687,-26.3 					"/>
				</g>
				<g>
					<polygon fill="#E0DB86" points="873.8,-26.2 826.7,-26.5 827,20.5 					"/>
					<polygon fill="#DEDB89" points="827,20.7 826.7,-26.3 780.2,-26.1 					"/>
				</g>
				<g>
					<polygon fill="#D8D389" points="827,20.2 779.9,19.9 780.2,66.9 					"/>
					<polygon fill="#E0DB86" points="780.2,67.1 779.9,20.1 733.4,20.3 					"/>
					<polygon fill="#EEDB7F" points="780.2,-26.3 779.9,20.1 827,20.4 					"/>
					<polygon fill="#E0DB8A" points="733.4,20.3 779.9,20.1 780.3,-26.3 					"/>
				</g>
				<g>
					<polygon fill="#DEDB89" points="733.7,20 733.4,66.4 780.5,66.7 					"/>
					<polygon fill="#E9D776" points="686.9,66.6 733.4,66.4 733.8,20 					"/>
				</g>
				<g>
					<polygon fill="#DBD47F" points="827.3,19.9 827,66.4 874.1,66.7 					"/>
					<polygon fill="#E9D776" points="780.5,66.6 827,66.4 827.4,20 					"/>
				</g>
				<g>
					<polygon fill="#D9D587" points="920.3,19.8 873.2,19.6 873.5,66.6 					"/>
					<polygon fill="#EED16B" points="873.5,66.7 873.2,19.8 826.7,20 					"/>
					<polygon fill="#E0D37A" points="873.5,-26.7 873.2,19.8 920.3,20.1 					"/>
					<polygon fill="#DBD47F" points="826.7,20 873.2,19.8 873.7,-26.6 					"/>
				</g>
				<g>
					<polygon fill="#D1CC7B" points="967.1,-26.2 920,-26.5 920.3,20.5 					"/>
					<polygon fill="#D1CC7B" points="920.3,20.7 920,-26.3 873.5,-26.1 					"/>
				</g>
				<g>
					<polygon fill="#E5C84D" points="920,19.8 919.7,66.2 966.8,66.6 					"/>
					<polygon fill="#DBC468" points="873.2,66.4 919.7,66.2 920.2,19.8 					"/>
				</g>
				<g>
					<polygon fill="#D4B65E" points="966.9,66.6 966.6,19.6 920.1,19.8 					"/>
					<polygon fill="#D3BC59" points="920.1,19.8 966.6,19.6 967,-26.8 					"/>
				</g>
				<g>
					<polygon fill="#E5EEB9" points="593.9,-26.3 546.8,-26.6 547.1,20.4 					"/>
					<polygon fill="#F9F4AC" points="547.1,20.6 546.8,-26.4 500.3,-26.2 					"/>
				</g>
				<g>
					<polygon fill="#E5EEB9" points="640.3,20.2 593.2,20 593.5,67 					"/>
					<polygon fill="#EFF0AB" points="593.5,67.1 593.2,20.2 546.7,20.4 					"/>
					<polygon fill="#EEF1BB" points="593.5,-26.3 593.2,20.2 640.3,20.5 					"/>
					<polygon fill="#EEEE99" points="546.7,20.4 593.2,20.2 593.6,-26.2 					"/>
				</g>
				<g>
					<polygon fill="#EEEE99" points="640.3,20 640,66.5 687.1,66.8 					"/>
					<polygon fill="#EDF0B5" points="593.5,66.7 640,66.5 640.4,20.1 					"/>
				</g>
				<g>
					<polygon fill="#F9F4AC" points="546.9,20.2 499.9,19.9 500.1,66.9 					"/>
					<polygon fill="#EEF1BB" points="500.1,-26.3 499.9,20.1 546.9,20.4 					"/>
				</g>
				<g>
					<polygon fill="#EEF1BB" points="546.9,20 546.7,66.4 593.7,66.7 					"/>
					<polygon fill="#ECF0B2" points="500.1,66.6 546.7,66.4 547.1,20 					"/>
				</g>
				<g>
					<polygon fill="#E8B433" points="1013.7,20.5 1013.3,-26.4 966.9,-26.2 					"/>
				</g>
				<g>
					<polygon fill="#CCAE5D" points="1013.5,20.1 966.4,19.8 966.7,66.9 					"/>
					<polygon fill="#D9B658" points="966.7,-26.4 966.4,20.1 1013.5,20.4 					"/>
				</g>
				<g>
					<g>
						<g>
							<polygon fill="#D9B658" points="966.7,66.6 1013.2,66.4 1013.6,20 							"/>
						</g>
					</g>
				</g>
				<polygon fill="#F7DD6F" points="267,112.1 314,111.8 313.7,158.8 				"/>
				<polygon fill="#EED16B" points="313.7,158.9 314,112 360.5,112.2 				"/>
				<polygon fill="#F2E58E" points="313.7,65.6 314,112 267,112.3 				"/>
				<polygon fill="#F6E582" points="360.5,112.2 314,112 313.6,65.6 				"/>
				<g>
					<polygon fill="#E4ECA4" points="220.4,158.8 267.5,158.5 267.2,205.6 					"/>
					<polygon fill="#FEDF55" points="267.2,205.7 267.5,158.7 314,158.9 					"/>
					<polygon fill="#EED16B" points="267.2,112.3 267.5,158.7 220.4,159.1 					"/>
					<polygon fill="#FEDF55" points="314,158.9 267.5,158.7 267.1,112.3 					"/>
				</g>
				<g>
					<polygon fill="#FCC956" points="313.6,158.6 360.7,158.3 360.4,205.4 					"/>
					<polygon fill="#FEDF55" points="360.4,205.5 360.7,158.6 407.1,158.8 					"/>
					<polygon fill="#F7DD6F" points="360.4,112.1 360.7,158.6 313.6,158.9 					"/>
					<polygon fill="#FEDF55" points="407.2,158.8 360.7,158.6 360.2,112.1 					"/>
				</g>
				<g>
					<polygon fill="#D5E597" points="267.2,205.2 314.3,204.9 314,251.9 					"/>
					<polygon fill="#EEEF9C" points="314,252.1 314.3,205.1 360.7,205.3 					"/>
					<polygon fill="#EED16B" points="314,158.7 314.3,205.1 267.2,205.4 					"/>
					<polygon fill="#FEDF55" points="360.8,205.3 314.3,205.1 313.8,158.7 					"/>
				</g>
				<g>
					<polygon fill="#F7DD6F" points="173.7,112.1 220.8,111.8 220.5,158.9 					"/>
					<polygon fill="#FEDF55" points="220.5,159 220.8,112.1 267.3,112.2 					"/>
					<polygon fill="#F2E58E" points="220.5,65.6 220.8,112.1 173.7,112.4 					"/>
					<polygon fill="#F7DD6F" points="267.3,112.2 220.8,112.1 220.4,65.6 					"/>
				</g>
				<g>
					<polygon fill="#FEDF55" points="127.1,158.8 174.2,158.5 173.9,205.5 					"/>
					<polygon fill="#FEDF55" points="173.8,205.6 174.2,158.7 220.6,158.9 					"/>
					<polygon fill="#F6E582" points="173.9,112.2 174.2,158.7 127.1,159 					"/>
					<polygon fill="#FEDF55" points="220.7,158.9 174.2,158.7 173.7,112.3 					"/>
				</g>
				<g>
					<polygon fill="#DFE69A" points="173.9,205.2 221,204.9 220.7,251.9 					"/>
					<polygon fill="#E7EDAE" points="220.6,252.1 221,205.1 267.4,205.3 					"/>
					<polygon fill="#F9F4AC" points="220.7,158.7 221,205.1 173.9,205.4 					"/>
					<polygon fill="#EDEE9D" points="267.5,205.3 221,205.1 220.5,158.7 					"/>
				</g>
				<g>
					<polygon fill="#E4ECA4" points="267.2,205 267.5,251.4 220.4,251.7 					"/>
					<polygon fill="#D4DE8E" points="314,251.6 267.5,251.4 267,205 					"/>
				</g>
				<g>
					<polygon fill="#F6E582" points="220.4,65.5 267.5,65.2 267.2,112.2 					"/>
					<polygon fill="#F2E58E" points="267.2,112.3 267.5,65.4 313.9,65.6 					"/>
				</g>
				<g>
					<polygon fill="#D4DE8E" points="126.9,65.5 174,65.2 173.7,112.2 					"/>
					<polygon fill="#DEE899" points="173.7,112.3 174,65.4 220.5,65.6 					"/>
				</g>
				<g>
					<polygon fill="#DEDB89" points="173.6,204.9 173.9,251.3 126.8,251.7 					"/>
					<polygon fill="#D4DE8E" points="220.4,251.5 173.9,251.3 173.4,204.9 					"/>
				</g>
				<g>
					<polygon fill="#DEDB89" points="80.3,112.2 127.4,111.9 127.1,158.9 					"/>
					<polygon fill="#E8D587" points="127.1,159.1 127.4,112.1 173.8,112.3 					"/>
					<polygon fill="#EDEE9D" points="127.1,65.7 127.4,112.1 80.3,112.4 					"/>
					<polygon fill="#E0E99E" points="173.9,112.3 127.4,112.1 126.9,65.7 					"/>
				</g>
				<g>
					<polygon fill="#FEDF55" points="80.6,204.8 127.6,204.5 127.4,251.6 					"/>
					<polygon fill="#DEDB89" points="127.3,251.7 127.6,204.7 174.1,204.9 					"/>
					<polygon fill="#FEDF55" points="127.4,158.3 127.6,204.7 80.6,205.1 					"/>
					<polygon fill="#CCB456" points="174.2,204.9 127.6,204.7 127.2,158.3 					"/>
				</g>
				<g>
					<polygon fill="#DBD273" points="33.8,158.8 80.8,158.5 80.6,205.5 					"/>
					<polygon fill="#DBD273" points="80.5,205.6 80.8,158.7 127.3,158.9 					"/>
					<polygon fill="#DEDB89" points="80.6,112.2 80.8,158.7 33.8,159 					"/>
					<polygon fill="#E3D981" points="127.4,158.9 80.8,158.7 80.4,112.3 					"/>
				</g>
				<g>
					<polygon fill="#EDEE9D" points="33.6,65.3 80.7,65 80.4,112.1 					"/>
					<polygon fill="#DFE69A" points="80.3,112.2 80.7,65.3 127.1,65.5 					"/>
				</g>
				<g>
					<polygon fill="#FEDF55" points="80.8,204.8 81.1,251.2 34.1,251.5 					"/>
					<polygon fill="#CCB456" points="127.6,251.4 81.1,251.2 80.7,204.8 					"/>
				</g>
				<g>
					<polygon fill="#DBD686" points="33.7,158.9 34,112 80.5,112.2 					"/>
					<polygon fill="#D4DE8E" points="80.5,112.2 34,112 33.6,65.6 					"/>
				</g>
				<g>
					<polygon fill="#CCB456" points="34,251.6 34.3,204.6 80.8,204.8 					"/>
					<polygon fill="#E9D97E" points="80.8,204.8 34.3,204.6 33.9,158.2 					"/>
				</g>
				<polygon fill="#F7DD6F" points="360.3,112.1 407.4,111.8 407.1,158.9 				"/>
				<polygon fill="#EEEF9C" points="407.1,159 407.4,112 453.9,112.2 				"/>
				<polygon fill="#F2E58E" points="407.1,65.6 407.4,112 360.3,112.4 				"/>
				<polygon fill="#F6E582" points="453.9,112.2 407.4,112 407,65.6 				"/>
				<g>
					<polygon fill="#EEEF9C" points="407,158.7 454.1,158.4 453.8,205.4 					"/>
					<polygon fill="#ECF0B2" points="453.7,205.6 454.1,158.6 500.5,158.8 					"/>
					<polygon opacity="0.91" fill="#D8E29E" enable-background="new    " points="453.8,112.2 454.1,158.6 407,158.9 					"/>
					<polygon fill="#DEE899" points="500.6,158.8 454.1,158.6 453.6,112.2 					"/>
				</g>
				<g>
					<polygon fill="#DCE9AB" points="360.6,205.2 407.6,204.9 407.4,252 					"/>
					<polygon fill="#DEE899" points="407.3,252.1 407.6,205.2 454.1,205.4 					"/>
					<polygon fill="#F2E58E" points="407.4,158.7 407.6,205.2 360.6,205.5 					"/>
					<polygon fill="#EFF0AB" points="454.2,205.4 407.6,205.2 407.2,158.8 					"/>
				</g>
				<g>
					<polygon fill="#EDF0B5" points="360.6,205 360.9,251.5 313.8,251.8 					"/>
					<polygon fill="#EEEF9C" points="407.4,251.6 360.9,251.5 360.4,205 					"/>
				</g>
				<g>
					<polygon fill="#F2E58E" points="313.8,65.5 360.9,65.2 360.6,112.2 					"/>
					<polygon fill="#F6E582" points="360.5,112.4 360.9,65.4 407.3,65.6 					"/>
				</g>
				<polygon fill="#EEEF9C" points="453.7,112 500.8,111.8 500.5,158.8 				"/>
				<polygon fill="#EEEE99" points="500.5,65.5 500.8,112 453.7,112.3 				"/>
				<g>
					<polygon fill="#D9E8AE" points="453.9,205.2 501,204.9 500.7,251.9 					"/>
					<polygon opacity="0.91" fill="#D8E29E" enable-background="new    " points="500.7,158.6 501,205.1 453.9,205.4 					"/>
				</g>
				<g>
					<polygon fill="#DFE69A" points="453.9,204.9 454.2,251.4 407.1,251.7 					"/>
					<polygon fill="#EEEE99" points="500.7,251.6 454.2,251.4 453.8,205 					"/>
				</g>
				<g>
					<polygon fill="#F6E582" points="407.1,65.4 454.2,65.2 453.9,112.2 					"/>
					<polygon fill="#EEEF9C" points="453.9,112.3 454.2,65.4 500.7,65.6 					"/>
				</g>
				<g>
					<polygon fill="#DFE69A" points="-12.8,205.5 -12.5,158.5 34,158.7 					"/>
					<polygon fill="#DEDE8D" points="34,158.7 -12.5,158.5 -12.9,112.1 					"/>
				</g>
				<polygon fill="#E3D981" points="-12.8,112 34.2,111.7 34,158.7 				"/>
				<polygon fill="#DEDB89" points="34,65.5 34.2,111.9 -12.8,112.2 				"/>
				<g>
					<polygon fill="#DBD686" points="-12.6,205.1 34.5,204.8 34.2,251.8 					"/>
					<polygon fill="#E3D981" points="34.2,158.6 34.5,205 -12.6,205.3 					"/>
				</g>
				<g>
					<polygon opacity="0.91" fill="#E9D97E" enable-background="new    " points="34.2,251.5 -12.3,251.3 -12.7,204.9 					"/>
				</g>
				<g>
					<g>
						<g>
							<polygon fill="#D8D986" points="-12.6,112.3 -12.3,65.3 34.2,65.5 							"/>
						</g>
					</g>
				</g>
				<polygon fill="#E0DB8A" points="733.8,112.5 686.7,112.2 687,159.2 				"/>
				<polygon fill="#E0DB8A" points="687,159.4 686.7,112.4 640.3,112.6 				"/>
				<polygon fill="#D8D389" points="687,66 686.7,112.4 733.8,112.7 				"/>
				<polygon fill="#E0DB8A" points="640.2,112.6 686.7,112.4 687.2,66 				"/>
				<g>
					<polygon fill="#EED16B" points="780.3,159.2 733.3,159 733.5,206 					"/>
					<polygon fill="#E0DB8A" points="733.6,206.1 733.3,159.2 686.8,159.4 					"/>
					<polygon fill="#DDCD8A" points="733.5,112.7 733.3,159.2 780.3,159.5 					"/>
					<polygon fill="#DEDB89" points="686.7,159.4 733.3,159.2 733.7,112.8 					"/>
				</g>
				<g>
					<polygon fill="#EEEF9C" points="687.2,159 640.1,158.8 640.4,205.8 					"/>
					<polygon fill="#E5EEB9" points="640.4,205.9 640.1,159 593.6,159.2 					"/>
					<polygon fill="#EEEE99" points="640.4,112.5 640.1,159 687.2,159.3 					"/>
					<polygon fill="#EEEE99" points="593.6,159.2 640.1,159 640.5,112.6 					"/>
				</g>
				<g>
					<polygon fill="#EFF1B0" points="733.6,205.6 686.5,205.3 686.8,252.4 					"/>
					<polygon fill="#E4ECA4" points="686.8,252.5 686.5,205.5 640,205.7 					"/>
					<polygon fill="#EEEE99" points="686.8,159.1 686.5,205.5 733.6,205.9 					"/>
					<polygon fill="#EFF1B0" points="640,205.7 686.5,205.5 686.9,159.1 					"/>
				</g>
				<g>
					<polygon fill="#DEDB89" points="827,112.5 780,112.3 780.2,159.3 					"/>
					<polygon fill="#E0DB8A" points="780.3,159.4 780,112.5 733.5,112.7 					"/>
					<polygon fill="#D5D285" points="780.2,66 780,112.5 827,112.8 					"/>
					<polygon fill="#D4DE8E" points="733.4,112.7 780,112.5 780.4,66.1 					"/>
				</g>
				<g>
					<polygon fill="#D9D587" points="873.7,159.2 826.6,158.9 826.9,205.9 					"/>
					<polygon fill="#EED16B" points="826.9,206.1 826.6,159.1 780.1,159.3 					"/>
					<polygon fill="#FEDF55" points="826.9,112.7 826.6,159.1 873.7,159.4 					"/>
					<polygon fill="#FEDF55" points="780.1,159.3 826.6,159.1 827,112.7 					"/>
				</g>
				<g>
					<polygon fill="#F6E582" points="826.9,205.6 779.8,205.3 780.1,252.4 					"/>
					<polygon fill="#FCC956" points="780.1,252.5 779.8,205.5 733.3,205.7 					"/>
					<polygon fill="#DCBF5D" points="780.1,159.1 779.8,205.5 826.9,205.8 					"/>
					<polygon fill="#DCBF5D" points="733.3,205.7 779.8,205.5 780.2,159.1 					"/>
				</g>
				<g>
					<polygon fill="#EEEE99" points="733.6,205.4 733.3,251.8 780.4,252.1 					"/>
					<polygon fill="#EEEF9C" points="686.8,252 733.3,251.8 733.7,205.4 					"/>
				</g>
				<g>
					<polygon fill="#E0DB86" points="780.4,65.9 733.3,65.6 733.6,112.6 					"/>
					<polygon fill="#E9D776" points="733.6,112.8 733.3,65.8 686.8,66 					"/>
				</g>
				<g>
					<polygon fill="#E9D776" points="873.8,65.9 826.7,65.6 827,112.6 					"/>
					<polygon fill="#E0DB8A" points="827.1,112.8 826.7,65.8 780.3,66 					"/>
				</g>
				<g>
					<polygon fill="#D1CC7B" points="827.2,205.3 826.9,251.8 874,252.1 					"/>
					<polygon fill="#DDCD8A" points="780.4,252 826.9,251.8 827.3,205.4 					"/>
				</g>
				<g>
					<polygon fill="#FEDF55" points="920.5,112.6 873.4,112.3 873.7,159.4 					"/>
					<polygon fill="#F7DD6F" points="873.7,159.5 873.4,112.5 826.9,112.7 					"/>
					<polygon fill="#EED16B" points="873.7,66.1 873.4,112.5 920.5,112.9 					"/>
					<polygon fill="#EED16B" points="826.9,112.7 873.4,112.5 873.8,66.1 					"/>
				</g>
				<g>
					<polygon opacity="0.91" fill="#CCC464" enable-background="new    " points="920.2,205.2 873.1,205 873.4,252 					"/>
					<polygon fill="#D3BC59" points="873.4,252.1 873.1,205.2 826.6,205.4 					"/>
					<polygon opacity="0.91" fill="#CCC464" enable-background="new    " points="873.4,158.7 873.1,205.2 920.2,205.5 					"/>
					<polygon opacity="0.91" fill="#CCC464" enable-background="new    " points="826.6,205.4 873.1,205.2 873.5,158.8 					"/>
				</g>
				<g>
					<polygon opacity="0.91" fill="#CCC464" enable-background="new    " points="967,159.2 919.9,158.9 920.2,205.9 					"/>
					<polygon opacity="0.91" fill="#C2BD56" enable-background="new    " points="920.2,206.1 919.9,159.1 873.4,159.3 					"/>
					<polygon fill="#FEDF55" points="920.2,112.7 919.9,159.1 967,159.4 					"/>
					<polygon fill="#EED16B" points="873.4,159.3 919.9,159.1 920.3,112.7 					"/>
				</g>
				<g>
					<polygon fill="#FCC956" points="967.2,65.8 920.1,65.5 920.4,112.5 					"/>
					<polygon fill="#F7DD6F" points="920.4,112.6 920.1,65.7 873.6,65.9 					"/>
				</g>
				<g>
					<polygon fill="#D3BC59" points="919.9,205.2 919.6,251.6 966.7,252 					"/>
					<polygon opacity="0.91" fill="#CCC464" enable-background="new    " points="873.1,251.8 919.6,251.6 920.1,205.2 					"/>
				</g>
				<g>
					<polygon fill="#FCC956" points="967.1,159.4 966.7,112.4 920.3,112.6 					"/>
					<polygon fill="#EEC269" points="920.2,112.6 966.7,112.4 967.2,66 					"/>
				</g>
				<g>
					<polygon opacity="0.91" fill="#C2BD56" enable-background="new    " points="966.8,252 966.5,205 920,205.2 					"/>
					<polygon fill="#FEDF55" points="920,205.2 966.5,205 966.9,158.6 					"/>
				</g>
				<polygon fill="#EDF0B5" points="640.4,112.5 593.3,112.3 593.6,159.3 				"/>
				<polygon fill="#DEE899" points="593.7,159.4 593.3,112.5 546.9,112.7 				"/>
				<polygon fill="#EEEE99" points="593.6,66 593.3,112.5 640.4,112.8 				"/>
				<polygon fill="#EEEE99" points="546.8,112.7 593.3,112.5 593.8,66.1 				"/>
				<g>
					<polygon fill="#EFF1B0" points="593.8,159.1 546.7,158.8 547,205.8 					"/>
					<polygon fill="#EEF1BB" points="547,206 546.7,159 500.2,159.2 					"/>
					<polygon fill="#EEEF9C" points="547,112.6 546.7,159 593.8,159.3 					"/>
					<polygon fill="#D9E8AE" points="500.2,159.2 546.7,159 547.1,112.6 					"/>
				</g>
				<g>
					<polygon fill="#DEE899" points="640.2,205.6 593.1,205.4 593.4,252.4 					"/>
					<polygon opacity="0.91" fill="#D8E29E" enable-background="new    " points="593.4,252.5 593.1,205.6 546.6,205.8 					"/>
					<polygon fill="#EFF1B0" points="593.4,159.1 593.1,205.6 640.2,205.9 					"/>
					<polygon fill="#E5EEB9" points="546.6,205.8 593.1,205.6 593.5,159.2 					"/>
				</g>
				<g>
					<polygon fill="#E5EEB9" points="640.2,205.4 639.9,251.9 687,252.2 					"/>
					<polygon fill="#E5EEB9" points="593.4,252.1 639.9,251.9 640.3,205.5 					"/>
				</g>
				<g>
					<polygon fill="#E6EDAD" points="687,65.9 639.9,65.7 640.2,112.7 					"/>
					<polygon fill="#EFF1B0" points="640.2,112.8 639.9,65.9 593.4,66.1 					"/>
				</g>
				<polygon fill="#EEF1BB" points="547.1,112.5 500,112.2 500.3,159.2 				"/>
				<polygon fill="#E5EEB9" points="500.3,66 500,112.4 547.1,112.7 				"/>
				<g>
					<polygon fill="#ECF0B2" points="546.8,205.6 499.8,205.3 500,252.3 					"/>
					<polygon fill="#EDF0B5" points="500,159.1 499.8,205.5 546.8,205.8 					"/>
				</g>
				<g>
					<polygon fill="#F2E58E" points="546.8,205.4 546.5,251.8 593.6,252.1 					"/>
					<polygon fill="#DEE899" points="500,252 546.5,251.8 547,205.4 					"/>
				</g>
				<g>
					<polygon fill="#EFF0AB" points="593.6,65.9 546.5,65.6 546.8,112.6 					"/>
					<polygon fill="#EEF1BB" points="546.9,112.8 546.5,65.8 500.1,66 					"/>
				</g>
				<g>
					<polygon fill="#FEDF55" points="1013.5,205.9 1013.2,159 966.8,159.2 					"/>
					<polygon fill="#FCC956" points="966.7,159.2 1013.2,159 1013.7,112.6 					"/>
				</g>
				<polygon fill="#E5C84D" points="1013.6,112.4 966.5,112.1 966.8,159.2 				"/>
				<polygon fill="#CCAE5D" points="966.8,65.9 966.5,112.4 1013.6,112.7 				"/>
				<g>
					<polygon fill="#CCAE5D" points="1013.4,205.5 966.3,205.3 966.6,252.3 					"/>
					<polygon fill="#FEDF55" points="966.6,159 966.3,205.5 1013.4,205.8 					"/>
				</g>
				<g>
					<g>
						<g>
							<polygon fill="#C8AD4A" points="966.6,252 1013.1,251.8 1013.5,205.4 							"/>
						</g>
					</g>
				</g>
				<g>
					<g>
						<g>
							<polygon fill="#DCBF5D" points="1013.4,112.7 1013.1,65.8 966.6,65.9 							"/>
						</g>
					</g>
				</g>
				<g>
					<polygon fill="#B66C29" points="1152.6,-26.4 1199.6,-26.7 1199.4,20.3 					"/>
					<polygon fill="#C57429" points="1199.3,20.5 1199.6,-26.5 1246.1,-26.3 					"/>
				</g>
				<g>
					<polygon fill="#D0B347" points="1199.4,20 1246.4,19.7 1246.2,66.7 					"/>
					<polygon fill="#B66C29" points="1246.2,-26.5 1246.4,19.9 1199.4,20.2 					"/>
				</g>
				<g>
					<polygon fill="#DD9B2D" points="1199.1,19.7 1199.3,66.2 1152.3,66.5 					"/>
					<polygon fill="#E2AA43" points="1245.9,66.4 1199.3,66.2 1198.9,19.8 					"/>
				</g>
				<g>
					<polygon fill="#E8B433" points="1106.1,19.6 1153.1,19.4 1152.8,66.4 					"/>
					<polygon fill="#E2AA43" points="1152.8,66.5 1153.1,19.6 1199.6,19.8 					"/>
					<polygon fill="#DD9B2D" points="1152.8,-26.9 1153.1,19.6 1106.1,19.9 					"/>
					<polygon fill="#DD9B2D" points="1199.6,19.8 1153.1,19.6 1152.7,-26.8 					"/>
				</g>
				<g>
					<polygon fill="#EEA929" points="1059.3,-26.4 1106.3,-26.7 1106.1,20.3 					"/>
					<polygon fill="#DE8E27" points="1106,20.5 1106.3,-26.5 1152.8,-26.3 					"/>
				</g>
				<g>
					<polygon fill="#E2AA43" points="1106.3,19.6 1106.6,66 1059.5,66.4 					"/>
					<polygon fill="#E9BF26" points="1153.1,66.2 1106.6,66 1106.2,19.6 					"/>
				</g>
				<g>
					<polygon fill="#E9BF26" points="1059.5,66.4 1059.8,19.4 1106.2,19.6 					"/>
					<polygon fill="#F2C425" points="1106.3,19.6 1059.8,19.4 1059.3,-27 					"/>
				</g>
				<g>
					<polygon fill="#E5A232" points="1012.7,20.3 1013,-26.6 1059.5,-26.4 					"/>
				</g>
				<g>
					<polygon fill="#F1C048" points="1012.9,19.9 1059.9,19.6 1059.7,66.7 					"/>
					<polygon fill="#EDAC31" points="1059.7,-26.6 1059.9,19.9 1012.9,20.2 					"/>
				</g>
				<g>
					<g>
						<polygon opacity="0.91" fill="#E8B433" enable-background="new    " points="1059.7,66.4 1013.2,66.2 1012.7,19.8 						"/>
					</g>
				</g>
				<g>
					<polygon fill="#D0B347" points="1199.3,112.3 1246.4,112.1 1246.1,159.1 					"/>
					<polygon fill="#B0934F" points="1246.1,65.8 1246.4,112.3 1199.3,112.6 					"/>
				</g>
				<g>
					<polygon fill="#BBA04F" points="1152.7,159 1199.7,158.7 1199.5,205.7 					"/>
					<polygon fill="#B0934F" points="1199.4,205.9 1199.7,158.9 1246.2,159.1 					"/>
					<polygon fill="#B0934F" points="1199.5,112.5 1199.7,158.9 1152.7,159.2 					"/>
					<polygon fill="#C7A557" points="1246.3,159.1 1199.7,158.9 1199.3,112.5 					"/>
				</g>
				<g>
					<polygon fill="#84723C" points="1199.5,205.4 1246.5,205.1 1246.3,252.1 					"/>
					<polygon fill="#A1853F" points="1246.3,158.9 1246.5,205.3 1199.5,205.6 					"/>
				</g>
				<g>
					<polygon fill="#BBA04F" points="1152.5,65.7 1199.6,65.4 1199.3,112.4 					"/>
					<polygon fill="#DD9B2D" points="1199.3,112.6 1199.6,65.6 1246.1,65.8 					"/>
				</g>
				<g>
					<g>
						<polygon fill="#B3964B" points="1199.2,205.1 1199.5,251.6 1152.4,251.9 						"/>
						<polygon fill="#A1853F" points="1246,251.8 1199.5,251.6 1199,205.2 						"/>
					</g>
				</g>
				<g>
					<polygon fill="#BBA04F" points="1105.9,112.4 1153,112.1 1152.7,159.2 					"/>
					<polygon fill="#BBA04F" points="1152.6,159.3 1153,112.3 1199.4,112.5 					"/>
					<polygon fill="#C8AD4A" points="1152.7,65.9 1153,112.3 1105.9,112.7 					"/>
					<polygon fill="#E2AA43" points="1199.5,112.5 1153,112.3 1152.5,65.9 					"/>
				</g>
				<g>
					<polygon fill="#B0934F" points="1106.2,205 1153.2,204.8 1153,251.8 					"/>
					<polygon fill="#AE9951" points="1152.9,251.9 1153.2,205 1199.7,205.2 					"/>
					<polygon fill="#BBA04F" points="1153,158.5 1153.2,205 1106.2,205.3 					"/>
					<polygon fill="#D0B347" points="1199.7,205.2 1153.2,205 1152.8,158.6 					"/>
				</g>
				<g>
					<polygon fill="#B79949" points="1059.4,159 1106.4,158.7 1106.2,205.7 					"/>
					<polygon fill="#C8AD4A" points="1106.1,205.9 1106.4,158.9 1152.9,159.1 					"/>
					<polygon fill="#BBA04F" points="1106.2,112.5 1106.4,158.9 1059.4,159.2 					"/>
					<polygon fill="#C8AD4A" points="1153,159.1 1106.4,158.9 1106,112.5 					"/>
				</g>
				<g>
					<polygon fill="#CCB456" points="1059.2,65.6 1106.2,65.3 1106,112.3 					"/>
					<polygon fill="#E2AA43" points="1105.9,112.4 1106.2,65.5 1152.7,65.7 					"/>
				</g>
				<g>
					<polygon fill="#B79949" points="1106.4,205 1106.7,251.4 1059.6,251.8 					"/>
					<polygon fill="#AE9951" points="1153.2,251.6 1106.7,251.4 1106.3,205 					"/>
				</g>
				<g>
					<polygon fill="#CCAE5D" points="1059.3,159.2 1059.6,112.2 1106.1,112.4 					"/>
					<polygon fill="#D9B658" points="1106.1,112.4 1059.6,112.2 1059.2,65.8 					"/>
				</g>
				<g>
					<polygon fill="#B3964B" points="1059.6,251.8 1059.9,204.8 1106.4,205 					"/>
					<polygon fill="#C8AD4A" points="1106.4,205 1059.9,204.8 1059.5,158.4 					"/>
				</g>
				<g>
					<polygon fill="#CCAE5D" points="1012.8,205.7 1013.1,158.8 1059.6,159 					"/>
					<polygon opacity="0.91" fill="#C2BD56" enable-background="new    " points="1059.6,159 1013.1,158.8 1012.7,112.4 					"/>
				</g>
				<polygon fill="#D3BC59" points="1012.8,112.2 1059.8,111.9 1059.5,159 				"/>
				<polygon fill="#D3BC59" points="1059.5,65.7 1059.8,112.2 1012.8,112.5 				"/>
				<g>
					<polygon fill="#C8AD4A" points="1013,205.3 1060.1,205.1 1059.8,252.1 					"/>
					<polygon fill="#D3BC59" points="1059.8,158.8 1060.1,205.3 1013,205.6 					"/>
				</g>
				<g>
					<g>
						<g>
							<polygon fill="#BBA04F" points="1059.8,251.8 1013.3,251.6 1012.8,205.2 							"/>
						</g>
					</g>
				</g>
				<g>
					<g>
						<g>
							<polygon fill="#CCB456" points="1013,112.5 1013.3,65.6 1059.7,65.8 							"/>
						</g>
					</g>
				</g>
			</g>
			<g>
				<polygon fill="#D5E597" points="267.7,297.4 314.8,297.7 314.5,250.7 				"/>
				<polygon fill="#EDF1BA" points="314.5,250.5 314.8,297.5 361.3,297.3 				"/>
				<polygon fill="#DFE69A" points="174.4,297.4 221.5,297.7 221.2,250.7 				"/>
				<polygon fill="#DEDB89" points="221.2,250.5 221.5,297.5 268,297.3 				"/>
				<g>
					<polygon fill="#E4ECA4" points="267.7,297.6 268,251.2 220.9,250.9 					"/>
					<polygon fill="#D4DE8E" points="314.5,251 268,251.2 267.6,297.6 					"/>
				</g>
				<g>
					<polygon fill="#DEDB89" points="174.1,297.7 174.4,251.2 127.3,250.9 					"/>
					<polygon fill="#D4DE8E" points="220.9,251 174.4,251.2 174,297.6 					"/>
				</g>
				<polygon fill="#DBD686" points="81.1,297.8 128.2,298.1 127.9,251 				"/>
				<polygon fill="#DEDB89" points="127.9,250.9 128.2,297.8 174.7,297.6 				"/>
				<g>
					<polygon fill="#E9D97E" points="81.4,297.8 81.7,251.4 34.6,251.1 					"/>
					<polygon fill="#D4DE8E" points="128.2,251.2 81.7,251.4 81.2,297.8 					"/>
				</g>
				<polygon fill="#D4DE8E" points="34.5,251 34.8,298 81.3,297.8 				"/>
				<polygon fill="#DCE9AB" points="361.1,297.4 408.2,297.6 407.9,250.6 				"/>
				<polygon fill="#DEE899" points="407.9,250.5 408.2,297.4 454.7,297.2 				"/>
				<g>
					<polygon fill="#EEEF9C" points="361.1,297.6 361.4,251.1 314.3,250.8 					"/>
					<polygon fill="#EDF1BA" points="407.9,250.9 361.4,251.1 361,297.5 					"/>
				</g>
				<polygon fill="#D9E8AE" points="454.5,297.4 501.5,297.7 501.3,250.7 				"/>
				<g>
					<polygon fill="#EEEF9C" points="454.5,297.6 454.8,251.2 407.7,250.9 					"/>
					<polygon fill="#EFF1B0" points="501.3,251 454.8,251.2 454.3,297.6 					"/>
				</g>
				<polygon fill="#DBD686" points="-12.1,297.5 35,297.8 34.7,250.7 				"/>
				<g>
					<polygon opacity="0.91" fill="#E9D97E" enable-background="new    " points="34.7,251.1 -11.8,251.3 -12.2,297.7 					"/>
				</g>
				<polygon fill="#E0DB8A" points="734.1,297 687,297.3 687.3,250.2 				"/>
				<polygon fill="#E4ECA4" points="687.4,250.1 687,297 640.6,296.8 				"/>
				<polygon opacity="0.91" fill="#CCC464" enable-background="new    " points="827.4,297 780.4,297.3 780.6,250.2 				"/>
				<polygon fill="#F6E582" points="780.7,250.1 780.4,297 733.9,296.9 				"/>
				<g>
					<polygon fill="#E0DB8A" points="734.1,297.2 733.8,250.7 780.9,250.4 					"/>
					<polygon fill="#EEEF9C" points="687.3,250.5 733.8,250.7 734.3,297.2 					"/>
				</g>
				<g>
					<polygon fill="#D1CC7B" points="827.7,297.2 827.4,250.8 874.5,250.5 					"/>
					<polygon fill="#DDCD8A" points="780.9,250.6 827.4,250.8 827.9,297.2 					"/>
				</g>
				<polygon opacity="0.91" fill="#CCC464" enable-background="new    " points="920.7,297.3 873.7,297.6 873.9,250.6 				"/>
				<polygon fill="#D3BC59" points="874,250.5 873.7,297.4 827.2,297.2 				"/>
				<g>
					<polygon fill="#D3BC59" points="920.5,297.4 920.2,250.9 967.2,250.6 					"/>
					<polygon opacity="0.91" fill="#CCC464" enable-background="new    " points="873.7,250.7 920.2,250.9 920.6,297.3 					"/>
				</g>
				<polygon fill="#CCAE5D" points="967.3,250.6 967,297.5 920.5,297.3 				"/>
				<polygon fill="#EDF1BA" points="640.7,296.9 593.7,297.2 593.9,250.2 				"/>
				<polygon opacity="0.91" fill="#D8E29E" enable-background="new    " points="594,250 593.7,297 547.2,296.8 				"/>
				<g>
					<polygon fill="#EEEF9C" points="640.7,297.1 640.4,250.7 687.5,250.4 					"/>
					<polygon fill="#DEE899" points="593.9,250.5 640.4,250.7 640.9,297.1 					"/>
				</g>
				<polygon fill="#ECF0B2" points="547.4,297 500.3,297.3 500.6,250.3 				"/>
				<g>
					<polygon fill="#DEE899" points="547.4,297.2 547.1,250.8 594.2,250.5 					"/>
					<polygon fill="#F2E58E" points="500.6,250.6 547.1,250.8 547.5,297.2 					"/>
				</g>
				<polygon fill="#AE9951" points="1013.9,297.1 966.8,297.3 967.1,250.3 				"/>
				<g>
					<g>
						<g>
							<polygon fill="#C8AD4A" points="967.1,250.6 1013.6,250.8 1014,297.2 							"/>
						</g>
					</g>
				</g>
				<polygon fill="#84723C" points="1200,297.2 1247.1,297.5 1246.8,250.4 				"/>
				<g>
					<g>
						<polygon fill="#B3964B" points="1199.7,297.4 1200,251 1152.9,250.7 						"/>
						<polygon fill="#A1853F" points="1246.5,250.8 1200,251 1199.6,297.4 						"/>
					</g>
				</g>
				<polygon fill="#B0934F" points="1106.7,297.5 1153.8,297.8 1153.5,250.8 				"/>
				<polygon fill="#AE9951" points="1153.5,250.7 1153.8,297.6 1200.3,297.4 				"/>
				<g>
					<polygon fill="#B79949" points="1107,297.6 1107.3,251.1 1060.2,250.8 					"/>
					<polygon fill="#AE9951" points="1153.8,250.9 1107.3,251.1 1106.8,297.5 					"/>
				</g>
				<polygon fill="#B3964B" points="1060.1,250.8 1060.4,297.7 1106.9,297.5 				"/>
				<polygon fill="#C8AD4A" points="1013.5,297.3 1060.6,297.5 1060.3,250.5 				"/>
				<g>
					<g>
						<g>
							<polygon fill="#BBA04F" points="1060.3,250.8 1013.8,251 1013.4,297.4 							"/>
						</g>
					</g>
				</g>
			</g>
		</g>
		<polyline fill="#141412" points="749.6,203.7 743.4,203.7 743.4,193.4 730.7,193.4 730.7,191.1 722.2,191.1 722.2,137.9 
			705.7,137.9 705.7,120.6 701.3,120.6 701.3,116 690.7,116 690.7,110.4 672.6,110.4 672.6,116 664,116 664,169.3 656.8,169.6 
			656.8,143.7 652,143.7 648.9,142 642.4,142.4 642.4,145.1 638.3,145.4 638.3,174.7 618.5,175.4 615.4,175.4 615.4,178.1 
			611.6,181.2 608.2,181.5 601.7,181.5 601.7,194.5 595.9,194.5 595.9,219.7 589,219.7 589,154.6 582.2,154.3 582.2,147.8 
			575.7,147.8 575.7,139.7 570.2,140 570.2,145.8 557.9,145.8 557.9,148.2 551,148.2 551,171.7 547.3,171.7 547.3,191.1 
			534.3,191.1 534.3,187.7 514.8,188 514.8,197.9 503.1,198.2 503.1,97.4 501.4,97.4 501.4,94.7 494.2,94.7 494.2,92.7 451.1,92.7 
			451.1,182.9 441.5,183.2 441.5,186.6 432.3,187.3 432.3,171 427.8,171 427.8,167.9 424.4,167.9 424.4,163.5 421.3,162.8 
			421.3,167.9 418.2,167.2 418.2,172 406.3,172 406.3,141.7 402.5,141.7 402.5,132.5 375.5,132.5 375.5,140 369.3,141 369.3,214.6 
			361.8,214.9 361.8,181.2 352.2,182.5 352.2,196.2 346.4,195.8 346.4,191.4 343.3,191.7 343.3,187 320.7,186.3 320.7,216.3 
			309.7,216.9 309.7,208.1 245.1,208.8 245.1,222.4 195.1,223.1 195.1,174 173.2,174 173.2,202 158.5,202 158.5,186 154.7,186 
			154.7,182.5 134.5,182.9 134.5,205 95.1,205 95.1,231.9 83.5,231.9 83.5,234.3 71.2,234.3 71.2,230.9 58.5,230.6 58.5,226.1 
			48.6,226.1 48.6,199.9 43.8,199.6 43.8,175.4 18.1,176.4 18.1,208.1 9.2,208.4 9.2,161.4 0,161.8 0,300.7 1241.7,299 1242.1,203 
			1229.2,203 1212.8,203 1212.8,190.7 1201.5,190.7 1201.5,171.8 1190.2,171.8 1190.2,216.3 1164.6,216.3 1164.6,177.4 1154.8,178 
			1154.8,157.5 1143,157.5 1143,168.8 1132.2,168.8 1121.9,176.4 1111.2,176.4 1111.2,186.6 1096.8,186.9 1096.8,190.2 
			1093.7,190.2 1093.7,216.3 1083.4,216.3 1083.4,208.1 1077.1,207.7 1077.1,210.1 1063.4,210.5 1063.4,204.3 1044.9,204 
			1044.9,146.8 1033.6,146.8 1033.6,153.6 1009,153.3 1009,214.2 991.9,213.5 991.9,223.1 965.5,223.1 965.5,216.3 957,216.3 
			957,178.8 940.9,178.5 940.9,184.9 925.5,184.9 925.5,186.9 913.8,186.9 913.8,191.4 906,192.1 896.7,191.7 896.7,186.9 
			887.2,186.9 887.2,193.1 872.1,193.1 872.1,196.2 856.7,196.5 856.7,202.6 846.4,202.3 846.4,212.2 844.4,212.2 844.4,221.4 
			840.6,221 840.6,197.2 836.8,196.8 836.8,178.8 828.3,178.5 828.3,174.7 808.8,174 808.8,179.1 798.2,179.5 798.2,204.3 
			775.6,204.3 775.6,216.6 767,217.3 767,214.2 753,213.9 753,218.3 749.6,219 		"/>
	</g>
</g>
</svg>
