<?xml version="1.0" encoding="utf-8"?>
<!-- Generator: Adobe Illustrator 18.0.0, SVG Export Plug-In . SVG Version: 6.00 Build 0)  -->
<!DOCTYPE svg PUBLIC "-//W3C//DTD SVG 1.1//EN" "http://www.w3.org/Graphics/SVG/1.1/DTD/svg11.dtd">
<svg version="1.1" id="Layer_1" xmlns="http://www.w3.org/2000/svg" xmlns:xlink="http://www.w3.org/1999/xlink" x="0px" y="0px"
	 viewBox="0 0 1280 472.5" enable-background="new 0 0 1280 472.5" xml:space="preserve">
<path fill="none" d="M691.4,418.3"/>
<path fill="none" d="M699.7,390.5"/>
<g>
	<g>
		<polygon fill="#D7E198" points="285.6,46.3 333.4,46 333.1,93.8 		"/>
		<polygon fill="#DDE798" points="333.1,94 333.4,46.3 380.6,46.5 		"/>
		<polygon fill="#E3EBA3" points="333.1,-1 333.4,46.3 285.6,46.6 		"/>
		<polygon fill="#ECED9C" points="380.6,46.5 333.4,46.3 333,-0.9 		"/>
		<g>
			<polygon fill="#E3EBA3" points="238.3,93.8 286.1,93.6 285.8,141.4 			"/>
			<polygon fill="#DEE599" points="285.8,141.5 286.1,93.8 333.3,94 			"/>
			<polygon fill="#DFE89D" points="285.8,46.6 286.1,93.8 238.3,94.1 			"/>
			<polygon fill="#DBE8AA" points="333.4,94 286.1,93.8 285.7,46.6 			"/>
		</g>
		<g>
			<polygon fill="#DDE798" points="333,93.6 380.8,93.4 380.5,141.2 			"/>
			<polygon fill="#DBE8AA" points="380.4,141.3 380.8,93.6 428,93.8 			"/>
			<polygon fill="#D3DD8D" points="380.5,46.4 380.8,93.6 333,93.9 			"/>
			<polygon fill="#DBE8AA" points="428,93.8 380.8,93.6 380.3,46.4 			"/>
		</g>
		<g>
			<polygon fill="#F1E48D" points="285.8,141 333.6,140.7 333.3,188.5 			"/>
			<polygon fill="#EDEE9B" points="333.3,188.6 333.6,140.9 380.8,141.1 			"/>
			<polygon fill="#E3EBA3" points="333.3,93.7 333.6,140.9 285.8,141.2 			"/>
			<polygon fill="#DBE8AA" points="380.9,141.1 333.6,140.9 333.2,93.7 			"/>
		</g>
		<g>
			<polygon fill="#DEE599" points="190.9,46.4 238.7,46.1 238.4,93.9 			"/>
			<polygon fill="#D7E198" points="238.4,94 238.7,46.3 285.9,46.5 			"/>
			<polygon fill="#D3DD8D" points="238.4,-0.9 238.7,46.3 190.9,46.6 			"/>
			<polygon fill="#DDE798" points="285.9,46.5 238.7,46.3 238.3,-0.9 			"/>
		</g>
		<g>
			<polygon fill="#DEE599" points="143.5,93.8 191.3,93.5 191,141.3 			"/>
			<polygon fill="#E3EBA3" points="191,141.5 191.3,93.7 238.5,93.9 			"/>
			<polygon fill="#D7E198" points="191,46.5 191.3,93.7 143.5,94 			"/>
			<polygon opacity="0.91" fill="#D7E19D" points="238.6,93.9 191.3,93.7 190.9,46.5 			"/>
		</g>
		<g>
			<polygon fill="#E3EBA3" points="191,141 238.8,140.7 238.6,188.5 			"/>
			<polygon fill="#EDEE9B" points="238.5,188.6 238.8,140.9 286.1,141.1 			"/>
			<polygon fill="#D7E198" points="238.6,93.7 238.8,140.9 191,141.2 			"/>
			<polygon fill="#ECED9C" points="286.1,141.1 238.8,140.9 238.4,93.7 			"/>
		</g>
		<g>
			<polygon fill="#DFE89D" points="285.8,140.8 286.1,188 238.3,188.3 			"/>
			<polygon fill="#EDEE9B" points="333.3,188.2 286.1,188 285.7,140.8 			"/>
		</g>
		<g>
			<polygon fill="#DFE89D" points="238.3,-1.1 286.1,-1.3 285.8,46.5 			"/>
			<polygon fill="#D3DD8D" points="285.8,46.6 286.1,-1.1 333.3,-0.9 			"/>
		</g>
		<g>
			<polygon fill="#DDE798" points="143.4,-1.1 191.2,-1.3 190.9,46.5 			"/>
			<polygon fill="#F5E481" points="190.8,46.6 191.2,-1.1 238.4,-0.9 			"/>
		</g>
		<g>
			<polygon fill="#D7E198" points="190.7,140.7 191,187.9 143.2,188.2 			"/>
			<polygon fill="#E3EBA3" points="238.3,188.1 191,187.9 190.6,140.7 			"/>
		</g>
		<g>
			<polygon fill="#DEE599" points="96,46.4 143.8,46.1 143.5,94 			"/>
			<polygon fill="#DDE798" points="143.5,94.1 143.8,46.4 191,46.6 			"/>
			<polygon fill="#F5E481" points="143.5,-0.8 143.8,46.4 96,46.7 			"/>
			<polygon fill="#D3DD8D" points="191,46.6 143.8,46.4 143.4,-0.8 			"/>
		</g>
		<g>
			<polygon fill="#DEE599" points="96.3,140.6 144.1,140.3 143.8,188.1 			"/>
			<polygon fill="#FFEC8E" points="143.7,188.3 144.1,140.5 191.3,140.7 			"/>
			<polygon fill="#E0EAA7" points="143.8,93.3 144.1,140.5 96.3,140.9 			"/>
			<polygon fill="#D3DD8D" points="191.3,140.7 144.1,140.5 143.6,93.4 			"/>
		</g>
		<g>
			<polygon fill="#F5E481" points="48.7,93.8 96.5,93.5 96.2,141.3 			"/>
			<polygon fill="#D7E198" points="96.2,141.5 96.5,93.7 143.7,93.9 			"/>
			<polygon fill="#DDDD8C" points="96.2,46.5 96.5,93.7 48.7,94 			"/>
			<polygon fill="#DDDA88" points="143.8,93.9 96.5,93.7 96.1,46.5 			"/>
		</g>
		<g>
			<polygon fill="#E8D586" points="48.5,-1.2 96.3,-1.5 96.1,46.3 			"/>
			<polygon fill="#F1E48D" points="96,46.5 96.3,-1.3 143.5,-1.1 			"/>
		</g>
		<g>
			<polygon fill="#F5E481" points="96.5,140.6 96.8,187.8 49,188.1 			"/>
			<polygon fill="#D7E198" points="144.1,188 96.8,187.8 96.4,140.6 			"/>
		</g>
		<g>
			<g>
				<g>
					<polygon fill="#D7D885" points="48.6,94 49,46.2 96.2,46.4 					"/>
				</g>
				<polygon fill="#E2D880" points="96.2,46.4 49,46.2 48.5,-0.9 				"/>
			</g>
		</g>
		<g>
			<polygon fill="#DDE798" points="48.9,188.1 49.2,140.4 96.4,140.6 			"/>
			<polygon fill="#E2D880" points="96.5,140.6 49.2,140.4 48.8,93.2 			"/>
		</g>
		<polygon fill="#DDE798" points="380.4,46.4 428.2,46.1 428,93.9 		"/>
		<polygon fill="#F5E481" points="427.9,94 428.2,46.3 475.5,46.5 		"/>
		<polygon fill="#DBE8AA" points="428,-0.9 428.2,46.3 380.4,46.6 		"/>
		<polygon fill="#DDE798" points="475.5,46.5 428.2,46.3 427.8,-0.9 		"/>
		<g>
			<polygon fill="#D8E7AD" points="427.8,93.7 475.6,93.4 475.3,141.2 			"/>
			<polygon fill="#EEEFAA" points="475.3,141.4 475.6,93.6 522.8,93.8 			"/>
			<polygon fill="#F1E48D" points="475.3,46.4 475.6,93.6 427.8,93.9 			"/>
			<polygon fill="#D8E7AD" points="522.9,93.8 475.6,93.6 475.2,46.5 			"/>
		</g>
		<g>
			<polygon fill="#D8E7AD" points="380.7,141 428.5,140.7 428.2,188.5 			"/>
			<polygon fill="#DDE798" points="428.2,188.7 428.5,141 475.7,141.2 			"/>
			<polygon fill="#E6ECAD" points="428.2,93.7 428.5,141 380.7,141.3 			"/>
			<polygon fill="#DDE798" points="475.7,141.2 428.5,141 428.1,93.8 			"/>
		</g>
		<g>
			<polygon fill="#F1E48D" points="380.7,140.8 381,188 333.1,188.3 			"/>
			<polygon fill="#EDEE9B" points="428.2,188.2 381,188 380.5,140.8 			"/>
		</g>
		<g>
			<polygon fill="#DDE798" points="333.1,-1 381,-1.3 380.7,46.5 			"/>
			<polygon fill="#DFE89D" points="380.6,46.7 381,-1.1 428.2,-0.9 			"/>
		</g>
		<polygon fill="#EDF0BA" points="475.3,46.3 523.1,46 522.8,93.8 		"/>
		<polygon fill="#E2E8AB" points="522.8,-1 523.1,46.2 475.3,46.5 		"/>
		<g>
			<polygon fill="#F1E48D" points="475.5,141 523.3,140.7 523,188.5 			"/>
			<polygon fill="#EDEE9B" points="523,93.7 523.3,140.9 475.5,141.2 			"/>
		</g>
		<g>
			<polygon fill="#DDE798" points="475.5,140.7 475.8,188 428,188.3 			"/>
			<polygon fill="#F5E481" points="523,188.2 475.8,188 475.3,140.8 			"/>
		</g>
		<g>
			<polygon fill="#F1E48D" points="428,-1.1 475.8,-1.4 475.5,46.4 			"/>
			<polygon fill="#E2E8AB" points="475.5,46.6 475.8,-1.1 523,-0.9 			"/>
		</g>
		<g>
			<polygon fill="#DDDA88" points="1.4,141.3 1.7,93.6 48.9,93.8 			"/>
			<polygon fill="#F5E481" points="49,93.8 1.7,93.6 1.3,46.4 			"/>
		</g>
		<polygon fill="#DDDA88" points="1.4,46.2 49.2,46 48.9,93.8 		"/>
		<polygon fill="#D7D885" points="48.9,-1 49.2,46.2 1.4,46.5 		"/>
		<g>
			<polygon fill="#DEE599" points="1.6,140.9 49.4,140.6 49.1,188.4 			"/>
			<polygon fill="#D7D885" points="49.1,93.6 49.4,140.8 1.6,141.2 			"/>
		</g>
		<g>
			<polygon opacity="0.91" fill="#DAD585" points="49.1,188.1 1.9,187.9 1.5,140.7 			"/>
		</g>
		<polygon fill="#EDEE9B" points="760,46.8 712.2,46.5 712.5,94.3 		"/>
		<polygon fill="#EDED98" points="712.5,94.4 712.2,46.7 665,46.9 		"/>
		<polygon fill="#ECED9C" points="712.5,-0.5 712.2,46.7 760,47 		"/>
		<polygon fill="#EEF0AF" points="664.9,46.9 712.2,46.7 712.6,-0.5 		"/>
		<g>
			<polygon fill="#D7D288" points="807.2,94.3 759.4,94 759.7,141.8 			"/>
			<polygon fill="#DFDA89" points="759.8,142 759.4,94.2 712.2,94.4 			"/>
			<polygon fill="#EDDA7F" points="759.7,47 759.4,94.2 807.2,94.5 			"/>
			<polygon fill="#DDE798" points="712.2,94.4 759.4,94.2 759.9,47 			"/>
		</g>
		<g>
			<polygon fill="#E5ECAC" points="712.6,94.1 664.8,93.8 665.1,141.6 			"/>
			<polygon fill="#EEF0AF" points="665.1,141.8 664.8,94 617.6,94.2 			"/>
			<polygon fill="#EDED98" points="665.1,46.8 664.8,94 712.6,94.3 			"/>
			<polygon fill="#F8F3AB" points="617.6,94.2 664.8,94 665.2,46.8 			"/>
		</g>
		<g>
			<polygon fill="#ECED9C" points="759.8,141.4 712,141.1 712.2,188.9 			"/>
			<polygon fill="#EDED98" points="712.3,189.1 712,141.3 664.7,141.6 			"/>
			<polygon fill="#ECED9C" points="712.2,94.1 712,141.3 759.8,141.7 			"/>
			<polygon fill="#EEF0AF" points="664.7,141.6 712,141.3 712.4,94.2 			"/>
		</g>
		<g>
			<polygon fill="#DDDA88" points="854.7,46.8 806.9,46.5 807.2,94.3 			"/>
			<polygon fill="#DFDA89" points="807.2,94.5 806.9,46.7 759.7,46.9 			"/>
			<polygon fill="#DDE798" points="807.2,-0.5 806.9,46.7 854.7,47.1 			"/>
			<polygon fill="#DDE798" points="759.6,46.9 806.9,46.7 807.3,-0.4 			"/>
		</g>
		<g>
			<polygon fill="#DFDA85" points="902.1,94.2 854.3,93.9 854.5,141.8 			"/>
			<polygon fill="#DDDA88" points="854.6,141.9 854.3,94.2 807,94.4 			"/>
			<polygon fill="#DFD27A" points="854.5,46.9 854.3,94.2 902.1,94.5 			"/>
			<polygon fill="#D3DD8D" points="807,94.4 854.3,94.2 854.7,47 			"/>
		</g>
		<g>
			<polygon fill="#D7D288" points="854.5,141.4 806.7,141.1 807,188.9 			"/>
			<polygon fill="#DFDA85" points="807,189.1 806.7,141.3 759.5,141.5 			"/>
			<polygon fill="#EDDA7F" points="807,94.1 806.7,141.3 854.5,141.7 			"/>
			<polygon fill="#DFDA89" points="759.5,141.5 806.7,141.3 807.2,94.2 			"/>
		</g>
		<g>
			<polygon fill="#DDDA88" points="759.8,141.2 759.5,188.4 807.3,188.7 			"/>
			<polygon fill="#E8D676" points="712.2,188.6 759.5,188.4 759.9,141.2 			"/>
		</g>
		<g>
			<polygon fill="#EDED98" points="807.3,-0.6 759.5,-0.9 759.8,46.9 			"/>
			<polygon fill="#E2E8AB" points="759.8,47 759.5,-0.7 712.3,-0.5 			"/>
		</g>
		<g>
			<polygon fill="#D3DD8D" points="902.2,-0.6 854.4,-0.9 854.7,46.9 			"/>
			<polygon fill="#DFDA89" points="854.7,47 854.4,-0.7 807.2,-0.5 			"/>
		</g>
		<g>
			<polygon fill="#DAD37F" points="854.8,141.1 854.6,188.4 902.4,188.7 			"/>
			<polygon fill="#E8D676" points="807.3,188.6 854.6,188.4 855,141.2 			"/>
		</g>
		<g>
			<polygon fill="#DFDA89" points="949.6,46.9 901.8,46.6 902.1,94.4 			"/>
			<polygon fill="#D3DD8D" points="902.1,94.5 901.8,46.8 854.6,47 			"/>
			<polygon fill="#D0CC7B" points="902.1,-0.4 901.8,46.8 949.6,47.1 			"/>
			<polygon fill="#DFDA89" points="854.5,47 901.8,46.8 902.2,-0.4 			"/>
		</g>
		<g>
			<polygon fill="#D8D486" points="949.3,141 901.5,140.8 901.8,188.6 			"/>
			<polygon fill="#EDD06B" points="901.8,188.7 901.5,141 854.3,141.2 			"/>
			<polygon fill="#DFD27A" points="901.8,93.8 901.5,141 949.3,141.3 			"/>
			<polygon fill="#DAD37F" points="854.3,141.2 901.5,141 901.9,93.8 			"/>
		</g>
		<g>
			<polygon fill="#D0CC7B" points="996.8,94.2 949,93.9 949.3,141.8 			"/>
			<polygon fill="#D0CC7B" points="949.4,141.9 949,94.2 901.8,94.4 			"/>
			<polygon opacity="0.91" fill="#CBC364" points="949.3,46.9 949,94.2 996.8,94.5 			"/>
			<polygon fill="#D4D184" points="901.8,94.4 949,94.2 949.5,47 			"/>
		</g>
		<g>
			<polygon fill="#D0CC7B" points="997,-0.8 949.2,-1 949.5,46.8 			"/>
			<polygon fill="#DCCD89" points="949.5,46.9 949.2,-0.8 902,-0.6 			"/>
		</g>
		<g>
			<polygon fill="#E4C74C" points="949,141 948.8,188.2 996.6,188.5 			"/>
			<polygon fill="#DAC368" points="901.5,188.4 948.8,188.2 949.2,141 			"/>
		</g>
		<g>
			<polygon fill="#CBC364" points="996.9,94.4 996.6,46.7 949.4,46.9 			"/>
			<polygon fill="#D0CC7B" points="949.4,46.9 996.6,46.7 997,-0.5 			"/>
		</g>
		<g>
			<polygon fill="#D3B55E" points="996.6,188.6 996.3,140.8 949.1,141 			"/>
			<polygon fill="#D2BB59" points="949.1,141 996.3,140.8 996.8,93.7 			"/>
		</g>
		<polygon fill="#EDED98" points="665.1,46.8 617.3,46.5 617.6,94.3 		"/>
		<polygon fill="#EDED98" points="617.6,94.5 617.3,46.7 570.1,46.9 		"/>
		<polygon fill="#ECEFB4" points="617.6,-0.5 617.3,46.7 665.1,47.1 		"/>
		<polygon fill="#E4EDB8" points="570.1,46.9 617.3,46.7 617.8,-0.4 		"/>
		<g>
			<polygon fill="#E4EDB8" points="617.8,94.1 569.9,93.8 570.2,141.7 			"/>
			<polygon fill="#F8F3AB" points="570.3,141.8 569.9,94.1 522.7,94.3 			"/>
			<polygon fill="#EDF0BA" points="570.2,46.9 569.9,94.1 617.8,94.4 			"/>
			<polygon fill="#EDF0BA" points="522.7,94.3 569.9,94.1 570.4,46.9 			"/>
		</g>
		<g>
			<polygon fill="#E4EDB8" points="664.9,141.5 617.1,141.2 617.4,189 			"/>
			<polygon fill="#EEEFAA" points="617.4,189.1 617.1,141.4 569.9,141.6 			"/>
			<polygon fill="#EDF0BA" points="617.4,94.2 617.1,141.4 664.9,141.7 			"/>
			<polygon fill="#EDED98" points="569.8,141.6 617.1,141.4 617.5,94.2 			"/>
		</g>
		<g>
			<polygon fill="#EDED98" points="664.9,141.2 664.6,188.5 712.4,188.8 			"/>
			<polygon fill="#ECEFB4" points="617.4,188.7 664.6,188.5 665,141.3 			"/>
		</g>
		<g>
			<polygon fill="#EDEE9B" points="712.4,-0.6 664.6,-0.9 664.9,46.9 			"/>
			<polygon fill="#EDF0BA" points="664.9,47.1 664.6,-0.6 617.4,-0.4 			"/>
		</g>
		<polygon fill="#E2E8AB" points="570.3,46.7 522.5,46.4 522.8,94.3 		"/>
		<polygon fill="#EEEFAA" points="522.8,-0.5 522.5,46.7 570.3,47 		"/>
		<g>
			<polygon fill="#F8F3AB" points="570.1,141.4 522.3,141.1 522.5,188.9 			"/>
			<polygon fill="#EDF0BA" points="522.5,94.1 522.3,141.3 570.1,141.6 			"/>
		</g>
		<g>
			<polygon fill="#EDF0BA" points="570.1,141.2 569.8,188.4 617.6,188.7 			"/>
			<polygon fill="#EBEFB1" points="522.5,188.6 569.8,188.4 570.2,141.2 			"/>
		</g>
		<g>
			<polygon fill="#E2E8AB" points="617.6,-0.6 569.8,-0.9 570.1,46.9 			"/>
			<polygon fill="#EDF0BA" points="570.1,47 569.8,-0.7 522.6,-0.5 			"/>
		</g>
		<g>
			<polygon fill="#E7B333" points="1044.1,141.7 1043.8,94 996.6,94.2 			"/>
			<polygon fill="#F0C049" points="996.6,94.2 1043.8,94 1044.3,46.8 			"/>
		</g>
		<polygon fill="#D3B55E" points="1044.2,46.7 996.4,46.4 996.7,94.2 		"/>
		<polygon opacity="0.91" fill="#CBC364" points="996.7,-0.6 996.4,46.6 1044.2,46.9 		"/>
		<g>
			<polygon fill="#CBAD5D" points="1044,141.3 996.2,141.1 996.4,188.9 			"/>
			<polygon fill="#D8B558" points="996.4,94.1 996.2,141.3 1044,141.6 			"/>
		</g>
		<g>
			<g>
				<g>
					<polygon fill="#D8B558" points="996.4,188.5 1043.7,188.3 1044.1,141.2 					"/>
				</g>
			</g>
		</g>
		<g>
			<g>
				<g>
					<polygon fill="#D3B55E" points="1044,47 1043.7,-0.8 996.5,-0.6 					"/>
				</g>
			</g>
		</g>
		<polygon fill="#F7DD6F" points="285.7,234.8 333.5,234.5 333.2,282.3 		"/>
		<polygon fill="#EDD06B" points="333.2,282.5 333.5,234.7 380.7,234.9 		"/>
		<polygon fill="#F1E48D" points="333.2,187.5 333.5,234.7 285.7,235 		"/>
		<polygon fill="#F5E481" points="380.7,234.9 333.5,234.7 333.1,187.6 		"/>
		<g>
			<polygon fill="#E3EBA3" points="238.4,282.3 286.2,282 286,329.8 			"/>
			<polygon fill="#FDDE55" points="285.9,330 286.2,282.3 333.5,282.5 			"/>
			<polygon fill="#EDD06B" points="286,235 286.2,282.3 238.4,282.6 			"/>
			<polygon fill="#FDDE55" points="333.5,282.5 286.2,282.3 285.8,235.1 			"/>
		</g>
		<g>
			<polygon fill="#FBC856" points="333.1,282.1 380.9,281.8 380.6,329.7 			"/>
			<polygon fill="#FDDE55" points="380.6,329.8 380.9,282.1 428.1,282.3 			"/>
			<polygon fill="#F7DD6F" points="380.6,234.8 380.9,282.1 333.1,282.4 			"/>
			<polygon fill="#FDDE55" points="428.1,282.3 380.9,282.1 380.4,234.9 			"/>
		</g>
		<g>
			<polygon fill="#D4E496" points="285.9,329.5 333.7,329.2 333.4,377 			"/>
			<polygon fill="#EDEE9B" points="333.4,377.1 333.7,329.4 380.9,329.6 			"/>
			<polygon fill="#EDD06B" points="333.4,282.2 333.7,329.4 285.9,329.7 			"/>
			<polygon fill="#FDDE55" points="381,329.6 333.7,329.4 333.3,282.2 			"/>
		</g>
		<g>
			<polygon fill="#F7DD6F" points="191,234.9 238.8,234.6 238.5,282.4 			"/>
			<polygon fill="#FDDE55" points="238.5,282.5 238.8,234.8 286,235 			"/>
			<polygon fill="#F1E48D" points="238.5,187.6 238.8,234.8 191,235.1 			"/>
			<polygon fill="#F7DD6F" points="286,235 238.8,234.8 238.4,187.6 			"/>
		</g>
		<g>
			<polygon fill="#FDDE55" points="143.6,282.3 191.4,282 191.1,329.8 			"/>
			<polygon fill="#FDDE55" points="191.1,329.9 191.4,282.2 238.6,282.4 			"/>
			<polygon fill="#F5E481" points="191.1,235 191.4,282.2 143.6,282.5 			"/>
			<polygon fill="#FDDE55" points="238.7,282.4 191.4,282.2 191,235 			"/>
		</g>
		<g>
			<polygon fill="#DEE599" points="191.1,329.4 239,329.2 238.7,377 			"/>
			<polygon fill="#E6ECAD" points="238.6,377.1 239,329.4 286.2,329.6 			"/>
			<polygon fill="#F8F3AB" points="238.7,282.2 239,329.4 191.1,329.7 			"/>
			<polygon fill="#ECED9C" points="286.2,329.6 239,329.4 238.5,282.2 			"/>
		</g>
		<g>
			<polygon fill="#E3EBA3" points="285.9,329.2 286.2,376.5 238.4,376.8 			"/>
			<polygon fill="#D3DD8D" points="333.5,376.7 286.2,376.5 285.8,329.3 			"/>
		</g>
		<g>
			<polygon fill="#F5E481" points="238.4,187.4 286.2,187.1 285.9,234.9 			"/>
			<polygon fill="#F1E48D" points="285.9,235.1 286.2,187.4 333.4,187.6 			"/>
		</g>
		<g>
			<polygon fill="#D3DD8D" points="143.5,187.4 191.3,187.1 191,234.9 			"/>
			<polygon fill="#DDE798" points="191,235.1 191.3,187.4 238.5,187.6 			"/>
		</g>
		<g>
			<polygon fill="#DDDA88" points="190.8,329.2 191.1,376.4 143.3,376.7 			"/>
			<polygon fill="#D3DD8D" points="238.4,376.6 191.1,376.4 190.7,329.2 			"/>
		</g>
		<g>
			<polygon fill="#DDDA88" points="96.1,234.9 143.9,234.6 143.6,282.4 			"/>
			<polygon fill="#E8D586" points="143.6,282.6 143.9,234.8 191.1,235 			"/>
			<polygon fill="#ECED9C" points="143.6,187.6 143.9,234.8 96.1,235.2 			"/>
			<polygon fill="#DFE89D" points="191.1,235 143.9,234.8 143.5,187.7 			"/>
		</g>
		<g>
			<polygon fill="#FDDE55" points="96.4,329.1 144.2,328.8 143.9,376.6 			"/>
			<polygon fill="#DDDA88" points="143.9,376.8 144.2,329 191.4,329.2 			"/>
			<polygon fill="#FDDE55" points="143.9,281.8 144.2,329 96.4,329.3 			"/>
			<polygon fill="#CBB356" points="191.4,329.2 144.2,329 143.7,281.8 			"/>
		</g>
		<g>
			<polygon fill="#DAD173" points="48.8,282.3 96.6,282 96.4,329.8 			"/>
			<polygon fill="#DAD173" points="96.3,329.9 96.6,282.2 143.9,282.4 			"/>
			<polygon fill="#DDDA88" points="96.4,235 96.6,282.2 48.8,282.5 			"/>
			<polygon fill="#E2D880" points="143.9,282.4 96.6,282.2 96.2,235 			"/>
		</g>
		<g>
			<polygon fill="#ECED9C" points="48.6,187.3 96.4,187 96.2,234.8 			"/>
			<polygon fill="#DEE599" points="96.1,235 96.4,187.2 143.7,187.4 			"/>
		</g>
		<g>
			<polygon fill="#FDDE55" points="96.6,329.1 96.9,376.3 49.1,376.6 			"/>
			<polygon fill="#CBB356" points="144.2,376.5 96.9,376.3 96.5,329.1 			"/>
		</g>
		<g>
			<polygon fill="#DAD585" points="48.8,282.4 49.1,234.7 96.3,234.9 			"/>
			<polygon fill="#D3DD8D" points="96.3,234.9 49.1,234.7 48.6,187.5 			"/>
		</g>
		<g>
			<polygon fill="#CBB356" points="49,376.6 49.3,328.9 96.6,329.1 			"/>
			<polygon fill="#E8D87E" points="96.6,329.1 49.3,328.9 48.9,281.7 			"/>
		</g>
		<polygon fill="#F7DD6F" points="380.5,234.8 428.4,234.6 428.1,282.4 		"/>
		<polygon fill="#EDEE9B" points="428,282.5 428.4,234.8 475.6,235 		"/>
		<polygon fill="#F1E48D" points="428.1,187.6 428.4,234.8 380.5,235.1 		"/>
		<polygon fill="#F5E481" points="475.6,235 428.4,234.8 427.9,187.6 		"/>
		<g>
			<polygon fill="#EDEE9B" points="427.9,282.2 475.7,281.9 475.5,329.7 			"/>
			<polygon fill="#EBEFB1" points="475.4,329.8 475.7,282.1 522.9,282.3 			"/>
			<polygon opacity="0.91" fill="#D7E19D" points="475.5,234.9 475.7,282.1 427.9,282.4 			"/>
			<polygon fill="#DDE798" points="523,282.3 475.7,282.1 475.3,234.9 			"/>
		</g>
		<g>
			<polygon fill="#DBE8AA" points="380.8,329.5 428.6,329.2 428.3,377 			"/>
			<polygon fill="#DDE798" points="428.3,377.2 428.6,329.4 475.8,329.6 			"/>
			<polygon fill="#F1E48D" points="428.3,282.2 428.6,329.4 380.8,329.8 			"/>
			<polygon fill="#EEEFAA" points="475.8,329.6 428.6,329.4 428.2,282.3 			"/>
		</g>
		<g>
			<polygon fill="#ECEFB4" points="380.8,329.3 381.1,376.5 333.3,376.8 			"/>
			<polygon fill="#EDEE9B" points="428.3,376.7 381.1,376.5 380.6,329.3 			"/>
		</g>
		<g>
			<polygon fill="#F1E48D" points="333.3,187.5 381.1,187.2 380.8,235 			"/>
			<polygon fill="#F5E481" points="380.8,235.1 381.1,187.4 428.3,187.6 			"/>
		</g>
		<polygon fill="#EDEE9B" points="475.4,234.8 523.2,234.5 522.9,282.3 		"/>
		<polygon fill="#EDED98" points="522.9,187.5 523.2,234.7 475.4,235 		"/>
		<g>
			<polygon fill="#D8E7AD" points="475.6,329.4 523.4,329.2 523.1,377 			"/>
			<polygon opacity="0.91" fill="#D7E19D" points="523.1,282.2 523.4,329.4 475.6,329.7 			"/>
		</g>
		<g>
			<polygon fill="#DEE599" points="475.6,329.2 475.9,376.4 428.1,376.8 			"/>
			<polygon fill="#EDED98" points="523.1,376.6 475.9,376.4 475.5,329.3 			"/>
		</g>
		<g>
			<polygon fill="#F5E481" points="428.1,187.4 475.9,187.1 475.6,234.9 			"/>
			<polygon fill="#EDEE9B" points="475.6,235.1 475.9,187.3 523.1,187.5 			"/>
		</g>
		<g>
			<polygon fill="#DEE599" points="1.5,329.8 1.8,282.1 49.1,282.3 			"/>
			<polygon fill="#DDDD8C" points="49.1,282.3 1.8,282.1 1.4,234.9 			"/>
		</g>
		<polygon fill="#E2D880" points="1.5,234.7 49.3,234.4 49,282.2 		"/>
		<polygon fill="#DDDA88" points="49,187.4 49.3,234.7 1.5,235 		"/>
		<g>
			<polygon fill="#DAD585" points="1.7,329.4 49.5,329.1 49.2,376.9 			"/>
			<polygon fill="#E2D880" points="49.2,282.1 49.5,329.3 1.7,329.6 			"/>
		</g>
		<g>
			<polygon opacity="0.91" fill="#E8D87E" points="49.3,376.6 2,376.4 1.6,329.2 			"/>
		</g>
		<g>
			<g>
				<g>
					<polygon fill="#D7D885" points="1.7,235 2,187.3 49.2,187.5 					"/>
				</g>
			</g>
		</g>
		<polygon fill="#DFDA89" points="759.9,235.2 712.1,235 712.4,282.8 		"/>
		<polygon fill="#DFDA89" points="712.4,282.9 712.1,235.2 664.9,235.4 		"/>
		<polygon fill="#D7D288" points="712.4,188 712.1,235.2 759.9,235.5 		"/>
		<polygon fill="#DFDA89" points="664.8,235.4 712.1,235.2 712.5,188 		"/>
		<g>
			<polygon fill="#EDD06B" points="807.1,282.8 759.3,282.5 759.6,330.3 			"/>
			<polygon fill="#DFDA89" points="759.6,330.4 759.3,282.7 712.1,282.9 			"/>
			<polygon fill="#DCCD89" points="759.6,235.5 759.3,282.7 807.1,283 			"/>
			<polygon fill="#DDDA88" points="712.1,282.9 759.3,282.7 759.8,235.5 			"/>
		</g>
		<g>
			<polygon fill="#EDEE9B" points="712.5,282.6 664.7,282.3 665,330.1 			"/>
			<polygon fill="#E4EDB8" points="665,330.2 664.7,282.5 617.5,282.7 			"/>
			<polygon fill="#EDED98" points="665,235.3 664.7,282.5 712.5,282.8 			"/>
			<polygon fill="#EDED98" points="617.4,282.7 664.7,282.5 665.1,235.3 			"/>
		</g>
		<g>
			<polygon fill="#EEF0AF" points="759.6,329.9 711.8,329.6 712.1,377.4 			"/>
			<polygon fill="#E3EBA3" points="712.2,377.6 711.8,329.8 664.6,330 			"/>
			<polygon fill="#EDED98" points="712.1,282.6 711.8,329.8 759.6,330.1 			"/>
			<polygon fill="#EEF0AF" points="664.6,330 711.8,329.8 712.3,282.7 			"/>
		</g>
		<g>
			<polygon fill="#DDDA88" points="854.6,235.3 806.8,235 807,282.8 			"/>
			<polygon fill="#DFDA89" points="807.1,283 806.8,235.2 759.6,235.4 			"/>
			<polygon fill="#D4D184" points="807.1,188 806.8,235.2 854.6,235.5 			"/>
			<polygon fill="#D3DD8D" points="759.5,235.4 806.8,235.2 807.2,188.1 			"/>
		</g>
		<g>
			<polygon fill="#D8D486" points="902,282.7 854.1,282.4 854.4,330.2 			"/>
			<polygon fill="#EDD06B" points="854.5,330.4 854.1,282.6 806.9,282.8 			"/>
			<polygon fill="#FDDE55" points="854.4,235.4 854.1,282.6 902,283 			"/>
			<polygon fill="#FDDE55" points="806.9,282.8 854.1,282.6 854.6,235.5 			"/>
		</g>
		<g>
			<polygon fill="#F5E481" points="854.4,329.9 806.6,329.6 806.9,377.4 			"/>
			<polygon fill="#FBC856" points="806.9,377.6 806.6,329.8 759.4,330 			"/>
			<polygon fill="#DCBE5D" points="806.9,282.6 806.6,329.8 854.4,330.1 			"/>
			<polygon fill="#DCBE5D" points="759.4,330 806.6,329.8 807,282.7 			"/>
		</g>
		<g>
			<polygon fill="#EDED98" points="759.6,329.7 759.4,376.9 807.2,377.2 			"/>
			<polygon fill="#EDEE9B" points="712.1,377.1 759.4,376.9 759.8,329.7 			"/>
		</g>
		<g>
			<polygon fill="#DFDA85" points="807.2,187.9 759.4,187.6 759.6,235.4 			"/>
			<polygon fill="#E8D676" points="759.7,235.5 759.4,187.8 712.2,188 			"/>
		</g>
		<g>
			<polygon fill="#E8D676" points="902.1,187.9 854.3,187.6 854.6,235.4 			"/>
			<polygon fill="#DFDA89" points="854.6,235.5 854.3,187.8 807.1,188 			"/>
		</g>
		<g>
			<polygon fill="#D0CC7B" points="854.7,329.6 854.4,376.8 902.3,377.2 			"/>
			<polygon fill="#DCCD89" points="807.2,377 854.4,376.8 854.9,329.7 			"/>
		</g>
		<g>
			<polygon fill="#FDDE55" points="949.5,235.3 901.7,235.1 902,282.9 			"/>
			<polygon fill="#F7DD6F" points="902,283 901.7,235.3 854.5,235.5 			"/>
			<polygon fill="#EDD06B" points="902,188.1 901.7,235.3 949.5,235.6 			"/>
			<polygon fill="#EDD06B" points="854.4,235.5 901.7,235.3 902.1,188.1 			"/>
		</g>
		<g>
			<polygon opacity="0.91" fill="#CBC364" points="949.2,329.5 901.4,329.2 901.7,377.1 			"/>
			<polygon fill="#D2BB59" points="901.7,377.2 901.4,329.5 854.2,329.7 			"/>
			<polygon opacity="0.91" fill="#CBC364" points="901.7,282.3 901.4,329.5 949.2,329.8 			"/>
			<polygon opacity="0.91" fill="#CBC364" points="854.1,329.7 901.4,329.5 901.8,282.3 			"/>
		</g>
		<g>
			<polygon opacity="0.91" fill="#CBC364" points="996.7,282.7 948.9,282.4 949.2,330.2 			"/>
			<polygon opacity="0.91" fill="#C1BC56" points="949.2,330.4 948.9,282.6 901.7,282.8 			"/>
			<polygon fill="#FDDE55" points="949.2,235.4 948.9,282.6 996.7,283 			"/>
			<polygon fill="#EDD06B" points="901.7,282.8 948.9,282.6 949.4,235.5 			"/>
		</g>
		<g>
			<polygon fill="#FBC856" points="996.9,187.7 949.1,187.4 949.4,235.3 			"/>
			<polygon fill="#F7DD6F" points="949.4,235.4 949.1,187.7 901.9,187.9 			"/>
		</g>
		<g>
			<polygon fill="#D2BB59" points="948.9,329.5 948.6,376.7 996.5,377 			"/>
			<polygon opacity="0.91" fill="#CBC364" points="901.4,376.9 948.6,376.7 949.1,329.5 			"/>
		</g>
		<g>
			<polygon fill="#FBC856" points="996.8,282.9 996.5,235.2 949.3,235.4 			"/>
			<polygon fill="#EEC268" points="949.3,235.4 996.5,235.2 996.9,188 			"/>
		</g>
		<g>
			<polygon opacity="0.91" fill="#C1BC56" points="996.5,377.1 996.2,329.3 949,329.5 			"/>
			<polygon fill="#FDDE55" points="949,329.5 996.2,329.3 996.7,282.2 			"/>
		</g>
		<polygon fill="#ECEFB4" points="665,235.3 617.2,235 617.5,282.8 		"/>
		<polygon fill="#DDE798" points="617.5,282.9 617.2,235.2 570,235.4 		"/>
		<polygon fill="#EDED98" points="617.5,188 617.2,235.2 665,235.5 		"/>
		<polygon fill="#EDED98" points="570,235.4 617.2,235.2 617.6,188 		"/>
		<g>
			<polygon fill="#EEF0AF" points="617.6,282.6 569.8,282.3 570.1,330.1 			"/>
			<polygon fill="#EDF0BA" points="570.1,330.3 569.8,282.5 522.6,282.7 			"/>
			<polygon fill="#EDEE9B" points="570.1,235.3 569.8,282.5 617.6,282.9 			"/>
			<polygon fill="#D8E7AD" points="522.6,282.7 569.8,282.5 570.3,235.4 			"/>
		</g>
		<g>
			<polygon fill="#DDE798" points="664.8,329.9 617,329.7 617.3,377.5 			"/>
			<polygon opacity="0.91" fill="#D7E19D" points="617.3,377.6 617,329.9 569.8,330.1 			"/>
			<polygon fill="#EEF0AF" points="617.3,282.7 617,329.9 664.8,330.2 			"/>
			<polygon fill="#E4EDB8" points="569.7,330.1 617,329.9 617.4,282.7 			"/>
		</g>
		<g>
			<polygon fill="#E4EDB8" points="664.8,329.7 664.5,376.9 712.3,377.3 			"/>
			<polygon fill="#E4EDB8" points="617.3,377.1 664.5,376.9 664.9,329.8 			"/>
		</g>
		<g>
			<polygon fill="#E5ECAC" points="712.3,187.9 664.5,187.6 664.8,235.4 			"/>
			<polygon fill="#EEF0AF" points="664.8,235.6 664.5,187.8 617.3,188 			"/>
		</g>
		<polygon fill="#EDF0BA" points="570.2,235.2 522.4,234.9 522.7,282.7 		"/>
		<polygon fill="#E4EDB8" points="522.7,187.9 522.4,235.1 570.2,235.5 		"/>
		<g>
			<polygon fill="#EBEFB1" points="570,329.9 522.2,329.6 522.4,377.4 			"/>
			<polygon fill="#ECEFB4" points="522.4,282.6 522.2,329.8 570,330.1 			"/>
		</g>
		<g>
			<polygon fill="#F1E48D" points="570,329.7 569.7,376.9 617.5,377.2 			"/>
			<polygon fill="#DDE798" points="522.4,377.1 569.7,376.9 570.1,329.7 			"/>
		</g>
		<g>
			<polygon fill="#EEEFAA" points="617.5,187.8 569.7,187.6 570,235.4 			"/>
			<polygon fill="#EDF0BA" points="570,235.5 569.7,187.8 522.5,188 			"/>
		</g>
		<g>
			<polygon fill="#FDDE55" points="1044,330.2 1043.7,282.5 996.5,282.7 			"/>
			<polygon fill="#FBC856" points="996.5,282.7 1043.7,282.5 1044.2,235.3 			"/>
		</g>
		<polygon fill="#E4C74C" points="1044.1,235.2 996.3,234.9 996.6,282.7 		"/>
		<polygon fill="#CBAD5D" points="996.6,187.9 996.3,235.1 1044.1,235.4 		"/>
		<g>
			<polygon fill="#CBAD5D" points="1043.8,329.8 996,329.5 996.3,377.3 			"/>
			<polygon fill="#FDDE55" points="996.3,282.5 996,329.8 1043.8,330.1 			"/>
		</g>
		<g>
			<g>
				<g>
					<polygon fill="#C7AC4A" points="996.3,377 1043.6,376.8 1044,329.6 					"/>
				</g>
			</g>
		</g>
		<g>
			<g>
				<g>
					<polygon fill="#DCBE5D" points="1043.9,235.5 1043.6,187.7 996.4,187.9 					"/>
				</g>
			</g>
		</g>
		<g>
			<polygon fill="#C47429" points="1232.6,46.6 1280.4,46.3 1280.2,94.1 			"/>
			<polygon fill="#B46C29" points="1280.2,-0.7 1280.4,46.5 1232.6,46.9 			"/>
		</g>
		<g>
			<polygon fill="#B46C29" points="1185.3,94 1233.1,93.7 1232.8,141.5 			"/>
			<polygon fill="#C47429" points="1232.7,141.7 1233.1,94 1280.3,94.2 			"/>
			<polygon fill="#C47429" points="1232.8,46.7 1233.1,94 1185.3,94.3 			"/>
			<polygon fill="#B46C29" points="1280.3,94.2 1233.1,94 1232.6,46.8 			"/>
		</g>
		<g>
			<polygon fill="#CFB247" points="1232.8,141.2 1280.6,140.9 1280.3,188.7 			"/>
			<polygon fill="#B46C29" points="1280.3,93.9 1280.6,141.1 1232.8,141.5 			"/>
		</g>
		<g>
			<polygon fill="#C47429" points="1185.1,-0.8 1232.9,-1.1 1232.6,46.7 			"/>
			<polygon fill="#B46C29" points="1232.6,46.8 1232.9,-0.9 1280.1,-0.7 			"/>
		</g>
		<g>
			<polygon fill="#DE9B2D" points="1232.5,140.9 1232.8,188.2 1185,188.5 			"/>
			<polygon fill="#E2A942" points="1280,188.4 1232.8,188.2 1232.3,141 			"/>
		</g>
		<g>
			<polygon fill="#DF8D27" points="1137.7,46.7 1185.5,46.4 1185.3,94.2 			"/>
			<polygon fill="#C47429" points="1185.2,94.3 1185.5,46.6 1232.7,46.8 			"/>
			<polygon fill="#C47429" points="1185.3,-0.6 1185.5,46.6 1137.7,46.9 			"/>
			<polygon fill="#B46C29" points="1232.8,46.8 1185.5,46.6 1185.1,-0.6 			"/>
		</g>
		<g>
			<polygon fill="#E7B333" points="1138,140.8 1185.8,140.6 1185.5,188.4 			"/>
			<polygon fill="#E2A942" points="1185.5,188.5 1185.8,140.8 1233,141 			"/>
			<polygon fill="#DE9B2D" points="1185.5,93.6 1185.8,140.8 1138,141.1 			"/>
			<polygon fill="#DE9B2D" points="1233.1,141 1185.8,140.8 1185.4,93.6 			"/>
		</g>
		<g>
			<polygon fill="#EEA829" points="1090.5,94 1138.3,93.7 1138,141.5 			"/>
			<polygon fill="#DF8D27" points="1138,141.7 1138.3,94 1185.5,94.2 			"/>
			<polygon fill="#E7B333" points="1138,46.7 1138.3,94 1090.5,94.3 			"/>
			<polygon fill="#DE9B2D" points="1185.5,94.2 1138.3,94 1137.9,46.8 			"/>
		</g>
		<g>
			<polygon fill="#DF8D27" points="1090.3,-1 1138.1,-1.2 1137.8,46.6 			"/>
			<polygon fill="#C47429" points="1137.8,46.7 1138.1,-1 1185.3,-0.8 			"/>
		</g>
		<g>
			<polygon fill="#E2A942" points="1138.3,140.8 1138.6,188 1090.8,188.3 			"/>
			<polygon fill="#E8BD25" points="1185.8,188.2 1138.6,188 1138.1,140.8 			"/>
		</g>
		<g>
			<polygon fill="#ECAB32" points="1090.4,94.2 1090.7,46.5 1137.9,46.7 			"/>
			<polygon fill="#ECAB32" points="1138,46.7 1090.7,46.5 1090.3,-0.7 			"/>
		</g>
		<g>
			<polygon fill="#E8BD25" points="1090.7,188.4 1091,140.6 1138.2,140.8 			"/>
			<polygon fill="#F1C325" points="1138.2,140.8 1091,140.6 1090.6,93.5 			"/>
		</g>
		<g>
			<polygon fill="#E4A132" points="1043.2,141.5 1043.5,93.8 1090.7,94 			"/>
			<polygon fill="#ECAB32" points="1090.7,94 1043.5,93.8 1043.1,46.6 			"/>
		</g>
		<polygon fill="#F1C325" points="1043.1,46.5 1090.9,46.2 1090.7,94 		"/>
		<polygon fill="#DE9B2D" points="1090.6,-0.8 1090.9,46.4 1043.1,46.7 		"/>
		<g>
			<polygon fill="#F0C049" points="1043.4,141.1 1091.2,140.9 1090.9,188.7 			"/>
			<polygon fill="#ECAB32" points="1090.9,93.9 1091.2,141.1 1043.4,141.4 			"/>
		</g>
		<g>
			<g>
				<polygon opacity="0.91" fill="#E7B333" points="1090.9,188.3 1043.6,188.1 1043.2,141 				"/>
			</g>
		</g>
		<g>
			<polygon fill="#E2A942" points="1043.3,46.8 1043.6,-1 1090.9,-0.8 			"/>
		</g>
		<g>
			<polygon fill="#CFB247" points="1232.7,235.1 1280.6,234.8 1280.3,282.6 			"/>
			<polygon fill="#AF924F" points="1280.3,187.8 1280.6,235 1232.7,235.3 			"/>
		</g>
		<g>
			<polygon fill="#BA9F4F" points="1185.4,282.5 1233.2,282.2 1232.9,330 			"/>
			<polygon fill="#AF924F" points="1232.9,330.2 1233.2,282.4 1280.4,282.6 			"/>
			<polygon fill="#AF924F" points="1232.9,235.2 1233.2,282.4 1185.4,282.8 			"/>
			<polygon fill="#C6A457" points="1280.4,282.6 1233.2,282.4 1232.7,235.3 			"/>
		</g>
		<g>
			<polygon fill="#83723C" points="1232.9,329.7 1280.7,329.4 1280.4,377.2 			"/>
			<polygon fill="#A0843F" points="1280.4,282.4 1280.7,329.6 1232.9,329.9 			"/>
		</g>
		<g>
			<polygon fill="#BA9F4F" points="1185.2,187.7 1233,187.4 1232.7,235.2 			"/>
			<polygon fill="#DE9B2D" points="1232.7,235.3 1233,187.6 1280.2,187.8 			"/>
		</g>
		<g>
			<g>
				<polygon fill="#B2954B" points="1232.6,329.4 1232.9,376.6 1185.1,377 				"/>
				<polygon fill="#A0843F" points="1280.1,376.8 1232.9,376.6 1232.4,329.5 				"/>
			</g>
		</g>
		<g>
			<polygon fill="#BA9F4F" points="1137.8,235.1 1185.6,234.9 1185.4,282.7 			"/>
			<polygon fill="#BA9F4F" points="1185.3,282.8 1185.6,235.1 1232.9,235.3 			"/>
			<polygon fill="#C7AC4A" points="1185.4,187.9 1185.6,235.1 1137.8,235.4 			"/>
			<polygon fill="#E2A942" points="1232.9,235.3 1185.6,235.1 1185.2,187.9 			"/>
		</g>
		<g>
			<polygon fill="#AF924F" points="1138.1,329.3 1185.9,329 1185.6,376.8 			"/>
			<polygon fill="#AD9851" points="1185.6,377 1185.9,329.3 1233.1,329.5 			"/>
			<polygon fill="#BA9F4F" points="1185.6,282 1185.9,329.3 1138.1,329.6 			"/>
			<polygon fill="#CFB247" points="1233.2,329.5 1185.9,329.3 1185.5,282.1 			"/>
		</g>
		<g>
			<polygon fill="#B69849" points="1090.6,282.5 1138.4,282.2 1138.1,330 			"/>
			<polygon fill="#C7AC4A" points="1138.1,330.2 1138.4,282.4 1185.6,282.6 			"/>
			<polygon fill="#BA9F4F" points="1138.1,235.2 1138.4,282.4 1090.6,282.8 			"/>
			<polygon fill="#C7AC4A" points="1185.6,282.6 1138.4,282.4 1138,235.3 			"/>
		</g>
		<g>
			<polygon fill="#CBB356" points="1090.4,187.5 1138.2,187.2 1137.9,235 			"/>
			<polygon fill="#E2A942" points="1137.9,235.2 1138.2,187.5 1185.4,187.7 			"/>
		</g>
		<g>
			<polygon fill="#B69849" points="1138.4,329.3 1138.7,376.5 1090.9,376.8 			"/>
			<polygon fill="#AD9851" points="1185.9,376.7 1138.7,376.5 1138.2,329.3 			"/>
		</g>
		<g>
			<polygon fill="#CBAD5D" points="1090.5,282.7 1090.8,234.9 1138,235.1 			"/>
			<polygon fill="#D8B558" points="1138.1,235.1 1090.8,234.9 1090.4,187.8 			"/>
		</g>
		<g>
			<polygon fill="#B2954B" points="1090.8,376.9 1091.1,329.1 1138.3,329.3 			"/>
			<polygon fill="#C7AC4A" points="1138.3,329.3 1091.1,329.1 1090.7,282 			"/>
		</g>
		<g>
			<polygon fill="#CBAD5D" points="1043.3,330 1043.6,282.3 1090.8,282.5 			"/>
			<polygon opacity="0.91" fill="#C1BC56" points="1090.8,282.5 1043.6,282.3 1043.2,235.1 			"/>
		</g>
		<polygon fill="#D2BB59" points="1043.2,235 1091,234.7 1090.8,282.5 		"/>
		<polygon fill="#D2BB59" points="1090.8,187.7 1091,234.9 1043.2,235.2 		"/>
		<g>
			<polygon fill="#C7AC4A" points="1043.5,329.6 1091.3,329.3 1091,377.1 			"/>
			<polygon fill="#D2BB59" points="1091,282.3 1091.3,329.6 1043.5,329.9 			"/>
		</g>
		<g>
			<g>
				<g>
					<polygon fill="#BA9F4F" points="1091,376.8 1043.8,376.6 1043.3,329.4 					"/>
				</g>
			</g>
		</g>
		<g>
			<g>
				<g>
					<polygon fill="#CBB356" points="1043.4,235.2 1043.8,187.5 1091,187.7 					"/>
				</g>
			</g>
		</g>
		<polygon fill="#DDDA88" points="1.9,45.9 2.2,-1.8 49.4,-1.6 		"/>
	</g>
	<g>
		<polyline fill="#DDDA88" points="286.8,470.6 286.5,422.8 239,470.4 		"/>
		<polyline fill="#D3DD8D" points="334,470.2 286.5,422.7 286.8,470.4 		"/>
		<polyline fill="#F1E48D" points="381.4,470.8 381.1,423 333.6,470.6 		"/>
		<polyline fill="#DBE8AA" points="428.6,470.4 381.1,422.9 381.4,470.6 		"/>
		<polygon fill="#D4E496" points="286.5,423.2 334.3,423.5 334,375.7 		"/>
		<polygon fill="#ECF0B9" points="334,375.6 334.3,423.3 381.5,423.1 		"/>
		<polyline fill="#DDDA88" points="334,470.5 334.3,423.3 286.5,423 334,470.5 		"/>
		<polyline fill="#DDE798" points="333.9,470.5 381.5,423.1 334.3,423.3 333.9,470.5 		"/>
		<polyline fill="#DAD585" points="192,470.7 191.7,422.9 144.2,470.4 		"/>
		<polyline fill="#DEE599" points="239.2,470.3 191.7,422.7 192,470.5 		"/>
		<polygon fill="#DEE599" points="191.7,423.2 239.5,423.5 239.2,375.7 		"/>
		<polygon fill="#DDDA88" points="239.2,375.6 239.5,423.3 286.7,423.1 		"/>
		<polyline fill="#DDDA88" points="239.2,470.5 239.5,423.3 191.7,423 239.2,470.5 		"/>
		<polyline fill="#DAD173" points="239.1,470.5 286.8,423.1 239.5,423.3 239.1,470.5 		"/>
		<g>
			<polygon fill="#E3EBA3" points="286.5,423.4 286.8,376.2 238.9,375.9 			"/>
			<polygon fill="#D3DD8D" points="334,376 286.8,376.2 286.3,423.4 			"/>
		</g>
		<g>
			<polygon fill="#DDDA88" points="191.4,423.5 191.7,376.3 143.9,376 			"/>
			<polygon fill="#D3DD8D" points="238.9,376.1 191.7,376.3 191.2,423.5 			"/>
		</g>
		<polygon fill="#DAD585" points="96.9,423.6 144.7,423.9 144.4,376.1 		"/>
		<polygon fill="#DDDA88" points="144.4,375.9 144.7,423.7 191.9,423.5 		"/>
		<polyline fill="#DDDA88" points="144.4,470.9 144.7,423.7 96.9,423.3 144.4,470.9 		"/>
		<polyline fill="#DEE599" points="144.3,470.8 192,423.5 144.7,423.7 144.3,470.8 		"/>
		<polyline fill="#DAD173" points="97.2,470.7 96.9,422.9 49.4,470.4 		"/>
		<polyline fill="#DAD585" points="144.4,470.3 96.9,422.7 97.2,470.5 		"/>
		<g>
			<polygon fill="#E8D87E" points="97.2,423.6 97.5,376.4 49.7,376.1 			"/>
			<polygon fill="#D3DD8D" points="144.7,376.2 97.5,376.4 97,423.6 			"/>
		</g>
		<polygon fill="#D3DD8D" points="49.6,376.1 49.9,423.8 97.1,423.6 		"/>
		<polyline fill="#E8D87E" points="49.5,471 97.1,423.6 49.9,423.8 49.5,471 		"/>
		<polyline fill="#EDEE9B" points="476.3,470.8 476,423 428.5,470.5 		"/>
		<polyline fill="#EBEFB1" points="523.5,470.4 476,422.8 476.3,470.6 		"/>
		<polygon fill="#DBE8AA" points="381.3,423.2 429.1,423.5 428.9,375.7 		"/>
		<polygon fill="#DDE798" points="428.8,375.5 429.1,423.2 476.4,423 		"/>
		<polyline fill="#F1E48D" points="428.9,470.5 429.1,423.2 381.3,422.9 428.9,470.5 		"/>
		<polyline fill="#EEEFAA" points="428.7,470.4 476.4,423 429.1,423.2 428.7,470.4 		"/>
		<g>
			<polygon fill="#EDEE9B" points="381.3,423.4 381.6,376.2 333.8,375.9 			"/>
			<polygon fill="#ECF0B9" points="428.9,376 381.6,376.2 381.2,423.4 			"/>
		</g>
		<polygon fill="#D8E7AD" points="476.2,423.3 524,423.5 523.7,375.7 		"/>
		<polyline opacity="0.91" fill="#D7E19D" points="523.7,470.5 524,423.3 476.2,423 523.7,470.5 		"/>
		<g>
			<polygon fill="#EDEE9B" points="476.2,423.5 476.4,376.2 428.6,375.9 			"/>
			<polygon fill="#EEF0AF" points="523.7,376 476.4,376.2 476,423.4 			"/>
		</g>
		<polyline fill="#DEE599" points="49.6,470.4 2.1,422.9 2.4,470.6 		"/>
		<polygon fill="#DAD585" points="2.3,423.3 50.1,423.6 49.8,375.8 		"/>
		<polyline fill="#E2D880" points="49.8,470.6 50.1,423.4 2.3,423.1 49.8,470.6 		"/>
		<g>
			<polygon opacity="0.91" fill="#E8D87E" points="49.8,376.1 2.6,376.3 2.1,423.5 			"/>
		</g>
		<polyline fill="#DFDA89" points="759.9,470.2 760.2,422.4 807.7,469.9 		"/>
		<polyline fill="#DFDA89" points="712.7,469.8 760.2,422.3 759.9,470 		"/>
		<polyline fill="#EDEE9B" points="665.3,470.4 665.5,422.6 713.1,470.1 		"/>
		<polyline fill="#E4EDB8" points="618,470 665.6,422.4 665.3,470.2 		"/>
		<polygon fill="#DFDA89" points="760.2,422.8 712.4,423.1 712.7,375.3 		"/>
		<polygon fill="#E3EBA3" points="712.7,375.1 712.4,422.9 665.2,422.7 		"/>
		<polyline fill="#EDED98" points="712.7,470.1 712.4,422.9 760.2,422.5 712.7,470.1 		"/>
		<polyline fill="#EEF0AF" points="712.8,470 665.1,422.7 712.4,422.9 712.8,470 		"/>
		<polyline fill="#D8D486" points="854.7,470.3 855,422.5 902.5,470 		"/>
		<polyline fill="#DFDA89" points="807.5,469.8 855,422.3 854.7,470 		"/>
		<polygon opacity="0.91" fill="#CBC364" points="855,422.8 807.2,423.1 807.4,375.3 		"/>
		<polygon fill="#F5E481" points="807.5,375.1 807.2,422.9 760,422.7 		"/>
		<polyline fill="#EDDA7F" points="807.5,470.1 807.2,422.9 855,422.5 807.5,470.1 		"/>
		<polyline fill="#DFDA89" points="807.6,470 759.9,422.7 807.2,422.9 807.6,470 		"/>
		<g>
			<polygon fill="#DFDA89" points="760.2,423 759.9,375.8 807.7,375.5 			"/>
			<polygon fill="#EDEE9B" points="712.7,375.6 759.9,375.8 760.3,423 			"/>
		</g>
		<g>
			<polygon fill="#D0CC7B" points="855.3,423.1 855,375.8 902.8,375.5 			"/>
			<polygon fill="#DCCD89" points="807.7,375.6 855,375.8 855.4,423 			"/>
		</g>
		<polygon opacity="0.91" fill="#CBC364" points="949.8,423.2 901.9,423.4 902.2,375.6 		"/>
		<polygon fill="#D2BB59" points="902.3,375.5 901.9,423.2 854.7,423 		"/>
		<polyline opacity="0.91" fill="#CBC364" points="902.2,470.4 901.9,423.2 949.8,422.9 902.2,470.4 		"/>
		<polyline opacity="0.91" fill="#CBC364" points="902.4,470.4 854.7,423 901.9,423.2 902.4,470.4 		"/>
		<polyline fill="#BA9F4F" points="949.5,470.3 949.8,422.5 997.3,470 		"/>
		<polyline fill="#CBAD5D" points="902.3,469.8 949.8,422.3 949.5,470 		"/>
		<g>
			<polygon fill="#D2BB59" points="949.5,423.2 949.2,376 997,375.7 			"/>
			<polygon opacity="0.91" fill="#CBC364" points="901.9,375.8 949.2,376 949.6,423.2 			"/>
		</g>
		<polygon fill="#CBAD5D" points="997.1,375.6 996.8,423.4 949.6,423.2 		"/>
		<polyline fill="#B69849" points="997.2,470.5 949.5,423.2 996.8,423.4 997.2,470.5 		"/>
		<polyline fill="#EEF0AF" points="570.4,470.4 570.7,422.5 618.2,470.1 		"/>
		<polyline fill="#EDF0BA" points="523.2,469.9 570.7,422.4 570.4,470.1 		"/>
		<polygon fill="#ECF0B9" points="665.3,422.7 617.5,423 617.8,375.2 		"/>
		<polygon opacity="0.91" fill="#D7E19D" points="617.8,375.1 617.5,422.8 570.3,422.6 		"/>
		<polyline fill="#EEF0AF" points="617.8,470 617.5,422.8 665.3,422.5 617.8,470 		"/>
		<polyline fill="#E4EDB8" points="618,470 570.3,422.6 617.5,422.8 618,470 		"/>
		<g>
			<polygon fill="#EDEE9B" points="665.3,423 665.1,375.7 712.9,375.4 			"/>
			<polygon fill="#DDE798" points="617.8,375.5 665.1,375.7 665.5,422.9 			"/>
		</g>
		<polygon fill="#EBEFB1" points="570.5,422.8 522.7,423.1 523,375.3 		"/>
		<polyline fill="#F1E48D" points="523,470.1 522.7,422.9 570.5,422.6 523,470.1 		"/>
		<g>
			<polygon fill="#DDE798" points="570.5,423 570.2,375.8 618,375.5 			"/>
			<polygon fill="#F1E48D" points="523,375.6 570.2,375.8 570.7,423 			"/>
		</g>
		<polyline fill="#B69849" points="997.1,470 1044.6,422.5 1044.3,470.2 		"/>
		<polygon fill="#AD9851" points="1044.4,422.9 996.6,423.1 996.9,375.3 		"/>
		<polyline fill="#C7AC4A" points="996.9,470.1 996.6,422.9 1044.4,422.6 996.9,470.1 		"/>
		<g>
			<g>
				<g>
					<polygon fill="#C7AC4A" points="996.9,375.7 1044.1,375.9 1044.5,423 					"/>
				</g>
			</g>
		</g>
		<polyline fill="#BA9F4F" points="1233.7,470.5 1233.4,422.7 1185.9,470.2 		"/>
		<polyline fill="#AF924F" points="1280.9,470 1233.4,422.5 1233.7,470.2 		"/>
		<polygon fill="#83723C" points="1233.4,423 1281.3,423.3 1281,375.5 		"/>
		<polyline fill="#A0843F" points="1281,470.3 1281.3,423.1 1233.4,422.7 1281,470.3 		"/>
		<g>
			<g>
				<polygon fill="#B2954B" points="1233.1,423.3 1233.4,376 1185.6,375.7 				"/>
				<polygon fill="#A0843F" points="1280.7,375.8 1233.4,376 1233,423.2 				"/>
			</g>
		</g>
		<polygon fill="#AF924F" points="1138.7,423.4 1186.5,423.6 1186.2,375.8 		"/>
		<polygon fill="#AD9851" points="1186.2,375.7 1186.5,423.4 1233.7,423.2 		"/>
		<polyline fill="#BA9F4F" points="1186.2,470.6 1186.5,423.4 1138.7,423.1 1186.2,470.6 		"/>
		<polyline fill="#CFB247" points="1186,470.6 1233.7,423.2 1186.5,423.4 1186,470.6 		"/>
		<polyline fill="#B69849" points="1138.9,470.5 1138.7,422.7 1091.1,470.2 		"/>
		<polyline fill="#C7AC4A" points="1186.2,470 1138.6,422.5 1138.9,470.2 		"/>
		<g>
			<polygon fill="#B69849" points="1138.9,423.4 1139.2,376.2 1091.4,375.9 			"/>
			<polygon fill="#AD9851" points="1186.5,376 1139.2,376.2 1138.8,423.4 			"/>
		</g>
		<polygon fill="#B2954B" points="1091.3,375.8 1091.6,423.6 1138.9,423.4 		"/>
		<polyline fill="#C7AC4A" points="1091.2,470.7 1138.9,423.4 1091.6,423.6 1091.2,470.7 		"/>
		<polyline fill="#C7AC4A" points="1091.4,470.2 1043.8,422.7 1044.1,470.4 		"/>
		<polygon fill="#C7AC4A" points="1044,423.1 1091.8,423.4 1091.6,375.5 		"/>
		<polyline fill="#D2BB59" points="1091.5,470.3 1091.8,423.1 1044,422.8 1091.5,470.3 		"/>
		<g>
			<g>
				<g>
					<polygon fill="#BA9F4F" points="1091.6,375.9 1044.3,376.1 1043.9,423.2 					"/>
				</g>
			</g>
		</g>
	</g>
</g>
<rect x="0" y="229.6" fill="none" width="1280" height="282.4"/>
<polyline fill="#141412" points="773.2,373.5 766.8,373.5 766.8,362.8 753.7,362.8 753.7,360.5 744.9,360.5 744.9,305.6 
	727.9,305.6 727.9,287.8 723.4,287.8 723.4,283 712.4,283 712.4,277.2 693.8,277.2 693.8,283 684.9,283 684.9,338 677.5,338.3 
	677.5,311.6 672.5,311.6 669.3,309.8 662.6,310.2 662.6,313 658.4,313.3 658.4,343.6 638,344.3 634.8,344.3 634.8,347.1 
	630.8,350.3 627.3,350.6 620.6,350.6 620.6,364 614.6,364 614.6,390 607.5,390 607.5,322.8 600.5,322.5 600.5,315.8 593.8,315.8 
	593.8,307.5 588.1,307.8 588.1,313.7 575.5,313.7 575.5,316.2 568.3,316.2 568.3,340.5 564.5,340.5 564.5,360.5 551.1,360.5 
	551.1,357 531,357.3 531,367.5 518.9,367.8 518.9,263.8 517.2,263.8 517.2,261 509.7,261 509.7,259 465.3,259 465.3,352 
	455.4,352.3 455.4,355.8 445.9,356.5 445.9,339.7 441.3,339.7 441.3,336.5 437.8,336.5 437.8,332 434.6,331.3 434.6,336.5 
	431.4,335.8 431.4,340.8 419.1,340.8 419.1,309.5 415.2,309.5 415.2,300 387.3,300 387.3,307.8 380.9,308.8 380.9,384.7 373.2,385 
	373.2,350.3 363.3,351.6 363.3,365.7 357.3,365.3 357.3,360.8 354.1,361.1 354.1,356.2 330.8,355.5 330.8,386.5 319.4,387.1 
	319.4,378 252.8,378.7 252.8,392.8 201.2,393.5 201.2,342.8 178.6,342.8 178.6,371.7 163.5,371.7 163.5,355.2 159.6,355.2 
	159.6,351.6 138.7,352 138.7,374.8 98.1,374.8 98.1,402.6 86.1,402.6 86.1,405 73.4,405 73.4,401.5 60.3,401.2 60.3,396.6 
	50.1,396.6 50.1,369.5 45.2,369.2 45.2,344.3 18.7,345.3 18.7,378 9.5,378.3 9.5,329.8 0,330.2 0,473.5 1280.8,471.8 1281.2,372.7 
	1267.9,372.7 1251,372.7 1251,360.1 1239.3,360.1 1239.3,340.6 1227.6,340.6 1227.6,386.5 1201.2,386.5 1201.2,346.3 1191.1,347 
	1191.1,325.8 1179,325.8 1179,337.5 1167.8,337.5 1157.2,345.3 1146.2,345.3 1146.2,355.8 1131.3,356.1 1131.3,359.5 1128.1,359.5 
	1128.1,386.5 1117.5,386.5 1117.5,378 1111,377.6 1111,380.1 1096.9,380.5 1096.9,374.1 1077.8,373.8 1077.8,314.8 1066.1,314.8 
	1066.1,321.8 1040.7,321.5 1040.7,384.3 1023.1,383.6 1023.1,393.5 995.9,393.5 995.9,386.5 987.1,386.5 987.1,347.8 970.5,347.5 
	970.5,354.1 954.6,354.1 954.6,356.1 942.5,356.1 942.5,360.8 934.5,361.5 924.9,361.1 924.9,356.1 915.1,356.1 915.1,362.5 
	899.5,362.5 899.5,365.7 883.7,366 883.7,372.3 873,372 873,382.2 871,382.2 871,391.7 867,391.3 867,366.8 863.1,366.3 
	863.1,347.8 854.4,347.5 854.4,343.6 834.2,342.8 834.2,348.1 823.3,348.5 823.3,374.1 800,374.1 800,386.8 791.1,387.5 
	791.1,384.3 776.7,384 776.7,388.5 773.2,389.2 "/>
</svg>
