<svg version="1.1" id="Layer_1" xmlns="http://www.w3.org/2000/svg" xmlns:xlink="http://www.w3.org/1999/xlink" x="0px" y="0px"
	 viewBox="0 165.2 1200 312.9" enable-background="new 0 165.2 1200 312.9" xml:space="preserve" width="100%" height="100%" class="svg-footer">
<g>
	<polygon fill="#D7E198" points="266.6,164.5 311.5,164.2 311.3,209.1 	"/>
	<polygon fill="#DDE798" points="311.2,209.3 311.5,164.4 355.8,164.6 	"/>
	<g>
		<polygon fill="#E3EBA3" points="222.4,209.1 267.2,208.9 266.9,253.7 		"/>
		<polygon fill="#DEE599" points="266.9,253.8 267.2,209.1 311.5,209.3 		"/>
		<polygon fill="#DFE89D" points="266.9,164.7 267.2,209.1 222.4,209.3 		"/>
		<polygon fill="#F3F1A9" points="311.5,209.3 267.2,209.1 266.8,164.8 		"/>
	</g>
	<g>
		<polygon fill="#DDE798" points="311.1,208.9 355.9,208.7 355.7,253.5 		"/>
		<polygon fill="#DBE8AA" points="355.6,253.6 355.9,208.9 400.3,209.1 		"/>
		<polygon fill="#EBF0BB" points="355.7,164.5 355.9,208.9 311.1,209.2 		"/>
		<polygon fill="#DBE8AA" points="400.3,209.1 355.9,208.9 355.5,164.6 		"/>
	</g>
	<g>
		<polygon fill="#EDEE9B" points="266.9,253.3 311.8,253 311.5,297.9 		"/>
		<polygon fill="#DFDA89" points="311.5,298.1 311.8,253.2 356,253.4 		"/>
		<polygon fill="#E3EBA3" points="311.5,209 311.8,253.2 266.9,253.5 		"/>
		<polygon fill="#DBE8AA" points="356,253.4 311.8,253.2 311.4,209 		"/>
	</g>
	<g>
		<polygon fill="#DEE599" points="177.8,164.5 222.7,164.3 222.5,209.2 		"/>
		<polygon fill="#D7E198" points="222.4,209.3 222.7,164.5 267,164.7 		"/>
	</g>
	<g>
		<polygon fill="#DEE599" points="133.4,209.1 178.2,208.8 178,253.6 		"/>
		<polygon fill="#E3EBA3" points="177.9,253.7 178.2,209 222.6,209.2 		"/>
		<polygon fill="#D8E69E" points="178,164.7 178.2,209 133.4,209.3 		"/>
		<polygon opacity="0.91" fill="#D7E19D" enable-background="new    " points="222.6,209.2 178.2,209 177.8,164.7 		"/>
	</g>
	<g>
		<polygon fill="#DFDA89" points="178,253.3 222.9,253 222.6,297.9 		"/>
		<polygon fill="#EDEE9B" points="222.6,298 222.9,253.2 267.1,253.4 		"/>
		<polygon fill="#D7E198" points="222.6,209 222.9,253.2 178,253.5 		"/>
		<polygon fill="#ECED9C" points="267.1,253.4 222.9,253.2 222.5,209 		"/>
	</g>
	<g>
		<polygon fill="#DFE89D" points="266.9,253.1 267.1,297.4 222.3,297.7 		"/>
		<polygon fill="#DFDA89" points="311.5,297.6 267.1,297.4 266.7,253.1 		"/>
	</g>
	<g>
		<polygon fill="#DFDA89" points="177.7,253 177.9,297.4 133.1,297.7 		"/>
		<polygon fill="#DFDA89" points="222.3,297.5 177.9,297.4 177.5,253.1 		"/>
	</g>
	<g>
		<polygon fill="#E3EBA3" points="88.8,164.6 133.7,164.3 133.4,209.2 		"/>
		<polygon fill="#E6ECAD" points="133.4,209.3 133.7,164.5 177.9,164.7 		"/>
	</g>
	<g>
		<polygon fill="#DFDA89" points="89.1,252.9 133.9,252.7 133.7,297.6 		"/>
		<polygon fill="#DFDA89" points="133.7,297.7 133.9,252.9 178.2,253.1 		"/>
		<polygon fill="#E3EBA3" points="133.7,208.6 133.9,252.9 89.1,253.2 		"/>
		<polygon fill="#D3DD8D" points="178.2,253.1 133.9,252.9 133.6,208.7 		"/>
	</g>
	<g>
		<polygon fill="#E8D87E" points="44.5,209.1 89.3,208.8 89.1,253.6 		"/>
		<polygon fill="#EDEFA9" points="89,253.7 89.3,209 133.7,209.2 		"/>
		<polygon fill="#E6ECAD" points="89.1,164.7 89.3,209 44.5,209.3 		"/>
		<polygon fill="#DBE8AB" points="133.7,209.2 89.3,209 88.9,164.7 		"/>
	</g>
	<g>
		<polygon fill="#D8E69E" points="89.3,252.9 89.6,297.2 44.7,297.5 		"/>
		<polygon fill="#DFDA89" points="133.9,297.4 89.6,297.2 89.2,252.9 		"/>
	</g>
	<g>
		<g>
			<g>
				<polygon fill="#D7D885" points="44.5,209.2 44.7,164.4 89,164.6 				"/>
			</g>
		</g>
	</g>
	<g>
		<polygon fill="#DFDA89" points="44.6,297.6 44.9,252.7 89.3,252.9 		"/>
		<polygon fill="#E0EAA7" points="89.3,252.9 44.9,252.7 44.6,208.5 		"/>
	</g>
	<polygon fill="#DDE798" points="355.6,164.5 400.5,164.3 400.3,209.2 	"/>
	<polygon fill="#EDF0BA" points="400.2,209.3 400.5,164.5 444.8,164.7 	"/>
	<g>
		<polygon fill="#D8E7AD" points="400.1,209 444.9,208.7 444.7,253.5 		"/>
		<polygon fill="#EEEFAA" points="444.6,253.7 444.9,208.9 489.3,209.1 		"/>
		<polygon fill="#F8F3AB" points="444.7,164.6 444.9,208.9 400.1,209.2 		"/>
		<polygon fill="#EDF0BA" points="489.3,209.1 444.9,208.9 444.6,164.6 		"/>
	</g>
	<g>
		<polygon fill="#D8E7AD" points="355.9,253.3 400.8,253.1 400.5,298 		"/>
		<polygon fill="#DDE798" points="400.5,298.1 400.8,253.3 445,253.5 		"/>
		<polygon fill="#E6ECAD" points="400.5,209 400.8,253.3 355.9,253.6 		"/>
		<polygon fill="#DDE798" points="445,253.5 400.8,253.3 400.3,209.1 		"/>
	</g>
	<g>
		<polygon fill="#DDE798" points="355.9,253.1 356.1,297.5 311.3,297.8 		"/>
		<polygon fill="#DFDA89" points="400.5,297.6 356.1,297.5 355.7,253.2 		"/>
	</g>
	<polygon fill="#EDF0BA" points="444.6,164.5 489.5,164.2 489.2,209.1 	"/>
	<g>
		<polygon fill="#EBEFB1" points="444.8,253.3 489.7,253 489.4,297.9 		"/>
		<polygon fill="#EEEFAA" points="489.4,209 489.7,253.2 444.8,253.5 		"/>
	</g>
	<g>
		<polygon fill="#DDE798" points="444.8,253.1 445.1,297.4 400.3,297.7 		"/>
		<polygon fill="#EDF0BA" points="489.4,297.6 445.1,297.4 444.7,253.1 		"/>
	</g>
	<g>
		<polygon fill="#FFEC8E" points="0.1,253.6 0.4,208.9 44.6,209.1 		"/>
		<polygon fill="#E8D87E" points="44.7,209.1 0.4,208.9 0,164.6 		"/>
	</g>
	<polygon fill="#FFEC8E" points="0.1,164.4 44.9,164.1 44.6,209.1 	"/>
	<g>
		<polygon fill="#EDEFA9" points="0.3,253.2 45.1,252.9 44.8,297.8 		"/>
		<polygon fill="#D7D885" points="44.8,208.9 45.1,253.1 0.3,253.5 		"/>
	</g>
	<g>
		<g>
			<polygon opacity="0.91" fill="#DFDA89" enable-background="new    " points="44.8,297.5 0.6,297.3 0.2,253 			"/>
		</g>
	</g>
	<polygon fill="#EDEE9B" points="711.8,164.9 666.9,164.6 667.1,209.5 	"/>
	<polygon fill="#EDED98" points="667.2,209.6 666.9,164.9 622.6,165.1 	"/>
	<g>
		<polygon fill="#D7D288" points="756,209.5 711.2,209.3 711.5,254.1 		"/>
		<polygon fill="#DFDA89" points="711.5,254.2 711.2,209.4 666.9,209.6 		"/>
		<polygon fill="#EDDA7F" points="711.5,165.2 711.2,209.4 756,209.7 		"/>
		<polygon fill="#DDDA88" points="666.9,209.6 711.2,209.4 711.6,165.2 		"/>
	</g>
	<g>
		<polygon fill="#E5ECAC" points="667.3,209.3 622.5,209.1 622.7,253.9 		"/>
		<polygon fill="#EEF0AF" points="622.8,254 622.5,209.3 578.1,209.4 		"/>
		<polygon fill="#EDED98" points="622.7,165 622.5,209.3 667.3,209.5 		"/>
		<polygon fill="#DDDA88" points="578.1,209.4 622.5,209.3 622.9,165 		"/>
	</g>
	<g>
		<polygon fill="#DFDA89" points="711.5,253.7 666.6,253.4 666.9,298.3 		"/>
		<polygon fill="#EDED98" points="666.9,298.5 666.6,253.6 622.4,253.8 		"/>
		<polygon fill="#E4EDB8" points="666.9,209.3 666.6,253.6 711.5,254 		"/>
		<polygon fill="#EEF0AF" points="622.4,253.8 666.6,253.6 667,209.4 		"/>
	</g>
	<g>
		<polygon fill="#DDDA88" points="800.6,165 755.7,164.7 756,209.5 		"/>
		<polygon fill="#DFDA89" points="756,209.6 755.7,164.9 711.5,165.1 		"/>
	</g>
	<g>
		<polygon fill="#DFDA85" points="845,209.4 800.2,209.2 800.4,254 		"/>
		<polygon fill="#DDDA88" points="800.5,254.2 800.2,209.3 755.8,209.5 		"/>
		<polygon fill="#D3DD8D" points="800.4,165.1 800.2,209.3 845,209.6 		"/>
		<polygon fill="#D3DD8D" points="755.8,209.5 800.2,209.3 800.6,165.1 		"/>
	</g>
	<g>
		<polygon fill="#D7D288" points="800.4,253.7 755.5,253.4 755.8,298.3 		"/>
		<polygon fill="#DFDA85" points="755.8,298.5 755.5,253.6 711.3,253.8 		"/>
		<polygon fill="#EDDA7F" points="755.8,209.3 755.5,253.6 800.4,253.9 		"/>
		<polygon fill="#DFDA89" points="711.3,253.8 755.5,253.6 756,209.3 		"/>
	</g>
	<g>
		<polygon fill="#DFDA89" points="711.5,253.5 711.3,297.8 756.1,298.1 		"/>
		<polygon fill="#ECEFB4" points="666.9,298 711.3,297.8 711.7,253.5 		"/>
	</g>
	<g>
		<polygon fill="#DFDA89" points="800.7,253.4 800.5,297.8 845.3,298.1 		"/>
		<polygon fill="#DFDA89" points="756.1,298 800.5,297.8 800.9,253.5 		"/>
	</g>
	<g>
		<polygon fill="#DFDA89" points="889.6,165 844.7,164.8 845,209.6 		"/>
		<polygon opacity="0.91" fill="#D7E19D" enable-background="new    " points="845,209.7 844.7,165 800.5,165.2 		"/>
	</g>
	<g>
		<polygon fill="#D8D486" points="889.3,253.4 844.5,253.1 844.7,298 		"/>
		<polygon fill="#E8D676" points="844.7,298.1 844.5,253.3 800.2,253.5 		"/>
		<polygon fill="#DFD27A" points="844.7,209.1 844.5,253.3 889.3,253.6 		"/>
		<polygon fill="#DAD37F" points="800.2,253.5 844.5,253.3 844.9,209.1 		"/>
	</g>
	<g>
		<polygon fill="#DFDA89" points="933.9,209.4 889.1,209.2 889.3,254 		"/>
		<polygon fill="#DDE798" points="889.4,254.2 889.1,209.3 844.7,209.5 		"/>
		<polygon opacity="0.91" fill="#CBC364" enable-background="new    " points="889.3,165.1 889.1,209.3 933.9,209.6 		"/>
		<polygon fill="#D4D184" points="844.7,209.5 889.1,209.3 889.5,165.1 		"/>
	</g>
	<g>
		<polygon fill="#DFDA89" points="889.1,253.3 888.8,297.6 933.7,298 		"/>
		<polygon fill="#D1D37E" points="844.5,297.8 888.8,297.6 889.2,253.4 		"/>
	</g>
	<g>
		<polygon fill="#DDE798" points="934,209.6 933.8,164.8 889.4,165 		"/>
	</g>
	<g>
		<polygon fill="#DFDA89" points="933.8,298 933.5,253.2 889.2,253.4 		"/>
		<polygon fill="#D2BB59" points="889.1,253.4 933.5,253.2 933.9,209 		"/>
	</g>
	<polygon fill="#EDED98" points="622.8,165 577.9,164.7 578.2,209.5 	"/>
	<polygon fill="#EDED98" points="578.2,209.6 577.9,164.9 533.7,165.1 	"/>
	<g>
		<polygon fill="#E4EDB8" points="578.3,209.3 533.5,209.1 533.8,253.9 		"/>
		<polygon fill="#DDE798" points="533.8,254.1 533.5,209.3 489.2,209.4 		"/>
		<polygon fill="#EDF0BA" points="533.8,165 533.5,209.3 578.3,209.6 		"/>
		<polygon fill="#DDE798" points="489.1,209.4 533.5,209.3 533.9,165.1 		"/>
	</g>
	<g>
		<polygon fill="#E4EDB8" points="622.6,253.7 577.7,253.5 577.9,298.4 		"/>
		<polygon fill="#DFDA89" points="578,298.5 577.7,253.7 533.4,253.9 		"/>
		<polygon fill="#EDF0BA" points="577.9,209.4 577.7,253.7 622.6,254 		"/>
		<polygon fill="#DDE798" points="533.4,253.9 577.7,253.7 578.1,209.4 		"/>
	</g>
	<g>
		<polygon fill="#DDDA88" points="622.6,253.5 622.3,297.9 667.1,298.2 		"/>
		<polygon fill="#ECEFB4" points="577.9,298.1 622.3,297.9 622.7,253.6 		"/>
	</g>
	<polygon fill="#D8E7AD" points="533.8,164.9 488.9,164.6 489.2,209.4 	"/>
	<g>
		<polygon fill="#DFDA89" points="533.6,253.7 488.7,253.4 489,298.3 		"/>
		<polygon fill="#EDF0BA" points="489,209.3 488.7,253.6 533.6,253.9 		"/>
	</g>
	<g>
		<polygon fill="#DFDA89" points="533.6,253.5 533.3,297.8 578.1,298.1 		"/>
		<polygon fill="#DFDA89" points="489,298 533.3,297.8 533.8,253.5 		"/>
	</g>
	<g>
		<polygon fill="#DDD580" points="978.3,254 978,209.3 933.8,209.4 		"/>
		<polygon fill="#CBB356" points="933.7,209.4 978,209.3 978.4,165 		"/>
	</g>
	<polygon fill="#D3B55E" points="978.3,164.8 933.5,164.6 933.8,209.4 	"/>
	<g>
		<polygon opacity="0.91" fill="#CBC364" enable-background="new    " points="978.1,253.6 933.3,253.4 933.6,298.3 		"/>
		<polygon fill="#C8BE75" points="933.6,209.3 933.3,253.6 978.1,253.9 		"/>
	</g>
	<g opacity="0.91">
		<polygon fill="#CBC364" points="933.6,298 977.8,297.8 978.3,253.5 		"/>
	</g>
	<polygon fill="#EDEE9B" points="266.8,341.4 311.7,341.1 311.4,385.9 	"/>
	<polygon fill="#DDE798" points="311.4,386 311.7,341.3 355.9,341.4 	"/>
	<polygon fill="#E3EBA3" points="311.4,297 311.7,341.3 266.8,341.5 	"/>
	<polygon fill="#E6ECAD" points="355.9,341.4 311.7,341.3 311.2,297 	"/>
	<g>
		<polygon fill="#E3EBA3" points="222.5,385.9 267.3,385.6 267,430.5 		"/>
		<polygon fill="#D3DD8D" points="267,430.7 267.3,385.8 311.6,386 		"/>
		<polygon fill="#EBF0BB" points="267,341.5 267.3,385.8 222.5,386.1 		"/>
		<polygon fill="#F5E481" points="311.7,386 267.3,385.8 266.9,341.5 		"/>
	</g>
	<g>
		<polygon fill="#F1E48D" points="311.2,385.7 356,385.4 355.8,430.3 		"/>
		<polygon fill="#DBE8AA" points="355.7,430.5 356,385.6 400.4,385.8 		"/>
		<polygon fill="#EBF0BB" points="355.8,341.4 356,385.6 311.2,386 		"/>
		<polygon fill="#F1E48D" points="400.4,385.8 356,385.6 355.6,341.4 		"/>
	</g>
	<g>
		<polygon fill="#D4E496" points="267,430.2 311.9,429.9 311.6,474.7 		"/>
		<polygon fill="#ECF0B9" points="311.6,474.8 311.9,430.1 356.1,430.3 		"/>
		<polygon fill="#EDEE9B" points="311.6,385.8 311.9,430.1 267,430.4 		"/>
		<polygon fill="#DDDA88" points="356.2,430.3 311.9,430.1 311.5,385.8 		"/>
	</g>
	<g>
		<polygon fill="#ECF0B9" points="177.9,341.4 222.8,341.1 222.6,386 		"/>
		<polygon fill="#EDEE9B" points="222.5,386.1 222.8,341.4 267.1,341.4 		"/>
		<polygon fill="#ECED9C" points="222.6,297 222.8,341.4 177.9,341.6 		"/>
		<polygon fill="#F5E481" points="267.1,341.4 222.8,341.4 222.4,297.1 		"/>
	</g>
	<g>
		<polygon fill="#E3EBA3" points="133.5,385.8 178.3,385.6 178.1,430.5 		"/>
		<polygon fill="#DEE599" points="178,430.6 178.3,385.8 222.7,386 		"/>
		<polygon fill="#E3EBA3" points="178.1,341.4 178.3,385.8 133.5,386.1 		"/>
		<polygon opacity="0.91" fill="#D7E19D" enable-background="new    " points="222.7,386 178.3,385.8 177.9,341.5 		"/>
	</g>
	<g>
		<polygon fill="#DEE599" points="178.1,430.1 223,429.9 222.7,474.7 		"/>
		<polygon fill="#E6ECAD" points="222.7,474.8 223,430.1 267.2,430.3 		"/>
		<polygon fill="#F8F3AB" points="222.7,385.8 223,430.1 178.1,430.4 		"/>
		<polygon fill="#D3DD8D" points="267.2,430.3 223,430.1 222.6,385.8 		"/>
	</g>
	<g>
		<polygon fill="#E3EBA3" points="267,429.9 267.2,474.2 222.4,474.5 		"/>
		<polygon fill="#D3DD8D" points="311.6,474.4 267.2,474.2 266.8,430 		"/>
	</g>
	<g>
		<polygon fill="#F3F1A9" points="222.4,296.9 267.2,296.6 267,341.4 		"/>
		<polygon fill="#EBF0BB" points="266.9,341.5 267.2,296.8 311.6,297 		"/>
	</g>
	<g>
		<polygon fill="#FFEC8E" points="133.4,296.9 178.2,296.6 177.9,341.4 		"/>
		<polygon fill="#F5E481" points="177.9,341.5 178.2,296.8 222.5,297 		"/>
	</g>
	<g>
		<polygon fill="#DDDA88" points="177.8,429.9 178.1,474.1 133.3,474.4 		"/>
		<polygon fill="#E3EBA3" points="222.4,474.3 178.1,474.1 177.6,429.9 		"/>
	</g>
	<g>
		<polygon fill="#EEF0B1" points="88.9,341.4 133.8,341.2 133.5,386 		"/>
		<polygon fill="#FFEC8E" points="133.5,386.1 133.8,341.4 178,341.5 		"/>
		<polygon fill="#D7E198" points="133.5,297.1 133.8,341.4 88.9,341.6 		"/>
		<polygon fill="#DFE89D" points="178.1,341.5 133.8,341.4 133.4,297.1 		"/>
	</g>
	<g>
		<polygon fill="#EDEE9B" points="89.2,429.8 134,429.5 133.8,474.3 		"/>
		<polygon fill="#DEE599" points="133.8,474.5 134,429.7 178.3,429.9 		"/>
		<polygon fill="#E6EDB3" points="133.8,385.4 134,429.7 89.2,430 		"/>
		<polygon fill="#DEE599" points="178.3,429.9 134,429.7 133.7,385.4 		"/>
	</g>
	<g>
		<polygon fill="#D7E198" points="44.6,385.8 89.4,385.6 89.2,430.5 		"/>
		<polygon fill="#EAEEAB" points="89.1,430.6 89.4,385.8 133.8,386 		"/>
		<polygon fill="#EAEEAB" points="89.2,341.4 89.4,385.8 44.6,386.1 		"/>
		<polygon fill="#E3EBA3" points="133.8,386 89.4,385.8 89,341.5 		"/>
	</g>
	<g>
		<polygon fill="#DFE89D" points="44.4,296.7 89.3,296.5 89,341.4 		"/>
		<polygon fill="#DEE599" points="89,341.4 89.3,296.7 133.6,296.9 		"/>
	</g>
	<g>
		<polygon fill="#EDEE9B" points="89.4,429.8 89.7,474 44.8,474.3 		"/>
		<polygon fill="#D7E198" points="134,474.2 89.7,474 89.3,429.8 		"/>
	</g>
	<g>
		<polygon fill="#D7E19D" points="44.6,386 44.8,341.3 89.1,341.4 		"/>
		<polygon fill="#EAEEAB" points="89.1,341.4 44.8,341.3 44.4,297 		"/>
	</g>
	<g>
		<polygon fill="#D4E6AD" points="44.7,474.3 45,429.6 89.4,429.8 		"/>
		<polygon fill="#E0EAA7" points="89.4,429.8 45,429.6 44.6,385.3 		"/>
	</g>
	<polygon fill="#EBEFB1" points="355.7,341.4 400.6,341.1 400.4,385.9 	"/>
	<polygon fill="#EDEE9B" points="400.3,386.1 400.6,341.3 444.9,341.4 	"/>
	<polygon fill="#DDE798" points="400.4,297 400.6,341.3 355.7,341.5 	"/>
	<polygon fill="#EEEFAA" points="444.9,341.4 400.6,341.3 400.2,297.1 	"/>
	<g>
		<polygon fill="#DFDA89" points="400.2,385.7 445,385.5 444.8,430.4 		"/>
		<polygon fill="#EBEFB1" points="444.7,430.5 445,385.7 489.4,385.9 		"/>
		<polygon fill="#DDDA88" points="444.8,341.4 445,385.7 400.2,386 		"/>
		<polygon fill="#DDE798" points="489.4,385.9 445,385.7 444.6,341.4 		"/>
	</g>
	<g>
		<polygon fill="#DBE8AA" points="356,430.2 400.9,429.9 400.6,474.7 		"/>
		<polygon fill="#DDDA88" points="400.6,474.9 400.9,430.1 445.1,430.3 		"/>
		<polygon fill="#F1E48D" points="400.6,385.8 400.9,430.1 356,430.4 		"/>
		<polygon fill="#EEEFAA" points="445.1,430.3 400.9,430.1 400.5,385.8 		"/>
	</g>
	<g>
		<polygon fill="#ECEFB4" points="356,430 356.2,474.2 311.4,474.5 		"/>
		<polygon fill="#ECF0B9" points="400.6,474.4 356.2,474.2 355.8,430 		"/>
	</g>
	<g>
		<polygon fill="#EEEFAA" points="311.4,296.9 356.2,296.6 356,341.4 		"/>
		<polygon fill="#DBE8AA" points="355.9,341.6 356.2,296.9 400.6,297 		"/>
	</g>
	<polygon fill="#D1D37E" points="444.7,341.3 489.6,341.1 489.3,385.9 	"/>
	<polygon fill="#DDE798" points="489.3,296.9 489.6,341.3 444.7,341.5 	"/>
	<g>
		<polygon fill="#D8E7AD" points="444.9,430.1 489.8,429.9 489.5,474.7 		"/>
		<polygon fill="#DDDA88" points="489.5,385.7 489.8,430.1 444.9,430.4 		"/>
	</g>
	<g>
		<polygon fill="#D1D37E" points="444.9,429.9 445.2,474.2 400.4,474.5 		"/>
		<polygon fill="#DDDA88" points="489.5,474.4 445.2,474.2 444.8,430 		"/>
	</g>
	<g>
		<polygon fill="#DDE798" points="400.4,296.9 445.2,296.6 444.9,341.4 		"/>
		<polygon fill="#EDF0BA" points="444.9,341.5 445.2,296.8 489.5,297 		"/>
	</g>
	<g>
		<polygon fill="#DAE7A3" points="0.2,430.5 0.5,385.6 44.8,385.8 		"/>
		<polygon fill="#E3EBA3" points="44.8,385.8 0.5,385.6 0.1,341.4 		"/>
	</g>
	<polygon fill="#EDEE9B" points="0.2,341.3 45,341 44.7,385.8 	"/>
	<polygon fill="#DAE7A3" points="44.7,296.9 45,341.2 0.2,341.4 	"/>
	<g>
		<polygon fill="#EDEFA9" points="0.4,430.1 45.2,429.8 44.9,474.6 		"/>
		<polygon fill="#EDEE9B" points="44.9,385.7 45.2,430 0.4,430.3 		"/>
	</g>
	<g>
		<polygon opacity="0.91" fill="#E0EAA7" enable-background="new    " points="44.9,474.3 0.7,474.1 0.3,429.9 		"/>
	</g>
	<g>
		<g>
			<g>
				<polygon fill="#D7D885" points="0.4,341.5 0.7,296.7 44.9,296.9 				"/>
			</g>
		</g>
	</g>
	<polygon fill="#DFDA89" points="711.7,341.7 666.8,341.4 667,386.3 	"/>
	<polygon fill="#DFDA89" points="667.1,386.5 666.8,341.6 622.5,341.8 	"/>
	<polygon fill="#E3EBA3" points="667,297.4 666.8,341.6 711.7,341.9 	"/>
	<polygon fill="#DFDA89" points="622.5,341.8 666.8,341.6 667.2,297.4 	"/>
	<g>
		<polygon fill="#DFDA89" points="755.9,386.3 711.1,386 711.4,430.9 		"/>
		<polygon fill="#DFDA89" points="711.4,431 711.1,386.3 666.8,386.5 		"/>
		<polygon fill="#DCCD89" points="711.4,341.9 711.1,386.3 755.9,386.6 		"/>
		<polygon fill="#DDDA88" points="666.8,386.5 711.1,386.3 711.5,342 		"/>
	</g>
	<g>
		<polygon fill="#DDDA88" points="667.2,386.1 622.4,385.9 622.6,430.7 		"/>
		<polygon fill="#E4EDB8" points="622.7,430.8 622.4,386.1 578,386.3 		"/>
		<polygon fill="#EDED98" points="622.6,341.7 622.4,386.1 667.2,386.4 		"/>
		<polygon fill="#EDED98" points="578,386.3 622.4,386.1 622.8,341.8 		"/>
	</g>
	<g>
		<polygon fill="#DFDA89" points="711.4,430.6 666.5,430.3 666.8,475.1 		"/>
		<polygon fill="#E3EBA3" points="666.8,475.2 666.5,430.5 622.3,430.7 		"/>
		<polygon fill="#EDED98" points="666.8,386.2 666.5,430.5 711.4,430.7 		"/>
		<polygon fill="#EEF0AF" points="622.3,430.7 666.5,430.5 666.9,386.2 		"/>
	</g>
	<g>
		<polygon fill="#DDDA88" points="800.5,341.7 755.6,341.5 755.8,386.4 		"/>
		<polygon fill="#DFDA89" points="755.9,386.5 755.6,341.7 711.3,341.9 		"/>
		<polygon fill="#D4D184" points="755.8,297.4 755.6,341.7 800.5,342 		"/>
		<polygon fill="#D3DD8D" points="711.3,341.9 755.6,341.7 756,297.5 		"/>
	</g>
	<g>
		<polygon fill="#DFDA89" points="844.9,386.3 800.1,386 800.3,430.8 		"/>
		<polygon fill="#DDDA88" points="800.4,430.9 800.1,386.2 755.7,386.4 		"/>
		<polygon fill="#D4E6AD" points="800.3,341.9 800.1,386.2 844.9,386.5 		"/>
		<polygon opacity="0.91" fill="#D7E19D" enable-background="new    " points="755.7,386.4 800.1,386.2 800.5,341.9 		"/>
	</g>
	<g>
		<polygon opacity="0.91" fill="#CBC364" enable-background="new    " points="800.3,430.6 755.4,430.3 755.7,475.1 		"/>
		<polygon fill="#DCCD89" points="755.7,475.2 755.4,430.5 711.2,430.7 		"/>
		<polygon fill="#EDDA7F" points="755.7,386.2 755.4,430.5 800.3,430.7 		"/>
		<polygon fill="#DFDA89" points="711.2,430.7 755.4,430.5 755.8,386.2 		"/>
	</g>
	<g>
		<polygon fill="#EDED98" points="711.4,430.4 711.2,474.6 756,474.9 		"/>
		<polygon fill="#EDEE9B" points="666.8,474.8 711.2,474.6 711.6,430.4 		"/>
	</g>
	<g>
		<polygon fill="#DFDA85" points="756,297.3 711.2,297 711.4,341.8 		"/>
		<polygon fill="#E5ECAC" points="711.5,342 711.2,297.2 666.8,297.4 		"/>
	</g>
	<g>
		<polygon fill="#FFEC8E" points="845,297.3 800.2,297 800.5,341.8 		"/>
		<polygon fill="#DFDA89" points="800.5,342 800.2,297.2 755.9,297.4 		"/>
	</g>
	<g>
		<polygon opacity="0.91" fill="#C1BC56" enable-background="new    " points="800.6,430.3 800.4,474.5 845.2,474.9 		"/>
		<polygon fill="#DDE798" points="756,474.7 800.4,474.5 800.8,430.4 		"/>
	</g>
	<g>
		<polygon fill="#EDD06B" points="889.5,341.8 844.6,341.5 844.9,386.4 		"/>
		<polygon fill="#DFDA89" points="844.9,386.6 844.6,341.7 800.4,341.9 		"/>
		<polygon fill="#FFD852" points="844.9,297.5 844.6,341.7 889.5,342 		"/>
		<polygon fill="#FFD852" points="800.3,341.9 844.6,341.7 845,297.5 		"/>
	</g>
	<g>
		<polygon opacity="0.91" fill="#CBC364" enable-background="new    " points="889.2,430.2 844.4,429.9 844.6,474.8 		"/>
		<polygon fill="#DDE798" points="844.6,474.9 844.4,430.2 800.1,430.4 		"/>
		<polygon opacity="0.91" fill="#CBC364" enable-background="new    " points="844.6,385.8 844.4,430.2 889.2,430.5 		"/>
		<polygon opacity="0.91" fill="#CBC364" enable-background="new    " points="800.1,430.4 844.4,430.2 844.7,385.9 		"/>
	</g>
	<g>
		<polygon opacity="0.91" fill="#CBC364" enable-background="new    " points="933.9,386.3 889,386 889.2,430.8 		"/>
		<polygon opacity="0.91" fill="#C1BC56" enable-background="new    " points="889.3,430.9 889,386.2 844.6,386.4 		"/>
		<polygon fill="#DDD580" points="889.2,341.9 889,386.2 933.9,386.5 		"/>
		<polygon fill="#DDE798" points="844.6,386.4 889,386.2 889.4,341.9 		"/>
	</g>
	<g>
		<polygon fill="#DFDA89" points="934,297.2 889.2,296.9 889.4,341.7 		"/>
		<polygon fill="#D8D486" points="889.5,341.8 889.2,297.1 844.8,297.3 		"/>
	</g>
	<g>
		<polygon fill="#D7D288" points="889,430.2 888.7,474.4 933.6,474.7 		"/>
		<polygon opacity="0.91" fill="#CBC364" enable-background="new    " points="844.4,474.6 888.7,474.4 889.1,430.2 		"/>
	</g>
	<g>
		<polygon fill="#FFD852" points="933.9,386.4 933.7,341.6 889.3,341.8 		"/>
		<polygon opacity="0.91" fill="#CBC364" enable-background="new    " points="889.3,341.8 933.7,341.6 934,297.4 		"/>
	</g>
	<g>
		<polygon opacity="0.91" fill="#C1BC56" enable-background="new    " points="933.7,474.8 933.4,430 889.1,430.2 		"/>
		<polygon opacity="0.91" fill="#CBC364" enable-background="new    " points="889,430.2 933.4,430 933.8,385.7 		"/>
	</g>
	<polygon fill="#ECEFB4" points="622.7,341.7 577.8,341.5 578,386.4 	"/>
	<polygon fill="#DDE798" points="578.1,386.5 577.8,341.7 533.5,341.9 	"/>
	<polygon fill="#EDED98" points="578,297.4 577.8,341.7 622.7,342 	"/>
	<polygon fill="#EDED98" points="533.5,341.9 577.8,341.7 578.2,297.5 	"/>
	<g>
		<polygon fill="#EEF0AF" points="578.2,386.2 533.4,385.9 533.7,430.7 		"/>
		<polygon fill="#EDF0BA" points="533.7,430.8 533.4,386.1 489.1,386.3 		"/>
		<polygon fill="#DDDA88" points="533.7,341.8 533.4,386.1 578.2,386.4 		"/>
		<polygon fill="#D8E7AD" points="489,386.3 533.4,386.1 533.8,341.8 		"/>
	</g>
	<g>
		<polygon fill="#ECF0B9" points="622.4,430.6 577.5,430.3 577.8,475.2 		"/>
		<polygon fill="#DDDA88" points="577.8,475.3 577.5,430.6 533.3,430.7 		"/>
		<polygon fill="#EEF0AF" points="577.8,386.2 577.5,430.6 622.4,430.8 		"/>
		<polygon fill="#E4EDB8" points="533.3,430.7 577.5,430.6 578,386.3 		"/>
	</g>
	<g>
		<polygon fill="#EDEE9B" points="622.5,430.4 622.2,474.6 667,475 		"/>
		<polygon fill="#E4EDB8" points="577.8,474.8 622.2,474.6 622.6,430.5 		"/>
	</g>
	<g>
		<polygon fill="#E5ECAC" points="667,297.3 622.2,297.1 622.4,341.9 		"/>
		<polygon fill="#EEF0AF" points="622.5,342 622.2,297.3 577.8,297.5 		"/>
	</g>
	<polygon fill="#EDF0BA" points="533.7,341.7 488.8,341.4 489.1,386.3 	"/>
	<polygon fill="#F1E48D" points="489.1,297.4 488.8,341.6 533.7,341.9 	"/>
	<g>
		<polygon fill="#EBEFB1" points="533.5,430.6 488.6,430.3 488.9,475.1 		"/>
		<polygon fill="#ECEFB4" points="488.9,386.2 488.6,430.5 533.5,430.7 		"/>
	</g>
	<g>
		<polygon fill="#DDE798" points="533.5,430.3 533.2,474.6 578,474.9 		"/>
		<polygon fill="#DDE798" points="488.9,474.8 533.2,474.6 533.6,430.4 		"/>
	</g>
	<g>
		<polygon fill="#DDE798" points="578,297.3 533.2,297 533.5,341.8 		"/>
		<polygon fill="#EDF0BA" points="533.5,341.9 533.2,297.2 488.9,297.4 		"/>
	</g>
	<g>
		<polygon opacity="0.91" fill="#CBC364" enable-background="new    " points="978.2,430.8 977.9,386.1 933.7,386.3 		"/>
		<polygon fill="#CBC364" points="933.6,386.3 977.9,386.1 978.3,341.8 		"/>
	</g>
	<polygon fill="#D3B55E" points="978.2,341.6 933.4,341.4 933.7,386.2 	"/>
	<polygon fill="#DDD580" points="933.7,297.3 933.4,341.6 978.2,341.9 	"/>
	<g>
		<polygon fill="#AD9851" points="978,430.5 933.2,430.2 933.5,475 		"/>
		<polygon opacity="0.91" fill="#C1BC56" enable-background="new    " points="933.5,386.1 933.2,430.4 978,430.7 		"/>
	</g>
	<g>
		<g>
			<g>
				<polygon fill="#C7AC4A" points="933.5,474.7 977.7,474.5 978.2,430.3 				"/>
			</g>
		</g>
	</g>
	<g>
		<polygon fill="#D4D184" points="978,341.9 977.7,297.2 933.5,297.4 		"/>
	</g>
	<g>
		<polygon fill="#897B4A" points="1155.2,164.8 1200,164.5 1199.7,209.3 		"/>
	</g>
	<g>
		<polygon fill="#C8BE75" points="1110.7,209.3 1155.5,209 1155.3,253.8 		"/>
		<polygon fill="#B2954B" points="1155.3,254 1155.5,209.2 1199.8,209.3 		"/>
		<polygon fill="#C6AC4E" points="1155.3,164.9 1155.5,209.2 1110.7,209.4 		"/>
		<polygon fill="#C7AC4A" points="1199.9,209.3 1155.5,209.2 1155.2,164.9 		"/>
	</g>
	<g>
		<polygon fill="#83723C" points="1155.3,253.5 1200.1,253.2 1199.9,298.1 		"/>
		<polygon fill="#E4C167" points="1199.9,209.2 1200.1,253.4 1155.3,253.7 		"/>
	</g>
	<g>
		<polygon fill="#AF924F" points="1155,253.3 1155.3,297.6 1110.4,297.9 		"/>
		<polygon fill="#CFB247" points="1199.6,297.8 1155.3,297.6 1154.9,253.3 		"/>
	</g>
	<g>
		<polygon fill="#D8B558" points="1066.1,164.8 1110.9,164.6 1110.7,209.4 		"/>
		<polygon fill="#C6AC4E" points="1110.6,209.5 1110.9,164.8 1155.3,165 		"/>
	</g>
	<g>
		<polygon fill="#DFDA89" points="1066.3,253.2 1111.2,252.9 1110.9,297.8 		"/>
		<polygon fill="#C8BE75" points="1110.9,297.9 1111.2,253.1 1155.4,253.3 		"/>
		<polygon fill="#B69849" points="1110.9,208.9 1111.2,253.1 1066.3,253.4 		"/>
		<polygon fill="#C7AC4A" points="1155.5,253.3 1111.2,253.1 1110.8,208.9 		"/>
	</g>
	<g>
		<polygon fill="#CBB356" points="1021.8,209.3 1066.6,209 1066.3,253.8 		"/>
		<polygon fill="#CBB356" points="1066.3,254 1066.6,209.2 1110.9,209.3 		"/>
		<polygon opacity="0.91" fill="#C1BC56" enable-background="new    " points="1066.3,164.9 1066.6,209.2 1021.8,209.4 		"/>
		<polygon opacity="0.91" fill="#CBC364" enable-background="new    " points="1110.9,209.3 1066.6,209.2 1066.2,164.9 		"/>
	</g>
	<g>
		<polygon fill="#D8B558" points="1066.6,253.1 1066.9,297.5 1022,297.8 		"/>
		<polygon fill="#CBAD5D" points="1111.2,297.6 1066.9,297.5 1066.4,253.2 		"/>
	</g>
	<g>
		<polygon fill="#D2BB59" points="1021.7,209.4 1022,164.6 1066.2,164.8 		"/>
	</g>
	<g>
		<polygon fill="#DFDA89" points="1022,297.8 1022.3,253 1066.5,253.2 		"/>
		<polygon opacity="0.91" fill="#C1BC56" enable-background="new    " points="1066.5,253.2 1022.3,253 1021.9,208.8 		"/>
	</g>
	<g>
		<polygon fill="#DFDA89" points="977.4,253.8 977.7,209.1 1022,209.3 		"/>
		<polygon fill="#C8BE75" points="1022,209.3 977.7,209.1 977.2,164.8 		"/>
	</g>
	<polygon fill="#D3B55E" points="977.3,164.6 1022.2,164.4 1021.9,209.3 	"/>
	<g>
		<polygon fill="#DFDA89" points="977.5,253.4 1022.4,253.2 1022.2,298.1 		"/>
		<polygon opacity="0.91" fill="#CBC364" enable-background="new    " points="1022.2,209.1 1022.4,253.4 977.5,253.7 		"/>
	</g>
	<g opacity="0.91">
		<polygon opacity="0.91" fill="#C1BC56" enable-background="new    " points="1022.2,297.8 977.8,297.6 977.4,253.3 		"/>
	</g>
	<g>
		<polygon fill="#544727" points="1155.3,341.5 1200.1,341.4 1199.8,386.2 		"/>
		<polygon fill="#83723C" points="1199.8,297.3 1200.1,341.5 1155.3,341.8 		"/>
	</g>
	<g>
		<polygon fill="#BA9F4F" points="1110.8,386.1 1155.6,385.8 1155.4,430.7 		"/>
		<polygon fill="#7F692F" points="1155.4,430.7 1155.6,386 1199.9,386.2 		"/>
		<polygon fill="#D0AD55" points="1155.4,341.7 1155.6,386 1110.8,386.3 		"/>
		<polygon fill="#CFB247" points="1200,386.2 1155.6,386 1155.3,341.7 		"/>
	</g>
	<g>
		<polygon fill="#544727" points="1155.4,430.4 1200.2,430.1 1200,474.9 		"/>
		<polygon fill="#83723C" points="1200,386 1200.2,430.3 1155.4,430.6 		"/>
	</g>
	<g>
		<polygon fill="#E4C167" points="1110.6,297.1 1155.4,296.8 1155.3,341.6 		"/>
		<polygon fill="#D0AD55" points="1155.2,341.8 1155.4,297 1199.8,297.2 		"/>
	</g>
	<g>
		<g>
			<g>
				<polygon fill="#83723C" points="1155.1,430.1 1155.4,474.3 1110.5,474.7 				"/>
			</g>
			<g>
				<polygon fill="#544727" points="1199.7,474.5 1155.4,474.3 1155,430.2 				"/>
			</g>
		</g>
	</g>
	<g>
		<polygon fill="#AD9851" points="1066.2,341.6 1111.1,341.4 1110.8,386.2 		"/>
		<polygon fill="#E4C167" points="1110.8,386.4 1111.1,341.5 1155.4,341.7 		"/>
		<polygon fill="#C7AC4A" points="1110.8,297.3 1111.1,341.5 1066.2,341.8 		"/>
		<polygon fill="#B69849" points="1155.4,341.7 1111.1,341.5 1110.6,297.3 		"/>
	</g>
	<g>
		<polygon fill="#D0AD55" points="1066.4,430 1111.3,429.8 1111.1,474.6 		"/>
		<polygon fill="#E4C167" points="1111,474.7 1111.3,430 1155.6,430.2 		"/>
		<polygon fill="#BA9F4F" points="1111.1,385.6 1111.3,430 1066.4,430.3 		"/>
		<polygon fill="#CFB247" points="1155.6,430.2 1111.3,430 1110.9,385.7 		"/>
	</g>
	<g>
		<polygon fill="#E4C167" points="1021.9,386.1 1066.7,385.8 1066.4,430.7 		"/>
		<polygon fill="#C7AC4A" points="1066.4,430.7 1066.7,386 1111,386.2 		"/>
		<polygon fill="#AD9851" points="1066.4,341.7 1066.7,386 1021.9,386.3 		"/>
		<polygon fill="#B2954B" points="1111.1,386.2 1066.7,386 1066.3,341.7 		"/>
	</g>
	<g>
		<polygon fill="#CBB356" points="1021.7,297 1066.5,296.7 1066.2,341.5 		"/>
		<polygon fill="#C8BE75" points="1066.2,341.6 1066.5,296.9 1110.8,297.1 		"/>
	</g>
	<g>
		<polygon fill="#D0AD55" points="1066.7,430 1067,474.2 1022.2,474.5 		"/>
		<polygon fill="#E4C167" points="1111.3,474.4 1067,474.2 1066.5,430 		"/>
	</g>
	<g>
		<polygon fill="#C8BE75" points="1021.8,386.2 1022.1,341.4 1066.3,341.6 		"/>
		<polygon fill="#D8B558" points="1066.4,341.6 1022.1,341.4 1021.7,297.2 		"/>
	</g>
	<g>
		<polygon fill="#B2954B" points="1022.1,474.6 1022.4,429.8 1066.6,430 		"/>
		<polygon fill="#C7AC4A" points="1066.6,430 1022.4,429.8 1022,385.5 		"/>
	</g>
	<g>
		<polygon fill="#C8BE75" points="977.5,430.7 977.8,385.9 1022.1,386.1 		"/>
		<polygon opacity="0.91" fill="#C1BC56" enable-background="new    " points="1022.1,386.1 977.8,385.9 977.4,341.6 		"/>
	</g>
	<polygon fill="#BA9F4F" points="977.4,341.4 1022.3,341.2 1022.1,386.1 	"/>
	<polygon fill="#D2BB59" points="1022.1,297.1 1022.3,341.4 977.4,341.7 	"/>
	<g>
		<polygon fill="#E4C167" points="977.7,430.3 1022.6,430 1022.3,474.8 		"/>
		<polygon fill="#AF924F" points="1022.3,385.9 1022.6,430.2 977.7,430.6 		"/>
	</g>
	<g>
		<g>
			<g>
				<polygon fill="#BA9F4F" points="1022.3,474.5 977.9,474.3 977.5,430.1 				"/>
			</g>
		</g>
	</g>
	<g opacity="0.91">
		<polygon fill="#CBC364" points="977.6,341.7 977.9,297 1022.2,297.2 		"/>
	</g>
</g>
<linearGradient id="SVGID_1_" gradientUnits="userSpaceOnUse" x1="600.0973" y1="463.4356" x2="600.0973" y2="185.9436">
	<stop  offset="0" style="stop-color:#D3DD8D"/>
	<stop  offset="1" style="stop-color:#D3DD8D;stop-opacity:0"/>
</linearGradient>
<rect y="165.2" fill="url(#SVGID_1_)" width="1200.2" height="312.9"/>
</svg>
