<?xml version="1.0" encoding="utf-8"?>
<!-- Generator: Adobe Illustrator 15.0.0, SVG Export Plug-In . SVG Version: 6.00 Build 0)  -->
<!DOCTYPE svg PUBLIC "-//W3C//DTD SVG 1.1//EN" "http://www.w3.org/Graphics/SVG/1.1/DTD/svg11.dtd">
<svg version="1.1" id="Layer_1" xmlns="http://www.w3.org/2000/svg" xmlns:xlink="http://www.w3.org/1999/xlink" x="0px" y="0px"
	 width="1198.17px" height="429.247px" viewBox="0 0 1198.17 429.247" enable-background="new 0 0 1198.17 429.247"
	 xml:space="preserve">
<g>
	<line fill="#7F7474" x1="290.944" y1="431.818" x2="290.944" y2="0.906"/>
	<g>
		<g>
			<g>
				<polygon fill="#E3D270" points="497.642,389.896 457.964,390.131 458.196,350.449 				"/>
				<polygon fill="#EFDD93" points="458.222,350.33 457.964,389.949 418.776,389.779 				"/>
				<polygon fill="#DFC881" points="458.196,429.135 457.964,389.949 497.642,389.689 				"/>
				<polygon fill="#DAC168" points="418.745,389.779 457.964,389.949 458.317,429.102 				"/>
				<g>
					<polygon fill="#EED16F" points="536.859,350.449 497.183,350.684 497.413,311.002 					"/>
					<polygon fill="#EFE17C" points="497.442,310.885 497.183,350.502 457.995,350.332 					"/>
					<polygon fill="#DAC168" points="497.414,389.689 497.183,350.502 536.859,350.238 					"/>
					<polygon fill="#EED16F" points="457.964,350.332 497.183,350.502 497.537,389.652 					"/>
				</g>
				<g>
					<polygon fill="#F7F2AD" points="458.317,350.615 418.64,350.848 418.87,311.168 					"/>
					<polygon fill="#EFF0AB" points="418.898,311.051 418.64,350.668 379.453,350.498 					"/>
					<polygon fill="#F8E8A6" points="418.874,389.854 418.64,350.668 458.317,350.402 					"/>
					<polygon fill="#EFF0AB" points="379.421,350.498 418.64,350.668 418.995,389.82 					"/>
				</g>
				<g>
					<polygon fill="#EEEF9C" points="497.443,311.328 457.764,311.564 457.997,271.881 					"/>
					<polygon fill="#EEF0AA" points="458.022,271.764 457.764,311.383 418.577,311.215 					"/>
					<polygon fill="#EEEF9C" points="457.998,350.568 457.764,311.383 497.443,311.119 					"/>
					<polygon fill="#EFF0AB" points="418.546,311.215 457.764,311.383 458.118,350.533 					"/>
				</g>
				<g>
					<polygon fill="#D8D797" points="576.234,389.848 536.555,390.084 536.789,350.402 					"/>
					<polygon fill="#E3D270" points="536.815,350.285 536.555,389.902 497.37,389.736 					"/>
					<polygon fill="#D8D797" points="536.789,429.088 536.555,389.902 576.234,389.639 					"/>
					<polygon fill="#BD9D55" points="497.339,389.736 536.555,389.902 536.911,429.055 					"/>
				</g>
				<g>
					<polygon fill="#BD9D55" points="615.56,350.498 575.882,350.73 576.112,311.051 					"/>
					<polygon fill="#DEDB89" points="576.141,310.932 575.882,350.549 536.695,350.385 					"/>
					<polygon fill="#D2AB50" points="576.112,389.736 575.882,350.549 615.56,350.287 					"/>
					<polygon fill="#D8D389" points="536.661,350.385 575.882,350.549 576.234,389.703 					"/>
				</g>
				<g>
					<polygon fill="#EAE494" points="576.11,311.332 536.431,311.568 536.663,271.887 					"/>
					<polygon fill="#EAE494" points="536.69,271.77 536.431,311.387 497.245,311.217 					"/>
					<polygon fill="#E0DB86" points="536.663,350.572 536.431,311.387 576.11,311.123 					"/>
					<polygon fill="#E0DB86" points="497.214,311.217 536.431,311.387 536.789,350.537 					"/>
				</g>
				<g>
					<polygon fill="#F3EAA8" points="497.448,311.504 497.214,272.316 536.892,272.057 					"/>
					<polygon fill="#F8E8A6" points="457.995,272.15 497.214,272.316 497.566,311.473 					"/>
				</g>
				<g>
					<polygon fill="#DAC168" points="536.892,429.223 497.214,429.457 497.444,389.771 					"/>
					<polygon fill="#DBC152" points="497.473,389.652 497.214,429.271 458.027,429.102 					"/>
				</g>
				<g>
					<polygon fill="#AF8740" points="615.685,429.223 576.003,429.457 576.234,389.771 					"/>
					<polygon fill="#EEEF9C" points="576.264,389.652 576.003,429.271 536.815,429.102 					"/>
				</g>
				<g>
					<polygon opacity="0.91" fill="#D8E29E" points="576.362,311.555 576.129,272.367 615.808,272.102 					"/>
					<polygon fill="#E0DB86" points="536.911,272.197 576.129,272.367 576.485,311.52 					"/>
				</g>
				<g>
					<polygon fill="#BA9A58" points="655.009,389.807 615.331,390.037 615.56,350.355 					"/>
					<polygon fill="#AF8740" points="615.589,350.238 615.331,389.855 576.141,389.689 					"/>
					<polygon fill="#88674F" points="615.56,429.041 615.331,389.855 655.009,389.592 					"/>
					<polygon fill="#B89152" points="576.11,389.689 615.331,389.855 615.685,429.012 					"/>
				</g>
				<g>
					<polygon fill="#E1BF61" points="654.778,311.637 615.099,311.869 615.331,272.188 					"/>
					<polygon fill="#DDC25F" points="615.358,272.07 615.099,311.689 575.913,311.52 					"/>
					<polygon fill="#BA9A58" points="615.331,350.877 615.099,311.689 654.778,311.424 					"/>
					<polygon fill="#AF8740" points="575.882,311.52 615.099,311.689 615.452,350.842 					"/>
				</g>
				<g>
					<polygon fill="#D2AB50" points="654.808,310.932 654.546,350.549 615.358,350.385 					"/>
					<polygon fill="#B89152" points="615.331,350.385 654.546,350.549 654.902,389.703 					"/>
				</g>
				<g>
					<polygon fill="#8C705E" points="654.966,389.766 654.709,429.383 615.524,429.217 					"/>
				</g>
				<g>
					<polygon fill="#D8BD6F" points="615.099,272.309 654.316,272.479 654.671,311.631 					"/>
				</g>
				<polygon fill="#EFF1B0" points="418.907,389.859 379.228,390.094 379.458,350.414 				"/>
				<polygon fill="#EEF1BB" points="379.488,350.295 379.228,389.912 340.038,389.744 				"/>
				<polygon fill="#F7F2AD" points="379.462,429.1 379.228,389.912 418.907,389.648 				"/>
				<polygon fill="#EEEF9C" points="340.009,389.744 379.228,389.912 379.582,429.066 				"/>
				<g>
					<polygon fill="#FAF5CA" points="379.582,350.578 339.901,350.811 340.136,311.127 					"/>
					<polygon fill="#F9F4AC" points="340.136,389.813 339.901,350.627 379.582,350.367 					"/>
				</g>
				<g>
					<polygon fill="#F7F2AD" points="418.71,311.291 379.028,311.527 379.26,271.846 					"/>
					<polygon fill="#F5F5C7" points="379.288,271.727 379.028,311.346 339.843,311.176 					"/>
					<polygon fill="#F7F2AD" points="379.261,350.531 379.028,311.346 418.71,311.08 					"/>
					<polygon fill="#F7F2AD" points="339.81,311.176 379.028,311.346 379.386,350.498 					"/>
				</g>
				<g>
					<polygon fill="#F8F4C9" points="418.712,311.467 418.478,272.281 458.156,272.016 					"/>
					<polygon fill="#F9F4AC" points="379.26,272.113 418.478,272.281 418.831,311.434 					"/>
				</g>
				<g>
					<polygon fill="#D2AB50" points="458.156,429.182 418.478,429.418 418.71,389.736 					"/>
					<polygon fill="#BD9D55" points="418.737,389.617 418.478,429.236 379.29,429.066 					"/>
				</g>
				<g>
					<polygon fill="#F9F4AC" points="340.007,311.521 339.774,272.338 379.453,272.074 					"/>
				</g>
				<g>
					<polygon fill="#F3EAB1" points="379.453,429.24 339.774,429.475 340.007,389.791 					"/>
					<polygon fill="#EEEF9C" points="340.034,389.672 339.774,429.291 300.587,429.123 					"/>
				</g>
				<polygon fill="#EEEF9C" points="497.548,233.459 457.869,233.691 458.103,194.012 				"/>
				<polygon fill="#F0F0A7" points="458.132,193.895 457.869,233.512 418.685,233.344 				"/>
				<polygon fill="#E4ECA4" points="458.104,272.697 457.869,233.512 497.548,233.248 				"/>
				<polygon fill="#E7EDAE" points="418.651,233.344 457.869,233.512 458.226,272.666 				"/>
				<g>
					<polygon fill="#E4ECA4" points="536.767,194.01 497.087,194.244 497.319,154.564 					"/>
					<polygon fill="#E7EDAE" points="497.347,154.443 497.087,194.063 457.903,193.895 					"/>
					<polygon fill="#ECF0B2" points="497.32,233.248 497.087,194.063 536.767,193.801 					"/>
					<polygon fill="#DFE69A" points="457.869,193.895 497.087,194.063 497.443,233.217 					"/>
				</g>
				<g>
					<polygon fill="#EDF0AE" points="458.226,194.176 418.546,194.41 418.778,154.727 					"/>
					<polygon fill="#EEF1BB" points="418.805,154.611 418.546,194.229 379.359,194.059 					"/>
					<polygon fill="#ECF1BC" points="418.78,233.414 418.546,194.229 458.226,193.965 					"/>
					<polygon fill="#F2F1BE" points="379.325,194.059 418.546,194.229 418.899,233.383 					"/>
				</g>
				<g>
					<polygon fill="#EDF0AE" points="497.35,154.893 457.673,155.127 457.904,115.447 					"/>
					<polygon fill="#EEEF9C" points="457.933,115.324 457.673,154.941 418.485,154.775 					"/>
					<polygon fill="#EEEF9C" points="457.904,194.129 457.673,154.941 497.35,154.682 					"/>
					<polygon fill="#F0F0A7" points="418.454,154.775 457.673,154.941 458.027,194.098 					"/>
				</g>
				<g>
					<polygon fill="#EAE494" points="576.141,233.412 536.464,233.646 536.695,193.965 					"/>
					<polygon fill="#F8E8A6" points="536.725,193.846 536.464,233.463 497.276,233.295 					"/>
					<polygon fill="#EAE494" points="536.698,272.65 536.464,233.463 576.141,233.201 					"/>
					<polygon fill="#F3EAA8" points="497.245,233.295 536.464,233.463 536.815,272.617 					"/>
				</g>
				<g>
					<polygon fill="#DFE69A" points="615.469,194.059 575.788,194.293 576.019,154.611 					"/>
					<polygon fill="#DEDB89" points="576.047,154.494 575.788,194.109 536.602,193.941 					"/>
					<polygon fill="#F2E28E" points="576.019,233.295 575.788,194.109 615.469,193.85 					"/>
					<polygon fill="#EAE494" points="536.567,193.941 575.788,194.109 576.141,233.264 					"/>
				</g>
				<g>
					<polygon fill="#DFE69A" points="576.019,154.896 536.337,155.129 536.571,115.449 					"/>
					<polygon fill="#E7EDAE" points="536.597,115.33 536.337,154.945 497.153,154.779 					"/>
					<polygon fill="#DFE69A" points="536.571,194.135 536.337,154.945 576.019,154.686 					"/>
					<polygon fill="#DCDF97" points="497.121,154.779 536.337,154.945 536.695,194.102 					"/>
				</g>
				<g>
					<polygon fill="#E4ECA4" points="497.354,155.068 497.121,115.881 536.8,115.617 					"/>
					<polygon fill="#DCE9AB" points="457.903,115.713 497.121,115.881 497.478,155.035 					"/>
				</g>
				<g>
					<polygon fill="#ECF0B2" points="536.8,272.783 497.121,273.016 497.354,233.336 					"/>
					<polygon fill="#F7F2AD" points="497.384,233.217 497.121,272.836 457.935,272.666 					"/>
				</g>
				<g>
					<polygon fill="#DBC152" points="615.591,272.783 575.913,273.016 576.146,233.336 					"/>
					<polygon fill="#DFE69A" points="576.171,233.217 575.913,272.836 536.726,272.666 					"/>
				</g>
				<g>
					<polygon fill="#DAD493" points="576.27,155.115 576.038,115.928 615.715,115.664 					"/>
					<polygon fill="#D4DE8E" points="536.815,115.762 576.038,115.928 576.392,155.084 					"/>
				</g>
				<g>
					<polygon fill="#DAC168" points="654.917,233.365 615.237,233.602 615.469,193.918 					"/>
					<polygon fill="#DAC168" points="615.493,193.801 615.237,233.418 576.052,233.25 					"/>
					<polygon fill="#D2AB50" points="615.469,272.602 615.237,233.418 654.917,233.156 					"/>
					<polygon fill="#DAC168" points="576.019,233.25 615.237,233.418 615.591,272.57 					"/>
				</g>
				<g>
					<polygon fill="#B7B46C" points="654.683,155.199 615.006,155.432 615.237,115.75 					"/>
					<polygon fill="#D8D389" points="615.265,115.635 615.006,155.25 575.819,155.084 					"/>
					<polygon fill="#ADA05F" points="615.237,194.436 615.006,155.25 654.683,154.986 					"/>
					<polygon fill="#D1D88C" points="575.788,155.084 615.006,155.25 615.358,194.404 					"/>
				</g>
				<g>
					<polygon fill="#C8C674" points="654.715,154.494 654.456,194.109 615.27,193.941 					"/>
					<polygon fill="#DAC168" points="615.237,193.941 654.456,194.109 654.81,233.264 					"/>
				</g>
				<g>
					<polygon fill="#D1B35C" points="654.876,233.328 654.616,272.947 615.429,272.777 					"/>
				</g>
				<g>
					<polygon fill="#ADA05F" points="615.006,115.873 654.223,116.043 654.581,155.193 					"/>
				</g>
				<polygon fill="#FAF2BA" points="418.815,233.422 379.134,233.654 379.365,193.973 				"/>
				<polygon fill="#F2F2C0" points="379.394,193.854 379.134,233.473 339.948,233.307 				"/>
				<polygon fill="#FAF5CA" points="379.368,272.658 379.134,233.473 418.815,233.213 				"/>
				<polygon fill="#F5F5C7" points="339.919,233.307 379.134,233.473 379.488,272.629 				"/>
				<g>
					<polygon fill="#FAF2BA" points="379.488,194.137 339.81,194.373 340.043,154.691 					"/>
					<polygon fill="#F9F8CE" points="340.043,233.375 339.81,194.191 379.488,193.928 					"/>
				</g>
				<g>
					<polygon fill="#EFF0AB" points="418.616,154.857 378.937,155.088 379.167,115.404 					"/>
					<polygon fill="#F5F5C7" points="379.192,115.289 378.937,154.906 339.751,154.74 					"/>
					<polygon fill="#F2F1BE" points="379.169,194.092 378.937,154.906 418.616,154.643 					"/>
					<polygon fill="#EFF0AB" points="339.718,154.74 378.937,154.906 379.29,194.059 					"/>
				</g>
				<g>
					<polygon fill="#EDF0B5" points="418.618,155.027 418.384,115.844 458.065,115.582 					"/>
					<polygon fill="#FAF2BA" points="379.167,115.676 418.384,115.844 418.737,154.996 					"/>
				</g>
				<g>
					<polygon fill="#EFF0AB" points="458.065,272.748 418.384,272.979 418.616,233.295 					"/>
					<polygon fill="#F8F4C9" points="418.642,233.178 418.384,272.795 379.196,272.629 					"/>
				</g>
				<g>
					<polygon fill="#FAF2BA" points="339.914,155.084 339.68,115.896 379.359,115.639 					"/>
				</g>
				<g>
					<polygon fill="#F9F8CE" points="379.359,272.801 339.68,273.035 339.914,233.354 					"/>
				</g>
			</g>
			<g>
				<polyline fill="#DCDF97" points="496.632,37.705 496.86,77.387 536.31,37.939 				"/>
				<polyline fill="#D4DE8E" points="457.446,38.057 496.892,77.506 496.632,37.891 				"/>
				<polyline fill="#D8D797" points="418.09,37.541 418.321,77.225 457.767,37.775 				"/>
				<polyline fill="#DEE899" points="378.902,37.893 418.348,77.342 418.09,37.723 				"/>
				<polygon fill="#D5E597" points="496.896,77.061 457.214,76.824 457.446,116.506 				"/>
				<polygon fill="#DCDF97" points="457.472,116.625 457.214,77.006 418.026,77.174 				"/>
				<polyline fill="#DEDB89" points="457.45,37.822 457.214,77.006 496.896,77.268 457.45,37.822 				"/>
				<polyline fill="#DEE899" points="457.565,37.852 417.997,77.174 457.214,77.006 457.565,37.852 				"/>
				<polyline fill="#C1BF71" points="575.332,37.656 575.563,77.34 615.011,37.893 				"/>
				<polyline fill="#D3C577" points="536.145,38.01 575.59,77.459 575.332,37.842 				"/>
				<polygon fill="#DEDB89" points="575.561,77.057 535.882,76.822 536.114,116.502 				"/>
				<polygon fill="#CCD287" points="536.14,116.619 535.882,77.002 496.694,77.17 				"/>
				<polyline fill="#CCD287" points="536.114,37.816 535.882,77.002 575.561,77.264 536.114,37.816 				"/>
				<polyline fill="#D8D797" points="536.237,37.848 496.664,77.17 535.882,77.002 536.237,37.848 				"/>
				<g>
					<polygon fill="#DEDB89" points="496.896,76.885 496.664,116.068 536.343,116.334 					"/>
					<polygon fill="#D4DE8E" points="457.446,116.238 496.664,116.068 497.019,76.918 					"/>
				</g>
				<g>
					<polygon fill="#D3C577" points="575.815,76.838 575.579,116.02 615.257,116.285 					"/>
					<polygon fill="#D8D389" points="536.361,116.189 575.579,116.02 575.933,76.869 					"/>
				</g>
				<polygon fill="#C1BF71" points="654.228,76.752 614.548,76.52 614.778,116.201 				"/>
				<polygon fill="#C1BF71" points="614.808,116.316 614.548,76.699 575.361,76.869 				"/>
				<polyline fill="#B7B46C" points="614.778,37.514 614.548,76.699 654.228,76.963 614.778,37.514 				"/>
				<polyline fill="#A8A76E" points="614.905,37.547 575.332,76.869 614.548,76.699 614.905,37.547 				"/>
				<polyline fill="#A8A76E" points="614.812,38.01 654.257,77.459 653.999,37.842 				"/>
				<g>
					<polygon fill="#B7B46C" points="613.001,117.27 652.214,117.1 652.573,77.947 					"/>
				</g>
				<polyline fill="#EFF0AB" points="339.353,37.576 339.586,77.26 379.032,37.813 				"/>
				<polygon fill="#EFF0AB" points="418.159,77.096 378.479,76.863 378.71,116.545 				"/>
				<polygon fill="#EEF1BB" points="378.738,116.662 378.479,77.043 339.296,77.213 				"/>
				<polyline fill="#EDEE9D" points="378.715,37.857 378.479,77.043 418.159,77.307 378.715,37.857 				"/>
				<polyline fill="#EFF0AB" points="378.833,37.893 339.261,77.213 378.479,77.043 378.833,37.893 				"/>
				<g>
					<polygon fill="#EEEF9C" points="418.163,76.924 417.929,116.109 457.605,116.373 					"/>
					<polygon fill="#EDF1BA" points="378.71,116.279 417.929,116.109 418.282,76.955 					"/>
				</g>
				<g>
					<polygon fill="#EEEF9C" points="339.457,76.865 339.224,116.053 378.902,116.314 					"/>
				</g>
			</g>
			<g>
				<polyline fill="#EFF0AB" points="340.277,116.074 301.095,116.242 340.54,155.691 				"/>
				<polyline fill="#EEF1BB" points="340.634,76.922 301.06,116.242 340.277,116.074 				"/>
				<polyline fill="#EEF1BB" points="340.577,76.785 300.897,76.553 301.13,116.232 340.577,76.785 				"/>
				<polyline fill="#F2F1BE" points="340.577,76.996 301.134,37.547 300.897,76.732 340.577,76.996 				"/>
				<polyline fill="#ECF0B2" points="340.378,155.352 300.702,155.119 300.933,194.801 340.378,155.352 				"/>
				<polyline fill="#EFF0AB" points="340.378,155.566 300.933,116.115 300.702,155.303 340.378,155.566 				"/>
				<polyline fill="#FAF5CA" points="340.505,155.213 300.933,194.531 340.149,194.367 				"/>
				<polyline fill="#EEEF9C" points="340.149,37.412 300.964,37.576 340.411,77.029 				"/>
				<polygon fill="#EED16F" points="104.25,77.168 143.927,76.934 143.695,116.617 				"/>
				<polygon fill="#E9D872" points="143.667,116.734 143.927,77.119 183.114,77.285 				"/>
				<polygon fill="#D7B763" points="143.695,37.932 143.927,77.119 104.25,77.379 				"/>
				<polygon fill="#D8BD6F" points="183.146,77.285 143.927,77.119 143.569,37.963 				"/>
				<g>
					<polygon fill="#DAC168" points="65.032,116.617 104.708,116.383 104.478,156.066 					"/>
					<polygon fill="#E8D37C" points="104.449,156.182 104.708,116.566 143.896,116.732 					"/>
					<polygon fill="#DAC168" points="104.478,77.379 104.708,116.566 65.032,116.826 					"/>
					<polygon fill="#E3D270" points="143.927,116.732 104.708,116.566 104.354,77.412 					"/>
				</g>
				<g>
					<polygon fill="#EFE4A0" points="143.569,116.453 183.251,116.219 183.019,155.9 					"/>
					<polygon fill="#EFF1B0" points="182.993,156.018 183.251,116.398 222.438,116.568 					"/>
					<polygon fill="#DFE69A" points="183.019,77.213 183.251,116.398 143.569,116.664 					"/>
					<polygon fill="#EFE4A0" points="222.469,116.568 183.251,116.398 182.894,77.248 					"/>
				</g>
				<g>
					<polygon fill="#DFE69A" points="104.444,155.736 144.128,155.502 143.896,195.186 					"/>
					<polygon fill="#EEEE99" points="143.864,195.305 144.128,155.686 183.31,155.854 					"/>
					<polygon fill="#EFE17C" points="143.892,116.5 144.128,155.686 104.444,155.947 					"/>
					<polygon fill="#EEEF9C" points="183.341,155.854 144.128,155.686 143.771,116.531 					"/>
				</g>
				<g>
					<polygon fill="#DBC152" points="25.655,77.219 65.337,76.98 65.101,116.664 					"/>
					<polygon fill="#D7B763" points="65.073,116.781 65.337,77.164 104.52,77.332 					"/>
					<polygon fill="#C2B05B" points="65.101,37.977 65.337,77.164 25.655,77.428 					"/>
					<polygon fill="#DFC765" points="104.55,77.332 65.337,77.164 64.979,38.01 					"/>
				</g>
				<g>
					<polygon fill="#C2B05B" points="-13.67,116.57 26.011,116.334 25.778,156.018 					"/>
					<polygon fill="#DBC152" points="25.749,156.133 26.011,116.516 65.196,116.686 					"/>
					<polygon fill="#BD9D55" points="25.778,77.332 26.011,116.516 -13.67,116.779 					"/>
					<polygon fill="#D7B763" points="65.228,116.686 26.011,116.516 25.655,77.361 					"/>
				</g>
				<g>
					<polygon fill="#DAC168" points="25.78,155.732 65.46,155.498 65.228,195.18 					"/>
					<polygon fill="#E8D37C" points="65.198,195.297 65.46,155.682 104.646,155.848 					"/>
					<polygon fill="#DAC168" points="65.224,116.496 65.46,155.682 25.78,155.941 					"/>
					<polygon fill="#E8D37C" points="104.678,155.848 65.46,155.682 65.104,116.525 					"/>
				</g>
				<g>
					<polygon fill="#DEDB89" points="104.442,155.563 104.678,194.748 64.999,195.012 					"/>
					<polygon fill="#EEEF9C" points="143.896,194.916 104.678,194.748 104.319,155.596 					"/>
				</g>
				<g>
					<polygon fill="#D9BB6C" points="64.999,37.846 104.678,37.611 104.442,77.293 					"/>
					<polygon fill="#DFC765" points="104.419,77.412 104.678,37.795 143.859,37.963 					"/>
				</g>
				<g>
					<polygon fill="#D1B35A" points="-13.79,37.846 25.887,37.611 25.655,77.293 					"/>
					<polygon fill="#D7B763" points="25.628,77.412 25.887,37.795 65.069,37.963 					"/>
				</g>
				<g>
					<polygon fill="#D1B35A" points="25.529,155.514 25.761,194.701 -13.921,194.963 					"/>
					<polygon fill="#D8BD6F" points="64.979,194.867 25.761,194.701 25.405,155.545 					"/>
				</g>
				<g>
					<polygon fill="#D1B35A" points="-13.696,116.826 -13.438,77.209 25.745,77.377 					"/>
					<polygon fill="#D2AB50" points="25.78,77.377 -13.438,77.209 -13.79,38.057 					"/>
				</g>
				<g>
					<polygon fill="#D9BB6C" points="-13.47,194.996 -13.207,155.379 25.976,155.545 					"/>
					<polygon opacity="0.91" fill="#C2BD56" points="26.011,155.545 -13.207,155.379 -13.563,116.221 					"/>
				</g>
				<polygon fill="#EEEE99" points="182.979,77.203 222.665,76.973 222.434,116.654 				"/>
				<polygon fill="#EEEE99" points="222.403,116.771 222.665,77.154 261.849,77.322 				"/>
				<polygon fill="#F0E385" points="222.429,37.969 222.665,77.154 182.979,77.42 				"/>
				<polygon fill="#EFE4A0" points="261.88,77.322 222.665,77.154 222.31,38.002 				"/>
				<g>
					<polygon fill="#E5EEB9" points="222.31,116.49 261.985,116.256 261.755,155.936 					"/>
					<polygon fill="#F2F1BE" points="261.727,156.059 261.985,116.441 301.173,116.607 					"/>
					<polygon fill="#EEF1BB" points="261.755,77.254 261.985,116.441 222.31,116.701 					"/>
					<polygon fill="#F7F2AD" points="301.204,116.607 261.985,116.441 261.632,77.285 					"/>
				</g>
				<g>
					<polygon fill="#EFF0AB" points="183.181,155.773 222.861,155.537 222.63,195.223 					"/>
					<polygon fill="#F9F4AC" points="222.604,195.34 222.861,155.721 262.049,155.891 					"/>
					<polygon fill="#EEF1BB" points="222.63,116.535 222.861,155.721 183.181,155.986 					"/>
					<polygon fill="#EEEF9C" points="262.079,155.891 222.861,155.721 222.505,116.568 					"/>
				</g>
				<g>
					<polygon fill="#EFF0AB" points="183.181,155.602 183.411,194.787 143.735,195.047 					"/>
					<polygon fill="#EDF0B5" points="222.63,194.953 183.411,194.787 183.058,155.633 					"/>
				</g>
				<g>
					<g>
						<g>
							<polygon fill="#DAC168" points="143.735,37.881 183.411,37.648 183.181,77.332 							"/>
						</g>
						<g>
							<polygon fill="#E8D37C" points="183.153,77.449 183.411,37.832 222.599,38 							"/>
						</g>
					</g>
				</g>
				<polygon fill="#F2F1BE" points="261.687,77.15 301.37,76.918 301.134,116.6 				"/>
				<polygon fill="#EFF0AB" points="301.134,37.912 301.37,77.098 261.687,77.361 				"/>
				<g>
					<polygon fill="#F9F4AC" points="261.884,155.719 301.564,155.484 301.333,195.164 					"/>
					<polygon fill="#EEF1BB" points="301.333,116.48 301.564,155.666 261.884,155.93 					"/>
				</g>
				<g>
					<polygon fill="#EEF1BB" points="261.884,155.543 262.114,194.73 222.438,194.992 					"/>
					<polygon fill="#ECF0B2" points="301.333,194.898 262.114,194.73 261.763,155.578 					"/>
				</g>
				<g>
					<polygon fill="#DFE69A" points="222.438,37.828 262.114,37.596 261.884,77.273 					"/>
					<polygon fill="#DFE69A" points="261.856,77.393 262.114,37.775 301.302,37.941 					"/>
				</g>
				<polyline fill="#FAF5CA" points="340.185,272.51 301.001,272.68 340.446,312.129 				"/>
				<polyline fill="#FAF5CA" points="340.541,233.357 300.968,272.68 340.185,272.51 				"/>
				<polyline fill="#F9F8CE" points="340.485,233.225 300.809,232.99 301.04,272.672 340.485,233.225 				"/>
				<polyline fill="#F5F5C7" points="340.485,233.434 301.04,193.986 300.809,233.174 340.485,233.434 				"/>
				<polyline fill="#F5F5C7" points="340.289,311.791 300.608,311.561 300.839,351.238 340.289,311.791 				"/>
				<polyline fill="#FAF5CA" points="340.289,312.002 300.839,272.553 300.608,311.738 340.289,312.002 				"/>
				<polyline fill="#EEF1BB" points="340.413,311.65 300.839,350.971 340.058,350.805 				"/>
				<polyline fill="#FAF2BA" points="340.058,193.846 300.87,194.016 340.317,233.467 				"/>
				<polygon fill="#EEEF9C" points="104.339,233.605 144.021,233.373 143.789,273.057 				"/>
				<polygon fill="#EEEF9C" points="143.759,273.172 144.021,233.555 183.204,233.723 				"/>
				<polygon fill="#EEEE99" points="143.784,194.367 144.021,233.555 104.339,233.818 				"/>
				<polygon fill="#E4ECA4" points="183.239,233.723 144.021,233.555 143.665,194.4 				"/>
				<g>
					<polygon fill="#E5EEB9" points="65.121,273.057 104.802,272.82 104.571,312.504 					"/>
					<polygon fill="#EEF1BB" points="104.543,312.623 104.802,273.004 143.989,273.172 					"/>
					<polygon fill="#EFF0AB" points="104.571,233.818 104.802,273.004 65.121,273.266 					"/>
					<polygon fill="#EEEF9C" points="144.021,273.172 104.802,273.004 104.444,233.852 					"/>
				</g>
				<g>
					<polygon fill="#EEEF9C" points="143.665,272.891 183.341,272.656 183.114,312.338 					"/>
					<polygon fill="#EFF0AB" points="183.082,312.457 183.341,272.838 222.532,273.006 					"/>
					<polygon fill="#EFF0AB" points="183.114,233.654 183.341,272.838 143.665,273.1 					"/>
					<polygon fill="#EEEE99" points="222.56,273.006 183.341,272.838 182.988,233.686 					"/>
				</g>
				<g>
					<polygon fill="#EFF1B0" points="104.54,312.176 144.217,311.941 143.989,351.621 					"/>
					<polygon fill="#E4ECA4" points="143.958,351.74 144.217,312.123 183.404,312.291 					"/>
					<polygon fill="#EEEE99" points="143.985,272.938 144.217,312.123 104.54,312.387 					"/>
					<polygon fill="#EFF1B0" points="183.435,312.291 144.217,312.123 143.859,272.969 					"/>
				</g>
				<g>
					<polygon fill="#EFE4A0" points="25.745,233.654 65.427,233.42 65.196,273.1 					"/>
					<polygon fill="#EEEF9C" points="65.168,273.219 65.427,233.602 104.61,233.77 					"/>
					<polygon fill="#F0E385" points="65.191,194.416 65.427,233.602 25.745,233.865 					"/>
					<polygon fill="#F0E385" points="104.642,233.77 65.427,233.602 65.069,194.447 					"/>
				</g>
				<g>
					<polygon fill="#E8D37C" points="-13.575,273.008 26.104,272.771 25.872,312.457 					"/>
					<polygon fill="#F0E385" points="25.845,312.574 26.104,272.955 65.29,273.123 					"/>
					<polygon fill="#E0DB86" points="25.872,233.77 26.104,272.955 -13.575,273.217 					"/>
					<polygon fill="#EEEE99" points="65.321,273.123 26.104,272.955 25.745,233.801 					"/>
				</g>
				<g>
					<polygon fill="#EDF0B5" points="25.872,312.172 65.554,311.936 65.317,351.617 					"/>
					<polygon fill="#EFF1B0" points="65.294,351.734 65.554,312.117 104.736,312.287 					"/>
					<polygon fill="#E4ECA4" points="65.317,272.934 65.554,312.117 25.872,312.383 					"/>
					<polygon fill="#EEEF9C" points="104.771,312.287 65.554,312.117 65.196,272.965 					"/>
				</g>
				<g>
					<polygon fill="#EEEE99" points="104.536,312 104.771,351.186 65.091,351.447 					"/>
					<polygon fill="#EEEF9C" points="143.989,351.352 104.771,351.186 104.414,312.031 					"/>
				</g>
				<g>
					<polygon fill="#DFE69A" points="65.091,194.285 104.771,194.051 104.536,233.732 					"/>
					<polygon fill="#EFF1B0" points="104.508,233.852 104.771,194.232 143.953,194.4 					"/>
				</g>
				<g>
					<polygon fill="#DAC168" points="-13.7,194.285 25.976,194.051 25.745,233.732 					"/>
					<polygon fill="#E9D872" points="25.722,233.852 25.976,194.232 65.163,194.4 					"/>
				</g>
				<g>
					<polygon fill="#E4ECA4" points="25.62,311.953 25.854,351.137 -13.827,351.4 					"/>
					<polygon fill="#E5EEB9" points="65.069,351.305 25.854,351.137 25.499,311.984 					"/>
				</g>
				<g>
					<polygon fill="#E9D872" points="-13.606,273.266 -13.347,233.648 25.84,233.816 					"/>
					<polygon opacity="0.91" fill="#C2BD56" points="25.872,233.816 -13.347,233.648 -13.7,194.496 					"/>
				</g>
				<g>
					<polygon fill="#DEE899" points="-13.376,351.434 -13.114,311.814 26.071,311.984 					"/>
					<polygon fill="#E0DB86" points="26.104,311.984 -13.114,311.814 -13.47,272.664 					"/>
				</g>
				<polygon fill="#EDF0B5" points="183.075,233.645 222.756,233.412 222.524,273.092 				"/>
				<polygon fill="#EFF0AB" points="222.497,273.211 222.756,233.594 261.938,233.762 				"/>
				<polygon fill="#EEEE99" points="222.524,194.408 222.756,233.594 183.075,233.854 				"/>
				<polygon fill="#EEEE99" points="261.974,233.762 222.756,233.594 222.398,194.439 				"/>
				<g>
					<polygon fill="#EFF1B0" points="222.398,272.93 262.079,272.693 261.849,312.375 					"/>
					<polygon fill="#F5F5C7" points="261.817,312.494 262.079,272.877 301.267,273.045 					"/>
					<polygon fill="#F9F4AC" points="261.849,233.689 262.079,272.877 222.398,273.141 					"/>
					<polygon fill="#FAF5CA" points="301.298,273.045 262.079,272.877 261.724,233.723 					"/>
				</g>
				<g>
					<polygon fill="#EEF1BB" points="183.274,312.211 222.955,311.979 222.724,351.662 					"/>
					<polygon fill="#EFF0AB" points="222.692,351.777 222.955,312.16 262.138,312.326 					"/>
					<polygon fill="#EFF1B0" points="222.721,272.973 222.955,312.16 183.274,312.422 					"/>
					<polygon fill="#F9F4AC" points="262.171,312.326 222.955,312.16 222.599,273.006 					"/>
				</g>
				<g>
					<polygon fill="#E5EEB9" points="183.27,312.037 183.505,351.225 143.829,351.486 					"/>
					<polygon fill="#E5EEB9" points="222.724,351.393 183.505,351.225 183.149,312.07 					"/>
				</g>
				<g>
					<polygon fill="#E6EDAD" points="143.829,194.322 183.505,194.088 183.27,233.77 					"/>
					<polygon fill="#EFF1B0" points="183.247,233.887 183.505,194.268 222.688,194.438 					"/>
				</g>
				<polygon fill="#F9F4AC" points="261.782,233.59 301.459,233.354 301.228,273.037 				"/>
				<polygon fill="#F7F2AD" points="301.228,194.352 301.459,233.537 261.782,233.797 				"/>
				<g>
					<polygon fill="#F9F4AC" points="261.978,312.158 301.655,311.922 301.424,351.605 					"/>
					<polygon fill="#FAF5CA" points="301.424,272.918 301.655,312.105 261.978,312.367 					"/>
				</g>
				<g>
					<polygon fill="#F5F5C7" points="261.974,311.982 262.21,351.168 222.532,351.43 					"/>
					<polygon fill="#F9F4AC" points="301.427,351.336 262.21,351.168 261.853,312.014 					"/>
				</g>
				<g>
					<polygon fill="#EFF0AB" points="222.532,194.268 262.21,194.033 261.978,233.715 					"/>
					<polygon fill="#EEF1BB" points="261.95,233.832 262.21,194.215 301.396,194.381 					"/>
				</g>
				<line fill="#ECF0B2" x1="300.54" y1="428.771" x2="339.99" y2="389.322"/>
				<polyline fill="#EFF0AB" points="339.831,389.66 300.149,389.895 300.384,350.211 339.831,389.66 				"/>
				<line fill="#FAF2BA" x1="339.831" y1="389.449" x2="300.384" y2="428.898"/>
				<polyline fill="#F3EAB1" points="300.384,428.898 300.149,389.713 339.831,389.449 				"/>
				<polyline fill="#EFF1B0" points="339.958,389.803 300.384,350.484 339.599,350.648 				"/>
				<polyline fill="#F3EAB1" points="104.344,428.631 104.112,388.951 64.667,428.396 				"/>
				<polyline fill="#EEEF9C" points="143.53,428.279 104.085,388.83 104.344,428.449 				"/>
				<polyline fill="#F3EAB1" points="182.886,428.795 182.654,389.115 143.208,428.561 				"/>
				<polyline fill="#EFF1B0" points="222.073,428.445 182.626,388.994 182.886,428.613 				"/>
				<polygon fill="#EDF1BA" points="104.085,389.277 143.761,389.514 143.53,349.832 				"/>
				<polygon fill="#E4ECA4" points="143.503,349.711 143.761,389.332 182.944,389.162 				"/>
				<polyline fill="#F3EAB1" points="143.526,428.518 143.761,389.332 104.085,389.064 143.526,428.518 				"/>
				<polyline fill="#EFF1B0" points="143.405,428.484 182.977,389.162 143.761,389.332 143.405,428.484 				"/>
				<polyline fill="#EFF1B0" points="25.644,428.68 25.417,388.998 -14.034,428.445 				"/>
				<polyline fill="#F3EAB1" points="64.835,428.328 25.384,388.877 25.644,428.496 				"/>
				<polygon opacity="0.91" fill="#D8E29E" points="25.417,389.281 65.093,389.516 64.862,349.836 				"/>
				<polygon fill="#E5EEB9" points="64.835,349.717 65.093,389.334 104.28,389.166 				"/>
				<polyline fill="#EDF0B5" points="64.862,428.521 65.093,389.334 25.417,389.07 64.862,428.521 				"/>
				<polyline fill="#EEEF9C" points="64.74,428.488 104.312,389.166 65.093,389.334 64.74,428.488 				"/>
				<g>
					<polygon fill="#EFF1B0" points="104.08,389.449 104.312,350.266 64.635,350.004 					"/>
					<polygon fill="#EEEF9C" points="143.53,350.098 104.312,350.266 103.958,389.42 					"/>
				</g>
				<g>
					<polygon opacity="0.91" fill="#D8E29E" points="25.165,389.498 25.396,350.314 -14.285,350.051 					"/>
					<polygon fill="#E4ECA4" points="64.61,350.145 25.396,350.314 25.04,389.467 					"/>
				</g>
				<polygon fill="#DFE69A" points="-13.834,350.018 -13.571,389.637 25.616,389.467 				"/>
				<polyline fill="#DEE899" points="-13.928,428.789 25.644,389.467 -13.571,389.637 -13.928,428.789 				"/>
				<polyline fill="#F3EAB1" points="261.621,428.76 261.39,389.076 221.944,428.525 				"/>
				<polyline fill="#F3EAB1" points="300.809,428.408 261.362,388.957 261.621,428.578 				"/>
				<polygon fill="#EDF1BA" points="182.819,389.24 222.497,389.475 222.265,349.793 				"/>
				<polygon fill="#EEF1BB" points="222.237,349.676 222.497,389.291 261.685,389.127 				"/>
				<polyline fill="#EFF1B0" points="222.265,428.479 222.497,389.291 182.819,389.029 222.265,428.479 				"/>
				<polyline fill="#EEEF9C" points="222.141,428.445 261.715,389.127 222.497,389.291 222.141,428.445 				"/>
				<g>
					<polygon fill="#EEEF9C" points="182.815,389.414 183.047,350.229 143.37,349.965 					"/>
					<polygon fill="#EDF1BA" points="222.265,350.059 183.047,350.229 182.689,389.381 					"/>
				</g>
				<polygon fill="#ECF0B2" points="261.519,389.295 301.2,389.531 300.968,349.848 				"/>
				<polyline fill="#EEF1BB" points="300.968,428.533 301.2,389.35 261.519,389.086 300.968,428.533 				"/>
				<g>
					<polygon fill="#F9F4AC" points="261.515,389.469 261.75,350.285 222.073,350.021 					"/>
					<polygon fill="#FAF2BA" points="300.968,350.115 261.75,350.285 261.397,389.438 					"/>
				</g>
			</g>
		</g>
		<line fill="#D8BD6F" x1="693.392" y1="272.018" x2="693.745" y2="311.174"/>
		<g>
			<polygon fill="#BA9A58" points="691.365,351.822 651.687,352.055 651.915,312.371 			"/>
			<polygon fill="#88674F" points="651.915,391.061 651.687,351.875 691.365,351.611 			"/>
			<polygon fill="#E1BF61" points="691.134,273.652 651.452,273.887 651.687,234.205 			"/>
			<polygon fill="#BA9A58" points="651.687,312.893 651.452,273.705 691.134,273.441 			"/>
			<g>
				<polygon fill="#D2AB50" points="691.163,272.949 690.902,312.568 651.715,312.4 				"/>
				<polygon fill="#B89152" points="651.687,312.4 690.902,312.568 691.26,351.721 				"/>
			</g>
			<g>
				<polygon fill="#8C705E" points="691.321,351.781 691.065,391.4 651.88,391.232 				"/>
			</g>
			<polygon fill="#D1B35C" points="691.271,195.385 651.593,195.619 651.825,155.936 			"/>
			<polygon fill="#D2AB50" points="651.825,234.619 651.593,195.436 691.271,195.174 			"/>
			<polygon fill="#B7B46C" points="691.038,117.217 651.362,117.449 651.593,77.766 			"/>
			<polygon fill="#ADA05F" points="651.593,156.453 651.362,117.27 691.038,117.006 			"/>
			<g>
				<polygon fill="#C8C674" points="691.071,116.512 690.812,156.129 651.624,155.959 				"/>
				<polygon fill="#DAC168" points="651.593,155.959 690.812,156.129 691.167,195.281 				"/>
			</g>
			<g>
				<polygon fill="#D1B35C" points="691.231,195.346 690.972,234.965 651.785,234.795 				"/>
			</g>
			<g>
				<polygon fill="#ADA05F" points="651.362,77.891 690.577,78.059 690.937,117.211 				"/>
			</g>
			<polygon fill="#C1BF71" points="690.583,38.771 650.901,38.537 651.136,78.219 			"/>
			<polyline fill="#B7B46C" points="651.085,0.117 650.853,39.303 690.533,39.564 651.085,0.117 			"/>
			<polyline fill="#A8A76E" points="651.167,0.027 690.61,39.477 690.354,-0.141 			"/>
			<g>
				<g>
					<g>
						<polygon fill="#AE9951" points="650.906,78.094 690.12,77.926 690.478,38.773 						"/>
					</g>
				</g>
			</g>
			<g>
				<polygon fill="#D8BD6F" points="651.646,234.352 690.864,234.52 691.22,273.674 				"/>
			</g>
		</g>
		<g>
			<polyline fill="#DCDF97" points="536.032,-0.152 536.259,39.529 575.708,0.084 			"/>
			<polyline fill="#D4DE8E" points="496.845,0.199 536.291,39.65 536.032,0.033 			"/>
			<polyline fill="#D8D797" points="457.489,-0.316 457.72,39.367 497.167,-0.082 			"/>
			<polyline fill="#DEE899" points="418.302,0.035 457.747,39.486 457.489,-0.135 			"/>
			<polyline fill="#DEDB89" points="496.849,-0.035 496.612,39.148 536.294,39.412 496.849,-0.035 			"/>
			<polyline fill="#DEE899" points="496.966,-0.004 457.397,39.318 496.612,39.148 496.966,-0.004 			"/>
			<polyline fill="#C1BF71" points="613.21,0 613.442,39.684 652.888,0.238 			"/>
			<polyline fill="#D3C577" points="575.337,-0.387 614.778,39.064 614.522,-0.553 			"/>
			<polyline fill="#B7B46C" points="575.513,-0.041 575.28,39.146 614.96,39.408 575.513,-0.041 			"/>
			<polyline fill="#D8D797" points="575.637,-0.008 536.063,39.314 575.28,39.146 575.637,-0.008 			"/>
			<polyline fill="#A8A76E" points="651.167,-0.404 611.596,38.918 650.812,38.748 651.167,-0.404 			"/>
			<polyline fill="#EFF0AB" points="378.753,-0.281 378.985,39.402 418.431,-0.043 			"/>
			<polyline fill="#EDEE9D" points="418.114,0.002 417.879,39.188 457.558,39.449 418.114,0.002 			"/>
			<polyline fill="#EFF0AB" points="418.233,0.035 378.661,39.355 417.879,39.188 418.233,0.035 			"/>
			<polyline fill="#EFF0AB" points="379.976,39.139 340.532,-0.311 340.298,38.877 379.976,39.139 			"/>
			<line fill="#EEEF9C" x1="340.364" y1="-0.279" x2="379.81" y2="39.172"/>
			<polygon fill="#D7B763" points="183.094,0.076 183.325,39.262 143.647,39.521 			"/>
			<polygon fill="#D8BD6F" points="222.544,39.428 183.325,39.262 182.968,0.105 			"/>
			<polygon fill="#C2B05B" points="104.501,0.121 104.736,39.309 65.054,39.57 			"/>
			<polygon fill="#DFC765" points="143.95,39.475 104.736,39.309 104.379,0.154 			"/>
			<g>
				<polygon fill="#D9BB6C" points="104.397,-0.012 144.075,-0.244 143.839,39.436 				"/>
				<polygon fill="#DFC765" points="143.817,39.557 144.075,-0.061 183.258,0.105 				"/>
			</g>
			<g>
				<polygon fill="#D1B35A" points="25.608,-0.012 65.286,-0.244 65.054,39.436 				"/>
				<polygon fill="#D7B763" points="65.027,39.557 65.286,-0.061 104.468,0.105 				"/>
			</g>
			<polygon fill="#D2AB50" points="65.18,39.521 25.962,39.352 25.608,0.199 			"/>
			<polygon fill="#F0E385" points="261.827,0.111 262.063,39.295 222.378,39.563 			"/>
			<polygon fill="#EFE4A0" points="301.278,39.465 262.063,39.295 261.706,0.145 			"/>
			<g>
				<g>
					<g>
						<polygon fill="#DAC168" points="183.134,0.025 222.81,-0.209 222.579,39.475 						"/>
					</g>
					<g>
						<polygon fill="#D2AB50" points="222.551,39.594 222.81,-0.025 261.996,0.143 						"/>
					</g>
				</g>
			</g>
			<polygon fill="#EFF0AB" points="340.532,0.057 340.767,39.24 301.085,39.504 			"/>
			<line fill="#DFE69A" x1="301.282" y1="39.418" x2="261.837" y2="-0.027"/>
			<polygon fill="#DFE69A" points="301.254,39.535 301.513,-0.082 340.7,0.086 			"/>
		</g>
		<polyline fill="#EEEF9C" points="378.935,-0.395 339.749,-0.229 379.195,39.225 		"/>
		<polygon fill="#D1B35A" points="-13.489,0.09 26.187,-0.145 25.956,39.535 		"/>
		<polygon fill="#D2AB50" points="26.134,39.521 -13.084,39.352 -13.438,0.199 		"/>
		<polyline fill="#EEEF9C" points="301.278,0.051 262.095,0.217 301.54,39.668 		"/>
		<polygon fill="#88674F" points="651.589,429.355 651.362,390.17 691.038,389.906 		"/>
		<g>
			<polygon fill="#8C705E" points="690.996,390.078 690.739,429.697 651.554,429.529 			"/>
		</g>
	</g>
	<g>
		<g>
			<g>
				<polygon fill="#E3D270" points="1087.05,39.361 1047.374,39.127 1047.604,78.809 				"/>
				<polygon fill="#E3D270" points="1047.632,78.928 1047.374,39.309 1008.187,39.479 				"/>
				<polygon fill="#DFC881" points="1047.604,0.123 1047.374,39.309 1087.05,39.57 				"/>
				<polygon fill="#DAC168" points="1008.153,39.479 1047.374,39.309 1047.727,0.156 				"/>
				<g>
					<polygon fill="#EED16F" points="1126.269,78.811 1086.592,78.574 1086.821,118.256 					"/>
					<polygon fill="#EFE17C" points="1086.851,118.373 1086.592,78.758 1047.404,78.926 					"/>
					<polygon fill="#DAC168" points="1086.823,39.57 1086.592,78.758 1126.269,79.02 					"/>
					<polygon fill="#EED16F" points="1047.374,78.926 1086.592,78.758 1086.946,39.605 					"/>
				</g>
				<g>
					<polygon fill="#F7F2AD" points="1047.727,78.643 1008.048,78.41 1008.28,118.092 					"/>
					<polygon fill="#EFF0AB" points="1008.308,118.209 1008.048,78.59 968.862,78.76 					"/>
					<polygon fill="#F8E8A6" points="1008.282,39.404 1008.048,78.59 1047.727,78.855 					"/>
					<polygon fill="#EFF0AB" points="968.83,78.76 1008.048,78.59 1008.404,39.438 					"/>
				</g>
				<g>
					<polygon fill="#EEEF9C" points="1086.853,117.93 1047.173,117.693 1047.405,157.377 					"/>
					<polygon fill="#EEF0AA" points="1047.433,157.494 1047.173,117.875 1007.987,118.043 					"/>
					<polygon fill="#F0E385" points="1047.407,78.689 1047.173,117.875 1086.853,118.139 					"/>
					<polygon fill="#EFF0AB" points="1007.954,118.043 1047.173,117.875 1047.527,78.725 					"/>
				</g>
				<g>
					<polygon fill="#DBC152" points="1165.644,39.41 1125.964,39.174 1126.198,78.855 					"/>
					<polygon fill="#E3D270" points="1126.225,78.973 1125.964,39.355 1086.779,39.523 					"/>
					<polygon fill="#D1B35C" points="1126.198,0.17 1125.964,39.355 1165.644,39.619 					"/>
					<polygon fill="#BD9D55" points="1086.749,39.523 1125.964,39.355 1126.319,0.203 					"/>
				</g>
				<g>
					<polygon fill="#BD9D55" points="1204.969,78.76 1165.29,78.527 1165.522,118.207 					"/>
					<polygon fill="#E1BF61" points="1165.55,118.326 1165.29,78.709 1126.104,78.875 					"/>
					<polygon fill="#D2AB50" points="1165.522,39.523 1165.29,78.709 1204.969,78.971 					"/>
					<polygon fill="#D1B35C" points="1126.071,78.875 1165.29,78.709 1165.644,39.555 					"/>
				</g>
				<g>
					<polygon fill="#E3D270" points="1165.519,117.926 1125.839,117.689 1126.072,157.373 					"/>
					<polygon fill="#DAC168" points="1126.101,157.488 1125.839,117.871 1086.655,118.041 					"/>
					<polygon fill="#EED16F" points="1126.072,78.688 1125.839,117.871 1165.519,118.135 					"/>
					<polygon fill="#E8D37C" points="1086.622,118.041 1125.839,117.871 1126.198,78.721 					"/>
				</g>
				<g>
					<polygon fill="#F3EAA8" points="1086.856,117.754 1086.622,156.941 1126.301,157.201 					"/>
					<polygon fill="#F8E8A6" points="1047.404,157.107 1086.622,156.941 1086.976,117.785 					"/>
				</g>
				<g>
					<polygon fill="#DAC168" points="1126.301,0.035 1086.622,-0.197 1086.854,39.486 					"/>
					<polygon fill="#DBC152" points="1086.882,39.605 1086.622,-0.014 1047.437,0.156 					"/>
				</g>
				<g>
					<polygon fill="#AF8740" points="1205.093,0.035 1165.412,-0.197 1165.644,39.486 					"/>
					<polygon fill="#BD9D55" points="1165.673,39.605 1165.412,-0.014 1126.225,0.156 					"/>
				</g>
				<g>
					<polygon fill="#D1B35C" points="1165.771,117.705 1165.538,156.893 1205.216,157.156 					"/>
					<polygon fill="#DAC168" points="1126.319,157.061 1165.538,156.893 1165.894,117.738 					"/>
				</g>
				<g>
					<polygon fill="#AF8740" points="1204.998,79.02 1204.74,39.402 1165.55,39.568 					"/>
					<polygon fill="#B89152" points="1165.519,39.568 1204.74,39.402 1205.093,0.248 					"/>
				</g>
				<g>
					<polygon fill="#DDC25F" points="1204.769,157.188 1204.507,117.57 1165.323,117.738 					"/>
					<polygon fill="#AF8740" points="1165.29,117.738 1204.507,117.57 1204.862,78.416 					"/>
				</g>
				<polygon fill="#EFF1B0" points="1008.316,39.398 968.637,39.164 968.866,78.846 				"/>
				<polygon fill="#EEF1BB" points="968.897,78.963 968.637,39.346 929.448,39.514 				"/>
				<polygon fill="#F7F2AD" points="968.871,0.16 968.637,39.346 1008.316,39.609 				"/>
				<polygon fill="#EEEF9C" points="929.419,39.514 968.637,39.346 968.991,0.191 				"/>
				<g>
					<polygon fill="#FAF5CA" points="968.991,78.68 929.31,78.447 929.544,118.131 					"/>
					<polygon fill="#F9F4AC" points="929.544,39.445 929.31,78.631 968.991,78.891 					"/>
				</g>
				<g>
					<polygon fill="#F7F2AD" points="1008.118,117.967 968.438,117.73 968.669,157.412 					"/>
					<polygon fill="#F5F5C7" points="968.696,157.531 968.438,117.912 929.251,118.082 					"/>
					<polygon fill="#F7F2AD" points="968.671,78.729 968.438,117.912 1008.118,118.178 					"/>
					<polygon fill="#F7F2AD" points="929.22,118.082 968.438,117.912 968.795,78.76 					"/>
				</g>
				<g>
					<polygon fill="#F8F4C9" points="1008.122,117.791 1007.888,156.977 1047.565,157.242 					"/>
					<polygon fill="#F9F4AC" points="968.669,157.145 1007.888,156.977 1008.24,117.824 					"/>
				</g>
				<g>
					<polygon fill="#D2AB50" points="1047.565,0.076 1007.888,-0.16 1008.118,39.523 					"/>
					<polygon fill="#BD9D55" points="1008.146,39.641 1007.888,0.021 968.7,0.191 					"/>
				</g>
				<g>
					<polygon fill="#F9F4AC" points="929.415,117.736 929.185,156.922 968.862,157.184 					"/>
				</g>
				<g>
					<polygon fill="#F3EAB1" points="968.862,0.018 929.185,-0.215 929.415,39.467 					"/>
					<polygon fill="#EEEF9C" points="929.443,39.586 929.185,-0.033 889.997,0.135 					"/>
				</g>
				<polygon fill="#EEEF9C" points="1086.956,195.799 1047.278,195.566 1047.511,235.246 				"/>
				<polygon fill="#F0F0A7" points="1047.54,235.363 1047.278,195.746 1008.094,195.914 				"/>
				<polygon fill="#E4ECA4" points="1047.515,156.561 1047.278,195.746 1086.956,196.012 				"/>
				<polygon fill="#E7EDAE" points="1008.06,195.914 1047.278,195.746 1047.634,156.592 				"/>
				<g>
					<polygon fill="#E4ECA4" points="1126.177,235.248 1086.497,235.014 1086.728,274.693 					"/>
					<polygon fill="#E7EDAE" points="1086.756,274.814 1086.497,235.195 1047.312,235.363 					"/>
					<polygon fill="#ECF0B2" points="1086.729,196.012 1086.497,235.195 1126.177,235.457 					"/>
					<polygon fill="#DFE69A" points="1047.278,235.363 1086.497,235.195 1086.853,196.041 					"/>
				</g>
				<g>
					<polygon fill="#EDF0AE" points="1047.634,235.082 1007.954,234.848 1008.188,274.531 					"/>
					<polygon fill="#EEF1BB" points="1008.214,274.646 1007.954,235.029 968.769,235.199 					"/>
					<polygon fill="#ECF1BC" points="1008.188,195.844 1007.954,235.029 1047.634,235.293 					"/>
					<polygon fill="#F2F1BE" points="968.735,235.199 1007.954,235.029 1008.31,195.877 					"/>
				</g>
				<g>
					<polygon fill="#EDF0AE" points="1086.759,274.365 1047.082,274.131 1047.313,313.811 					"/>
					<polygon fill="#EEEF9C" points="1047.341,313.934 1047.082,274.316 1007.895,274.482 					"/>
					<polygon fill="#EEEF9C" points="1047.313,235.129 1047.082,274.316 1086.759,274.576 					"/>
					<polygon fill="#F0F0A7" points="1007.864,274.482 1047.082,274.316 1047.437,235.16 					"/>
				</g>
				<g>
					<polygon fill="#EAE494" points="1165.55,195.846 1125.873,195.613 1126.104,235.293 					"/>
					<polygon fill="#F8E8A6" points="1126.134,235.412 1125.873,195.795 1086.686,195.963 					"/>
					<polygon fill="#EAE494" points="1126.107,156.607 1125.873,195.795 1165.55,196.057 					"/>
					<polygon fill="#F3EAA8" points="1086.655,195.963 1125.873,195.795 1126.225,156.641 					"/>
				</g>
				<g>
					<polygon fill="#DFE69A" points="1204.878,235.199 1165.196,234.965 1165.429,274.646 					"/>
					<polygon fill="#DEDB89" points="1165.456,274.764 1165.196,235.148 1126.011,235.316 					"/>
					<polygon fill="#F2E28E" points="1165.429,195.963 1165.196,235.148 1204.878,235.408 					"/>
					<polygon fill="#EAE494" points="1125.978,235.316 1165.196,235.148 1165.55,195.994 					"/>
				</g>
				<g>
					<polygon fill="#DFE69A" points="1165.429,274.361 1125.745,274.129 1125.979,313.809 					"/>
					<polygon fill="#E7EDAE" points="1126.007,313.928 1125.745,274.313 1086.563,274.479 					"/>
					<polygon fill="#DFE69A" points="1125.979,235.123 1125.745,274.313 1165.429,274.572 					"/>
					<polygon fill="#DCDF97" points="1086.53,274.479 1125.745,274.313 1126.104,235.156 					"/>
				</g>
				<g>
					<polygon fill="#E4ECA4" points="1086.763,274.189 1086.53,313.377 1126.208,313.641 					"/>
					<polygon fill="#DCE9AB" points="1047.312,313.545 1086.53,313.377 1086.886,274.223 					"/>
				</g>
				<g>
					<polygon fill="#ECF0B2" points="1126.208,156.477 1086.53,156.242 1086.763,195.922 					"/>
					<polygon fill="#F7F2AD" points="1086.792,196.041 1086.53,156.422 1047.345,156.592 					"/>
				</g>
				<g>
					<polygon fill="#DBC152" points="1204.999,156.477 1165.323,156.242 1165.554,195.922 					"/>
					<polygon fill="#E3D270" points="1165.581,196.041 1165.323,156.422 1126.136,156.592 					"/>
				</g>
				<g>
					<polygon fill="#DAD493" points="1165.679,274.143 1165.447,313.33 1205.124,313.594 					"/>
					<polygon fill="#D4DE8E" points="1126.225,313.496 1165.447,313.33 1165.8,274.174 					"/>
				</g>
				<g>
					<polygon fill="#DAC168" points="1204.903,235.457 1204.646,195.84 1165.46,196.008 					"/>
					<polygon fill="#DAC168" points="1165.429,196.008 1204.646,195.84 1204.999,156.688 					"/>
				</g>
				<g>
					<polygon fill="#D8D389" points="1204.675,313.623 1204.415,274.008 1165.229,274.174 					"/>
					<polygon fill="#D1D88C" points="1165.196,274.174 1204.415,274.008 1204.769,234.854 					"/>
				</g>
				<polygon fill="#FAF2BA" points="1008.224,195.836 968.543,195.604 968.774,235.285 				"/>
				<polygon fill="#F2F2C0" points="968.802,235.404 968.543,195.785 929.356,195.951 				"/>
				<polygon fill="#FAF5CA" points="968.777,156.6 968.543,195.785 1008.224,196.047 				"/>
				<polygon fill="#F5F5C7" points="929.327,195.951 968.543,195.785 968.897,156.629 				"/>
				<g>
					<polygon fill="#FAF2BA" points="968.897,235.121 929.22,234.885 929.452,274.566 					"/>
					<polygon fill="#F9F8CE" points="929.452,195.883 929.22,235.066 968.897,235.33 					"/>
				</g>
				<g>
					<polygon fill="#EFF0AB" points="1008.024,274.4 968.345,274.17 968.577,313.854 					"/>
					<polygon fill="#F5F5C7" points="968.602,313.969 968.345,274.352 929.161,274.518 					"/>
					<polygon fill="#F2F1BE" points="968.578,235.166 968.345,274.352 1008.024,274.615 					"/>
					<polygon fill="#EFF0AB" points="929.127,274.518 968.345,274.352 968.7,235.199 					"/>
				</g>
				<g>
					<polygon fill="#EDF0B5" points="1008.028,274.23 1007.794,313.414 1047.475,313.676 					"/>
					<polygon fill="#FAF2BA" points="968.577,313.582 1007.794,313.414 1008.146,274.262 					"/>
				</g>
				<g>
					<polygon fill="#EFF0AB" points="1047.475,156.512 1007.794,156.279 1008.024,195.963 					"/>
					<polygon fill="#F8F4C9" points="1008.052,196.082 1007.794,156.463 968.606,156.629 					"/>
				</g>
				<g>
					<polygon fill="#FAF2BA" points="929.323,274.174 929.089,313.361 968.769,313.619 					"/>
				</g>
				<g>
					<polygon fill="#F9F8CE" points="968.769,156.459 929.089,156.223 929.323,195.906 					"/>
				</g>
			</g>
			<g>
				<polyline fill="#DCDF97" points="1086.041,391.553 1086.27,351.871 1125.72,391.318 				"/>
				<polyline fill="#D4DE8E" points="1046.854,391.201 1086.3,351.752 1086.041,391.367 				"/>
				<polyline fill="#D8D797" points="1007.499,391.717 1007.73,352.033 1047.176,391.482 				"/>
				<polyline fill="#DEE899" points="968.312,391.365 1007.757,351.916 1007.499,391.535 				"/>
				<polygon fill="#D5E597" points="1086.305,352.197 1046.624,352.434 1046.854,312.752 				"/>
				<polygon fill="#DCDF97" points="1046.882,312.633 1046.624,352.252 1007.437,352.084 				"/>
				<polyline fill="#DEDB89" points="1046.859,391.436 1046.624,352.252 1086.305,351.99 1046.859,391.436 				"/>
				<polyline fill="#DEE899" points="1046.976,391.406 1007.407,352.084 1046.624,352.252 1046.976,391.406 				"/>
				<polyline fill="#C1BF71" points="1164.741,391.602 1164.973,351.918 1204.419,391.365 				"/>
				<polyline fill="#D3C577" points="1125.554,391.248 1164.999,351.799 1164.741,391.416 				"/>
				<polygon fill="#DEDB89" points="1164.97,352.201 1125.292,352.436 1125.522,312.756 				"/>
				<polygon fill="#CCD287" points="1125.55,312.639 1125.292,352.256 1086.104,352.088 				"/>
				<polyline fill="#CCD287" points="1125.522,391.441 1125.292,352.256 1164.97,351.994 1125.522,391.441 				"/>
				<polyline fill="#D8D797" points="1125.646,391.41 1086.073,352.088 1125.292,352.256 1125.646,391.41 				"/>
				<g>
					<polygon fill="#DEDB89" points="1086.305,352.373 1086.073,313.189 1125.751,312.924 					"/>
					<polygon fill="#D4DE8E" points="1046.854,313.02 1086.073,313.189 1086.428,352.34 					"/>
				</g>
				<g>
					<polygon fill="#D3C577" points="1165.225,352.42 1164.989,313.238 1204.665,312.973 					"/>
					<polygon fill="#D8D389" points="1125.771,313.068 1164.989,313.238 1165.342,352.389 					"/>
				</g>
				<polygon fill="#C1BF71" points="1204.218,312.941 1203.956,352.559 1164.771,352.389 				"/>
				<polyline fill="#A8A76E" points="1204.313,391.711 1164.741,352.389 1203.956,352.559 1204.313,391.711 				"/>
				<polyline fill="#EFF0AB" points="928.763,391.682 928.995,351.998 968.442,391.445 				"/>
				<polygon fill="#EFF0AB" points="1007.567,352.162 967.888,352.395 968.12,312.713 				"/>
				<polygon fill="#EEF1BB" points="968.147,312.596 967.888,352.215 928.705,352.045 				"/>
				<polyline fill="#EDEE9D" points="968.124,391.4 967.888,352.215 1007.567,351.951 968.124,391.4 				"/>
				<polyline fill="#EFF0AB" points="968.243,391.365 928.67,352.045 967.888,352.215 968.243,391.365 				"/>
				<g>
					<polygon fill="#EEEF9C" points="1007.572,352.334 1007.338,313.148 1047.015,312.885 					"/>
					<polygon fill="#EDF1BA" points="968.12,312.979 1007.338,313.148 1007.69,352.303 					"/>
				</g>
				<g>
					<polygon fill="#EEEF9C" points="928.866,352.393 928.634,313.205 968.312,312.943 					"/>
				</g>
			</g>
			<g>
				<polyline fill="#EFF0AB" points="929.687,313.184 890.503,313.016 929.948,273.566 				"/>
				<polyline fill="#EEF1BB" points="930.042,352.336 890.468,313.016 929.687,313.184 				"/>
				<polyline fill="#EEF1BB" points="929.987,352.473 890.308,352.705 890.538,313.025 929.987,352.473 				"/>
				<polyline fill="#F2F1BE" points="929.987,352.262 890.543,391.711 890.308,352.525 929.987,352.262 				"/>
				<polyline fill="#ECF0B2" points="929.788,273.906 890.11,274.139 890.343,234.457 929.788,273.906 				"/>
				<polyline fill="#EFF0AB" points="929.788,273.691 890.343,313.143 890.11,273.955 929.788,273.691 				"/>
				<polyline fill="#FAF5CA" points="929.913,274.045 890.343,234.727 929.56,234.891 				"/>
				<polyline fill="#EEEF9C" points="929.56,391.846 890.373,391.682 929.819,352.229 				"/>
				<polygon fill="#EED16F" points="693.659,352.09 733.336,352.324 733.104,312.641 				"/>
				<polygon fill="#E9D872" points="733.077,312.523 733.336,352.139 772.523,351.973 				"/>
				<polygon fill="#D8D389" points="733.104,391.326 733.336,352.139 693.659,351.879 				"/>
				<polygon fill="#D8D389" points="772.554,351.973 733.336,352.139 732.979,391.295 				"/>
				<g>
					<polygon fill="#D8D389" points="654.44,312.641 694.118,312.875 693.886,273.191 					"/>
					<polygon fill="#E8D37C" points="693.858,273.076 694.118,312.691 733.306,312.525 					"/>
					<polygon fill="#E0DB86" points="693.886,351.879 694.118,312.691 654.44,312.432 					"/>
					<polygon fill="#E3D270" points="733.336,312.525 694.118,312.691 693.763,351.846 					"/>
				</g>
				<g>
					<polygon fill="#EFE4A0" points="732.979,312.805 772.659,313.039 772.429,273.357 					"/>
					<polygon fill="#EFF1B0" points="772.401,273.24 772.659,312.859 811.847,312.689 					"/>
					<polygon fill="#DFE69A" points="772.429,352.045 772.659,312.859 732.979,312.594 					"/>
					<polygon fill="#EFE4A0" points="811.878,312.689 772.659,312.859 772.302,352.01 					"/>
				</g>
				<g>
					<polygon fill="#DFE69A" points="693.854,273.521 733.536,273.756 733.306,234.074 					"/>
					<polygon fill="#EEEE99" points="733.272,233.953 733.536,273.572 772.718,273.404 					"/>
					<polygon fill="#EFE17C" points="733.301,312.758 733.536,273.572 693.854,273.311 					"/>
					<polygon fill="#EEEF9C" points="772.751,273.404 733.536,273.572 733.179,312.727 					"/>
				</g>
				<g>
					<polygon fill="#EEEF9C" points="615.064,352.039 654.745,352.277 654.51,312.594 					"/>
					<polygon fill="#DFE69A" points="654.481,312.477 654.745,352.094 693.929,351.926 					"/>
					<polygon fill="#D8D389" points="654.51,391.281 654.745,352.094 615.064,351.83 					"/>
					<polygon fill="#EEEF9C" points="693.96,351.926 654.745,352.094 654.388,391.248 					"/>
				</g>
				<g>
					<polygon fill="#D8D389" points="575.739,312.688 615.421,312.924 615.188,273.24 					"/>
					<polygon fill="#DFE69A" points="615.158,273.125 615.421,312.742 654.604,312.572 					"/>
					<polygon fill="#E0DB86" points="615.188,351.926 615.421,312.742 575.739,312.479 					"/>
					<polygon fill="#EFE4A0" points="654.638,312.572 615.421,312.742 615.064,351.896 					"/>
				</g>
				<g>
					<polygon fill="#E0DB86" points="615.188,273.525 654.868,273.76 654.638,234.08 					"/>
					<polygon fill="#E8D37C" points="654.608,233.961 654.868,273.576 694.055,273.41 					"/>
					<polygon fill="#D8D389" points="654.633,312.762 654.868,273.576 615.188,273.316 					"/>
					<polygon fill="#E8D37C" points="694.087,273.41 654.868,273.576 654.515,312.732 					"/>
				</g>
				<g>
					<polygon fill="#DEDB89" points="693.851,273.695 694.087,234.51 654.409,234.246 					"/>
					<polygon fill="#EEEF9C" points="733.306,234.342 694.087,234.51 693.728,273.662 					"/>
				</g>
				<g>
					<polygon fill="#E0DB86" points="654.409,391.412 694.087,391.646 693.851,351.965 					"/>
					<polygon fill="#E0DB86" points="693.827,351.846 694.087,391.463 733.269,391.295 					"/>
				</g>
				<g>
					<polygon fill="#E0DB86" points="575.619,391.412 615.296,391.646 615.064,351.965 					"/>
					<polygon opacity="0.91" fill="#D8E29E" points="615.036,351.846 615.296,391.463 654.479,391.295 					"/>
				</g>
				<g>
					<polygon fill="#D8D389" points="614.938,273.744 615.17,234.557 575.489,234.295 					"/>
					<polygon fill="#D8D389" points="654.388,234.391 615.17,234.557 614.813,273.713 					"/>
				</g>
				<g>
					<polygon opacity="0.91" fill="#D8E29E" points="575.713,312.432 575.971,352.049 615.153,351.881 					"/>
					<polygon fill="#D8D389" points="615.188,351.881 575.971,352.049 575.619,391.201 					"/>
				</g>
				<g>
					<g>
						<polygon fill="#E0DB86" points="575.94,234.262 576.202,273.879 615.386,273.713 						"/>
					</g>
				</g>
				<polygon fill="#EEEE99" points="772.389,352.055 812.074,352.285 811.843,312.604 				"/>
				<polygon fill="#EEEE99" points="811.812,312.486 812.074,352.104 851.257,351.936 				"/>
				<polygon fill="#F0E385" points="811.839,391.289 812.074,352.104 772.389,351.838 				"/>
				<polygon fill="#EFE4A0" points="851.29,351.936 812.074,352.104 811.718,391.256 				"/>
				<g>
					<polygon fill="#E5EEB9" points="811.718,312.768 851.396,313.002 851.163,273.322 					"/>
					<polygon fill="#F2F1BE" points="851.136,273.199 851.396,312.816 890.583,312.65 					"/>
					<polygon fill="#EEF1BB" points="851.163,352.004 851.396,312.816 811.718,312.557 					"/>
					<polygon fill="#F7F2AD" points="890.613,312.65 851.396,312.816 851.04,351.973 					"/>
				</g>
				<g>
					<polygon fill="#EFF0AB" points="772.589,273.484 812.271,273.721 812.039,234.035 					"/>
					<polygon fill="#F9F4AC" points="812.013,233.918 812.271,273.537 851.458,273.367 					"/>
					<polygon fill="#EEF1BB" points="812.039,312.723 812.271,273.537 772.589,273.271 					"/>
					<polygon fill="#EEEF9C" points="851.489,273.367 812.271,273.537 811.915,312.689 					"/>
				</g>
				<g>
					<polygon fill="#EFF0AB" points="772.589,273.656 772.821,234.473 733.144,234.211 					"/>
					<polygon fill="#EDF0B5" points="812.039,234.305 772.821,234.473 772.466,273.625 					"/>
				</g>
				<g>
					<g>
						<g>
							<polygon fill="#D3C577" points="733.144,391.377 772.821,391.609 772.589,351.926 							"/>
						</g>
						<g>
							<polygon fill="#E8D37C" points="772.563,351.809 772.821,391.426 812.009,391.258 							"/>
						</g>
					</g>
				</g>
				<polygon fill="#F2F1BE" points="851.097,352.107 890.778,352.34 890.543,312.658 				"/>
				<polygon fill="#EFF0AB" points="890.543,391.346 890.778,352.16 851.097,351.896 				"/>
				<g>
					<polygon fill="#F9F4AC" points="851.292,273.539 890.974,273.773 890.742,234.094 					"/>
					<polygon fill="#EEF1BB" points="890.742,312.777 890.974,273.592 851.292,273.328 					"/>
				</g>
				<g>
					<polygon fill="#EEF1BB" points="851.292,273.715 851.524,234.527 811.847,234.266 					"/>
					<polygon fill="#ECF0B2" points="890.742,234.359 851.524,234.527 851.173,273.68 					"/>
				</g>
				<g>
					<polygon fill="#DFE69A" points="811.847,391.43 851.524,391.662 851.292,351.984 					"/>
					<polygon fill="#DFE69A" points="851.267,351.865 851.524,391.482 890.712,391.316 					"/>
				</g>
				<polyline fill="#FAF5CA" points="929.595,156.748 890.409,156.578 929.854,117.129 				"/>
				<polyline fill="#FAF5CA" points="929.95,195.9 890.378,156.578 929.595,156.748 				"/>
				<polyline fill="#F9F8CE" points="929.895,196.033 890.218,196.27 890.449,156.586 929.895,196.033 				"/>
				<polyline fill="#F5F5C7" points="929.895,195.824 890.449,235.271 890.218,196.084 929.895,195.824 				"/>
				<polyline fill="#F5F5C7" points="929.698,117.467 890.017,117.699 890.249,78.02 929.698,117.467 				"/>
				<polyline fill="#FAF5CA" points="929.698,117.256 890.249,156.705 890.017,117.52 929.698,117.256 				"/>
				<polyline fill="#EEF1BB" points="929.823,117.607 890.249,78.289 929.467,78.453 				"/>
				<polyline fill="#FAF2BA" points="929.467,235.412 890.279,235.242 929.726,195.791 				"/>
				<polygon fill="#EEEF9C" points="693.749,195.652 733.43,195.885 733.198,156.201 				"/>
				<polygon fill="#EEEF9C" points="733.167,156.086 733.43,195.703 772.612,195.535 				"/>
				<polygon fill="#EEEE99" points="733.194,234.891 733.43,195.703 693.749,195.439 				"/>
				<polygon fill="#E4ECA4" points="772.647,195.535 733.43,195.703 733.073,234.857 				"/>
				<g>
					<polygon fill="#E5EEB9" points="654.53,156.201 694.212,156.438 693.979,116.756 					"/>
					<polygon fill="#EEF1BB" points="693.952,116.635 694.212,156.254 733.399,156.086 					"/>
					<polygon fill="#EFF0AB" points="693.979,195.439 694.212,156.254 654.53,155.992 					"/>
					<polygon fill="#EEEF9C" points="733.43,156.086 694.212,156.254 693.854,195.408 					"/>
				</g>
				<g>
					<polygon fill="#EEEF9C" points="733.073,156.367 772.751,156.602 772.523,116.92 					"/>
					<polygon fill="#EFF0AB" points="772.491,116.801 772.751,156.42 811.94,156.252 					"/>
					<polygon fill="#EFF0AB" points="772.523,195.604 772.751,156.42 733.073,156.158 					"/>
					<polygon fill="#EEEE99" points="811.969,156.252 772.751,156.42 772.397,195.572 					"/>
				</g>
				<g>
					<polygon fill="#EFF1B0" points="693.949,117.082 733.626,117.318 733.399,77.637 					"/>
					<polygon fill="#E4ECA4" points="733.366,77.518 733.626,117.135 772.813,116.967 					"/>
					<polygon fill="#EEEE99" points="733.395,156.32 733.626,117.135 693.949,116.871 					"/>
					<polygon fill="#EFF1B0" points="772.845,116.967 733.626,117.135 733.269,156.289 					"/>
				</g>
				<g>
					<polygon fill="#EFE4A0" points="615.153,195.604 654.837,195.838 654.604,156.158 					"/>
					<polygon fill="#EEEF9C" points="654.577,156.039 654.837,195.656 694.02,195.488 					"/>
					<polygon fill="#F0E385" points="654.601,234.842 654.837,195.656 615.153,195.393 					"/>
					<polygon fill="#F0E385" points="694.05,195.488 654.837,195.656 654.479,234.811 					"/>
				</g>
				<g>
					<polygon fill="#E8D37C" points="575.835,156.25 615.513,156.486 615.281,116.803 					"/>
					<polygon fill="#F0E385" points="615.253,116.684 615.513,156.303 654.698,156.135 					"/>
					<polygon fill="#E0DB86" points="615.281,195.488 615.513,156.303 575.835,156.041 					"/>
					<polygon fill="#EEEE99" points="654.731,156.135 615.513,156.303 615.153,195.457 					"/>
				</g>
				<g>
					<polygon fill="#EDF0B5" points="615.281,117.086 654.962,117.322 654.727,77.641 					"/>
					<polygon fill="#EFF1B0" points="654.703,77.523 654.962,117.141 694.146,116.971 					"/>
					<polygon fill="#E4ECA4" points="654.727,156.324 654.962,117.141 615.281,116.875 					"/>
					<polygon fill="#EEEF9C" points="694.181,116.971 654.962,117.141 654.604,156.293 					"/>
				</g>
				<g>
					<polygon fill="#EEEE99" points="693.944,117.258 694.181,78.072 654.499,77.811 					"/>
					<polygon fill="#EEEF9C" points="733.399,77.906 694.181,78.072 693.823,117.227 					"/>
				</g>
				<g>
					<polygon fill="#DFE69A" points="654.499,234.973 694.181,235.207 693.944,195.525 					"/>
					<polygon fill="#EFF1B0" points="693.917,195.408 694.181,235.025 733.362,234.857 					"/>
				</g>
				<g>
					<polygon fill="#D8D389" points="575.708,234.973 615.386,235.207 615.153,195.525 					"/>
					<polygon fill="#E9D872" points="615.13,195.408 615.386,235.025 654.573,234.857 					"/>
				</g>
				<g>
					<polygon fill="#E4ECA4" points="615.029,117.305 615.264,78.121 575.583,77.857 					"/>
					<polygon fill="#E5EEB9" points="654.479,77.953 615.264,78.121 614.907,117.273 					"/>
				</g>
				<g>
					<polygon fill="#E9D872" points="575.802,155.992 576.063,195.609 615.249,195.441 					"/>
					<polygon fill="#DEDB89" points="615.281,195.441 576.063,195.609 575.708,234.762 					"/>
				</g>
				<g>
					<polygon fill="#DEE899" points="576.034,77.826 576.294,117.443 615.48,117.273 					"/>
					<polygon fill="#E0DB86" points="615.513,117.273 576.294,117.443 575.94,156.594 					"/>
				</g>
				<polygon fill="#EDF0B5" points="772.483,195.613 812.165,195.848 811.934,156.166 				"/>
				<polygon fill="#EFF0AB" points="811.905,156.049 812.165,195.664 851.347,195.496 				"/>
				<polygon fill="#EEEE99" points="811.934,234.85 812.165,195.664 772.483,195.404 				"/>
				<polygon fill="#EEEE99" points="851.384,195.496 812.165,195.664 811.808,234.818 				"/>
				<g>
					<polygon fill="#EFF1B0" points="811.808,156.328 851.489,156.564 851.257,116.883 					"/>
					<polygon fill="#F5F5C7" points="851.227,116.764 851.489,156.381 890.677,156.213 					"/>
					<polygon fill="#F9F4AC" points="851.257,195.568 851.489,156.381 811.808,156.117 					"/>
					<polygon fill="#FAF5CA" points="890.707,156.213 851.489,156.381 851.133,195.535 					"/>
				</g>
				<g>
					<polygon fill="#EEF1BB" points="772.683,117.047 812.364,117.279 812.133,77.598 					"/>
					<polygon fill="#EFF0AB" points="812.103,77.48 812.364,117.098 851.548,116.932 					"/>
					<polygon fill="#EFF1B0" points="812.13,156.285 812.364,117.098 772.683,116.836 					"/>
					<polygon fill="#F9F4AC" points="851.579,116.932 812.364,117.098 812.009,156.252 					"/>
				</g>
				<g>
					<polygon fill="#E5EEB9" points="772.679,117.221 772.915,78.033 733.237,77.771 					"/>
					<polygon fill="#E5EEB9" points="812.133,77.865 772.915,78.033 772.559,117.188 					"/>
				</g>
				<g>
					<polygon fill="#E6EDAD" points="733.237,234.936 772.915,235.17 772.679,195.488 					"/>
					<polygon fill="#EFF1B0" points="772.657,195.371 772.915,234.99 812.098,234.82 					"/>
				</g>
				<polygon fill="#F9F4AC" points="851.191,195.668 890.868,195.904 890.637,156.221 				"/>
				<polygon fill="#F7F2AD" points="890.637,234.906 890.868,195.721 851.191,195.461 				"/>
				<g>
					<polygon fill="#F9F4AC" points="851.386,117.1 891.064,117.336 890.833,77.652 					"/>
					<polygon fill="#FAF5CA" points="890.833,156.34 891.064,117.152 851.386,116.891 					"/>
				</g>
				<g>
					<polygon fill="#F5F5C7" points="851.384,117.275 851.619,78.09 811.94,77.828 					"/>
					<polygon fill="#F9F4AC" points="890.836,77.922 851.619,78.09 851.262,117.244 					"/>
				</g>
				<g>
					<polygon fill="#EFF0AB" points="811.94,234.99 851.619,235.225 851.386,195.543 					"/>
					<polygon fill="#EEF1BB" points="851.36,195.426 851.619,235.043 890.806,234.877 					"/>
				</g>
				<line fill="#ECF0B2" x1="889.95" y1="0.486" x2="929.399" y2="39.936"/>
				<polyline fill="#EFF0AB" points="929.239,39.598 889.559,39.363 889.793,79.047 929.239,39.598 				"/>
				<line fill="#FAF2BA" x1="929.239" y1="39.809" x2="889.793" y2="0.359"/>
				<polyline fill="#F3EAB1" points="889.793,0.359 889.559,39.545 929.239,39.809 				"/>
				<polyline fill="#EFF1B0" points="929.367,39.455 889.793,78.775 929.009,78.609 				"/>
				<polyline fill="#F3EAB1" points="693.753,0.627 693.521,40.309 654.076,0.861 				"/>
				<polyline fill="#EEEF9C" points="732.938,0.979 693.493,40.428 693.753,0.809 				"/>
				<polyline fill="#F3EAB1" points="772.295,0.463 772.063,40.143 732.616,0.697 				"/>
				<polyline fill="#EFF1B0" points="811.482,0.813 772.036,40.264 772.295,0.646 				"/>
				<polygon fill="#EDF1BA" points="693.493,39.98 733.171,39.744 732.938,79.426 				"/>
				<polygon fill="#E4ECA4" points="732.913,79.547 733.171,39.928 772.354,40.096 				"/>
				<polyline fill="#F3EAB1" points="732.937,0.74 733.171,39.928 693.493,40.193 732.937,0.74 				"/>
				<polyline fill="#EFF1B0" points="732.814,0.773 772.386,40.096 733.171,39.928 732.814,0.773 				"/>
				<polyline fill="#EFF1B0" points="615.053,0.578 614.825,40.26 575.374,0.813 				"/>
				<polyline fill="#F3EAB1" points="654.245,0.93 614.794,40.381 615.053,0.762 				"/>
				<polygon opacity="0.91" fill="#D8E29E" points="614.825,39.977 654.503,39.742 654.271,79.422 				"/>
				<polygon fill="#E5EEB9" points="654.245,79.541 654.503,39.924 693.69,40.092 				"/>
				<polyline fill="#EDF0B5" points="654.271,0.736 654.503,39.924 614.825,40.188 654.271,0.736 				"/>
				<polyline fill="#EEEF9C" points="654.149,0.77 693.721,40.092 654.503,39.924 654.149,0.77 				"/>
				<g>
					<polygon fill="#EFF1B0" points="693.489,39.809 693.721,78.992 654.044,79.254 					"/>
					<polygon fill="#EEEF9C" points="732.938,79.16 693.721,78.992 693.368,39.838 					"/>
				</g>
				<g>
					<polygon opacity="0.91" fill="#D8E29E" points="614.573,39.76 614.806,78.943 575.124,79.207 					"/>
					<polygon fill="#E4ECA4" points="654.019,79.113 614.806,78.943 614.449,39.791 					"/>
				</g>
				<polygon fill="#DFE69A" points="575.575,79.24 575.837,39.621 615.024,39.791 				"/>
				<polyline fill="#DEE899" points="575.481,0.469 615.053,39.791 575.837,39.621 575.481,0.469 				"/>
				<polyline fill="#F3EAB1" points="851.03,0.498 850.799,40.182 811.354,0.732 				"/>
				<polyline fill="#F3EAB1" points="890.218,0.85 850.771,40.301 851.03,0.682 				"/>
				<polygon fill="#EDF1BA" points="772.229,40.018 811.905,39.783 811.675,79.465 				"/>
				<polygon fill="#EEF1BB" points="811.646,79.582 811.905,39.967 851.093,40.131 				"/>
				<polyline fill="#EFF1B0" points="811.675,0.779 811.905,39.967 772.229,40.229 811.675,0.779 				"/>
				<polyline fill="#EEEF9C" points="811.55,0.813 851.124,40.131 811.905,39.967 811.55,0.813 				"/>
				<g>
					<polygon fill="#EEEF9C" points="772.225,39.844 772.456,79.029 732.779,79.293 					"/>
					<polygon fill="#EDF1BA" points="811.675,79.199 772.456,79.029 772.099,39.877 					"/>
				</g>
				<polygon fill="#ECF0B2" points="850.928,39.963 890.608,39.727 890.378,79.41 				"/>
				<polyline fill="#EEF1BB" points="890.378,0.725 890.608,39.91 850.928,40.172 890.378,0.725 				"/>
				<g>
					<polygon fill="#F9F4AC" points="850.923,39.789 851.159,78.973 811.482,79.236 					"/>
					<polygon fill="#FAF2BA" points="890.378,79.143 851.159,78.973 850.806,39.82 					"/>
				</g>
			</g>
		</g>
		<g>
			<polyline fill="#D3C577" points="1125.44,429.41 1125.668,389.729 1165.118,429.174 			"/>
			<polyline fill="#C1BF71" points="1086.253,429.059 1125.7,389.607 1125.44,429.225 			"/>
			<polyline fill="#D8D797" points="1046.899,429.574 1047.129,389.891 1086.575,429.34 			"/>
			<polyline fill="#DEE899" points="1007.712,429.223 1047.157,389.771 1046.899,429.393 			"/>
			<polyline fill="#DEDB89" points="1086.258,429.293 1086.022,390.109 1125.703,389.846 1086.258,429.293 			"/>
			<polyline fill="#DEE899" points="1086.375,429.262 1046.807,389.939 1086.022,390.109 1086.375,429.262 			"/>
			<polyline fill="#D3C577" points="1164.745,429.645 1204.188,390.193 1203.932,429.811 			"/>
			<polyline fill="#B7B46C" points="1164.921,429.299 1164.69,390.111 1204.37,389.85 1164.921,429.299 			"/>
			<polyline fill="#ADA05F" points="1165.046,429.266 1125.472,389.943 1164.69,390.111 1165.046,429.266 			"/>
			<polyline fill="#EFF0AB" points="968.162,429.539 968.396,389.855 1007.841,429.301 			"/>
			<polyline fill="#EDEE9D" points="1007.524,429.256 1007.288,390.07 1046.966,389.809 1007.524,429.256 			"/>
			<polyline fill="#EFF0AB" points="1007.643,429.223 968.069,389.902 1007.288,390.07 1007.643,429.223 			"/>
			<polyline fill="#EFF0AB" points="969.386,390.119 929.941,429.568 929.707,390.381 969.386,390.119 			"/>
			<line fill="#EEEF9C" x1="929.772" y1="429.537" x2="969.218" y2="390.086"/>
			<polygon fill="#E0DB86" points="772.503,429.182 772.734,389.996 733.056,389.736 			"/>
			<polygon fill="#D3C577" points="811.952,389.83 772.734,389.996 772.377,429.152 			"/>
			<polygon fill="#EFE4A0" points="693.909,429.137 694.146,389.949 654.463,389.688 			"/>
			<polygon fill="#D8D389" points="733.359,389.783 694.146,389.949 693.788,429.104 			"/>
			<g>
				<polygon fill="#E0DB86" points="693.808,429.27 733.483,429.502 733.248,389.822 				"/>
				<polygon fill="#DFE69A" points="733.226,389.701 733.483,429.318 772.667,429.152 				"/>
			</g>
			<g>
				<polygon fill="#E0DB86" points="615.018,429.27 654.696,429.502 654.463,389.822 				"/>
				<polygon opacity="0.91" fill="#D8E29E" points="654.437,389.701 654.696,429.318 693.878,429.152 				"/>
			</g>
			<polygon fill="#EFE4A0" points="654.589,389.736 615.37,389.906 615.018,429.059 			"/>
			<polygon fill="#F0E385" points="851.237,429.146 851.473,389.963 811.787,389.695 			"/>
			<polygon fill="#EFE4A0" points="890.688,389.793 851.473,389.963 851.115,429.113 			"/>
			<g>
				<g>
					<g>
						<polygon fill="#DAC168" points="772.542,429.232 812.22,429.467 811.987,389.783 						"/>
					</g>
					<g>
						<polygon fill="#D2AB50" points="811.96,389.664 812.22,429.283 851.405,429.115 						"/>
					</g>
				</g>
			</g>
			<polygon fill="#EFF0AB" points="929.941,429.201 930.176,390.018 890.495,389.754 			"/>
			<line fill="#DFE69A" x1="890.69" y1="389.84" x2="851.245" y2="429.285"/>
			<polygon fill="#DFE69A" points="890.663,389.723 890.923,429.34 930.11,429.172 			"/>
		</g>
		<polyline fill="#EEEF9C" points="968.344,429.652 929.157,429.486 968.604,390.033 		"/>
		<polygon fill="#EEEF9C" points="575.919,429.168 615.597,429.402 615.364,389.723 		"/>
		<polygon fill="#EFE4A0" points="615.544,389.736 576.325,389.906 575.971,429.059 		"/>
		<polyline fill="#EEEF9C" points="890.688,429.207 851.503,429.041 890.948,389.59 		"/>
	</g>
</g>
</svg>
