<?xml version="1.0" encoding="utf-8"?>
<!-- Generator: Adobe Illustrator 18.0.0, SVG Export Plug-In . SVG Version: 6.00 Build 0)  -->
<!DOCTYPE svg PUBLIC "-//W3C//DTD SVG 1.1//EN" "http://www.w3.org/Graphics/SVG/1.1/DTD/svg11.dtd">
<svg version="1.1" id="Layer_1" xmlns="http://www.w3.org/2000/svg" xmlns:xlink="http://www.w3.org/1999/xlink" x="0px" y="0px"
	 viewBox="0 0 1207.8 428.4" enable-background="new 0 0 1207.8 428.4" xml:space="preserve">
<rect x="28.8" y="0.1" fill="#807574" width="1164" height="430.9"/>
<g>
	<g>
		<polygon fill="#E2D170" points="235.5,389.1 195.9,389.4 196.1,349.7 		"/>
		<polygon fill="#EEDC92" points="196.1,349.6 195.9,389.2 156.7,389 		"/>
		<polygon fill="#DEC780" points="196.1,428.4 195.9,389.2 235.5,388.9 		"/>
		<polygon fill="#D9C068" points="156.7,389 195.9,389.2 196.2,428.3 		"/>
		<g>
			<polygon fill="#EDD06F" points="274.8,349.7 235.1,349.9 235.3,310.2 			"/>
			<polygon fill="#EEE07C" points="235.3,310.1 235.1,349.7 195.9,349.6 			"/>
			<polygon fill="#D9C068" points="235.3,388.9 235.1,349.7 274.8,349.5 			"/>
			<polygon fill="#EDD06F" points="195.9,349.6 235.1,349.7 235.4,388.9 			"/>
		</g>
		<g>
			<polygon fill="#F6F1AC" points="196.2,349.8 156.5,350.1 156.8,310.4 			"/>
			<polygon fill="#EEEFAA" points="156.8,310.3 156.5,349.9 117.4,349.7 			"/>
			<polygon fill="#F7E7A5" points="156.8,389.1 156.5,349.9 196.2,349.6 			"/>
			<polygon fill="#EEEFAA" points="117.3,349.7 156.5,349.9 156.9,389 			"/>
		</g>
		<g>
			<polygon fill="#EDEE9B" points="235.3,310.6 195.7,310.8 195.9,271.1 			"/>
			<polygon fill="#EDEFA9" points="195.9,271 195.7,310.6 156.5,310.4 			"/>
			<polygon fill="#EDEE9B" points="195.9,349.8 195.7,310.6 235.3,310.3 			"/>
			<polygon fill="#EEEFAA" points="156.5,310.4 195.7,310.6 196,349.8 			"/>
		</g>
		<g>
			<polygon fill="#D7D696" points="314.1,389.1 274.5,389.3 274.7,349.6 			"/>
			<polygon fill="#E2D170" points="274.7,349.5 274.5,389.1 235.3,389 			"/>
			<polygon fill="#D7D696" points="274.7,428.3 274.5,389.1 314.1,388.9 			"/>
			<polygon fill="#BC9C55" points="235.2,389 274.5,389.1 274.8,428.3 			"/>
		</g>
		<g>
			<polygon fill="#BC9C55" points="353.5,349.7 313.8,350 314,310.3 			"/>
			<polygon fill="#DDDA88" points="314,310.2 313.8,349.8 274.6,349.6 			"/>
			<polygon fill="#D1AA50" points="314,389 313.8,349.8 353.5,349.5 			"/>
			<polygon fill="#D7D288" points="274.6,349.6 313.8,349.8 314.1,388.9 			"/>
		</g>
		<g>
			<polygon fill="#E9E393" points="314,310.6 274.3,310.8 274.6,271.1 			"/>
			<polygon fill="#E9E393" points="274.6,271 274.3,310.6 235.2,310.4 			"/>
			<polygon fill="#DFDA85" points="274.6,349.8 274.3,310.6 314,310.3 			"/>
			<polygon fill="#DFDA85" points="235.1,310.4 274.3,310.6 274.7,349.8 			"/>
		</g>
		<g>
			<polygon fill="#F2E9A7" points="235.4,310.7 235.1,271.5 274.8,271.3 			"/>
			<polygon fill="#F7E7A5" points="195.9,271.4 235.1,271.5 235.5,310.7 			"/>
		</g>
		<g>
			<polygon fill="#D9C068" points="274.8,428.4 235.1,428.7 235.3,389 			"/>
			<polygon fill="#DAC052" points="235.4,388.9 235.1,428.5 195.9,428.3 			"/>
		</g>
		<g>
			<polygon fill="#AE8640" points="353.6,428.4 313.9,428.7 314.1,389 			"/>
			<polygon fill="#EDEE9B" points="314.2,388.9 313.9,428.5 274.7,428.3 			"/>
		</g>
		<g>
			<polygon opacity="0.91" fill="#D7E19D" points="314.3,310.8 314,271.6 353.7,271.3 			"/>
			<polygon fill="#DFDA85" points="274.8,271.4 314,271.6 314.4,310.7 			"/>
		</g>
		<g>
			<polygon fill="#B99958" points="392.9,389 353.2,389.3 353.5,349.6 			"/>
			<polygon fill="#AE8640" points="353.5,349.5 353.2,389.1 314,388.9 			"/>
			<polygon fill="#87674F" points="353.5,428.3 353.2,389.1 392.9,388.8 			"/>
			<polygon fill="#B79052" points="314,388.9 353.2,389.1 353.6,428.2 			"/>
		</g>
		<g>
			<polygon fill="#E0BE61" points="392.7,310.9 353,311.1 353.2,271.4 			"/>
			<polygon fill="#DCC15F" points="353.3,271.3 353,310.9 313.8,310.7 			"/>
			<polygon fill="#B99958" points="353.2,350.1 353,310.9 392.7,310.7 			"/>
			<polygon fill="#AE8640" points="313.8,310.7 353,310.9 353.4,350.1 			"/>
		</g>
		<g>
			<polygon fill="#D1AA50" points="392.7,310.2 392.5,349.8 353.3,349.6 			"/>
			<polygon fill="#B79052" points="353.2,349.6 392.5,349.8 392.8,388.9 			"/>
		</g>
		<g>
			<polygon fill="#8B705E" points="392.9,389 392.6,428.6 353.4,428.4 			"/>
		</g>
		<g>
			<polygon fill="#D7BC6F" points="353,271.5 392.2,271.7 392.6,310.9 			"/>
		</g>
		<polygon fill="#EEF0AF" points="156.8,389.1 117.1,389.3 117.4,349.6 		"/>
		<polygon fill="#EDF0BA" points="117.4,349.5 117.1,389.1 77.9,389 		"/>
		<polygon fill="#F6F1AC" points="117.4,428.3 117.1,389.1 156.8,388.9 		"/>
		<polygon fill="#EDEE9B" points="77.9,389 117.1,389.1 117.5,428.3 		"/>
		<g>
			<polygon fill="#F9F4C9" points="117.5,349.8 77.8,350 78,310.4 			"/>
			<polygon fill="#F8F3AB" points="78,389 77.8,349.9 117.5,349.6 			"/>
		</g>
		<g>
			<polygon fill="#F6F1AC" points="156.6,310.5 116.9,310.8 117.2,271.1 			"/>
			<polygon fill="#F4F4C6" points="117.2,271 116.9,310.6 77.7,310.4 			"/>
			<polygon fill="#F6F1AC" points="117.2,349.8 116.9,310.6 156.6,310.3 			"/>
			<polygon fill="#F6F1AC" points="77.7,310.4 116.9,310.6 117.3,349.7 			"/>
		</g>
		<g>
			<polygon fill="#F7F3C8" points="156.6,310.7 156.4,271.5 196.1,271.2 			"/>
			<polygon fill="#F8F3AB" points="117.2,271.3 156.4,271.5 156.7,310.7 			"/>
		</g>
		<g>
			<polygon fill="#D1AA50" points="196.1,428.4 156.4,428.6 156.6,389 			"/>
			<polygon fill="#BC9C55" points="156.6,388.8 156.4,428.5 117.2,428.3 			"/>
		</g>
		<g>
			<polygon fill="#F8F3AB" points="77.9,310.7 77.7,271.6 117.4,271.3 			"/>
		</g>
		<g>
			<polygon fill="#F2E9B0" points="117.4,428.5 77.7,428.7 77.9,389 			"/>
			<polygon fill="#EDEE9B" points="77.9,388.9 77.7,428.5 38.5,428.3 			"/>
		</g>
		<polygon fill="#EDEE9B" points="235.5,232.7 195.8,232.9 196,193.2 		"/>
		<polygon fill="#EFEFA6" points="196,193.1 195.8,232.7 156.6,232.6 		"/>
		<polygon fill="#E3EBA3" points="196,271.9 195.8,232.7 235.5,232.5 		"/>
		<polygon fill="#E6ECAD" points="156.6,232.6 195.8,232.7 196.1,271.9 		"/>
		<g>
			<polygon fill="#E3EBA3" points="274.7,193.2 235,193.5 235.2,153.8 			"/>
			<polygon fill="#E6ECAD" points="235.3,153.7 235,193.3 195.8,193.1 			"/>
			<polygon fill="#EBEFB1" points="235.2,232.5 235,193.3 274.7,193 			"/>
			<polygon fill="#DEE599" points="195.8,193.1 235,193.3 235.3,232.4 			"/>
		</g>
		<g>
			<polygon fill="#ECEFAD" points="196.1,193.4 156.5,193.6 156.7,154 			"/>
			<polygon fill="#EDF0BA" points="156.7,153.8 156.5,193.5 117.3,193.3 			"/>
			<polygon fill="#EBF0BB" points="156.7,232.6 156.5,193.5 196.1,193.2 			"/>
			<polygon fill="#F1F0BD" points="117.2,193.3 156.5,193.5 156.8,232.6 			"/>
		</g>
		<g>
			<polygon fill="#ECEFAD" points="235.3,154.1 195.6,154.4 195.8,114.7 			"/>
			<polygon fill="#EDEE9B" points="195.8,114.6 195.6,154.2 156.4,154 			"/>
			<polygon fill="#EDEE9B" points="195.8,193.4 195.6,154.2 235.3,153.9 			"/>
			<polygon fill="#EFEFA6" points="156.4,154 195.6,154.2 195.9,193.3 			"/>
		</g>
		<g>
			<polygon fill="#E9E393" points="314,232.6 274.4,232.9 274.6,193.2 			"/>
			<polygon fill="#F7E7A5" points="274.6,193.1 274.4,232.7 235.2,232.5 			"/>
			<polygon fill="#E9E393" points="274.6,271.9 274.4,232.7 314,232.4 			"/>
			<polygon fill="#F2E9A7" points="235.2,232.5 274.4,232.7 274.7,271.8 			"/>
		</g>
		<g>
			<polygon fill="#DEE599" points="353.4,193.3 313.7,193.5 313.9,153.8 			"/>
			<polygon fill="#DDDA88" points="314,153.7 313.7,193.3 274.5,193.2 			"/>
			<polygon fill="#F1E18D" points="313.9,232.5 313.7,193.3 353.4,193.1 			"/>
			<polygon fill="#E9E393" points="274.5,193.2 313.7,193.3 314,232.5 			"/>
		</g>
		<g>
			<polygon fill="#DEE599" points="313.9,154.1 274.2,154.4 274.5,114.7 			"/>
			<polygon fill="#E6ECAD" points="274.5,114.6 274.2,154.2 235.1,154 			"/>
			<polygon fill="#DEE599" points="274.5,193.4 274.2,154.2 313.9,153.9 			"/>
			<polygon fill="#DBDE96" points="235,154 274.2,154.2 274.6,193.3 			"/>
		</g>
		<g>
			<polygon fill="#E3EBA3" points="235.3,154.3 235,115.1 274.7,114.8 			"/>
			<polygon fill="#DBE8AA" points="195.8,114.9 235,115.1 235.4,154.3 			"/>
		</g>
		<g>
			<polygon fill="#EBEFB1" points="274.7,272 235,272.2 235.3,232.6 			"/>
			<polygon fill="#F6F1AC" points="235.3,232.4 235,272.1 195.8,271.9 			"/>
		</g>
		<g>
			<polygon fill="#DAC052" points="353.5,272 313.8,272.2 314.1,232.6 			"/>
			<polygon fill="#DEE599" points="314.1,232.4 313.8,272.1 274.6,271.9 			"/>
		</g>
		<g>
			<polygon fill="#D9D392" points="314.2,154.3 313.9,115.2 353.6,114.9 			"/>
			<polygon fill="#D3DD8D" points="274.7,115 313.9,115.2 314.3,154.3 			"/>
		</g>
		<g>
			<polygon fill="#D9C068" points="392.8,232.6 353.1,232.8 353.4,193.1 			"/>
			<polygon fill="#D9C068" points="353.4,193 353.1,232.6 314,232.5 			"/>
			<polygon fill="#D1AA50" points="353.4,271.8 353.1,232.6 392.8,232.4 			"/>
			<polygon fill="#D9C068" points="313.9,232.5 353.1,232.6 353.5,271.8 			"/>
		</g>
		<g>
			<polygon fill="#B6B36C" points="392.6,154.4 352.9,154.7 353.1,115 			"/>
			<polygon fill="#D7D288" points="353.2,114.9 352.9,154.5 313.7,154.3 			"/>
			<polygon fill="#AC9F5F" points="353.1,193.7 352.9,154.5 392.6,154.2 			"/>
			<polygon fill="#D0D78B" points="313.7,154.3 352.9,154.5 353.3,193.6 			"/>
		</g>
		<g>
			<polygon fill="#C7C574" points="392.6,153.7 392.4,193.3 353.2,193.2 			"/>
			<polygon fill="#D9C068" points="353.1,193.2 392.4,193.3 392.7,232.5 			"/>
		</g>
		<g>
			<polygon fill="#D0B25C" points="392.8,232.6 392.5,272.2 353.3,272 			"/>
		</g>
		<g>
			<polygon fill="#AC9F5F" points="352.9,115.1 392.1,115.3 392.5,154.4 			"/>
		</g>
		<polygon fill="#F9F1B9" points="156.7,232.6 117,232.9 117.3,193.2 		"/>
		<polygon fill="#F1F1BF" points="117.3,193.1 117,232.7 77.9,232.5 		"/>
		<polygon fill="#F9F4C9" points="117.3,271.9 117,232.7 156.7,232.4 		"/>
		<polygon fill="#F4F4C6" points="77.8,232.5 117,232.7 117.4,271.9 		"/>
		<g>
			<polygon fill="#F9F1B9" points="117.4,193.4 77.7,193.6 77.9,153.9 			"/>
			<polygon fill="#F8F7CD" points="77.9,232.6 77.7,193.4 117.4,193.2 			"/>
		</g>
		<g>
			<polygon fill="#EEEFAA" points="156.5,154.1 116.8,154.3 117.1,114.6 			"/>
			<polygon fill="#F4F4C6" points="117.1,114.5 116.8,154.1 77.7,154 			"/>
			<polygon fill="#F1F0BD" points="117.1,193.3 116.8,154.1 156.5,153.9 			"/>
			<polygon fill="#EEEFAA" points="77.6,154 116.8,154.1 117.2,193.3 			"/>
		</g>
		<g>
			<polygon fill="#ECEFB4" points="156.5,154.3 156.3,115.1 196,114.8 			"/>
			<polygon fill="#F9F1B9" points="117.1,114.9 156.3,115.1 156.6,154.2 			"/>
		</g>
		<g>
			<polygon fill="#EEEFAA" points="196,272 156.3,272.2 156.5,232.5 			"/>
			<polygon fill="#F7F3C8" points="156.5,232.4 156.3,272 117.1,271.9 			"/>
		</g>
		<g>
			<polygon fill="#F9F1B9" points="77.8,154.3 77.6,115.1 117.3,114.9 			"/>
		</g>
		<g>
			<polygon fill="#F8F7CD" points="117.3,272 77.6,272.3 77.8,232.6 			"/>
		</g>
	</g>
	<g>
		<polyline fill="#DBDE96" points="234.5,36.9 234.8,76.6 274.2,37.2 		"/>
		<polyline fill="#D3DD8D" points="195.4,37.3 234.8,76.7 234.5,37.1 		"/>
		<polyline fill="#D7D696" points="156,36.8 156.2,76.5 195.7,37 		"/>
		<polyline fill="#DDE798" points="116.8,37.1 156.3,76.6 156,36.9 		"/>
		<polygon fill="#D4E496" points="234.8,76.3 195.1,76.1 195.4,115.7 		"/>
		<polygon fill="#DBDE96" points="195.4,115.9 195.1,76.2 155.9,76.4 		"/>
		<polyline fill="#DDDA88" points="195.4,37 195.1,76.2 234.8,76.5 195.4,37 		"/>
		<polyline fill="#DDE798" points="195.5,37.1 155.9,76.4 195.1,76.2 195.5,37.1 		"/>
		<polyline fill="#C0BE71" points="313.2,36.9 313.5,76.6 352.9,37.1 		"/>
		<polyline fill="#D2C477" points="274,37.2 313.5,76.7 313.2,37.1 		"/>
		<polygon fill="#DDDA88" points="313.5,76.3 273.8,76 274,115.7 		"/>
		<polygon fill="#CBD186" points="274,115.8 273.8,76.2 234.6,76.4 		"/>
		<polyline fill="#CBD186" points="274,37 273.8,76.2 313.5,76.5 274,37 		"/>
		<polyline fill="#D7D696" points="274.1,37.1 234.6,76.4 273.8,76.2 274.1,37.1 		"/>
		<g>
			<polygon fill="#DDDA88" points="234.8,76.1 234.6,115.3 274.2,115.6 			"/>
			<polygon fill="#D3DD8D" points="195.4,115.5 234.6,115.3 234.9,76.1 			"/>
		</g>
		<g>
			<polygon fill="#D2C477" points="313.7,76.1 313.5,115.2 353.2,115.5 			"/>
			<polygon fill="#D7D288" points="274.3,115.4 313.5,115.2 313.8,76.1 			"/>
		</g>
		<polygon fill="#C0BE71" points="392.1,76 352.5,75.7 352.7,115.4 		"/>
		<polygon fill="#C0BE71" points="352.7,115.5 352.5,75.9 313.3,76.1 		"/>
		<polyline fill="#B6B36C" points="352.7,36.7 352.5,75.9 392.1,76.2 352.7,36.7 		"/>
		<polyline fill="#A7A66E" points="352.8,36.8 313.2,76.1 352.5,75.9 352.8,36.8 		"/>
		<polyline fill="#A7A66E" points="352.7,37.2 392.2,76.7 391.9,37.1 		"/>
		<g>
			<polygon fill="#B6B36C" points="350.9,116.5 390.1,116.3 390.5,77.2 			"/>
		</g>
		<polyline fill="#EEEFAA" points="77.3,36.8 77.5,76.5 116.9,37 		"/>
		<polygon fill="#EEEFAA" points="156.1,76.3 116.4,76.1 116.6,115.8 		"/>
		<polygon fill="#EDF0BA" points="116.6,115.9 116.4,76.3 77.2,76.4 		"/>
		<polyline fill="#ECED9C" points="116.6,37.1 116.4,76.3 156.1,76.5 116.6,37.1 		"/>
		<polyline fill="#EEEFAA" points="116.7,37.1 77.2,76.4 116.4,76.3 116.7,37.1 		"/>
		<g>
			<polygon fill="#EDEE9B" points="156.1,76.2 155.8,115.3 195.5,115.6 			"/>
			<polygon fill="#ECF0B9" points="116.6,115.5 155.8,115.3 156.2,76.2 			"/>
		</g>
		<g>
			<polygon fill="#EDEE9B" points="77.4,76.1 77.1,115.3 116.8,115.5 			"/>
		</g>
	</g>
	<g>
		<polyline fill="#EEEFAA" points="78.2,115.3 39,115.5 78.4,154.9 		"/>
		<polyline fill="#EDF0BA" points="78.5,76.1 39,115.5 78.2,115.3 		"/>
		<polyline fill="#EDF0BA" points="78.5,76 38.8,75.8 39,115.5 78.5,76 		"/>
		<polyline fill="#F1F0BD" points="78.5,76.2 39,36.8 38.8,76 78.5,76.2 		"/>
		<polyline fill="#EBEFB1" points="78.3,154.6 38.6,154.3 38.8,194 78.3,154.6 		"/>
		<polyline fill="#EEEFAA" points="78.3,154.8 38.8,115.3 38.6,154.5 78.3,154.8 		"/>
		<polyline fill="#F9F4C9" points="78.4,154.4 38.8,193.8 78.1,193.6 		"/>
		<polyline fill="#EDEE9B" points="78.1,36.6 38.9,36.8 78.3,76.3 		"/>
		<g>
			<polygon fill="#E4EDB8" points="-39.8,115.7 -0.1,115.5 -0.3,155.2 			"/>
			<polygon fill="#F1F0BD" points="-0.4,155.3 -0.1,115.7 39.1,115.8 			"/>
			<polygon fill="#EDF0BA" points="-0.3,76.5 -0.1,115.7 -39.8,115.9 			"/>
			<polygon fill="#F6F1AC" points="39.1,115.8 -0.1,115.7 -0.5,76.5 			"/>
		</g>
		<polygon fill="#F1F0BD" points="-0.4,76.4 39.3,76.1 39,115.8 		"/>
		<polygon fill="#EEEFAA" points="39,37.1 39.3,76.3 -0.4,76.6 		"/>
		<g>
			<polygon fill="#F8F3AB" points="-0.2,154.9 39.5,154.7 39.2,194.4 			"/>
			<polygon fill="#EDF0BA" points="39.2,115.7 39.5,154.9 -0.2,155.2 			"/>
		</g>
		<g>
			<polygon fill="#EDF0BA" points="-0.2,154.8 0,194 -39.7,194.2 			"/>
			<polygon fill="#EBEFB1" points="39.2,194.1 0,194 -0.3,154.8 			"/>
		</g>
		<g>
			<polygon fill="#DEE599" points="-39.7,37.1 0,36.8 -0.2,76.5 			"/>
			<polygon fill="#DEE599" points="-0.2,76.6 0,37 39.2,37.2 			"/>
		</g>
		<polyline fill="#F9F4C9" points="78.1,271.7 38.9,271.9 78.4,311.4 		"/>
		<polyline fill="#F9F4C9" points="78.4,232.6 38.9,271.9 78.1,271.7 		"/>
		<polyline fill="#F8F7CD" points="78.4,232.5 38.7,232.2 38.9,271.9 78.4,232.5 		"/>
		<polyline fill="#F4F4C6" points="78.4,232.7 38.9,193.2 38.7,232.4 78.4,232.7 		"/>
		<polyline fill="#F4F4C6" points="78.2,311 38.5,310.8 38.7,350.5 78.2,311 		"/>
		<polyline fill="#F9F4C9" points="78.2,311.2 38.7,271.8 38.5,311 78.2,311.2 		"/>
		<polyline fill="#EDF0BA" points="78.3,310.9 38.7,350.2 78,350 		"/>
		<polyline fill="#F9F1B9" points="78,193.1 38.8,193.2 78.2,232.7 		"/>
		<g>
			<polygon fill="#EEF0AF" points="-39.7,272.2 0,271.9 -0.2,311.6 			"/>
			<polygon fill="#F4F4C6" points="-0.3,311.7 0,272.1 39.2,272.3 			"/>
			<polygon fill="#F8F3AB" points="-0.2,232.9 0,272.1 -39.7,272.4 			"/>
			<polygon fill="#F9F4C9" points="39.2,272.3 0,272.1 -0.4,232.9 			"/>
		</g>
		<polygon fill="#F8F3AB" points="-0.3,232.8 39.4,232.6 39.1,272.3 		"/>
		<polygon fill="#F6F1AC" points="39.1,193.6 39.4,232.8 -0.3,233 		"/>
		<g>
			<polygon fill="#F8F3AB" points="-0.1,311.4 39.6,311.1 39.3,350.8 			"/>
			<polygon fill="#F9F4C9" points="39.3,272.1 39.6,311.3 -0.1,311.6 			"/>
		</g>
		<g>
			<polygon fill="#F4F4C6" points="-0.1,311.2 0.1,350.4 -39.6,350.7 			"/>
			<polygon fill="#F8F3AB" points="39.3,350.6 0.1,350.4 -0.2,311.2 			"/>
		</g>
		<g>
			<polygon fill="#EEEFAA" points="-39.6,193.5 0.1,193.3 -0.1,232.9 			"/>
			<polygon fill="#EDF0BA" points="-0.1,233.1 0.1,193.4 39.3,193.6 			"/>
		</g>
		<line fill="#EBEFB1" x1="38.4" y1="428" x2="77.9" y2="388.5"/>
		<polyline fill="#EEEFAA" points="77.7,388.9 38.1,389.1 38.3,349.4 77.7,388.9 		"/>
		<line fill="#F9F1B9" x1="77.7" y1="388.7" x2="38.3" y2="428.1"/>
		<polyline fill="#F2E9B0" points="38.3,428.1 38.1,388.9 77.7,388.7 		"/>
		<polyline fill="#EEF0AF" points="77.9,389 38.3,349.7 77.5,349.9 		"/>
		<polyline fill="#F2E9B0" points="-0.5,428 -0.7,388.3 -40.2,427.8 		"/>
		<polyline fill="#F2E9B0" points="38.7,427.6 -0.7,388.2 -0.5,427.8 		"/>
		<polygon fill="#EBEFB1" points="-0.6,388.5 39.1,388.8 38.9,349.1 		"/>
		<polyline fill="#EDF0BA" points="38.9,427.8 39.1,388.6 -0.6,388.3 38.9,427.8 		"/>
		<g>
			<polygon fill="#F8F3AB" points="-0.6,388.7 -0.3,349.5 -40,349.2 			"/>
			<polygon fill="#F9F1B9" points="38.9,349.3 -0.3,349.5 -0.7,388.7 			"/>
		</g>
	</g>
</g>
<line fill="#D7BC6F" x1="431.3" y1="271.2" x2="431.7" y2="310.4"/>
<g>
	<polygon fill="#B99958" points="429.3,351 389.6,351.3 389.8,311.6 	"/>
	<polygon fill="#87674F" points="389.8,390.3 389.6,351.1 429.3,350.8 	"/>
	<polygon fill="#E0BE61" points="429,272.9 389.4,273.1 389.6,233.4 	"/>
	<polygon fill="#B99958" points="389.6,312.1 389.4,272.9 429,272.7 	"/>
	<g>
		<polygon fill="#D1AA50" points="429.1,272.2 428.8,311.8 389.6,311.6 		"/>
		<polygon fill="#B79052" points="389.6,311.6 428.8,311.8 429.2,350.9 		"/>
	</g>
	<g>
		<polygon fill="#8B705E" points="429.2,351 429,390.6 389.8,390.5 		"/>
	</g>
	<polygon fill="#D0B25C" points="429.2,194.6 389.5,194.8 389.7,155.2 	"/>
	<polygon fill="#D1AA50" points="389.7,233.8 389.5,194.7 429.2,194.4 	"/>
	<polygon fill="#B6B36C" points="428.9,116.4 389.3,116.7 389.5,77 	"/>
	<polygon fill="#AC9F5F" points="389.5,155.7 389.3,116.5 428.9,116.2 	"/>
	<g>
		<polygon fill="#C7C574" points="429,115.7 428.7,155.4 389.5,155.2 		"/>
		<polygon fill="#D9C068" points="389.5,155.2 428.7,155.4 429.1,194.5 		"/>
	</g>
	<g>
		<polygon fill="#D0B25C" points="429.1,194.6 428.9,234.2 389.7,234 		"/>
	</g>
	<g>
		<polygon fill="#AC9F5F" points="389.3,77.1 428.5,77.3 428.8,116.4 		"/>
	</g>
	<polygon fill="#C0BE71" points="428.5,38 388.8,37.8 389,77.4 	"/>
	<polyline fill="#B6B36C" points="389,-0.7 388.8,38.5 428.4,38.8 389,-0.7 	"/>
	<polyline fill="#A7A66E" points="389.1,-0.7 428.5,38.7 428.3,-0.9 	"/>
	<g>
		<g>
			<g>
				<polygon fill="#AD9851" points="388.8,77.3 428,77.2 428.4,38 				"/>
			</g>
		</g>
	</g>
	<g>
		<polygon fill="#D7BC6F" points="389.6,233.6 428.8,233.7 429.1,272.9 		"/>
	</g>
</g>
<g>
	<polyline fill="#DBDE96" points="273.9,-0.9 274.2,38.8 313.6,-0.7 	"/>
	<polyline fill="#D3DD8D" points="234.8,-0.6 274.2,38.9 273.9,-0.7 	"/>
	<polyline fill="#D7D696" points="195.4,-1.1 195.6,38.6 235.1,-0.9 	"/>
	<polyline fill="#DDE798" points="156.2,-0.7 195.7,38.7 195.4,-0.9 	"/>
	<polyline fill="#DDDA88" points="234.8,-0.8 234.5,38.4 274.2,38.6 234.8,-0.8 	"/>
	<polyline fill="#DDE798" points="234.9,-0.8 195.3,38.5 234.5,38.4 234.9,-0.8 	"/>
	<polyline fill="#C0BE71" points="351.1,-0.8 351.3,38.9 390.8,-0.5 	"/>
	<polyline fill="#D2C477" points="313.2,-1.2 352.7,38.3 352.4,-1.3 	"/>
	<polyline fill="#B6B36C" points="313.4,-0.8 313.2,38.4 352.9,38.6 313.4,-0.8 	"/>
	<polyline fill="#D7D696" points="313.5,-0.8 274,38.5 313.2,38.4 313.5,-0.8 	"/>
	<polyline fill="#A7A66E" points="389.1,-1.2 349.5,38.1 388.7,38 389.1,-1.2 	"/>
	<polyline fill="#EEEFAA" points="116.7,-1.1 116.9,38.6 156.3,-0.8 	"/>
	<polyline fill="#ECED9C" points="156,-0.8 155.8,38.4 195.5,38.7 156,-0.8 	"/>
	<polyline fill="#EEEFAA" points="156.1,-0.7 116.6,38.6 155.8,38.4 156.1,-0.7 	"/>
	<polyline fill="#EEEFAA" points="117.9,38.4 78.4,-1.1 78.2,38.1 117.9,38.4 	"/>
	<line fill="#EDEE9B" x1="78.3" y1="-1.1" x2="117.7" y2="38.4"/>
	<polygon fill="#EFE284" points="-0.3,-0.7 0,38.5 -39.7,38.8 	"/>
	<polygon fill="#EEE39F" points="39.2,38.7 0,38.5 -0.4,-0.6 	"/>
	<polygon fill="#EEEFAA" points="78.4,-0.7 78.7,38.5 39,38.7 	"/>
	<line fill="#DEE599" x1="39.2" y1="38.6" x2="-0.3" y2="-0.8"/>
	<polygon fill="#DEE599" points="39.2,38.8 39.4,-0.9 78.6,-0.7 	"/>
</g>
<polyline fill="#EDEE9B" points="116.8,-1.2 77.7,-1 117.1,38.5 "/>
<polyline fill="#EDEE9B" points="39.2,-0.7 0,-0.6 39.4,38.9 "/>
<polygon fill="#87674F" points="389.5,428.6 389.3,389.4 428.9,389.1 "/>
<g>
	<polygon fill="#8B705E" points="428.9,389.3 428.6,428.9 389.5,428.8 	"/>
</g>
<g>
	<g>
		<g>
			<polygon fill="#E2D170" points="825,38.6 785.3,38.4 785.5,78 			"/>
			<polygon fill="#E2D170" points="785.5,78.2 785.3,38.5 746.1,38.7 			"/>
			<polygon fill="#DEC780" points="785.5,-0.7 785.3,38.5 825,38.8 			"/>
			<polygon fill="#D9C068" points="746.1,38.7 785.3,38.5 785.6,-0.6 			"/>
			<g>
				<polygon fill="#EDD06F" points="864.2,78 824.5,77.8 824.7,117.5 				"/>
				<polygon fill="#EEE07C" points="824.8,117.6 824.5,78 785.3,78.2 				"/>
				<polygon fill="#D9C068" points="824.7,38.8 824.5,78 864.2,78.2 				"/>
				<polygon fill="#EDD06F" points="785.3,78.2 824.5,78 824.9,38.8 				"/>
			</g>
			<g>
				<polygon fill="#F6F1AC" points="785.6,77.9 746,77.6 746.2,117.3 				"/>
				<polygon fill="#EEEFAA" points="746.2,117.4 746,77.8 706.8,78 				"/>
				<polygon fill="#F7E7A5" points="746.2,38.6 746,77.8 785.6,78.1 				"/>
				<polygon fill="#EEEFAA" points="706.7,78 746,77.8 746.3,38.7 				"/>
			</g>
			<g>
				<polygon fill="#EDEE9B" points="824.8,117.2 785.1,116.9 785.3,156.6 				"/>
				<polygon fill="#EDEFA9" points="785.3,156.7 785.1,117.1 745.9,117.3 				"/>
				<polygon fill="#EFE284" points="785.3,77.9 785.1,117.1 824.8,117.4 				"/>
				<polygon fill="#EEEFAA" points="745.9,117.3 785.1,117.1 785.4,78 				"/>
			</g>
			<g>
				<polygon fill="#DAC052" points="903.5,38.6 863.9,38.4 864.1,78.1 				"/>
				<polygon fill="#E2D170" points="864.1,78.2 863.9,38.6 824.7,38.8 				"/>
				<polygon fill="#D0B25C" points="864.1,-0.6 863.9,38.6 903.5,38.8 				"/>
				<polygon fill="#BC9C55" points="824.7,38.8 863.9,38.6 864.2,-0.6 				"/>
			</g>
			<g>
				<polygon fill="#BC9C55" points="942.9,78 903.2,77.8 903.4,117.4 				"/>
				<polygon fill="#E0BE61" points="903.5,117.6 903.2,77.9 864,78.1 				"/>
				<polygon fill="#D1AA50" points="903.4,38.8 903.2,77.9 942.9,78.2 				"/>
				<polygon fill="#D0B25C" points="864,78.1 903.2,77.9 903.5,38.8 				"/>
			</g>
			<g>
				<polygon fill="#E2D170" points="903.4,117.2 863.7,116.9 864,156.6 				"/>
				<polygon fill="#D9C068" points="864,156.7 863.7,117.1 824.6,117.3 				"/>
				<polygon fill="#EDD06F" points="864,77.9 863.7,117.1 903.4,117.4 				"/>
				<polygon fill="#E7D27C" points="824.5,117.3 863.7,117.1 864.1,77.9 				"/>
			</g>
			<g>
				<polygon fill="#F2E9A7" points="824.8,117 824.5,156.2 864.2,156.4 				"/>
				<polygon fill="#F7E7A5" points="785.3,156.3 824.5,156.2 824.9,117 				"/>
			</g>
			<g>
				<polygon fill="#D9C068" points="864.2,-0.7 824.5,-1 824.8,38.7 				"/>
				<polygon fill="#DAC052" points="824.8,38.8 824.5,-0.8 785.3,-0.6 				"/>
			</g>
			<g>
				<polygon fill="#AE8640" points="943,-0.7 903.3,-1 903.5,38.7 				"/>
				<polygon fill="#BC9C55" points="903.6,38.8 903.3,-0.8 864.1,-0.6 				"/>
			</g>
			<g>
				<polygon fill="#D0B25C" points="903.7,116.9 903.4,156.1 943.1,156.4 				"/>
				<polygon fill="#D9C068" points="864.2,156.3 903.4,156.1 903.8,117 				"/>
			</g>
			<g>
				<polygon fill="#B99958" points="982.3,38.7 942.6,38.4 942.9,78.1 				"/>
				<polygon fill="#AE8640" points="942.9,78.2 942.6,38.6 903.5,38.8 				"/>
				<polygon fill="#87674F" points="942.9,-0.6 942.6,38.6 982.3,38.9 				"/>
				<polygon fill="#B79052" points="903.4,38.8 942.6,38.6 943,-0.5 				"/>
			</g>
			<g>
				<polygon fill="#E0BE61" points="982.1,116.8 942.4,116.6 942.6,156.3 				"/>
				<polygon fill="#DCC15F" points="942.7,156.4 942.4,116.8 903.2,117 				"/>
				<polygon fill="#B99958" points="942.6,77.6 942.4,116.8 982.1,117.1 				"/>
				<polygon fill="#AE8640" points="903.2,117 942.4,116.8 942.8,77.6 				"/>
			</g>
			<g>
				<polygon fill="#D1AA50" points="982.1,117.6 981.9,77.9 942.7,78.1 				"/>
				<polygon fill="#B79052" points="942.6,78.1 981.9,77.9 982.2,38.8 				"/>
			</g>
			<g>
				<polygon fill="#8B705E" points="982.3,38.7 982,-0.9 942.8,-0.7 				"/>
			</g>
			<g>
				<polygon fill="#D7BC6F" points="942.4,156.2 981.6,156 982,116.9 				"/>
			</g>
			<polygon fill="#EEF0AF" points="746.2,38.6 706.5,38.4 706.8,78.1 			"/>
			<polygon fill="#EDF0BA" points="706.8,78.2 706.5,38.6 667.4,38.7 			"/>
			<polygon fill="#F6F1AC" points="706.8,-0.6 706.5,38.6 746.2,38.8 			"/>
			<polygon fill="#EDEE9B" points="667.3,38.7 706.5,38.6 706.9,-0.6 			"/>
			<g>
				<polygon fill="#F9F4C9" points="706.9,77.9 667.2,77.7 667.4,117.4 				"/>
				<polygon fill="#F8F3AB" points="667.4,38.7 667.2,77.9 706.9,78.1 				"/>
			</g>
			<g>
				<polygon fill="#F6F1AC" points="746,117.2 706.3,117 706.6,156.6 				"/>
				<polygon fill="#F4F4C6" points="706.6,156.8 706.3,117.1 667.2,117.3 				"/>
				<polygon fill="#F6F1AC" points="706.6,78 706.3,117.1 746,117.4 				"/>
				<polygon fill="#F6F1AC" points="667.1,117.3 706.3,117.1 706.7,78 				"/>
			</g>
			<g>
				<polygon fill="#F7F3C8" points="746,117 745.8,156.2 785.5,156.5 				"/>
				<polygon fill="#F8F3AB" points="706.6,156.4 745.8,156.2 746.1,117.1 				"/>
			</g>
			<g>
				<polygon fill="#D1AA50" points="785.5,-0.7 745.8,-0.9 746,38.8 				"/>
				<polygon fill="#BC9C55" points="746.1,38.9 745.8,-0.8 706.6,-0.6 				"/>
			</g>
			<g>
				<polygon fill="#F8F3AB" points="667.3,117 667.1,156.1 706.8,156.4 				"/>
			</g>
			<g>
				<polygon fill="#F2E9B0" points="706.8,-0.8 667.1,-1 667.3,38.7 				"/>
				<polygon fill="#EDEE9B" points="667.3,38.8 667.1,-0.8 627.9,-0.6 				"/>
			</g>
			<polygon fill="#EDEE9B" points="824.9,195 785.2,194.8 785.4,234.5 			"/>
			<polygon fill="#EFEFA6" points="785.4,234.6 785.2,195 746,195.1 			"/>
			<polygon fill="#E3EBA3" points="785.4,155.8 785.2,195 824.9,195.2 			"/>
			<polygon fill="#E6ECAD" points="746,195.1 785.2,195 785.5,155.8 			"/>
			<g>
				<polygon fill="#E3EBA3" points="864.1,234.5 824.4,234.2 824.6,273.9 				"/>
				<polygon fill="#E6ECAD" points="824.7,274 824.4,234.4 785.2,234.6 				"/>
				<polygon fill="#EBEFB1" points="824.6,195.2 824.4,234.4 864.1,234.7 				"/>
				<polygon fill="#DEE599" points="785.2,234.6 824.4,234.4 824.8,195.3 				"/>
			</g>
			<g>
				<polygon fill="#ECEFAD" points="785.5,234.3 745.9,234.1 746.1,273.8 				"/>
				<polygon fill="#EDF0BA" points="746.1,273.9 745.9,234.3 706.7,234.4 				"/>
				<polygon fill="#EBF0BB" points="746.1,195.1 745.9,234.3 785.5,234.5 				"/>
				<polygon fill="#F1F0BD" points="706.6,234.4 745.9,234.3 746.2,195.1 				"/>
			</g>
			<g>
				<polygon fill="#ECEFAD" points="824.7,273.6 785,273.4 785.2,313 				"/>
				<polygon fill="#EDEE9B" points="785.2,313.2 785,273.5 745.8,273.7 				"/>
				<polygon fill="#EDEE9B" points="785.2,234.4 785,273.5 824.7,273.8 				"/>
				<polygon fill="#EFEFA6" points="745.8,273.7 785,273.5 785.3,234.4 				"/>
			</g>
			<g>
				<polygon fill="#E9E393" points="903.5,195.1 863.8,194.8 864,234.5 				"/>
				<polygon fill="#F7E7A5" points="864,234.6 863.8,195 824.6,195.2 				"/>
				<polygon fill="#E9E393" points="864,155.8 863.8,195 903.5,195.3 				"/>
				<polygon fill="#F2E9A7" points="824.6,195.2 863.8,195 864.1,155.9 				"/>
			</g>
			<g>
				<polygon fill="#DEE599" points="942.8,234.4 903.1,234.2 903.3,273.9 				"/>
				<polygon fill="#DDDA88" points="903.4,274 903.1,234.4 863.9,234.5 				"/>
				<polygon fill="#F1E18D" points="903.3,195.2 903.1,234.4 942.8,234.6 				"/>
				<polygon fill="#E9E393" points="863.9,234.5 903.1,234.4 903.5,195.2 				"/>
			</g>
			<g>
				<polygon fill="#DEE599" points="903.3,273.6 863.7,273.4 863.9,313 				"/>
				<polygon fill="#E6ECAD" points="863.9,313.2 863.7,273.5 824.5,273.7 				"/>
				<polygon fill="#DEE599" points="863.9,234.3 863.7,273.5 903.3,273.8 				"/>
				<polygon fill="#DBDE96" points="824.4,273.7 863.7,273.5 864,234.4 				"/>
			</g>
			<g>
				<polygon fill="#E3EBA3" points="824.7,273.4 824.4,312.6 864.1,312.9 				"/>
				<polygon fill="#DBE8AA" points="785.2,312.8 824.4,312.6 824.8,273.4 				"/>
			</g>
			<g>
				<polygon fill="#EBEFB1" points="864.1,155.7 824.4,155.5 824.7,195.1 				"/>
				<polygon fill="#F6F1AC" points="824.7,195.3 824.4,155.6 785.2,155.8 				"/>
			</g>
			<g>
				<polygon fill="#DAC052" points="942.9,155.7 903.2,155.5 903.5,195.1 				"/>
				<polygon fill="#E2D170" points="903.5,195.3 903.2,155.6 864,155.8 				"/>
			</g>
			<g>
				<polygon fill="#D9D392" points="903.6,273.4 903.4,312.6 943,312.8 				"/>
				<polygon fill="#D3DD8D" points="864.1,312.7 903.4,312.6 903.7,273.4 				"/>
			</g>
			<g>
				<polygon fill="#D9C068" points="982.2,195.1 942.6,194.9 942.8,234.6 				"/>
				<polygon fill="#D9C068" points="942.8,234.7 942.6,195.1 903.4,195.2 				"/>
				<polygon fill="#D1AA50" points="942.8,155.9 942.6,195.1 982.2,195.3 				"/>
				<polygon fill="#D9C068" points="903.3,195.2 942.6,195.1 942.9,155.9 				"/>
			</g>
			<g>
				<polygon fill="#CBD186" points="982,273.3 942.3,273.1 942.6,312.7 				"/>
				<polygon fill="#D7D288" points="942.6,312.8 942.3,273.2 903.1,273.4 				"/>
				<polygon fill="#D2C477" points="942.6,234 942.3,273.2 982,273.5 				"/>
				<polygon fill="#D0D78B" points="903.1,273.4 942.3,273.2 942.7,234.1 				"/>
			</g>
			<g>
				<polygon fill="#C7C574" points="982,274 981.8,234.4 942.6,234.5 				"/>
				<polygon fill="#D9C068" points="942.6,234.5 981.8,234.4 982.1,195.2 				"/>
			</g>
			<g>
				<polygon fill="#D0B25C" points="982.2,195.2 981.9,155.5 942.7,155.7 				"/>
			</g>
			<g>
				<polygon fill="#D2C477" points="942.3,312.6 981.5,312.4 981.9,273.3 				"/>
			</g>
			<polygon fill="#F9F1B9" points="746.1,195.1 706.4,194.8 706.7,234.5 			"/>
			<polygon fill="#F1F1BF" points="706.7,234.6 706.4,195 667.3,195.2 			"/>
			<polygon fill="#F9F4C9" points="706.7,155.8 706.4,195 746.1,195.3 			"/>
			<polygon fill="#F4F4C6" points="667.2,195.2 706.4,195 706.8,155.9 			"/>
			<g>
				<polygon fill="#F9F1B9" points="706.8,234.3 667.1,234.1 667.4,273.8 				"/>
				<polygon fill="#F8F7CD" points="667.4,195.1 667.1,234.3 706.8,234.6 				"/>
			</g>
			<g>
				<polygon fill="#EEEFAA" points="745.9,273.6 706.2,273.4 706.5,313.1 				"/>
				<polygon fill="#F4F4C6" points="706.5,313.2 706.2,273.6 667.1,273.7 				"/>
				<polygon fill="#F1F0BD" points="706.5,234.4 706.2,273.6 745.9,273.8 				"/>
				<polygon fill="#EEEFAA" points="667,273.7 706.2,273.6 706.6,234.4 				"/>
			</g>
			<g>
				<polygon fill="#ECEFB4" points="745.9,273.5 745.7,312.6 785.4,312.9 				"/>
				<polygon fill="#F9F1B9" points="706.5,312.8 745.7,312.6 746.1,273.5 				"/>
			</g>
			<g>
				<polygon fill="#EEEFAA" points="785.4,155.7 745.7,155.5 745.9,195.2 				"/>
				<polygon fill="#F7F3C8" points="746,195.3 745.7,155.7 706.5,155.9 				"/>
			</g>
			<g>
				<polygon fill="#F9F1B9" points="667.2,273.4 667,312.6 706.7,312.8 				"/>
			</g>
			<g>
				<polygon fill="#F8F7CD" points="706.7,155.7 667,155.4 667.2,195.1 				"/>
			</g>
		</g>
		<g>
			<polyline fill="#DBDE96" points="823.9,390.8 824.2,351.1 863.6,390.5 			"/>
			<polyline fill="#D3DD8D" points="784.8,390.4 824.2,351 823.9,390.6 			"/>
			<polyline fill="#D7D696" points="745.4,390.9 745.6,351.3 785.1,390.7 			"/>
			<polyline fill="#DDE798" points="706.2,390.6 745.7,351.1 745.4,390.8 			"/>
			<polygon fill="#D4E496" points="824.2,351.4 784.5,351.7 784.8,312 			"/>
			<polygon fill="#DBDE96" points="784.8,311.9 784.5,351.5 745.3,351.3 			"/>
			<polyline fill="#DDDA88" points="784.8,390.7 784.5,351.5 824.2,351.2 784.8,390.7 			"/>
			<polyline fill="#DDE798" points="784.9,390.6 745.3,351.3 784.5,351.5 784.9,390.6 			"/>
			<polyline fill="#C0BE71" points="902.6,390.8 902.9,351.1 942.3,390.6 			"/>
			<polyline fill="#D2C477" points="863.5,390.5 902.9,351 902.6,390.6 			"/>
			<polygon fill="#DDDA88" points="902.9,351.4 863.2,351.7 863.4,312 			"/>
			<polygon fill="#CBD186" points="863.5,311.9 863.2,351.5 824,351.3 			"/>
			<polyline fill="#CBD186" points="863.4,390.7 863.2,351.5 902.9,351.2 863.4,390.7 			"/>
			<polyline fill="#D7D696" points="863.6,390.6 824,351.3 863.2,351.5 863.6,390.6 			"/>
			<g>
				<polygon fill="#DDDA88" points="824.2,351.6 824,312.4 863.7,312.2 				"/>
				<polygon fill="#D3DD8D" points="784.8,312.2 824,312.4 824.3,351.6 				"/>
			</g>
			<g>
				<polygon fill="#D2C477" points="903.1,351.6 902.9,312.5 942.6,312.2 				"/>
				<polygon fill="#D7D288" points="863.7,312.3 902.9,312.5 903.2,351.6 				"/>
			</g>
			<polygon fill="#C0BE71" points="981.5,351.7 941.9,352 942.1,312.3 			"/>
			<polygon fill="#C0BE71" points="942.1,312.2 941.9,351.8 902.7,351.6 			"/>
			<polyline fill="#B6B36C" points="942.1,391 941.9,351.8 981.5,351.5 942.1,391 			"/>
			<polyline fill="#A7A66E" points="942.2,390.9 902.6,351.6 941.9,351.8 942.2,390.9 			"/>
			<polyline fill="#A7A66E" points="942.1,390.5 981.6,351 981.3,390.6 			"/>
			<g>
				<g>
					<g>
						<polygon fill="#CBD186" points="940.3,311.2 979.5,311.4 979.9,350.5 						"/>
					</g>
				</g>
			</g>
			<polyline fill="#EEEFAA" points="666.7,390.9 666.9,351.2 706.3,390.7 			"/>
			<polygon fill="#EEEFAA" points="745.5,351.4 705.8,351.6 706,311.9 			"/>
			<polygon fill="#EDF0BA" points="706.1,311.8 705.8,351.4 666.6,351.3 			"/>
			<polyline fill="#ECED9C" points="706,390.6 705.8,351.4 745.5,351.2 706,390.6 			"/>
			<polyline fill="#EEEFAA" points="706.1,390.6 666.6,351.3 705.8,351.4 706.1,390.6 			"/>
			<g>
				<polygon fill="#EDEE9B" points="745.5,351.6 745.2,312.4 784.9,312.1 				"/>
				<polygon fill="#ECF0B9" points="706,312.2 745.2,312.4 745.6,351.5 				"/>
			</g>
			<g>
				<polygon fill="#EDEE9B" points="666.8,351.6 666.5,312.4 706.2,312.2 				"/>
			</g>
		</g>
		<g>
			<polyline fill="#EEEFAA" points="667.6,312.4 628.4,312.2 667.9,272.8 			"/>
			<polyline fill="#EDF0BA" points="667.9,351.6 628.4,312.2 667.6,312.4 			"/>
			<polyline fill="#EDF0BA" points="667.9,351.7 628.2,351.9 628.4,312.3 667.9,351.7 			"/>
			<polyline fill="#F1F0BD" points="667.9,351.5 628.4,390.9 628.2,351.8 667.9,351.5 			"/>
			<polyline fill="#EBEFB1" points="667.7,273.1 628,273.4 628.2,233.7 667.7,273.1 			"/>
			<polyline fill="#EEEFAA" points="667.7,272.9 628.2,312.4 628,273.2 667.7,272.9 			"/>
			<polyline fill="#F9F4C9" points="667.8,273.3 628.2,234 667.5,234.1 			"/>
			<polyline fill="#EDEE9B" points="667.5,391.1 628.3,390.9 667.7,351.5 			"/>
			<polygon fill="#EDD06F" points="431.6,351.3 471.2,351.6 471,311.9 			"/>
			<polygon fill="#E8D772" points="471,311.8 471.2,351.4 510.4,351.2 			"/>
			<polygon fill="#D7D288" points="471,390.6 471.2,351.4 431.6,351.1 			"/>
			<polygon fill="#D7D288" points="510.5,351.2 471.2,351.4 470.9,390.5 			"/>
			<g>
				<polygon fill="#D7D288" points="392.3,311.9 432,312.1 431.8,272.4 				"/>
				<polygon fill="#E7D27C" points="431.8,272.3 432,311.9 471.2,311.8 				"/>
				<polygon fill="#DFDA85" points="431.8,351.1 432,311.9 392.3,311.7 				"/>
				<polygon fill="#E2D170" points="471.2,311.8 432,311.9 431.7,351.1 				"/>
			</g>
			<g>
				<polygon fill="#EEE39F" points="470.9,312 510.6,312.3 510.3,272.6 				"/>
				<polygon fill="#EEF0AF" points="510.3,272.5 510.6,312.1 549.8,311.9 				"/>
				<polygon fill="#DEE599" points="510.3,351.3 510.6,312.1 470.9,311.8 				"/>
				<polygon fill="#EEE39F" points="549.8,311.9 510.6,312.1 510.2,351.2 				"/>
			</g>
			<g>
				<polygon fill="#DEE599" points="431.8,272.7 471.4,273 471.2,233.3 				"/>
				<polygon fill="#EDED98" points="471.2,233.2 471.4,272.8 510.6,272.6 				"/>
				<polygon fill="#EEE07C" points="471.2,312 471.4,272.8 431.8,272.5 				"/>
				<polygon fill="#EDEE9B" points="510.7,272.6 471.4,272.8 471.1,312 				"/>
			</g>
			<g>
				<polygon fill="#EDEE9B" points="353,351.3 392.7,351.5 392.4,311.8 				"/>
				<polygon fill="#DEE599" points="392.4,311.7 392.7,351.3 431.8,351.2 				"/>
				<polygon fill="#D7D288" points="392.4,390.5 392.7,351.3 353,351.1 				"/>
				<polygon fill="#EDEE9B" points="431.9,351.2 392.7,351.3 392.3,390.5 				"/>
			</g>
			<g>
				<polygon fill="#D7D288" points="313.6,311.9 353.3,312.2 353.1,272.5 				"/>
				<polygon fill="#DEE599" points="353.1,272.4 353.3,312 392.5,311.8 				"/>
				<polygon fill="#DFDA85" points="353.1,351.2 353.3,312 313.6,311.7 				"/>
				<polygon fill="#EEE39F" points="392.5,311.8 353.3,312 353,351.1 				"/>
			</g>
			<g>
				<polygon fill="#DFDA85" points="353.1,272.8 392.8,273 392.5,233.3 				"/>
				<polygon fill="#E7D27C" points="392.5,233.2 392.8,272.8 432,272.6 				"/>
				<polygon fill="#D7D288" points="392.5,312 392.8,272.8 353.1,272.5 				"/>
				<polygon fill="#E7D27C" points="432,272.6 392.8,272.8 392.4,312 				"/>
			</g>
			<g>
				<polygon fill="#DDDA88" points="431.8,272.9 432,233.7 392.3,233.5 				"/>
				<polygon fill="#EDEE9B" points="471.2,233.6 432,233.7 431.6,272.9 				"/>
			</g>
			<g>
				<polygon fill="#DFDA85" points="392.3,390.6 432,390.9 431.8,351.2 				"/>
				<polygon fill="#DFDA85" points="431.7,351.1 432,390.7 471.2,390.5 				"/>
			</g>
			<g>
				<polygon fill="#DFDA85" points="313.5,390.6 353.2,390.9 353,351.2 				"/>
				<polygon opacity="0.91" fill="#D7E19D" points="352.9,351.1 353.2,390.7 392.4,390.5 				"/>
			</g>
			<g>
				<polygon fill="#D7D288" points="352.8,273 353.1,233.8 313.4,233.5 				"/>
				<polygon fill="#D7D288" points="392.3,233.6 353.1,233.8 352.7,272.9 				"/>
			</g>
			<g>
				<polygon opacity="0.91" fill="#D7E19D" points="313.6,311.7 313.9,351.3 353.1,351.1 				"/>
				<polygon fill="#D7D288" points="353.1,351.1 313.9,351.3 313.5,390.4 				"/>
			</g>
			<g>
				<g>
					<polygon fill="#DFDA85" points="313.8,233.5 314.1,273.1 353.3,272.9 					"/>
				</g>
			</g>
			<polygon fill="#EDED98" points="510.3,351.3 550,351.5 549.7,311.8 			"/>
			<polygon fill="#EDED98" points="549.7,311.7 550,351.3 589.2,351.2 			"/>
			<polygon fill="#EFE284" points="549.7,390.5 550,351.3 510.3,351.1 			"/>
			<polygon fill="#EEE39F" points="589.2,351.2 550,351.3 549.6,390.5 			"/>
			<g>
				<polygon fill="#E4EDB8" points="549.6,312 589.3,312.2 589.1,272.5 				"/>
				<polygon fill="#F1F0BD" points="589,272.4 589.3,312 628.5,311.9 				"/>
				<polygon fill="#EDF0BA" points="589.1,351.2 589.3,312 549.6,311.8 				"/>
				<polygon fill="#F6F1AC" points="628.5,311.9 589.3,312 588.9,351.2 				"/>
			</g>
			<g>
				<polygon fill="#EEEFAA" points="510.5,272.7 550.2,272.9 549.9,233.3 				"/>
				<polygon fill="#F8F3AB" points="549.9,233.1 550.2,272.8 589.4,272.6 				"/>
				<polygon fill="#EDF0BA" points="549.9,311.9 550.2,272.8 510.5,272.5 				"/>
				<polygon fill="#EDEE9B" points="589.4,272.6 550.2,272.8 549.8,311.9 				"/>
			</g>
			<g>
				<polygon fill="#EEEFAA" points="510.5,272.9 510.7,233.7 471,233.4 				"/>
				<polygon fill="#ECEFB4" points="549.9,233.5 510.7,233.7 510.4,272.9 				"/>
			</g>
			<g>
				<g>
					<g>
						<polygon fill="#D2C477" points="471,390.6 510.7,390.8 510.5,351.2 						"/>
					</g>
					<g>
						<polygon fill="#E7D27C" points="510.5,351 510.7,390.7 549.9,390.5 						"/>
					</g>
				</g>
			</g>
			<polygon fill="#F1F0BD" points="589,351.3 628.7,351.6 628.4,311.9 			"/>
			<polygon fill="#EEEFAA" points="628.4,390.6 628.7,351.4 589,351.1 			"/>
			<g>
				<polygon fill="#F8F3AB" points="589.2,272.8 628.9,273 628.6,233.3 				"/>
				<polygon fill="#EDF0BA" points="628.6,312 628.9,272.8 589.2,272.6 				"/>
			</g>
			<g>
				<polygon fill="#EDF0BA" points="589.2,272.9 589.4,233.8 549.8,233.5 				"/>
				<polygon fill="#EBEFB1" points="628.6,233.6 589.4,233.8 589.1,272.9 				"/>
			</g>
			<g>
				<polygon fill="#DEE599" points="549.8,390.7 589.4,390.9 589.2,351.2 				"/>
				<polygon fill="#DEE599" points="589.2,351.1 589.4,390.7 628.6,390.5 				"/>
			</g>
			<polyline fill="#F9F4C9" points="667.5,156 628.3,155.8 667.8,116.4 			"/>
			<polyline fill="#F9F4C9" points="667.9,195.1 628.3,155.8 667.5,156 			"/>
			<polyline fill="#F8F7CD" points="667.8,195.3 628.1,195.5 628.4,155.8 667.8,195.3 			"/>
			<polyline fill="#F4F4C6" points="667.8,195.1 628.4,234.5 628.1,195.3 667.8,195.1 			"/>
			<polyline fill="#F4F4C6" points="667.6,116.7 627.9,116.9 628.2,77.2 667.6,116.7 			"/>
			<polyline fill="#F9F4C9" points="667.6,116.5 628.2,155.9 627.9,116.7 667.6,116.5 			"/>
			<polyline fill="#EDF0BA" points="667.7,116.8 628.2,77.5 667.4,77.7 			"/>
			<polyline fill="#F9F1B9" points="667.4,234.6 628.2,234.5 667.6,195 			"/>
			<polygon fill="#EDEE9B" points="431.7,194.9 471.3,195.1 471.1,155.4 			"/>
			<polygon fill="#EDEE9B" points="471.1,155.3 471.3,194.9 510.5,194.8 			"/>
			<polygon fill="#EDED98" points="471.1,234.1 471.3,194.9 431.7,194.7 			"/>
			<polygon fill="#E3EBA3" points="510.6,194.8 471.3,194.9 471,234.1 			"/>
			<g>
				<polygon fill="#E4EDB8" points="392.4,155.4 432.1,155.7 431.9,116 				"/>
				<polygon fill="#EDF0BA" points="431.9,115.9 432.1,155.5 471.3,155.3 				"/>
				<polygon fill="#EEEFAA" points="431.9,194.7 432.1,155.5 392.4,155.2 				"/>
				<polygon fill="#EDEE9B" points="471.3,155.3 432.1,155.5 431.8,194.6 				"/>
			</g>
			<g>
				<polygon fill="#EDEE9B" points="471,155.6 510.7,155.8 510.4,116.1 				"/>
				<polygon fill="#EEEFAA" points="510.4,116 510.7,155.6 549.8,155.5 				"/>
				<polygon fill="#EEEFAA" points="510.4,194.8 510.7,155.6 471,155.4 				"/>
				<polygon fill="#EDED98" points="549.9,155.5 510.7,155.6 510.3,194.8 				"/>
			</g>
			<g>
				<polygon fill="#EEF0AF" points="431.9,116.3 471.5,116.5 471.3,76.9 				"/>
				<polygon fill="#E3EBA3" points="471.3,76.7 471.5,116.4 510.7,116.2 				"/>
				<polygon fill="#EDED98" points="471.3,155.5 471.5,116.4 431.9,116.1 				"/>
				<polygon fill="#EEF0AF" points="510.8,116.2 471.5,116.4 471.2,155.5 				"/>
			</g>
			<g>
				<polygon fill="#EEE39F" points="353.1,194.8 392.7,195.1 392.5,155.4 				"/>
				<polygon fill="#EDEE9B" points="392.5,155.3 392.7,194.9 431.9,194.7 				"/>
				<polygon fill="#EFE284" points="392.5,234.1 392.7,194.9 353.1,194.6 				"/>
				<polygon fill="#EFE284" points="432,194.7 392.7,194.9 392.4,234 				"/>
			</g>
			<g>
				<polygon fill="#E7D27C" points="313.7,155.5 353.4,155.7 353.2,116 				"/>
				<polygon fill="#EFE284" points="353.2,115.9 353.4,155.5 392.6,155.4 				"/>
				<polygon fill="#DFDA85" points="353.2,194.7 353.4,155.5 313.7,155.3 				"/>
				<polygon fill="#EDED98" points="392.6,155.4 353.4,155.5 353.1,194.7 				"/>
			</g>
			<g>
				<polygon fill="#ECEFB4" points="353.2,116.3 392.9,116.5 392.6,76.9 				"/>
				<polygon fill="#EEF0AF" points="392.6,76.8 392.9,116.4 432.1,116.2 				"/>
				<polygon fill="#E3EBA3" points="392.6,155.6 392.9,116.4 353.2,116.1 				"/>
				<polygon fill="#EDEE9B" points="432.1,116.2 392.9,116.4 392.5,155.5 				"/>
			</g>
			<g>
				<polygon fill="#EDED98" points="431.8,116.5 432.1,77.3 392.4,77 				"/>
				<polygon fill="#EDEE9B" points="471.3,77.1 432.1,77.3 431.7,116.5 				"/>
			</g>
			<g>
				<polygon fill="#DEE599" points="392.4,234.2 432.1,234.4 431.8,194.8 				"/>
				<polygon fill="#EEF0AF" points="431.8,194.6 432.1,234.3 471.3,234.1 				"/>
			</g>
			<g>
				<polygon fill="#D7D288" points="313.6,234.2 353.3,234.4 353.1,194.8 				"/>
				<polygon fill="#E8D772" points="353,194.6 353.3,234.3 392.5,234.1 				"/>
			</g>
			<g>
				<polygon fill="#E3EBA3" points="352.9,116.5 353.2,77.3 313.5,77.1 				"/>
				<polygon fill="#E4EDB8" points="392.4,77.2 353.2,77.3 352.8,116.5 				"/>
			</g>
			<g>
				<polygon fill="#E8D772" points="313.7,155.2 314,194.8 353.2,194.7 				"/>
				<polygon fill="#DDDA88" points="353.2,194.7 314,194.8 313.6,234 				"/>
			</g>
			<g>
				<polygon fill="#DDE798" points="313.9,77.1 314.2,116.7 353.4,116.5 				"/>
				<polygon fill="#DFDA85" points="353.4,116.5 314.2,116.7 313.8,155.8 				"/>
			</g>
			<polygon fill="#ECEFB4" points="510.4,194.8 550.1,195.1 549.8,155.4 			"/>
			<polygon fill="#EEEFAA" points="549.8,155.3 550.1,194.9 589.3,194.7 			"/>
			<polygon fill="#EDED98" points="549.8,234.1 550.1,194.9 510.4,194.6 			"/>
			<polygon fill="#EDED98" points="589.3,194.7 550.1,194.9 549.7,234 			"/>
			<g>
				<polygon fill="#EEF0AF" points="549.7,155.6 589.4,155.8 589.2,116.1 				"/>
				<polygon fill="#F4F4C6" points="589.1,116 589.4,155.6 628.6,155.4 				"/>
				<polygon fill="#F8F3AB" points="589.2,194.8 589.4,155.6 549.7,155.3 				"/>
				<polygon fill="#F9F4C9" points="628.6,155.4 589.4,155.6 589,194.8 				"/>
			</g>
			<g>
				<polygon fill="#EDF0BA" points="510.6,116.3 550.3,116.5 550,76.8 				"/>
				<polygon fill="#EEEFAA" points="550,76.7 550.3,116.3 589.5,116.2 				"/>
				<polygon fill="#EEF0AF" points="550,155.5 550.3,116.3 510.6,116.1 				"/>
				<polygon fill="#F8F3AB" points="589.5,116.2 550.3,116.3 549.9,155.5 				"/>
			</g>
			<g>
				<polygon fill="#E4EDB8" points="510.6,116.4 510.8,77.3 471.1,77 				"/>
				<polygon fill="#E4EDB8" points="550,77.1 510.8,77.3 510.5,116.4 				"/>
			</g>
			<g>
				<polygon fill="#E5ECAC" points="471.1,234.2 510.8,234.4 510.6,194.7 				"/>
				<polygon fill="#EEF0AF" points="510.6,194.6 510.8,234.2 550,234 				"/>
			</g>
			<polygon fill="#F8F3AB" points="589.1,194.9 628.8,195.1 628.5,155.4 			"/>
			<polygon fill="#F6F1AC" points="628.5,234.1 628.8,194.9 589.1,194.7 			"/>
			<g>
				<polygon fill="#F8F3AB" points="589.3,116.3 629,116.6 628.7,76.9 				"/>
				<polygon fill="#F9F4C9" points="628.7,155.6 629,116.4 589.3,116.1 				"/>
			</g>
			<g>
				<polygon fill="#F4F4C6" points="589.3,116.5 589.5,77.3 549.8,77.1 				"/>
				<polygon fill="#F8F3AB" points="628.7,77.1 589.5,77.3 589.2,116.5 				"/>
			</g>
			<g>
				<polygon fill="#EEEFAA" points="549.8,234.2 589.5,234.5 589.3,194.8 				"/>
				<polygon fill="#EDF0BA" points="589.3,194.7 589.5,234.3 628.7,234.1 				"/>
			</g>
			<line fill="#EBEFB1" x1="627.9" y1="-0.3" x2="667.3" y2="39.2"/>
			<polyline fill="#EEEFAA" points="667.1,38.8 627.5,38.6 627.7,78.3 667.1,38.8 			"/>
			<line fill="#F9F1B9" x1="667.1" y1="39" x2="627.7" y2="-0.4"/>
			<polyline fill="#F2E9B0" points="627.7,-0.4 627.5,38.8 667.1,39 			"/>
			<polyline fill="#EEF0AF" points="667.3,38.7 627.7,78 666.9,77.8 			"/>
			<polyline fill="#F2E9B0" points="431.7,-0.1 431.4,39.5 392,0.1 			"/>
			<polyline fill="#EDEE9B" points="470.8,0.2 431.4,39.7 431.7,0 			"/>
			<polyline fill="#F2E9B0" points="510.2,-0.3 510,39.4 470.5,-0.1 			"/>
			<polyline fill="#EEF0AF" points="549.4,0 509.9,39.5 510.2,-0.1 			"/>
			<polygon fill="#ECF0B9" points="431.4,39.2 471.1,39 470.8,78.7 			"/>
			<polygon fill="#E3EBA3" points="470.8,78.8 471.1,39.2 510.3,39.3 			"/>
			<polyline fill="#F2E9B0" points="470.8,0 471.1,39.2 431.4,39.4 470.8,0 			"/>
			<polyline fill="#EEF0AF" points="470.7,0 510.3,39.3 471.1,39.2 470.7,0 			"/>
			<polyline fill="#EEF0AF" points="353,-0.2 352.7,39.5 313.3,0 			"/>
			<polyline fill="#F2E9B0" points="392.2,0.2 352.7,39.6 353,0 			"/>
			<polygon opacity="0.91" fill="#D7E19D" points="352.7,39.2 392.4,39 392.2,78.6 			"/>
			<polygon fill="#E4EDB8" points="392.2,78.8 392.4,39.2 431.6,39.3 			"/>
			<polyline fill="#ECEFB4" points="392.2,0 392.4,39.2 352.7,39.4 392.2,0 			"/>
			<polyline fill="#EDEE9B" points="392.1,0 431.6,39.3 392.4,39.2 392.1,0 			"/>
			<g>
				<polygon fill="#EEF0AF" points="431.4,39 431.6,78.2 391.9,78.5 				"/>
				<polygon fill="#EDEE9B" points="470.8,78.4 431.6,78.2 431.3,39.1 				"/>
			</g>
			<g>
				<polygon opacity="0.91" fill="#D7E19D" points="352.5,39 352.7,78.2 313,78.4 				"/>
				<polygon fill="#E3EBA3" points="391.9,78.3 352.7,78.2 352.4,39 				"/>
			</g>
			<polygon fill="#DEE599" points="313.5,78.5 313.7,38.8 352.9,39 			"/>
			<polyline fill="#DDE798" points="313.4,-0.3 353,39 313.7,38.8 313.4,-0.3 			"/>
			<polyline fill="#F2E9B0" points="588.9,-0.3 588.7,39.4 549.3,0 			"/>
			<polyline fill="#F2E9B0" points="628.1,0.1 588.7,39.5 588.9,-0.1 			"/>
			<polygon fill="#ECF0B9" points="510.1,39.2 549.8,39 549.6,78.7 			"/>
			<polygon fill="#EDF0BA" points="549.6,78.8 549.8,39.2 589,39.4 			"/>
			<polyline fill="#EEF0AF" points="549.6,0 549.8,39.2 510.1,39.5 549.6,0 			"/>
			<polyline fill="#EDEE9B" points="549.5,0 589,39.4 549.8,39.2 549.5,0 			"/>
			<g>
				<polygon fill="#EDEE9B" points="510.1,39.1 510.4,78.3 470.7,78.5 				"/>
				<polygon fill="#ECF0B9" points="549.6,78.4 510.4,78.3 510,39.1 				"/>
			</g>
			<polygon fill="#EBEFB1" points="588.8,39.2 628.5,39 628.3,78.6 			"/>
			<polyline fill="#EDF0BA" points="628.3,0 628.5,39.1 588.8,39.4 628.3,0 			"/>
			<g>
				<polygon fill="#F8F3AB" points="588.8,39 589.1,78.2 549.4,78.5 				"/>
				<polygon fill="#F9F1B9" points="628.3,78.4 589.1,78.2 588.7,39 				"/>
			</g>
		</g>
	</g>
	<line fill="#D7BC6F" x1="1020.7" y1="156.5" x2="1021.1" y2="117.3"/>
	<g>
		<polygon fill="#B99958" points="1018.7,76.7 979,76.4 979.2,116.1 		"/>
		<polygon fill="#87674F" points="979.2,38.9 979,78.1 1018.7,78.4 		"/>
		<polygon fill="#E0BE61" points="1018.4,154.8 978.8,154.6 979,194.3 		"/>
		<polygon fill="#B99958" points="979,115.6 978.8,154.8 1018.4,155 		"/>
		<g>
			<polygon fill="#D1AA50" points="1018.5,155.5 1018.2,115.9 979,116.1 			"/>
			<polygon fill="#B79052" points="979,116.1 1018.2,115.9 1018.6,76.8 			"/>
		</g>
		<g>
			<polygon fill="#8B705E" points="1018.6,78.2 1018.4,38.6 979.2,38.8 			"/>
		</g>
		<polygon fill="#D0B25C" points="1018.6,233.1 978.9,232.9 979.1,272.5 		"/>
		<polygon fill="#D1AA50" points="979.1,193.9 978.9,233 1018.6,233.3 		"/>
		<polygon fill="#D2C477" points="1018.4,311.3 978.7,311 978.9,350.7 		"/>
		<polygon fill="#D9C068" points="979.5,272.5 979.2,311.7 1018.9,312 		"/>
		<g>
			<polygon fill="#C7C574" points="1018.4,312 1018.1,272.4 978.9,272.5 			"/>
			<polygon fill="#D9C068" points="978.9,272.5 1018.1,272.4 1018.5,233.2 			"/>
		</g>
		<g>
			<polygon fill="#D0B25C" points="1018.5,233.1 1018.3,193.5 979.1,193.7 			"/>
		</g>
		<g>
			<polygon fill="#C0BE71" points="978.7,350.6 1017.9,350.4 1018.2,311.3 			"/>
		</g>
		<polygon fill="#C0BE71" points="1017.9,389.7 978.2,389.9 978.5,350.3 		"/>
		<polyline fill="#B6B36C" points="978.4,428.4 978.2,389.2 1017.8,388.9 978.4,428.4 		"/>
		<polyline fill="#A7A66E" points="978.5,428.5 1017.9,389 1017.7,428.6 		"/>
		<g>
			<g>
				<g>
					<polygon fill="#AD9851" points="978.2,350.4 1017.4,350.6 1017.8,389.7 					"/>
				</g>
			</g>
		</g>
		<g>
			<polygon fill="#D7BC6F" points="979,194.1 1018.2,194 1018.5,154.8 			"/>
		</g>
	</g>
	<g>
		<polyline fill="#D2C477" points="863.3,428.6 863.6,389 903,428.4 		"/>
		<polyline fill="#C0BE71" points="824.2,428.3 863.6,388.8 863.3,428.5 		"/>
		<polyline fill="#D7D696" points="784.8,428.8 785,389.1 824.5,428.6 		"/>
		<polyline fill="#DDE798" points="745.6,428.4 785.1,389 784.8,428.6 		"/>
		<polyline fill="#DDDA88" points="824.2,428.5 823.9,389.3 863.6,389.1 824.2,428.5 		"/>
		<polyline fill="#DDE798" points="824.3,428.5 784.7,389.2 823.9,389.3 824.3,428.5 		"/>
		<polyline fill="#C0BE71" points="940.5,428.5 940.8,388.8 980.2,428.2 		"/>
		<polyline fill="#D2C477" points="902.7,428.9 942.1,389.4 941.8,429 		"/>
		<polyline fill="#B6B36C" points="902.8,428.5 902.6,389.3 942.3,389.1 902.8,428.5 		"/>
		<polyline fill="#AC9F5F" points="903,428.5 863.4,389.2 902.6,389.3 903,428.5 		"/>
		<polyline fill="#A7A66E" points="978.5,428.9 938.9,389.6 978.1,389.7 978.5,428.9 		"/>
		<polyline fill="#EEEFAA" points="706.1,428.8 706.3,389.1 745.7,428.5 		"/>
		<polyline fill="#ECED9C" points="745.4,428.5 745.2,389.3 784.9,389 745.4,428.5 		"/>
		<polyline fill="#EEEFAA" points="745.5,428.4 706,389.1 745.2,389.3 745.5,428.4 		"/>
		<polyline fill="#EEEFAA" points="707.3,389.3 667.8,428.8 667.6,389.6 707.3,389.3 		"/>
		<line fill="#EDEE9B" x1="667.7" y1="428.8" x2="707.1" y2="389.3"/>
		<polygon fill="#DFDA85" points="510.4,428.4 510.6,389.2 471,389 		"/>
		<polygon fill="#D2C477" points="549.9,389.1 510.6,389.2 510.3,428.4 		"/>
		<polygon fill="#EEE39F" points="431.8,428.4 432.1,389.2 392.4,388.9 		"/>
		<polygon fill="#D7D288" points="471.3,389 432.1,389.2 431.7,428.3 		"/>
		<g>
			<polygon fill="#DFDA85" points="431.7,428.5 471.4,428.7 471.2,389 			"/>
			<polygon fill="#DEE599" points="471.1,388.9 471.4,428.5 510.6,428.4 			"/>
		</g>
		<g>
			<polygon fill="#DFDA85" points="352.9,428.5 392.6,428.7 392.4,389 			"/>
			<polygon opacity="0.91" fill="#D7E19D" points="392.3,388.9 392.6,428.5 431.8,428.4 			"/>
		</g>
		<polygon fill="#EEE39F" points="392.5,389 353.3,389.1 352.9,428.3 		"/>
		<polygon fill="#EFE284" points="589.1,428.4 589.4,389.2 549.7,388.9 		"/>
		<polygon fill="#EEE39F" points="628.6,389 589.4,389.2 589,428.3 		"/>
		<g>
			<g>
				<g>
					<polygon fill="#D9C068" points="510.4,428.5 550.1,428.7 549.9,389 					"/>
				</g>
				<g>
					<polygon fill="#D1AA50" points="549.9,388.9 550.1,428.5 589.3,428.3 					"/>
				</g>
			</g>
		</g>
		<polygon fill="#EEEFAA" points="667.8,428.4 668.1,389.2 628.4,389 		"/>
		<line fill="#DEE599" x1="628.6" y1="389.1" x2="589.2" y2="428.5"/>
		<polygon fill="#DEE599" points="628.6,388.9 628.8,428.6 668,428.4 		"/>
	</g>
	<polyline fill="#EDEE9B" points="706.2,428.9 667.1,428.7 706.5,389.3 	"/>
	<polygon fill="#EDEE9B" points="313.8,428.4 353.5,428.6 353.3,388.9 	"/>
	<polygon fill="#EEE39F" points="353.4,389 314.2,389.1 313.9,428.3 	"/>
	<polyline fill="#EDEE9B" points="628.6,428.4 589.4,428.3 628.9,388.8 	"/>
</g>
<g>
	<g>
		<g>
			<g>
				<polygon fill="#EDD06F" points="1170.2,78.1 1209.9,77.9 1209.6,117.6 				"/>
				<polygon fill="#D9C068" points="1209.6,38.9 1209.9,78.1 1170.2,78.3 				"/>
			</g>
			<g>
				<polygon fill="#DAC052" points="1130.8,38.7 1170.5,38.5 1170.2,78.2 				"/>
				<polygon fill="#E2D170" points="1170.2,78.3 1170.5,38.7 1209.7,38.8 				"/>
				<polygon fill="#D0B25C" points="1170.2,-0.5 1170.5,38.7 1130.8,38.9 				"/>
				<polygon fill="#BC9C55" points="1209.7,38.8 1170.5,38.7 1170.1,-0.5 				"/>
			</g>
			<g>
				<polygon fill="#BC9C55" points="1091.5,78.1 1131.2,77.8 1130.9,117.5 				"/>
				<polygon fill="#E0BE61" points="1130.9,117.6 1131.2,78 1170.3,78.2 				"/>
				<polygon fill="#D1AA50" points="1130.9,38.8 1131.2,78 1091.5,78.3 				"/>
				<polygon fill="#D0B25C" points="1170.4,78.2 1131.2,78 1130.8,38.9 				"/>
			</g>
			<g>
				<polygon fill="#E2D170" points="1130.9,117.2 1170.6,117 1170.4,156.7 				"/>
				<polygon fill="#D9C068" points="1170.3,156.8 1170.6,117.2 1209.8,117.3 				"/>
				<polygon fill="#EDD06F" points="1170.4,78 1170.6,117.2 1130.9,117.4 				"/>
				<polygon fill="#E7D27C" points="1209.8,117.3 1170.6,117.2 1170.2,78 				"/>
			</g>
			<g>
				<polygon fill="#F2E9A7" points="1209.6,117.1 1209.8,156.2 1170.1,156.5 				"/>
			</g>
			<g>
				<polygon fill="#D9C068" points="1170.1,-0.7 1209.8,-0.9 1209.6,38.8 				"/>
			</g>
			<g>
				<polygon fill="#AE8640" points="1091.4,-0.7 1131,-0.9 1130.8,38.8 				"/>
				<polygon fill="#BC9C55" points="1130.8,38.9 1131,-0.7 1170.2,-0.5 				"/>
			</g>
			<g>
				<polygon fill="#D0B25C" points="1130.7,117 1130.9,156.2 1091.2,156.5 				"/>
				<polygon fill="#D9C068" points="1170.1,156.4 1130.9,156.2 1130.6,117 				"/>
			</g>
			<g>
				<polygon fill="#B99958" points="1052,38.8 1091.7,38.5 1091.5,78.2 				"/>
				<polygon fill="#AE8640" points="1091.4,78.3 1091.7,38.7 1130.9,38.9 				"/>
				<polygon fill="#87674F" points="1091.5,-0.5 1091.7,38.7 1052,39 				"/>
				<polygon fill="#B79052" points="1130.9,38.9 1091.7,38.7 1091.4,-0.4 				"/>
			</g>
			<g>
				<polygon fill="#E0BE61" points="1052.3,116.9 1091.9,116.7 1091.7,156.4 				"/>
				<polygon fill="#DCC15F" points="1091.7,156.5 1091.9,116.9 1131.1,117 				"/>
				<polygon fill="#B99958" points="1091.7,77.7 1091.9,116.9 1052.3,117.1 				"/>
				<polygon fill="#AE8640" points="1131.2,117 1091.9,116.9 1091.6,77.7 				"/>
			</g>
			<g>
				<polygon fill="#D1AA50" points="1052.2,117.6 1052.5,78 1091.7,78.2 				"/>
				<polygon fill="#B79052" points="1094.7,78.2 1055.5,78 1055.1,38.9 				"/>
			</g>
			<g>
				<polygon fill="#8B705E" points="1052.1,38.8 1052.3,-0.8 1091.5,-0.7 				"/>
			</g>
			<g>
				<polygon fill="#D7BC6F" points="1091.9,156.3 1052.7,156.1 1052.4,116.9 				"/>
			</g>
			<g>
				<polygon fill="#E3EBA3" points="1170.3,234.6 1210,234.3 1209.7,274 				"/>
				<polygon fill="#EBEFB1" points="1209.7,195.3 1210,234.5 1170.3,234.8 				"/>
			</g>
			<g>
				<polygon fill="#E9E393" points="1130.9,195.2 1170.6,194.9 1170.3,234.6 				"/>
				<polygon fill="#F7E7A5" points="1170.3,234.7 1170.6,195.1 1209.8,195.3 				"/>
				<polygon fill="#E9E393" points="1170.3,155.9 1170.6,195.1 1130.9,195.4 				"/>
				<polygon fill="#F2E9A7" points="1209.8,195.3 1170.6,195.1 1170.2,155.9 				"/>
			</g>
			<g>
				<polygon fill="#AC9F5F" points="1091.6,234.5 1131.2,234.3 1131,274 				"/>
				<polygon fill="#83682C" points="1131,274.1 1131.2,234.5 1170.4,234.6 				"/>
				<polygon fill="#D1AA50" points="1131,195.3 1131.2,234.5 1091.6,234.7 				"/>
				<polygon fill="#D0AA4E" points="1170.5,234.6 1131.2,234.5 1130.9,195.3 				"/>
			</g>
			<g>
				<polygon fill="#DEE599" points="1131,273.7 1170.7,273.4 1170.5,313.1 				"/>
				<polygon fill="#E6ECAD" points="1170.4,313.2 1170.7,273.6 1209.9,273.8 				"/>
				<polygon fill="#DEE599" points="1170.5,234.4 1170.7,273.6 1131,273.9 				"/>
				<polygon fill="#DBDE96" points="1209.9,273.8 1170.7,273.6 1170.3,234.5 				"/>
			</g>
			<g>
				<polygon fill="#E3EBA3" points="1209.7,273.5 1209.9,312.7 1170.2,312.9 				"/>
			</g>
			<g>
				<polygon fill="#EBEFB1" points="1170.2,155.8 1209.9,155.5 1209.7,195.2 				"/>
			</g>
			<g>
				<polygon fill="#DAC052" points="1091.4,155.8 1131.1,155.5 1130.9,195.2 				"/>
				<polygon fill="#E2D170" points="1130.9,195.3 1131.1,155.7 1170.3,155.9 				"/>
			</g>
			<g>
				<polygon fill="#D0AA4E" points="1130.8,273.5 1131,312.6 1091.3,312.9 				"/>
				<polygon fill="#AC9F5F" points="1170.2,312.8 1131,312.6 1130.6,273.5 				"/>
			</g>
			<g>
				<polygon fill="#D9C068" points="1052.1,195.2 1091.8,195 1091.6,234.6 				"/>
				<polygon fill="#D9C068" points="1091.5,234.8 1091.8,195.1 1131,195.3 				"/>
				<polygon fill="#D1AA50" points="1091.6,156 1091.8,195.1 1052.1,195.4 				"/>
				<polygon fill="#D9C068" points="1131,195.3 1091.8,195.1 1091.4,156 				"/>
			</g>
			<g>
				<polygon fill="#B6B36C" points="1052.4,273.4 1092,273.1 1091.8,312.8 				"/>
				<polygon fill="#B9A754" points="1091.8,312.9 1092,273.3 1131.2,273.5 				"/>
				<polygon fill="#AC9F5F" points="1091.8,234.1 1092,273.3 1052.4,273.6 				"/>
				<polygon fill="#D0AA4E" points="1131.2,273.5 1092,273.3 1091.7,234.2 				"/>
			</g>
			<g>
				<polygon fill="#C7C574" points="1052.3,274.1 1052.6,234.5 1091.8,234.6 				"/>
				<polygon fill="#D9C068" points="1091.8,234.6 1052.6,234.5 1052.2,195.3 				"/>
			</g>
			<g>
				<polygon fill="#D0B25C" points="1052.2,195.2 1052.4,155.6 1091.6,155.8 				"/>
			</g>
			<g>
				<polygon fill="#AC9F5F" points="1092,312.7 1052.8,312.5 1052.5,273.4 				"/>
			</g>
		</g>
		<g>
			<polyline fill="#DBDE96" points="1210.4,390.9 1210.2,351.2 1170.7,390.6 			"/>
			<polyline fill="#C0BE71" points="1131.7,390.9 1131.5,351.2 1092,390.7 			"/>
			<polyline fill="#D2C477" points="1170.9,390.6 1131.4,351.1 1131.7,390.7 			"/>
			<polygon fill="#DDDA88" points="1131.5,351.5 1171.2,351.7 1170.9,312.1 			"/>
			<polygon fill="#CBD186" points="1170.9,311.9 1171.2,351.6 1210.3,351.4 			"/>
			<polyline fill="#CBD186" points="1170.9,390.7 1171.2,351.6 1131.5,351.3 1170.9,390.7 			"/>
			<polyline fill="#D7D696" points="1170.8,390.7 1210.4,351.4 1171.2,351.6 1170.8,390.7 			"/>
			<g>
				<polygon fill="#DDDA88" points="1210.1,351.7 1210.4,312.5 1170.7,312.2 				"/>
			</g>
			<g>
				<polygon fill="#D2C477" points="1131.2,351.7 1131.5,312.5 1091.8,312.3 				"/>
				<polygon fill="#D7D288" points="1170.7,312.4 1131.5,312.5 1131.1,351.7 				"/>
			</g>
			<polygon fill="#C0BE71" points="1052.8,351.8 1092.5,352 1092.3,312.4 			"/>
			<polygon fill="#C0BE71" points="1092.2,312.2 1092.5,351.9 1131.7,351.7 			"/>
			<polyline fill="#B6B36C" points="1092.3,391.1 1092.5,351.9 1052.8,351.6 1092.3,391.1 			"/>
			<polyline fill="#A7A66E" points="1092.1,391 1131.7,351.7 1092.5,351.9 1092.1,391 			"/>
			<polyline fill="#A7A66E" points="1092.2,390.6 1052.8,351.1 1053,390.7 			"/>
			<g>
				<polygon fill="#B6B36C" points="1094,311.3 1054.8,311.5 1054.5,350.6 				"/>
			</g>
		</g>
	</g>
	<line fill="#D7BC6F" x1="1013.6" y1="156.5" x2="1013.3" y2="117.4"/>
	<g>
		<polygon fill="#B99958" points="1015.7,76.7 1055.4,76.5 1055.1,116.2 		"/>
		<polygon fill="#87674F" points="1055.1,39 1055.4,78.2 1015.7,78.5 		"/>
		<polygon fill="#E0BE61" points="1015.9,154.9 1055.6,154.7 1055.4,194.4 		"/>
		<polygon fill="#B99958" points="1055.4,115.7 1055.6,154.9 1015.9,155.1 		"/>
		<g>
			<polygon fill="#D1AA50" points="1015.9,155.6 1016.1,116 1055.3,116.2 			"/>
			<polygon fill="#B79052" points="1055.4,116.2 1016.1,116 1015.8,76.8 			"/>
		</g>
		<g>
			<polygon fill="#8B705E" points="1015.7,78.3 1016,38.7 1055.2,38.8 			"/>
		</g>
		<polygon fill="#D0B25C" points="1015.8,233.2 1055.4,232.9 1055.2,272.6 		"/>
		<polygon fill="#D1AA50" points="1055.2,193.9 1055.4,233.1 1015.8,233.4 		"/>
		<polygon fill="#B6B36C" points="1016,311.3 1055.7,311.1 1055.4,350.8 		"/>
		<polygon fill="#AC9F5F" points="1055.4,272.1 1055.7,311.3 1016,311.6 		"/>
		<g>
			<polygon fill="#C7C574" points="1016,312.1 1016.2,272.4 1055.4,272.6 			"/>
			<polygon fill="#D9C068" points="1055.4,272.6 1016.2,272.4 1015.9,233.3 			"/>
		</g>
		<g>
			<polygon fill="#D0B25C" points="1015.8,233.2 1016.1,193.6 1055.3,193.8 			"/>
		</g>
		<g>
			<polygon fill="#C0BE71" points="1055.7,350.7 1016.5,350.5 1016.1,311.4 			"/>
		</g>
		<polygon fill="#C0BE71" points="1016.5,389.8 1056.1,390 1055.9,350.3 		"/>
		<polyline fill="#B6B36C" points="1056,428.4 1056.2,389.3 1016.5,389 1056,428.4 		"/>
		<polyline fill="#A7A66E" points="1055.9,428.5 1016.4,389.1 1016.7,428.7 		"/>
		<g>
			<g>
				<g>
					<polygon fill="#AD9851" points="1056.1,350.5 1016.9,350.6 1016.6,389.8 					"/>
				</g>
			</g>
		</g>
		<g>
			<polygon fill="#D7BC6F" points="1055.4,194.2 1016.2,194 1015.8,154.9 			"/>
		</g>
	</g>
	<g>
		<polyline fill="#D7D288" points="1171,428.7 1170.8,389 1131.3,428.5 		"/>
		<polyline fill="#D3DD8D" points="1210.2,428.4 1170.7,388.9 1171,428.5 		"/>
		<polyline fill="#DDDA88" points="1210.2,428.6 1210.4,389.4 1170.7,389.2 1210.2,428.6 		"/>
		<polyline fill="#C0BE71" points="1093.8,428.6 1093.6,388.9 1054.1,428.3 		"/>
		<polyline fill="#D2C477" points="1131.7,429 1092.3,389.5 1092.5,429.1 		"/>
		<polyline fill="#B6B36C" points="1131.5,428.6 1131.8,389.4 1092.1,389.2 1131.5,428.6 		"/>
		<polyline fill="#C1AF5B" points="1131.4,428.6 1171,389.2 1131.8,389.4 1131.4,428.6 		"/>
		<polyline fill="#A7A66E" points="1055.9,429 1095.4,389.6 1056.2,389.8 1055.9,429 		"/>
	</g>
</g>
<g>
	<g>
		<g>
			<g>
				<polygon fill="#83682C" points="1093.7,0.2 1054.6,0.4 1054.8,39.1 				"/>
				<polygon fill="#87674F" points="1054.8,39.2 1054.6,0.4 1015.9,0.1 				"/>
			</g>
			<g>
				<polygon fill="#87674F" points="1054.4,37.5 1093.1,37.7 1093.4,-1.5 				"/>
				<polygon fill="#AE8640" points="1093.3,76.5 1093.1,37.7 1054.4,37.3 				"/>
			</g>
			<polyline fill="#D0AA4E" points="1168.9,271.2 1129.7,271.4 1168.7,310.4 			"/>
			<polyline fill="#A08348" points="1169.7,232.5 1130.7,271.4 1169.8,271.2 			"/>
			<polyline fill="#BFAE59" points="1170.2,193.6 1131,193.8 1170,232.8 			"/>
			<polyline fill="#CAA35B" points="1169.8,154.9 1130.9,193.8 1170,193.6 			"/>
			<polyline fill="#B9A754" points="1170.1,349 1130.9,349.2 1169.8,388.2 			"/>
			<polyline fill="#A69146" points="1169.7,310.2 1130.8,349.2 1169.9,349 			"/>
			<polyline fill="#B9A754" points="1169.9,310.2 1131.2,310 1130.9,349.2 1169.9,310.2 			"/>
			<line fill="#DECA66" x1="1131.2" y1="310" x2="1169.9" y2="310.3"/>
			<line fill="#DECA66" x1="1169.9" y1="310.3" x2="1131" y2="271.2"/>
			<polyline fill="#AC7F3C" points="1170.2,115.8 1131,116 1169.9,155 			"/>
			<polyline fill="#8A6336" points="1169.8,77.1 1130.8,116.1 1170,115.8 			"/>
			<polyline fill="#CAA046" points="1169.9,154.7 1131.2,154.4 1130.9,193.7 1169.9,154.7 			"/>
			<polyline fill="#CAA35B" points="1169.8,154.8 1131,115.7 1131.2,154.4 1169.8,154.8 			"/>
			<polygon fill="#D2B051" points="1131.2,115.9 1131.4,76.7 1092.2,76.9 			"/>
			<polyline fill="#AC7F3C" points="1169.9,76.9 1131.2,76.7 1131,115.9 1169.9,76.9 			"/>
			<polyline fill="#2F231E" points="1169.8,37.1 1130.6,36.9 1169.6,-2.1 			"/>
			<polygon fill="#5C4024" points="1091.7,-0.3 1130.8,0 1130.6,38.7 			"/>
			<polyline fill="#2F231E" points="1169.5,-0.4 1130.6,38.7 1130.8,0 1169.5,-0.4 			"/>
			<polygon fill="#8E6A36" points="1130.8,38.5 1131,77.7 1091.8,77.5 			"/>
			<polyline fill="#8E6A36" points="1169.6,77.5 1130.9,77.7 1130.6,38.5 1169.6,77.5 			"/>
			<g>
				<polygon fill="#997846" points="1131,38.5 1092.3,38.7 1092,-0.5 				"/>
				<polygon fill="#AC7F3C" points="1093.6,76 1093.8,37.2 1132.4,36.9 				"/>
			</g>
			<polyline fill="#5C4024" points="1169.5,77.3 1129,36.9 1169.6,37.1 			"/>
		</g>
		<g>
			<polyline fill="#83682C" points="1168.9,271.1 1208.1,271.4 1169.2,310.3 			"/>
			<polyline fill="#4C3815" points="1169.5,232.8 1208.5,271.8 1169.3,271.5 			"/>
			<polyline fill="#CAA45A" points="1169,193.6 1208.2,193.8 1169.2,232.8 			"/>
			<polyline fill="#C39744" points="1169.5,154.9 1208.5,193.8 1169.3,193.6 			"/>
			<polyline fill="#80662A" points="1169.1,232.7 1207.8,232.4 1208.1,271.6 1169.1,232.7 			"/>
			<polyline fill="#A57F3D" points="1169.1,232.8 1208,193.7 1207.8,232.4 1169.1,232.8 			"/>
			<polyline fill="#83682C" points="1169.1,348.6 1208.3,348.8 1169.3,387.8 			"/>
			<polyline fill="#75502B" points="1169.3,310.1 1208.3,349.1 1169.1,348.8 			"/>
			<polyline fill="#8E6A36" points="1168.9,310.2 1207.6,310 1207.9,349.2 1168.9,310.2 			"/>
			<polyline fill="#5D4327" points="1169.1,310.3 1208,271.2 1207.8,309.9 1169.1,310.3 			"/>
			<polyline fill="#5D4327" points="1169,387.7 1207.8,348.6 1207.7,387.3 1169,387.7 			"/>
			<polyline fill="#75502B" points="1169,115.6 1208.2,115.8 1169.2,154.8 			"/>
			<polyline fill="#281510" points="1169.2,77 1208.2,116 1169,115.7 			"/>
			<polyline fill="#8A6336" points="1169.1,154.9 1207.8,154.6 1208.1,193.8 1169.1,154.9 			"/>
			<polyline fill="#583F27" points="1169.2,154.9 1208,115.8 1207.8,154.6 1169.2,154.9 			"/>
			<polyline fill="#2F231E" points="1169.3,77.2 1208,77 1208.3,116.2 1169.3,77.2 			"/>
			<polyline fill="#191616" points="1169.4,38.6 1208.6,38.4 1169.6,-0.6 			"/>
			<polyline fill="#191616" points="1169.4,77.7 1210.3,36.8 1169.2,37 			"/>
			<polyline fill="#2F231E" points="1169.7,1.2 1208.5,40.3 1208.4,1.6 1169.7,1.2 			"/>
			<polyline fill="#281510" points="1169.6,77.2 1208.3,77.5 1208.6,38.2 1169.6,77.2 			"/>
		</g>
	</g>
	<polyline fill="#B9A754" points="1169.7,427.9 1130.5,427.7 1169.4,388.7 	"/>
	<polyline fill="#83682C" points="1170,426.8 1209.2,426.6 1170.2,387.6 	"/>
	<polyline fill="#5D4327" points="1169,387.1 1207.8,426.2 1207.7,387.4 1169,387.1 	"/>
</g>
<polygon fill="#83682C" points="1018.6,-0.4 979.5,-0.1 979.7,38.6 "/>
<polygon fill="#87674F" points="979.3,38.4 1018,38.7 1018.3,-0.5 "/>
<polygon fill="#997846" points="1055.9,38 1017.2,38.2 1016.9,-1 "/>
</svg>
