<svg class="svg-header-bg" version="1.1" id="Layer_1" xmlns="http://www.w3.org/2000/svg" xmlns:xlink="http://www.w3.org/1999/xlink" x="0px" y="0px"
	 viewBox="0 0 1233.8 456" enable-background="new 0 0 1233.8 456" xml:space="preserve" width="100%" height="100%">
<g>
	<g>
		<polygon fill="#D7E198" points="274.1,46.4 320.2,46.2 320,92.3 		"/>
		<polygon fill="#DDE798" points="319.9,92.4 320.2,46.4 365.8,46.6 		"/>
		<polygon fill="#E3EBA3" points="320,0.8 320.2,46.4 274.1,46.7 		"/>
		<polygon fill="#ECED9C" points="365.8,46.6 320.2,46.4 319.8,0.9 		"/>
		<g>
			<polygon fill="#E3EBA3" points="228.6,92.3 274.7,92 274.4,138.1 			"/>
			<polygon fill="#DEE599" points="274.4,138.2 274.7,92.2 320.2,92.4 			"/>
			<polygon fill="#DFE89D" points="274.4,46.7 274.7,92.2 228.6,92.5 			"/>
			<polygon fill="#F3F1A9" points="320.2,92.4 274.7,92.2 274.3,46.7 			"/>
		</g>
		<g>
			<polygon fill="#DDE798" points="319.8,92.1 365.9,91.8 365.7,137.9 			"/>
			<polygon fill="#DBE8AA" points="365.6,138 365.9,92 411.5,92.2 			"/>
			<polygon fill="#EBF0BB" points="365.7,46.5 365.9,92 319.8,92.3 			"/>
			<polygon fill="#DBE8AA" points="411.5,92.2 365.9,92 365.5,46.5 			"/>
		</g>
		<g>
			<polygon fill="#EDEE9B" points="274.4,137.7 320.5,137.4 320.2,183.6 			"/>
			<polygon fill="#EDEFA9" points="320.2,183.7 320.5,137.7 366,137.9 			"/>
			<polygon fill="#E3EBA3" points="320.2,92.1 320.5,137.7 274.4,138 			"/>
			<polygon fill="#DBE8AA" points="366,137.9 320.5,137.7 320.1,92.2 			"/>
		</g>
		<g>
			<polygon fill="#DEE599" points="182.8,46.5 228.9,46.2 228.7,92.3 			"/>
			<polygon fill="#D7E198" points="228.6,92.5 228.9,46.4 274.5,46.6 			"/>
			<polygon fill="#D3DD8D" points="228.7,0.9 228.9,46.4 182.8,46.7 			"/>
			<polygon fill="#DDE798" points="274.5,46.6 228.9,46.4 228.5,0.9 			"/>
		</g>
		<g>
			<polygon fill="#DEE599" points="137.1,92.2 183.2,91.9 183,138 			"/>
			<polygon fill="#E3EBA3" points="182.9,138.2 183.2,92.2 228.8,92.3 			"/>
			<polygon fill="#D7E198" points="183,46.6 183.2,92.2 137.1,92.5 			"/>
			<polygon opacity="0.91" fill="#D7E19D" points="228.8,92.3 183.2,92.2 182.8,46.7 			"/>
		</g>
		<g>
			<polygon fill="#E3EBA3" points="183,137.7 229.1,137.4 228.8,183.6 			"/>
			<polygon fill="#EDEE9B" points="228.8,183.7 229.1,137.7 274.6,137.9 			"/>
			<polygon fill="#D7E198" points="228.8,92.1 229.1,137.7 183,138 			"/>
			<polygon fill="#ECED9C" points="274.6,137.9 229.1,137.7 228.7,92.2 			"/>
		</g>
		<g>
			<polygon fill="#DFE89D" points="274.4,137.5 274.6,183 228.5,183.4 			"/>
			<polygon fill="#DBE8AA" points="320.2,183.2 274.6,183 274.2,137.6 			"/>
		</g>
		<g>
			<polygon fill="#DFE89D" points="228.5,0.7 274.6,0.5 274.4,46.6 			"/>
			<polygon fill="#D3DD8D" points="274.3,46.7 274.6,0.7 320.2,0.9 			"/>
		</g>
		<g>
			<polygon fill="#DDE798" points="137,0.7 183.1,0.5 182.8,46.6 			"/>
			<polygon fill="#F5E481" points="182.8,46.7 183.1,0.7 228.6,0.9 			"/>
		</g>
		<g>
			<polygon fill="#D7E198" points="182.7,137.5 182.9,183 136.8,183.3 			"/>
			<polygon fill="#E3EBA3" points="228.5,183.2 182.9,183 182.5,137.5 			"/>
		</g>
		<g>
			<polygon fill="#DEE599" points="91.3,46.5 137.4,46.3 137.1,92.4 			"/>
			<polygon fill="#DDE798" points="137.1,92.5 137.4,46.5 182.9,46.7 			"/>
			<polygon fill="#F5E481" points="137.1,1 137.4,46.5 91.3,46.8 			"/>
			<polygon fill="#D3DD8D" points="183,46.7 137.4,46.5 137,1 			"/>
		</g>
		<g>
			<polygon fill="#DEE599" points="91.6,137.4 137.7,137.1 137.4,183.2 			"/>
			<polygon fill="#FFEC8E" points="137.4,183.3 137.7,137.3 183.2,137.5 			"/>
			<polygon fill="#E0EAA7" points="137.4,91.8 137.7,137.3 91.6,137.6 			"/>
			<polygon fill="#D3DD8D" points="183.2,137.5 137.7,137.3 137.3,91.8 			"/>
		</g>
		<g>
			<polygon fill="#F5E481" points="45.7,92.2 91.8,91.9 91.6,138 			"/>
			<polygon fill="#D7E198" points="91.5,138.2 91.8,92.2 137.4,92.3 			"/>
			<polygon fill="#DDDD8C" points="91.6,46.6 91.8,92.2 45.7,92.5 			"/>
			<polygon fill="#DDDA88" points="137.4,92.3 91.8,92.2 91.4,46.7 			"/>
		</g>
		<g>
			<polygon fill="#E8D586" points="45.5,0.6 91.6,0.3 91.4,46.4 			"/>
			<polygon fill="#F1E48D" points="91.3,46.6 91.6,0.6 137.2,0.7 			"/>
		</g>
		<g>
			<polygon fill="#F5E481" points="91.8,137.3 92.1,182.9 46,183.2 			"/>
			<polygon fill="#D7E198" points="137.7,183.1 92.1,182.9 91.7,137.4 			"/>
		</g>
		<g>
			<g>
				<g>
					<polygon fill="#D7D885" points="45.7,92.4 46,46.4 91.5,46.5 					"/>
				</g>
				<g>
					<polygon fill="#F1E48D" points="91.5,46.5 46,46.4 45.5,0.9 					"/>
				</g>
			</g>
		</g>
		<g>
			<polygon fill="#DDE798" points="45.9,183.2 46.2,137.2 91.8,137.4 			"/>
			<polygon fill="#E2D880" points="91.8,137.4 46.2,137.2 45.8,91.7 			"/>
		</g>
		<polygon fill="#DDE798" points="365.6,46.5 411.7,46.2 411.5,92.3 		"/>
		<polygon fill="#EDF0BA" points="411.4,92.4 411.7,46.4 457.3,46.6 		"/>
		<polygon fill="#F3F1A9" points="411.5,0.9 411.7,46.4 365.6,46.7 		"/>
		<polygon fill="#DDE798" points="457.3,46.6 411.7,46.4 411.3,0.9 		"/>
		<g>
			<polygon fill="#D8E7AD" points="411.3,92.1 457.4,91.8 457.2,138 			"/>
			<polygon fill="#EEEFAA" points="457.1,138.1 457.4,92.1 503,92.3 			"/>
			<polygon fill="#F8F3AB" points="457.2,46.5 457.4,92.1 411.3,92.4 			"/>
			<polygon fill="#EDF0BA" points="503,92.3 457.4,92.1 457,46.6 			"/>
		</g>
		<g>
			<polygon fill="#D8E7AD" points="365.9,137.8 412,137.5 411.7,183.6 			"/>
			<polygon fill="#DDE798" points="411.7,183.7 412,137.7 457.5,137.9 			"/>
			<polygon fill="#E6ECAD" points="411.7,92.2 412,137.7 365.9,138 			"/>
			<polygon fill="#DDE798" points="457.5,137.9 412,137.7 411.5,92.2 			"/>
		</g>
		<g>
			<polygon fill="#DDE798" points="365.9,137.6 366.1,183.1 320,183.4 			"/>
			<polygon fill="#EDEE9B" points="411.7,183.3 366.1,183.1 365.7,137.6 			"/>
		</g>
		<g>
			<polygon fill="#DDE798" points="320,0.8 366.1,0.5 365.9,46.6 			"/>
			<polygon fill="#DFE89D" points="365.8,46.8 366.1,0.7 411.7,0.9 			"/>
		</g>
		<polygon fill="#EDF0BA" points="457.1,46.4 503.2,46.1 502.9,92.2 		"/>
		<polygon fill="#DDDA88" points="502.9,0.8 503.2,46.4 457.1,46.7 		"/>
		<g>
			<polygon fill="#EBEFB1" points="457.3,137.7 503.4,137.4 503.1,183.5 			"/>
			<polygon fill="#EEEFAA" points="503.1,92.1 503.4,137.6 457.3,137.9 			"/>
		</g>
		<g>
			<polygon fill="#DDE798" points="457.3,137.5 457.6,183 411.5,183.3 			"/>
			<polygon fill="#EDF0BA" points="503.1,183.2 457.6,183 457.2,137.5 			"/>
		</g>
		<g>
			<polygon fill="#EDF0BA" points="411.5,0.7 457.6,0.4 457.3,46.6 			"/>
			<polygon fill="#E2E8AB" points="457.3,46.7 457.6,0.7 503.1,0.9 			"/>
		</g>
		<g>
			<polygon fill="#DDDA88" points="0.1,138 0.4,92 45.9,92.2 			"/>
			<polygon fill="#F5E481" points="46,92.2 0.4,92 0,46.5 			"/>
		</g>
		<polygon fill="#DDDA88" points="0.1,46.4 46.2,46.1 45.9,92.2 		"/>
		<polygon fill="#DFDA89" points="45.9,0.8 46.2,46.3 0.1,46.6 		"/>
		<g>
			<polygon fill="#DEE599" points="0.3,137.6 46.4,137.4 46.1,183.5 			"/>
			<polygon fill="#D7D885" points="46.1,92.1 46.4,137.6 0.3,137.9 			"/>
		</g>
		<g>
			<polygon opacity="0.91" fill="#DAD585" points="46.1,183.2 0.6,183 0.2,137.5 			"/>
		</g>
		<polygon fill="#EDEE9B" points="731.7,46.9 685.6,46.6 685.8,92.7 		"/>
		<polygon fill="#EDED98" points="685.9,92.8 685.6,46.8 640,47 		"/>
		<polygon fill="#ECED9C" points="685.8,1.3 685.6,46.8 731.7,47.1 		"/>
		<polygon fill="#EEF0AF" points="640,47 685.6,46.8 686,1.3 		"/>
		<g>
			<polygon fill="#D7D288" points="777.2,92.7 731.1,92.4 731.4,138.5 			"/>
			<polygon fill="#DFDA89" points="731.4,138.7 731.1,92.6 685.6,92.8 			"/>
			<polygon fill="#EDDA7F" points="731.4,47.1 731.1,92.6 777.2,92.9 			"/>
			<polygon fill="#DDE798" points="685.6,92.8 731.1,92.6 731.5,47.1 			"/>
		</g>
		<g>
			<polygon fill="#E5ECAC" points="686,92.5 639.9,92.2 640.1,138.3 			"/>
			<polygon fill="#EEF0AF" points="640.2,138.5 639.9,92.4 594.3,92.6 			"/>
			<polygon fill="#EDED98" points="640.1,46.9 639.9,92.4 686,92.7 			"/>
			<polygon fill="#DDDA88" points="594.3,92.6 639.9,92.4 640.3,46.9 			"/>
		</g>
		<g>
			<polygon fill="#D7D288" points="731.4,138.1 685.3,137.9 685.6,184 			"/>
			<polygon fill="#EDED98" points="685.6,184.1 685.3,138.1 639.8,138.3 			"/>
			<polygon fill="#D7D288" points="685.6,92.6 685.3,138.1 731.4,138.4 			"/>
			<polygon fill="#EEF0AF" points="639.8,138.3 685.3,138.1 685.7,92.6 			"/>
		</g>
		<g>
			<polygon fill="#DDDA88" points="823,46.9 776.9,46.6 777.2,92.7 			"/>
			<polygon fill="#DFDA89" points="777.2,92.9 776.9,46.9 731.4,47 			"/>
			<polygon fill="#DDE798" points="777.2,1.3 776.9,46.9 823,47.2 			"/>
			<polygon fill="#DDE798" points="731.3,47 776.9,46.9 777.3,1.4 			"/>
		</g>
		<g>
			<polygon fill="#DFDA85" points="868.7,92.6 822.6,92.4 822.8,138.5 			"/>
			<polygon fill="#DDDA88" points="822.9,138.6 822.6,92.6 777,92.8 			"/>
			<polygon fill="#D3DD8D" points="822.8,47 822.6,92.6 868.7,92.9 			"/>
			<polygon fill="#D3DD8D" points="777,92.8 822.6,92.6 823,47.1 			"/>
		</g>
		<g>
			<polygon fill="#D7D288" points="822.8,138.1 776.7,137.9 777,184 			"/>
			<polygon fill="#DFDA85" points="777,184.1 776.7,138.1 731.2,138.3 			"/>
			<polygon fill="#EDDA7F" points="777,92.5 776.7,138.1 822.8,138.4 			"/>
			<polygon fill="#DFDA89" points="731.2,138.3 776.7,138.1 777.2,92.6 			"/>
		</g>
		<g>
			<polygon fill="#DDDA88" points="731.4,137.9 731.2,183.5 777.3,183.8 			"/>
			<polygon fill="#E8D676" points="685.6,183.7 731.2,183.5 731.6,138 			"/>
		</g>
		<g>
			<polygon fill="#EDED98" points="777.3,1.2 731.2,0.9 731.4,47 			"/>
			<polygon fill="#E2E8AB" points="731.5,47.1 731.2,1.1 685.6,1.3 			"/>
		</g>
		<g>
			<polygon fill="#D3DD8D" points="868.8,1.2 822.7,0.9 823,47 			"/>
			<polygon fill="#DFDA89" points="823,47.1 822.7,1.1 777.2,1.3 			"/>
		</g>
		<g>
			<polygon fill="#DAD37F" points="823.1,137.9 822.9,183.4 869,183.7 			"/>
			<polygon fill="#DFDA85" points="777.3,183.6 822.9,183.4 823.3,137.9 			"/>
		</g>
		<g>
			<polygon fill="#DFDA89" points="914.5,47 868.4,46.7 868.7,92.8 			"/>
			<polygon opacity="0.91" fill="#D7E19D" points="868.7,92.9 868.4,46.9 822.9,47.1 			"/>
			<polygon fill="#D0CC7B" points="868.7,1.4 868.4,46.9 914.5,47.2 			"/>
			<polygon fill="#DFDA89" points="822.8,47.1 868.4,46.9 868.8,1.4 			"/>
		</g>
		<g>
			<polygon fill="#D8D486" points="914.2,137.8 868.1,137.5 868.4,183.6 			"/>
			<polygon fill="#E8D676" points="868.4,183.8 868.1,137.7 822.6,137.9 			"/>
			<polygon fill="#DFD27A" points="868.4,92.2 868.1,137.7 914.2,138 			"/>
			<polygon fill="#DAD37F" points="822.6,137.9 868.1,137.7 868.6,92.2 			"/>
		</g>
		<g>
			<polygon fill="#D0CC7B" points="960.1,92.6 914,92.4 914.2,138.5 			"/>
			<polygon fill="#D0CC7B" points="914.3,138.6 914,92.6 868.4,92.8 			"/>
			<polygon opacity="0.91" fill="#CBC364" points="914.2,47 914,92.6 960.1,92.9 			"/>
			<polygon fill="#D4D184" points="868.4,92.8 914,92.6 914.4,47.1 			"/>
		</g>
		<g>
			<polygon fill="#D0CC7B" points="960.3,1 914.2,0.8 914.4,46.9 			"/>
			<polygon fill="#DCCD89" points="914.5,47 914.2,1 868.6,1.2 			"/>
		</g>
		<g>
			<polygon fill="#EDD06B" points="914,137.8 913.7,183.3 959.8,183.6 			"/>
			<polygon fill="#D1D37E" points="868.1,183.5 913.7,183.3 914.1,137.8 			"/>
		</g>
		<g>
			<polygon fill="#CBC364" points="960.2,92.8 959.9,46.8 914.3,47 			"/>
			<polygon fill="#D0CC7B" points="914.3,47 959.9,46.8 960.3,1.3 			"/>
		</g>
		<g>
			<polygon fill="#D3B55E" points="959.9,183.6 959.6,137.6 914.1,137.8 			"/>
			<polygon fill="#D2BB59" points="914,137.8 959.6,137.6 960,92.1 			"/>
		</g>
		<polygon fill="#EDED98" points="640.2,46.9 594.1,46.6 594.4,92.7 		"/>
		<polygon fill="#EDED98" points="594.4,92.9 594.1,46.8 548.6,47 		"/>
		<polygon fill="#ECEFB4" points="594.4,1.3 594.1,46.8 640.2,47.1 		"/>
		<polygon fill="#E4EDB8" points="548.5,47 594.1,46.8 594.5,1.3 		"/>
		<g>
			<polygon fill="#E4EDB8" points="594.5,92.5 548.4,92.3 548.7,138.4 			"/>
			<polygon fill="#DDE798" points="548.7,138.5 548.4,92.5 502.9,92.7 			"/>
			<polygon fill="#EDF0BA" points="548.7,47 548.4,92.5 594.5,92.8 			"/>
			<polygon fill="#DDE798" points="502.8,92.7 548.4,92.5 548.8,47 			"/>
		</g>
		<g>
			<polygon fill="#E4EDB8" points="640,138.2 593.9,137.9 594.1,184 			"/>
			<polygon fill="#DFDA89" points="594.2,184.2 593.9,138.1 548.3,138.3 			"/>
			<polygon fill="#EDF0BA" points="594.1,92.6 593.9,138.1 640,138.4 			"/>
			<polygon fill="#DDE798" points="548.3,138.3 593.9,138.1 594.3,92.6 			"/>
		</g>
		<g>
			<polygon fill="#DDDA88" points="640,138 639.7,183.5 685.8,183.8 			"/>
			<polygon fill="#ECEFB4" points="594.1,183.7 639.7,183.5 640.1,138 			"/>
		</g>
		<g>
			<polygon fill="#EDEE9B" points="685.8,1.2 639.7,0.9 640,47 			"/>
			<polygon fill="#EDF0BA" points="640,47.2 639.7,1.1 594.2,1.3 			"/>
		</g>
		<polygon fill="#D8E7AD" points="548.7,46.8 502.6,46.6 502.9,92.7 		"/>
		<polygon fill="#EEEFAA" points="502.9,1.2 502.6,46.8 548.7,47.1 		"/>
		<g>
			<polygon fill="#D8E7AD" points="548.5,138.1 502.4,137.9 502.7,184 			"/>
			<polygon fill="#EDF0BA" points="502.7,92.5 502.4,138.1 548.5,138.4 			"/>
		</g>
		<g>
			<polygon fill="#EDF0BA" points="548.5,137.9 548.2,183.5 594.3,183.8 			"/>
			<polygon fill="#EBEFB1" points="502.7,183.6 548.2,183.5 548.7,138 			"/>
		</g>
		<g>
			<polygon fill="#E2E8AB" points="594.3,1.1 548.2,0.9 548.5,47 			"/>
			<polygon fill="#EDF0BA" points="548.5,47.1 548.2,1.1 502.7,1.3 			"/>
		</g>
		<g>
			<polygon fill="#D0CC7B" points="1005.7,138.5 1005.4,92.4 959.9,92.6 			"/>
			<polygon fill="#CBB356" points="959.8,92.6 1005.4,92.4 1005.8,46.9 			"/>
		</g>
		<polygon fill="#D3B55E" points="1005.7,46.8 959.6,46.5 959.9,92.6 		"/>
		<polygon opacity="0.91" fill="#CBC364" points="959.9,1.2 959.6,46.7 1005.7,47 		"/>
		<g>
			<polygon opacity="0.91" fill="#CBC364" points="1005.5,138.1 959.4,137.8 959.7,183.9 			"/>
			<polygon fill="#C8BE75" points="959.7,92.5 959.4,138 1005.5,138.3 			"/>
		</g>
		<g opacity="0.91">
			<polygon fill="#CBC364" points="959.7,183.6 1005.2,183.4 1005.7,137.9 			"/>
		</g>
		<g>
			<g>
				<g>
					<polygon fill="#D0CC7B" points="1005.6,47.1 1005.2,1 959.7,1.2 					"/>
				</g>
			</g>
		</g>
		<polygon fill="#EDEE9B" points="274.3,228.2 320.4,227.9 320.1,274 		"/>
		<polygon fill="#DDE798" points="320.1,274.2 320.4,228.1 365.9,228.3 		"/>
		<polygon fill="#E3EBA3" points="320.1,182.6 320.4,228.1 274.3,228.4 		"/>
		<polygon fill="#E6ECAD" points="365.9,228.3 320.4,228.1 319.9,182.6 		"/>
		<g>
			<polygon fill="#E3EBA3" points="228.7,274 274.8,273.8 274.5,319.9 			"/>
			<polygon fill="#D3DD8D" points="274.5,320 274.8,274 320.3,274.2 			"/>
			<polygon fill="#EBF0BB" points="274.5,228.4 274.8,274 228.7,274.3 			"/>
			<polygon fill="#E6ECAD" points="320.4,274.2 274.8,274 274.4,228.5 			"/>
		</g>
		<g>
			<polygon fill="#F1E48D" points="319.9,273.8 366,273.6 365.8,319.7 			"/>
			<polygon fill="#DBE8AA" points="365.7,319.8 366,273.8 411.6,274 			"/>
			<polygon fill="#EBF0BB" points="365.8,228.3 366,273.8 319.9,274.1 			"/>
			<polygon fill="#F1E48D" points="411.6,274 366,273.8 365.6,228.3 			"/>
		</g>
		<g>
			<polygon fill="#D4E496" points="274.5,319.5 320.6,319.2 320.3,365.3 			"/>
			<polygon fill="#EDEE9B" points="320.3,365.5 320.6,319.4 366.1,319.6 			"/>
			<polygon fill="#EDEE9B" points="320.3,273.9 320.6,319.4 274.5,319.7 			"/>
			<polygon fill="#DDE798" points="366.2,319.6 320.6,319.4 320.2,273.9 			"/>
		</g>
		<g>
			<polygon fill="#DFE89D" points="182.9,228.3 229,228 228.8,274.1 			"/>
			<polygon fill="#EDEE9B" points="228.7,274.2 229,228.2 274.6,228.4 			"/>
			<polygon fill="#ECED9C" points="228.8,182.7 229,228.2 182.9,228.5 			"/>
			<polygon fill="#DEE599" points="274.6,228.4 229,228.2 228.6,182.7 			"/>
		</g>
		<g>
			<polygon fill="#FFEC8E" points="137.2,274 183.3,273.7 183.1,319.8 			"/>
			<polygon fill="#DEE599" points="183,320 183.3,273.9 228.9,274.1 			"/>
			<polygon fill="#E3EBA3" points="183.1,228.4 183.3,273.9 137.2,274.2 			"/>
			<polygon opacity="0.91" fill="#D7E19D" points="228.9,274.1 183.3,273.9 182.9,228.4 			"/>
		</g>
		<g>
			<polygon fill="#DEE599" points="183.1,319.5 229.2,319.2 228.9,365.3 			"/>
			<polygon fill="#E6ECAD" points="228.9,365.5 229.2,319.4 274.7,319.6 			"/>
			<polygon fill="#F8F3AB" points="228.9,273.9 229.2,319.4 183.1,319.7 			"/>
			<polygon fill="#ECED9C" points="274.7,319.6 229.2,319.4 228.8,273.9 			"/>
		</g>
		<g>
			<polygon fill="#E3EBA3" points="274.5,319.3 274.7,364.8 228.6,365.1 			"/>
			<polygon fill="#D3DD8D" points="320.3,365 274.7,364.8 274.3,319.3 			"/>
		</g>
		<g>
			<polygon fill="#F3F1A9" points="228.6,182.5 274.7,182.2 274.5,228.3 			"/>
			<polygon fill="#EBF0BB" points="274.4,228.5 274.7,182.4 320.3,182.6 			"/>
		</g>
		<g>
			<polygon fill="#D3DD8D" points="137.1,182.5 183.2,182.2 182.9,228.3 			"/>
			<polygon fill="#DDE798" points="182.9,228.5 183.2,182.4 228.7,182.6 			"/>
		</g>
		<g>
			<polygon fill="#DDDA88" points="182.8,319.2 183.1,364.8 137,365.1 			"/>
			<polygon fill="#D3DD8D" points="228.6,365 183.1,364.8 182.6,319.3 			"/>
		</g>
		<g>
			<polygon fill="#D3DD8D" points="91.4,228.3 137.5,228 137.2,274.1 			"/>
			<polygon fill="#FFEC8E" points="137.2,274.3 137.5,228.2 183,228.4 			"/>
			<polygon fill="#ECED9C" points="137.2,182.7 137.5,228.2 91.4,228.6 			"/>
			<polygon fill="#DFE89D" points="183.1,228.4 137.5,228.2 137.1,182.8 			"/>
		</g>
		<g>
			<polygon fill="#DAD585" points="91.7,319.1 137.8,318.9 137.5,365 			"/>
			<polygon fill="#DDDA88" points="137.5,365.1 137.8,319.1 183.3,319.3 			"/>
			<polygon fill="#DDDA88" points="137.5,273.5 137.8,319.1 91.7,319.4 			"/>
			<polygon fill="#DEE599" points="183.3,319.3 137.8,319.1 137.4,273.6 			"/>
		</g>
		<g>
			<polygon fill="#DAD173" points="45.8,274 91.9,273.7 91.7,319.8 			"/>
			<polygon fill="#DAD585" points="91.6,320 91.9,273.9 137.5,274.1 			"/>
			<polygon fill="#DDDA88" points="91.7,228.4 91.9,273.9 45.8,274.2 			"/>
			<polygon fill="#E2D880" points="137.5,274.1 91.9,273.9 91.5,228.4 			"/>
		</g>
		<g>
			<polygon fill="#ECED9C" points="45.6,182.4 91.8,182.1 91.5,228.2 			"/>
			<polygon fill="#DEE599" points="91.5,228.4 91.8,182.3 137.3,182.5 			"/>
		</g>
		<g>
			<polygon fill="#E8D87E" points="91.9,319.1 92.2,364.6 46.1,364.9 			"/>
			<polygon fill="#D3DD8D" points="137.8,364.8 92.2,364.6 91.8,319.1 			"/>
		</g>
		<g>
			<polygon fill="#DAD585" points="45.8,274.2 46.1,228.1 91.6,228.3 			"/>
			<polygon fill="#D3DD8D" points="91.6,228.3 46.1,228.1 45.6,182.6 			"/>
		</g>
		<g>
			<polygon fill="#D3DD8D" points="46,365 46.3,318.9 91.9,319.1 			"/>
			<polygon fill="#E8D87E" points="91.9,319.1 46.3,318.9 45.9,273.5 			"/>
		</g>
		<polygon fill="#EBEFB1" points="365.7,228.2 411.8,228 411.6,274.1 		"/>
		<polygon fill="#EDEE9B" points="411.5,274.2 411.8,228.2 457.4,228.4 		"/>
		<polygon fill="#DDE798" points="411.6,182.7 411.8,228.2 365.7,228.5 		"/>
		<polygon fill="#EEEFAA" points="457.4,228.4 411.8,228.2 411.4,182.7 		"/>
		<g>
			<polygon fill="#EDEE9B" points="411.4,273.9 457.5,273.6 457.3,319.7 			"/>
			<polygon fill="#EBEFB1" points="457.2,319.9 457.5,273.8 503.1,274 			"/>
			<polygon opacity="0.91" fill="#D7E19D" points="457.3,228.3 457.5,273.8 411.4,274.1 			"/>
			<polygon fill="#DDE798" points="503.1,274 457.5,273.8 457.1,228.3 			"/>
		</g>
		<g>
			<polygon fill="#DBE8AA" points="366,319.5 412.1,319.3 411.8,365.4 			"/>
			<polygon fill="#DDE798" points="411.8,365.5 412.1,319.5 457.6,319.7 			"/>
			<polygon fill="#F1E48D" points="411.8,273.9 412.1,319.5 366,319.8 			"/>
			<polygon fill="#EEEFAA" points="457.6,319.7 412.1,319.5 411.7,274 			"/>
		</g>
		<g>
			<polygon fill="#ECEFB4" points="366,319.3 366.2,364.9 320.1,365.2 			"/>
			<polygon fill="#EDEE9B" points="411.8,365.1 366.2,364.9 365.8,319.4 			"/>
		</g>
		<g>
			<polygon fill="#EEEFAA" points="320.1,182.6 366.2,182.3 366,228.4 			"/>
			<polygon fill="#DBE8AA" points="365.9,228.5 366.2,182.5 411.8,182.7 			"/>
		</g>
		<polygon fill="#EDEE9B" points="457.2,228.2 503.3,227.9 503,274 		"/>
		<polygon fill="#DDE798" points="503,182.6 503.3,228.1 457.2,228.4 		"/>
		<g>
			<polygon fill="#D8E7AD" points="457.4,319.5 503.5,319.2 503.2,365.3 			"/>
			<polygon opacity="0.91" fill="#D7E19D" points="503.2,273.9 503.5,319.4 457.4,319.7 			"/>
		</g>
		<g>
			<polygon fill="#DEE599" points="457.4,319.3 457.7,364.8 411.6,365.1 			"/>
			<polygon fill="#EDED98" points="503.2,365 457.7,364.8 457.3,319.3 			"/>
		</g>
		<g>
			<polygon fill="#DDE798" points="411.6,182.5 457.7,182.2 457.4,228.3 			"/>
			<polygon fill="#EDF0BA" points="457.4,228.5 457.7,182.4 503.2,182.6 			"/>
		</g>
		<g>
			<polygon fill="#DEE599" points="0.2,319.8 0.5,273.8 46.1,274 			"/>
			<polygon fill="#DDDD8C" points="46.1,274 0.5,273.8 0.1,228.3 			"/>
		</g>
		<polygon fill="#E2D880" points="0.2,228.1 46.3,227.9 46,274 		"/>
		<polygon fill="#DDDA88" points="46,182.5 46.3,228.1 0.2,228.4 		"/>
		<g>
			<polygon fill="#DAD585" points="0.4,319.4 46.5,319.1 46.2,365.2 			"/>
			<polygon fill="#E2D880" points="46.2,273.8 46.5,319.4 0.4,319.7 			"/>
		</g>
		<g>
			<polygon opacity="0.91" fill="#E8D87E" points="46.2,364.9 0.7,364.7 0.3,319.3 			"/>
		</g>
		<g>
			<g>
				<g>
					<polygon fill="#D7D885" points="0.4,228.4 0.7,182.4 46.2,182.6 					"/>
				</g>
			</g>
		</g>
		<polygon fill="#DFDA89" points="731.6,228.6 685.5,228.4 685.7,274.5 		"/>
		<polygon fill="#DFDA89" points="685.8,274.6 685.5,228.6 639.9,228.8 		"/>
		<polygon fill="#D7D288" points="685.7,183 685.5,228.6 731.6,228.9 		"/>
		<polygon fill="#DFDA89" points="639.9,228.8 685.5,228.6 685.9,183.1 		"/>
		<g>
			<polygon fill="#DFDA89" points="777.1,274.5 731,274.2 731.3,320.3 			"/>
			<polygon fill="#DFDA89" points="731.3,320.4 731,274.4 685.5,274.6 			"/>
			<polygon fill="#DCCD89" points="731.3,228.9 731,274.4 777.1,274.7 			"/>
			<polygon fill="#DDDA88" points="685.5,274.6 731,274.4 731.4,228.9 			"/>
		</g>
		<g>
			<polygon fill="#EDEE9B" points="685.9,274.3 639.8,274 640,320.1 			"/>
			<polygon fill="#E4EDB8" points="640.1,320.2 639.8,274.2 594.2,274.4 			"/>
			<polygon fill="#EDED98" points="640,228.7 639.8,274.2 685.9,274.5 			"/>
			<polygon fill="#EDED98" points="594.2,274.4 639.8,274.2 640.2,228.7 			"/>
		</g>
		<g>
			<polygon fill="#EEF0AF" points="731.3,319.9 685.2,319.6 685.5,365.7 			"/>
			<polygon fill="#E3EBA3" points="685.5,365.9 685.2,319.9 639.7,320 			"/>
			<polygon fill="#EDED98" points="685.5,274.3 685.2,319.9 731.3,320.2 			"/>
			<polygon fill="#EEF0AF" points="639.7,320 685.2,319.9 685.6,274.4 			"/>
		</g>
		<g>
			<polygon fill="#DDDA88" points="822.9,228.7 776.8,228.4 777,274.5 			"/>
			<polygon fill="#DFDA89" points="777.1,274.7 776.8,228.6 731.2,228.8 			"/>
			<polygon fill="#D4D184" points="777,183.1 776.8,228.6 822.9,228.9 			"/>
			<polygon fill="#D3DD8D" points="731.2,228.8 776.8,228.6 777.2,183.1 			"/>
		</g>
		<g>
			<polygon fill="#D8D486" points="868.6,274.4 822.5,274.1 822.7,320.2 			"/>
			<polygon fill="#DFDA89" points="822.8,320.4 822.5,274.3 776.9,274.5 			"/>
			<polygon fill="#DCCD89" points="822.7,228.8 822.5,274.3 868.6,274.6 			"/>
			<polygon opacity="0.91" fill="#D7E19D" points="776.9,274.5 822.5,274.3 822.9,228.8 			"/>
		</g>
		<g>
			<polygon fill="#F5E481" points="822.7,319.9 776.6,319.6 776.9,365.7 			"/>
			<polygon fill="#DCCD89" points="776.9,365.9 776.6,319.8 731.1,320 			"/>
			<polygon fill="#EDDA7F" points="776.9,274.3 776.6,319.8 822.7,320.2 			"/>
			<polygon fill="#DFDA89" points="731.1,320 776.6,319.8 777,274.4 			"/>
		</g>
		<g>
			<polygon fill="#EDED98" points="731.3,319.7 731.1,365.2 777.2,365.5 			"/>
			<polygon fill="#EDEE9B" points="685.5,365.4 731.1,365.2 731.5,319.7 			"/>
		</g>
		<g>
			<polygon fill="#DFDA85" points="777.2,182.9 731.1,182.7 731.3,228.8 			"/>
			<polygon fill="#E8D676" points="731.4,228.9 731.1,182.9 685.5,183.1 			"/>
		</g>
		<g>
			<polygon fill="#E8D676" points="868.7,182.9 822.6,182.7 822.9,228.8 			"/>
			<polygon fill="#DFDA89" points="822.9,228.9 822.6,182.9 777.1,183.1 			"/>
		</g>
		<g>
			<polygon fill="#D0CC7B" points="823,319.7 822.8,365.2 868.9,365.5 			"/>
			<polygon fill="#DCCD89" points="777.2,365.4 822.8,365.2 823.2,319.7 			"/>
		</g>
		<g>
			<polygon fill="#EDD06B" points="914.4,228.7 868.3,228.5 868.6,274.6 			"/>
			<polygon fill="#DFDA89" points="868.6,274.7 868.3,228.7 822.8,228.9 			"/>
			<polygon fill="#D1D37E" points="868.6,183.1 868.3,228.7 914.4,229 			"/>
			<polygon fill="#D8D486" points="822.7,228.9 868.3,228.7 868.7,183.2 			"/>
		</g>
		<g>
			<polygon opacity="0.91" fill="#CBC364" points="914.1,319.6 868,319.3 868.3,365.4 			"/>
			<polygon fill="#D2BB59" points="868.3,365.5 868,319.5 822.5,319.7 			"/>
			<polygon opacity="0.91" fill="#CBC364" points="868.3,274 868,319.5 914.1,319.8 			"/>
			<polygon opacity="0.91" fill="#CBC364" points="822.5,319.7 868,319.5 868.4,274 			"/>
		</g>
		<g>
			<polygon opacity="0.91" fill="#CBC364" points="960,274.4 913.9,274.1 914.1,320.2 			"/>
			<polygon opacity="0.91" fill="#C1BC56" points="914.2,320.4 913.9,274.3 868.3,274.5 			"/>
			<polygon fill="#DDD580" points="914.1,228.8 913.9,274.3 960,274.6 			"/>
			<polygon fill="#EDD06B" points="868.3,274.5 913.9,274.3 914.3,228.8 			"/>
		</g>
		<g>
			<polygon fill="#D0CC7B" points="960.2,182.8 914.1,182.5 914.3,228.6 			"/>
			<polygon fill="#D8D486" points="914.4,228.8 914.1,182.7 868.5,182.9 			"/>
		</g>
		<g>
			<polygon fill="#D2BB59" points="913.9,319.5 913.6,365.1 959.7,365.4 			"/>
			<polygon opacity="0.91" fill="#CBC364" points="868,365.2 913.6,365.1 914,319.6 			"/>
		</g>
		<g>
			<polygon opacity="0.91" fill="#CBC364" points="960.1,274.6 959.8,228.5 914.2,228.7 			"/>
			<polygon fill="#DAC368" points="914.2,228.7 959.8,228.5 960.2,183 			"/>
		</g>
		<g>
			<polygon opacity="0.91" fill="#C1BC56" points="959.8,365.4 959.5,319.4 914,319.6 			"/>
			<polygon opacity="0.91" fill="#CBC364" points="913.9,319.6 959.5,319.4 959.9,273.9 			"/>
		</g>
		<polygon fill="#ECEFB4" points="640.1,228.7 594,228.4 594.2,274.5 		"/>
		<polygon fill="#DDE798" points="594.3,274.6 594,228.6 548.4,228.8 		"/>
		<polygon fill="#EDED98" points="594.2,183.1 594,228.6 640.1,228.9 		"/>
		<polygon fill="#EDED98" points="548.4,228.8 594,228.6 594.4,183.1 		"/>
		<g>
			<polygon fill="#EEF0AF" points="594.4,274.3 548.3,274 548.6,320.1 			"/>
			<polygon fill="#EDF0BA" points="548.6,320.3 548.3,274.3 502.8,274.4 			"/>
			<polygon fill="#EDEE9B" points="548.6,228.7 548.3,274.3 594.4,274.6 			"/>
			<polygon fill="#D8E7AD" points="502.7,274.4 548.3,274.3 548.7,228.8 			"/>
		</g>
		<g>
			<polygon fill="#DDE798" points="639.8,320 593.7,319.7 594,365.8 			"/>
			<polygon opacity="0.91" fill="#D7E19D" points="594,365.9 593.7,319.9 548.2,320.1 			"/>
			<polygon fill="#EEF0AF" points="594,274.4 593.7,319.9 639.8,320.2 			"/>
			<polygon fill="#E4EDB8" points="548.2,320.1 593.7,319.9 594.2,274.4 			"/>
		</g>
		<g>
			<polygon fill="#E4EDB8" points="639.9,319.8 639.6,365.3 685.7,365.6 			"/>
			<polygon fill="#E4EDB8" points="594,365.5 639.6,365.3 640,319.8 			"/>
		</g>
		<g>
			<polygon fill="#E5ECAC" points="685.7,183 639.6,182.7 639.8,228.8 			"/>
			<polygon fill="#EEF0AF" points="639.9,229 639.6,182.9 594,183.1 			"/>
		</g>
		<polygon fill="#EDF0BA" points="548.6,228.6 502.5,228.3 502.8,274.4 		"/>
		<polygon fill="#F1E48D" points="502.8,183 502.5,228.5 548.6,228.8 		"/>
		<g>
			<polygon fill="#EBEFB1" points="548.4,319.9 502.3,319.6 502.6,365.7 			"/>
			<polygon fill="#ECEFB4" points="502.6,274.3 502.3,319.8 548.4,320.1 			"/>
		</g>
		<g>
			<polygon fill="#F1E48D" points="548.4,319.7 548.1,365.2 594.2,365.5 			"/>
			<polygon fill="#DDE798" points="502.6,365.4 548.1,365.2 548.5,319.7 			"/>
		</g>
		<g>
			<polygon fill="#DDE798" points="594.2,182.9 548.1,182.6 548.4,228.7 			"/>
			<polygon fill="#EDF0BA" points="548.4,228.9 548.1,182.9 502.6,183 			"/>
		</g>
		<g>
			<polygon opacity="0.91" fill="#CBC364" points="1005.6,320.2 1005.3,274.2 959.8,274.4 			"/>
			<polygon fill="#CBC364" points="959.7,274.4 1005.3,274.2 1005.7,228.7 			"/>
		</g>
		<polygon fill="#D3B55E" points="1005.6,228.6 959.5,228.3 959.8,274.4 		"/>
		<polygon opacity="0.91" fill="#CBC364" points="959.8,183 959.5,228.5 1005.6,228.8 		"/>
		<g>
			<polygon fill="#CBAD5D" points="1005.4,319.8 959.3,319.6 959.6,365.7 			"/>
			<polygon opacity="0.91" fill="#C1BC56" points="959.6,274.2 959.3,319.8 1005.4,320.1 			"/>
		</g>
		<g>
			<g>
				<g>
					<polygon fill="#C7AC4A" points="959.6,365.4 1005.1,365.2 1005.6,319.7 					"/>
				</g>
			</g>
		</g>
		<g>
			<g>
				<g>
					<polygon fill="#DCBE5D" points="1005.4,228.8 1005.1,182.8 959.6,183 					"/>
				</g>
			</g>
		</g>
		<g>
			<polygon fill="#BA9F4F" points="1187.5,46.7 1233.6,46.4 1233.3,92.5 			"/>
			<polygon fill="#C7AC4A" points="1233.3,1.1 1233.6,46.7 1187.5,47 			"/>
		</g>
		<g>
			<polygon fill="#BA9F4F" points="1141.8,92.4 1187.9,92.2 1187.6,138.3 			"/>
			<polygon fill="#B2954B" points="1187.6,138.4 1187.9,92.4 1233.4,92.6 			"/>
			<polygon fill="#D8B558" points="1187.6,46.8 1187.9,92.4 1141.8,92.7 			"/>
			<polygon fill="#C7AC4A" points="1233.5,92.6 1187.9,92.4 1187.5,46.9 			"/>
		</g>
		<g>
			<polygon fill="#CFB247" points="1187.6,137.9 1233.7,137.7 1233.5,183.8 			"/>
			<polygon fill="#AD9851" points="1233.5,92.4 1233.7,137.9 1187.6,138.2 			"/>
		</g>
		<g>
			<polygon fill="#CBB356" points="1141.6,1 1187.7,0.7 1187.5,46.8 			"/>
			<polygon fill="#BA9F4F" points="1187.4,46.9 1187.7,0.9 1233.3,1.1 			"/>
		</g>
		<g>
			<polygon fill="#C6A457" points="1187.3,137.7 1187.6,183.2 1141.5,183.5 			"/>
			<polygon fill="#BA9F4F" points="1233.2,183.4 1187.6,183.2 1187.2,137.7 			"/>
		</g>
		<g>
			<polygon fill="#D8B558" points="1095.9,46.8 1142,46.5 1141.8,92.6 			"/>
			<polygon fill="#C6AC4E" points="1141.7,92.7 1142,46.7 1187.6,46.9 			"/>
			<polygon opacity="0.91" fill="#C1BC56" points="1141.8,1.2 1142,46.7 1095.9,47 			"/>
			<polygon fill="#C7AC4A" points="1187.6,46.9 1142,46.7 1141.6,1.2 			"/>
		</g>
		<g>
			<polygon fill="#BA9F4F" points="1096.2,137.6 1142.3,137.3 1142,183.4 			"/>
			<polygon fill="#D8B558" points="1142,183.6 1142.3,137.5 1187.8,137.7 			"/>
			<polygon fill="#D2BB59" points="1142,92 1142.3,137.5 1096.2,137.8 			"/>
			<polygon fill="#C7AC4A" points="1187.9,137.7 1142.3,137.5 1141.9,92 			"/>
		</g>
		<g>
			<polygon fill="#CBB356" points="1050.4,92.4 1096.5,92.2 1096.2,138.3 			"/>
			<polygon fill="#CBB356" points="1096.2,138.4 1096.5,92.4 1142,92.6 			"/>
			<polygon opacity="0.91" fill="#C1BC56" points="1096.2,46.8 1096.5,92.4 1050.4,92.7 			"/>
			<polygon opacity="0.91" fill="#CBC364" points="1142,92.6 1096.5,92.4 1096.1,46.9 			"/>
		</g>
		<g>
			<polygon fill="#C8BE75" points="1050.2,0.8 1096.3,0.6 1096,46.7 			"/>
			<polygon opacity="0.91" fill="#C1BC56" points="1096,46.8 1096.3,0.8 1141.8,1 			"/>
		</g>
		<g>
			<polygon fill="#D8B558" points="1096.5,137.6 1096.7,183.1 1050.6,183.4 			"/>
			<polygon fill="#CBAD5D" points="1142.3,183.3 1096.7,183.1 1096.3,137.6 			"/>
		</g>
		<g>
			<polygon fill="#D2BB59" points="1050.3,92.6 1050.6,46.6 1096.1,46.8 			"/>
			<polygon opacity="0.91" fill="#C1BC56" points="1096.2,46.8 1050.6,46.6 1050.2,1.1 			"/>
		</g>
		<g>
			<polygon fill="#CBB356" points="1050.6,183.4 1050.9,137.4 1096.4,137.6 			"/>
			<polygon opacity="0.91" fill="#C1BC56" points="1096.4,137.6 1050.9,137.4 1050.5,91.9 			"/>
		</g>
		<g>
			<polygon opacity="0.91" fill="#CBC364" points="1004.8,138.3 1005.1,92.2 1050.6,92.4 			"/>
			<polygon fill="#C8BE75" points="1050.6,92.4 1005.1,92.2 1004.6,46.7 			"/>
		</g>
		<polygon fill="#D3B55E" points="1004.7,46.6 1050.8,46.3 1050.5,92.4 		"/>
		<polygon fill="#CBB356" points="1050.5,1 1050.8,46.5 1004.7,46.8 		"/>
		<g>
			<polygon opacity="0.91" fill="#C1BC56" points="1004.9,137.9 1051,137.6 1050.8,183.7 			"/>
			<polygon opacity="0.91" fill="#CBC364" points="1050.8,92.3 1051,137.8 1004.9,138.1 			"/>
		</g>
		<g opacity="0.91">
			<polygon opacity="0.91" fill="#C1BC56" points="1050.8,183.4 1005.2,183.2 1004.8,137.7 			"/>
		</g>
		<g>
			<g>
				<g>
					<polygon fill="#D3B55E" points="1004.9,46.9 1005.2,0.8 1050.7,1 					"/>
				</g>
			</g>
		</g>
		<g>
			<polygon fill="#CFB247" points="1187.6,228.5 1233.7,228.2 1233.4,274.3 			"/>
			<polygon fill="#A0843F" points="1233.4,182.9 1233.7,228.4 1187.6,228.7 			"/>
		</g>
		<g>
			<polygon fill="#BA9F4F" points="1141.9,274.2 1188,273.9 1187.7,320 			"/>
			<polygon fill="#AF924F" points="1187.7,320.2 1188,274.1 1233.5,274.3 			"/>
			<polygon fill="#AF924F" points="1187.7,228.6 1188,274.1 1141.9,274.5 			"/>
			<polygon fill="#C6A457" points="1233.6,274.3 1188,274.1 1187.6,228.7 			"/>
		</g>
		<g>
			<polygon fill="#83723C" points="1187.7,319.7 1233.8,319.4 1233.6,365.5 			"/>
			<polygon fill="#A0843F" points="1233.6,274.1 1233.8,319.7 1187.7,320 			"/>
		</g>
		<g>
			<polygon fill="#C7AC4A" points="1141.7,182.7 1187.8,182.5 1187.6,228.6 			"/>
			<polygon fill="#D0AD55" points="1187.5,228.7 1187.8,182.7 1233.4,182.9 			"/>
		</g>
		<g>
			<g>
				<polygon fill="#B2954B" points="1187.4,319.5 1187.7,365 1141.6,365.3 				"/>
				<polygon fill="#A0843F" points="1233.3,365.2 1187.7,365 1187.3,319.5 				"/>
			</g>
		</g>
		<g>
			<polygon fill="#BA9F4F" points="1096.1,228.5 1142.2,228.3 1141.9,274.4 			"/>
			<polygon fill="#B69849" points="1141.9,274.5 1142.2,228.5 1187.7,228.7 			"/>
			<polygon fill="#C7AC4A" points="1141.9,182.9 1142.2,228.5 1096.1,228.8 			"/>
			<polygon fill="#B69849" points="1187.7,228.7 1142.2,228.5 1141.7,183 			"/>
		</g>
		<g>
			<polygon fill="#AF924F" points="1096.3,319.4 1142.4,319.1 1142.2,365.2 			"/>
			<polygon fill="#AD9851" points="1142.1,365.3 1142.4,319.3 1188,319.5 			"/>
			<polygon fill="#BA9F4F" points="1142.2,273.8 1142.4,319.3 1096.3,319.6 			"/>
			<polygon fill="#CFB247" points="1188,319.5 1142.4,319.3 1142,273.8 			"/>
		</g>
		<g>
			<polygon fill="#B69849" points="1050.5,274.2 1096.6,273.9 1096.3,320 			"/>
			<polygon fill="#C7AC4A" points="1096.3,320.2 1096.6,274.1 1142.1,274.3 			"/>
			<polygon fill="#BA9F4F" points="1096.3,228.6 1096.6,274.1 1050.5,274.5 			"/>
			<polygon fill="#C7AC4A" points="1142.2,274.3 1096.6,274.1 1096.2,228.7 			"/>
		</g>
		<g>
			<polygon fill="#CBB356" points="1050.3,182.6 1096.4,182.3 1096.1,228.4 			"/>
			<polygon fill="#CBAD5D" points="1096.1,228.6 1096.4,182.5 1141.9,182.7 			"/>
		</g>
		<g>
			<polygon fill="#B69849" points="1096.6,319.3 1096.9,364.9 1050.8,365.2 			"/>
			<polygon fill="#AD9851" points="1142.4,365.1 1096.9,364.9 1096.4,319.4 			"/>
		</g>
		<g>
			<polygon fill="#CBAD5D" points="1050.4,274.4 1050.7,228.3 1096.2,228.5 			"/>
			<polygon fill="#D8B558" points="1096.3,228.5 1050.7,228.3 1050.3,182.9 			"/>
		</g>
		<g>
			<polygon fill="#B2954B" points="1050.7,365.2 1051,319.2 1096.5,319.4 			"/>
			<polygon fill="#C7AC4A" points="1096.5,319.4 1051,319.2 1050.6,273.7 			"/>
		</g>
		<g>
			<polygon fill="#CBAD5D" points="1004.9,320 1005.2,274 1050.7,274.2 			"/>
			<polygon opacity="0.91" fill="#C1BC56" points="1050.7,274.2 1005.2,274 1004.8,228.5 			"/>
		</g>
		<polygon fill="#D2BB59" points="1004.8,228.4 1050.9,228.1 1050.7,274.2 		"/>
		<polygon fill="#D2BB59" points="1050.7,182.8 1050.9,228.3 1004.8,228.6 		"/>
		<g>
			<polygon fill="#C7AC4A" points="1005.1,319.6 1051.2,319.4 1050.9,365.5 			"/>
			<polygon fill="#D2BB59" points="1050.9,274.1 1051.2,319.6 1005.1,319.9 			"/>
		</g>
		<g>
			<g>
				<g>
					<polygon fill="#BA9F4F" points="1050.9,365.2 1005.3,365 1004.9,319.5 					"/>
				</g>
			</g>
		</g>
		<g opacity="0.91">
			<polygon fill="#CBC364" points="1005,228.6 1005.3,182.6 1050.8,182.8 			"/>
		</g>
		<polygon fill="#DDDA88" points="0.5,46 0.8,0 46.4,0.2 		"/>
	</g>
	<g>
		<polyline fill="#DDDA88" points="275.3,455.6 275,409.5 229.2,455.4 		"/>
		<polyline fill="#D3DD8D" points="320.8,455.2 275,409.4 275.3,455.4 		"/>
		<polyline fill="#F1E48D" points="366.6,455.8 366.3,409.7 320.5,455.6 		"/>
		<polyline fill="#DBE8AA" points="412.1,455.4 366.3,409.6 366.6,455.6 		"/>
		<polygon fill="#D4E496" points="275,409.9 321.1,410.2 320.8,364.1 		"/>
		<polygon fill="#ECF0B9" points="320.8,364 321.1,410 366.6,409.8 		"/>
		<polyline fill="#DDDA88" points="320.8,455.5 321.1,410 275,409.7 320.8,455.5 		"/>
		<polyline fill="#DDE798" points="320.7,455.5 366.7,409.8 321.1,410 320.7,455.5 		"/>
		<polyline fill="#DAD585" points="183.9,455.7 183.6,409.6 137.8,455.4 		"/>
		<polyline fill="#DEE599" points="229.4,455.3 183.6,409.5 183.9,455.5 		"/>
		<polygon fill="#DEE599" points="183.6,409.9 229.7,410.2 229.4,364.1 		"/>
		<polygon fill="#DDDA88" points="229.4,364 229.7,410 275.2,409.8 		"/>
		<polyline fill="#DDDA88" points="229.4,455.5 229.7,410 183.6,409.7 229.4,455.5 		"/>
		<polyline fill="#DAD173" points="229.3,455.5 275.3,409.8 229.7,410 229.3,455.5 		"/>
		<g>
			<polygon fill="#E3EBA3" points="275,410.1 275.3,364.6 229.2,364.3 			"/>
			<polygon fill="#D3DD8D" points="320.8,364.4 275.3,364.6 274.9,410.1 			"/>
		</g>
		<g>
			<polygon fill="#DDDA88" points="183.3,410.2 183.6,364.7 137.5,364.3 			"/>
			<polygon fill="#D3DD8D" points="229.2,364.5 183.6,364.7 183.2,410.1 			"/>
		</g>
		<polygon fill="#DAD585" points="92.2,410.3 138.3,410.6 138,364.4 		"/>
		<polygon fill="#DDDA88" points="138,364.3 138.3,410.3 183.8,410.1 		"/>
		<polyline fill="#DDDA88" points="138,455.9 138.3,410.3 92.2,410 138,455.9 		"/>
		<polyline fill="#DEE599" points="137.9,455.8 183.9,410.1 138.3,410.3 137.9,455.8 		"/>
		<polyline fill="#DAD173" points="92.5,455.7 92.2,409.6 46.4,455.4 		"/>
		<polyline fill="#DAD585" points="138,455.3 92.2,409.5 92.5,455.5 		"/>
		<g>
			<polygon fill="#E8D87E" points="92.5,410.3 92.7,364.8 46.6,364.5 			"/>
			<polygon fill="#D3DD8D" points="138.3,364.6 92.7,364.8 92.3,410.3 			"/>
		</g>
		<polygon fill="#D3DD8D" points="46.6,364.4 46.9,410.5 92.4,410.3 		"/>
		<polyline fill="#E8D87E" points="46.4,456 92.4,410.3 46.9,410.5 46.4,456 		"/>
		<polyline fill="#EDEE9B" points="458.1,455.8 457.8,409.7 412,455.5 		"/>
		<polyline fill="#EBEFB1" points="503.6,455.4 457.8,409.6 458.1,455.6 		"/>
		<polygon fill="#DBE8AA" points="366.5,409.9 412.6,410.2 412.3,364 		"/>
		<polygon fill="#DDE798" points="412.3,363.9 412.6,409.9 458.1,409.7 		"/>
		<polyline fill="#F1E48D" points="412.3,455.5 412.6,409.9 366.5,409.6 412.3,455.5 		"/>
		<polyline fill="#EEEFAA" points="412.2,455.4 458.2,409.7 412.6,409.9 412.2,455.4 		"/>
		<g>
			<polygon fill="#EDEE9B" points="366.5,410.1 366.8,364.6 320.7,364.2 			"/>
			<polygon fill="#ECF0B9" points="412.3,364.4 366.8,364.6 366.4,410 			"/>
		</g>
		<polygon fill="#D8E7AD" points="457.9,409.9 504,410.2 503.8,364.1 		"/>
		<polyline opacity="0.91" fill="#D7E19D" points="503.8,455.5 504,410 457.9,409.7 503.8,455.5 		"/>
		<g>
			<polygon fill="#EDEE9B" points="457.9,410.1 458.2,364.6 412.1,364.3 			"/>
			<polygon fill="#EEF0AF" points="503.8,364.4 458.2,364.6 457.8,410.1 			"/>
		</g>
		<polyline fill="#DEE599" points="46.6,455.4 0.7,409.6 1.1,455.6 		"/>
		<polygon fill="#DAD585" points="0.9,410 47,410.3 46.8,364.2 		"/>
		<polyline fill="#E2D880" points="46.8,455.6 47,410.1 0.9,409.8 46.8,455.6 		"/>
		<g>
			<polygon opacity="0.91" fill="#E8D87E" points="46.8,364.5 1.2,364.7 0.8,410.2 			"/>
		</g>
		<polyline fill="#DFDA89" points="731.6,455.2 731.8,409.1 777.7,455 		"/>
		<polyline fill="#DFDA89" points="686,454.8 731.9,409 731.6,455 		"/>
		<polyline fill="#EDEE9B" points="640.3,455.4 640.6,409.3 686.4,455.1 		"/>
		<polyline fill="#E4EDB8" points="594.8,455 640.6,409.2 640.3,455.2 		"/>
		<polygon fill="#DFDA89" points="731.9,409.5 685.8,409.8 686,363.7 		"/>
		<polygon fill="#E3EBA3" points="686.1,363.5 685.8,409.6 640.2,409.4 		"/>
		<polyline fill="#EDED98" points="686,455.1 685.8,409.6 731.9,409.3 686,455.1 		"/>
		<polyline fill="#EEF0AF" points="686.2,455.1 640.2,409.4 685.8,409.6 686.2,455.1 		"/>
		<polyline fill="#D8D486" points="823,455.3 823.3,409.2 869.1,455 		"/>
		<polyline fill="#DFDA89" points="777.5,454.9 823.3,409 823,455.1 		"/>
		<polygon opacity="0.91" fill="#CBC364" points="823.3,409.5 777.2,409.8 777.4,363.7 		"/>
		<polygon fill="#F5E481" points="777.5,363.5 777.2,409.6 731.6,409.4 		"/>
		<polyline fill="#EDDA7F" points="777.4,455.1 777.2,409.6 823.3,409.3 777.4,455.1 		"/>
		<polyline fill="#DFDA89" points="777.6,455.1 731.6,409.4 777.2,409.6 777.6,455.1 		"/>
		<g>
			<polygon fill="#DFDA89" points="731.9,409.7 731.6,364.2 777.7,363.9 			"/>
			<polygon fill="#EDEE9B" points="686,364 731.6,364.2 732,409.7 			"/>
		</g>
		<g>
			<polygon fill="#D0CC7B" points="823.6,409.8 823.3,364.2 869.4,363.9 			"/>
			<polygon fill="#DCCD89" points="777.7,364 823.3,364.2 823.7,409.7 			"/>
		</g>
		<polygon opacity="0.91" fill="#CBC364" points="914.7,409.9 868.6,410.1 868.8,364 		"/>
		<polygon fill="#D2BB59" points="868.9,363.9 868.6,409.9 823,409.7 		"/>
		<polyline opacity="0.91" fill="#CBC364" points="868.8,455.4 868.6,409.9 914.7,409.6 868.8,455.4 		"/>
		<polyline opacity="0.91" fill="#CBC364" points="869,455.4 823,409.7 868.6,409.9 869,455.4 		"/>
		<polyline fill="#BA9F4F" points="914.4,455.3 914.7,409.2 960.5,455 		"/>
		<polyline fill="#CBAD5D" points="868.9,454.9 914.7,409 914.4,455.1 		"/>
		<g>
			<polygon fill="#D2BB59" points="914.4,409.9 914.1,364.4 960.2,364.1 			"/>
			<polygon opacity="0.91" fill="#CBC364" points="868.6,364.2 914.1,364.4 914.5,409.9 			"/>
		</g>
		<polygon fill="#CBAD5D" points="960.3,364 960,410 914.5,409.9 		"/>
		<polyline fill="#B69849" points="960.4,455.5 914.4,409.9 960,410 960.4,455.5 		"/>
		<polyline fill="#EEF0AF" points="548.8,455.4 549.1,409.3 594.9,455.1 		"/>
		<polyline fill="#EDF0BA" points="503.3,455 549.1,409.1 548.8,455.2 		"/>
		<polygon fill="#ECF0B9" points="640.4,409.5 594.3,409.7 594.5,363.6 		"/>
		<polygon opacity="0.91" fill="#D7E19D" points="594.6,363.5 594.3,409.5 548.7,409.3 		"/>
		<polyline fill="#EEF0AF" points="594.5,455 594.3,409.5 640.4,409.2 594.5,455 		"/>
		<polyline fill="#E4EDB8" points="594.7,455 548.7,409.3 594.3,409.5 594.7,455 		"/>
		<g>
			<polygon fill="#EDEE9B" points="640.4,409.7 640.1,364.1 686.2,363.8 			"/>
			<polygon fill="#DDE798" points="594.5,363.9 640.1,364.1 640.5,409.6 			"/>
		</g>
		<polygon fill="#EBEFB1" points="548.9,409.5 502.8,409.8 503.1,363.7 		"/>
		<polyline fill="#F1E48D" points="503.1,455.1 502.8,409.6 548.9,409.3 503.1,455.1 		"/>
		<g>
			<polygon fill="#DDE798" points="548.9,409.7 548.7,364.2 594.8,363.9 			"/>
			<polygon fill="#F1E48D" points="503.1,364 548.7,364.2 549.1,409.7 			"/>
		</g>
		<polyline fill="#B69849" points="960.3,455 1006.1,409.2 1005.8,455.2 		"/>
		<polygon fill="#AD9851" points="1005.9,409.6 959.8,409.8 960.1,363.7 		"/>
		<polyline fill="#C7AC4A" points="960.1,455.2 959.8,409.6 1005.9,409.3 960.1,455.2 		"/>
		<g>
			<g>
				<g>
					<polygon fill="#C7AC4A" points="960.1,364 1005.7,364.2 1006.1,409.7 					"/>
				</g>
			</g>
		</g>
		<polyline fill="#BA9F4F" points="1188.5,455.5 1188.3,409.4 1142.4,455.2 		"/>
		<polyline fill="#AF924F" points="1234.1,455.1 1188.2,409.2 1188.5,455.3 		"/>
		<polygon fill="#83723C" points="1188.3,409.7 1234.4,410 1234.1,363.9 		"/>
		<polyline fill="#A0843F" points="1234.1,455.3 1234.4,409.8 1188.3,409.5 1234.1,455.3 		"/>
		<g>
			<g>
				<polygon fill="#B2954B" points="1188,410 1188.2,364.4 1142.1,364.1 				"/>
				<polygon fill="#A0843F" points="1233.8,364.2 1188.2,364.4 1187.8,409.9 				"/>
			</g>
		</g>
		<polygon fill="#AF924F" points="1096.9,410.1 1143,410.3 1142.7,364.2 		"/>
		<polygon fill="#AD9851" points="1142.7,364.1 1143,410.1 1188.5,409.9 		"/>
		<polyline fill="#BA9F4F" points="1142.7,455.6 1143,410.1 1096.9,409.8 1142.7,455.6 		"/>
		<polyline fill="#CFB247" points="1142.5,455.6 1188.5,409.9 1143,410.1 1142.5,455.6 		"/>
		<polyline fill="#B69849" points="1097.1,455.5 1096.8,409.4 1051,455.2 		"/>
		<polyline fill="#C7AC4A" points="1142.7,455.1 1096.8,409.2 1097.1,455.3 		"/>
		<g>
			<polygon fill="#B69849" points="1097.1,410.1 1097.4,364.6 1051.3,364.2 			"/>
			<polygon fill="#AD9851" points="1143,364.4 1097.4,364.6 1097,410 			"/>
		</g>
		<polygon fill="#B2954B" points="1051.2,364.2 1051.5,410.2 1097,410 		"/>
		<polyline fill="#C7AC4A" points="1051.1,455.7 1097.1,410 1051.5,410.2 1051.1,455.7 		"/>
		<polyline fill="#C7AC4A" points="1051.2,455.2 1005.4,409.4 1005.7,455.4 		"/>
		<polygon fill="#C7AC4A" points="1005.6,409.8 1051.7,410 1051.4,363.9 		"/>
		<polyline fill="#D2BB59" points="1051.4,455.4 1051.7,409.8 1005.6,409.5 1051.4,455.4 		"/>
		<g>
			<g>
				<g>
					<polygon fill="#BA9F4F" points="1051.4,364.2 1005.8,364.4 1005.4,409.9 					"/>
				</g>
			</g>
		</g>
	</g>
</g>
<g>
	<g>
		<polygon fill="#D7E198" points="959.8,409.4 913.7,409.7 913.9,363.6 		"/>
		<polygon fill="#DDE798" points="914,363.4 913.7,409.5 868.1,409.3 		"/>
		<polygon fill="#E3EBA3" points="913.9,455 913.7,409.5 959.8,409.2 		"/>
		<polygon fill="#ECED9C" points="868.1,409.3 913.7,409.5 914.1,455 		"/>
		<g>
			<polygon fill="#E3EBA3" points="1005.3,363.6 959.2,363.8 959.5,317.7 			"/>
			<polygon fill="#DEE599" points="959.5,317.6 959.2,363.6 913.7,363.4 			"/>
			<polygon fill="#DFE89D" points="959.5,409.2 959.2,363.6 1005.3,363.3 			"/>
			<polygon fill="#F3F1A9" points="913.7,363.4 959.2,363.6 959.6,409.1 			"/>
		</g>
		<g>
			<polygon fill="#DDE798" points="914.1,363.8 868,364 868.2,317.9 			"/>
			<polygon fill="#DBE8AA" points="868.3,317.8 868,363.8 822.4,363.6 			"/>
			<polygon fill="#EBF0BB" points="868.2,409.4 868,363.8 914.1,363.5 			"/>
			<polygon fill="#DBE8AA" points="822.4,363.6 868,363.8 868.4,409.3 			"/>
		</g>
		<g>
			<polygon fill="#EDEE9B" points="959.5,318.1 913.4,318.4 913.7,272.3 			"/>
			<polygon fill="#EDEFA9" points="913.7,272.1 913.4,318.2 867.9,318 			"/>
			<polygon fill="#E3EBA3" points="913.7,363.7 913.4,318.2 959.5,317.9 			"/>
			<polygon fill="#DBE8AA" points="867.9,318 913.4,318.2 913.8,363.7 			"/>
		</g>
		<g>
			<polygon fill="#DEE599" points="1051.1,409.3 1005,409.6 1005.2,363.5 			"/>
			<polygon fill="#D7E198" points="1005.3,363.4 1005,409.4 959.4,409.2 			"/>
			<polygon fill="#D3DD8D" points="1005.2,454.9 1005,409.4 1051.1,409.1 			"/>
			<polygon fill="#DDE798" points="959.4,409.2 1005,409.4 1005.4,454.9 			"/>
		</g>
		<g>
			<polygon fill="#DEE599" points="1096.8,363.6 1050.7,363.9 1050.9,317.8 			"/>
			<polygon fill="#E3EBA3" points="1051,317.7 1050.7,363.7 1005.1,363.5 			"/>
			<polygon fill="#D7E198" points="1050.9,409.2 1050.7,363.7 1096.8,363.4 			"/>
			<polygon opacity="0.91" fill="#D7E19D" points="1005.1,363.5 1050.7,363.7 1051.1,409.2 			"/>
		</g>
		<g>
			<polygon fill="#E3EBA3" points="1050.9,318.1 1004.8,318.4 1005.1,272.3 			"/>
			<polygon fill="#EDEE9B" points="1005.1,272.1 1004.8,318.2 959.3,318 			"/>
			<polygon fill="#D7E198" points="1005.1,363.7 1004.8,318.2 1050.9,317.9 			"/>
			<polygon fill="#ECED9C" points="959.3,318 1004.8,318.2 1005.2,363.7 			"/>
		</g>
		<g>
			<polygon fill="#DFE89D" points="959.5,318.3 959.3,272.8 1005.4,272.5 			"/>
			<polygon fill="#DBE8AA" points="913.7,272.6 959.3,272.8 959.7,318.3 			"/>
		</g>
		<g>
			<polygon fill="#DFE89D" points="1005.4,455.1 959.3,455.4 959.5,409.3 			"/>
			<polygon fill="#D3DD8D" points="959.6,409.1 959.3,455.2 913.7,455 			"/>
		</g>
		<g>
			<polygon fill="#DDE798" points="1096.9,455.1 1050.8,455.4 1051.1,409.3 			"/>
			<polygon fill="#F5E481" points="1051.1,409.1 1050.8,455.2 1005.3,455 			"/>
		</g>
		<g>
			<polygon fill="#D7E198" points="1051.2,318.4 1051,272.8 1097.1,272.5 			"/>
			<polygon fill="#E3EBA3" points="1005.4,272.6 1051,272.8 1051.4,318.3 			"/>
		</g>
		<g>
			<polygon fill="#DEE599" points="1142.6,409.3 1096.5,409.6 1096.8,363.5 			"/>
			<polygon fill="#DDE798" points="1096.8,363.3 1096.5,409.4 1051,409.2 			"/>
			<polygon fill="#F5E481" points="1096.8,454.9 1096.5,409.4 1142.6,409 			"/>
			<polygon fill="#D3DD8D" points="1050.9,409.2 1096.5,409.4 1096.9,454.8 			"/>
		</g>
		<g>
			<polygon fill="#DEE599" points="1142.3,318.5 1096.2,318.7 1096.5,272.6 			"/>
			<polygon fill="#FFEC8E" points="1096.5,272.5 1096.2,318.5 1050.7,318.3 			"/>
			<polygon fill="#E0EAA7" points="1096.5,364.1 1096.2,318.5 1142.3,318.2 			"/>
			<polygon fill="#D3DD8D" points="1050.7,318.3 1096.2,318.5 1096.6,364 			"/>
		</g>
		<g>
			<polygon fill="#F5E481" points="1188.2,363.6 1142.1,363.9 1142.3,317.8 			"/>
			<polygon fill="#D7E198" points="1142.4,317.7 1142.1,363.7 1096.5,363.5 			"/>
			<polygon fill="#DDDD8C" points="1142.3,409.2 1142.1,363.7 1188.2,363.4 			"/>
			<polygon fill="#DDDA88" points="1096.5,363.5 1142.1,363.7 1142.5,409.2 			"/>
		</g>
		<g>
			<polygon fill="#E8D586" points="1188.4,455.2 1142.3,455.5 1142.5,409.4 			"/>
			<polygon fill="#F1E48D" points="1142.6,409.3 1142.3,455.3 1096.7,455.1 			"/>
		</g>
		<g>
			<polygon fill="#F5E481" points="1142.1,318.5 1141.8,273 1187.9,272.7 			"/>
			<polygon fill="#D7E198" points="1096.2,272.8 1141.8,273 1142.2,318.5 			"/>
		</g>
		<g>
			<g>
				<g>
					<polygon fill="#D7D885" points="1188.2,363.5 1187.9,409.5 1142.4,409.3 					"/>
				</g>
				<g>
					<polygon fill="#F1E48D" points="1142.4,409.3 1187.9,409.5 1188.4,455 					"/>
				</g>
			</g>
		</g>
		<g>
			<polygon fill="#DDE798" points="1188,272.6 1187.7,318.7 1142.2,318.5 			"/>
			<polygon fill="#E2D880" points="1142.1,318.5 1187.7,318.7 1188.1,364.2 			"/>
		</g>
		<polygon fill="#DDE798" points="868.3,409.4 822.2,409.6 822.4,363.5 		"/>
		<polygon fill="#EDF0BA" points="822.5,363.4 822.2,409.4 776.6,409.2 		"/>
		<polygon fill="#F3F1A9" points="822.4,455 822.2,409.4 868.3,409.1 		"/>
		<polygon fill="#DDE798" points="776.6,409.2 822.2,409.4 822.6,454.9 		"/>
		<g>
			<polygon fill="#D8E7AD" points="822.6,363.7 776.5,364 776.8,317.9 			"/>
			<polygon fill="#EEEFAA" points="776.8,317.7 776.5,363.8 731,363.6 			"/>
			<polygon fill="#F8F3AB" points="776.8,409.3 776.5,363.8 822.6,363.5 			"/>
			<polygon fill="#EDF0BA" points="730.9,363.6 776.5,363.8 776.9,409.3 			"/>
		</g>
		<g>
			<polygon fill="#D8E7AD" points="868,318.1 821.9,318.3 822.2,272.2 			"/>
			<polygon fill="#DDE798" points="822.2,272.1 821.9,318.1 776.4,317.9 			"/>
			<polygon fill="#E6ECAD" points="822.2,363.7 821.9,318.1 868,317.8 			"/>
			<polygon fill="#DDE798" points="776.4,317.9 821.9,318.1 822.4,363.6 			"/>
		</g>
		<g>
			<polygon fill="#DDE798" points="868,318.3 867.8,272.7 913.9,272.4 			"/>
			<polygon fill="#EDEE9B" points="822.2,272.5 867.8,272.7 868.2,318.2 			"/>
		</g>
		<g>
			<polygon fill="#DDE798" points="913.9,455 867.8,455.3 868,409.2 			"/>
			<polygon fill="#DFE89D" points="868.1,409.1 867.8,455.1 822.2,454.9 			"/>
		</g>
		<polygon fill="#EDF0BA" points="776.8,409.4 730.7,409.7 731,363.6 		"/>
		<polygon fill="#DDDA88" points="731,455 730.7,409.5 776.8,409.2 		"/>
		<g>
			<polygon fill="#EBEFB1" points="776.6,318.1 730.5,318.4 730.8,272.3 			"/>
			<polygon fill="#EEEFAA" points="730.8,363.7 730.5,318.2 776.6,317.9 			"/>
		</g>
		<g>
			<polygon fill="#DDE798" points="776.6,318.3 776.3,272.8 822.4,272.5 			"/>
			<polygon fill="#EDF0BA" points="730.8,272.6 776.3,272.8 776.7,318.3 			"/>
		</g>
		<g>
			<polygon fill="#EDF0BA" points="822.4,455.1 776.3,455.4 776.6,409.3 			"/>
			<polygon fill="#E2E8AB" points="776.6,409.1 776.3,455.2 730.8,455 			"/>
		</g>
		<g>
			<polygon fill="#DDDA88" points="1233.8,317.8 1233.5,363.8 1188,363.6 			"/>
			<polygon fill="#F5E481" points="1187.9,363.6 1233.5,363.8 1233.9,409.3 			"/>
		</g>
		<polygon fill="#DDDA88" points="1233.8,409.5 1187.7,409.7 1188,363.6 		"/>
		<polygon fill="#DFDA89" points="1188,455.1 1187.7,409.5 1233.8,409.2 		"/>
		<g>
			<polygon fill="#DEE599" points="1233.6,318.2 1187.5,318.5 1187.8,272.4 			"/>
			<polygon fill="#D7D885" points="1187.8,363.8 1187.5,318.2 1233.6,317.9 			"/>
		</g>
		<g>
			<polygon opacity="0.91" fill="#DAD585" points="1187.8,272.7 1233.3,272.9 1233.8,318.4 			"/>
		</g>
		<g>
			<polygon fill="#EEF0AF" points="593.7,317.4 594,363.4 639.6,363.2 			"/>
			<polygon fill="#DDDA88" points="639.6,363.2 594,363.4 593.6,408.9 			"/>
		</g>
		<polygon fill="#EDED98" points="593.7,408.9 639.8,409.2 639.6,363.1 		"/>
		<polygon fill="#EDED98" points="639.5,363 639.8,409 685.4,408.8 		"/>
		<polygon fill="#ECEFB4" points="639.6,454.5 639.8,409 593.7,408.7 		"/>
		<polygon fill="#E4EDB8" points="685.4,408.8 639.8,409 639.4,454.5 		"/>
		<g>
			<polygon fill="#E4EDB8" points="639.4,363.3 685.5,363.6 685.2,317.5 			"/>
			<polygon fill="#DDE798" points="685.2,317.3 685.5,363.4 731,363.2 			"/>
			<polygon fill="#EDF0BA" points="685.2,408.9 685.5,363.4 639.4,363 			"/>
			<polygon fill="#DDE798" points="731.1,363.2 685.5,363.4 685.1,408.8 			"/>
		</g>
		<g>
			<polygon fill="#E4EDB8" points="593.9,317.6 640.1,317.9 639.8,271.8 			"/>
			<polygon fill="#DFDA89" points="639.8,271.7 640.1,317.7 685.6,317.5 			"/>
			<polygon fill="#EDF0BA" points="639.8,363.2 640.1,317.7 593.9,317.4 			"/>
			<polygon fill="#DDE798" points="685.6,317.5 640.1,317.7 639.6,363.2 			"/>
		</g>
		<g>
			<polygon fill="#ECEFB4" points="639.8,272.1 594.2,272.3 593.8,317.8 			"/>
		</g>
		<g>
			<polygon fill="#EDF0BA" points="593.9,408.7 594.2,454.7 639.7,454.5 			"/>
		</g>
		<polygon fill="#D8E7AD" points="685.2,409 731.3,409.3 731,363.2 		"/>
		<polygon fill="#EEEFAA" points="731,454.6 731.3,409.1 685.2,408.8 		"/>
		<g>
			<polygon fill="#D8E7AD" points="685.4,317.7 731.5,318 731.2,271.9 			"/>
			<polygon fill="#EDF0BA" points="731.2,363.3 731.5,317.8 685.4,317.5 			"/>
		</g>
		<g>
			<polygon fill="#EDF0BA" points="685.4,317.9 685.7,272.4 639.6,272.1 			"/>
			<polygon fill="#EBEFB1" points="731.2,272.2 685.7,272.4 685.2,317.9 			"/>
		</g>
		<g>
			<polygon fill="#E2E8AB" points="639.6,454.7 685.7,455 685.4,408.9 			"/>
			<polygon fill="#EDF0BA" points="685.4,408.7 685.7,454.8 731.2,454.6 			"/>
		</g>
		<polygon fill="#EDEE9B" points="959.7,227.6 913.5,227.9 913.8,181.8 		"/>
		<polygon fill="#DDE798" points="913.9,181.7 913.5,227.7 868,227.5 		"/>
		<polygon fill="#E3EBA3" points="913.8,273.2 913.5,227.7 959.7,227.4 		"/>
		<polygon fill="#E6ECAD" points="868,227.5 913.5,227.7 914,273.2 		"/>
		<g>
			<polygon fill="#E3EBA3" points="1005.2,181.8 959.1,182.1 959.4,136 			"/>
			<polygon fill="#D3DD8D" points="959.4,135.8 959.1,181.9 913.6,181.7 			"/>
			<polygon fill="#EBF0BB" points="959.4,227.4 959.1,181.9 1005.2,181.6 			"/>
			<polygon fill="#E6ECAD" points="913.5,181.7 959.1,181.9 959.5,227.4 			"/>
		</g>
		<g>
			<polygon fill="#F1E48D" points="914,182 867.9,182.3 868.1,136.2 			"/>
			<polygon fill="#DBE8AA" points="868.2,136 867.9,182.1 822.3,181.9 			"/>
			<polygon fill="#EBF0BB" points="868.1,227.6 867.9,182.1 914,181.7 			"/>
			<polygon fill="#F1E48D" points="822.3,181.9 867.9,182.1 868.3,227.5 			"/>
		</g>
		<g>
			<polygon fill="#D4E496" points="959.4,136.3 913.3,136.6 913.6,90.5 			"/>
			<polygon fill="#EDEE9B" points="913.6,90.4 913.3,136.4 867.8,136.2 			"/>
			<polygon fill="#EDEE9B" points="913.6,181.9 913.3,136.4 959.4,136.1 			"/>
			<polygon fill="#DDE798" points="867.8,136.2 913.3,136.4 913.7,181.9 			"/>
		</g>
		<g>
			<polygon fill="#DFE89D" points="1051,227.6 1004.9,227.9 1005.1,181.7 			"/>
			<polygon fill="#EDEE9B" points="1005.2,181.6 1004.9,227.6 959.3,227.4 			"/>
			<polygon fill="#ECED9C" points="1005.1,273.2 1004.9,227.6 1051,227.3 			"/>
			<polygon fill="#DEE599" points="959.3,227.4 1004.9,227.6 1005.3,273.1 			"/>
		</g>
		<g>
			<polygon fill="#FFEC8E" points="1096.7,181.9 1050.6,182.1 1050.8,136 			"/>
			<polygon fill="#DEE599" points="1050.9,135.9 1050.6,181.9 1005,181.7 			"/>
			<polygon fill="#E3EBA3" points="1050.8,227.4 1050.6,181.9 1096.7,181.6 			"/>
			<polygon opacity="0.91" fill="#D7E19D" points="1005,181.7 1050.6,181.9 1051,227.4 			"/>
		</g>
		<g>
			<polygon fill="#DEE599" points="1050.8,136.4 1004.7,136.6 1005,90.5 			"/>
			<polygon fill="#E6ECAD" points="1005,90.4 1004.7,136.4 959.2,136.2 			"/>
			<polygon fill="#F8F3AB" points="1005,181.9 1004.7,136.4 1050.8,136.1 			"/>
			<polygon fill="#ECED9C" points="959.2,136.2 1004.7,136.4 1005.1,181.9 			"/>
		</g>
		<g>
			<polygon fill="#E3EBA3" points="959.4,136.5 959.2,91 1005.3,90.7 			"/>
			<polygon fill="#D3DD8D" points="913.6,90.8 959.2,91 959.6,136.5 			"/>
		</g>
		<g>
			<polygon fill="#F3F1A9" points="1005.3,273.3 959.2,273.6 959.4,227.5 			"/>
			<polygon fill="#EBF0BB" points="959.5,227.4 959.2,273.4 913.6,273.2 			"/>
		</g>
		<g>
			<polygon fill="#D3DD8D" points="1096.8,273.3 1050.7,273.6 1051,227.5 			"/>
			<polygon fill="#DDE798" points="1051,227.4 1050.7,273.4 1005.2,273.2 			"/>
		</g>
		<g>
			<polygon fill="#DDDA88" points="1051.1,136.6 1050.8,91.1 1097,90.8 			"/>
			<polygon fill="#D3DD8D" points="1005.3,90.9 1050.8,91.1 1051.3,136.6 			"/>
		</g>
		<g>
			<polygon fill="#D3DD8D" points="1142.5,227.5 1096.4,227.8 1096.7,181.7 			"/>
			<polygon fill="#FFEC8E" points="1096.7,181.6 1096.4,227.6 1050.9,227.4 			"/>
			<polygon fill="#ECED9C" points="1096.7,273.1 1096.4,227.6 1142.5,227.3 			"/>
			<polygon fill="#DFE89D" points="1050.8,227.4 1096.4,227.6 1096.8,273.1 			"/>
		</g>
		<g>
			<polygon fill="#DAD585" points="1142.2,136.7 1096.1,137 1096.4,90.9 			"/>
			<polygon fill="#DDDA88" points="1096.4,90.7 1096.1,136.8 1050.6,136.6 			"/>
			<polygon fill="#DDDA88" points="1096.4,182.3 1096.1,136.8 1142.2,136.5 			"/>
			<polygon fill="#DEE599" points="1050.6,136.6 1096.1,136.8 1096.5,182.3 			"/>
		</g>
		<g>
			<polygon fill="#DAD173" points="1188.1,181.9 1142,182.1 1142.2,136 			"/>
			<polygon fill="#DAD585" points="1142.3,135.9 1142,181.9 1096.4,181.7 			"/>
			<polygon fill="#DDDA88" points="1142.2,227.4 1142,181.9 1188.1,181.6 			"/>
			<polygon fill="#E2D880" points="1096.4,181.7 1142,181.9 1142.4,227.4 			"/>
		</g>
		<g>
			<polygon fill="#ECED9C" points="1188.3,273.5 1142.2,273.7 1142.4,227.6 			"/>
			<polygon fill="#DEE599" points="1142.5,227.5 1142.2,273.5 1096.6,273.3 			"/>
		</g>
		<g>
			<polygon fill="#E8D87E" points="1142,136.7 1141.7,91.2 1187.8,90.9 			"/>
			<polygon fill="#D3DD8D" points="1096.1,91 1141.7,91.2 1142.1,136.7 			"/>
		</g>
		<g>
			<polygon fill="#DAD585" points="1188.1,181.7 1187.8,227.7 1142.3,227.5 			"/>
			<polygon fill="#D3DD8D" points="1142.3,227.5 1187.8,227.7 1188.3,273.2 			"/>
		</g>
		<g>
			<polygon fill="#D3DD8D" points="1187.9,90.9 1187.6,136.9 1142,136.7 			"/>
			<polygon fill="#E8D87E" points="1142,136.7 1187.6,136.9 1188,182.4 			"/>
		</g>
		<polygon fill="#EBEFB1" points="868.2,227.6 822.1,227.9 822.3,181.8 		"/>
		<polygon fill="#EDEE9B" points="822.4,181.6 822.1,227.7 776.5,227.5 		"/>
		<polygon fill="#DDE798" points="822.3,273.2 822.1,227.7 868.2,227.3 		"/>
		<polygon fill="#EEEFAA" points="776.5,227.5 822.1,227.7 822.5,273.1 		"/>
		<g>
			<polygon fill="#EDEE9B" points="822.5,181.9 776.4,182.2 776.6,136.1 			"/>
			<polygon fill="#EBEFB1" points="776.7,136 776.4,182 730.8,181.8 			"/>
			<polygon opacity="0.91" fill="#D7E19D" points="776.6,227.5 776.4,182 822.5,181.7 			"/>
			<polygon fill="#DDE798" points="730.8,181.8 776.4,182 776.8,227.5 			"/>
		</g>
		<g>
			<polygon fill="#DBE8AA" points="867.9,136.3 821.8,136.6 822.1,90.5 			"/>
			<polygon fill="#DDE798" points="822.1,90.3 821.8,136.4 776.3,136.2 			"/>
			<polygon fill="#F1E48D" points="822.1,181.9 821.8,136.4 867.9,136.1 			"/>
			<polygon fill="#EEEFAA" points="776.3,136.2 821.8,136.4 822.2,181.9 			"/>
		</g>
		<g>
			<polygon fill="#ECEFB4" points="867.9,136.5 867.7,91 913.8,90.7 			"/>
			<polygon fill="#EDEE9B" points="822.1,90.8 867.7,91 868.1,136.5 			"/>
		</g>
		<g>
			<polygon fill="#EEEFAA" points="913.8,273.3 867.7,273.6 867.9,227.4 			"/>
			<polygon fill="#DBE8AA" points="868,227.3 867.7,273.3 822.1,273.1 			"/>
		</g>
		<polygon fill="#EDEE9B" points="776.7,227.7 730.6,227.9 730.9,181.8 		"/>
		<polygon fill="#DDE798" points="730.9,273.2 730.6,227.7 776.7,227.4 		"/>
		<g>
			<polygon fill="#D8E7AD" points="776.5,136.4 730.4,136.6 730.7,90.5 			"/>
			<polygon opacity="0.91" fill="#D7E19D" points="730.7,182 730.4,136.4 776.5,136.1 			"/>
		</g>
		<g>
			<polygon fill="#DEE599" points="776.5,136.6 776.2,91 822.3,90.7 			"/>
			<polygon fill="#EDED98" points="730.7,90.8 776.2,91 776.6,136.5 			"/>
		</g>
		<g>
			<polygon fill="#DDE798" points="822.3,273.3 776.2,273.6 776.5,227.5 			"/>
			<polygon fill="#EDF0BA" points="776.5,227.4 776.2,273.4 730.7,273.2 			"/>
		</g>
		<g>
			<polygon fill="#DEE599" points="1233.7,136 1233.4,182.1 1187.9,181.9 			"/>
			<polygon fill="#DDDD8C" points="1187.8,181.9 1233.4,182.1 1233.8,227.6 			"/>
		</g>
		<polygon fill="#E2D880" points="1233.7,227.7 1187.6,228 1187.9,181.9 		"/>
		<polygon fill="#DDDA88" points="1187.9,273.3 1187.6,227.8 1233.7,227.5 		"/>
		<g>
			<polygon fill="#DAD585" points="1233.5,136.4 1187.4,136.7 1187.7,90.6 			"/>
			<polygon fill="#E2D880" points="1187.7,182 1187.4,136.5 1233.5,136.2 			"/>
		</g>
		<g>
			<polygon opacity="0.91" fill="#E8D87E" points="1187.7,90.9 1233.2,91.1 1233.6,136.6 			"/>
		</g>
		<g>
			<g>
				<g>
					<polygon fill="#D7D885" points="1233.5,227.4 1233.2,273.5 1187.7,273.3 					"/>
				</g>
			</g>
		</g>
		<g>
			<polygon fill="#E4EDB8" points="593.8,135.6 594.1,181.6 639.7,181.4 			"/>
			<polygon fill="#EDED98" points="639.7,181.4 594.1,181.6 593.7,227.1 			"/>
		</g>
		<polygon fill="#ECEFB4" points="593.8,227.2 639.9,227.4 639.7,181.3 		"/>
		<polygon fill="#DDE798" points="639.6,181.2 639.9,227.2 685.5,227 		"/>
		<polygon fill="#EDED98" points="639.7,272.8 639.9,227.2 593.8,226.9 		"/>
		<polygon fill="#EDED98" points="685.5,227 639.9,227.2 639.5,272.7 		"/>
		<g>
			<polygon fill="#EEF0AF" points="639.5,181.5 685.6,181.8 685.4,135.7 			"/>
			<polygon fill="#EDF0BA" points="685.3,135.6 685.6,181.6 731.2,181.4 			"/>
			<polygon fill="#EDEE9B" points="685.3,227.1 685.6,181.6 639.5,181.3 			"/>
			<polygon fill="#D8E7AD" points="731.2,181.4 685.6,181.6 685.2,227.1 			"/>
		</g>
		<g>
			<polygon fill="#DDE798" points="594.1,135.9 640.2,136.2 639.9,90 			"/>
			<polygon opacity="0.91" fill="#D7E19D" points="639.9,89.9 640.2,135.9 685.7,135.7 			"/>
			<polygon fill="#EEF0AF" points="639.9,181.5 640.2,135.9 594.1,135.6 			"/>
			<polygon fill="#E4EDB8" points="685.7,135.7 640.2,135.9 639.7,181.4 			"/>
		</g>
		<g>
			<polygon fill="#E4EDB8" points="639.9,90.4 594.3,90.6 593.9,136 			"/>
		</g>
		<g>
			<polygon fill="#EEF0AF" points="594,226.9 594.3,272.9 639.9,272.7 			"/>
		</g>
		<polygon fill="#EDF0BA" points="685.3,227.2 731.4,227.5 731.1,181.4 		"/>
		<polygon fill="#F1E48D" points="731.1,272.8 731.4,227.3 685.3,227 		"/>
		<g>
			<polygon fill="#EBEFB1" points="685.5,135.9 731.6,136.2 731.3,90.1 			"/>
			<polygon fill="#ECEFB4" points="731.3,181.5 731.6,136 685.5,135.7 			"/>
		</g>
		<g>
			<polygon fill="#F1E48D" points="685.5,136.1 685.8,90.6 639.7,90.3 			"/>
			<polygon fill="#DDE798" points="731.3,90.4 685.8,90.6 685.4,136.1 			"/>
		</g>
		<g>
			<polygon fill="#DDE798" points="639.7,272.9 685.8,273.2 685.5,227.1 			"/>
			<polygon fill="#EDF0BA" points="685.5,227 685.8,273 731.3,272.8 			"/>
		</g>
		<polygon fill="#DDDA88" points="1233.4,409.8 1233.1,455.8 1187.5,455.6 		"/>
	</g>
	<g>
		<polyline fill="#DDDA88" points="958.6,0.2 958.9,46.3 1004.7,0.5 		"/>
		<polyline fill="#D3DD8D" points="913.1,0.6 958.9,46.4 958.6,0.4 		"/>
		<polyline fill="#F1E48D" points="867.3,0 867.6,46.1 913.4,0.3 		"/>
		<polyline fill="#DBE8AA" points="821.8,0.4 867.6,46.2 867.3,0.2 		"/>
		<polygon fill="#D4E496" points="958.9,45.9 912.8,45.6 913.1,91.7 		"/>
		<polygon fill="#ECF0B9" points="913.1,91.9 912.8,45.9 867.3,46 		"/>
		<polyline fill="#DDDA88" points="913.1,0.3 912.8,45.9 958.9,46.2 913.1,0.3 		"/>
		<polyline fill="#DDE798" points="913.2,0.4 867.2,46 912.8,45.9 913.2,0.4 		"/>
		<polyline fill="#DAD585" points="1050,0.1 1050.3,46.2 1096.1,0.4 		"/>
		<polyline fill="#DEE599" points="1004.5,0.5 1050.3,46.4 1050,0.3 		"/>
		<polygon fill="#DEE599" points="1050.3,45.9 1004.2,45.6 1004.5,91.7 		"/>
		<polygon fill="#DDDA88" points="1004.5,91.9 1004.2,45.8 958.7,46 		"/>
		<polyline fill="#DDDA88" points="1004.5,0.3 1004.2,45.8 1050.3,46.2 1004.5,0.3 		"/>
		<polyline fill="#DAD173" points="1004.6,0.4 958.6,46 1004.2,45.8 1004.6,0.4 		"/>
		<g>
			<polygon fill="#E3EBA3" points="958.9,45.7 958.6,91.2 1004.7,91.5 			"/>
			<polygon fill="#D3DD8D" points="913.1,91.4 958.6,91.2 959,45.7 			"/>
		</g>
		<g>
			<polygon fill="#DDDA88" points="1050.6,45.7 1050.3,91.2 1096.4,91.5 			"/>
			<polygon fill="#D3DD8D" points="1004.7,91.4 1050.3,91.2 1050.7,45.7 			"/>
		</g>
		<polygon fill="#DAD585" points="1141.7,45.6 1095.6,45.3 1095.9,91.4 		"/>
		<polygon fill="#DDDA88" points="1095.9,91.5 1095.6,45.5 1050.1,45.7 		"/>
		<polyline fill="#DDDA88" points="1095.9,0 1095.6,45.5 1141.7,45.8 1095.9,0 		"/>
		<polyline fill="#DEE599" points="1096,0 1050,45.7 1095.6,45.5 1096,0 		"/>
		<polyline fill="#DAD173" points="1141.4,0.1 1141.7,46.2 1187.5,0.4 		"/>
		<polyline fill="#DAD585" points="1095.9,0.5 1141.7,46.4 1141.4,0.3 		"/>
		<g>
			<polygon fill="#E8D87E" points="1141.4,45.5 1141.2,91.1 1187.3,91.4 			"/>
			<polygon fill="#D3DD8D" points="1095.6,91.2 1141.2,91.1 1141.6,45.6 			"/>
		</g>
		<polygon fill="#D3DD8D" points="1187.3,91.4 1187,45.4 1141.5,45.6 		"/>
		<polyline fill="#E8D87E" points="1187.5,-0.1 1141.5,45.6 1187,45.4 1187.5,-0.1 		"/>
		<polyline fill="#EDEE9B" points="775.8,0 776.1,46.1 821.9,0.3 		"/>
		<polyline fill="#EBEFB1" points="730.3,0.4 776.1,46.3 775.8,0.3 		"/>
		<polygon fill="#DBE8AA" points="867.4,46 821.3,45.7 821.6,91.8 		"/>
		<polygon fill="#DDE798" points="821.6,91.9 821.3,45.9 775.8,46.1 		"/>
		<polyline fill="#F1E48D" points="821.6,0.4 821.3,45.9 867.4,46.2 821.6,0.4 		"/>
		<polyline fill="#EEEFAA" points="821.7,0.4 775.7,46.1 821.3,45.9 821.7,0.4 		"/>
		<g>
			<polygon fill="#EDEE9B" points="867.4,45.8 867.1,91.3 913.2,91.6 			"/>
			<polygon fill="#ECF0B9" points="821.6,91.5 867.1,91.3 867.6,45.8 			"/>
		</g>
		<polygon fill="#D8E7AD" points="776,45.9 729.9,45.6 730.1,91.7 		"/>
		<polyline opacity="0.91" fill="#D7E19D" points="730.1,0.3 729.9,45.8 776,46.1 730.1,0.3 		"/>
		<g>
			<polygon fill="#EDEE9B" points="776,45.7 775.7,91.2 821.8,91.5 			"/>
			<polygon fill="#EEF0AF" points="730.1,91.4 775.7,91.2 776.1,45.7 			"/>
		</g>
		<polyline fill="#DEE599" points="1187.3,0.4 1233.2,46.2 1232.9,0.2 		"/>
		<polygon fill="#DAD585" points="1233,45.8 1186.9,45.6 1187.1,91.7 		"/>
		<polyline fill="#E2D880" points="1187.1,0.2 1186.9,45.8 1233,46.1 1187.1,0.2 		"/>
		<g>
			<polygon opacity="0.91" fill="#E8D87E" points="1187.1,91.4 1232.7,91.2 1233.1,45.7 			"/>
		</g>
		<polyline fill="#E4EDB8" points="639.1,0.8 593.3,46.7 593.6,0.6 		"/>
		<polyline fill="#EEF0AF" points="685.1,0.5 684.8,46.6 639,0.7 		"/>
		<polyline fill="#EDF0BA" points="730.6,0.9 684.8,46.7 685.1,0.7 		"/>
		<polygon fill="#ECF0B9" points="593.5,46.4 639.6,46.1 639.4,92.2 		"/>
		<polygon opacity="0.91" fill="#D7E19D" points="639.3,92.4 639.6,46.3 685.2,46.5 		"/>
		<polyline fill="#EEF0AF" points="639.4,0.8 639.6,46.3 593.5,46.6 639.4,0.8 		"/>
		<polyline fill="#E4EDB8" points="639.2,0.8 685.2,46.5 639.6,46.3 639.2,0.8 		"/>
		<g>
			<polygon fill="#DDE798" points="639.4,91.9 593.8,91.7 593.4,46.2 			"/>
		</g>
		<polygon fill="#EBEFB1" points="685,46.3 731.1,46 730.8,92.1 		"/>
		<polyline fill="#F1E48D" points="730.8,0.7 731.1,46.3 685,46.6 730.8,0.7 		"/>
		<g>
			<polygon fill="#DDE798" points="685,46.1 685.2,91.6 639.1,91.9 			"/>
			<polygon fill="#F1E48D" points="730.8,91.8 685.2,91.6 684.8,46.1 			"/>
		</g>
	</g>
</g>
<linearGradient id="SVGID_1_" gradientUnits="userSpaceOnUse" x1="4132.9678" y1="2434.199" x2="4131.4976" y2="2522.3962" gradientTransform="matrix(-1 0 0 -1 4749.8242 2846.5977)">
	<stop  offset="0" style="stop-color:#DFDA89"/>
	<stop  offset="1" style="stop-color:#DFDA89;stop-opacity:0"/>
</linearGradient>
<rect y="360.9" fill="url(#SVGID_1_)" width="1233.8" height="95.5"/>
</svg>