<?xml version="1.0" encoding="utf-8"?>
<!-- Generator: Adobe Illustrator 15.0.0, SVG Export Plug-In . SVG Version: 6.00 Build 0)  -->
<!DOCTYPE svg PUBLIC "-//W3C//DTD SVG 1.1//EN" "http://www.w3.org/Graphics/SVG/1.1/DTD/svg11.dtd">
<svg version="1.1" id="Layer_1" xmlns="http://www.w3.org/2000/svg" xmlns:xlink="http://www.w3.org/1999/xlink" x="0px" y="0px"
	 width="197px" height="60.094px" viewBox="0 0 197 60.094" enable-background="new 0 0 197 60.094" xml:space="preserve">
<g>
	<g>
		<polygon fill="#85959D" points="2.291,43.947 7.355,43.947 7.355,43.078 3.515,43.078 3.515,39.045 7.017,39.045 7.017,38.207 
			3.515,38.207 3.515,34.569 7.206,34.569 7.206,33.76 2.291,33.76 		"/>
		<polygon fill="#85959D" points="8.046,43.947 9.24,43.947 11.117,41.083 13.035,43.947 14.35,43.947 11.868,40.273 14.087,36.919 
			12.918,36.919 11.294,39.386 9.653,36.919 8.339,36.919 10.522,40.213 		"/>
		<path fill="#85959D" d="M20.406,43.196c-0.195,0.055-0.38,0.104-0.56,0.145c-0.176,0.042-0.42,0.064-0.722,0.064
			c-0.719-0.021-1.274-0.233-1.669-0.643c-0.392-0.411-0.667-0.909-0.815-1.492c-0.153-0.582-0.227-1.145-0.222-1.679h4.122
			c0.015-0.217-0.015-0.544-0.092-0.988c-0.077-0.447-0.29-0.857-0.644-1.239c-0.355-0.378-0.944-0.582-1.757-0.605
			c-1.019,0.02-1.75,0.346-2.196,0.983c-0.448,0.635-0.664,1.463-0.654,2.484c0.013,1.296,0.329,2.265,0.948,2.913
			c0.622,0.649,1.459,0.973,2.524,0.973c0.385-0.002,0.704-0.026,0.953-0.077c0.253-0.051,0.511-0.12,0.788-0.201v-0.638H20.406z
			 M16.447,38.943c-0.003-0.139,0.031-0.337,0.114-0.582c0.084-0.251,0.235-0.479,0.456-0.685c0.22-0.208,0.54-0.318,0.952-0.331
			c0.415,0.013,0.72,0.102,0.931,0.283c0.206,0.177,0.343,0.388,0.411,0.63c0.066,0.246,0.1,0.476,0.093,0.684L16.447,38.943
			L16.447,38.943z"/>
		<path fill="#85959D" d="M26.934,43.211c-0.189,0.054-0.363,0.098-0.529,0.137c-0.169,0.034-0.391,0.057-0.667,0.057
			c-0.674-0.017-1.209-0.201-1.6-0.563c-0.393-0.357-0.672-0.803-0.835-1.328c-0.165-0.526-0.247-1.049-0.239-1.566
			c-0.004-0.398,0.041-0.796,0.127-1.192c0.092-0.395,0.25-0.728,0.48-0.993c0.229-0.265,0.549-0.404,0.959-0.417
			c0.401,0.015,0.689,0.122,0.863,0.329c0.174,0.208,0.279,0.445,0.318,0.716c0.037,0.27,0.053,0.503,0.045,0.702h1.269
			c0.008-0.654-0.179-1.2-0.554-1.646c-0.381-0.44-1.005-0.67-1.868-0.688c-0.876,0-1.566,0.29-2.083,0.863
			c-0.509,0.575-0.767,1.44-0.78,2.592c-0.008,0.74,0.102,1.406,0.325,1.989c0.225,0.583,0.592,1.048,1.109,1.387
			c0.512,0.342,1.208,0.517,2.08,0.521c0.308,0,0.581-0.021,0.828-0.064c0.248-0.044,0.498-0.105,0.751-0.187v-0.648H26.934z"/>
		<path fill="#85959D" d="M32.813,43.947h1.062v-7.027h-1.091v3.014c0.004,0.466-0.066,0.953-0.197,1.453
			c-0.134,0.5-0.334,0.928-0.611,1.275c-0.275,0.352-0.627,0.534-1.055,0.55c-0.314-0.01-0.562-0.104-0.747-0.283
			c-0.184-0.184-0.316-0.411-0.393-0.673c-0.079-0.268-0.12-0.529-0.116-0.787v-4.549h-1.09v5.021
			c-0.002,0.314,0.059,0.639,0.175,0.971c0.12,0.328,0.304,0.611,0.552,0.84c0.248,0.23,0.567,0.349,0.955,0.359
			c0.461,0.005,0.834-0.052,1.129-0.164c0.29-0.112,0.542-0.307,0.751-0.581c0.21-0.275,0.427-0.648,0.646-1.129h0.029V43.947z"/>
		<path fill="#85959D" d="M39.798,43.317c-0.063,0.023-0.144,0.043-0.243,0.062c-0.097,0.017-0.24,0.026-0.42,0.026
			c-0.583-0.019-0.938-0.187-1.064-0.509c-0.128-0.324-0.179-0.703-0.146-1.132V37.6h1.922v-0.679h-1.922v-2.334l-1.09,0.671v1.663
			h-1.243v0.681h1.243v4.74c-0.01,0.629,0.154,1.081,0.499,1.361c0.341,0.28,0.874,0.414,1.595,0.41
			c0.143,0.002,0.282-0.002,0.415-0.006c0.132-0.008,0.283-0.024,0.456-0.055V43.317z"/>
		<path fill="#85959D" d="M41.416,43.947h1.088v-7.027h-1.088V43.947z M41.337,35.089h1.241V33.76h-1.241V35.089z"/>
		<polygon fill="#85959D" points="46.64,43.947 47.659,43.947 50.183,36.919 49.119,36.919 47.199,42.472 45.06,36.919 
			43.849,36.919 		"/>
		<path fill="#85959D" d="M56.188,43.196c-0.196,0.055-0.381,0.104-0.561,0.145c-0.177,0.042-0.417,0.064-0.723,0.064
			c-0.719-0.021-1.273-0.233-1.667-0.643c-0.395-0.411-0.667-0.909-0.82-1.492c-0.152-0.582-0.227-1.145-0.218-1.679h4.12
			c0.016-0.217-0.016-0.544-0.093-0.988c-0.076-0.447-0.292-0.857-0.646-1.239c-0.356-0.378-0.94-0.582-1.758-0.605
			c-1.015,0.02-1.748,0.346-2.193,0.983c-0.445,0.635-0.664,1.463-0.654,2.484c0.016,1.296,0.327,2.265,0.947,2.913
			c0.62,0.649,1.459,0.973,2.522,0.973c0.385-0.002,0.706-0.026,0.955-0.077c0.249-0.051,0.515-0.12,0.79-0.201L56.188,43.196
			L56.188,43.196z M52.228,38.943c-0.005-0.139,0.035-0.337,0.116-0.582c0.083-0.251,0.232-0.479,0.454-0.685
			c0.221-0.208,0.538-0.318,0.955-0.331c0.411,0.013,0.721,0.102,0.926,0.283c0.209,0.177,0.349,0.388,0.415,0.63
			c0.065,0.246,0.094,0.476,0.089,0.684L52.228,38.943L52.228,38.943z"/>
		<path fill="#85959D" d="M62.039,43.947h1.68c1.04,0.02,1.938-0.101,2.694-0.362c0.753-0.256,1.338-0.759,1.749-1.504
			c0.411-0.744,0.619-1.842,0.624-3.287c0-1.274-0.184-2.279-0.552-3.018c-0.368-0.735-0.912-1.258-1.641-1.568
			c-0.729-0.309-1.631-0.455-2.71-0.447h-1.842v10.187H62.039z M63.262,34.569h0.771c0.76-0.01,1.397,0.105,1.907,0.34
			c0.509,0.241,0.893,0.676,1.15,1.313c0.251,0.635,0.38,1.543,0.38,2.719c0.018,1.442-0.24,2.494-0.769,3.157
			c-0.526,0.665-1.416,0.991-2.669,0.98h-0.771V34.569z"/>
		<path fill="#85959D" d="M75.42,43.196c-0.195,0.055-0.382,0.104-0.56,0.145c-0.177,0.042-0.42,0.064-0.723,0.064
			c-0.719-0.021-1.274-0.233-1.667-0.643c-0.393-0.411-0.67-0.909-0.821-1.492c-0.154-0.582-0.227-1.145-0.219-1.679h4.121
			c0.015-0.217-0.015-0.544-0.094-0.988c-0.075-0.447-0.291-0.857-0.644-1.239c-0.356-0.378-0.942-0.582-1.755-0.605
			c-1.018,0.02-1.751,0.346-2.196,0.983c-0.447,0.635-0.662,1.463-0.654,2.484c0.014,1.296,0.329,2.265,0.948,2.913
			c0.619,0.649,1.459,0.973,2.521,0.973c0.386-0.002,0.704-0.026,0.956-0.077c0.249-0.051,0.512-0.12,0.788-0.201L75.42,43.196
			L75.42,43.196z M71.461,38.943c-0.005-0.139,0.031-0.337,0.113-0.582c0.083-0.251,0.237-0.479,0.458-0.685
			c0.218-0.208,0.538-0.318,0.95-0.331c0.413,0.013,0.724,0.102,0.931,0.283c0.209,0.177,0.34,0.388,0.411,0.63
			c0.066,0.246,0.099,0.476,0.092,0.684L71.461,38.943L71.461,38.943z"/>
		<polygon fill="#85959D" points="79.098,43.947 80.117,43.947 82.639,36.919 81.579,36.919 79.658,42.472 77.516,36.919 
			76.305,36.919 		"/>
		<path fill="#85959D" d="M88.644,43.196c-0.195,0.055-0.378,0.104-0.557,0.145c-0.177,0.042-0.42,0.064-0.726,0.064
			c-0.716-0.021-1.271-0.233-1.667-0.643c-0.393-0.411-0.666-0.909-0.818-1.492c-0.153-0.582-0.229-1.145-0.218-1.679h4.123
			c0.012-0.217-0.018-0.544-0.094-0.988c-0.079-0.447-0.293-0.857-0.647-1.239c-0.353-0.378-0.939-0.582-1.755-0.605
			c-1.017,0.02-1.751,0.346-2.196,0.983c-0.445,0.635-0.665,1.463-0.654,2.484c0.013,1.296,0.329,2.265,0.948,2.913
			c0.62,0.649,1.459,0.973,2.522,0.973c0.386-0.002,0.707-0.026,0.958-0.077c0.249-0.051,0.51-0.12,0.784-0.201L88.644,43.196
			L88.644,43.196z M84.686,38.943c-0.004-0.139,0.032-0.337,0.117-0.582c0.079-0.251,0.231-0.479,0.453-0.685
			c0.221-0.208,0.54-0.318,0.953-0.331c0.413,0.013,0.724,0.102,0.931,0.283c0.206,0.177,0.342,0.388,0.411,0.63
			c0.069,0.246,0.103,0.476,0.095,0.684L84.686,38.943L84.686,38.943z"/>
		<rect x="90.64" y="33.76" fill="#85959D" width="1.092" height="10.187"/>
		<path fill="#85959D" d="M96.633,44.11c1.046-0.005,1.815-0.323,2.315-0.946c0.499-0.625,0.744-1.512,0.744-2.657
			c0-1.14-0.244-2.041-0.744-2.716c-0.499-0.673-1.269-1.017-2.315-1.032c-1.042,0.017-1.8,0.359-2.279,1.032
			c-0.474,0.675-0.711,1.578-0.701,2.716c-0.011,1.146,0.227,2.032,0.701,2.657C94.833,43.787,95.591,44.105,96.633,44.11z
			 M94.875,40.552c-0.004-0.523,0.035-1.027,0.122-1.516c0.087-0.486,0.256-0.887,0.509-1.201c0.256-0.316,0.629-0.478,1.127-0.491
			c0.501,0.014,0.885,0.175,1.154,0.491c0.264,0.316,0.443,0.716,0.542,1.201c0.097,0.488,0.142,0.992,0.136,1.516
			c0.006,0.492-0.039,0.964-0.136,1.41c-0.101,0.451-0.28,0.821-0.542,1.111c-0.27,0.286-0.652,0.437-1.154,0.449
			c-0.498-0.013-0.872-0.162-1.127-0.449c-0.253-0.29-0.422-0.661-0.509-1.111C94.909,41.516,94.871,41.044,94.875,40.552z"/>
		<path fill="#85959D" d="M101.54,47.108h1.089v-4.414h0.029c0.052,0.157,0.141,0.348,0.269,0.566
			c0.13,0.216,0.324,0.412,0.581,0.584c0.258,0.168,0.6,0.26,1.028,0.267c0.603-0.005,1.091-0.172,1.464-0.495
			c0.374-0.32,0.648-0.751,0.819-1.29c0.173-0.54,0.256-1.143,0.254-1.801c0.002-1.126-0.195-2.031-0.601-2.712
			c-0.402-0.684-1.022-1.035-1.861-1.055c-0.382,0.011-0.707,0.105-0.978,0.28c-0.274,0.177-0.487,0.38-0.651,0.62
			c-0.161,0.231-0.271,0.438-0.324,0.621h-0.029v-1.358h-1.089V47.108z M102.629,40.375c0.004-0.486,0.077-0.95,0.221-1.393
			c0.146-0.438,0.344-0.803,0.598-1.082s0.546-0.425,0.884-0.436c0.51,0.019,0.89,0.307,1.142,0.868
			c0.25,0.562,0.377,1.285,0.377,2.177c0.003,0.447-0.037,0.894-0.123,1.335c-0.086,0.438-0.242,0.806-0.464,1.101
			c-0.213,0.294-0.523,0.449-0.92,0.459c-0.435-0.021-0.775-0.205-1.029-0.555c-0.248-0.353-0.427-0.762-0.532-1.229
			C102.678,41.154,102.624,40.738,102.629,40.375z"/>
		<path fill="#85959D" d="M108.924,43.947h1.089v-3.011c0-0.47,0.063-0.955,0.192-1.453c0.132-0.501,0.328-0.929,0.596-1.277
			c0.271-0.35,0.613-0.535,1.03-0.549c0.324,0.01,0.55,0.104,0.686,0.286c0.143,0.181,0.225,0.403,0.256,0.668
			c0.028,0.267,0.041,0.53,0.034,0.788v4.548h1.091v-3.158c-0.004-0.4,0.063-0.844,0.189-1.323c0.127-0.482,0.323-0.896,0.591-1.253
			c0.265-0.352,0.605-0.538,1.021-0.554c0.325,0.01,0.558,0.104,0.696,0.285c0.143,0.176,0.23,0.39,0.257,0.629
			c0.034,0.241,0.045,0.459,0.037,0.647v4.727h1.094v-5.213c0-0.586-0.142-1.058-0.422-1.421c-0.282-0.359-0.709-0.541-1.276-0.555
			c-0.448,0.014-0.818,0.139-1.116,0.369c-0.301,0.234-0.532,0.494-0.702,0.78c-0.169,0.285-0.281,0.518-0.336,0.694h-0.033
			c0-0.27-0.051-0.546-0.164-0.826c-0.109-0.282-0.29-0.52-0.538-0.715c-0.246-0.194-0.574-0.294-0.979-0.305
			c-0.606,0.023-1.078,0.228-1.422,0.613c-0.343,0.385-0.604,0.809-0.781,1.277h-0.027v-1.728h-1.061L108.924,43.947L108.924,43.947
			z"/>
		<path fill="#85959D" d="M124.83,43.196c-0.195,0.055-0.381,0.104-0.563,0.145c-0.177,0.042-0.414,0.064-0.722,0.064
			c-0.719-0.021-1.273-0.233-1.667-0.643c-0.395-0.411-0.666-0.909-0.817-1.492c-0.153-0.582-0.227-1.145-0.22-1.679h4.121
			c0.018-0.217-0.015-0.544-0.09-0.988c-0.076-0.447-0.296-0.857-0.651-1.239c-0.354-0.378-0.938-0.582-1.754-0.605
			c-1.018,0.02-1.751,0.346-2.196,0.983c-0.444,0.635-0.664,1.463-0.653,2.484c0.013,1.296,0.328,2.265,0.95,2.913
			c0.616,0.649,1.457,0.973,2.521,0.973c0.385-0.002,0.705-0.026,0.953-0.077c0.252-0.051,0.512-0.12,0.789-0.201L124.83,43.196
			L124.83,43.196z M120.871,38.943c-0.006-0.139,0.031-0.337,0.113-0.582c0.085-0.251,0.234-0.479,0.455-0.685
			c0.22-0.208,0.541-0.318,0.953-0.331c0.414,0.013,0.723,0.102,0.931,0.283c0.206,0.177,0.343,0.388,0.41,0.63
			c0.069,0.246,0.099,0.476,0.091,0.684L120.871,38.943L120.871,38.943z"/>
		<path fill="#85959D" d="M126.777,43.947h1.094v-3.011c0-0.47,0.077-0.955,0.229-1.453c0.149-0.501,0.386-0.929,0.7-1.277
			c0.317-0.35,0.722-0.535,1.211-0.549c0.322,0.01,0.548,0.104,0.69,0.286c0.137,0.181,0.224,0.403,0.248,0.668
			c0.032,0.267,0.045,0.53,0.04,0.788v4.548h1.092v-5.345c0-0.27-0.056-0.546-0.165-0.826c-0.11-0.282-0.292-0.52-0.537-0.715
			c-0.249-0.194-0.578-0.294-0.982-0.305c-0.687,0.023-1.226,0.228-1.624,0.613c-0.395,0.385-0.695,0.809-0.903,1.277h-0.029v-1.728
			h-1.063V43.947z"/>
		<path fill="#85959D" d="M137.946,43.317c-0.064,0.023-0.144,0.043-0.242,0.062c-0.102,0.017-0.239,0.026-0.423,0.026
			c-0.582-0.019-0.934-0.187-1.066-0.509c-0.13-0.324-0.177-0.703-0.144-1.132V37.6h1.921v-0.679h-1.921v-2.334l-1.093,0.671v1.663
			h-1.237v0.681h1.237v4.74c-0.01,0.629,0.158,1.081,0.501,1.361c0.342,0.28,0.872,0.414,1.595,0.41
			c0.146,0.002,0.281-0.002,0.416-0.006c0.129-0.008,0.281-0.024,0.456-0.055V43.317L137.946,43.317z"/>
		<polygon fill="#85959D" points="143.401,43.947 148.201,43.947 148.201,43.078 144.625,43.078 144.625,33.76 143.401,33.76 		"/>
		<path fill="#85959D" d="M152.882,43.317c-0.063,0.023-0.143,0.043-0.244,0.062c-0.1,0.017-0.24,0.026-0.419,0.026
			c-0.582-0.019-0.934-0.187-1.063-0.509c-0.13-0.324-0.18-0.703-0.147-1.132V37.6h1.923v-0.679h-1.923v-2.334l-1.09,0.671v1.663
			h-1.238v0.681h1.238v4.74c-0.012,0.629,0.156,1.081,0.5,1.361c0.34,0.28,0.873,0.414,1.594,0.41
			c0.145,0.002,0.281-0.002,0.413-0.006c0.13-0.008,0.281-0.024,0.456-0.055L152.882,43.317L152.882,43.317z"/>
		<path fill="#85959D" d="M158.38,43.947h1.093V33.76h-1.093v4.412h-0.03c-0.045-0.15-0.139-0.337-0.268-0.555
			c-0.129-0.222-0.325-0.416-0.582-0.587c-0.26-0.172-0.604-0.262-1.039-0.272c-0.59,0.011-1.07,0.179-1.444,0.512
			c-0.37,0.329-0.644,0.773-0.82,1.329c-0.175,0.556-0.261,1.17-0.261,1.851c-0.008,0.634,0.061,1.229,0.196,1.781
			c0.136,0.553,0.378,1.002,0.724,1.346c0.344,0.348,0.832,0.522,1.457,0.533c0.431-0.011,0.788-0.107,1.07-0.289
			c0.288-0.183,0.506-0.39,0.662-0.626c0.154-0.237,0.258-0.435,0.303-0.604h0.03v1.356H158.38z M155.16,40.523
			c-0.004-0.5,0.037-0.985,0.132-1.448c0.089-0.466,0.242-0.846,0.462-1.146c0.215-0.3,0.518-0.452,0.896-0.464
			c0.435,0.02,0.781,0.204,1.035,0.55c0.253,0.347,0.433,0.743,0.538,1.184c0.107,0.441,0.161,0.805,0.155,1.104
			c-0.008,0.897-0.175,1.628-0.498,2.195c-0.325,0.568-0.765,0.859-1.32,0.879c-0.37-0.015-0.656-0.157-0.863-0.436
			c-0.201-0.28-0.346-0.632-0.425-1.066C155.193,41.441,155.156,40.99,155.16,40.523z"/>
	</g>
	<g>
		<path fill="#85959D" d="M20.747,6.034V19.97c0,1.425-0.071,2.621-0.213,3.59c-0.143,0.968-0.474,1.879-0.993,2.731
			c-0.52,0.847-1.335,1.522-2.442,2.02c-1.107,0.498-2.56,0.748-4.354,0.748c-1.921,0-3.48-0.298-4.686-0.894
			c-1.208-0.599-2.073-1.468-2.606-2.615c-0.533-1.144-0.799-2.581-0.799-4.312V10.477c0-1.006-0.055-1.699-0.164-2.068
			C4.38,8.036,4.125,7.778,3.726,7.636C3.325,7.492,2.51,7.339,1.282,7.175V6.435L8.36,5.664v13.909c0,1.28,0.029,2.322,0.089,3.123
			c0.061,0.799,0.244,1.581,0.552,2.339c0.306,0.763,0.793,1.359,1.461,1.792c0.67,0.436,1.568,0.652,2.699,0.652
			c1.235,0,2.216-0.2,2.935-0.603c0.718-0.397,1.229-0.927,1.537-1.579c0.308-0.652,0.497-1.356,0.578-2.111
			c0.074-0.758,0.114-1.706,0.114-2.845V6.034H20.747z"/>
		<path fill="#85959D" d="M38.511,6.273v2.501c-0.658-0.337-1.53-0.679-2.622-1.019c-1.086-0.338-2.219-0.51-3.393-0.51
			c-0.951,0-1.725,0.282-2.33,0.839c-0.602,0.557-0.903,1.369-0.903,2.431c0,1.129,0.404,2.006,1.209,2.628
			c0.803,0.624,2.141,1.426,4.015,2.406c1.871,0.979,3.295,1.965,4.266,2.959c0.967,0.988,1.452,2.296,1.452,3.917
			c0,2.253-0.781,3.927-2.343,5.01c-1.562,1.083-3.596,1.625-6.105,1.625c-0.714,0-1.482-0.053-2.311-0.164
			c-0.829-0.108-1.549-0.232-2.168-0.367c-0.622-0.135-1.094-0.25-1.422-0.349v-2.722c2.333,1.345,4.479,2.02,6.44,2.02
			c1.227,0,2.233-0.301,3.021-0.905c0.789-0.602,1.185-1.612,1.185-3.024c0-1.205-0.428-2.156-1.291-2.85
			c-0.858-0.696-2.211-1.531-4.052-2.5c-1.838-0.969-3.233-1.937-4.184-2.899c-0.944-0.965-1.419-2.236-1.419-3.816
			c0-1.228,0.304-2.276,0.906-3.146c0.601-0.872,1.472-1.536,2.606-1.992c1.133-0.455,2.49-0.68,4.069-0.68
			c0.524,0,1.039,0.02,1.541,0.06c0.501,0.038,1.037,0.096,1.602,0.171c0.567,0.077,1.06,0.153,1.48,0.231
			C38.185,6.202,38.433,6.252,38.511,6.273z"/>
		<path fill="#85959D" d="M44.891,28.689V10.606c0-1.227-0.053-2.048-0.156-2.465c-0.108-0.417-0.348-0.702-0.731-0.855
			s-1.151-0.323-2.303-0.51V6.034h9.986c5.324,0,7.985,1.815,7.985,5.44c0,2.537-1.346,4.245-4.034,5.133v0.063
			c1.48,0.286,2.713,0.873,3.698,1.76c0.988,0.888,1.483,2.295,1.483,4.226c0,1.405-0.346,2.529-1.029,3.38
			c-0.687,0.848-1.527,1.457-2.522,1.825c-1,0.366-1.982,0.594-2.949,0.688c-0.973,0.096-2.005,0.141-3.098,0.141L44.891,28.689
			L44.891,28.689z M48.595,9.358v6.573h2.256c1.588,0,2.839-0.323,3.752-0.969c0.907-0.648,1.367-1.749,1.367-3.304
			c0-1.466-0.398-2.508-1.187-3.123c-0.791-0.612-1.991-0.921-3.606-0.921c-1.076,0-1.772,0.094-2.1,0.282
			C48.756,8.081,48.595,8.569,48.595,9.358z M48.595,17.512v8.215c0,0.627,0.249,1.01,0.749,1.156
			c0.497,0.146,1.323,0.223,2.474,0.223c1.854,0,3.198-0.416,4.039-1.25c0.835-0.828,1.255-2.11,1.255-3.839
			c0-1.567-0.506-2.71-1.521-3.429c-1.013-0.716-2.327-1.076-3.939-1.076H48.595z"/>
	</g>
	<g>
		<path fill="#85959D" d="M65,19.165c0-5.095,9.796-9.226,9.796-9.226s3.959,1.665,6.844,4.185
			c-1.654,1.448-2.957,3.178-2.957,5.036c0,1.859,1.302,3.589,2.957,5.038c-2.885,2.525-6.844,4.195-6.844,4.195
			S65,24.259,65,19.165z"/>
		<path fill="#938B33" d="M88.472,9.938c0,0,3.962,1.668,6.846,4.192c-1.648,1.446-2.947,3.174-2.947,5.028
			c0,1.859,1.304,3.589,2.958,5.038c-2.887,2.525-6.856,4.192-6.856,4.192s-3.952-1.675-6.838-4.196
			c1.659-1.448,2.959-3.179,2.959-5.036c0-1.857-1.3-3.586-2.959-5.036C84.52,11.599,88.472,9.938,88.472,9.938z"/>
		<path fill="#A91D39" d="M95.332,14.124c2.885-2.521,6.839-4.185,6.839-4.185s9.801,4.131,9.801,9.226
			c0,5.095-9.801,9.227-9.801,9.227s-3.954-1.671-6.839-4.195c1.657-1.449,2.957-3.179,2.957-5.038
			C98.289,17.302,96.989,15.571,95.332,14.124z"/>
		<g>
			<circle fill="#938B33" stroke="#938B33" stroke-width="0.2978" stroke-miterlimit="3.8637" cx="88.86" cy="2.661" r="3.078"/>
			<circle fill="#85959D" stroke="#85959D" stroke-width="0.2978" stroke-miterlimit="3.8637" cx="75.169" cy="2.778" r="3.078"/>
			<circle fill="#A91D39" stroke="#A91D39" stroke-width="0.2978" stroke-miterlimit="3.8637" cx="102.545" cy="2.794" r="3.077"/>
		</g>
	</g>
	<g>
		<path fill="#85959D" d="M7.675,50.531H6.738v4.86c0.011,0.354-0.009,0.724-0.06,1.104c-0.049,0.381-0.191,0.703-0.422,0.972
			c-0.229,0.268-0.609,0.404-1.139,0.417c-0.537-0.015-0.922-0.151-1.154-0.419c-0.235-0.268-0.378-0.589-0.431-0.971
			c-0.047-0.38-0.069-0.752-0.057-1.105v-4.86h-0.94v4.883c-0.017,0.408,0.016,0.851,0.095,1.316
			c0.077,0.469,0.299,0.873,0.663,1.21c0.361,0.339,0.957,0.516,1.79,0.53c0.848-0.015,1.458-0.191,1.828-0.53
			c0.366-0.337,0.592-0.741,0.671-1.21c0.082-0.466,0.111-0.908,0.094-1.316L7.675,50.531L7.675,50.531z"/>
		<path fill="#85959D" d="M9.583,58.344h0.841v-2.309c0-0.362,0.056-0.731,0.172-1.115c0.117-0.387,0.298-0.711,0.54-0.98
			c0.244-0.269,0.555-0.409,0.933-0.42c0.244,0.007,0.417,0.079,0.524,0.22c0.108,0.141,0.171,0.311,0.197,0.514
			c0.02,0.202,0.029,0.406,0.023,0.604v3.487h0.838v-4.1c0.004-0.206-0.039-0.417-0.125-0.633c-0.085-0.215-0.225-0.398-0.411-0.547
			c-0.189-0.149-0.443-0.227-0.754-0.233c-0.529,0.017-0.94,0.175-1.246,0.47c-0.304,0.294-0.535,0.617-0.692,0.979h-0.024v-1.324
			H9.583V58.344z"/>
		<path fill="#85959D" d="M15.613,58.344h0.839v-5.389h-0.839V58.344z M15.556,51.549h0.953v-1.019h-0.953V51.549z"/>
		<polygon fill="#85959D" points="19.737,58.344 20.518,58.344 22.453,52.956 21.64,52.956 20.167,57.213 18.526,52.956 
			17.595,52.956 		"/>
		<path fill="#85959D" d="M27.175,57.77c-0.152,0.038-0.293,0.077-0.431,0.108c-0.137,0.033-0.324,0.047-0.557,0.05
			c-0.549-0.014-0.976-0.177-1.278-0.491c-0.3-0.317-0.509-0.701-0.627-1.147c-0.118-0.445-0.177-0.877-0.167-1.286h3.159
			c0.013-0.163-0.012-0.418-0.072-0.759c-0.061-0.339-0.225-0.657-0.495-0.949c-0.275-0.289-0.719-0.445-1.349-0.464
			c-0.78,0.015-1.34,0.267-1.683,0.754c-0.341,0.485-0.507,1.121-0.502,1.905c0.01,0.993,0.254,1.735,0.729,2.234
			c0.472,0.498,1.116,0.745,1.934,0.745c0.295-0.002,0.54-0.02,0.733-0.057c0.189-0.04,0.393-0.095,0.604-0.156V57.77z
			 M24.136,54.506c-0.003-0.108,0.028-0.258,0.087-0.449c0.064-0.191,0.182-0.366,0.351-0.524c0.168-0.157,0.412-0.241,0.73-0.254
			c0.319,0.01,0.552,0.079,0.715,0.215c0.158,0.139,0.26,0.299,0.313,0.489c0.052,0.188,0.074,0.36,0.072,0.523H24.136z"/>
		<path fill="#85959D" d="M28.784,58.344h0.835v-2.548c-0.003-0.334,0.042-0.651,0.133-0.952c0.091-0.298,0.248-0.544,0.467-0.735
			c0.221-0.19,0.529-0.286,0.92-0.297h0.237v-0.98c-0.292,0.007-0.551,0.084-0.776,0.233c-0.232,0.146-0.429,0.327-0.587,0.543
			c-0.159,0.215-0.283,0.424-0.374,0.627H29.62v-1.279h-0.835V58.344z"/>
		<path fill="#85959D" d="M35.036,53.024c-0.111-0.029-0.276-0.066-0.498-0.116c-0.222-0.043-0.472-0.071-0.758-0.076
			c-0.618,0-1.074,0.133-1.383,0.389c-0.309,0.252-0.463,0.615-0.463,1.082c0.019,0.445,0.174,0.776,0.475,0.993
			c0.296,0.222,0.627,0.422,0.985,0.605c0.325,0.177,0.597,0.344,0.815,0.501c0.216,0.159,0.331,0.368,0.34,0.631
			c-0.009,0.303-0.122,0.526-0.333,0.666c-0.213,0.137-0.481,0.209-0.801,0.207c-0.364-0.017-0.688-0.096-0.975-0.232
			c-0.287-0.133-0.462-0.229-0.533-0.277v0.847c0.13,0.054,0.316,0.106,0.552,0.151c0.238,0.047,0.54,0.072,0.91,0.074
			c0.701-0.014,1.213-0.175,1.537-0.483c0.325-0.309,0.483-0.678,0.477-1.11c-0.007-0.372-0.094-0.671-0.266-0.892
			c-0.173-0.218-0.395-0.402-0.661-0.549c-0.483-0.267-0.888-0.485-1.216-0.665c-0.324-0.179-0.495-0.422-0.504-0.727
			c0.004-0.222,0.1-0.386,0.281-0.49c0.179-0.106,0.396-0.157,0.647-0.155c0.323,0.01,0.606,0.068,0.855,0.177
			c0.247,0.105,0.417,0.191,0.515,0.251v-0.801H35.036z"/>
		<path fill="#85959D" d="M36.65,58.344h0.836v-5.389H36.65V58.344z M36.593,51.549h0.949v-1.019h-0.949V51.549z"/>
		<path fill="#85959D" d="M42.142,57.857c-0.048,0.021-0.111,0.035-0.187,0.049c-0.077,0.015-0.185,0.022-0.326,0.022
			c-0.442-0.014-0.715-0.145-0.815-0.391c-0.098-0.249-0.134-0.535-0.109-0.866v-3.195h1.473v-0.521h-1.473v-1.789l-0.838,0.512
			v1.277h-0.952v0.521h0.952v3.636c-0.007,0.485,0.12,0.833,0.383,1.046c0.264,0.216,0.672,0.319,1.224,0.313
			c0.11,0.003,0.216-0.002,0.318-0.006c0.103-0.004,0.219-0.019,0.352-0.038L42.142,57.857L42.142,57.857z"/>
		<polygon fill="#85959D" points="44.012,60.512 44.772,60.512 47.515,52.956 46.665,52.956 45.192,57.192 43.549,52.956 
			42.608,52.956 44.748,58.381 		"/>
		<path fill="#85959D" d="M53.558,58.468c0.802-0.004,1.393-0.245,1.778-0.725c0.38-0.479,0.57-1.159,0.564-2.037
			c0.006-0.872-0.185-1.566-0.564-2.085c-0.385-0.516-0.977-0.777-1.778-0.792c-0.801,0.015-1.382,0.276-1.748,0.792
			c-0.366,0.519-0.544,1.213-0.541,2.085c-0.005,0.878,0.174,1.558,0.541,2.037C52.175,58.223,52.758,58.464,53.558,58.468z
			 M52.209,55.739c-0.003-0.4,0.024-0.786,0.096-1.16c0.063-0.371,0.196-0.681,0.392-0.922c0.193-0.243,0.481-0.365,0.862-0.376
			c0.386,0.013,0.68,0.133,0.883,0.376c0.204,0.24,0.343,0.549,0.417,0.922c0.072,0.374,0.109,0.76,0.107,1.16
			c0.003,0.382-0.034,0.739-0.107,1.087c-0.074,0.343-0.214,0.628-0.417,0.848c-0.203,0.223-0.498,0.334-0.883,0.346
			c-0.38-0.012-0.67-0.123-0.862-0.346c-0.196-0.22-0.329-0.505-0.392-0.848C52.233,56.478,52.206,56.121,52.209,55.739z"/>
		<path fill="#85959D" d="M57.885,58.344h0.841v-4.87h1.561v-0.519h-1.561v-0.66c-0.023-0.294,0.036-0.573,0.168-0.837
			c0.132-0.266,0.44-0.402,0.931-0.42c0.181,0.003,0.343,0.026,0.484,0.073c0.139,0.049,0.266,0.101,0.386,0.152v-0.666
			c-0.1-0.021-0.225-0.041-0.368-0.065c-0.148-0.021-0.33-0.035-0.549-0.037c-0.565,0.005-0.984,0.104-1.256,0.301
			c-0.273,0.194-0.445,0.45-0.526,0.766c-0.083,0.317-0.118,0.665-0.109,1.039v0.353h-0.995v0.521h0.995v4.87H57.885z"/>
		<path fill="#85959D" d="M68.166,50.6c-0.174-0.038-0.417-0.08-0.735-0.122c-0.319-0.044-0.637-0.067-0.953-0.069
			c-0.762,0.002-1.356,0.175-1.791,0.51c-0.436,0.339-0.66,0.824-0.668,1.458c0.008,0.508,0.141,0.913,0.391,1.214
			c0.249,0.304,0.551,0.542,0.908,0.721c0.393,0.209,0.768,0.404,1.125,0.59c0.355,0.184,0.646,0.399,0.875,0.634
			c0.225,0.238,0.341,0.537,0.348,0.896c-0.002,0.449-0.15,0.788-0.435,1.021c-0.284,0.231-0.676,0.347-1.174,0.349
			c-0.39-0.01-0.761-0.078-1.111-0.198c-0.353-0.124-0.633-0.238-0.848-0.345v0.974c0.105,0.034,0.314,0.083,0.634,0.142
			c0.318,0.059,0.714,0.091,1.176,0.095c0.792,0.005,1.446-0.17,1.962-0.527c0.517-0.362,0.786-0.923,0.803-1.69
			c0-0.492-0.105-0.875-0.316-1.144c-0.211-0.272-0.527-0.542-0.953-0.805c-0.359-0.219-0.721-0.42-1.103-0.603
			c-0.379-0.182-0.701-0.391-0.965-0.625c-0.263-0.23-0.403-0.535-0.415-0.901c0.008-0.341,0.135-0.616,0.38-0.826
			c0.246-0.209,0.575-0.313,0.992-0.319c0.388,0.008,0.749,0.067,1.087,0.177c0.338,0.11,0.597,0.21,0.783,0.299V50.6H68.166z"/>
		<path fill="#85959D" d="M72.749,57.857c-0.048,0.021-0.109,0.035-0.187,0.049c-0.077,0.015-0.185,0.022-0.321,0.022
			c-0.449-0.014-0.721-0.145-0.821-0.391c-0.1-0.249-0.136-0.535-0.112-0.866v-3.195h1.472v-0.521h-1.472v-1.789l-0.836,0.512v1.277
			h-0.95v0.521h0.95v3.636c-0.007,0.485,0.12,0.833,0.384,1.046c0.263,0.216,0.673,0.319,1.223,0.313
			c0.111,0.003,0.217-0.002,0.319-0.006c0.1-0.004,0.218-0.019,0.351-0.038V57.857z"/>
		<path fill="#85959D" d="M77.655,57.77c-0.146,0.038-0.29,0.077-0.427,0.108c-0.137,0.033-0.323,0.047-0.557,0.05
			c-0.546-0.014-0.975-0.177-1.278-0.491c-0.301-0.317-0.512-0.701-0.627-1.147c-0.116-0.445-0.173-0.877-0.169-1.286h3.164
			c0.011-0.163-0.012-0.418-0.071-0.759c-0.058-0.339-0.224-0.657-0.495-0.949c-0.271-0.289-0.724-0.445-1.351-0.464
			c-0.776,0.015-1.337,0.267-1.681,0.754c-0.343,0.485-0.509,1.121-0.502,1.905c0.01,0.993,0.254,1.735,0.729,2.234
			c0.472,0.498,1.116,0.745,1.931,0.745c0.296-0.002,0.54-0.02,0.734-0.057c0.193-0.04,0.392-0.095,0.601-0.156L77.655,57.77
			L77.655,57.77z M74.622,54.506c-0.005-0.108,0.027-0.258,0.086-0.449c0.063-0.191,0.18-0.366,0.35-0.524
			c0.168-0.157,0.412-0.241,0.73-0.254c0.319,0.01,0.555,0.079,0.714,0.215c0.16,0.139,0.264,0.299,0.316,0.489
			c0.05,0.188,0.074,0.36,0.07,0.523H74.622z"/>
		<rect x="79.302" y="50.531" fill="#85959D" width="0.836" height="7.813"/>
		<rect x="82.146" y="50.531" fill="#85959D" width="0.836" height="7.813"/>
		<path fill="#85959D" d="M88.556,57.77c-0.152,0.038-0.296,0.077-0.433,0.108c-0.135,0.033-0.322,0.047-0.555,0.05
			c-0.549-0.014-0.977-0.177-1.278-0.491c-0.3-0.317-0.509-0.701-0.627-1.147c-0.116-0.445-0.175-0.877-0.169-1.286h3.16
			c0.013-0.163-0.012-0.418-0.071-0.759c-0.058-0.34-0.224-0.657-0.494-0.95c-0.271-0.29-0.721-0.445-1.348-0.465
			c-0.781,0.017-1.343,0.267-1.684,0.755c-0.34,0.485-0.509,1.122-0.502,1.904c0.014,0.995,0.257,1.736,0.729,2.234
			c0.475,0.499,1.119,0.745,1.931,0.745c0.298-0.002,0.545-0.019,0.734-0.057c0.192-0.04,0.393-0.094,0.606-0.156V57.77z
			 M85.52,54.506c-0.008-0.108,0.024-0.258,0.086-0.449c0.063-0.191,0.177-0.366,0.349-0.524c0.169-0.157,0.41-0.241,0.73-0.254
			c0.316,0.01,0.555,0.079,0.715,0.215c0.156,0.139,0.261,0.299,0.313,0.489c0.053,0.188,0.077,0.36,0.07,0.523H85.52z"/>
		<path fill="#85959D" d="M90.166,58.344H91v-2.309c-0.003-0.362,0.058-0.731,0.176-1.115c0.114-0.387,0.293-0.711,0.535-0.98
			c0.246-0.269,0.555-0.409,0.932-0.42c0.243,0.007,0.42,0.079,0.527,0.22c0.105,0.141,0.169,0.311,0.192,0.514
			c0.024,0.202,0.033,0.406,0.03,0.604v3.487h0.838v-4.1c0-0.206-0.04-0.417-0.127-0.633c-0.084-0.215-0.222-0.398-0.412-0.547
			c-0.192-0.149-0.441-0.227-0.754-0.233c-0.525,0.017-0.94,0.175-1.244,0.47C91.391,53.594,91.16,53.918,91,54.28h-0.023v-1.324
			h-0.812V58.344z"/>
		<path fill="#85959D" d="M96.837,50.531h-0.838v5.223c-0.012,0.309,0.013,0.672,0.08,1.091c0.064,0.42,0.248,0.792,0.548,1.112
			c0.302,0.325,0.799,0.495,1.488,0.512c0.712,0.002,1.27-0.226,1.669-0.687c0.397-0.459,0.604-1.159,0.611-2.098
			c-0.006-0.876-0.172-1.57-0.507-2.078c-0.333-0.51-0.823-0.766-1.465-0.776c-0.316,0.007-0.58,0.075-0.794,0.21
			c-0.212,0.134-0.379,0.286-0.504,0.454c-0.124,0.173-0.213,0.316-0.263,0.436h-0.025V50.531z M96.837,55.833
			c-0.002-0.344,0.041-0.701,0.125-1.075c0.089-0.377,0.23-0.698,0.433-0.969c0.201-0.266,0.472-0.405,0.813-0.414
			c0.329,0.009,0.585,0.139,0.765,0.38c0.183,0.243,0.313,0.548,0.379,0.907c0.071,0.363,0.106,0.722,0.104,1.079
			c0,0.368-0.037,0.719-0.114,1.051c-0.079,0.332-0.222,0.601-0.418,0.81c-0.197,0.212-0.467,0.319-0.814,0.326
			c-0.359-0.008-0.625-0.117-0.808-0.326c-0.185-0.211-0.309-0.473-0.374-0.793C96.862,56.489,96.833,56.164,96.837,55.833z"/>
		<path fill="#85959D" d="M103.827,58.468c0.802-0.004,1.396-0.245,1.776-0.725c0.38-0.479,0.571-1.159,0.569-2.037
			c0.002-0.872-0.189-1.566-0.569-2.085c-0.381-0.516-0.977-0.777-1.776-0.792c-0.799,0.015-1.38,0.276-1.748,0.792
			c-0.364,0.519-0.543,1.213-0.541,2.085c-0.005,0.878,0.177,1.558,0.541,2.037C102.447,58.223,103.029,58.464,103.827,58.468z
			 M102.479,55.739c-0.005-0.4,0.023-0.786,0.094-1.16c0.066-0.371,0.196-0.681,0.393-0.922c0.195-0.243,0.481-0.365,0.861-0.376
			c0.386,0.013,0.68,0.133,0.884,0.376c0.203,0.24,0.343,0.549,0.417,0.922c0.074,0.374,0.108,0.76,0.104,1.16
			c0.006,0.382-0.029,0.739-0.104,1.087c-0.074,0.343-0.214,0.628-0.417,0.848c-0.203,0.223-0.498,0.334-0.884,0.346
			c-0.38-0.012-0.666-0.123-0.861-0.346c-0.196-0.22-0.326-0.505-0.393-0.848C102.505,56.478,102.476,56.121,102.479,55.739z"/>
		<path fill="#85959D" d="M110.238,53.024c-0.11-0.029-0.276-0.066-0.496-0.116c-0.222-0.043-0.474-0.071-0.76-0.076
			c-0.614,0-1.07,0.133-1.386,0.389c-0.306,0.252-0.459,0.615-0.461,1.082c0.021,0.445,0.177,0.776,0.478,0.993
			c0.301,0.222,0.627,0.422,0.981,0.605c0.327,0.177,0.602,0.344,0.818,0.501c0.218,0.159,0.329,0.368,0.34,0.631
			c-0.011,0.303-0.122,0.526-0.33,0.666c-0.219,0.137-0.485,0.209-0.802,0.207c-0.364-0.017-0.689-0.096-0.976-0.232
			c-0.286-0.133-0.463-0.229-0.531-0.277v0.847c0.127,0.054,0.312,0.106,0.55,0.151c0.238,0.047,0.542,0.072,0.908,0.074
			c0.705-0.014,1.219-0.175,1.54-0.483c0.322-0.309,0.48-0.678,0.476-1.11c-0.005-0.372-0.095-0.671-0.27-0.892
			c-0.17-0.218-0.392-0.402-0.655-0.549c-0.488-0.267-0.89-0.485-1.216-0.665c-0.326-0.179-0.495-0.422-0.508-0.727
			c0.007-0.222,0.101-0.386,0.279-0.49c0.185-0.106,0.397-0.157,0.647-0.155c0.326,0.01,0.609,0.068,0.856,0.177
			c0.246,0.105,0.421,0.191,0.515,0.251L110.238,53.024L110.238,53.024z"/>
		<path fill="#85959D" d="M115.319,57.78c-0.145,0.043-0.279,0.077-0.408,0.105c-0.127,0.026-0.296,0.04-0.51,0.043
			c-0.52-0.01-0.927-0.154-1.229-0.432c-0.301-0.275-0.512-0.615-0.639-1.019c-0.13-0.402-0.188-0.804-0.185-1.198
			c-0.003-0.309,0.029-0.615,0.099-0.918c0.068-0.303,0.192-0.556,0.369-0.76c0.173-0.203,0.42-0.312,0.731-0.32
			c0.311,0.013,0.532,0.094,0.664,0.253c0.134,0.158,0.216,0.339,0.241,0.547c0.031,0.206,0.041,0.386,0.039,0.54h0.973
			c0.005-0.503-0.138-0.925-0.428-1.262c-0.291-0.341-0.769-0.514-1.43-0.528c-0.671,0-1.206,0.22-1.597,0.66
			c-0.393,0.444-0.594,1.106-0.605,1.991c0,0.564,0.084,1.074,0.254,1.526c0.172,0.446,0.456,0.801,0.851,1.062
			c0.396,0.264,0.928,0.396,1.593,0.399c0.236,0,0.448-0.014,0.638-0.048c0.188-0.033,0.381-0.08,0.576-0.143v-0.5H115.319z"/>
		<path fill="#85959D" d="M116.734,58.344h0.838v-2.389c0-0.341,0.063-0.698,0.188-1.07c0.123-0.371,0.307-0.69,0.54-0.953
			c0.235-0.266,0.523-0.401,0.86-0.412c0.332,0.011,0.56,0.135,0.661,0.372c0.105,0.235,0.154,0.516,0.144,0.839v3.613h0.837V54.36
			c-0.012-0.542-0.154-0.932-0.425-1.175c-0.273-0.24-0.591-0.359-0.955-0.355c-0.373,0.013-0.684,0.115-0.938,0.312
			c-0.25,0.197-0.45,0.417-0.593,0.664c-0.145,0.243-0.242,0.444-0.292,0.597h-0.023v-3.871h-0.839v7.813H116.734z"/>
		<path fill="#85959D" d="M125.824,58.344h1.699c0.224,0.007,0.496-0.004,0.816-0.031c0.316-0.029,0.632-0.106,0.947-0.234
			c0.313-0.13,0.574-0.339,0.787-0.636c0.208-0.294,0.317-0.709,0.325-1.237c-0.002-0.427-0.091-0.782-0.264-1.059
			c-0.169-0.277-0.388-0.489-0.648-0.64c-0.267-0.147-0.539-0.247-0.818-0.296v-0.022c0.33-0.049,0.636-0.218,0.918-0.51
			c0.281-0.293,0.435-0.711,0.455-1.256c-0.021-0.606-0.18-1.044-0.49-1.312c-0.306-0.272-0.661-0.439-1.069-0.5
			c-0.405-0.065-0.766-0.092-1.084-0.081h-1.572v7.813H125.824z M126.762,51.154h0.707c0.235-0.01,0.479,0.018,0.729,0.071
			c0.247,0.057,0.459,0.179,0.63,0.367c0.174,0.191,0.262,0.479,0.271,0.876c-0.01,0.406-0.102,0.717-0.278,0.933
			c-0.177,0.211-0.391,0.357-0.64,0.435c-0.252,0.077-0.489,0.11-0.713,0.105h-0.707V51.154z M126.762,54.563h0.707
			c0.231-0.01,0.491,0.02,0.79,0.079c0.294,0.064,0.558,0.211,0.781,0.442c0.225,0.229,0.341,0.592,0.354,1.087
			c-0.013,0.49-0.129,0.847-0.354,1.068c-0.224,0.22-0.487,0.359-0.781,0.412c-0.3,0.06-0.56,0.081-0.79,0.071h-0.707V54.563z"/>
		<path fill="#85959D" d="M135.189,58.344h0.816v-5.389h-0.841v2.312c0.002,0.357-0.047,0.729-0.15,1.113
			c-0.102,0.385-0.259,0.713-0.47,0.979c-0.209,0.27-0.479,0.411-0.806,0.421c-0.24-0.006-0.433-0.079-0.571-0.221
			c-0.143-0.137-0.245-0.31-0.307-0.513c-0.06-0.202-0.09-0.406-0.087-0.602v-3.489h-0.838v3.85c0,0.243,0.045,0.491,0.136,0.745
			c0.093,0.252,0.232,0.469,0.42,0.646c0.192,0.178,0.438,0.267,0.735,0.272c0.355,0.005,0.64-0.036,0.865-0.124
			c0.224-0.087,0.416-0.236,0.579-0.446c0.158-0.209,0.324-0.499,0.493-0.865h0.023L135.189,58.344L135.189,58.344z"/>
		<path fill="#85959D" d="M140.503,53.024c-0.11-0.029-0.278-0.066-0.496-0.116c-0.225-0.043-0.474-0.071-0.761-0.076
			c-0.611,0-1.075,0.133-1.384,0.389c-0.305,0.252-0.461,0.615-0.461,1.082c0.017,0.445,0.176,0.776,0.475,0.993
			c0.299,0.222,0.626,0.422,0.984,0.605c0.325,0.177,0.601,0.344,0.816,0.501c0.217,0.159,0.334,0.368,0.339,0.631
			c-0.005,0.303-0.118,0.526-0.329,0.666c-0.214,0.137-0.483,0.209-0.804,0.207c-0.363-0.017-0.686-0.096-0.976-0.232
			c-0.285-0.133-0.461-0.229-0.532-0.277v0.847c0.13,0.054,0.317,0.106,0.555,0.151c0.237,0.047,0.54,0.072,0.908,0.074
			c0.704-0.014,1.218-0.175,1.537-0.483c0.325-0.309,0.484-0.678,0.476-1.11c-0.004-0.372-0.092-0.671-0.267-0.892
			c-0.176-0.218-0.394-0.402-0.658-0.549c-0.485-0.267-0.892-0.485-1.214-0.665c-0.325-0.179-0.498-0.422-0.512-0.727
			c0.012-0.222,0.105-0.386,0.283-0.49c0.182-0.106,0.395-0.157,0.648-0.155c0.323,0.01,0.607,0.068,0.854,0.177
			c0.248,0.105,0.42,0.191,0.516,0.251v-0.801H140.503z"/>
		<path fill="#85959D" d="M142.116,58.344h0.836v-5.389h-0.836V58.344z M142.062,51.549h0.95v-1.019h-0.95V51.549z"/>
		<path fill="#85959D" d="M144.915,58.344h0.835v-2.309c0-0.362,0.058-0.731,0.177-1.115c0.113-0.387,0.294-0.711,0.537-0.98
			c0.243-0.269,0.557-0.409,0.932-0.42c0.245,0.007,0.422,0.079,0.53,0.22c0.104,0.141,0.168,0.311,0.192,0.514
			c0.021,0.202,0.03,0.406,0.025,0.604v3.487h0.838v-4.1c0.002-0.206-0.038-0.417-0.124-0.633c-0.087-0.215-0.225-0.398-0.414-0.547
			c-0.188-0.149-0.438-0.227-0.75-0.233c-0.529,0.017-0.941,0.175-1.249,0.47c-0.303,0.294-0.532,0.617-0.692,0.979h-0.022v-1.324
			h-0.813v5.389H144.915z"/>
		<path fill="#85959D" d="M154.498,57.77c-0.149,0.038-0.291,0.077-0.428,0.108c-0.135,0.033-0.324,0.047-0.557,0.05
			c-0.55-0.014-0.978-0.177-1.278-0.491c-0.3-0.317-0.51-0.701-0.628-1.147c-0.117-0.445-0.17-0.877-0.167-1.286h3.161
			c0.012-0.163-0.012-0.418-0.072-0.759c-0.058-0.339-0.222-0.657-0.495-0.949c-0.275-0.289-0.719-0.445-1.346-0.464
			c-0.784,0.015-1.343,0.267-1.684,0.754c-0.343,0.485-0.51,1.121-0.502,1.905c0.011,0.993,0.251,1.735,0.729,2.234
			c0.476,0.498,1.117,0.745,1.933,0.745c0.295-0.002,0.537-0.02,0.733-0.057c0.191-0.04,0.39-0.095,0.601-0.156V57.77L154.498,57.77
			z M151.462,54.506c-0.002-0.108,0.024-0.258,0.089-0.449c0.062-0.191,0.177-0.366,0.352-0.524c0.167-0.157,0.41-0.241,0.729-0.254
			c0.315,0.01,0.554,0.079,0.711,0.215c0.158,0.139,0.266,0.299,0.315,0.489c0.052,0.188,0.075,0.36,0.069,0.523H151.462z"/>
		<path fill="#85959D" d="M158.646,53.024c-0.109-0.029-0.276-0.066-0.498-0.116c-0.221-0.043-0.475-0.071-0.761-0.076
			c-0.612,0-1.071,0.133-1.38,0.389c-0.311,0.252-0.465,0.615-0.467,1.082c0.02,0.445,0.179,0.776,0.477,0.993
			c0.299,0.222,0.628,0.422,0.985,0.605c0.327,0.177,0.6,0.344,0.814,0.501c0.22,0.159,0.331,0.368,0.342,0.631
			c-0.011,0.303-0.12,0.526-0.333,0.666c-0.212,0.137-0.48,0.209-0.802,0.207c-0.362-0.017-0.686-0.096-0.974-0.232
			c-0.285-0.133-0.462-0.229-0.531-0.277v0.847c0.129,0.054,0.313,0.106,0.549,0.151c0.238,0.047,0.542,0.072,0.91,0.074
			c0.707-0.014,1.219-0.175,1.54-0.483c0.323-0.309,0.481-0.678,0.478-1.11c-0.007-0.372-0.098-0.671-0.27-0.892
			c-0.175-0.218-0.393-0.402-0.659-0.549c-0.485-0.267-0.888-0.485-1.217-0.665c-0.325-0.179-0.495-0.422-0.507-0.727
			c0.007-0.222,0.101-0.386,0.281-0.49c0.179-0.106,0.396-0.157,0.646-0.155c0.323,0.01,0.609,0.068,0.859,0.177
			c0.242,0.105,0.416,0.191,0.514,0.251v-0.801H158.646z"/>
		<path fill="#85959D" d="M162.749,53.024c-0.111-0.029-0.275-0.066-0.497-0.116c-0.222-0.043-0.476-0.071-0.759-0.076
			c-0.614,0-1.074,0.133-1.384,0.389c-0.311,0.252-0.464,0.615-0.464,1.082c0.017,0.445,0.177,0.776,0.475,0.993
			c0.299,0.222,0.627,0.422,0.985,0.605c0.326,0.177,0.599,0.344,0.817,0.501c0.218,0.159,0.331,0.368,0.339,0.631
			c-0.008,0.303-0.117,0.526-0.334,0.666c-0.211,0.137-0.479,0.209-0.799,0.207c-0.364-0.017-0.689-0.096-0.976-0.232
			c-0.286-0.133-0.465-0.229-0.532-0.277v0.847c0.13,0.054,0.314,0.106,0.553,0.151c0.237,0.047,0.541,0.072,0.91,0.074
			c0.7-0.014,1.215-0.175,1.538-0.483c0.318-0.309,0.479-0.678,0.475-1.11c-0.005-0.372-0.096-0.671-0.268-0.892
			c-0.175-0.218-0.395-0.402-0.66-0.549c-0.481-0.267-0.888-0.485-1.217-0.665c-0.325-0.179-0.492-0.422-0.503-0.727
			c0.004-0.222,0.102-0.386,0.281-0.49c0.179-0.106,0.392-0.157,0.646-0.155c0.323,0.01,0.609,0.068,0.855,0.177
			c0.248,0.105,0.421,0.191,0.515,0.251v-0.801H162.749z"/>
		<path fill="#85959D" d="M171.049,50.6c-0.175-0.038-0.415-0.08-0.737-0.122c-0.313-0.044-0.635-0.067-0.952-0.069
			c-0.758,0.002-1.355,0.175-1.793,0.51c-0.436,0.339-0.657,0.824-0.667,1.458c0.01,0.508,0.142,0.913,0.39,1.214
			c0.252,0.304,0.555,0.542,0.912,0.721c0.393,0.209,0.768,0.404,1.125,0.59c0.354,0.184,0.645,0.399,0.869,0.634
			c0.229,0.238,0.346,0.537,0.354,0.896c-0.006,0.449-0.151,0.788-0.433,1.021c-0.286,0.231-0.676,0.347-1.178,0.349
			c-0.39-0.01-0.758-0.078-1.111-0.198c-0.353-0.124-0.634-0.238-0.847-0.345v0.974c0.103,0.034,0.313,0.083,0.634,0.142
			c0.319,0.059,0.711,0.091,1.178,0.095c0.788,0.005,1.442-0.17,1.961-0.527c0.518-0.362,0.784-0.923,0.802-1.69
			c0-0.492-0.104-0.875-0.313-1.144c-0.211-0.272-0.532-0.542-0.955-0.805c-0.354-0.219-0.724-0.42-1.103-0.603
			c-0.378-0.182-0.702-0.391-0.965-0.625c-0.267-0.23-0.403-0.535-0.412-0.901c0.006-0.341,0.132-0.616,0.378-0.826
			c0.245-0.209,0.576-0.313,0.988-0.319c0.389,0.008,0.752,0.067,1.091,0.177c0.338,0.11,0.599,0.21,0.782,0.299V50.6H171.049z"/>
		<path fill="#85959D" d="M176.447,57.78c-0.146,0.043-0.281,0.077-0.407,0.105c-0.128,0.026-0.297,0.04-0.508,0.043
			c-0.521-0.01-0.927-0.154-1.229-0.432c-0.3-0.275-0.512-0.615-0.642-1.019c-0.124-0.402-0.187-0.804-0.185-1.198
			c-0.002-0.309,0.032-0.615,0.105-0.918c0.067-0.303,0.189-0.556,0.363-0.76c0.177-0.203,0.423-0.312,0.733-0.32
			c0.312,0.013,0.53,0.094,0.667,0.253c0.13,0.158,0.211,0.339,0.241,0.547c0.029,0.206,0.04,0.386,0.036,0.54h0.972
			c0.008-0.503-0.135-0.925-0.429-1.262c-0.29-0.341-0.765-0.514-1.43-0.528c-0.669,0-1.2,0.22-1.593,0.66
			c-0.395,0.444-0.593,1.106-0.6,1.991c-0.005,0.564,0.075,1.074,0.248,1.526c0.171,0.446,0.453,0.801,0.847,1.062
			c0.398,0.264,0.929,0.396,1.6,0.399c0.232,0,0.446-0.014,0.631-0.048c0.193-0.033,0.386-0.08,0.578-0.143V57.78L176.447,57.78z"/>
		<path fill="#85959D" d="M177.867,58.344h0.836v-2.389c0-0.341,0.059-0.698,0.187-1.07c0.124-0.371,0.303-0.69,0.542-0.953
			c0.236-0.266,0.521-0.401,0.857-0.412c0.335,0.011,0.557,0.135,0.665,0.372c0.103,0.235,0.149,0.516,0.14,0.839v3.613h0.839V54.36
			c-0.013-0.542-0.156-0.932-0.428-1.175c-0.271-0.24-0.589-0.359-0.952-0.355c-0.373,0.013-0.684,0.115-0.938,0.312
			c-0.248,0.197-0.448,0.417-0.594,0.664c-0.145,0.243-0.243,0.444-0.294,0.597h-0.021v-3.871h-0.836v7.813H177.867z"/>
		<path fill="#85959D" d="M185.753,58.468c0.801-0.004,1.393-0.245,1.773-0.725c0.382-0.479,0.572-1.159,0.569-2.037
			c0.003-0.872-0.188-1.566-0.569-2.085c-0.381-0.516-0.974-0.777-1.773-0.792c-0.802,0.015-1.383,0.276-1.748,0.792
			c-0.369,0.519-0.547,1.213-0.541,2.085c-0.007,0.878,0.172,1.558,0.541,2.037C184.37,58.223,184.953,58.464,185.753,58.468z
			 M184.402,55.739c-0.006-0.4,0.026-0.786,0.093-1.16c0.068-0.371,0.196-0.681,0.393-0.922c0.195-0.243,0.484-0.365,0.865-0.376
			c0.385,0.013,0.677,0.133,0.883,0.376c0.204,0.24,0.344,0.549,0.416,0.922c0.072,0.374,0.109,0.76,0.106,1.16
			c0.003,0.382-0.031,0.739-0.106,1.087c-0.072,0.343-0.212,0.628-0.416,0.848c-0.206,0.223-0.498,0.334-0.883,0.346
			c-0.381-0.012-0.67-0.123-0.865-0.346c-0.196-0.22-0.324-0.505-0.393-0.848C184.431,56.478,184.396,56.121,184.402,55.739z"/>
		<path fill="#85959D" d="M191.527,58.468c0.803-0.004,1.398-0.245,1.778-0.725c0.381-0.479,0.569-1.159,0.569-2.037
			c0-0.872-0.188-1.566-0.569-2.085c-0.38-0.516-0.976-0.777-1.778-0.792c-0.8,0.015-1.376,0.276-1.746,0.792
			c-0.363,0.519-0.544,1.213-0.54,2.085c-0.005,0.878,0.177,1.558,0.54,2.037C190.151,58.223,190.728,58.464,191.527,58.468z
			 M190.18,55.739c-0.005-0.4,0.026-0.786,0.092-1.16c0.068-0.371,0.198-0.681,0.396-0.922c0.195-0.243,0.483-0.365,0.86-0.376
			c0.388,0.013,0.682,0.133,0.887,0.376c0.203,0.24,0.343,0.549,0.416,0.922c0.072,0.374,0.109,0.76,0.107,1.16
			c0.002,0.382-0.034,0.739-0.107,1.087c-0.073,0.343-0.213,0.628-0.416,0.848c-0.204,0.223-0.499,0.334-0.887,0.346
			c-0.377-0.012-0.667-0.123-0.86-0.346c-0.197-0.22-0.325-0.505-0.396-0.848C190.206,56.478,190.175,56.121,190.18,55.739z"/>
		<rect x="195.44" y="50.531" fill="#85959D" width="0.837" height="7.813"/>
	</g>
</g>
<g>
	<g>
		<g>
			<g>
				<defs>
					<rect id="SVGID_1_" x="0.743" y="82.018" width="195.181" height="47.64"/>
				</defs>
				<clipPath id="SVGID_2_">
					<use xlink:href="#SVGID_1_"  overflow="visible"/>
				</clipPath>
				<path clip-path="url(#SVGID_2_)" fill="#86959D" d="M21.271,88.906h-2.558v15.266c0,3.628,0,7.617-5.434,7.617
					c-5.078,0-5.078-4.347-5.078-8.442V88.509l-7.46,0.827v0.79c3.445,0.467,3.551,0.504,3.551,3.521v11.494
					c0,5.354,2.273,8.336,8.525,8.336c8.029,0,8.454-4.889,8.454-9.701V88.906z"/>
			</g>
		</g>
		<g>
			<g>
				<defs>
					<rect id="SVGID_3_" x="0.743" y="82.018" width="195.181" height="47.64"/>
				</defs>
				<clipPath id="SVGID_4_">
					<use xlink:href="#SVGID_3_"  overflow="visible"/>
				</clipPath>
				<path clip-path="url(#SVGID_4_)" fill="#86959D" d="M40.028,89.157c-0.921-0.18-3.232-0.647-5.683-0.647
					c-5.007,0-7.992,2.265-7.992,6.216c0,7.58,11.542,7.041,11.542,12.859c0,3.27-2.2,4.203-4.438,4.203
					c-2.842,0-5.684-1.508-6.785-2.156v2.91c0.746,0.18,3.48,0.936,6.217,0.936c4.9,0,8.915-1.94,8.915-7.078
					c0-7.687-11.543-7.184-11.543-12.715c0-2.371,1.526-3.484,3.409-3.484c2.771,0,5.399,1.148,6.357,1.617L40.028,89.157
					L40.028,89.157z"/>
			</g>
		</g>
		<g>
			<g>
				<defs>
					<rect id="SVGID_5_" x="0.743" y="82.018" width="195.181" height="47.64"/>
				</defs>
				<clipPath id="SVGID_6_">
					<use xlink:href="#SVGID_5_"  overflow="visible"/>
				</clipPath>
				<path clip-path="url(#SVGID_6_)" fill="#86959D" d="M50.653,101.155h3.231c3.127,0,5.754,1.257,5.754,4.813
					c0,3.665-1.667,5.422-5.575,5.422c-1.954,0-3.41,0-3.41-1.471V101.155z M50.653,92.461c0-1.761,0.604-1.869,2.734-1.869
					c3.234,0,5.043,1.079,5.043,4.313c0,3.556-2.344,4.561-5.398,4.561h-2.379V92.461z M46.747,113.082h6.679
					c2.912,0,10.124,0,10.124-6.431c0-4.563-2.95-5.893-5.47-6.396v-0.071c1.74-0.574,4.262-1.938,4.262-5.459
					c0-4.851-4.333-5.819-8.417-5.819h-10.55v0.79c3.304,0.539,3.373,0.539,3.373,4.096L46.747,113.082L46.747,113.082z"/>
			</g>
		</g>
		<g>
			<g>
				<defs>
					<rect id="SVGID_7_" x="0.743" y="82.018" width="195.181" height="47.64"/>
				</defs>
				<clipPath id="SVGID_8_">
					<use xlink:href="#SVGID_7_"  overflow="visible"/>
				</clipPath>
				<path clip-path="url(#SVGID_8_)" fill="#86959D" d="M67.491,103.248c0-5.422,10.332-9.819,10.332-9.819s4.175,1.771,7.217,4.454
					c-1.746,1.541-3.118,3.382-3.118,5.36c0,1.977,1.372,3.818,3.118,5.359c-3.042,2.688-7.217,4.465-7.217,4.465
					S67.491,108.668,67.491,103.248"/>
			</g>
		</g>
		<g>
			<g>
				<defs>
					<rect id="SVGID_9_" x="0.743" y="82.018" width="195.181" height="47.64"/>
				</defs>
				<clipPath id="SVGID_10_">
					<use xlink:href="#SVGID_9_"  overflow="visible"/>
				</clipPath>
				<path clip-path="url(#SVGID_10_)" fill="#948B27" d="M92.252,93.424c0,0,4.176,1.777,7.22,4.465
					c-1.74,1.541-3.109,3.379-3.109,5.353c0,1.979,1.375,3.819,3.119,5.36c-3.042,2.688-7.228,4.463-7.228,4.463
					s-4.169-1.777-7.212-4.465c1.746-1.543,3.122-3.382,3.122-5.36s-1.375-3.819-3.122-5.36
					C88.082,95.196,92.252,93.424,92.252,93.424"/>
			</g>
		</g>
		<g>
			<g>
				<defs>
					<rect id="SVGID_11_" x="0.743" y="82.018" width="195.181" height="47.64"/>
				</defs>
				<clipPath id="SVGID_12_">
					<use xlink:href="#SVGID_11_"  overflow="visible"/>
				</clipPath>
				<path clip-path="url(#SVGID_12_)" fill="#A90C37" d="M99.494,97.881c3.041-2.684,7.211-4.454,7.211-4.454
					s10.336,4.397,10.336,9.819c0,5.42-10.336,9.818-10.336,9.818s-4.168-1.778-7.211-4.463c1.746-1.543,3.121-3.384,3.121-5.36
					C102.615,101.264,101.24,99.422,99.494,97.881"/>
			</g>
		</g>
		<g>
			<g>
				<defs>
					<rect id="SVGID_13_" x="0.743" y="82.018" width="195.181" height="47.64"/>
				</defs>
				<clipPath id="SVGID_14_">
					<use xlink:href="#SVGID_13_"  overflow="visible"/>
				</clipPath>
				<path clip-path="url(#SVGID_14_)" fill="#948B27" d="M89.893,85.302c0-1.813,1.454-3.284,3.248-3.284
					c1.795,0,3.249,1.472,3.249,3.284c0,1.815-1.453,3.288-3.249,3.288C91.347,88.589,89.893,87.118,89.893,85.302"/>
			</g>
		</g>
		<g>
			<g>
				<defs>
					<rect id="SVGID_15_" x="0.743" y="82.018" width="195.181" height="47.64"/>
				</defs>
				<clipPath id="SVGID_16_">
					<use xlink:href="#SVGID_15_"  overflow="visible"/>
				</clipPath>
				<path clip-path="url(#SVGID_16_)" fill="#86959D" d="M75.45,85.428c0-1.813,1.454-3.285,3.249-3.285
					c1.795,0,3.249,1.472,3.249,3.285c0,1.815-1.454,3.285-3.249,3.285C76.903,88.713,75.45,87.244,75.45,85.428"/>
			</g>
		</g>
		<g>
			<g>
				<defs>
					<rect id="SVGID_17_" x="0.743" y="82.018" width="195.181" height="47.64"/>
				</defs>
				<clipPath id="SVGID_18_">
					<use xlink:href="#SVGID_17_"  overflow="visible"/>
				</clipPath>
				<path clip-path="url(#SVGID_18_)" fill="#A90C37" d="M104.336,85.446c0-1.814,1.453-3.285,3.25-3.285
					c1.793,0,3.248,1.47,3.248,3.285c0,1.813-1.455,3.285-3.248,3.285C105.789,88.731,104.336,87.259,104.336,85.446"/>
			</g>
		</g>
		<g>
			<g>
				<defs>
					<rect id="SVGID_19_" x="0.743" y="82.018" width="195.181" height="47.64"/>
				</defs>
				<clipPath id="SVGID_20_">
					<use xlink:href="#SVGID_19_"  overflow="visible"/>
				</clipPath>
				<path clip-path="url(#SVGID_20_)" fill="#86959D" d="M9.656,119.455v4.991c0,0.431-0.019,0.808-0.058,1.128
					c-0.039,0.321-0.138,0.637-0.295,0.94c-0.16,0.307-0.423,0.56-0.787,0.76c-0.365,0.197-0.858,0.3-1.482,0.3
					c-0.786,0-1.366-0.162-1.746-0.486c-0.378-0.323-0.611-0.698-0.699-1.125c-0.088-0.426-0.13-0.93-0.13-1.517v-4.991h0.949v4.967
					c0,0.369,0.013,0.681,0.034,0.933c0.023,0.252,0.086,0.508,0.19,0.764c0.104,0.258,0.272,0.463,0.504,0.621
					c0.235,0.154,0.544,0.234,0.932,0.234c0.384,0,0.69-0.08,0.919-0.232c0.228-0.154,0.395-0.357,0.498-0.607
					s0.164-0.508,0.187-0.768c0.022-0.26,0.034-0.574,0.034-0.943v-4.967L9.656,119.455L9.656,119.455z"/>
			</g>
		</g>
		<g>
			<g>
				<defs>
					<rect id="SVGID_21_" x="0.743" y="82.018" width="195.181" height="47.64"/>
				</defs>
				<clipPath id="SVGID_22_">
					<use xlink:href="#SVGID_21_"  overflow="visible"/>
				</clipPath>
				<path clip-path="url(#SVGID_22_)" fill="#86959D" d="M11.472,127.446v-5.516h0.824v1.355h0.021
					c0.208-0.43,0.463-0.785,0.772-1.063c0.311-0.277,0.708-0.421,1.191-0.421c0.228,0,0.424,0.043,0.593,0.132
					c0.168,0.086,0.303,0.202,0.41,0.35c0.107,0.145,0.182,0.301,0.229,0.469c0.047,0.168,0.07,0.334,0.07,0.502v4.191h-0.845v-3.57
					c0-0.422-0.044-0.756-0.13-1s-0.294-0.365-0.629-0.365c-0.354,0-0.656,0.135-0.908,0.4c-0.25,0.266-0.438,0.598-0.563,0.998
					s-0.189,0.791-0.189,1.172v2.365H11.472L11.472,127.446z"/>
			</g>
		</g>
	</g>
	<path fill="#86959D" d="M17.478,127.446h0.849v-5.516h-0.849V127.446z M17.42,120.498h0.962v-1.043H17.42V120.498z"/>
	<polygon fill="#86959D" points="21.529,127.446 19.366,121.93 20.306,121.93 21.965,126.287 23.457,121.93 24.278,121.93 
		22.321,127.446 	"/>
	<g>
		<g>
			<g>
				<defs>
					<rect id="SVGID_23_" x="0.743" y="82.018" width="195.181" height="47.64"/>
				</defs>
				<clipPath id="SVGID_24_">
					<use xlink:href="#SVGID_23_"  overflow="visible"/>
				</clipPath>
				<path clip-path="url(#SVGID_24_)" fill="#86959D" d="M25.867,123.518h2.291c0-0.328-0.079-0.619-0.234-0.871
					c-0.156-0.252-0.448-0.379-0.88-0.379c-0.295,0-0.528,0.074-0.704,0.228c-0.176,0.149-0.299,0.323-0.368,0.521
					C25.898,123.209,25.867,123.379,25.867,123.518 M28.933,126.858v0.494c-0.314,0.088-0.547,0.146-0.703,0.176
					c-0.154,0.029-0.369,0.043-0.65,0.043c-0.543,0-1.017-0.112-1.42-0.342c-0.406-0.229-0.717-0.569-0.937-1.026
					c-0.219-0.459-0.33-1.021-0.33-1.681c0-0.405,0.042-0.774,0.126-1.104c0.084-0.332,0.215-0.617,0.394-0.861
					c0.179-0.244,0.406-0.43,0.682-0.559c0.275-0.131,0.61-0.195,1.005-0.195c0.824,0,1.354,0.24,1.588,0.721
					c0.234,0.481,0.352,0.98,0.352,1.504h-3.197c0,0.767,0.162,1.455,0.482,2.066c0.322,0.613,0.861,0.92,1.612,0.92
					c0.119,0,0.24-0.006,0.362-0.02c0.12-0.014,0.231-0.033,0.332-0.061C28.73,126.912,28.831,126.883,28.933,126.858"/>
			</g>
		</g>
		<g>
			<g>
				<defs>
					<rect id="SVGID_25_" x="0.743" y="82.018" width="195.181" height="47.64"/>
				</defs>
				<clipPath id="SVGID_26_">
					<use xlink:href="#SVGID_25_"  overflow="visible"/>
				</clipPath>
				<path clip-path="url(#SVGID_26_)" fill="#86959D" d="M30.445,127.446v-5.516h0.848v1.313h0.021
					c0.102-0.229,0.235-0.451,0.4-0.668c0.166-0.22,0.364-0.402,0.595-0.55c0.232-0.147,0.484-0.223,0.76-0.223v1.01h-0.24
					c-0.377,0-0.679,0.097-0.906,0.281c-0.228,0.189-0.39,0.438-0.485,0.742c-0.097,0.305-0.145,0.639-0.145,1.002v2.607H30.445
					L30.445,127.446z"/>
			</g>
		</g>
		<g>
			<g>
				<defs>
					<rect id="SVGID_27_" x="0.743" y="82.018" width="195.181" height="47.64"/>
				</defs>
				<clipPath id="SVGID_28_">
					<use xlink:href="#SVGID_27_"  overflow="visible"/>
				</clipPath>
				<path clip-path="url(#SVGID_28_)" fill="#86959D" d="M36.622,121.998v0.828c-0.502-0.293-0.965-0.441-1.387-0.441
					c-0.269,0-0.492,0.058-0.671,0.168c-0.179,0.115-0.268,0.277-0.268,0.492c0,0.199,0.068,0.367,0.206,0.5
					c0.14,0.133,0.388,0.295,0.751,0.488c0.363,0.19,0.623,0.336,0.779,0.434c0.19,0.111,0.355,0.232,0.497,0.365
					c0.14,0.133,0.25,0.293,0.329,0.471c0.078,0.185,0.118,0.396,0.118,0.638c0,0.293-0.073,0.563-0.219,0.813
					c-0.146,0.25-0.372,0.449-0.676,0.6c-0.304,0.148-0.687,0.224-1.146,0.224c-0.59,0-1.085-0.078-1.486-0.234v-0.879
					c0.041,0.022,0.118,0.063,0.229,0.125c0.113,0.062,0.231,0.119,0.354,0.172c0.123,0.056,0.271,0.107,0.443,0.154
					c0.171,0.047,0.338,0.069,0.505,0.069c0.216,0,0.409-0.03,0.583-0.094c0.171-0.063,0.309-0.158,0.411-0.293
					c0.104-0.135,0.154-0.303,0.154-0.506c0-0.236-0.078-0.42-0.238-0.551c-0.16-0.129-0.471-0.33-0.934-0.6
					c-0.069-0.047-0.225-0.138-0.468-0.271c-0.24-0.137-0.428-0.26-0.561-0.373c-0.132-0.115-0.241-0.25-0.327-0.412
					c-0.087-0.164-0.128-0.354-0.128-0.576c0-0.479,0.158-0.854,0.474-1.111c0.315-0.26,0.781-0.393,1.399-0.393
					c0.167,0,0.327,0.012,0.477,0.033c0.148,0.021,0.295,0.047,0.44,0.078C36.404,121.949,36.525,121.975,36.622,121.998"/>
			</g>
		</g>
	</g>
	<path fill="#86959D" d="M38.134,127.446h0.848v-5.516h-0.848V127.446z M38.077,120.498h0.964v-1.043h-0.964V120.498z"/>
	<g>
		<g>
			<g>
				<defs>
					<rect id="SVGID_29_" x="0.743" y="82.018" width="195.181" height="47.64"/>
				</defs>
				<clipPath id="SVGID_30_">
					<use xlink:href="#SVGID_29_"  overflow="visible"/>
				</clipPath>
				<path clip-path="url(#SVGID_30_)" fill="#86959D" d="M43.575,126.949v0.577c-0.183,0.033-0.409,0.048-0.677,0.048
					c-0.372,0-0.678-0.048-0.919-0.144c-0.244-0.094-0.421-0.244-0.536-0.447c-0.114-0.205-0.172-0.473-0.172-0.801v-3.717H40.31
					v-0.533h0.961v-1.297l0.85-0.52v1.816h1.489v0.532h-1.489v3.269c0,0.287,0.015,0.516,0.047,0.686
					c0.031,0.17,0.114,0.313,0.25,0.426c0.132,0.115,0.347,0.174,0.644,0.174C43.269,127.016,43.439,126.994,43.575,126.949"/>
			</g>
		</g>
	</g>
	<polygon fill="#86959D" points="45.351,129.658 46.095,127.479 43.932,121.93 44.88,121.93 46.541,126.262 48.028,121.93 
		48.89,121.93 46.116,129.658 	"/>
	<g>
		<g>
			<g>
				<defs>
					<rect id="SVGID_31_" x="0.743" y="82.018" width="195.181" height="47.64"/>
				</defs>
				<clipPath id="SVGID_32_">
					<use xlink:href="#SVGID_31_"  overflow="visible"/>
				</clipPath>
				<path clip-path="url(#SVGID_32_)" fill="#86959D" d="M53.409,124.778c0,0.689,0.097,1.253,0.287,1.685
					c0.192,0.431,0.553,0.647,1.076,0.647c0.947,0,1.418-0.778,1.418-2.332c0-1.674-0.472-2.51-1.418-2.51
					c-0.523,0-0.884,0.232-1.076,0.701C53.504,123.438,53.409,124.041,53.409,124.778 M54.771,127.574
					c-1.541,0-2.313-0.943-2.313-2.828c0-0.918,0.188-1.642,0.566-2.16c0.377-0.521,0.96-0.78,1.746-0.78
					c0.794,0,1.388,0.26,1.781,0.782c0.394,0.521,0.59,1.242,0.59,2.158c0,0.594-0.086,1.104-0.257,1.532
					c-0.171,0.427-0.433,0.748-0.783,0.968C55.751,127.461,55.31,127.574,54.771,127.574"/>
			</g>
		</g>
		<g>
			<g>
				<defs>
					<rect id="SVGID_33_" x="0.743" y="82.018" width="195.181" height="47.64"/>
				</defs>
				<clipPath id="SVGID_34_">
					<use xlink:href="#SVGID_33_"  overflow="visible"/>
				</clipPath>
				<path clip-path="url(#SVGID_34_)" fill="#86959D" d="M59.059,127.446v-4.981H58.05v-0.534h1.008v-0.354
					c0-0.336,0.021-0.625,0.064-0.871s0.128-0.465,0.257-0.66c0.128-0.194,0.322-0.349,0.581-0.459
					c0.258-0.11,0.594-0.166,1.013-0.166c0.205,0,0.515,0.035,0.93,0.103v0.688c-0.366-0.156-0.663-0.23-0.886-0.23
					c-0.316,0-0.556,0.063-0.72,0.188c-0.167,0.125-0.271,0.283-0.319,0.469c-0.048,0.188-0.073,0.396-0.073,0.625v0.674h1.583
					v0.533h-1.583v4.98h-0.847V127.446z"/>
			</g>
		</g>
		<g>
			<g>
				<defs>
					<rect id="SVGID_35_" x="0.743" y="82.018" width="195.181" height="47.64"/>
				</defs>
				<clipPath id="SVGID_36_">
					<use xlink:href="#SVGID_35_"  overflow="visible"/>
				</clipPath>
				<path clip-path="url(#SVGID_36_)" fill="#86959D" d="M69.223,119.522v0.927c-0.699-0.324-1.328-0.484-1.89-0.484
					c-0.275,0-0.517,0.05-0.727,0.147c-0.208,0.101-0.372,0.24-0.487,0.418c-0.116,0.179-0.174,0.382-0.174,0.604
					c0,0.265,0.074,0.496,0.226,0.697c0.152,0.201,0.326,0.364,0.523,0.485c0.196,0.125,0.493,0.289,0.889,0.496
					c0.399,0.207,0.69,0.373,0.872,0.498c0.334,0.222,0.587,0.414,0.762,0.576c0.173,0.162,0.305,0.354,0.395,0.572
					c0.09,0.221,0.134,0.502,0.134,0.842c0,0.377-0.069,0.711-0.211,1.004c-0.142,0.295-0.341,0.535-0.598,0.717
					c-0.255,0.183-0.552,0.32-0.889,0.414c-0.336,0.09-0.703,0.138-1.104,0.138c-0.662,0-1.274-0.082-1.838-0.244v-1
					c0.779,0.375,1.442,0.562,1.987,0.562c0.504,0,0.9-0.121,1.189-0.365c0.289-0.242,0.434-0.588,0.434-1.037
					c0-0.271-0.064-0.506-0.19-0.703c-0.127-0.199-0.289-0.367-0.485-0.51c-0.195-0.142-0.44-0.291-0.736-0.447
					c-0.294-0.156-0.616-0.324-0.964-0.506c-0.409-0.225-0.731-0.492-0.963-0.799c-0.234-0.31-0.35-0.699-0.35-1.181
					c0-0.422,0.102-0.782,0.304-1.088c0.2-0.303,0.487-0.532,0.858-0.69s0.813-0.236,1.325-0.236
					C68.034,119.326,68.604,119.389,69.223,119.522"/>
			</g>
		</g>
		<g>
			<g>
				<defs>
					<rect id="SVGID_37_" x="0.743" y="82.018" width="195.181" height="47.64"/>
				</defs>
				<clipPath id="SVGID_38_">
					<use xlink:href="#SVGID_37_"  overflow="visible"/>
				</clipPath>
				<path clip-path="url(#SVGID_38_)" fill="#86959D" d="M73.743,126.949v0.577c-0.183,0.033-0.409,0.048-0.679,0.048
					c-0.371,0-0.676-0.048-0.918-0.144c-0.244-0.094-0.422-0.244-0.535-0.447c-0.115-0.205-0.172-0.473-0.172-0.801v-3.717h-0.962
					v-0.533h0.962v-1.297l0.849-0.52v1.816h1.488v0.532h-1.488v3.269c0,0.287,0.015,0.516,0.046,0.686
					c0.032,0.17,0.115,0.313,0.25,0.426c0.132,0.115,0.348,0.174,0.643,0.174C73.436,127.016,73.606,126.994,73.743,126.949"/>
			</g>
		</g>
		<g>
			<g>
				<defs>
					<rect id="SVGID_39_" x="0.743" y="82.018" width="195.181" height="47.64"/>
				</defs>
				<clipPath id="SVGID_40_">
					<use xlink:href="#SVGID_39_"  overflow="visible"/>
				</clipPath>
				<path clip-path="url(#SVGID_40_)" fill="#86959D" d="M75.519,123.518h2.291c0-0.328-0.079-0.619-0.232-0.871
					c-0.155-0.252-0.448-0.379-0.88-0.379c-0.294,0-0.528,0.074-0.704,0.228c-0.175,0.149-0.298,0.323-0.367,0.521
					C75.553,123.209,75.519,123.379,75.519,123.518 M78.583,126.858v0.494c-0.313,0.088-0.546,0.146-0.701,0.176
					c-0.156,0.029-0.37,0.043-0.651,0.043c-0.544,0-1.017-0.112-1.421-0.342c-0.405-0.229-0.717-0.569-0.936-1.026
					c-0.22-0.459-0.331-1.021-0.331-1.681c0-0.405,0.042-0.774,0.126-1.104c0.084-0.332,0.214-0.617,0.393-0.861
					s0.406-0.43,0.684-0.559c0.275-0.131,0.61-0.195,1.004-0.195c0.824,0,1.354,0.24,1.588,0.721c0.235,0.48,0.352,0.98,0.352,1.504
					h-3.196c0,0.767,0.162,1.455,0.482,2.066c0.323,0.613,0.861,0.92,1.612,0.92c0.121,0,0.24-0.006,0.362-0.02
					c0.121-0.014,0.232-0.033,0.333-0.061C78.382,126.912,78.482,126.883,78.583,126.858"/>
			</g>
		</g>
	</g>
	<rect x="80.133" y="119.455" fill="#86959D" width="0.847" height="7.991"/>
	<rect x="82.893" y="119.455" fill="#86959D" width="0.847" height="7.991"/>
	<g>
		<g>
			<g>
				<defs>
					<rect id="SVGID_41_" x="0.743" y="82.018" width="195.181" height="47.64"/>
				</defs>
				<clipPath id="SVGID_42_">
					<use xlink:href="#SVGID_41_"  overflow="visible"/>
				</clipPath>
				<path clip-path="url(#SVGID_42_)" fill="#86959D" d="M86.189,123.518h2.291c0-0.328-0.078-0.619-0.233-0.871
					c-0.155-0.252-0.448-0.379-0.879-0.379c-0.295,0-0.529,0.074-0.705,0.228c-0.174,0.149-0.296,0.323-0.368,0.521
					C86.226,123.209,86.189,123.379,86.189,123.518 M89.255,126.858v0.494c-0.313,0.088-0.546,0.146-0.701,0.176
					c-0.154,0.029-0.371,0.043-0.65,0.043c-0.543,0-1.018-0.112-1.422-0.342c-0.404-0.229-0.715-0.569-0.936-1.026
					c-0.22-0.459-0.33-1.021-0.33-1.681c0-0.405,0.042-0.774,0.126-1.104c0.084-0.332,0.215-0.617,0.395-0.861
					c0.179-0.244,0.406-0.43,0.681-0.559c0.276-0.131,0.611-0.195,1.006-0.195c0.823,0,1.353,0.24,1.588,0.721
					c0.233,0.48,0.351,0.98,0.351,1.504h-3.196c0,0.767,0.161,1.455,0.483,2.066c0.324,0.613,0.859,0.92,1.612,0.92
					c0.119,0,0.238-0.006,0.36-0.02s0.232-0.033,0.333-0.061C89.056,126.912,89.156,126.883,89.255,126.858"/>
			</g>
		</g>
		<g>
			<g>
				<defs>
					<rect id="SVGID_43_" x="0.743" y="82.018" width="195.181" height="47.64"/>
				</defs>
				<clipPath id="SVGID_44_">
					<use xlink:href="#SVGID_43_"  overflow="visible"/>
				</clipPath>
				<path clip-path="url(#SVGID_44_)" fill="#86959D" d="M90.771,127.446v-5.516h0.826v1.355h0.021
					c0.205-0.43,0.462-0.785,0.771-1.063c0.31-0.277,0.707-0.421,1.19-0.421c0.228,0,0.426,0.043,0.593,0.132
					c0.168,0.086,0.305,0.202,0.411,0.35c0.106,0.145,0.182,0.301,0.23,0.469c0.045,0.168,0.069,0.334,0.069,0.502v4.191h-0.849
					v-3.57c0-0.422-0.042-0.756-0.127-1c-0.086-0.244-0.296-0.365-0.631-0.365c-0.353,0-0.655,0.135-0.906,0.4
					s-0.438,0.598-0.563,0.998s-0.188,0.791-0.188,1.172v2.365H90.771L90.771,127.446z"/>
			</g>
		</g>
		<g>
			<g>
				<defs>
					<rect id="SVGID_45_" x="0.743" y="82.018" width="195.181" height="47.64"/>
				</defs>
				<clipPath id="SVGID_46_">
					<use xlink:href="#SVGID_45_"  overflow="visible"/>
				</clipPath>
				<path clip-path="url(#SVGID_46_)" fill="#86959D" d="M97.431,124.873c0,1.43,0.426,2.146,1.282,2.146
					c0.49,0,0.84-0.211,1.049-0.634c0.209-0.424,0.314-0.957,0.314-1.602c0-0.656-0.098-1.224-0.291-1.703
					c-0.195-0.479-0.518-0.72-0.969-0.72c-0.47,0-0.816,0.263-1.046,0.787C97.543,123.67,97.431,124.246,97.431,124.873
					 M97.431,119.455v3.473h0.021c0.084-0.17,0.187-0.338,0.313-0.497c0.125-0.164,0.293-0.31,0.506-0.437
					c0.212-0.125,0.466-0.188,0.758-0.188c0.428,0,0.787,0.116,1.088,0.354c0.299,0.236,0.523,0.574,0.678,1.016
					c0.156,0.441,0.232,0.957,0.232,1.549c0,0.478-0.053,0.892-0.154,1.244c-0.102,0.355-0.252,0.65-0.451,0.889
					c-0.201,0.239-0.443,0.416-0.729,0.537c-0.283,0.121-0.607,0.181-0.969,0.181c-0.648,0-1.131-0.152-1.448-0.464
					c-0.316-0.309-0.511-0.655-0.584-1.041c-0.073-0.383-0.107-0.811-0.107-1.276v-5.336h0.847V119.455z"/>
			</g>
		</g>
		<g>
			<g>
				<defs>
					<rect id="SVGID_47_" x="0.743" y="82.018" width="195.181" height="47.64"/>
				</defs>
				<clipPath id="SVGID_48_">
					<use xlink:href="#SVGID_47_"  overflow="visible"/>
				</clipPath>
				<path clip-path="url(#SVGID_48_)" fill="#86959D" d="M103.045,124.778c0,0.689,0.096,1.253,0.287,1.685
					c0.191,0.431,0.551,0.647,1.076,0.647c0.947,0,1.418-0.778,1.418-2.332c0-1.674-0.473-2.51-1.418-2.51
					c-0.525,0-0.883,0.232-1.076,0.701C103.141,123.438,103.045,124.041,103.045,124.778 M104.408,127.574
					c-1.543,0-2.314-0.943-2.314-2.828c0-0.918,0.191-1.642,0.568-2.16c0.379-0.521,0.961-0.78,1.746-0.78
					c0.793,0,1.389,0.26,1.779,0.782c0.395,0.521,0.59,1.242,0.59,2.158c0,0.594-0.084,1.104-0.256,1.532
					c-0.172,0.427-0.434,0.748-0.783,0.968C105.389,127.461,104.945,127.574,104.408,127.574"/>
			</g>
		</g>
		<g>
			<g>
				<defs>
					<rect id="SVGID_49_" x="0.743" y="82.018" width="195.181" height="47.64"/>
				</defs>
				<clipPath id="SVGID_50_">
					<use xlink:href="#SVGID_49_"  overflow="visible"/>
				</clipPath>
				<path clip-path="url(#SVGID_50_)" fill="#86959D" d="M110.803,121.998v0.828c-0.504-0.293-0.965-0.441-1.387-0.441
					c-0.268,0-0.49,0.058-0.67,0.168c-0.18,0.115-0.27,0.277-0.27,0.492c0,0.199,0.068,0.367,0.207,0.5s0.389,0.295,0.75,0.488
					c0.363,0.19,0.625,0.336,0.779,0.434c0.191,0.111,0.355,0.232,0.496,0.365c0.143,0.133,0.25,0.293,0.33,0.471
					c0.078,0.185,0.117,0.396,0.117,0.638c0,0.293-0.074,0.563-0.221,0.813c-0.145,0.25-0.371,0.449-0.676,0.6
					c-0.305,0.148-0.688,0.224-1.145,0.224c-0.592,0-1.088-0.078-1.486-0.234v-0.879c0.041,0.022,0.117,0.063,0.229,0.125
					s0.23,0.119,0.355,0.172c0.123,0.056,0.27,0.107,0.443,0.154c0.17,0.047,0.338,0.069,0.502,0.069c0.219,0,0.41-0.03,0.584-0.094
					c0.172-0.063,0.311-0.158,0.41-0.293c0.104-0.135,0.154-0.303,0.154-0.506c0-0.236-0.078-0.42-0.238-0.551
					c-0.158-0.129-0.471-0.33-0.934-0.6c-0.07-0.047-0.225-0.138-0.469-0.271c-0.24-0.137-0.426-0.26-0.561-0.373
					c-0.133-0.115-0.24-0.25-0.328-0.412c-0.086-0.164-0.129-0.354-0.129-0.576c0-0.479,0.158-0.854,0.475-1.111
					c0.316-0.26,0.783-0.393,1.398-0.393c0.168,0,0.326,0.012,0.479,0.033c0.148,0.021,0.293,0.047,0.438,0.078
					C110.586,121.949,110.705,121.975,110.803,121.998"/>
			</g>
		</g>
		<g>
			<g>
				<defs>
					<rect id="SVGID_51_" x="0.743" y="82.018" width="195.181" height="47.64"/>
				</defs>
				<clipPath id="SVGID_52_">
					<use xlink:href="#SVGID_51_"  overflow="visible"/>
				</clipPath>
				<path clip-path="url(#SVGID_52_)" fill="#86959D" d="M115.824,126.871v0.506c-0.43,0.131-0.838,0.194-1.227,0.194
					c-0.957,0-1.652-0.274-2.082-0.827c-0.434-0.554-0.646-1.295-0.646-2.229c0-0.593,0.092-1.093,0.273-1.496
					c0.184-0.404,0.441-0.709,0.775-0.91s0.723-0.303,1.17-0.303c0.43,0,0.785,0.079,1.064,0.239
					c0.281,0.16,0.488,0.377,0.617,0.647c0.131,0.271,0.197,0.584,0.197,0.939h-0.984c0-0.375-0.055-0.693-0.166-0.963
					c-0.107-0.268-0.371-0.4-0.785-0.4c-0.436,0-0.746,0.199-0.934,0.601c-0.188,0.399-0.281,0.879-0.281,1.438
					c0,0.301,0.037,0.612,0.109,0.938c0.074,0.322,0.191,0.619,0.357,0.887c0.162,0.271,0.377,0.486,0.645,0.646
					c0.266,0.16,0.59,0.24,0.965,0.24c0.203,0,0.35-0.011,0.439-0.027C115.422,126.969,115.586,126.928,115.824,126.871"/>
			</g>
		</g>
		<g>
			<g>
				<defs>
					<rect id="SVGID_53_" x="0.743" y="82.018" width="195.181" height="47.64"/>
				</defs>
				<clipPath id="SVGID_54_">
					<use xlink:href="#SVGID_53_"  overflow="visible"/>
				</clipPath>
				<path clip-path="url(#SVGID_54_)" fill="#86959D" d="M117.164,127.446v-7.991h0.848v3.957h0.021
					c0.088-0.224,0.199-0.453,0.348-0.688c0.145-0.234,0.348-0.447,0.604-0.636c0.258-0.188,0.557-0.282,0.896-0.282
					c0.391,0,0.721,0.131,0.992,0.393c0.27,0.258,0.402,0.647,0.402,1.17v4.08h-0.846v-3.697c0-0.381-0.057-0.682-0.168-0.904
					s-0.328-0.334-0.648-0.334c-0.313,0-0.59,0.133-0.838,0.396c-0.248,0.263-0.438,0.592-0.564,0.984
					c-0.129,0.392-0.195,0.764-0.195,1.108v2.444H117.164z"/>
			</g>
		</g>
		<g>
			<g>
				<defs>
					<rect id="SVGID_55_" x="0.743" y="82.018" width="195.181" height="47.64"/>
				</defs>
				<clipPath id="SVGID_56_">
					<use xlink:href="#SVGID_55_"  overflow="visible"/>
				</clipPath>
				<path clip-path="url(#SVGID_56_)" fill="#86959D" d="M127.1,123.578v3.231h0.709c0.322,0,0.619-0.031,0.896-0.092
					s0.521-0.209,0.732-0.441c0.213-0.233,0.318-0.584,0.318-1.053c0-0.672-0.193-1.113-0.582-1.326
					c-0.387-0.215-0.84-0.321-1.365-0.321H127.1V123.578z M127.1,120.09v2.85h0.709c0.434,0,0.816-0.11,1.148-0.332
					c0.334-0.221,0.5-0.612,0.5-1.176c0-0.547-0.156-0.908-0.469-1.08c-0.314-0.176-0.707-0.262-1.182-0.262H127.1L127.1,120.09z
					 M126.148,127.446v-7.991h1.596c0.439,0,0.852,0.035,1.227,0.106c0.373,0.07,0.707,0.25,1,0.537
					c0.291,0.287,0.439,0.717,0.439,1.289c0,0.348-0.068,0.652-0.207,0.916c-0.141,0.268-0.313,0.473-0.525,0.617
					c-0.215,0.148-0.432,0.238-0.654,0.273v0.021c0.484,0.082,0.898,0.291,1.24,0.627c0.34,0.336,0.514,0.808,0.514,1.414
					c0,0.504-0.104,0.91-0.307,1.22c-0.203,0.307-0.457,0.528-0.764,0.666c-0.309,0.139-0.605,0.225-0.896,0.254
					c-0.291,0.032-0.605,0.049-0.943,0.049h-1.717v0.002H126.148z"/>
			</g>
		</g>
		<g>
			<g>
				<defs>
					<rect id="SVGID_57_" x="0.743" y="82.018" width="195.181" height="47.64"/>
				</defs>
				<clipPath id="SVGID_58_">
					<use xlink:href="#SVGID_57_"  overflow="visible"/>
				</clipPath>
				<path clip-path="url(#SVGID_58_)" fill="#86959D" d="M135.5,127.446v-1.35h-0.02c-0.182,0.394-0.352,0.693-0.512,0.902
					c-0.162,0.207-0.352,0.355-0.574,0.441c-0.223,0.088-0.514,0.131-0.877,0.131c-0.287,0-0.527-0.088-0.727-0.266
					c-0.193-0.179-0.34-0.396-0.436-0.66c-0.098-0.267-0.143-0.525-0.143-0.781v-3.937h0.846v3.568c0,0.346,0.08,0.662,0.238,0.942
					c0.158,0.283,0.404,0.424,0.736,0.424c0.311,0,0.574-0.133,0.793-0.403c0.217-0.269,0.379-0.603,0.488-1
					c0.105-0.396,0.164-0.787,0.164-1.168v-2.363h0.846v5.517h-0.826v0.002H135.5z"/>
			</g>
		</g>
		<g>
			<g>
				<defs>
					<rect id="SVGID_59_" x="0.743" y="82.018" width="195.181" height="47.64"/>
				</defs>
				<clipPath id="SVGID_60_">
					<use xlink:href="#SVGID_59_"  overflow="visible"/>
				</clipPath>
				<path clip-path="url(#SVGID_60_)" fill="#86959D" d="M140.787,121.998v0.828c-0.502-0.293-0.965-0.441-1.387-0.441
					c-0.27,0-0.492,0.058-0.67,0.168c-0.182,0.115-0.27,0.277-0.27,0.492c0,0.199,0.066,0.367,0.205,0.5s0.391,0.295,0.752,0.488
					c0.363,0.19,0.623,0.336,0.779,0.434c0.189,0.111,0.355,0.232,0.494,0.365c0.143,0.133,0.25,0.293,0.328,0.471
					c0.08,0.185,0.119,0.396,0.119,0.638c0,0.293-0.072,0.563-0.219,0.813c-0.145,0.25-0.369,0.449-0.674,0.6
					c-0.307,0.148-0.689,0.224-1.148,0.224c-0.59,0-1.086-0.078-1.482-0.234v-0.879c0.041,0.022,0.115,0.063,0.229,0.125
					s0.232,0.119,0.354,0.172c0.125,0.056,0.271,0.107,0.441,0.154c0.172,0.047,0.34,0.069,0.506,0.069
					c0.219,0,0.41-0.03,0.584-0.094c0.17-0.063,0.309-0.158,0.41-0.293c0.105-0.135,0.156-0.303,0.156-0.506
					c0-0.236-0.08-0.42-0.24-0.551c-0.158-0.129-0.469-0.33-0.932-0.6c-0.07-0.047-0.229-0.138-0.469-0.271
					c-0.24-0.137-0.43-0.26-0.563-0.373c-0.131-0.115-0.24-0.25-0.326-0.412c-0.086-0.164-0.129-0.354-0.129-0.576
					c0-0.479,0.158-0.854,0.475-1.111c0.314-0.26,0.781-0.393,1.398-0.393c0.166,0,0.326,0.012,0.479,0.033
					c0.146,0.021,0.295,0.047,0.438,0.078C140.568,121.949,140.689,121.975,140.787,121.998"/>
			</g>
		</g>
	</g>
	<path fill="#86959D" d="M142.301,127.446h0.85v-5.516h-0.85V127.446z M142.244,120.498h0.961v-1.043h-0.961V120.498z"/>
	<g>
		<g>
			<g>
				<defs>
					<rect id="SVGID_61_" x="0.743" y="82.018" width="195.181" height="47.64"/>
				</defs>
				<clipPath id="SVGID_62_">
					<use xlink:href="#SVGID_61_"  overflow="visible"/>
				</clipPath>
				<path clip-path="url(#SVGID_62_)" fill="#86959D" d="M145.014,127.446v-5.516h0.826v1.355h0.021
					c0.205-0.43,0.463-0.785,0.771-1.063c0.307-0.279,0.707-0.421,1.191-0.421c0.227,0,0.424,0.043,0.592,0.132
					c0.166,0.086,0.305,0.202,0.41,0.35c0.104,0.145,0.184,0.301,0.229,0.469c0.047,0.168,0.07,0.334,0.07,0.502v4.191h-0.848v-3.57
					c0-0.422-0.043-0.756-0.131-1c-0.084-0.244-0.295-0.365-0.629-0.365c-0.354,0-0.656,0.135-0.906,0.4
					c-0.252,0.266-0.439,0.598-0.563,0.998c-0.127,0.4-0.189,0.791-0.189,1.172v2.365H145.014L145.014,127.446z"/>
			</g>
		</g>
		<g>
			<g>
				<defs>
					<rect id="SVGID_63_" x="0.743" y="82.018" width="195.181" height="47.64"/>
				</defs>
				<clipPath id="SVGID_64_">
					<use xlink:href="#SVGID_63_"  overflow="visible"/>
				</clipPath>
				<path clip-path="url(#SVGID_64_)" fill="#86959D" d="M151.547,123.518h2.291c0-0.328-0.078-0.619-0.234-0.871
					c-0.15-0.252-0.445-0.379-0.879-0.379c-0.293,0-0.525,0.074-0.705,0.228c-0.172,0.149-0.297,0.323-0.367,0.521
					C151.584,123.211,151.547,123.379,151.547,123.518 M154.615,126.858v0.494c-0.314,0.088-0.549,0.146-0.701,0.176
					c-0.156,0.029-0.373,0.043-0.652,0.043c-0.543,0-1.018-0.112-1.42-0.342c-0.406-0.229-0.717-0.569-0.939-1.026
					c-0.217-0.459-0.326-1.021-0.326-1.681c0-0.405,0.043-0.774,0.125-1.104c0.086-0.332,0.215-0.617,0.395-0.861
					s0.406-0.43,0.682-0.559c0.277-0.131,0.611-0.195,1.008-0.195c0.82,0,1.354,0.24,1.586,0.721c0.234,0.48,0.352,0.98,0.352,1.504
					h-3.197c0,0.767,0.162,1.455,0.484,2.066c0.324,0.613,0.859,0.92,1.611,0.92c0.119,0,0.24-0.006,0.359-0.02
					c0.123-0.014,0.232-0.033,0.334-0.061C154.412,126.912,154.514,126.883,154.615,126.858"/>
			</g>
		</g>
		<g>
			<g>
				<defs>
					<rect id="SVGID_65_" x="0.743" y="82.018" width="195.181" height="47.64"/>
				</defs>
				<clipPath id="SVGID_66_">
					<use xlink:href="#SVGID_65_"  overflow="visible"/>
				</clipPath>
				<path clip-path="url(#SVGID_66_)" fill="#86959D" d="M158.695,121.998v0.828c-0.502-0.293-0.965-0.441-1.385-0.441
					c-0.271,0-0.492,0.058-0.672,0.168c-0.182,0.115-0.27,0.277-0.27,0.492c0,0.199,0.068,0.367,0.207,0.5
					c0.137,0.133,0.389,0.295,0.75,0.488c0.363,0.19,0.623,0.336,0.777,0.434c0.191,0.111,0.357,0.232,0.498,0.365
					s0.25,0.293,0.328,0.471c0.08,0.185,0.117,0.396,0.117,0.638c0,0.293-0.072,0.563-0.219,0.813
					c-0.145,0.25-0.371,0.449-0.676,0.6c-0.303,0.148-0.686,0.224-1.146,0.224c-0.59,0-1.084-0.078-1.484-0.234v-0.879
					c0.041,0.022,0.117,0.063,0.229,0.125c0.113,0.062,0.23,0.119,0.354,0.172c0.125,0.056,0.271,0.107,0.441,0.154
					c0.174,0.047,0.34,0.069,0.506,0.069c0.217,0,0.41-0.03,0.582-0.094c0.172-0.063,0.311-0.158,0.412-0.293
					c0.104-0.135,0.154-0.303,0.154-0.506c0-0.236-0.08-0.42-0.238-0.551c-0.16-0.129-0.471-0.33-0.936-0.6
					c-0.068-0.047-0.227-0.138-0.467-0.271c-0.242-0.137-0.43-0.26-0.563-0.373c-0.131-0.115-0.24-0.25-0.328-0.412
					c-0.086-0.164-0.129-0.354-0.129-0.576c0-0.479,0.16-0.854,0.475-1.111c0.316-0.26,0.781-0.393,1.398-0.393
					c0.17,0,0.328,0.012,0.479,0.033c0.148,0.021,0.295,0.047,0.439,0.078C158.479,121.949,158.598,121.975,158.695,121.998"/>
			</g>
		</g>
		<g>
			<g>
				<defs>
					<rect id="SVGID_67_" x="0.743" y="82.018" width="195.181" height="47.64"/>
				</defs>
				<clipPath id="SVGID_68_">
					<use xlink:href="#SVGID_67_"  overflow="visible"/>
				</clipPath>
				<path clip-path="url(#SVGID_68_)" fill="#86959D" d="M162.73,121.998v0.828c-0.504-0.293-0.967-0.441-1.389-0.441
					c-0.27,0-0.49,0.058-0.67,0.168c-0.18,0.115-0.271,0.277-0.271,0.492c0,0.199,0.07,0.367,0.209,0.5
					c0.137,0.133,0.389,0.295,0.75,0.488c0.363,0.19,0.623,0.336,0.779,0.434c0.189,0.111,0.355,0.232,0.496,0.365
					s0.252,0.293,0.328,0.471c0.078,0.185,0.119,0.396,0.119,0.638c0,0.293-0.072,0.563-0.219,0.813
					c-0.146,0.25-0.369,0.449-0.676,0.6c-0.305,0.148-0.688,0.224-1.146,0.224c-0.59,0-1.086-0.078-1.486-0.234v-0.879
					c0.041,0.022,0.117,0.063,0.23,0.125c0.111,0.062,0.229,0.119,0.352,0.172c0.125,0.056,0.273,0.107,0.445,0.154
					s0.34,0.069,0.504,0.069c0.217,0,0.41-0.03,0.584-0.094c0.17-0.063,0.309-0.158,0.412-0.293s0.154-0.303,0.154-0.506
					c0-0.236-0.078-0.42-0.238-0.551c-0.16-0.129-0.471-0.33-0.934-0.6c-0.07-0.047-0.227-0.138-0.469-0.271
					c-0.24-0.137-0.428-0.26-0.563-0.373c-0.133-0.115-0.24-0.25-0.326-0.412c-0.086-0.164-0.129-0.354-0.129-0.576
					c0-0.479,0.158-0.854,0.475-1.111c0.316-0.26,0.781-0.393,1.398-0.393c0.168,0,0.326,0.012,0.477,0.033
					c0.148,0.021,0.297,0.047,0.441,0.078C162.512,121.949,162.633,121.975,162.73,121.998"/>
			</g>
		</g>
		<g>
			<g>
				<defs>
					<rect id="SVGID_69_" x="0.743" y="82.018" width="195.181" height="47.64"/>
				</defs>
				<clipPath id="SVGID_70_">
					<use xlink:href="#SVGID_69_"  overflow="visible"/>
				</clipPath>
				<path clip-path="url(#SVGID_70_)" fill="#86959D" d="M170.891,119.522v0.927c-0.701-0.324-1.33-0.484-1.889-0.484
					c-0.277,0-0.52,0.05-0.729,0.147c-0.209,0.1-0.373,0.24-0.486,0.418c-0.117,0.179-0.176,0.382-0.176,0.604
					c0,0.265,0.074,0.496,0.229,0.697c0.15,0.201,0.324,0.364,0.52,0.485c0.197,0.125,0.494,0.289,0.895,0.496
					c0.396,0.207,0.688,0.373,0.873,0.498c0.332,0.222,0.586,0.414,0.76,0.576s0.305,0.354,0.395,0.572
					c0.09,0.221,0.137,0.502,0.137,0.842c0,0.377-0.072,0.711-0.213,1.004c-0.143,0.295-0.342,0.535-0.598,0.717
					c-0.256,0.183-0.553,0.32-0.891,0.414c-0.336,0.09-0.703,0.138-1.104,0.138c-0.66,0-1.271-0.082-1.838-0.244v-1
					c0.779,0.375,1.441,0.562,1.988,0.562c0.504,0,0.898-0.121,1.188-0.365c0.291-0.242,0.436-0.588,0.436-1.037
					c0-0.271-0.063-0.506-0.189-0.703c-0.129-0.199-0.289-0.367-0.484-0.51c-0.195-0.142-0.439-0.291-0.736-0.447
					c-0.293-0.156-0.615-0.324-0.961-0.506c-0.41-0.225-0.732-0.492-0.967-0.799c-0.232-0.31-0.35-0.699-0.35-1.181
					c0-0.422,0.102-0.782,0.305-1.088c0.201-0.303,0.486-0.532,0.855-0.69c0.373-0.158,0.816-0.236,1.326-0.236
					C169.701,119.326,170.27,119.389,170.891,119.522"/>
			</g>
		</g>
		<g>
			<g>
				<defs>
					<rect id="SVGID_71_" x="0.743" y="82.018" width="195.181" height="47.64"/>
				</defs>
				<clipPath id="SVGID_72_">
					<use xlink:href="#SVGID_71_"  overflow="visible"/>
				</clipPath>
				<path clip-path="url(#SVGID_72_)" fill="#86959D" d="M176.236,126.871v0.506c-0.428,0.131-0.838,0.194-1.225,0.194
					c-0.959,0-1.652-0.274-2.084-0.827c-0.432-0.554-0.646-1.295-0.646-2.229c0-0.593,0.092-1.093,0.273-1.496
					c0.184-0.404,0.439-0.709,0.775-0.91c0.332-0.201,0.725-0.303,1.17-0.303c0.43,0,0.785,0.079,1.066,0.239
					s0.488,0.377,0.619,0.647c0.129,0.271,0.193,0.584,0.193,0.939h-0.982c0-0.375-0.057-0.693-0.166-0.963
					c-0.111-0.268-0.373-0.4-0.787-0.4c-0.438,0-0.748,0.199-0.936,0.601c-0.186,0.399-0.277,0.879-0.277,1.438
					c0,0.301,0.037,0.612,0.107,0.938c0.072,0.322,0.189,0.619,0.354,0.887c0.166,0.271,0.383,0.486,0.646,0.646
					c0.268,0.16,0.59,0.24,0.967,0.24c0.199,0,0.346-0.011,0.438-0.027C175.834,126.969,175.998,126.928,176.236,126.871"/>
			</g>
		</g>
		<g>
			<g>
				<defs>
					<rect id="SVGID_73_" x="0.743" y="82.018" width="195.181" height="47.64"/>
				</defs>
				<clipPath id="SVGID_74_">
					<use xlink:href="#SVGID_73_"  overflow="visible"/>
				</clipPath>
				<path clip-path="url(#SVGID_74_)" fill="#86959D" d="M177.576,127.446v-7.991h0.848v3.957h0.023
					c0.086-0.224,0.201-0.453,0.346-0.688c0.146-0.234,0.346-0.447,0.604-0.636c0.256-0.188,0.557-0.282,0.896-0.282
					c0.391,0,0.721,0.131,0.992,0.393c0.27,0.258,0.404,0.647,0.404,1.17v4.08h-0.848v-3.697c0-0.381-0.057-0.682-0.168-0.904
					s-0.328-0.334-0.646-0.334c-0.314,0-0.594,0.133-0.842,0.396c-0.246,0.264-0.436,0.592-0.564,0.984s-0.195,0.764-0.195,1.108
					v2.444H177.576z"/>
			</g>
		</g>
		<g>
			<g>
				<defs>
					<rect id="SVGID_75_" x="0.743" y="82.018" width="195.181" height="47.64"/>
				</defs>
				<clipPath id="SVGID_76_">
					<use xlink:href="#SVGID_75_"  overflow="visible"/>
				</clipPath>
				<path clip-path="url(#SVGID_76_)" fill="#86959D" d="M184.098,124.778c0,0.689,0.1,1.253,0.289,1.685
					c0.191,0.431,0.551,0.647,1.076,0.647c0.945,0,1.418-0.778,1.418-2.332c0-1.674-0.473-2.51-1.418-2.51
					c-0.525,0-0.885,0.232-1.076,0.701C184.193,123.438,184.098,124.041,184.098,124.778 M185.463,127.574
					c-1.543,0-2.316-0.943-2.316-2.828c0-0.918,0.189-1.642,0.568-2.16c0.377-0.521,0.961-0.78,1.748-0.78
					c0.793,0,1.387,0.26,1.779,0.782c0.395,0.521,0.59,1.242,0.59,2.158c0,0.594-0.086,1.104-0.256,1.532
					c-0.174,0.427-0.434,0.748-0.783,0.968C186.441,127.461,185.998,127.574,185.463,127.574"/>
			</g>
		</g>
		<g>
			<g>
				<defs>
					<rect id="SVGID_77_" x="0.743" y="82.018" width="195.181" height="47.64"/>
				</defs>
				<clipPath id="SVGID_78_">
					<use xlink:href="#SVGID_77_"  overflow="visible"/>
				</clipPath>
				<path clip-path="url(#SVGID_78_)" fill="#86959D" d="M189.852,124.778c0,0.689,0.098,1.253,0.287,1.685
					c0.191,0.431,0.549,0.647,1.076,0.647c0.945,0,1.418-0.778,1.418-2.332c0-1.674-0.473-2.51-1.418-2.51
					c-0.527,0-0.885,0.232-1.076,0.701S189.852,124.041,189.852,124.778 M191.215,127.574c-1.543,0-2.316-0.943-2.316-2.828
					c0-0.918,0.189-1.642,0.568-2.16c0.379-0.521,0.961-0.78,1.748-0.78c0.791,0,1.385,0.26,1.779,0.782
					c0.395,0.521,0.59,1.242,0.59,2.158c0,0.594-0.086,1.104-0.256,1.532c-0.174,0.427-0.434,0.748-0.783,0.968
					C192.193,127.461,191.75,127.574,191.215,127.574"/>
			</g>
		</g>
	</g>
	<rect x="195.076" y="119.455" fill="#86959D" width="0.848" height="7.991"/>
</g>
<g>
	<rect x="0.316" y="-86.098" fill="#A91F3D" width="197.07" height="63.328"/>
	<g opacity="0.35">
		<polyline fill="#9F4F5B" points="3.009,-85.299 3.147,-61.393 26.917,-85.16 		"/>
		<polyline fill="#A63637" points="26.979,-86.095 26.838,-62.189 50.744,-62.327 26.979,-86.095 		"/>
		<polygon opacity="0.91" fill="#D9D378" enable-background="new    " points="26.997,-38.618 27.138,-62.228 3.229,-62.385 		"/>
		<polygon opacity="0.91" fill="#E2DD9C" enable-background="new    " points="50.763,-62.327 26.856,-62.244 26.921,-38.636 		"/>
		<polygon opacity="0.91" fill="#E2DD9C" enable-background="new    " points="26.997,-38.605 3.089,-38.689 3.154,-62.297 		"/>
		<polyline fill="#C6C273" points="75.158,-85.834 51.392,-62.067 51.253,-85.973 		"/>
		<g>
			<g>
				<polygon fill="#F1C048" points="74.755,-38.702 50.849,-38.563 50.992,-62.47 				"/>
			</g>
		</g>
		<polygon fill="#F1C048" points="51.219,-62.151 27.311,-62.293 27.454,-38.386 		"/>
		<polygon fill="#A33838" points="27.47,-38.316 27.61,-63.281 2.645,-63.143 		"/>
		<line fill="none" x1="51.219" y1="-62.025" x2="27.454" y2="-85.792"/>
		<path fill="#7B3132" d="M27.454-85.792"/>
		<polyline fill="#FCE953" points="51.081,-85.774 51.219,-61.868 74.985,-85.634 		"/>
		<polyline fill="#9F4F5B" points="27.47,-85.566 51.24,-61.797 51.378,-85.705 		"/>
		<path fill="#EDAC31" d="M3.238-62.055"/>
		<polygon fill="#7B3132" points="28.193,-37.978 2.52,-38.542 2.661,-63.51 		"/>
		<polyline fill="#7B3132" points="75.24,-86.178 50.956,-62.411 50.815,-86.019 		"/>
		<polygon fill="#9F4F5B" points="52.699,-62.551 27.379,-62.694 27.521,-38.081 		"/>
		<polyline fill="#7B3132" points="28.379,-86.437 3.665,-62.15 27.872,-62.651 28.379,-86.437 		"/>
		<line fill="none" x1="3.147" y1="-61.393" x2="3.418" y2="-86.257"/>
		<g>
			<polygon fill="#C57429" points="74.8,-38.525 50.895,-38.609 50.958,-62.216 			"/>
		</g>
		<path fill="#B5B046" d="M75.492-85.242"/>
		<line fill="none" x1="75.492" y1="-85.242" x2="75.353" y2="-61.332"/>
		<polyline fill="#A29433" points="99.34,-85.227 99.197,-61.319 75.431,-85.085 		"/>
		<g>
			<polygon fill="#A63637" points="98.415,-63.25 98.555,-38.284 73.587,-38.425 			"/>
		</g>
		<polyline fill="#A63637" points="98.398,-86.06 98.331,-62.453 74.489,-86.144 		"/>
		<polyline fill="#842025" points="74.79,-86.218 98.555,-62.453 74.646,-62.311 74.79,-86.218 		"/>
		<polyline fill="#A63637" points="74.807,-86.288 74.949,-62.383 51.042,-62.521 74.807,-86.288 		"/>
		<polygon fill="#9A2A29" points="74.79,-38.812 74.646,-62.422 98.555,-62.581 		"/>
		<g>
			<polygon fill="#A63637" points="51.047,-62.604 49.494,-38.29 75.518,-38.13 			"/>
		</g>
		<line fill="none" x1="192.505" y1="-61.713" x2="168.734" y2="-85.48"/>
		<path fill="#CEC97B" d="M192.642-85.62"/>
		<polyline fill="#C6C489" points="169.213,-85.653 192.979,-61.889 169.071,-61.746 169.213,-85.653 		"/>
		<polyline fill="#C6C489" points="169.229,-85.726 169.367,-61.819 145.466,-61.958 169.229,-85.726 		"/>
		<polygon opacity="0.91" fill="#E2DD9C" enable-background="new    " points="145.446,-61.958 169.354,-61.875 169.287,-38.265 		
			"/>
		<polygon fill="#C6C47F" points="121.173,-38.017 121.031,-61.925 144.94,-61.786 		"/>
		<polyline fill="#CEC97B" points="121.114,-85.477 144.957,-61.786 121.049,-61.869 121.114,-85.477 		"/>
		<polyline fill="#C6C273" points="144.657,-85.674 144.801,-61.767 168.565,-85.534 		"/>
		<polyline fill="#C6C273" points="121.049,-85.462 144.815,-61.699 144.957,-85.604 		"/>
		<polyline fill="#7B3132" points="192.634,-86.095 192.487,-61.131 167.661,-85.956 		"/>
		<polyline fill="#F1C048" points="121.453,-85.587 145.216,-61.82 121.311,-61.678 121.453,-85.587 		"/>
		<polygon fill="#EDAC31" points="121.453,-38.181 121.311,-61.79 145.216,-61.947 		"/>
		<polygon fill="#7B3132" points="168.742,-37.945 168.597,-61.852 192.505,-61.713 		"/>
		<polyline fill="#9A2A29" points="168.754,-85.421 170.125,-61.562 144.99,-61.655 168.754,-85.421 		"/>
		<polyline fill="#9F4F5B" points="168.684,-85.403 192.523,-61.713 169.071,-61.746 168.684,-85.403 		"/>
		<polyline fill="#FCE953" points="145.129,-85.404 144.99,-61.497 121.222,-85.265 		"/>
		<polyline fill="#7B3132" points="169.626,-85.879 144.797,-61.052 144.657,-86.017 		"/>
		<polyline fill="#9F4F5B" points="120.298,-86.22 145.642,-61.393 145.783,-86.06 		"/>
		<polygon fill="#842025" points="144.922,-62.182 168.83,-62.323 168.689,-38.416 		"/>
		<polyline fill="#B66C29" points="121.408,-85.575 145.693,-61.809 121.268,-61.666 121.408,-85.575 		"/>
		<polygon fill="#C57429" points="121.41,-38.168 121.268,-61.775 145.693,-61.934 		"/>
		<g>
			<polygon fill="#C57429" points="121.408,-38.156 145.313,-38.239 145.25,-61.845 			"/>
		</g>
		<line fill="none" x1="120.7" y1="-13.842" x2="144.606" y2="-13.703"/>
		<polyline fill="#AAA134" points="120.698,-84.799 144.463,-61.033 120.559,-60.89 120.698,-84.799 		"/>
		<polygon fill="#998A31" points="120.7,-37.392 120.559,-61 144.463,-61.161 		"/>
		<g>
			<polygon fill="#AE3434" points="98.331,-62.453 97.651,-37.915 121.561,-38.055 			"/>
		</g>
		<polyline fill="#9F4F5B" points="97.811,-86.098 97.878,-62.491 121.72,-86.181 		"/>
		<polyline fill="#842025" points="121.418,-85.85 97.651,-62.083 121.561,-61.94 121.418,-85.85 		"/>
		<polyline fill="#9A2A29" points="121.404,-85.919 121.258,-62.014 145.164,-62.151 121.404,-85.919 		"/>
		<polygon fill="#A33838" points="121.418,-38.441 121.561,-62.05 97.651,-62.21 		"/>
		<polygon fill="#AE3434" points="145.184,-62.151 121.276,-62.069 121.346,-38.46 		"/>
		<g>
			<polygon fill="#A33838" points="145.162,-62.235 146.363,-37.568 119.275,-37.406 			"/>
			<polygon fill="#A63637" points="170.125,-38.165 145.446,-38.099 145.101,-63.031 			"/>
		</g>
	</g>
	<rect x="14.288" y="-61.19" fill="none" width="166.759" height="29.426"/>
	<text transform="matrix(1 0 0 1 48.7813 -47.6514)" fill="#FFFFFF" font-family="'MyriadPro-Bold'" font-size="19.0658">ASTD Week</text>
</g>
<radialGradient id="SVGID_79_" cx="98.5" cy="193.8921" r="73.5798" gradientTransform="matrix(1 0 0 -1 0.1602 59.1299)" gradientUnits="userSpaceOnUse">
	<stop  offset="0" style="stop-color:#ACA134"/>
	<stop  offset="0.0557" style="stop-color:#B0A539"/>
	<stop  offset="0.1741" style="stop-color:#B7AC43"/>
	<stop  offset="0.314" style="stop-color:#BBB04A"/>
	<stop  offset="0.5273" style="stop-color:#BCB14C"/>
	<stop  offset="1" style="stop-color:#AA9F34"/>
</radialGradient>
<polygon fill="url(#SVGID_79_)" points="197,-168.78 0.321,-168.656 0.321,-100.744 6.314,-100.744 6.737,-161.413 
	104.229,-161.357 30.006,-100.744 197,-100.868 "/>
<polygon fill="#CECE4C" points="6.737,-161.413 6.314,-100.744 30.006,-100.744 105.229,-161.357 "/>
<rect x="15.292" y="-153.587" fill="none" width="154.292" height="48.337"/>
<text transform="matrix(1 0 0 1 14.2925 -137.7798)" fill="#FFFFFF" font-family="'MyriadPro-Bold'" font-size="21.8697">CLO Innovation </text>
<text transform="matrix(1 0 0 1 14.2925 -115.9106)" fill="#FFFFFF" font-family="'MyriadPro-Bold'" font-size="21.8697">Africa Network</text>
<g>
	<rect x="0.359" y="147.538" fill="#E0B430" width="196.961" height="63.396"/>
	<g opacity="0.28">
		<polyline fill="#CDC97B" points="4.9,149.473 5.039,173.424 28.854,149.614 		"/>
		<g>
			<polygon fill="#C5C388" points="76.398,196.319 52.444,196.461 52.585,172.51 			"/>
			<polygon opacity="0.91" fill="#D8D277" points="52.604,172.44 52.744,196.389 28.793,196.249 			"/>
		</g>
		<polyline fill="#C5C388" points="28.933,148.747 5.122,172.555 29.076,172.7 28.933,148.747 		"/>
		<polyline fill="#C5C388" points="28.916,148.674 28.775,172.625 52.725,172.489 28.916,148.674 		"/>
		<polygon opacity="0.91" fill="#D8D277" points="28.933,196.241 29.076,172.586 5.122,172.428 		"/>
		<polygon opacity="0.91" fill="#E1DC9B" points="52.744,172.489 28.793,172.571 28.857,196.219 		"/>
		<polygon opacity="0.91" fill="#E1DC9B" points="28.933,196.252 4.982,196.168 5.047,172.518 		"/>
		<polygon fill="#C5C37E" points="77.063,196.471 77.205,172.518 53.252,172.659 		"/>
		<polyline fill="#CDC97B" points="77.121,148.926 53.234,172.659 77.186,172.577 77.121,148.926 		"/>
		<polyline fill="#C5C173" points="53.534,148.725 53.393,172.676 29.58,148.866 		"/>
		<polyline fill="#C5C173" points="77.186,148.936 53.376,172.747 53.234,148.797 		"/>
		<polyline fill="#DE9B2D" points="5.248,148.93 5.392,172.883 29.203,149.073 		"/>
		<polyline fill="#F0C049" points="76.781,148.811 52.973,172.624 76.924,172.766 76.781,148.811 		"/>
		<polygon fill="#ECAB32" points="76.781,196.309 76.924,172.655 52.973,172.497 		"/>
		<g>
			<g>
				<polygon fill="#F0C049" points="76.781,196.153 52.831,196.297 52.973,172.344 				"/>
				<polygon fill="#FBE752" points="52.989,172.274 53.131,196.225 29.179,196.083 				"/>
			</g>
		</g>
		<polygon fill="#F0C049" points="53.201,172.663 29.25,172.522 29.39,196.473 		"/>
		<polygon fill="#E7B333" points="29.406,196.543 29.547,172.592 5.6,172.733 		"/>
		<polyline fill="#DE9B2D" points="29.39,148.979 28.021,172.883 53.201,172.79 29.39,148.979 		"/>
		<polyline fill="#EAD764" points="29.465,148.999 5.578,172.733 29.076,172.7 29.465,148.999 		"/>
		<polyline fill="#FBE752" points="53.063,148.997 53.201,172.946 77.013,149.137 		"/>
		<polyline fill="#DE9B2D" points="29.406,149.204 53.223,173.018 53.357,149.067 		"/>
		<g>
			<polygon fill="#FBE752" points="5.727,173.53 5.588,197.182 29.539,197.34 			"/>
		</g>
		<path fill="#ECAB32" d="M5.131,172.758"/>
		<polyline fill="#E09340" points="77.269,148.592 52.938,172.403 52.794,148.75 		"/>
		<polygon fill="#DE9B2D" points="53.27,172.262 29.317,172.12 29.459,196.071 		"/>
		<polyline fill="#E09340" points="29.58,148.866 4.822,173.198 29.076,172.7 29.58,148.866 		"/>
		<line fill="#D79228" x1="5.039" y1="173.424" x2="5.313" y2="148.512"/>
		<polyline fill="#B46C29" points="76.827,148.825 52.494,172.635 76.969,172.778 76.827,148.825 		"/>
		<polygon fill="#C47429" points="76.827,196.319 76.969,172.668 52.494,172.51 		"/>
		<g>
			<polygon fill="#B46C29" points="53.014,172.059 53.154,196.231 28.684,196.389 			"/>
			<polygon fill="#C47429" points="76.827,196.333 52.875,196.249 52.941,172.6 			"/>
		</g>
		<polygon fill="#F5DE6E" points="51.834,172.643 51.973,196.295 28.021,196.454 		"/>
		<g>
			<polygon fill="#AAA034" points="101.207,173.293 101.351,197.247 77.398,197.108 			"/>
		</g>
		<polyline fill="#AAA034" points="77.539,149.602 53.729,173.413 77.678,173.555 77.539,149.602 		"/>
		<polyline fill="#B4AE46" points="77.52,149.53 77.38,173.483 101.331,173.344 77.52,149.53 		"/>
		<polygon fill="#988932" points="77.537,197.098 77.678,173.444 53.729,173.284 		"/>
		<polygon fill="#AAA034" points="101.351,173.344 77.398,173.426 77.463,197.079 		"/>
		<g>
			<polygon fill="#6D682B" points="53.728,173.354 53.871,197.008 29.914,197.167 			"/>
			<polygon fill="#8B8B35" points="77.539,197.11 53.586,197.026 53.652,173.374 			"/>
		</g>
		<polyline fill="#A19333" points="101.411,149.545 101.27,173.497 77.458,149.686 		"/>
		<g>
			<polygon fill="#E7B333" points="100.485,172.624 100.628,197.575 75.674,197.434 			"/>
		</g>
		<polyline fill="#DE9B2D" points="100.471,148.709 100.401,172.36 76.516,148.625 		"/>
		<polyline fill="#E2A942" points="76.816,148.549 100.628,172.36 76.674,172.504 76.816,148.549 		"/>
		<polyline fill="#E09340" points="76.832,148.481 76.976,172.432 53.025,172.292 76.832,148.481 		"/>
		<polygon fill="#ECAB32" points="76.816,196.047 76.674,172.393 100.628,172.233 		"/>
		<polygon fill="#D88634" points="53.006,172.292 76.957,172.374 76.891,196.026 		"/>
		<g>
			<polygon fill="#E2A942" points="53.029,172.209 52.889,197.862 78.838,198.022 			"/>
			<polygon fill="#D79228" points="26.021,198.325 52.744,198.389 53.091,171.409 			"/>
		</g>
		<line fill="#CDC97B" x1="194.75" y1="173.102" x2="170.937" y2="149.293"/>
		<path fill="#CDC97B" d="M194.891,149.151"/>
		<g>
			<polygon fill="#C5C388" points="123.952,196.69 147.903,196.833 147.763,172.879 			"/>
			<polygon opacity="0.91" fill="#D8D277" points="147.746,172.809 147.605,196.762 171.557,196.622 			"/>
		</g>
		<polyline fill="#C5C388" points="171.417,149.118 195.227,172.926 171.273,173.069 171.417,149.118 		"/>
		<polyline fill="#C5C388" points="171.432,149.045 171.573,172.997 147.624,172.858 171.432,149.045 		"/>
		<polygon opacity="0.91" fill="#D8D277" points="171.417,196.612 171.273,172.958 195.227,172.799 		"/>
		<polygon opacity="0.91" fill="#E1DC9B" points="147.605,172.858 171.557,172.94 171.489,196.594 		"/>
		<polygon fill="#C5C37E" points="123.288,196.842 123.144,172.889 147.097,173.03 		"/>
		<polyline fill="#CDC97B" points="123.229,149.293 147.116,173.03 123.163,172.946 123.229,149.293 		"/>
		<polyline fill="#C5C173" points="146.815,149.096 146.958,173.049 170.768,149.239 		"/>
		<polyline fill="#C5C173" points="123.163,149.309 146.974,173.118 147.116,149.168 		"/>
		<polyline fill="#DE9B2D" points="194.88,148.674 194.735,172.625 169.863,148.815 		"/>
		<polyline fill="#F0C049" points="123.567,149.184 147.374,172.995 123.425,173.135 123.567,149.184 		"/>
		<polygon fill="#ECAB32" points="123.567,196.678 123.425,173.026 147.374,172.866 		"/>
		<g>
			<g>
				<polygon fill="#F0C049" points="123.567,196.526 147.519,196.668 147.374,172.713 				"/>
				<polygon fill="#FBE752" points="147.358,172.643 147.216,196.598 171.169,196.456 				"/>
			</g>
		</g>
		<polygon fill="#F0C049" points="147.146,173.032 171.1,172.893 170.957,196.844 		"/>
		<polygon fill="#E7B333" points="170.943,196.915 170.799,172.963 194.75,173.102 		"/>
		<polyline fill="#DE9B2D" points="170.957,149.35 172.329,173.254 147.146,173.161 170.957,149.35 		"/>
		<polyline fill="#EAD764" points="170.885,149.366 194.769,173.102 171.273,173.069 170.885,149.366 		"/>
		<polyline fill="#FBE752" points="147.288,149.366 147.146,173.319 123.334,149.506 		"/>
		<polyline fill="#DE9B2D" points="171.828,148.893 148.016,172.706 146.815,148.752 		"/>
		<path fill="#ECAB32" d="M195.219,173.131"/>
		<polyline fill="#E09340" points="122.411,148.549 147.801,173.422 147.945,148.709 		"/>
		<polygon fill="#DE9B2D" points="147.079,172.633 171.033,172.491 170.891,196.442 		"/>
		<polyline fill="#E09340" points="170.768,149.239 194.75,173.102 171.273,173.069 170.768,149.239 		"/>
		<polyline fill="#B46C29" points="123.521,149.196 147.854,173.006 123.379,173.149 123.521,149.196 		"/>
		<polygon fill="#C47429" points="123.523,196.69 123.379,173.04 147.854,172.879 		"/>
		<g>
			<polygon fill="#B46C29" points="147.336,172.428 147.193,196.602 171.667,196.76 			"/>
			<polygon fill="#C47429" points="123.521,196.704 147.473,196.622 147.408,172.969 			"/>
		</g>
		<polygon fill="#F5DE6E" points="148.517,173.014 148.376,196.668 172.329,196.823 		"/>
		<polyline fill="#AAA034" points="122.81,149.973 146.62,173.782 122.672,173.926 122.81,149.973 		"/>
		<polyline fill="#B4AE46" points="122.829,149.903 122.969,173.852 99.018,173.715 122.829,149.903 		"/>
		<polygon fill="#988932" points="122.812,197.467 122.672,173.817 146.62,173.657 		"/>
		<g>
			<polygon fill="#6D682B" points="146.622,173.727 146.481,197.379 170.433,197.538 			"/>
			<polygon fill="#8B8B35" points="122.81,197.481 146.763,197.397 146.696,173.745 			"/>
		</g>
		<g>
			<polygon fill="#E7B333" points="100.401,172.36 99.721,196.946 123.674,196.805 			"/>
		</g>
		<polyline fill="#DE9B2D" points="99.879,148.672 99.947,172.323 123.833,148.588 		"/>
		<polyline fill="#E2A942" points="123.532,148.922 99.721,172.733 123.674,172.874 123.532,148.922 		"/>
		<polyline fill="#E09340" points="123.518,148.85 123.373,172.801 147.322,172.663 123.518,148.85 		"/>
		<polygon fill="#ECAB32" points="123.53,196.415 123.674,172.764 99.721,172.606 		"/>
		<polygon fill="#D88634" points="147.342,172.663 123.39,172.747 123.459,196.399 		"/>
		<g>
			<polygon fill="#E2A942" points="147.318,172.581 147.461,198.233 121.508,198.393 			"/>
			<polygon fill="#D79228" points="174.329,198.696 147.605,198.762 147.26,171.78 			"/>
		</g>
		<polygon fill="#E2A942" points="168.926,198.543 194.878,198.688 194.737,172.737 		"/>
		<polygon fill="#E2A942" points="32.424,199.172 4.473,199.315 4.613,171.366 		"/>
	</g>
	<text transform="matrix(1 0 0 1 28.9727 186.1001)" fill="#FFFFFF" font-family="'MyriadPro-Bold'" font-size="19.0658">Mini-Conference</text>
</g>
<rect x="-0.58" y="234.232" fill="#BCC437" width="197.551" height="63.031"/>
<g opacity="0.44">
	<polygon fill="#C3C14C" points="169.836,235.018 194.296,234.875 194.156,259.335 	"/>
	<polygon fill="#B4AE46" points="145.97,258.636 146.111,282.274 122.174,282.433 	"/>
	<polygon fill="#C2B943" points="169.77,282.376 145.83,282.293 145.894,258.655 	"/>
	<polygon fill="#C2B43C" points="145.97,258.734 169.907,258.875 169.77,234.939 	"/>
	<polygon fill="#CAB434" points="169.752,234.868 169.607,258.805 194.156,259.335 	"/>
	<polygon fill="#B4AE46" points="169.768,282.406 169.907,258.767 145.452,258.61 	"/>
	<polygon fill="#C2B43C" points="194.034,258.961 169.467,258.222 169.836,283.515 	"/>
	<polygon fill="#CAB434" points="193.952,258.693 194.097,282.63 170.155,282.491 	"/>
	<g>
		<g>
			<polygon fill="#C3C053" points="98.809,259.562 98.665,235.625 122.605,235.765 			"/>
		</g>
		<g>
			<polygon fill="#CAB434" points="146.261,258.924 122.323,258.784 122.463,282.721 			"/>
			<polygon fill="#C3C14C" points="122.482,282.792 122.622,258.854 98.685,258.995 			"/>
			<polygon fill="#BEBE39" points="122.463,235.253 122.323,258.892 146.782,259.052 			"/>
			<polygon fill="#B4AE46" points="98.665,258.995 122.604,258.912 122.538,235.273 			"/>
		</g>
		<g>
			<polygon fill="#BEBE39" points="146.261,259.503 146.122,235.865 170.059,235.705 			"/>
			<polygon fill="#C2B943" points="122.463,235.761 146.402,235.844 146.336,259.484 			"/>
		</g>
	</g>
	<polygon fill="#BEBE39" points="98.585,258.762 98.446,282.402 122.386,282.559 	"/>
	<polygon fill="#C3C14C" points="75.907,234.664 100.365,234.521 100.226,258.983 	"/>
	<polygon fill="#B4AE46" points="51.982,258.283 52.123,281.921 28.185,282.08 	"/>
	<polygon fill="#C2B943" points="75.779,282.022 51.842,281.939 51.906,258.301 	"/>
	<polygon fill="#C2B43C" points="51.982,258.379 75.918,258.522 75.779,234.586 	"/>
	<polygon fill="#CAB434" points="75.764,234.513 75.619,258.452 99.557,258.313 	"/>
	<polygon fill="#B4AE46" points="75.775,282.051 75.918,258.416 51.463,258.255 	"/>
	<polygon fill="#C2B43C" points="99.577,258.312 75.639,258.394 75.705,282.034 	"/>
	<polygon fill="#CAB434" points="99.434,258.222 99.577,282.161 75.639,282.02 	"/>
	<g>
		<g>
			<polygon fill="#C3C053" points="4.82,259.209 4.677,235.27 28.615,235.412 			"/>
		</g>
		<g>
			<polygon fill="#CAB434" points="52.271,258.57 28.333,258.429 28.474,282.369 			"/>
			<polygon fill="#C3C14C" points="28.494,282.439 28.635,258.5 4.695,258.641 			"/>
			<polygon fill="#BEBE39" points="28.474,234.901 28.333,258.54 52.793,258.698 			"/>
			<polygon fill="#B4AE46" points="4.677,258.641 28.615,258.558 28.549,234.92 			"/>
		</g>
		<g>
			<polygon fill="#BEBE39" points="52.271,259.148 52.131,235.512 76.07,235.35 			"/>
			<polygon fill="#C2B943" points="28.474,235.409 52.412,235.492 52.35,259.131 			"/>
		</g>
	</g>
	<polygon fill="#BEBE39" points="4.599,258.409 4.457,282.046 28.396,282.207 	"/>
</g>
<text transform="matrix(1 0 0 1 30.915 270.9019)" fill="#FFFFFF" font-family="'MyriadPro-Bold'" font-size="19.0658">Company Visits</text>
</svg>
