<?xml version="1.0" encoding="utf-8"?>
<!-- Generator: Adobe Illustrator 15.0.0, SVG Export Plug-In . SVG Version: 6.00 Build 0)  -->
<!DOCTYPE svg PUBLIC "-//W3C//DTD SVG 1.1//EN" "http://www.w3.org/Graphics/SVG/1.1/DTD/svg11.dtd">
<svg version="1.1" id="Layer_1" xmlns="http://www.w3.org/2000/svg" xmlns:xlink="http://www.w3.org/1999/xlink" x="0px" y="0px"
	 width="26.361px" height="26.156px" viewBox="0 0 26.361 26.156" enable-background="new 0 0 26.361 26.156" xml:space="preserve">
<g>
	<polygon fill="#C4C152" points="0.001,-0.116 -0.156,26.271 26.519,26.271 	"/>
	<polygon fill="#B5B046" points="0.129,0.005 26.519,0.095 26.519,26.271 	"/>
	<path fill="#1A1616" d="M11.683,9.802V7.619c0,0-0.063-1.122-1.438-1.187C8.873,6.369,8.499,7.245,8.437,8.118s0,8.732,0,8.732
		s0.5,2.869,3.245,2.869c2.746,0,5.489,0,5.489,0s1.063-0.5,1.063-1.683c0-1.188-0.615-1.641-1.374-1.686
		c-0.807-0.05-5.177,0-5.177,0v-3.279h5.489c0,0,1-0.219,1.063-1.399c0.06-1.187-0.615-1.761-1.313-1.813
		C16.178,9.814,11.683,9.802,11.683,9.802z"/>
</g>
</svg>
