<?xml version="1.0" encoding="utf-8"?>
<!-- Generator: Adobe Illustrator 15.0.0, SVG Export Plug-In . SVG Version: 6.00 Build 0)  -->
<!DOCTYPE svg PUBLIC "-//W3C//DTD SVG 1.1//EN" "http://www.w3.org/Graphics/SVG/1.1/DTD/svg11.dtd">
<svg version="1.1" id="Layer_1" xmlns="http://www.w3.org/2000/svg" xmlns:xlink="http://www.w3.org/1999/xlink" x="0px" y="0px"
	 width="26.361px" height="26.156px" viewBox="0 0 26.361 26.156" enable-background="new 0 0 26.361 26.156" xml:space="preserve">
<g>
	<g>
		<polygon fill="#C4C152" points="26.42,-0.211 26.459,26.178 0.195,26.077 		"/>
		<polygon fill="#B5B046" points="26.288,-0.09 -0.096,-0.12 -0.096,26.368 		"/>
	</g>
	<g>
		<g>
			<rect x="6.482" y="9.59" fill="#1A1616" width="3.581" height="9.199"/>
			<path fill="#1A1616" d="M14.35,9.59v1.207c0,0,1.01-1.357,2.914-1.451c0.068-0.005,0.14-0.007,0.209-0.007
				c0,0,1.748-0.167,2.705,1.458c0,0,0.584,0.873,0.668,1.873c0.082,0.999,0,6.035,0,6.035l-3.455,0.084l-0.106-5.787
				c0,0-0.353-0.736-0.978-0.828c-0.625-0.088-1.375,0.33-1.416,0.911c-0.041,0.584-0.041,5.704-0.041,5.704h-3.498V9.547
				L14.35,9.59z"/>
			<ellipse fill="#1A1616" cx="8.272" cy="7.093" rx="1.791" ry="1.664"/>
		</g>
	</g>
</g>
</svg>
