<svg version="1.1" id="Layer_1" xmlns="http://www.w3.org/2000/svg" xmlns:xlink="http://www.w3.org/1999/xlink" x="0px" y="0px"
	 viewBox="0 0 31.8 31.2" enable-background="new 0 0 31.8 31.2" xml:space="preserve" width="100%" height="100%" class="svg-tel">
<polygon fill="#C3C053" points="31.8,0 31.8,31.2 0,31.2 "/>
<polygon fill="#B4AE46" points="31.8,0 0,0 0,31.2 "/>
<g>
	<path fill="#FFFFFF" d="M10.5,3.2c0,0-2.3,1.1-3.4,2.5C6,7,6,7,6,7s0.9,8.1,3.6,12.3c2.7,4.2,5.6,7.2,6.8,8.2c1.2,1,1.2,1,1.2,1
		s2.3-0.2,3.7-0.6l1.9-0.7l-4-4.8c0,0-2.1,1-2.9,0.3c-0.8-0.7-2.3-3.6-3.1-5.4c-0.8-1.8-3-5.2-3-6.2c0-1,0.1-0.9,0.9-1.4
		C11.7,9.1,11.9,9,11.9,9L10.5,3.2z"/>
	<path opacity="0.2" fill="#FFFFFF" stroke="#000000" stroke-miterlimit="10" d="M23.1,27.1"/>
	<path fill="#FFFFFF" d="M11.3,2.9l1.1-0.4c0,0,0.5,0.4,0.6,1.2c0.1,0.9,1,4,1,4s0,0.5-0.6,0.8c-0.6,0.2-0.6,0.2-0.6,0.2L11.3,2.9z"
		/>
	<path fill="#FFFFFF" d="M19.8,22.1l4,4.4c0,0,0.5-0.2,0.7-0.5l0.3-0.5l-3.3-4c0,0-0.5-0.1-1.2,0.1L19.8,22.1z"/>
</g>
</svg>
