<?xml version="1.0" encoding="utf-8"?>
<!-- Generator: Adobe Illustrator 15.0.0, SVG Export Plug-In . SVG Version: 6.00 Build 0)  -->
<!DOCTYPE svg PUBLIC "-//W3C//DTD SVG 1.1//EN" "http://www.w3.org/Graphics/SVG/1.1/DTD/svg11.dtd">
<svg version="1.1" id="Layer_1" xmlns="http://www.w3.org/2000/svg" xmlns:xlink="http://www.w3.org/1999/xlink" x="0px" y="0px"
	 width="26.325px" height="26.023px" viewBox="0 0 26.325 26.023" enable-background="new 0 0 26.325 26.023" xml:space="preserve">
<g>
	<polygon fill="#C4C152" points="26.419,-0.18 26.423,26.204 0.036,25.898 	"/>
	<polygon fill="#B5B046" points="26.288,-0.063 -0.098,-0.124 0.11,25.932 	"/>
	<g>
		<path fill="#1A1616" d="M8.61,2.639c0,0-1.957,0.963-2.871,2.064C4.826,5.811,4.826,5.811,4.826,5.811s0.762,6.823,3.012,10.33
			c2.248,3.509,4.729,6.063,5.718,6.864c0.992,0.8,0.992,0.8,0.992,0.8s1.955-0.146,3.1-0.488l1.604-0.626l-3.355-4.041
			c0,0-1.791,0.839-2.442,0.225c-0.646-0.606-1.945-3.046-2.63-4.533c-0.684-1.485-2.479-4.384-2.479-5.188
			c0-0.802,0.116-0.722,0.727-1.146c0.607-0.416,0.764-0.455,0.764-0.455L8.61,2.639z"/>
		<path opacity="0.2" fill="#FFFFFF" stroke="#010101" stroke-miterlimit="10" enable-background="new    " d="M19.248,22.692"/>
		<path fill="#1A1616" d="M9.294,2.371l0.917-0.31c0,0,0.418,0.31,0.532,1.031c0.112,0.727,0.875,3.318,0.875,3.318
			s0,0.457-0.494,0.647c-0.495,0.188-0.495,0.188-0.495,0.188L9.294,2.371z"/>
		<path fill="#1A1616" d="M16.462,18.497l3.396,3.696c0,0,0.438-0.152,0.629-0.38l0.283-0.421l-2.779-3.354
			c0,0-0.457-0.096-0.994,0.06L16.462,18.497z"/>
	</g>
</g>
</svg>
