<svg version="1.1" id="Layer_1" xmlns="http://www.w3.org/2000/svg" xmlns:xlink="http://www.w3.org/1999/xlink" x="0px" y="0px"
	 viewBox="0 0 194.4 108.1" enable-background="new 0 0 194.4 108.1" xml:space="preserve" width="100%" height="100%">
<g>
	<g>
		<polygon fill-rule="evenodd" clip-rule="evenodd" fill="#8E9AA2" points="1,42.7 5.9,42.7 5.9,41.8 2.2,41.8 2.2,37.9 5.6,37.9 
			5.6,37.1 2.2,37.1 2.2,33.6 5.8,33.6 5.8,32.9 1,32.9 		"/>
		<polygon fill-rule="evenodd" clip-rule="evenodd" fill="#8E9AA2" points="6.6,42.7 7.7,42.7 9.5,39.9 11.4,42.7 12.6,42.7 
			10.3,39.1 12.4,35.9 11.3,35.9 9.7,38.3 8.1,35.9 6.9,35.9 9,39.1 		"/>
		<path fill-rule="evenodd" clip-rule="evenodd" fill="#8E9AA2" d="M18.5,41.9c-0.2,0.1-0.4,0.1-0.5,0.1c-0.2,0-0.4,0.1-0.7,0.1
			c-0.7,0-1.2-0.2-1.6-0.6c-0.4-0.4-0.6-0.9-0.8-1.4c-0.1-0.6-0.2-1.1-0.2-1.6h4c0-0.2,0-0.5-0.1-1c-0.1-0.4-0.3-0.8-0.6-1.2
			c-0.3-0.4-0.9-0.6-1.7-0.6c-1,0-1.7,0.3-2.1,0.9c-0.4,0.6-0.6,1.4-0.6,2.4c0,1.2,0.3,2.2,0.9,2.8c0.6,0.6,1.4,0.9,2.4,0.9
			c0.4,0,0.7,0,0.9-0.1c0.2,0,0.5-0.1,0.8-0.2V41.9z M14.7,37.8c0-0.1,0-0.3,0.1-0.6c0.1-0.2,0.2-0.5,0.4-0.7
			c0.2-0.2,0.5-0.3,0.9-0.3c0.4,0,0.7,0.1,0.9,0.3c0.2,0.2,0.3,0.4,0.4,0.6c0.1,0.2,0.1,0.5,0.1,0.7H14.7z"/>
		<path fill-rule="evenodd" clip-rule="evenodd" fill="#8E9AA2" d="M24.7,42c-0.2,0.1-0.3,0.1-0.5,0.1c-0.2,0-0.4,0.1-0.6,0.1
			c-0.6,0-1.2-0.2-1.5-0.5c-0.4-0.3-0.6-0.8-0.8-1.3c-0.2-0.5-0.2-1-0.2-1.5c0-0.4,0-0.8,0.1-1.1c0.1-0.4,0.2-0.7,0.5-1
			c0.2-0.3,0.5-0.4,0.9-0.4c0.4,0,0.7,0.1,0.8,0.3c0.2,0.2,0.3,0.4,0.3,0.7c0,0.3,0.1,0.5,0,0.7h1.2c0-0.6-0.2-1.2-0.5-1.6
			c-0.4-0.4-1-0.6-1.8-0.7c-0.8,0-1.5,0.3-2,0.8c-0.5,0.6-0.7,1.4-0.8,2.5c0,0.7,0.1,1.4,0.3,1.9c0.2,0.6,0.6,1,1.1,1.3
			c0.5,0.3,1.2,0.5,2,0.5c0.3,0,0.6,0,0.8-0.1c0.2,0,0.5-0.1,0.7-0.2V42z"/>
		<path fill-rule="evenodd" clip-rule="evenodd" fill="#8E9AA2" d="M30.4,42.7h1v-6.8h-1v2.9c0,0.4-0.1,0.9-0.2,1.4
			c-0.1,0.5-0.3,0.9-0.6,1.2c-0.3,0.3-0.6,0.5-1,0.5c-0.3,0-0.5-0.1-0.7-0.3c-0.2-0.2-0.3-0.4-0.4-0.6c-0.1-0.3-0.1-0.5-0.1-0.8
			v-4.4h-1v4.8c0,0.3,0.1,0.6,0.2,0.9c0.1,0.3,0.3,0.6,0.5,0.8c0.2,0.2,0.5,0.3,0.9,0.3c0.4,0,0.8,0,1.1-0.2
			c0.3-0.1,0.5-0.3,0.7-0.6c0.2-0.3,0.4-0.6,0.6-1.1h0V42.7z"/>
		<path fill-rule="evenodd" clip-rule="evenodd" fill="#8E9AA2" d="M37.1,42.1c-0.1,0-0.1,0-0.2,0.1c-0.1,0-0.2,0-0.4,0
			c-0.6,0-0.9-0.2-1-0.5c-0.1-0.3-0.2-0.7-0.1-1.1v-4h1.8v-0.7h-1.8v-2.2l-1,0.6v1.6h-1.2v0.7h1.2v4.6c0,0.6,0.1,1,0.5,1.3
			c0.3,0.3,0.8,0.4,1.5,0.4c0.1,0,0.3,0,0.4,0c0.1,0,0.3,0,0.4-0.1V42.1z"/>
		<path fill-rule="evenodd" clip-rule="evenodd" fill="#8E9AA2" d="M38.7,42.7h1v-6.8h-1V42.7z M38.6,34.1h1.2v-1.3h-1.2V34.1z"/>
		<polygon fill-rule="evenodd" clip-rule="evenodd" fill="#8E9AA2" points="43.7,42.7 44.7,42.7 47.1,35.9 46.1,35.9 44.2,41.2 
			42.2,35.9 41,35.9 		"/>
		<path fill-rule="evenodd" clip-rule="evenodd" fill="#8E9AA2" d="M52.9,41.9c-0.2,0.1-0.4,0.1-0.5,0.1c-0.2,0-0.4,0.1-0.7,0.1
			c-0.7,0-1.2-0.2-1.6-0.6c-0.4-0.4-0.6-0.9-0.8-1.4C49.1,39.5,49,39,49,38.5h4c0-0.2,0-0.5-0.1-1c-0.1-0.4-0.3-0.8-0.6-1.2
			c-0.3-0.4-0.9-0.6-1.7-0.6c-1,0-1.7,0.3-2.1,0.9c-0.4,0.6-0.6,1.4-0.6,2.4c0,1.2,0.3,2.2,0.9,2.8c0.6,0.6,1.4,0.9,2.4,0.9
			c0.4,0,0.7,0,0.9-0.1c0.2,0,0.5-0.1,0.8-0.2V41.9z M49.1,37.8c0-0.1,0-0.3,0.1-0.6c0.1-0.2,0.2-0.5,0.4-0.7
			c0.2-0.2,0.5-0.3,0.9-0.3c0.4,0,0.7,0.1,0.9,0.3c0.2,0.2,0.3,0.4,0.4,0.6c0.1,0.2,0.1,0.5,0.1,0.7H49.1z"/>
		<path fill-rule="evenodd" clip-rule="evenodd" fill="#8E9AA2" d="M58.5,42.7h1.6c1,0,1.9-0.1,2.6-0.3c0.7-0.2,1.3-0.7,1.7-1.4
			c0.4-0.7,0.6-1.8,0.6-3.2c0-1.2-0.2-2.2-0.5-2.9c-0.4-0.7-0.9-1.2-1.6-1.5c-0.7-0.3-1.6-0.4-2.6-0.4h-1.8V42.7z M59.7,33.6h0.7
			c0.7,0,1.3,0.1,1.8,0.3c0.5,0.2,0.9,0.7,1.1,1.3c0.2,0.6,0.4,1.5,0.4,2.6c0,1.4-0.2,2.4-0.7,3c-0.5,0.6-1.4,1-2.6,0.9h-0.7V33.6z"
			/>
		<path fill-rule="evenodd" clip-rule="evenodd" fill="#8E9AA2" d="M71.4,41.9C71.2,42,71,42,70.8,42.1c-0.2,0-0.4,0.1-0.7,0.1
			c-0.7,0-1.2-0.2-1.6-0.6c-0.4-0.4-0.6-0.9-0.8-1.4c-0.1-0.6-0.2-1.1-0.2-1.6h4c0-0.2,0-0.5-0.1-1c-0.1-0.4-0.3-0.8-0.6-1.2
			c-0.3-0.4-0.9-0.6-1.7-0.6c-1,0-1.7,0.3-2.1,0.9c-0.4,0.6-0.6,1.4-0.6,2.4c0,1.2,0.3,2.2,0.9,2.8c0.6,0.6,1.4,0.9,2.4,0.9
			c0.4,0,0.7,0,0.9-0.1c0.2,0,0.5-0.1,0.8-0.2V41.9z M67.6,37.8c0-0.1,0-0.3,0.1-0.6c0.1-0.2,0.2-0.5,0.4-0.7
			c0.2-0.2,0.5-0.3,0.9-0.3c0.4,0,0.7,0.1,0.9,0.3c0.2,0.2,0.3,0.4,0.4,0.6c0.1,0.2,0.1,0.5,0.1,0.7H67.6z"/>
		<polygon fill-rule="evenodd" clip-rule="evenodd" fill="#8E9AA2" points="74.9,42.7 75.9,42.7 78.3,35.9 77.3,35.9 75.4,41.2 
			73.4,35.9 72.2,35.9 		"/>
		<path fill-rule="evenodd" clip-rule="evenodd" fill="#8E9AA2" d="M84.1,41.9c-0.2,0.1-0.4,0.1-0.5,0.1c-0.2,0-0.4,0.1-0.7,0.1
			c-0.7,0-1.2-0.2-1.6-0.6c-0.4-0.4-0.6-0.9-0.8-1.4c-0.1-0.6-0.2-1.1-0.2-1.6h4c0-0.2,0-0.5-0.1-1c-0.1-0.4-0.3-0.8-0.6-1.2
			c-0.3-0.4-0.9-0.6-1.7-0.6c-1,0-1.7,0.3-2.1,0.9c-0.4,0.6-0.6,1.4-0.6,2.4c0,1.2,0.3,2.2,0.9,2.8c0.6,0.6,1.4,0.9,2.4,0.9
			c0.4,0,0.7,0,0.9-0.1c0.2,0,0.5-0.1,0.8-0.2V41.9z M80.3,37.8c0-0.1,0-0.3,0.1-0.6c0.1-0.2,0.2-0.5,0.4-0.7
			c0.2-0.2,0.5-0.3,0.9-0.3c0.4,0,0.7,0.1,0.9,0.3c0.2,0.2,0.3,0.4,0.4,0.6c0.1,0.2,0.1,0.5,0.1,0.7H80.3z"/>
		<rect x="86" y="32.9" fill-rule="evenodd" clip-rule="evenodd" fill="#8E9AA2" width="1" height="9.8"/>
		<path fill-rule="evenodd" clip-rule="evenodd" fill="#8E9AA2" d="M91.8,42.8c1,0,1.7-0.3,2.2-0.9c0.5-0.6,0.7-1.5,0.7-2.6
			c0-1.1-0.2-2-0.7-2.6c-0.5-0.6-1.2-1-2.2-1c-1,0-1.7,0.3-2.2,1c-0.5,0.6-0.7,1.5-0.7,2.6c0,1.1,0.2,2,0.7,2.6
			C90,42.5,90.8,42.8,91.8,42.8z M90.1,39.4c0-0.5,0-1,0.1-1.5c0.1-0.5,0.2-0.9,0.5-1.2c0.2-0.3,0.6-0.5,1.1-0.5
			c0.5,0,0.9,0.2,1.1,0.5c0.3,0.3,0.4,0.7,0.5,1.2c0.1,0.5,0.1,1,0.1,1.5c0,0.5,0,0.9-0.1,1.4c-0.1,0.4-0.3,0.8-0.5,1.1
			c-0.3,0.3-0.6,0.4-1.1,0.4c-0.5,0-0.8-0.2-1.1-0.4c-0.2-0.3-0.4-0.6-0.5-1.1C90.1,40.3,90.1,39.9,90.1,39.4z"/>
		<path fill-rule="evenodd" clip-rule="evenodd" fill="#8E9AA2" d="M96.5,45.7h1v-4.2h0c0,0.2,0.1,0.3,0.3,0.5
			c0.1,0.2,0.3,0.4,0.6,0.6c0.2,0.2,0.6,0.2,1,0.3c0.6,0,1-0.2,1.4-0.5c0.4-0.3,0.6-0.7,0.8-1.2c0.2-0.5,0.2-1.1,0.2-1.7
			c0-1.1-0.2-2-0.6-2.6c-0.4-0.7-1-1-1.8-1c-0.4,0-0.7,0.1-0.9,0.3c-0.3,0.2-0.5,0.4-0.6,0.6c-0.2,0.2-0.3,0.4-0.3,0.6h0v-1.3h-1
			V45.7z M97.5,39.2c0-0.5,0.1-0.9,0.2-1.3c0.1-0.4,0.3-0.8,0.6-1c0.2-0.3,0.5-0.4,0.8-0.4c0.5,0,0.9,0.3,1.1,0.8
			c0.2,0.5,0.4,1.2,0.4,2.1c0,0.4,0,0.9-0.1,1.3c-0.1,0.4-0.2,0.8-0.4,1.1c-0.2,0.3-0.5,0.4-0.9,0.4c-0.4,0-0.7-0.2-1-0.5
			c-0.2-0.3-0.4-0.7-0.5-1.2C97.6,40,97.5,39.6,97.5,39.2z"/>
		<path fill-rule="evenodd" clip-rule="evenodd" fill="#8E9AA2" d="M103.6,42.7h1v-2.9c0-0.5,0.1-0.9,0.2-1.4
			c0.1-0.5,0.3-0.9,0.6-1.2c0.3-0.3,0.6-0.5,1-0.5c0.3,0,0.5,0.1,0.7,0.3c0.1,0.2,0.2,0.4,0.2,0.6c0,0.3,0,0.5,0,0.8v4.4h1v-3
			c0-0.4,0.1-0.8,0.2-1.3c0.1-0.5,0.3-0.9,0.6-1.2c0.3-0.3,0.6-0.5,1-0.5c0.3,0,0.5,0.1,0.7,0.3c0.1,0.2,0.2,0.4,0.2,0.6
			c0,0.2,0,0.4,0,0.6v4.5h1.1v-5c0-0.6-0.1-1-0.4-1.4c-0.3-0.3-0.7-0.5-1.2-0.5c-0.4,0-0.8,0.1-1.1,0.4c-0.3,0.2-0.5,0.5-0.7,0.8
			c-0.2,0.3-0.3,0.5-0.3,0.7h0c0-0.3,0-0.5-0.2-0.8c-0.1-0.3-0.3-0.5-0.5-0.7c-0.2-0.2-0.6-0.3-0.9-0.3c-0.6,0-1,0.2-1.4,0.6
			c-0.3,0.4-0.6,0.8-0.8,1.2h0v-1.7h-1V42.7z"/>
		<path fill-rule="evenodd" clip-rule="evenodd" fill="#8E9AA2" d="M118.9,41.9c-0.2,0.1-0.4,0.1-0.5,0.1c-0.2,0-0.4,0.1-0.7,0.1
			c-0.7,0-1.2-0.2-1.6-0.6c-0.4-0.4-0.6-0.9-0.8-1.4c-0.1-0.6-0.2-1.1-0.2-1.6h4c0-0.2,0-0.5-0.1-1c-0.1-0.4-0.3-0.8-0.6-1.2
			c-0.3-0.4-0.9-0.6-1.7-0.6c-1,0-1.7,0.3-2.1,0.9c-0.4,0.6-0.6,1.4-0.6,2.4c0,1.2,0.3,2.2,0.9,2.8c0.6,0.6,1.4,0.9,2.4,0.9
			c0.4,0,0.7,0,0.9-0.1c0.2,0,0.5-0.1,0.8-0.2V41.9z M115.1,37.8c0-0.1,0-0.3,0.1-0.6c0.1-0.2,0.2-0.5,0.4-0.7
			c0.2-0.2,0.5-0.3,0.9-0.3c0.4,0,0.7,0.1,0.9,0.3c0.2,0.2,0.3,0.4,0.4,0.6c0.1,0.2,0.1,0.5,0.1,0.7H115.1z"/>
		<path fill-rule="evenodd" clip-rule="evenodd" fill="#8E9AA2" d="M120.7,42.7h1.1v-2.9c0-0.5,0.1-0.9,0.2-1.4
			c0.1-0.5,0.4-0.9,0.7-1.2c0.3-0.3,0.7-0.5,1.2-0.5c0.3,0,0.5,0.1,0.7,0.3c0.1,0.2,0.2,0.4,0.2,0.6c0,0.3,0,0.5,0,0.8v4.4h1v-5.1
			c0-0.3-0.1-0.5-0.2-0.8c-0.1-0.3-0.3-0.5-0.5-0.7c-0.2-0.2-0.6-0.3-0.9-0.3c-0.7,0-1.2,0.2-1.6,0.6c-0.4,0.4-0.7,0.8-0.9,1.2h0
			v-1.7h-1V42.7z"/>
		<path fill-rule="evenodd" clip-rule="evenodd" fill="#8E9AA2" d="M131.5,42.1c-0.1,0-0.1,0-0.2,0.1c-0.1,0-0.2,0-0.4,0
			c-0.6,0-0.9-0.2-1-0.5c-0.1-0.3-0.2-0.7-0.1-1.1v-4h1.8v-0.7h-1.8v-2.2l-1.1,0.6v1.6h-1.2v0.7h1.2v4.6c0,0.6,0.2,1,0.5,1.3
			c0.3,0.3,0.8,0.4,1.5,0.4c0.1,0,0.3,0,0.4,0c0.1,0,0.3,0,0.4-0.1V42.1z"/>
		<polygon fill-rule="evenodd" clip-rule="evenodd" fill="#8E9AA2" points="136.7,42.7 141.3,42.7 141.3,41.8 137.9,41.8 
			137.9,32.9 136.7,32.9 		"/>
		<path fill-rule="evenodd" clip-rule="evenodd" fill="#8E9AA2" d="M145.8,42.1c-0.1,0-0.1,0-0.2,0.1c-0.1,0-0.2,0-0.4,0
			c-0.6,0-0.9-0.2-1-0.5c-0.1-0.3-0.2-0.7-0.1-1.1v-4h1.8v-0.7H144v-2.2l-1,0.6v1.6h-1.2v0.7h1.2v4.6c0,0.6,0.2,1,0.5,1.3
			c0.3,0.3,0.8,0.4,1.5,0.4c0.1,0,0.3,0,0.4,0c0.1,0,0.3,0,0.4-0.1V42.1z"/>
		<path fill-rule="evenodd" clip-rule="evenodd" fill="#8E9AA2" d="M151.1,42.7h1v-9.8h-1v4.2h0c0-0.1-0.1-0.3-0.3-0.5
			c-0.1-0.2-0.3-0.4-0.6-0.6c-0.2-0.2-0.6-0.3-1-0.3c-0.6,0-1,0.2-1.4,0.5c-0.4,0.3-0.6,0.7-0.8,1.3c-0.2,0.5-0.3,1.1-0.3,1.8
			c0,0.6,0.1,1.2,0.2,1.7c0.1,0.5,0.4,1,0.7,1.3c0.3,0.3,0.8,0.5,1.4,0.5c0.4,0,0.8-0.1,1-0.3c0.3-0.2,0.5-0.4,0.6-0.6
			c0.1-0.2,0.2-0.4,0.3-0.6h0V42.7z M148,39.4c0-0.5,0-0.9,0.1-1.4c0.1-0.4,0.2-0.8,0.4-1.1c0.2-0.3,0.5-0.4,0.9-0.4
			c0.4,0,0.8,0.2,1,0.5c0.2,0.3,0.4,0.7,0.5,1.1c0.1,0.4,0.2,0.8,0.2,1.1c0,0.9-0.2,1.6-0.5,2.1c-0.3,0.5-0.7,0.8-1.3,0.8
			c-0.4,0-0.6-0.2-0.8-0.4c-0.2-0.3-0.3-0.6-0.4-1C148.1,40.2,148,39.8,148,39.4z"/>
	</g>
	<g>
		<path fill-rule="evenodd" clip-rule="evenodd" fill="#8E9AA2" d="M18.8,6.2v13.4c0,1.4-0.1,2.5-0.2,3.5c-0.1,0.9-0.5,1.8-1,2.6
			c-0.5,0.8-1.3,1.5-2.3,1.9c-1.1,0.5-2.5,0.7-4.2,0.7c-1.8,0-3.3-0.3-4.5-0.9c-1.2-0.6-2-1.4-2.5-2.5c-0.5-1.1-0.8-2.5-0.8-4.1
			V10.5c0-1-0.1-1.6-0.2-2C3.1,8.1,2.8,7.9,2.4,7.7C2,7.6,1.3,7.5,0.1,7.3V6.6l6.8-0.7v13.4c0,1.2,0,2.2,0.1,3
			C7,23,7.2,23.7,7.5,24.5c0.3,0.7,0.8,1.3,1.4,1.7c0.6,0.4,1.5,0.6,2.6,0.6c1.2,0,2.1-0.2,2.8-0.6c0.7-0.4,1.2-0.9,1.5-1.5
			c0.3-0.6,0.5-1.3,0.6-2c0.1-0.7,0.1-1.6,0.1-2.7V6.2H18.8z"/>
		<path fill-rule="evenodd" clip-rule="evenodd" fill="#8E9AA2" d="M35.9,6.4v2.4c-0.6-0.3-1.5-0.7-2.5-1c-1-0.3-2.1-0.5-3.3-0.5
			c-0.9,0-1.7,0.3-2.2,0.8C27.3,8.7,27,9.5,27,10.5c0,1.1,0.4,1.9,1.2,2.5c0.8,0.6,2.1,1.4,3.9,2.3c1.8,0.9,3.2,1.9,4.1,2.8
			c0.9,1,1.4,2.2,1.4,3.8c0,2.2-0.8,3.8-2.3,4.8c-1.5,1-3.5,1.6-5.9,1.6c-0.7,0-1.4-0.1-2.2-0.2c-0.8-0.1-1.5-0.2-2.1-0.4
			c-0.6-0.1-1.1-0.2-1.4-0.3v-2.6c2.2,1.3,4.3,1.9,6.2,1.9c1.2,0,2.1-0.3,2.9-0.9c0.8-0.6,1.1-1.5,1.1-2.9c0-1.2-0.4-2.1-1.2-2.7
			c-0.8-0.7-2.1-1.5-3.9-2.4c-1.8-0.9-3.1-1.9-4-2.8c-0.9-0.9-1.4-2.2-1.4-3.7c0-1.2,0.3-2.2,0.9-3c0.6-0.8,1.4-1.5,2.5-1.9
			c1.1-0.4,2.4-0.7,3.9-0.7c0.5,0,1,0,1.5,0.1c0.5,0,1,0.1,1.5,0.2c0.5,0.1,1,0.1,1.4,0.2C35.6,6.4,35.8,6.4,35.9,6.4z"/>
		<path fill-rule="evenodd" clip-rule="evenodd" fill="#8E9AA2" d="M42,28V10.6c0-1.2-0.1-2-0.2-2.4c-0.1-0.4-0.3-0.7-0.7-0.8
			c-0.4-0.1-1.1-0.3-2.2-0.5V6.2h9.6c5.1,0,7.7,1.7,7.7,5.2c0,2.4-1.3,4.1-3.9,4.9v0.1c1.4,0.3,2.6,0.8,3.6,1.7
			c1,0.9,1.4,2.2,1.4,4.1c0,1.4-0.3,2.4-1,3.2c-0.7,0.8-1.5,1.4-2.4,1.8c-1,0.4-1.9,0.6-2.8,0.7c-0.9,0.1-1.9,0.1-3,0.1H42z
			 M45.6,9.4v6.3h2.2c1.5,0,2.7-0.3,3.6-0.9c0.9-0.6,1.3-1.7,1.3-3.2c0-1.4-0.4-2.4-1.1-3C50.8,8,49.6,7.7,48,7.7
			c-1,0-1.7,0.1-2,0.3C45.7,8.2,45.6,8.6,45.6,9.4z M45.6,17.2v7.9c0,0.6,0.2,1,0.7,1.1c0.5,0.1,1.3,0.2,2.4,0.2
			c1.8,0,3.1-0.4,3.9-1.2c0.8-0.8,1.2-2,1.2-3.7c0-1.5-0.5-2.6-1.5-3.3c-1-0.7-2.2-1-3.8-1H45.6z"/>
	</g>
	<g>
		<path fill-rule="evenodd" clip-rule="evenodd" fill="#8E9AA2" d="M61.3,18.8c0-4.9,9.4-8.9,9.4-8.9s3.8,1.6,6.6,4
			c-1.6,1.4-2.8,3.1-2.8,4.8c0,1.8,1.3,3.5,2.8,4.8c-2.8,2.4-6.6,4-6.6,4S61.3,23.7,61.3,18.8z"/>
		<path fill-rule="evenodd" clip-rule="evenodd" fill="#9B8E20" d="M83.9,10c0,0,3.8,1.6,6.6,4c-1.6,1.4-2.8,3.1-2.8,4.8
			c0,1.8,1.3,3.5,2.8,4.8c-2.8,2.4-6.6,4-6.6,4s-3.8-1.6-6.6-4c1.6-1.4,2.8-3.1,2.8-4.8s-1.2-3.4-2.8-4.8C80.1,11.6,83.9,10,83.9,10
			z"/>
		<path fill-rule="evenodd" clip-rule="evenodd" fill="#AB1830" d="M90.5,14c2.8-2.4,6.6-4,6.6-4s9.4,4,9.4,8.9s-9.4,8.9-9.4,8.9
			s-3.8-1.6-6.6-4c1.6-1.4,2.8-3.1,2.8-4.8C93.3,17,92.1,15.4,90.5,14z"/>
		<g>
			
				<circle fill-rule="evenodd" clip-rule="evenodd" fill="#9B8E20" stroke="#9B8E20" stroke-width="0.2978" stroke-miterlimit="3.8637" cx="84.3" cy="3" r="3"/>
			
				<circle fill-rule="evenodd" clip-rule="evenodd" fill="#8E9AA2" stroke="#8E9AA2" stroke-width="0.2978" stroke-miterlimit="3.8637" cx="71.1" cy="3.1" r="3"/>
			
				<circle fill-rule="evenodd" clip-rule="evenodd" fill="#AB1830" stroke="#AB1830" stroke-width="0.2978" stroke-miterlimit="3.8637" cx="97.4" cy="3.1" r="3"/>
		</g>
	</g>
	<g>
		<path fill-rule="evenodd" clip-rule="evenodd" fill="#8E9AA2" d="M6.2,49H5.3v4.7c0,0.3,0,0.7-0.1,1.1c0,0.4-0.2,0.7-0.4,0.9
			c-0.2,0.3-0.6,0.4-1.1,0.4c-0.5,0-0.9-0.1-1.1-0.4c-0.2-0.3-0.4-0.6-0.4-0.9c0-0.4-0.1-0.7-0.1-1.1V49H1.3v4.7
			c0,0.4,0,0.8,0.1,1.3c0.1,0.5,0.3,0.8,0.6,1.2c0.3,0.3,0.9,0.5,1.7,0.5c0.8,0,1.4-0.2,1.8-0.5c0.4-0.3,0.6-0.7,0.6-1.2
			c0.1-0.4,0.1-0.9,0.1-1.3V49z"/>
		<path fill-rule="evenodd" clip-rule="evenodd" fill="#8E9AA2" d="M8.1,56.5h0.8v-2.2c0-0.3,0.1-0.7,0.2-1.1
			c0.1-0.4,0.3-0.7,0.5-0.9c0.2-0.3,0.5-0.4,0.9-0.4c0.2,0,0.4,0.1,0.5,0.2c0.1,0.1,0.2,0.3,0.2,0.5c0,0.2,0,0.4,0,0.6v3.4H12v-3.9
			c0-0.2,0-0.4-0.1-0.6c-0.1-0.2-0.2-0.4-0.4-0.5c-0.2-0.1-0.4-0.2-0.7-0.2c-0.5,0-0.9,0.2-1.2,0.5c-0.3,0.3-0.5,0.6-0.7,0.9h0v-1.3
			H8.1V56.5z"/>
		<path fill-rule="evenodd" clip-rule="evenodd" fill="#8E9AA2" d="M13.9,56.5h0.8v-5.2h-0.8V56.5z M13.8,50h0.9v-1h-0.9V50z"/>
		<polygon fill-rule="evenodd" clip-rule="evenodd" fill="#8E9AA2" points="17.8,56.5 18.6,56.5 20.4,51.3 19.6,51.3 18.2,55.4 
			16.7,51.3 15.8,51.3 		"/>
		<path fill-rule="evenodd" clip-rule="evenodd" fill="#8E9AA2" d="M25,55.9c-0.1,0-0.3,0.1-0.4,0.1c-0.1,0-0.3,0-0.5,0
			c-0.5,0-0.9-0.2-1.2-0.5c-0.3-0.3-0.5-0.7-0.6-1.1c-0.1-0.4-0.2-0.8-0.2-1.2h3c0-0.2,0-0.4-0.1-0.7c-0.1-0.3-0.2-0.6-0.5-0.9
			c-0.3-0.3-0.7-0.4-1.3-0.4c-0.8,0-1.3,0.3-1.6,0.7c-0.3,0.5-0.5,1.1-0.5,1.8c0,1,0.2,1.7,0.7,2.1c0.5,0.5,1.1,0.7,1.9,0.7
			c0.3,0,0.5,0,0.7-0.1c0.2,0,0.4-0.1,0.6-0.2V55.9z M22,52.8c0-0.1,0-0.2,0.1-0.4c0.1-0.2,0.2-0.4,0.3-0.5c0.2-0.2,0.4-0.2,0.7-0.2
			c0.3,0,0.5,0.1,0.7,0.2c0.2,0.1,0.2,0.3,0.3,0.5c0,0.2,0.1,0.3,0.1,0.5H22z"/>
		<path fill-rule="evenodd" clip-rule="evenodd" fill="#8E9AA2" d="M26.5,56.5h0.8v-2.5c0-0.3,0-0.6,0.1-0.9
			c0.1-0.3,0.2-0.5,0.4-0.7c0.2-0.2,0.5-0.3,0.9-0.3H29v-0.9c-0.3,0-0.5,0.1-0.7,0.2c-0.2,0.1-0.4,0.3-0.6,0.5
			c-0.2,0.2-0.3,0.4-0.4,0.6h0v-1.2h-0.8V56.5z"/>
		<path fill-rule="evenodd" clip-rule="evenodd" fill="#8E9AA2" d="M32.5,51.4c-0.1,0-0.3-0.1-0.5-0.1c-0.2,0-0.5-0.1-0.7-0.1
			c-0.6,0-1,0.1-1.3,0.4c-0.3,0.2-0.4,0.6-0.4,1c0,0.4,0.2,0.7,0.5,1c0.3,0.2,0.6,0.4,0.9,0.6c0.3,0.2,0.6,0.3,0.8,0.5
			c0.2,0.2,0.3,0.4,0.3,0.6c0,0.3-0.1,0.5-0.3,0.6c-0.2,0.1-0.5,0.2-0.8,0.2c-0.3,0-0.7-0.1-0.9-0.2c-0.3-0.1-0.4-0.2-0.5-0.3v0.8
			c0.1,0.1,0.3,0.1,0.5,0.1c0.2,0,0.5,0.1,0.9,0.1c0.7,0,1.2-0.2,1.5-0.5c0.3-0.3,0.5-0.7,0.5-1.1c0-0.4-0.1-0.6-0.3-0.9
			c-0.2-0.2-0.4-0.4-0.6-0.5c-0.5-0.3-0.9-0.5-1.2-0.6c-0.3-0.2-0.5-0.4-0.5-0.7c0-0.2,0.1-0.4,0.3-0.5c0.2-0.1,0.4-0.2,0.6-0.2
			c0.3,0,0.6,0.1,0.8,0.2c0.2,0.1,0.4,0.2,0.5,0.2V51.4z"/>
		<path fill-rule="evenodd" clip-rule="evenodd" fill="#8E9AA2" d="M34.1,56.5h0.8v-5.2h-0.8V56.5z M34,50h0.9v-1H34V50z"/>
		<path fill-rule="evenodd" clip-rule="evenodd" fill="#8E9AA2" d="M39.4,56c0,0-0.1,0-0.2,0c-0.1,0-0.2,0-0.3,0
			c-0.4,0-0.7-0.1-0.8-0.4C38,55.5,38,55.2,38,54.9v-3.1h1.4v-0.5H38v-1.7l-0.8,0.5v1.2h-0.9v0.5h0.9v3.5c0,0.5,0.1,0.8,0.4,1
			c0.3,0.2,0.6,0.3,1.2,0.3c0.1,0,0.2,0,0.3,0c0.1,0,0.2,0,0.3,0V56z"/>
		<polygon fill-rule="evenodd" clip-rule="evenodd" fill="#8E9AA2" points="41.2,58.6 41.9,58.6 44.5,51.3 43.7,51.3 42.3,55.4 
			40.7,51.3 39.8,51.3 41.9,56.5 		"/>
		<path fill-rule="evenodd" clip-rule="evenodd" fill="#8E9AA2" d="M50.3,56.6c0.8,0,1.3-0.2,1.7-0.7c0.4-0.5,0.5-1.1,0.5-2
			c0-0.8-0.2-1.5-0.5-2c-0.4-0.5-0.9-0.7-1.7-0.8c-0.8,0-1.3,0.3-1.7,0.8c-0.4,0.5-0.5,1.2-0.5,2c0,0.8,0.2,1.5,0.5,2
			C49,56.4,49.6,56.6,50.3,56.6z M49,54c0-0.4,0-0.8,0.1-1.1c0.1-0.4,0.2-0.7,0.4-0.9c0.2-0.2,0.5-0.4,0.8-0.4
			c0.4,0,0.7,0.1,0.8,0.4c0.2,0.2,0.3,0.5,0.4,0.9c0.1,0.4,0.1,0.7,0.1,1.1c0,0.4,0,0.7-0.1,1c-0.1,0.3-0.2,0.6-0.4,0.8
			c-0.2,0.2-0.5,0.3-0.8,0.3c-0.4,0-0.6-0.1-0.8-0.3c-0.2-0.2-0.3-0.5-0.4-0.8C49.1,54.7,49,54.4,49,54z"/>
		<path fill-rule="evenodd" clip-rule="evenodd" fill="#8E9AA2" d="M54.5,56.5h0.8v-4.7h1.5v-0.5h-1.5v-0.6c0-0.3,0-0.6,0.2-0.8
			c0.1-0.3,0.4-0.4,0.9-0.4c0.2,0,0.3,0,0.5,0.1c0.1,0,0.3,0.1,0.4,0.1v-0.6c-0.1,0-0.2,0-0.4-0.1c-0.1,0-0.3,0-0.5,0
			c-0.5,0-0.9,0.1-1.2,0.3c-0.3,0.2-0.4,0.4-0.5,0.7c-0.1,0.3-0.1,0.6-0.1,1v0.3h-1v0.5h1V56.5z"/>
		<path fill-rule="evenodd" clip-rule="evenodd" fill="#8E9AA2" d="M64.4,49.1c-0.2,0-0.4-0.1-0.7-0.1c-0.3,0-0.6-0.1-0.9-0.1
			c-0.7,0-1.3,0.2-1.7,0.5c-0.4,0.3-0.6,0.8-0.6,1.4c0,0.5,0.1,0.9,0.4,1.2c0.2,0.3,0.5,0.5,0.9,0.7c0.4,0.2,0.7,0.4,1.1,0.6
			c0.3,0.2,0.6,0.4,0.8,0.6c0.2,0.2,0.3,0.5,0.3,0.9c0,0.4-0.1,0.8-0.4,1c-0.3,0.2-0.7,0.3-1.1,0.3c-0.4,0-0.7-0.1-1.1-0.2
			c-0.3-0.1-0.6-0.2-0.8-0.3v0.9c0.1,0,0.3,0.1,0.6,0.1c0.3,0.1,0.7,0.1,1.1,0.1c0.8,0,1.4-0.2,1.9-0.5c0.5-0.3,0.8-0.9,0.8-1.6
			c0-0.5-0.1-0.8-0.3-1.1c-0.2-0.3-0.5-0.5-0.9-0.8c-0.3-0.2-0.7-0.4-1.1-0.6c-0.4-0.2-0.7-0.4-0.9-0.6c-0.3-0.2-0.4-0.5-0.4-0.9
			c0-0.3,0.1-0.6,0.4-0.8c0.2-0.2,0.6-0.3,1-0.3c0.4,0,0.7,0.1,1,0.2c0.3,0.1,0.6,0.2,0.8,0.3V49.1z"/>
		<path fill-rule="evenodd" clip-rule="evenodd" fill="#8E9AA2" d="M68.8,56c0,0-0.1,0-0.2,0c-0.1,0-0.2,0-0.3,0
			c-0.4,0-0.7-0.1-0.8-0.4c-0.1-0.2-0.1-0.5-0.1-0.8v-3.1h1.4v-0.5h-1.4v-1.7l-0.8,0.5v1.2h-0.9v0.5h0.9v3.5c0,0.5,0.1,0.8,0.4,1
			c0.3,0.2,0.6,0.3,1.2,0.3c0.1,0,0.2,0,0.3,0c0.1,0,0.2,0,0.3,0V56z"/>
		<path fill-rule="evenodd" clip-rule="evenodd" fill="#8E9AA2" d="M73.5,55.9c-0.1,0-0.3,0.1-0.4,0.1c-0.1,0-0.3,0-0.5,0
			c-0.5,0-0.9-0.2-1.2-0.5c-0.3-0.3-0.5-0.7-0.6-1.1c-0.1-0.4-0.2-0.8-0.2-1.2h3c0-0.2,0-0.4-0.1-0.7c-0.1-0.3-0.2-0.6-0.5-0.9
			c-0.3-0.3-0.7-0.4-1.3-0.4c-0.7,0-1.3,0.3-1.6,0.7c-0.3,0.5-0.5,1.1-0.5,1.8c0,1,0.2,1.7,0.7,2.1c0.5,0.5,1.1,0.7,1.9,0.7
			c0.3,0,0.5,0,0.7-0.1c0.2,0,0.4-0.1,0.6-0.2V55.9z M70.6,52.8c0-0.1,0-0.2,0.1-0.4c0.1-0.2,0.2-0.4,0.3-0.5
			c0.2-0.2,0.4-0.2,0.7-0.2c0.3,0,0.5,0.1,0.7,0.2c0.2,0.1,0.3,0.3,0.3,0.5c0,0.2,0.1,0.3,0.1,0.5H70.6z"/>
		<rect x="75.1" y="49" fill-rule="evenodd" clip-rule="evenodd" fill="#8E9AA2" width="0.8" height="7.5"/>
		<rect x="77.8" y="49" fill-rule="evenodd" clip-rule="evenodd" fill="#8E9AA2" width="0.8" height="7.5"/>
		<path fill-rule="evenodd" clip-rule="evenodd" fill="#8E9AA2" d="M84,55.9c-0.1,0-0.3,0.1-0.4,0.1c-0.1,0-0.3,0-0.5,0
			c-0.5,0-0.9-0.2-1.2-0.5c-0.3-0.3-0.5-0.7-0.6-1.1c-0.1-0.4-0.2-0.8-0.2-1.2h3c0-0.2,0-0.4-0.1-0.7c-0.1-0.3-0.2-0.6-0.5-0.9
			c-0.3-0.3-0.7-0.4-1.3-0.4c-0.8,0-1.3,0.3-1.6,0.7c-0.3,0.5-0.5,1.1-0.5,1.8c0,1,0.2,1.7,0.7,2.1c0.5,0.5,1.1,0.7,1.9,0.7
			c0.3,0,0.5,0,0.7-0.1c0.2,0,0.4-0.1,0.6-0.2V55.9z M81.1,52.8c0-0.1,0-0.2,0.1-0.4c0.1-0.2,0.2-0.4,0.3-0.5
			c0.2-0.2,0.4-0.2,0.7-0.2c0.3,0,0.5,0.1,0.7,0.2c0.2,0.1,0.3,0.3,0.3,0.5c0.1,0.2,0.1,0.3,0.1,0.5H81.1z"/>
		<path fill-rule="evenodd" clip-rule="evenodd" fill="#8E9AA2" d="M85.5,56.5h0.8v-2.2c0-0.3,0.1-0.7,0.2-1.1
			c0.1-0.4,0.3-0.7,0.5-0.9c0.2-0.3,0.5-0.4,0.9-0.4c0.2,0,0.4,0.1,0.5,0.2c0.1,0.1,0.2,0.3,0.2,0.5c0,0.2,0,0.4,0,0.6v3.4h0.8v-3.9
			c0-0.2,0-0.4-0.1-0.6c-0.1-0.2-0.2-0.4-0.4-0.5c-0.2-0.1-0.4-0.2-0.7-0.2c-0.5,0-0.9,0.2-1.2,0.5c-0.3,0.3-0.5,0.6-0.7,0.9h0v-1.3
			h-0.8V56.5z"/>
		<path fill-rule="evenodd" clip-rule="evenodd" fill="#8E9AA2" d="M92,49h-0.8v5c0,0.3,0,0.6,0.1,1c0.1,0.4,0.2,0.8,0.5,1.1
			c0.3,0.3,0.8,0.5,1.4,0.5c0.7,0,1.2-0.2,1.6-0.7c0.4-0.4,0.6-1.1,0.6-2c0-0.8-0.2-1.5-0.5-2c-0.3-0.5-0.8-0.7-1.4-0.7
			c-0.3,0-0.6,0.1-0.8,0.2c-0.2,0.1-0.4,0.3-0.5,0.4C92.1,52,92,52.1,92,52.3h0V49z M92,54.1c0-0.3,0-0.7,0.1-1
			c0.1-0.4,0.2-0.7,0.4-0.9c0.2-0.3,0.5-0.4,0.8-0.4c0.3,0,0.6,0.1,0.7,0.4c0.2,0.2,0.3,0.5,0.4,0.9c0.1,0.3,0.1,0.7,0.1,1
			c0,0.4,0,0.7-0.1,1c-0.1,0.3-0.2,0.6-0.4,0.8c-0.2,0.2-0.5,0.3-0.8,0.3c-0.3,0-0.6-0.1-0.8-0.3c-0.2-0.2-0.3-0.5-0.4-0.8
			C92,54.7,91.9,54.4,92,54.1z"/>
		<path fill-rule="evenodd" clip-rule="evenodd" fill="#8E9AA2" d="M98.7,56.6c0.8,0,1.3-0.2,1.7-0.7c0.4-0.5,0.5-1.1,0.5-2
			c0-0.8-0.2-1.5-0.5-2c-0.4-0.5-0.9-0.7-1.7-0.8c-0.8,0-1.3,0.3-1.7,0.8c-0.3,0.5-0.5,1.2-0.5,2c0,0.8,0.2,1.5,0.5,2
			C97.3,56.4,97.9,56.6,98.7,56.6z M97.4,54c0-0.4,0-0.8,0.1-1.1c0.1-0.4,0.2-0.7,0.4-0.9c0.2-0.2,0.5-0.4,0.8-0.4
			c0.4,0,0.7,0.1,0.8,0.4c0.2,0.2,0.3,0.5,0.4,0.9c0.1,0.4,0.1,0.7,0.1,1.1c0,0.4,0,0.7-0.1,1c-0.1,0.3-0.2,0.6-0.4,0.8
			c-0.2,0.2-0.5,0.3-0.8,0.3c-0.4,0-0.6-0.1-0.8-0.3c-0.2-0.2-0.3-0.5-0.4-0.8C97.4,54.7,97.4,54.4,97.4,54z"/>
		<path fill-rule="evenodd" clip-rule="evenodd" fill="#8E9AA2" d="M104.8,51.4c-0.1,0-0.3-0.1-0.5-0.1c-0.2,0-0.5-0.1-0.7-0.1
			c-0.6,0-1,0.1-1.3,0.4c-0.3,0.2-0.4,0.6-0.4,1c0,0.4,0.2,0.7,0.5,1c0.3,0.2,0.6,0.4,0.9,0.6c0.3,0.2,0.6,0.3,0.8,0.5
			c0.2,0.2,0.3,0.4,0.3,0.6c0,0.3-0.1,0.5-0.3,0.6c-0.2,0.1-0.5,0.2-0.8,0.2c-0.3,0-0.7-0.1-0.9-0.2c-0.3-0.1-0.4-0.2-0.5-0.3v0.8
			c0.1,0.1,0.3,0.1,0.5,0.1c0.2,0,0.5,0.1,0.9,0.1c0.7,0,1.2-0.2,1.5-0.5c0.3-0.3,0.5-0.7,0.5-1.1c0-0.4-0.1-0.6-0.3-0.9
			c-0.2-0.2-0.4-0.4-0.6-0.5c-0.5-0.3-0.9-0.5-1.2-0.6c-0.3-0.2-0.5-0.4-0.5-0.7c0-0.2,0.1-0.4,0.3-0.5c0.2-0.1,0.4-0.2,0.6-0.2
			c0.3,0,0.6,0.1,0.8,0.2c0.2,0.1,0.4,0.2,0.5,0.2V51.4z"/>
		<path fill-rule="evenodd" clip-rule="evenodd" fill="#8E9AA2" d="M109.7,56c-0.1,0-0.3,0.1-0.4,0.1c-0.1,0-0.3,0-0.5,0
			c-0.5,0-0.9-0.1-1.2-0.4c-0.3-0.3-0.5-0.6-0.6-1c-0.1-0.4-0.2-0.8-0.2-1.2c0-0.3,0-0.6,0.1-0.9c0.1-0.3,0.2-0.5,0.4-0.7
			c0.2-0.2,0.4-0.3,0.7-0.3c0.3,0,0.5,0.1,0.6,0.2c0.1,0.2,0.2,0.3,0.2,0.5c0,0.2,0,0.4,0,0.5h0.9c0-0.5-0.1-0.9-0.4-1.2
			c-0.3-0.3-0.7-0.5-1.4-0.5c-0.6,0-1.2,0.2-1.5,0.6c-0.4,0.4-0.6,1.1-0.6,1.9c0,0.5,0.1,1,0.2,1.5c0.2,0.4,0.4,0.8,0.8,1
			c0.4,0.3,0.9,0.4,1.5,0.4c0.2,0,0.4,0,0.6,0c0.2,0,0.4-0.1,0.6-0.1V56z"/>
		<path fill-rule="evenodd" clip-rule="evenodd" fill="#8E9AA2" d="M111.1,56.5h0.8v-2.3c0-0.3,0.1-0.7,0.2-1
			c0.1-0.4,0.3-0.7,0.5-0.9c0.2-0.3,0.5-0.4,0.8-0.4c0.3,0,0.5,0.1,0.6,0.4c0.1,0.2,0.1,0.5,0.1,0.8v3.5h0.8v-3.8
			c0-0.5-0.1-0.9-0.4-1.1c-0.3-0.2-0.6-0.3-0.9-0.3c-0.4,0-0.7,0.1-0.9,0.3c-0.2,0.2-0.4,0.4-0.6,0.6c-0.1,0.2-0.2,0.4-0.3,0.6h0V49
			h-0.8V56.5z"/>
		<path fill-rule="evenodd" clip-rule="evenodd" fill="#8E9AA2" d="M119.8,56.5h1.6c0.2,0,0.5,0,0.8,0c0.3,0,0.6-0.1,0.9-0.2
			c0.3-0.1,0.6-0.3,0.8-0.6c0.2-0.3,0.3-0.7,0.3-1.2c0-0.4-0.1-0.8-0.3-1c-0.2-0.3-0.4-0.5-0.6-0.6c-0.3-0.1-0.5-0.2-0.8-0.3v0
			c0.3,0,0.6-0.2,0.9-0.5c0.3-0.3,0.4-0.7,0.4-1.2c0-0.6-0.2-1-0.5-1.3c-0.3-0.3-0.6-0.4-1-0.5c-0.4-0.1-0.7-0.1-1-0.1h-1.5V56.5z
			 M120.7,49.6h0.7c0.2,0,0.5,0,0.7,0.1c0.2,0.1,0.4,0.2,0.6,0.4c0.2,0.2,0.3,0.5,0.3,0.8c0,0.4-0.1,0.7-0.3,0.9
			c-0.2,0.2-0.4,0.3-0.6,0.4c-0.2,0.1-0.5,0.1-0.7,0.1h-0.7V49.6z M120.7,52.9h0.7c0.2,0,0.5,0,0.8,0.1c0.3,0.1,0.5,0.2,0.8,0.4
			c0.2,0.2,0.3,0.6,0.3,1c0,0.5-0.1,0.8-0.3,1c-0.2,0.2-0.5,0.3-0.8,0.4c-0.3,0.1-0.5,0.1-0.8,0.1h-0.7V52.9z"/>
		<path fill-rule="evenodd" clip-rule="evenodd" fill="#8E9AA2" d="M128.8,56.5h0.8v-5.2h-0.8v2.2c0,0.3,0,0.7-0.1,1.1
			c-0.1,0.4-0.2,0.7-0.5,0.9c-0.2,0.3-0.5,0.4-0.8,0.4c-0.2,0-0.4-0.1-0.5-0.2c-0.1-0.1-0.2-0.3-0.3-0.5c-0.1-0.2-0.1-0.4-0.1-0.6
			v-3.4h-0.8V55c0,0.2,0,0.5,0.1,0.7c0.1,0.2,0.2,0.5,0.4,0.6c0.2,0.2,0.4,0.3,0.7,0.3c0.3,0,0.6,0,0.8-0.1c0.2-0.1,0.4-0.2,0.6-0.4
			c0.2-0.2,0.3-0.5,0.5-0.8h0V56.5z"/>
		<path fill-rule="evenodd" clip-rule="evenodd" fill="#8E9AA2" d="M133.9,51.4c-0.1,0-0.3-0.1-0.5-0.1c-0.2,0-0.5-0.1-0.7-0.1
			c-0.6,0-1,0.1-1.3,0.4c-0.3,0.2-0.4,0.6-0.4,1c0,0.4,0.2,0.7,0.5,1c0.3,0.2,0.6,0.4,0.9,0.6c0.3,0.2,0.6,0.3,0.8,0.5
			c0.2,0.2,0.3,0.4,0.3,0.6c0,0.3-0.1,0.5-0.3,0.6c-0.2,0.1-0.5,0.2-0.8,0.2c-0.3,0-0.7-0.1-0.9-0.2c-0.3-0.1-0.4-0.2-0.5-0.3v0.8
			c0.1,0.1,0.3,0.1,0.5,0.1c0.2,0,0.5,0.1,0.9,0.1c0.7,0,1.2-0.2,1.5-0.5c0.3-0.3,0.5-0.7,0.5-1.1c0-0.4-0.1-0.6-0.3-0.9
			c-0.2-0.2-0.4-0.4-0.6-0.5c-0.5-0.3-0.9-0.5-1.2-0.6c-0.3-0.2-0.5-0.4-0.5-0.7c0-0.2,0.1-0.4,0.3-0.5c0.2-0.1,0.4-0.2,0.6-0.2
			c0.3,0,0.6,0.1,0.8,0.2c0.2,0.1,0.4,0.2,0.5,0.2V51.4z"/>
		<path fill-rule="evenodd" clip-rule="evenodd" fill="#8E9AA2" d="M135.5,56.5h0.8v-5.2h-0.8V56.5z M135.4,50h0.9v-1h-0.9V50z"/>
		<path fill-rule="evenodd" clip-rule="evenodd" fill="#8E9AA2" d="M138.2,56.5h0.8v-2.2c0-0.3,0.1-0.7,0.2-1.1
			c0.1-0.4,0.3-0.7,0.5-0.9c0.2-0.3,0.5-0.4,0.9-0.4c0.2,0,0.4,0.1,0.5,0.2c0.1,0.1,0.2,0.3,0.2,0.5c0,0.2,0,0.4,0,0.6v3.4h0.8v-3.9
			c0-0.2,0-0.4-0.1-0.6c-0.1-0.2-0.2-0.4-0.4-0.5c-0.2-0.1-0.4-0.2-0.7-0.2c-0.5,0-0.9,0.2-1.2,0.5c-0.3,0.3-0.5,0.6-0.7,0.9h0v-1.3
			h-0.8V56.5z"/>
		<path fill-rule="evenodd" clip-rule="evenodd" fill="#8E9AA2" d="M147.4,55.9c-0.1,0-0.3,0.1-0.4,0.1c-0.1,0-0.3,0-0.5,0
			c-0.5,0-0.9-0.2-1.2-0.5c-0.3-0.3-0.5-0.7-0.6-1.1c-0.1-0.4-0.2-0.8-0.2-1.2h3c0-0.2,0-0.4-0.1-0.7c-0.1-0.3-0.2-0.6-0.5-0.9
			c-0.3-0.3-0.7-0.4-1.3-0.4c-0.8,0-1.3,0.3-1.6,0.7c-0.3,0.5-0.5,1.1-0.5,1.8c0,1,0.2,1.7,0.7,2.1c0.5,0.5,1.1,0.7,1.9,0.7
			c0.3,0,0.5,0,0.7-0.1c0.2,0,0.4-0.1,0.6-0.2V55.9z M144.5,52.8c0-0.1,0-0.2,0.1-0.4c0.1-0.2,0.2-0.4,0.3-0.5
			c0.2-0.2,0.4-0.2,0.7-0.2c0.3,0,0.5,0.1,0.7,0.2c0.2,0.1,0.3,0.3,0.3,0.5c0,0.2,0.1,0.3,0.1,0.5H144.5z"/>
		<path fill-rule="evenodd" clip-rule="evenodd" fill="#8E9AA2" d="M151.4,51.4c-0.1,0-0.3-0.1-0.5-0.1c-0.2,0-0.5-0.1-0.7-0.1
			c-0.6,0-1,0.1-1.3,0.4c-0.3,0.2-0.4,0.6-0.4,1c0,0.4,0.2,0.7,0.5,1c0.3,0.2,0.6,0.4,0.9,0.6c0.3,0.2,0.6,0.3,0.8,0.5
			c0.2,0.2,0.3,0.4,0.3,0.6c0,0.3-0.1,0.5-0.3,0.6c-0.2,0.1-0.5,0.2-0.8,0.2c-0.3,0-0.7-0.1-0.9-0.2c-0.3-0.1-0.4-0.2-0.5-0.3v0.8
			c0.1,0.1,0.3,0.1,0.5,0.1c0.2,0,0.5,0.1,0.9,0.1c0.7,0,1.2-0.2,1.5-0.5c0.3-0.3,0.5-0.7,0.5-1.1c0-0.4-0.1-0.6-0.3-0.9
			c-0.2-0.2-0.4-0.4-0.6-0.5c-0.5-0.3-0.9-0.5-1.2-0.6c-0.3-0.2-0.5-0.4-0.5-0.7c0-0.2,0.1-0.4,0.3-0.5c0.2-0.1,0.4-0.2,0.6-0.2
			c0.3,0,0.6,0.1,0.8,0.2c0.2,0.1,0.4,0.2,0.5,0.2V51.4z"/>
		<path fill-rule="evenodd" clip-rule="evenodd" fill="#8E9AA2" d="M155.3,51.4c-0.1,0-0.3-0.1-0.5-0.1c-0.2,0-0.5-0.1-0.7-0.1
			c-0.6,0-1,0.1-1.3,0.4c-0.3,0.2-0.4,0.6-0.4,1c0,0.4,0.2,0.7,0.5,1c0.3,0.2,0.6,0.4,0.9,0.6c0.3,0.2,0.6,0.3,0.8,0.5
			c0.2,0.2,0.3,0.4,0.3,0.6c0,0.3-0.1,0.5-0.3,0.6c-0.2,0.1-0.5,0.2-0.8,0.2c-0.3,0-0.7-0.1-0.9-0.2c-0.3-0.1-0.4-0.2-0.5-0.3v0.8
			c0.1,0.1,0.3,0.1,0.5,0.1c0.2,0,0.5,0.1,0.9,0.1c0.7,0,1.2-0.2,1.5-0.5c0.3-0.3,0.5-0.7,0.5-1.1c0-0.4-0.1-0.6-0.3-0.9
			c-0.2-0.2-0.4-0.4-0.6-0.5c-0.5-0.3-0.9-0.5-1.2-0.6c-0.3-0.2-0.5-0.4-0.5-0.7c0-0.2,0.1-0.4,0.3-0.5c0.2-0.1,0.4-0.2,0.6-0.2
			c0.3,0,0.6,0.1,0.8,0.2c0.2,0.1,0.4,0.2,0.5,0.2V51.4z"/>
		<path fill-rule="evenodd" clip-rule="evenodd" fill="#8E9AA2" d="M163.3,49.1c-0.2,0-0.4-0.1-0.7-0.1c-0.3,0-0.6-0.1-0.9-0.1
			c-0.7,0-1.3,0.2-1.7,0.5c-0.4,0.3-0.6,0.8-0.6,1.4c0,0.5,0.1,0.9,0.4,1.2c0.2,0.3,0.5,0.5,0.9,0.7c0.4,0.2,0.7,0.4,1.1,0.6
			c0.3,0.2,0.6,0.4,0.8,0.6c0.2,0.2,0.3,0.5,0.3,0.9c0,0.4-0.1,0.8-0.4,1c-0.3,0.2-0.7,0.3-1.1,0.3c-0.4,0-0.7-0.1-1.1-0.2
			c-0.3-0.1-0.6-0.2-0.8-0.3v0.9c0.1,0,0.3,0.1,0.6,0.1c0.3,0.1,0.7,0.1,1.1,0.1c0.8,0,1.4-0.2,1.9-0.5c0.5-0.3,0.8-0.9,0.8-1.6
			c0-0.5-0.1-0.8-0.3-1.1c-0.2-0.3-0.5-0.5-0.9-0.8c-0.3-0.2-0.7-0.4-1.1-0.6c-0.4-0.2-0.7-0.4-0.9-0.6c-0.3-0.2-0.4-0.5-0.4-0.9
			c0-0.3,0.1-0.6,0.4-0.8c0.2-0.2,0.6-0.3,1-0.3c0.4,0,0.7,0.1,1,0.2c0.3,0.1,0.6,0.2,0.8,0.3V49.1z"/>
		<path fill-rule="evenodd" clip-rule="evenodd" fill="#8E9AA2" d="M168.5,56c-0.1,0-0.3,0.1-0.4,0.1c-0.1,0-0.3,0-0.5,0
			c-0.5,0-0.9-0.1-1.2-0.4c-0.3-0.3-0.5-0.6-0.6-1c-0.1-0.4-0.2-0.8-0.2-1.2c0-0.3,0-0.6,0.1-0.9c0.1-0.3,0.2-0.5,0.3-0.7
			c0.2-0.2,0.4-0.3,0.7-0.3c0.3,0,0.5,0.1,0.6,0.2c0.1,0.2,0.2,0.3,0.2,0.5c0,0.2,0,0.4,0,0.5h0.9c0-0.5-0.1-0.9-0.4-1.2
			c-0.3-0.3-0.7-0.5-1.4-0.5c-0.6,0-1.2,0.2-1.5,0.6c-0.4,0.4-0.6,1.1-0.6,1.9c0,0.5,0.1,1,0.2,1.5c0.2,0.4,0.4,0.8,0.8,1
			c0.4,0.3,0.9,0.4,1.5,0.4c0.2,0,0.4,0,0.6,0c0.2,0,0.4-0.1,0.6-0.1V56z"/>
		<path fill-rule="evenodd" clip-rule="evenodd" fill="#8E9AA2" d="M169.9,56.5h0.8v-2.3c0-0.3,0.1-0.7,0.2-1
			c0.1-0.4,0.3-0.7,0.5-0.9c0.2-0.3,0.5-0.4,0.8-0.4c0.3,0,0.5,0.1,0.6,0.4c0.1,0.2,0.1,0.5,0.1,0.8v3.5h0.8v-3.8
			c0-0.5-0.2-0.9-0.4-1.1c-0.3-0.2-0.6-0.3-0.9-0.3c-0.4,0-0.7,0.1-0.9,0.3c-0.2,0.2-0.4,0.4-0.6,0.6c-0.1,0.2-0.2,0.4-0.3,0.6h0V49
			h-0.8V56.5z"/>
		<path fill-rule="evenodd" clip-rule="evenodd" fill="#8E9AA2" d="M177.4,56.6c0.8,0,1.3-0.2,1.7-0.7c0.4-0.5,0.5-1.1,0.5-2
			c0-0.8-0.2-1.5-0.5-2c-0.4-0.5-0.9-0.7-1.7-0.8c-0.8,0-1.3,0.3-1.7,0.8c-0.4,0.5-0.5,1.2-0.5,2c0,0.8,0.2,1.5,0.5,2
			C176.1,56.4,176.7,56.6,177.4,56.6z M176.1,54c0-0.4,0-0.8,0.1-1.1c0.1-0.4,0.2-0.7,0.4-0.9c0.2-0.2,0.5-0.4,0.8-0.4
			c0.4,0,0.7,0.1,0.8,0.4c0.2,0.2,0.3,0.5,0.4,0.9c0.1,0.4,0.1,0.7,0.1,1.1c0,0.4,0,0.7-0.1,1c-0.1,0.3-0.2,0.6-0.4,0.8
			c-0.2,0.2-0.5,0.3-0.8,0.3c-0.4,0-0.6-0.1-0.8-0.3c-0.2-0.2-0.3-0.5-0.4-0.8C176.2,54.7,176.1,54.4,176.1,54z"/>
		<path fill-rule="evenodd" clip-rule="evenodd" fill="#8E9AA2" d="M183,56.6c0.8,0,1.3-0.2,1.7-0.7c0.4-0.5,0.5-1.1,0.5-2
			c0-0.8-0.2-1.5-0.5-2c-0.4-0.5-0.9-0.7-1.7-0.8c-0.8,0-1.3,0.3-1.7,0.8c-0.3,0.5-0.5,1.2-0.5,2c0,0.8,0.2,1.5,0.5,2
			C181.7,56.4,182.2,56.6,183,56.6z M181.7,54c0-0.4,0-0.8,0.1-1.1c0.1-0.4,0.2-0.7,0.4-0.9c0.2-0.2,0.5-0.4,0.8-0.4
			c0.4,0,0.7,0.1,0.9,0.4c0.2,0.2,0.3,0.5,0.4,0.9c0.1,0.4,0.1,0.7,0.1,1.1c0,0.4,0,0.7-0.1,1c-0.1,0.3-0.2,0.6-0.4,0.8
			c-0.2,0.2-0.5,0.3-0.9,0.3c-0.4,0-0.6-0.1-0.8-0.3c-0.2-0.2-0.3-0.5-0.4-0.8C181.7,54.7,181.7,54.4,181.7,54z"/>
		<rect x="186.8" y="49" fill-rule="evenodd" clip-rule="evenodd" fill="#8E9AA2" width="0.8" height="7.5"/>
	</g>
</g>
<g>
	<rect x="0" y="67.3" fill="#A81D3A" width="189.3" height="33.4"/>
	<text transform="matrix(1 0 0 1 28.6211 90.3008)" fill="#FFFFFF" font-family="'TradeGothicLTStd-BdCn20'" font-size="19.3268">We Read For You</text>
	<rect x="2.3" y="69.3" opacity="0.72" fill="none" stroke="#FFFFFF" stroke-miterlimit="10" width="181.1" height="29.3"/>
	<polygon fill="#EBEBEB" points="181.3,65.3 174.5,84.1 181.3,108.1 	"/>
	<rect x="180.7" y="60.5" fill="#EBEBEB" width="13.7" height="47.6"/>
	<circle opacity="0.9" fill="#FFFFFF" cx="10.9" cy="84.3" r="2.6"/>
</g>
</svg>