<?xml version="1.0" encoding="utf-8"?>
<!-- Generator: Adobe Illustrator 15.0.0, SVG Export Plug-In . SVG Version: 6.00 Build 0)  -->
<!DOCTYPE svg PUBLIC "-//W3C//DTD SVG 1.1//EN" "http://www.w3.org/Graphics/SVG/1.1/DTD/svg11.dtd">
<svg version="1.1" id="Layer_1" xmlns="http://www.w3.org/2000/svg" xmlns:xlink="http://www.w3.org/1999/xlink" x="0px" y="0px"
	 width="233.56px" height="111.53px" viewBox="0 0 233.56 111.53" enable-background="new 0 0 233.56 111.53" xml:space="preserve">
<rect fill-rule="evenodd" clip-rule="evenodd" fill="#292723" width="233.56" height="111.53"/>
<g>
	<g>
		<polygon fill-rule="evenodd" clip-rule="evenodd" fill="#FFFFFF" points="15.299,71.516 20.597,71.516 20.597,70.606 
			16.579,70.606 16.579,66.385 20.241,66.385 20.241,65.506 16.579,65.506 16.579,61.703 20.442,61.703 20.442,60.853 
			15.299,60.853 		"/>
		<polygon fill-rule="evenodd" clip-rule="evenodd" fill="#FFFFFF" points="21.319,71.516 22.571,71.516 24.534,68.518 
			26.543,71.516 27.919,71.516 25.321,67.672 27.638,64.162 26.419,64.162 24.72,66.741 23.003,64.162 21.628,64.162 23.915,67.607 
					"/>
		<path fill-rule="evenodd" clip-rule="evenodd" fill="#FFFFFF" d="M34.255,70.728c-0.205,0.059-0.399,0.109-0.585,0.15
			c-0.188,0.043-0.44,0.065-0.758,0.068c-0.754-0.02-1.331-0.244-1.745-0.676c-0.415-0.431-0.699-0.949-0.857-1.559
			c-0.163-0.609-0.237-1.193-0.23-1.755h4.313c0.017-0.226-0.016-0.572-0.097-1.036c-0.079-0.465-0.306-0.896-0.675-1.294
			c-0.374-0.397-0.986-0.609-1.84-0.635c-1.063,0.021-1.827,0.36-2.295,1.025c-0.467,0.665-0.695,1.534-0.686,2.604
			c0.013,1.353,0.346,2.367,0.994,3.046c0.645,0.679,1.526,1.017,2.639,1.018c0.402-0.001,0.734-0.029,0.997-0.083
			c0.263-0.053,0.537-0.122,0.825-0.211V70.728z M30.11,66.278c-0.004-0.147,0.035-0.351,0.123-0.611
			c0.083-0.261,0.242-0.498,0.475-0.717c0.231-0.214,0.564-0.328,0.996-0.343c0.432,0.008,0.757,0.106,0.974,0.294
			c0.216,0.184,0.359,0.406,0.43,0.663c0.069,0.255,0.101,0.493,0.097,0.714H30.11z"/>
		<path fill-rule="evenodd" clip-rule="evenodd" fill="#FFFFFF" d="M41.083,70.744c-0.195,0.057-0.381,0.103-0.554,0.141
			c-0.175,0.04-0.407,0.059-0.695,0.062c-0.708-0.015-1.266-0.213-1.673-0.589c-0.409-0.377-0.702-0.84-0.875-1.391
			s-0.258-1.099-0.25-1.638c-0.004-0.418,0.039-0.835,0.137-1.249c0.094-0.415,0.259-0.759,0.498-1.039
			c0.239-0.278,0.574-0.421,1.003-0.434c0.419,0.014,0.72,0.128,0.905,0.343c0.18,0.219,0.29,0.467,0.329,0.748
			c0.042,0.282,0.058,0.527,0.049,0.734h1.327c0.009-0.683-0.185-1.256-0.582-1.719c-0.398-0.463-1.049-0.703-1.952-0.722
			c-0.915,0-1.641,0.302-2.175,0.903c-0.537,0.602-0.81,1.505-0.82,2.712c-0.006,0.774,0.105,1.468,0.342,2.081
			c0.232,0.61,0.618,1.096,1.156,1.452c0.541,0.354,1.266,0.536,2.18,0.545c0.317-0.001,0.607-0.021,0.864-0.068
			c0.261-0.044,0.522-0.108,0.786-0.193V70.744z"/>
		<path fill-rule="evenodd" clip-rule="evenodd" fill="#FFFFFF" d="M47.237,71.516h1.108v-7.354h-1.141v3.149
			c0.003,0.494-0.065,1-0.207,1.523c-0.138,0.525-0.35,0.97-0.637,1.335c-0.288,0.367-0.657,0.558-1.103,0.574
			c-0.332-0.006-0.59-0.107-0.78-0.298c-0.197-0.19-0.334-0.426-0.413-0.701c-0.084-0.278-0.126-0.554-0.125-0.825v-4.758H42.8
			v5.253c-0.002,0.33,0.062,0.666,0.188,1.016c0.123,0.344,0.313,0.64,0.574,0.879c0.262,0.241,0.594,0.363,0.999,0.376
			c0.481,0.003,0.875-0.053,1.183-0.173c0.305-0.118,0.566-0.322,0.785-0.607c0.221-0.286,0.447-0.679,0.677-1.182h0.032V71.516z"/>
		<path fill-rule="evenodd" clip-rule="evenodd" fill="#FFFFFF" d="M54.547,70.853c-0.065,0.024-0.153,0.045-0.254,0.063
			c-0.105,0.021-0.251,0.031-0.442,0.031c-0.605-0.017-0.979-0.196-1.114-0.535c-0.135-0.337-0.185-0.73-0.153-1.184V64.87h2.01
			v-0.708h-2.01v-2.441l-1.141,0.701v1.74h-1.297v0.708h1.297v4.963c-0.012,0.658,0.166,1.134,0.523,1.424
			c0.358,0.293,0.915,0.435,1.668,0.429c0.15,0,0.295-0.001,0.434-0.009c0.14-0.004,0.298-0.023,0.479-0.055V70.853z"/>
		<path fill-rule="evenodd" clip-rule="evenodd" fill="#FFFFFF" d="M56.237,71.516h1.141v-7.354h-1.141V71.516z M56.156,62.243
			h1.298v-1.391h-1.298V62.243z"/>
		<polygon fill-rule="evenodd" clip-rule="evenodd" fill="#FFFFFF" points="61.706,71.516 62.769,71.516 65.411,64.162 64.3,64.162 
			62.292,69.971 60.052,64.162 58.786,64.162 		"/>
		<path fill-rule="evenodd" clip-rule="evenodd" fill="#FFFFFF" d="M71.695,70.728c-0.205,0.059-0.399,0.109-0.584,0.15
			c-0.188,0.043-0.439,0.065-0.761,0.068c-0.75-0.02-1.33-0.244-1.742-0.676c-0.414-0.431-0.698-0.949-0.86-1.559
			c-0.16-0.609-0.231-1.193-0.226-1.755h4.311c0.017-0.226-0.015-0.572-0.098-1.036c-0.078-0.465-0.305-0.896-0.676-1.294
			s-0.985-0.609-1.837-0.635c-1.064,0.021-1.829,0.36-2.296,1.025c-0.469,0.665-0.697,1.534-0.686,2.604
			c0.014,1.353,0.345,2.367,0.992,3.046c0.646,0.679,1.525,1.017,2.64,1.018c0.403-0.001,0.737-0.029,0.996-0.083
			c0.264-0.053,0.539-0.122,0.826-0.211V70.728z M67.554,66.278c-0.007-0.147,0.034-0.351,0.121-0.611
			c0.083-0.261,0.241-0.498,0.475-0.717c0.231-0.214,0.563-0.328,0.997-0.343c0.431,0.008,0.755,0.106,0.97,0.294
			c0.219,0.184,0.362,0.406,0.431,0.663c0.072,0.255,0.104,0.493,0.1,0.714H67.554z"/>
		<path fill-rule="evenodd" clip-rule="evenodd" fill="#FFFFFF" d="M77.816,71.516h1.762c1.086,0.019,2.027-0.108,2.816-0.379
			c0.793-0.269,1.4-0.796,1.83-1.576s0.648-1.927,0.654-3.438c-0.002-1.336-0.193-2.388-0.578-3.159
			c-0.385-0.769-0.955-1.315-1.719-1.638c-0.76-0.324-1.705-0.479-2.834-0.473h-1.932V71.516z M79.099,61.703h0.805
			c0.797-0.014,1.461,0.104,1.996,0.355c0.535,0.248,0.936,0.706,1.205,1.371c0.266,0.665,0.398,1.613,0.398,2.849
			c0.016,1.505-0.248,2.605-0.803,3.299c-0.553,0.693-1.484,1.038-2.797,1.029h-0.805V61.703z"/>
		<path fill-rule="evenodd" clip-rule="evenodd" fill="#FFFFFF" d="M91.818,70.728c-0.201,0.059-0.395,0.109-0.582,0.15
			c-0.188,0.043-0.439,0.065-0.758,0.068c-0.752-0.02-1.334-0.244-1.744-0.676c-0.414-0.431-0.697-0.949-0.857-1.559
			c-0.162-0.609-0.238-1.193-0.23-1.755h4.313c0.018-0.226-0.018-0.572-0.098-1.036c-0.08-0.465-0.305-0.896-0.676-1.294
			c-0.369-0.397-0.984-0.609-1.838-0.635c-1.064,0.021-1.83,0.36-2.295,1.025c-0.467,0.665-0.695,1.534-0.686,2.604
			c0.014,1.353,0.342,2.367,0.992,3.046c0.648,0.679,1.525,1.017,2.641,1.018c0.4-0.001,0.734-0.029,0.998-0.083
			c0.262-0.053,0.533-0.122,0.82-0.211V70.728z M87.679,66.278c-0.006-0.147,0.035-0.351,0.119-0.611
			c0.086-0.261,0.244-0.498,0.475-0.717c0.232-0.214,0.566-0.328,0.998-0.343c0.432,0.008,0.756,0.106,0.971,0.294
			c0.217,0.184,0.361,0.406,0.432,0.663c0.07,0.255,0.104,0.493,0.098,0.714H87.679z"/>
		<polygon fill-rule="evenodd" clip-rule="evenodd" fill="#FFFFFF" points="95.669,71.516 96.736,71.516 99.376,64.162 
			98.263,64.162 96.257,69.971 94.017,64.162 92.75,64.162 		"/>
		<path fill-rule="evenodd" clip-rule="evenodd" fill="#FFFFFF" d="M105.66,70.728c-0.205,0.059-0.398,0.109-0.584,0.15
			c-0.189,0.043-0.441,0.065-0.76,0.068c-0.752-0.02-1.332-0.244-1.746-0.676c-0.41-0.431-0.695-0.949-0.855-1.559
			s-0.234-1.193-0.229-1.755h4.311c0.018-0.226-0.016-0.572-0.098-1.036c-0.078-0.465-0.307-0.896-0.676-1.294
			c-0.371-0.397-0.984-0.609-1.838-0.635c-1.063,0.021-1.83,0.36-2.297,1.025c-0.465,0.665-0.693,1.534-0.684,2.604
			c0.012,1.353,0.346,2.367,0.992,3.046s1.525,1.017,2.639,1.018c0.404-0.001,0.738-0.029,1-0.083
			c0.262-0.053,0.535-0.122,0.824-0.211V70.728z M101.515,66.278c-0.002-0.147,0.039-0.351,0.123-0.611s0.244-0.498,0.473-0.717
			c0.23-0.214,0.564-0.328,0.998-0.343c0.432,0.008,0.756,0.106,0.973,0.294c0.215,0.184,0.363,0.406,0.432,0.663
			c0.07,0.255,0.1,0.493,0.094,0.714H101.515z"/>
		<rect x="107.746" y="60.853" fill-rule="evenodd" clip-rule="evenodd" fill="#FFFFFF" width="1.141" height="10.663"/>
		<path fill-rule="evenodd" clip-rule="evenodd" fill="#FFFFFF" d="M114.017,71.686c1.096-0.009,1.904-0.339,2.424-0.993
			c0.52-0.652,0.779-1.577,0.775-2.778c0.004-1.19-0.256-2.139-0.775-2.843c-0.52-0.702-1.328-1.063-2.424-1.079
			c-1.09,0.017-1.885,0.377-2.383,1.079c-0.496,0.704-0.744,1.652-0.736,2.843c-0.008,1.201,0.24,2.126,0.736,2.778
			C112.132,71.347,112.927,71.677,114.017,71.686z M112.177,67.962c-0.006-0.549,0.037-1.076,0.129-1.585
			c0.09-0.508,0.268-0.926,0.535-1.258c0.268-0.33,0.66-0.498,1.176-0.512c0.527,0.014,0.926,0.182,1.207,0.512
			c0.277,0.332,0.467,0.75,0.568,1.258c0.102,0.509,0.148,1.036,0.145,1.585c0.004,0.516-0.043,1.011-0.145,1.479
			c-0.102,0.472-0.291,0.856-0.568,1.16c-0.281,0.303-0.68,0.459-1.207,0.47c-0.516-0.011-0.908-0.167-1.176-0.47
			c-0.268-0.304-0.445-0.688-0.535-1.16C112.214,68.973,112.171,68.478,112.177,67.962z"/>
		<path fill-rule="evenodd" clip-rule="evenodd" fill="#FFFFFF" d="M119.15,74.822h1.143v-4.618h0.029
			c0.055,0.163,0.148,0.361,0.285,0.591c0.135,0.229,0.336,0.431,0.604,0.61c0.27,0.176,0.625,0.271,1.074,0.28
			c0.633-0.009,1.143-0.181,1.535-0.519c0.389-0.332,0.676-0.783,0.857-1.349c0.18-0.564,0.268-1.194,0.268-1.887
			c0-1.177-0.209-2.127-0.633-2.838c-0.42-0.716-1.07-1.081-1.949-1.102c-0.398,0.007-0.736,0.107-1.02,0.292
			c-0.285,0.186-0.512,0.401-0.682,0.646c-0.168,0.246-0.285,0.459-0.34,0.652h-0.029v-1.42h-1.143V74.822z M120.292,67.774
			c0-0.507,0.078-0.993,0.23-1.455c0.15-0.459,0.363-0.838,0.625-1.132c0.266-0.294,0.574-0.445,0.922-0.457
			c0.533,0.02,0.932,0.324,1.197,0.911c0.266,0.584,0.395,1.344,0.395,2.273c0.004,0.472-0.039,0.937-0.129,1.398
			c-0.092,0.461-0.25,0.845-0.482,1.153c-0.229,0.308-0.551,0.468-0.965,0.479c-0.455-0.02-0.814-0.215-1.078-0.583
			c-0.262-0.368-0.445-0.798-0.557-1.283C120.341,68.591,120.289,68.154,120.292,67.774z"/>
		<path fill-rule="evenodd" clip-rule="evenodd" fill="#FFFFFF" d="M126.88,71.516h1.139v-3.151c-0.002-0.49,0.066-1,0.201-1.521
			c0.135-0.525,0.344-0.973,0.623-1.338c0.281-0.367,0.639-0.557,1.078-0.573c0.334,0.01,0.572,0.108,0.719,0.298
			c0.143,0.193,0.232,0.427,0.264,0.703c0.031,0.279,0.045,0.553,0.041,0.824v4.759h1.139v-3.309c0-0.418,0.064-0.88,0.197-1.383
			c0.133-0.505,0.338-0.939,0.615-1.308c0.277-0.37,0.639-0.566,1.072-0.585c0.34,0.012,0.582,0.108,0.73,0.298
			s0.238,0.41,0.268,0.662c0.033,0.252,0.047,0.479,0.041,0.679v4.945h1.143v-5.455c0-0.614-0.148-1.11-0.441-1.486
			c-0.297-0.378-0.742-0.573-1.336-0.582c-0.467,0.017-0.859,0.143-1.17,0.386c-0.313,0.244-0.557,0.516-0.734,0.816
			c-0.176,0.3-0.291,0.543-0.354,0.727h-0.031c0.002-0.279-0.055-0.572-0.172-0.862c-0.115-0.298-0.305-0.544-0.563-0.75
			c-0.258-0.202-0.6-0.31-1.025-0.316c-0.635,0.024-1.131,0.237-1.488,0.64c-0.357,0.403-0.633,0.846-0.816,1.336h-0.029v-1.806
			h-1.109V71.516z"/>
		<path fill-rule="evenodd" clip-rule="evenodd" fill="#FFFFFF" d="M143.521,70.728c-0.203,0.059-0.398,0.109-0.584,0.15
			c-0.186,0.043-0.439,0.065-0.758,0.068c-0.75-0.02-1.334-0.244-1.746-0.676c-0.412-0.431-0.695-0.949-0.854-1.559
			c-0.162-0.609-0.238-1.193-0.232-1.755h4.314c0.016-0.226-0.018-0.572-0.098-1.036c-0.08-0.465-0.309-0.896-0.678-1.294
			s-0.982-0.609-1.838-0.635c-1.063,0.021-1.83,0.36-2.297,1.025c-0.465,0.665-0.693,1.534-0.682,2.604
			c0.012,1.353,0.342,2.367,0.99,3.046c0.646,0.679,1.525,1.017,2.639,1.018c0.404-0.001,0.736-0.029,1-0.083
			c0.26-0.053,0.533-0.122,0.822-0.211V70.728z M139.378,66.278c-0.004-0.147,0.035-0.351,0.121-0.611
			c0.084-0.261,0.244-0.498,0.477-0.717c0.23-0.214,0.566-0.328,0.996-0.343c0.432,0.008,0.756,0.106,0.971,0.294
			c0.217,0.184,0.361,0.406,0.432,0.663c0.07,0.255,0.104,0.493,0.1,0.714H139.378z"/>
		<path fill-rule="evenodd" clip-rule="evenodd" fill="#FFFFFF" d="M145.56,71.516h1.143v-3.151c0-0.49,0.08-1,0.238-1.521
			c0.16-0.525,0.406-0.973,0.736-1.338c0.332-0.367,0.756-0.557,1.27-0.573c0.334,0.01,0.572,0.108,0.719,0.298
			c0.146,0.193,0.23,0.427,0.262,0.703c0.033,0.279,0.047,0.553,0.041,0.824v4.759h1.141v-5.595c0-0.279-0.055-0.572-0.172-0.862
			c-0.115-0.298-0.303-0.544-0.563-0.75c-0.258-0.202-0.602-0.31-1.027-0.316c-0.717,0.024-1.281,0.237-1.697,0.64
			c-0.414,0.403-0.73,0.846-0.947,1.336h-0.029v-1.806h-1.113V71.516z"/>
		<path fill-rule="evenodd" clip-rule="evenodd" fill="#FFFFFF" d="M157.248,70.853c-0.068,0.024-0.15,0.045-0.256,0.063
			c-0.105,0.021-0.252,0.031-0.441,0.031c-0.607-0.017-0.979-0.196-1.113-0.535c-0.135-0.337-0.186-0.73-0.152-1.184V64.87h2.008
			v-0.708h-2.008v-2.441l-1.141,0.701v1.74h-1.299v0.708h1.299v4.963c-0.012,0.658,0.164,1.134,0.521,1.424
			c0.357,0.293,0.914,0.435,1.67,0.429c0.15,0,0.293-0.001,0.434-0.009c0.137-0.004,0.299-0.023,0.479-0.055V70.853z"/>
		<polygon fill-rule="evenodd" clip-rule="evenodd" fill="#FFFFFF" points="162.955,71.516 167.976,71.516 167.976,70.606 
			164.234,70.606 164.234,60.853 162.955,60.853 		"/>
		<path fill-rule="evenodd" clip-rule="evenodd" fill="#FFFFFF" d="M172.878,70.853c-0.066,0.024-0.152,0.045-0.258,0.063
			c-0.105,0.021-0.252,0.031-0.439,0.031c-0.611-0.017-0.98-0.196-1.115-0.535c-0.135-0.337-0.184-0.73-0.15-1.184V64.87h2.008
			v-0.708h-2.008v-2.441l-1.143,0.701v1.74h-1.299v0.708h1.299v4.963c-0.012,0.658,0.162,1.134,0.523,1.424
			c0.357,0.293,0.914,0.435,1.67,0.429c0.148,0,0.291-0.001,0.43-0.009c0.143-0.004,0.299-0.023,0.482-0.055V70.853z"/>
		<path fill-rule="evenodd" clip-rule="evenodd" fill="#FFFFFF" d="M178.63,71.516h1.141V60.853h-1.141v4.622h-0.031
			c-0.051-0.161-0.146-0.355-0.283-0.587c-0.135-0.228-0.338-0.432-0.609-0.612c-0.271-0.178-0.631-0.274-1.084-0.283
			c-0.619,0.007-1.123,0.187-1.514,0.535c-0.387,0.347-0.676,0.81-0.857,1.392c-0.184,0.581-0.273,1.227-0.273,1.935
			c-0.008,0.664,0.063,1.288,0.205,1.864c0.145,0.579,0.396,1.05,0.76,1.408c0.359,0.363,0.869,0.547,1.523,0.56
			c0.451-0.013,0.824-0.111,1.123-0.304c0.297-0.192,0.525-0.408,0.691-0.654c0.16-0.246,0.27-0.457,0.318-0.631h0.031V71.516z
			 M175.257,67.932c-0.002-0.528,0.043-1.031,0.137-1.52c0.096-0.481,0.258-0.883,0.486-1.195c0.227-0.311,0.541-0.475,0.938-0.486
			c0.459,0.022,0.818,0.214,1.082,0.579c0.266,0.364,0.453,0.774,0.564,1.234c0.113,0.461,0.17,0.849,0.166,1.154
			c-0.008,0.939-0.18,1.707-0.521,2.3c-0.34,0.591-0.799,0.898-1.383,0.915c-0.387-0.01-0.686-0.16-0.9-0.455
			c-0.215-0.29-0.365-0.663-0.447-1.116C175.294,68.892,175.255,68.419,175.257,67.932z"/>
	</g>
	<g>
		<path fill-rule="evenodd" clip-rule="evenodd" fill="#FFFFFF" d="M34.613,31.842v14.584c0,1.491-0.077,2.743-0.226,3.759
			c-0.148,1.013-0.495,1.966-1.041,2.854c-0.545,0.89-1.396,1.596-2.553,2.118c-1.157,0.519-2.679,0.78-4.562,0.78
			c-2.005,0-3.638-0.313-4.899-0.937c-1.262-0.626-2.171-1.536-2.728-2.733c-0.557-1.199-0.833-2.704-0.833-4.514V36.491
			c0-1.053-0.058-1.776-0.172-2.165c-0.116-0.39-0.381-0.66-0.803-0.808c-0.416-0.152-1.27-0.312-2.557-0.482v-0.772l7.405-0.808
			v14.553c0,1.34,0.033,2.43,0.094,3.265c0.064,0.839,0.258,1.654,0.577,2.452c0.322,0.799,0.829,1.426,1.532,1.877
			c0.702,0.451,1.64,0.678,2.823,0.678c1.295,0,2.319-0.209,3.07-0.627c0.752-0.419,1.288-0.97,1.61-1.653
			c0.321-0.682,0.521-1.419,0.601-2.211c0.084-0.791,0.122-1.784,0.122-2.977V31.842H34.613z"/>
		<path fill-rule="evenodd" clip-rule="evenodd" fill="#FFFFFF" d="M53.198,32.093v2.616c-0.689-0.354-1.6-0.712-2.741-1.066
			c-1.14-0.354-2.323-0.532-3.547-0.532c-0.999,0-1.811,0.291-2.442,0.878c-0.631,0.583-0.943,1.431-0.943,2.541
			c0,1.18,0.418,2.099,1.262,2.75c0.842,0.654,2.246,1.494,4.203,2.518c1.959,1.026,3.448,2.058,4.461,3.096
			c1.015,1.037,1.522,2.402,1.522,4.1c0,2.362-0.818,4.108-2.452,5.243c-1.632,1.135-3.762,1.701-6.387,1.701
			c-0.748,0-1.553-0.059-2.418-0.171c-0.864-0.112-1.622-0.243-2.271-0.385c-0.647-0.142-1.145-0.264-1.488-0.366v-2.847
			c2.44,1.407,4.688,2.112,6.738,2.112c1.284,0,2.341-0.317,3.163-0.945c0.826-0.631,1.238-1.687,1.238-3.166
			c0-1.26-0.449-2.256-1.35-2.985c-0.896-0.726-2.313-1.599-4.235-2.613c-1.927-1.016-3.386-2.026-4.377-3.036
			c-0.99-1.009-1.487-2.337-1.487-3.991c0-1.284,0.315-2.38,0.945-3.294c0.633-0.911,1.538-1.604,2.725-2.08
			c1.189-0.478,2.608-0.713,4.258-0.713c0.55,0,1.089,0.02,1.615,0.06c0.526,0.039,1.089,0.1,1.678,0.18
			c0.591,0.079,1.104,0.16,1.547,0.241C52.856,32.017,53.117,32.07,53.198,32.093z"/>
		<path fill-rule="evenodd" clip-rule="evenodd" fill="#FFFFFF" d="M59.874,55.546V36.623c0-1.281-0.056-2.142-0.161-2.578
			c-0.11-0.434-0.364-0.736-0.767-0.894c-0.4-0.161-1.203-0.338-2.408-0.533v-0.776h10.449c5.566,0,8.353,1.899,8.353,5.696
			c0,2.648-1.409,4.437-4.217,5.367v0.069c1.545,0.299,2.835,0.913,3.867,1.841c1.029,0.931,1.548,2.401,1.548,4.419
			c0,1.469-0.357,2.648-1.077,3.537c-0.715,0.89-1.597,1.524-2.636,1.909c-1.044,0.387-2.077,0.625-3.091,0.724
			c-1.015,0.095-2.095,0.142-3.238,0.142H59.874z M63.749,35.319v6.878h2.361c1.666,0,2.972-0.337,3.926-1.014
			c0.952-0.679,1.428-1.827,1.428-3.453c0-1.539-0.413-2.628-1.239-3.27c-0.827-0.643-2.083-0.964-3.771-0.964
			c-1.126,0-1.859,0.097-2.195,0.293C63.919,33.985,63.749,34.495,63.749,35.319z M63.749,43.854v8.597
			c0,0.654,0.261,1.054,0.783,1.211c0.524,0.155,1.385,0.231,2.59,0.231c1.938,0,3.346-0.436,4.224-1.307
			c0.879-0.869,1.317-2.211,1.317-4.021c0-1.639-0.531-2.835-1.593-3.585c-1.062-0.749-2.434-1.126-4.122-1.126H63.749z"/>
	</g>
	<g>
		<path fill-rule="evenodd" clip-rule="evenodd" fill="#FFFFFF" d="M80.917,45.582c0-5.332,10.25-9.655,10.25-9.655
			s4.145,1.741,7.162,4.382c-1.73,1.514-3.096,3.323-3.096,5.267c0,1.945,1.365,3.756,3.096,5.269
			c-3.018,2.644-7.162,4.392-7.162,4.392S80.917,50.914,80.917,45.582z"/>
		<path fill-rule="evenodd" clip-rule="evenodd" fill="#FFFFFF" d="M105.478,35.925c0,0,4.145,1.747,7.164,4.391
			c-1.727,1.513-3.084,3.321-3.084,5.26c0,1.945,1.363,3.756,3.092,5.269c-3.016,2.646-7.172,4.39-7.172,4.39
			s-4.139-1.75-7.156-4.393c1.732-1.513,3.1-3.323,3.1-5.269c0-1.944-1.367-3.752-3.1-5.268
			C101.339,37.667,105.478,35.925,105.478,35.925z"/>
		<path fill-rule="evenodd" clip-rule="evenodd" fill="#FFFFFF" d="M112.656,40.309c3.018-2.64,7.156-4.382,7.156-4.382
			s10.256,4.323,10.256,9.655s-10.256,9.653-10.256,9.653s-4.135-1.749-7.156-4.392c1.732-1.513,3.098-3.323,3.098-5.269
			C115.753,43.632,114.388,41.822,112.656,40.309z"/>
		<g>
			<path fill-rule="evenodd" clip-rule="evenodd" fill="#FFFFFF" d="M102.662,28.314c0-1.78,1.441-3.223,3.223-3.223
				c1.777,0,3.217,1.442,3.217,3.223c0,1.777-1.439,3.219-3.217,3.219C104.103,31.533,102.662,30.092,102.662,28.314z"/>
			<circle fill-rule="evenodd" clip-rule="evenodd" fill="#FFFFFF" cx="91.56" cy="28.435" r="3.223"/>
			<circle fill-rule="evenodd" clip-rule="evenodd" fill="#FFFFFF" cx="120.205" cy="28.452" r="3.221"/>
		</g>
	</g>
	<g>
		<path fill-rule="evenodd" clip-rule="evenodd" fill="#FFFFFF" d="M20.936,78.403H19.95v5.084c0.01,0.371-0.008,0.76-0.061,1.156
			c-0.051,0.397-0.199,0.738-0.442,1.018c-0.238,0.277-0.637,0.423-1.19,0.435c-0.565-0.012-0.967-0.157-1.211-0.435
			c-0.244-0.279-0.392-0.62-0.446-1.018c-0.054-0.396-0.074-0.785-0.063-1.156v-5.084h-0.982v5.108
			c-0.019,0.428,0.016,0.888,0.098,1.377c0.084,0.493,0.313,0.914,0.691,1.269c0.38,0.354,1.004,0.537,1.876,0.554
			c0.889-0.017,1.524-0.2,1.913-0.554c0.384-0.354,0.616-0.775,0.703-1.269c0.08-0.489,0.115-0.949,0.101-1.377V78.403z"/>
		<path fill-rule="evenodd" clip-rule="evenodd" fill="#FFFFFF" d="M22.931,86.581h0.876v-2.419
			c-0.001-0.375,0.062-0.767,0.182-1.167c0.124-0.4,0.312-0.744,0.564-1.025c0.256-0.28,0.58-0.428,0.973-0.438
			c0.256,0.009,0.439,0.081,0.552,0.229c0.113,0.146,0.178,0.326,0.204,0.538c0.021,0.215,0.034,0.424,0.029,0.632v3.651h0.876
			V82.29c0-0.216-0.043-0.438-0.133-0.662c-0.09-0.228-0.232-0.419-0.432-0.576c-0.2-0.154-0.46-0.237-0.788-0.243
			c-0.548,0.019-0.984,0.184-1.304,0.493c-0.317,0.307-0.558,0.649-0.724,1.023h-0.024v-1.386h-0.852V86.581z"/>
		<path fill-rule="evenodd" clip-rule="evenodd" fill="#FFFFFF" d="M29.243,86.581h0.873v-5.642h-0.873V86.581z M29.182,79.47h0.994
			v-1.066h-0.994V79.47z"/>
		<polygon fill-rule="evenodd" clip-rule="evenodd" fill="#FFFFFF" points="33.553,86.581 34.371,86.581 36.398,80.939 
			35.546,80.939 34.003,85.397 32.284,80.939 31.313,80.939 		"/>
		<path fill-rule="evenodd" clip-rule="evenodd" fill="#FFFFFF" d="M41.333,85.977c-0.154,0.044-0.305,0.082-0.447,0.114
			c-0.143,0.033-0.336,0.052-0.582,0.052c-0.575-0.014-1.02-0.185-1.339-0.516c-0.314-0.33-0.534-0.728-0.654-1.197
			c-0.125-0.467-0.183-0.917-0.176-1.346h3.305c0.015-0.172-0.012-0.438-0.072-0.794c-0.063-0.356-0.235-0.688-0.52-0.995
			c-0.284-0.304-0.755-0.466-1.409-0.486c-0.816,0.017-1.404,0.278-1.763,0.79c-0.355,0.508-0.534,1.173-0.525,1.996
			c0.012,1.039,0.267,1.815,0.762,2.337c0.496,0.521,1.17,0.779,2.025,0.779c0.31-0.001,0.563-0.021,0.767-0.064
			c0.2-0.042,0.41-0.094,0.629-0.16V85.977z M38.158,82.563c-0.005-0.113,0.027-0.271,0.092-0.47
			c0.065-0.199,0.185-0.383,0.364-0.551c0.178-0.163,0.434-0.252,0.766-0.261c0.33,0.007,0.58,0.079,0.746,0.224
			c0.163,0.143,0.275,0.313,0.33,0.51c0.055,0.196,0.079,0.377,0.073,0.548H38.158z"/>
		<path fill-rule="evenodd" clip-rule="evenodd" fill="#FFFFFF" d="M43.02,86.581h0.874v-2.667
			c-0.005-0.352,0.043-0.684,0.141-0.994c0.094-0.317,0.256-0.575,0.49-0.771c0.232-0.199,0.551-0.305,0.957-0.311h0.25v-1.03
			c-0.304,0.006-0.577,0.089-0.813,0.243c-0.242,0.157-0.444,0.348-0.611,0.572c-0.168,0.225-0.298,0.443-0.39,0.654h-0.024v-1.339
			H43.02V86.581z"/>
		<path fill-rule="evenodd" clip-rule="evenodd" fill="#FFFFFF" d="M49.561,81.01c-0.112-0.028-0.288-0.069-0.517-0.116
			c-0.23-0.05-0.496-0.079-0.797-0.085c-0.641,0.002-1.12,0.138-1.445,0.406c-0.323,0.267-0.487,0.646-0.487,1.134
			c0.021,0.464,0.186,0.812,0.496,1.043c0.316,0.227,0.659,0.438,1.032,0.63c0.341,0.183,0.627,0.36,0.855,0.525
			c0.229,0.165,0.347,0.386,0.355,0.659c-0.009,0.319-0.123,0.55-0.348,0.699c-0.226,0.144-0.504,0.217-0.836,0.217
			c-0.384-0.021-0.724-0.099-1.022-0.243c-0.299-0.144-0.482-0.24-0.554-0.294v0.887c0.133,0.061,0.325,0.11,0.576,0.161
			c0.251,0.05,0.566,0.076,0.949,0.078c0.739-0.014,1.275-0.184,1.611-0.505c0.338-0.323,0.504-0.713,0.5-1.165
			c-0.007-0.392-0.1-0.698-0.281-0.933c-0.18-0.229-0.412-0.42-0.691-0.574c-0.502-0.276-0.928-0.51-1.272-0.698
			c-0.337-0.186-0.517-0.44-0.527-0.76c0.007-0.231,0.104-0.4,0.291-0.511c0.189-0.111,0.416-0.165,0.68-0.165
			c0.34,0.013,0.636,0.073,0.896,0.187c0.259,0.109,0.436,0.199,0.536,0.265V81.01z"/>
		<path fill-rule="evenodd" clip-rule="evenodd" fill="#FFFFFF" d="M51.251,86.581h0.874v-5.642h-0.874V86.581z M51.192,79.47h0.992
			v-1.066h-0.992V79.47z"/>
		<path fill-rule="evenodd" clip-rule="evenodd" fill="#FFFFFF" d="M56.999,86.072c-0.053,0.019-0.117,0.035-0.197,0.05
			c-0.078,0.012-0.192,0.021-0.338,0.021c-0.467-0.012-0.751-0.148-0.856-0.409c-0.102-0.259-0.142-0.561-0.117-0.906v-3.343h1.545
			v-0.545H55.49v-1.875l-0.874,0.539v1.336h-0.995v0.545h0.995v3.806c-0.007,0.504,0.128,0.87,0.402,1.094
			c0.273,0.221,0.699,0.331,1.28,0.327c0.114,0,0.226-0.001,0.332-0.003c0.106-0.009,0.228-0.021,0.368-0.044V86.072z"/>
		<polygon fill-rule="evenodd" clip-rule="evenodd" fill="#FFFFFF" points="58.956,88.845 59.753,88.845 62.621,80.939 
			61.731,80.939 60.188,85.374 58.472,80.939 57.486,80.939 59.726,86.616 		"/>
		<path fill-rule="evenodd" clip-rule="evenodd" fill="#FFFFFF" d="M68.944,86.711c0.84-0.003,1.457-0.259,1.859-0.762
			c0.399-0.501,0.596-1.209,0.594-2.129c0.002-0.914-0.194-1.641-0.594-2.183c-0.402-0.539-1.02-0.815-1.859-0.829
			c-0.838,0.014-1.449,0.29-1.829,0.829c-0.382,0.542-0.57,1.269-0.564,2.183c-0.006,0.92,0.183,1.628,0.564,2.129
			C67.495,86.452,68.106,86.708,68.944,86.711z M67.534,83.855c-0.008-0.422,0.025-0.825,0.096-1.217
			c0.069-0.392,0.205-0.711,0.41-0.963c0.205-0.255,0.505-0.386,0.904-0.394c0.403,0.008,0.709,0.139,0.924,0.394
			c0.213,0.252,0.359,0.571,0.439,0.963c0.074,0.392,0.112,0.795,0.106,1.217c0.006,0.394-0.032,0.773-0.106,1.134
			c-0.08,0.361-0.227,0.658-0.439,0.89c-0.215,0.232-0.521,0.351-0.924,0.357c-0.399-0.007-0.699-0.125-0.904-0.357
			c-0.205-0.231-0.341-0.528-0.41-0.89C67.56,84.629,67.526,84.249,67.534,83.855z"/>
		<path fill-rule="evenodd" clip-rule="evenodd" fill="#FFFFFF" d="M73.474,86.581h0.875v-5.097h1.635v-0.545h-1.635v-0.687
			c-0.017-0.311,0.041-0.603,0.182-0.875c0.135-0.277,0.458-0.426,0.969-0.445c0.194,0.004,0.364,0.031,0.51,0.083
			c0.146,0.047,0.279,0.101,0.404,0.155v-0.698c-0.105-0.02-0.234-0.041-0.389-0.066c-0.152-0.022-0.344-0.038-0.572-0.038
			c-0.593,0.005-1.03,0.108-1.313,0.313c-0.287,0.2-0.469,0.47-0.556,0.803c-0.082,0.33-0.12,0.694-0.11,1.087v0.368H72.43v0.545
			h1.044V86.581z"/>
		<path fill-rule="evenodd" clip-rule="evenodd" fill="#FFFFFF" d="M84.228,78.473c-0.18-0.038-0.434-0.081-0.768-0.126
			c-0.332-0.047-0.664-0.069-0.998-0.073c-0.793,0.001-1.416,0.18-1.873,0.537c-0.455,0.353-0.688,0.86-0.697,1.524
			c0.012,0.531,0.146,0.955,0.406,1.271c0.264,0.316,0.58,0.568,0.955,0.756c0.41,0.212,0.801,0.419,1.172,0.615
			c0.373,0.192,0.68,0.416,0.916,0.664c0.236,0.247,0.359,0.562,0.365,0.938c-0.006,0.469-0.156,0.823-0.451,1.068
			c-0.301,0.241-0.713,0.364-1.234,0.366c-0.404-0.012-0.793-0.082-1.16-0.208c-0.369-0.132-0.664-0.251-0.889-0.361v1.018
			c0.107,0.037,0.328,0.086,0.664,0.147c0.334,0.061,0.746,0.099,1.232,0.102c0.826,0.003,1.51-0.182,2.051-0.554
			c0.541-0.379,0.82-0.965,0.842-1.768c0-0.516-0.111-0.915-0.33-1.2c-0.221-0.281-0.553-0.563-0.998-0.841
			c-0.369-0.228-0.756-0.438-1.152-0.627c-0.396-0.195-0.734-0.412-1.014-0.655c-0.275-0.241-0.42-0.56-0.432-0.947
			c0.006-0.356,0.141-0.642,0.398-0.86c0.258-0.218,0.604-0.33,1.037-0.334c0.406,0.006,0.787,0.07,1.139,0.185
			c0.352,0.113,0.627,0.218,0.818,0.312V78.473z"/>
		<path fill-rule="evenodd" clip-rule="evenodd" fill="#FFFFFF" d="M89.025,86.072c-0.051,0.019-0.115,0.035-0.195,0.05
			c-0.078,0.012-0.193,0.021-0.336,0.021c-0.467-0.012-0.752-0.148-0.855-0.409c-0.104-0.259-0.145-0.561-0.117-0.906v-3.343h1.541
			v-0.545h-1.541v-1.875l-0.877,0.539v1.336H85.65v0.545h0.994v3.806c-0.006,0.504,0.125,0.87,0.402,1.094
			c0.275,0.221,0.701,0.331,1.281,0.327c0.113,0,0.225-0.001,0.33-0.003c0.109-0.009,0.229-0.021,0.367-0.044V86.072z"/>
		<path fill-rule="evenodd" clip-rule="evenodd" fill="#FFFFFF" d="M94.16,85.977c-0.156,0.044-0.303,0.082-0.445,0.114
			c-0.145,0.033-0.338,0.052-0.584,0.052c-0.576-0.014-1.02-0.185-1.338-0.516c-0.316-0.33-0.533-0.728-0.656-1.197
			c-0.123-0.467-0.18-0.917-0.176-1.346h3.309c0.01-0.172-0.014-0.438-0.076-0.794c-0.061-0.356-0.234-0.688-0.518-0.995
			c-0.283-0.304-0.756-0.466-1.408-0.486c-0.818,0.017-1.406,0.278-1.766,0.79c-0.355,0.508-0.531,1.173-0.523,1.996
			c0.012,1.039,0.264,1.815,0.762,2.337c0.496,0.521,1.17,0.779,2.023,0.779c0.309-0.001,0.566-0.021,0.768-0.064
			c0.197-0.042,0.412-0.094,0.629-0.16V85.977z M90.984,82.563c-0.004-0.113,0.025-0.271,0.094-0.47
			c0.063-0.199,0.184-0.383,0.361-0.551c0.18-0.163,0.434-0.252,0.768-0.261c0.33,0.007,0.58,0.079,0.744,0.224
			c0.166,0.143,0.277,0.313,0.332,0.51c0.053,0.196,0.076,0.377,0.074,0.548H90.984z"/>
		<rect x="95.878" y="78.403" fill-rule="evenodd" clip-rule="evenodd" fill="#FFFFFF" width="0.879" height="8.178"/>
		<rect x="98.855" y="78.403" fill-rule="evenodd" clip-rule="evenodd" fill="#FFFFFF" width="0.877" height="8.178"/>
		<path fill-rule="evenodd" clip-rule="evenodd" fill="#FFFFFF" d="M105.564,85.977c-0.158,0.044-0.307,0.082-0.451,0.114
			c-0.141,0.033-0.334,0.052-0.578,0.052c-0.578-0.014-1.021-0.185-1.34-0.516c-0.316-0.33-0.533-0.728-0.656-1.197
			c-0.123-0.467-0.184-0.917-0.178-1.346h3.309c0.012-0.172-0.01-0.438-0.076-0.794c-0.061-0.356-0.23-0.688-0.518-0.995
			c-0.285-0.304-0.754-0.466-1.41-0.486c-0.814,0.017-1.402,0.278-1.762,0.79c-0.355,0.508-0.531,1.173-0.523,1.996
			c0.012,1.039,0.264,1.815,0.762,2.337c0.496,0.521,1.17,0.779,2.023,0.779c0.313-0.001,0.566-0.021,0.766-0.064
			c0.203-0.042,0.41-0.094,0.633-0.16V85.977z M102.384,82.563c-0.002-0.113,0.029-0.271,0.092-0.47
			c0.068-0.199,0.191-0.383,0.367-0.551c0.176-0.163,0.432-0.252,0.764-0.261c0.334,0.007,0.584,0.079,0.748,0.224
			c0.164,0.143,0.275,0.313,0.33,0.51c0.053,0.196,0.078,0.377,0.074,0.548H102.384z"/>
		<path fill-rule="evenodd" clip-rule="evenodd" fill="#FFFFFF" d="M107.248,86.581h0.877v-2.419
			c-0.002-0.375,0.059-0.767,0.184-1.167c0.121-0.4,0.309-0.744,0.563-1.025c0.254-0.28,0.578-0.428,0.973-0.438
			c0.258,0.009,0.441,0.081,0.553,0.229c0.109,0.146,0.178,0.326,0.203,0.538c0.021,0.215,0.031,0.424,0.027,0.632v3.651h0.873
			V82.29c0.004-0.216-0.041-0.438-0.129-0.662c-0.09-0.228-0.232-0.419-0.432-0.576c-0.199-0.154-0.459-0.237-0.785-0.243
			c-0.553,0.019-0.986,0.184-1.305,0.493c-0.316,0.307-0.561,0.649-0.725,1.023h-0.025v-1.386h-0.852V86.581z"/>
		<path fill-rule="evenodd" clip-rule="evenodd" fill="#FFFFFF" d="M114.234,78.403h-0.879v5.465
			c-0.012,0.322,0.014,0.703,0.082,1.143c0.066,0.438,0.258,0.828,0.574,1.167c0.316,0.338,0.834,0.516,1.561,0.533
			c0.742,0.003,1.324-0.239,1.744-0.718c0.418-0.48,0.629-1.215,0.635-2.197c0-0.918-0.176-1.644-0.525-2.173
			c-0.348-0.531-0.863-0.803-1.533-0.814c-0.334,0.006-0.607,0.083-0.83,0.222c-0.223,0.142-0.4,0.297-0.533,0.477
			c-0.129,0.178-0.219,0.329-0.275,0.453h-0.02V78.403z M114.234,83.95c-0.004-0.355,0.039-0.733,0.129-1.127
			c0.092-0.393,0.242-0.729,0.451-1.007c0.211-0.279,0.494-0.426,0.852-0.438c0.346,0.011,0.613,0.142,0.803,0.398
			s0.322,0.572,0.395,0.949c0.076,0.379,0.111,0.755,0.107,1.13c0.004,0.388-0.039,0.752-0.121,1.099
			c-0.082,0.346-0.227,0.63-0.434,0.849c-0.205,0.221-0.492,0.332-0.857,0.34c-0.371-0.009-0.654-0.119-0.846-0.342
			c-0.191-0.221-0.318-0.496-0.385-0.827C114.259,84.641,114.226,84.298,114.234,83.95z"/>
		<path fill-rule="evenodd" clip-rule="evenodd" fill="#FFFFFF" d="M121.546,86.711c0.84-0.003,1.457-0.259,1.859-0.762
			c0.398-0.501,0.596-1.209,0.596-2.129c0-0.914-0.197-1.641-0.596-2.183c-0.402-0.539-1.02-0.815-1.859-0.829
			c-0.838,0.014-1.445,0.29-1.828,0.829c-0.385,0.542-0.572,1.269-0.566,2.183c-0.006,0.92,0.182,1.628,0.566,2.129
			C120.101,86.452,120.708,86.708,121.546,86.711z M120.134,83.855c-0.006-0.422,0.027-0.825,0.098-1.217s0.207-0.711,0.41-0.963
			c0.207-0.255,0.506-0.386,0.904-0.394c0.4,0.008,0.711,0.139,0.924,0.394c0.213,0.252,0.357,0.571,0.436,0.963
			s0.115,0.795,0.111,1.217c0.004,0.394-0.033,0.773-0.111,1.134c-0.078,0.361-0.223,0.658-0.436,0.89
			c-0.213,0.232-0.523,0.351-0.924,0.357c-0.398-0.007-0.697-0.125-0.904-0.357c-0.203-0.231-0.34-0.528-0.41-0.89
			C120.162,84.629,120.128,84.249,120.134,83.855z"/>
		<path fill-rule="evenodd" clip-rule="evenodd" fill="#FFFFFF" d="M128.255,81.01c-0.113-0.028-0.291-0.069-0.52-0.116
			c-0.23-0.05-0.494-0.079-0.797-0.085c-0.639,0.002-1.121,0.138-1.445,0.406c-0.322,0.267-0.484,0.646-0.484,1.134
			c0.02,0.464,0.184,0.812,0.498,1.043c0.311,0.227,0.656,0.438,1.029,0.63c0.344,0.183,0.625,0.36,0.855,0.525
			c0.227,0.165,0.348,0.386,0.354,0.659c-0.006,0.319-0.123,0.55-0.346,0.699c-0.227,0.144-0.506,0.217-0.84,0.217
			c-0.379-0.021-0.719-0.099-1.02-0.243c-0.299-0.144-0.484-0.24-0.557-0.294v0.887c0.137,0.061,0.326,0.11,0.58,0.161
			c0.248,0.05,0.566,0.076,0.949,0.078c0.736-0.014,1.273-0.184,1.611-0.505c0.338-0.323,0.504-0.713,0.498-1.165
			c-0.008-0.392-0.098-0.698-0.281-0.933c-0.184-0.229-0.41-0.42-0.689-0.574c-0.506-0.276-0.928-0.51-1.271-0.698
			c-0.34-0.186-0.518-0.44-0.529-0.76c0.006-0.231,0.104-0.4,0.293-0.511c0.189-0.111,0.416-0.165,0.678-0.165
			c0.34,0.013,0.637,0.073,0.896,0.187c0.256,0.109,0.436,0.199,0.537,0.265V81.01z"/>
		<path fill-rule="evenodd" clip-rule="evenodd" fill="#FFFFFF" d="M133.57,85.993c-0.152,0.039-0.291,0.076-0.428,0.105
			c-0.129,0.027-0.311,0.044-0.533,0.044c-0.539-0.011-0.967-0.161-1.281-0.451c-0.314-0.289-0.539-0.644-0.67-1.065
			c-0.135-0.422-0.197-0.842-0.195-1.258c-0.002-0.32,0.031-0.641,0.105-0.957c0.074-0.317,0.199-0.582,0.385-0.798
			c0.182-0.213,0.438-0.323,0.768-0.331c0.322,0.008,0.553,0.096,0.693,0.261c0.141,0.168,0.227,0.358,0.254,0.575
			c0.029,0.216,0.043,0.404,0.037,0.562h1.02c0.004-0.524-0.143-0.961-0.449-1.318c-0.303-0.354-0.801-0.536-1.496-0.553
			c-0.701,0-1.258,0.231-1.666,0.693c-0.414,0.463-0.625,1.157-0.633,2.081c-0.004,0.594,0.084,1.125,0.264,1.596
			c0.178,0.469,0.475,0.842,0.889,1.114c0.414,0.271,0.969,0.415,1.67,0.418c0.244,0,0.465-0.018,0.668-0.053
			c0.195-0.032,0.396-0.082,0.6-0.147V85.993z"/>
		<path fill-rule="evenodd" clip-rule="evenodd" fill="#FFFFFF" d="M135.052,86.581h0.875v-2.503
			c0.002-0.355,0.066-0.727,0.197-1.118c0.131-0.389,0.318-0.721,0.564-0.998c0.248-0.274,0.549-0.42,0.9-0.431
			c0.352,0.011,0.582,0.142,0.693,0.39c0.105,0.248,0.158,0.54,0.146,0.877v3.783h0.877v-4.173
			c-0.014-0.565-0.162-0.972-0.449-1.228c-0.281-0.25-0.613-0.376-0.996-0.372c-0.391,0.014-0.717,0.124-0.979,0.325
			c-0.264,0.208-0.469,0.439-0.623,0.695c-0.15,0.257-0.254,0.464-0.309,0.628h-0.023v-4.054h-0.875V86.581z"/>
		<path fill-rule="evenodd" clip-rule="evenodd" fill="#FFFFFF" d="M144.562,86.581h1.777c0.234,0.005,0.52-0.005,0.854-0.035
			c0.33-0.03,0.662-0.111,0.99-0.245s0.604-0.357,0.822-0.667c0.223-0.307,0.334-0.74,0.346-1.291c-0.006-0.45-0.1-0.82-0.279-1.108
			c-0.176-0.288-0.406-0.514-0.678-0.671c-0.279-0.156-0.561-0.26-0.857-0.309v-0.023c0.348-0.051,0.666-0.23,0.963-0.535
			c0.297-0.303,0.453-0.741,0.471-1.314c-0.016-0.631-0.186-1.089-0.506-1.369c-0.32-0.283-0.697-0.459-1.123-0.527
			c-0.424-0.065-0.803-0.094-1.131-0.082h-1.648V86.581z M145.546,79.056h0.734c0.25-0.01,0.504,0.016,0.766,0.073
			c0.26,0.062,0.48,0.188,0.66,0.386c0.18,0.197,0.273,0.5,0.281,0.915c-0.008,0.423-0.104,0.749-0.287,0.973
			c-0.188,0.226-0.408,0.376-0.672,0.457c-0.26,0.077-0.512,0.117-0.748,0.11h-0.734V79.056z M145.546,82.62h0.734
			c0.242-0.006,0.52,0.022,0.83,0.088c0.309,0.064,0.582,0.218,0.816,0.459c0.232,0.244,0.359,0.623,0.369,1.139
			c-0.01,0.514-0.137,0.885-0.369,1.116c-0.234,0.233-0.508,0.378-0.816,0.435c-0.311,0.058-0.588,0.082-0.83,0.073h-0.734V82.62z"
			/>
		<path fill-rule="evenodd" clip-rule="evenodd" fill="#FFFFFF" d="M154.361,86.581h0.854v-5.642h-0.877v2.418
			c0.004,0.377-0.051,0.765-0.158,1.169c-0.104,0.4-0.268,0.742-0.488,1.023c-0.221,0.279-0.504,0.427-0.848,0.443
			c-0.25-0.009-0.453-0.086-0.596-0.231c-0.15-0.146-0.256-0.327-0.318-0.538c-0.064-0.215-0.094-0.426-0.092-0.634v-3.65h-0.877
			v4.029c0,0.255,0.049,0.512,0.143,0.78c0.094,0.265,0.24,0.49,0.443,0.673c0.199,0.185,0.453,0.283,0.764,0.289
			c0.371,0.003,0.672-0.041,0.906-0.131c0.234-0.091,0.434-0.247,0.604-0.466c0.17-0.221,0.342-0.523,0.518-0.908h0.023V86.581z"/>
		<path fill-rule="evenodd" clip-rule="evenodd" fill="#FFFFFF" d="M159.925,81.01c-0.117-0.028-0.291-0.069-0.52-0.116
			c-0.232-0.05-0.498-0.079-0.799-0.085c-0.639,0.002-1.123,0.138-1.445,0.406c-0.324,0.267-0.484,0.646-0.484,1.134
			c0.018,0.464,0.184,0.812,0.494,1.043c0.314,0.227,0.658,0.438,1.033,0.63c0.344,0.183,0.625,0.36,0.854,0.525
			s0.348,0.386,0.357,0.659c-0.01,0.319-0.127,0.55-0.35,0.699c-0.225,0.144-0.504,0.217-0.838,0.217
			c-0.379-0.021-0.719-0.099-1.02-0.243c-0.299-0.144-0.484-0.24-0.557-0.294v0.887c0.137,0.061,0.328,0.11,0.578,0.161
			c0.25,0.05,0.568,0.076,0.951,0.078c0.736-0.014,1.271-0.184,1.611-0.505c0.336-0.323,0.504-0.713,0.496-1.165
			c-0.006-0.392-0.098-0.698-0.277-0.933c-0.184-0.229-0.412-0.42-0.689-0.574c-0.508-0.276-0.93-0.51-1.273-0.698
			c-0.342-0.186-0.518-0.44-0.531-0.76c0.008-0.231,0.107-0.4,0.295-0.511c0.188-0.111,0.414-0.165,0.68-0.165
			c0.338,0.013,0.635,0.073,0.893,0.187c0.258,0.109,0.439,0.199,0.541,0.265V81.01z"/>
		<path fill-rule="evenodd" clip-rule="evenodd" fill="#FFFFFF" d="M161.613,86.581h0.875v-5.642h-0.875V86.581z M161.55,79.47
			h0.996v-1.066h-0.996V79.47z"/>
		<path fill-rule="evenodd" clip-rule="evenodd" fill="#FFFFFF" d="M164.539,86.581h0.875v-2.419c0-0.375,0.061-0.767,0.182-1.167
			c0.123-0.4,0.309-0.744,0.566-1.025c0.254-0.28,0.578-0.428,0.971-0.438c0.258,0.009,0.441,0.081,0.553,0.229
			c0.111,0.146,0.176,0.326,0.201,0.538c0.023,0.215,0.035,0.424,0.031,0.632v3.651h0.877V82.29c0-0.216-0.043-0.438-0.133-0.662
			c-0.092-0.228-0.232-0.419-0.432-0.576c-0.201-0.154-0.463-0.237-0.785-0.243c-0.553,0.019-0.988,0.184-1.305,0.493
			c-0.322,0.307-0.563,0.649-0.727,1.023h-0.025v-1.386h-0.85V86.581z"/>
		<path fill-rule="evenodd" clip-rule="evenodd" fill="#FFFFFF" d="M174.568,85.977c-0.156,0.044-0.305,0.082-0.451,0.114
			c-0.139,0.033-0.334,0.052-0.582,0.052c-0.574-0.014-1.02-0.185-1.336-0.516c-0.314-0.33-0.535-0.728-0.658-1.197
			c-0.121-0.467-0.18-0.917-0.176-1.346h3.311c0.012-0.172-0.014-0.438-0.074-0.794c-0.063-0.356-0.236-0.688-0.521-0.995
			c-0.283-0.304-0.754-0.466-1.408-0.486c-0.818,0.017-1.406,0.278-1.76,0.79c-0.361,0.508-0.537,1.173-0.527,1.996
			c0.012,1.039,0.264,1.815,0.764,2.337c0.492,0.521,1.17,0.779,2.02,0.779c0.313-0.001,0.566-0.021,0.77-0.064
			c0.201-0.042,0.41-0.094,0.631-0.16V85.977z M171.388,82.563c-0.002-0.113,0.029-0.271,0.094-0.47
			c0.068-0.199,0.188-0.383,0.367-0.551c0.176-0.163,0.43-0.252,0.764-0.261c0.33,0.007,0.578,0.079,0.748,0.224
			c0.166,0.143,0.273,0.313,0.328,0.51c0.053,0.196,0.078,0.377,0.072,0.548H171.388z"/>
		<path fill-rule="evenodd" clip-rule="evenodd" fill="#FFFFFF" d="M178.91,81.01c-0.119-0.028-0.295-0.069-0.521-0.116
			c-0.232-0.05-0.496-0.079-0.797-0.085c-0.641,0.002-1.123,0.138-1.445,0.406c-0.322,0.267-0.486,0.646-0.488,1.134
			c0.02,0.464,0.188,0.812,0.5,1.043c0.311,0.227,0.654,0.438,1.027,0.63c0.342,0.183,0.627,0.36,0.857,0.525
			c0.229,0.165,0.346,0.386,0.357,0.659c-0.012,0.319-0.127,0.55-0.352,0.699c-0.225,0.144-0.502,0.217-0.836,0.217
			c-0.381-0.021-0.721-0.099-1.02-0.243c-0.301-0.144-0.486-0.24-0.557-0.294v0.887c0.135,0.061,0.328,0.11,0.576,0.161
			c0.25,0.05,0.566,0.076,0.951,0.078c0.736-0.014,1.275-0.184,1.613-0.505c0.334-0.323,0.502-0.713,0.498-1.165
			c-0.006-0.392-0.102-0.698-0.281-0.933c-0.182-0.229-0.412-0.42-0.691-0.574c-0.504-0.276-0.928-0.51-1.268-0.698
			c-0.344-0.186-0.52-0.44-0.537-0.76c0.012-0.231,0.109-0.4,0.299-0.511c0.184-0.111,0.414-0.165,0.676-0.165
			c0.34,0.013,0.639,0.073,0.896,0.187c0.258,0.109,0.438,0.199,0.541,0.265V81.01z"/>
		<path fill-rule="evenodd" clip-rule="evenodd" fill="#FFFFFF" d="M183.201,81.01c-0.115-0.028-0.289-0.069-0.52-0.116
			c-0.23-0.05-0.494-0.079-0.795-0.085c-0.641,0.002-1.123,0.138-1.447,0.406c-0.322,0.267-0.484,0.646-0.484,1.134
			c0.02,0.464,0.184,0.812,0.496,1.043c0.313,0.227,0.658,0.438,1.033,0.63c0.34,0.183,0.623,0.36,0.852,0.525
			c0.23,0.165,0.348,0.386,0.355,0.659c-0.008,0.319-0.123,0.55-0.346,0.699c-0.225,0.144-0.504,0.217-0.84,0.217
			c-0.381-0.021-0.719-0.099-1.02-0.243c-0.297-0.144-0.484-0.24-0.555-0.294v0.887c0.133,0.061,0.322,0.11,0.578,0.161
			c0.248,0.05,0.564,0.076,0.949,0.078c0.738-0.014,1.273-0.184,1.609-0.505c0.338-0.323,0.504-0.713,0.5-1.165
			c-0.004-0.392-0.1-0.698-0.283-0.933c-0.18-0.229-0.408-0.42-0.688-0.574c-0.506-0.276-0.928-0.51-1.271-0.698
			c-0.34-0.186-0.518-0.44-0.531-0.76c0.008-0.231,0.105-0.4,0.295-0.511c0.188-0.111,0.414-0.165,0.678-0.165
			c0.338,0.013,0.637,0.073,0.895,0.187c0.26,0.109,0.438,0.199,0.539,0.265V81.01z"/>
		<path fill-rule="evenodd" clip-rule="evenodd" fill="#FFFFFF" d="M191.884,78.473c-0.18-0.038-0.436-0.081-0.77-0.126
			c-0.332-0.047-0.666-0.069-0.996-0.073c-0.795,0.001-1.418,0.18-1.873,0.537c-0.459,0.353-0.691,0.86-0.699,1.524
			c0.01,0.531,0.146,0.955,0.41,1.271c0.26,0.316,0.576,0.568,0.951,0.756c0.41,0.212,0.801,0.419,1.172,0.615
			c0.373,0.192,0.68,0.416,0.914,0.664c0.236,0.247,0.363,0.562,0.369,0.938c-0.004,0.469-0.158,0.823-0.457,1.068
			c-0.297,0.241-0.705,0.364-1.227,0.366c-0.406-0.012-0.791-0.082-1.164-0.208c-0.369-0.132-0.664-0.251-0.889-0.361v1.018
			c0.107,0.037,0.332,0.086,0.664,0.147c0.334,0.061,0.748,0.099,1.232,0.102c0.828,0.003,1.512-0.182,2.053-0.554
			c0.537-0.379,0.82-0.965,0.84-1.768c0-0.516-0.109-0.915-0.328-1.2c-0.223-0.281-0.553-0.563-1-0.841
			c-0.369-0.228-0.756-0.438-1.15-0.627c-0.396-0.195-0.734-0.412-1.01-0.655c-0.277-0.241-0.422-0.56-0.434-0.947
			c0.008-0.356,0.137-0.642,0.396-0.86c0.258-0.218,0.604-0.33,1.039-0.334c0.402,0.006,0.787,0.07,1.135,0.185
			c0.355,0.113,0.629,0.218,0.82,0.312V78.473z"/>
		<path fill-rule="evenodd" clip-rule="evenodd" fill="#FFFFFF" d="M197.537,85.993c-0.154,0.039-0.297,0.076-0.428,0.105
			c-0.133,0.027-0.311,0.044-0.531,0.044c-0.545-0.011-0.973-0.161-1.285-0.451c-0.314-0.289-0.537-0.644-0.672-1.065
			c-0.131-0.422-0.193-0.842-0.189-1.258c-0.004-0.32,0.031-0.641,0.102-0.957c0.076-0.317,0.201-0.582,0.385-0.798
			c0.182-0.213,0.439-0.323,0.77-0.331c0.322,0.008,0.551,0.096,0.691,0.261c0.141,0.168,0.225,0.358,0.256,0.575
			c0.035,0.216,0.043,0.404,0.035,0.562h1.02c0.006-0.524-0.143-0.961-0.449-1.318c-0.305-0.354-0.799-0.536-1.494-0.553
			c-0.705,0-1.26,0.231-1.67,0.693c-0.412,0.463-0.621,1.157-0.631,2.081c-0.002,0.594,0.086,1.125,0.266,1.596
			c0.178,0.469,0.475,0.842,0.887,1.114c0.414,0.271,0.973,0.415,1.67,0.418c0.246,0,0.467-0.018,0.664-0.053
			c0.201-0.032,0.402-0.082,0.605-0.147V85.993z"/>
		<path fill-rule="evenodd" clip-rule="evenodd" fill="#FFFFFF" d="M199.019,86.581h0.877v-2.503c0-0.355,0.066-0.727,0.193-1.118
			c0.131-0.389,0.318-0.721,0.564-0.998c0.248-0.274,0.549-0.42,0.9-0.431c0.352,0.011,0.584,0.142,0.693,0.39
			c0.111,0.248,0.158,0.54,0.15,0.877v3.783h0.877v-4.173c-0.018-0.565-0.166-0.972-0.449-1.228c-0.283-0.25-0.617-0.376-1-0.372
			c-0.387,0.014-0.715,0.124-0.98,0.325c-0.262,0.208-0.467,0.439-0.619,0.695c-0.152,0.257-0.256,0.464-0.309,0.628h-0.021v-4.054
			h-0.877V86.581z"/>
		<path fill-rule="evenodd" clip-rule="evenodd" fill="#FFFFFF" d="M207.269,86.711c0.84-0.003,1.461-0.259,1.859-0.762
			c0.4-0.501,0.598-1.209,0.596-2.129c0.002-0.914-0.195-1.641-0.596-2.183c-0.398-0.539-1.02-0.815-1.859-0.829
			c-0.834,0.014-1.443,0.29-1.826,0.829c-0.383,0.542-0.572,1.269-0.566,2.183c-0.006,0.92,0.184,1.628,0.566,2.129
			C205.826,86.452,206.435,86.708,207.269,86.711z M205.859,83.855c-0.006-0.422,0.029-0.825,0.096-1.217
			c0.072-0.392,0.207-0.711,0.414-0.963c0.203-0.255,0.504-0.386,0.9-0.394c0.404,0.008,0.715,0.139,0.928,0.394
			c0.213,0.252,0.357,0.571,0.434,0.963c0.078,0.392,0.115,0.795,0.111,1.217c0.004,0.394-0.033,0.773-0.111,1.134
			c-0.076,0.361-0.221,0.658-0.434,0.89c-0.213,0.232-0.523,0.351-0.928,0.357c-0.396-0.007-0.697-0.125-0.9-0.357
			c-0.207-0.231-0.342-0.528-0.414-0.89C205.888,84.629,205.853,84.249,205.859,83.855z"/>
		<path fill-rule="evenodd" clip-rule="evenodd" fill="#FFFFFF" d="M213.316,86.711c0.838-0.003,1.459-0.259,1.859-0.762
			c0.398-0.501,0.598-1.209,0.596-2.129c0.002-0.914-0.197-1.641-0.596-2.183c-0.4-0.539-1.021-0.815-1.859-0.829
			c-0.836,0.014-1.447,0.29-1.828,0.829c-0.381,0.542-0.572,1.269-0.566,2.183c-0.006,0.92,0.186,1.628,0.566,2.129
			C211.869,86.452,212.48,86.708,213.316,86.711z M211.906,83.855c-0.006-0.422,0.027-0.825,0.096-1.217
			c0.07-0.392,0.209-0.711,0.41-0.963c0.205-0.255,0.506-0.386,0.904-0.394c0.404,0.008,0.713,0.139,0.926,0.394
			c0.213,0.252,0.357,0.571,0.436,0.963c0.08,0.392,0.115,0.795,0.111,1.217c0.004,0.394-0.031,0.773-0.111,1.134
			c-0.078,0.361-0.223,0.658-0.436,0.89c-0.213,0.232-0.521,0.351-0.926,0.357c-0.398-0.007-0.699-0.125-0.904-0.357
			c-0.201-0.231-0.34-0.528-0.41-0.89C211.933,84.629,211.9,84.249,211.906,83.855z"/>
		<rect x="217.408" y="78.403" fill-rule="evenodd" clip-rule="evenodd" fill="#FFFFFF" width="0.873" height="8.178"/>
	</g>
</g>
</svg>
