<?xml version="1.0" encoding="utf-8"?>
<!-- Generator: Adobe Illustrator 15.0.0, SVG Export Plug-In . SVG Version: 6.00 Build 0)  -->
<!DOCTYPE svg PUBLIC "-//W3C//DTD SVG 1.1//EN" "http://www.w3.org/Graphics/SVG/1.1/DTD/svg11.dtd">
<svg version="1.1" id="Layer_1" xmlns="http://www.w3.org/2000/svg" xmlns:xlink="http://www.w3.org/1999/xlink" x="0px" y="0px"
	 width="197px" height="60.095px" viewBox="0 0 197 60.095" enable-background="new 0 0 197 60.095" xml:space="preserve">
<g>
	<g>
		<polygon fill-rule="evenodd" clip-rule="evenodd" fill="#85959D" points="6.002,43.412 10.871,43.412 10.871,42.577 7.179,42.577 
			7.179,38.7 10.546,38.7 10.546,37.893 7.179,37.893 7.179,34.395 10.728,34.395 10.728,33.617 6.002,33.617 		"/>
		<polygon fill-rule="evenodd" clip-rule="evenodd" fill="#85959D" points="11.536,43.412 12.684,43.412 14.489,40.659 
			16.333,43.412 17.597,43.412 15.211,39.88 17.344,36.655 16.22,36.655 14.659,39.027 13.081,36.655 11.818,36.655 13.917,39.822 
					"/>
		<path fill-rule="evenodd" clip-rule="evenodd" fill="#85959D" d="M23.42,42.69c-0.187,0.052-0.366,0.1-0.538,0.138
			c-0.17,0.041-0.404,0.063-0.695,0.063c-0.691-0.02-1.225-0.225-1.605-0.618c-0.377-0.396-0.641-0.874-0.784-1.434
			c-0.147-0.56-0.218-1.101-0.213-1.615h3.963c0.014-0.208-0.015-0.522-0.089-0.95c-0.074-0.429-0.279-0.825-0.619-1.191
			c-0.342-0.363-0.908-0.56-1.69-0.582c-0.979,0.018-1.682,0.332-2.112,0.945c-0.43,0.61-0.638,1.406-0.629,2.389
			c0.013,1.245,0.316,2.177,0.912,2.801c0.598,0.624,1.403,0.935,2.427,0.935c0.37-0.002,0.677-0.026,0.916-0.074
			c0.243-0.05,0.492-0.116,0.758-0.194V42.69z M19.614,38.601c-0.003-0.134,0.03-0.324,0.109-0.56
			c0.081-0.241,0.226-0.461,0.438-0.657c0.212-0.201,0.519-0.307,0.915-0.319c0.399,0.011,0.693,0.098,0.895,0.271
			c0.198,0.17,0.33,0.373,0.395,0.607c0.064,0.236,0.096,0.457,0.089,0.657H19.614z"/>
		<path fill-rule="evenodd" clip-rule="evenodd" fill="#85959D" d="M29.697,42.706c-0.182,0.051-0.349,0.094-0.509,0.13
			c-0.163,0.034-0.376,0.055-0.641,0.055c-0.648-0.015-1.162-0.193-1.538-0.541c-0.378-0.344-0.646-0.771-0.803-1.277
			c-0.158-0.506-0.237-1.008-0.23-1.506c-0.004-0.383,0.039-0.765,0.122-1.146c0.089-0.38,0.241-0.7,0.462-0.956
			c0.22-0.254,0.528-0.388,0.923-0.4c0.385,0.013,0.662,0.117,0.83,0.316c0.167,0.199,0.268,0.428,0.306,0.688
			c0.036,0.259,0.051,0.484,0.043,0.676h1.22c0.007-0.629-0.172-1.155-0.533-1.582c-0.366-0.424-0.966-0.645-1.796-0.662
			c-0.842,0-1.506,0.278-2.002,0.83c-0.49,0.553-0.738,1.384-0.75,2.492c-0.008,0.711,0.098,1.352,0.313,1.912
			c0.216,0.561,0.569,1.008,1.066,1.334c0.493,0.328,1.162,0.496,2,0.501c0.296,0,0.559-0.021,0.796-0.061
			c0.239-0.043,0.479-0.102,0.722-0.18V42.706z"/>
		<path fill-rule="evenodd" clip-rule="evenodd" fill="#85959D" d="M35.35,43.412h1.021v-6.757h-1.049v2.898
			c0.004,0.448-0.063,0.917-0.189,1.397c-0.129,0.481-0.322,0.893-0.588,1.226c-0.264,0.338-0.603,0.514-1.014,0.529
			c-0.302-0.009-0.541-0.099-0.718-0.272c-0.177-0.177-0.304-0.395-0.378-0.648c-0.076-0.256-0.115-0.508-0.112-0.756v-4.374h-1.048
			v4.829c-0.002,0.301,0.056,0.613,0.168,0.933c0.115,0.315,0.292,0.588,0.531,0.807c0.238,0.222,0.545,0.336,0.918,0.346
			c0.444,0.005,0.803-0.05,1.086-0.157c0.279-0.109,0.521-0.296,0.722-0.56c0.203-0.264,0.411-0.623,0.622-1.085h0.028V43.412z"/>
		<path fill-rule="evenodd" clip-rule="evenodd" fill="#85959D" d="M42.067,42.806c-0.06,0.022-0.139,0.042-0.234,0.059
			c-0.093,0.016-0.231,0.026-0.404,0.026c-0.56-0.017-0.901-0.18-1.023-0.489c-0.124-0.312-0.172-0.676-0.141-1.088V37.31h1.849
			v-0.654h-1.849v-2.244l-1.048,0.646v1.599h-1.195v0.654h1.195v4.559c-0.01,0.604,0.148,1.039,0.48,1.308
			c0.328,0.27,0.84,0.399,1.533,0.394c0.137,0.003,0.271-0.001,0.399-0.005c0.127-0.007,0.272-0.024,0.438-0.053V42.806z"/>
		<path fill-rule="evenodd" clip-rule="evenodd" fill="#85959D" d="M43.622,43.412h1.047v-6.757h-1.047V43.412z M43.547,34.895
			h1.193v-1.277h-1.193V34.895z"/>
		<polygon fill-rule="evenodd" clip-rule="evenodd" fill="#85959D" points="48.645,43.412 49.625,43.412 52.052,36.655 
			51.029,36.655 49.183,41.995 47.126,36.655 45.962,36.655 		"/>
		<path fill-rule="evenodd" clip-rule="evenodd" fill="#85959D" d="M57.826,42.69c-0.189,0.052-0.366,0.1-0.539,0.138
			c-0.17,0.041-0.401,0.063-0.695,0.063c-0.691-0.02-1.225-0.225-1.603-0.618c-0.38-0.396-0.641-0.874-0.789-1.434
			c-0.146-0.56-0.218-1.101-0.21-1.615h3.962c0.015-0.208-0.015-0.522-0.089-0.95c-0.073-0.429-0.281-0.825-0.621-1.191
			c-0.342-0.363-0.904-0.56-1.69-0.582c-0.976,0.018-1.681,0.332-2.109,0.945c-0.428,0.61-0.639,1.406-0.629,2.389
			c0.015,1.245,0.315,2.177,0.911,2.801s1.403,0.935,2.425,0.935c0.37-0.002,0.679-0.026,0.918-0.074
			c0.239-0.05,0.495-0.116,0.759-0.194V42.69z M54.018,38.601c-0.005-0.134,0.034-0.324,0.112-0.56
			c0.079-0.241,0.223-0.461,0.436-0.657c0.213-0.201,0.517-0.307,0.918-0.319c0.395,0.011,0.693,0.098,0.89,0.271
			c0.201,0.17,0.335,0.373,0.399,0.607c0.063,0.236,0.091,0.457,0.086,0.657H54.018z"/>
		<path fill-rule="evenodd" clip-rule="evenodd" fill="#85959D" d="M63.452,43.412h1.616c1,0.019,1.863-0.096,2.59-0.348
			c0.725-0.246,1.287-0.729,1.682-1.446c0.395-0.716,0.595-1.771,0.6-3.161c0-1.225-0.177-2.192-0.531-2.902
			c-0.354-0.707-0.877-1.209-1.578-1.507c-0.7-0.297-1.568-0.438-2.606-0.431h-1.771V43.412z M64.628,34.395h0.741
			c0.731-0.009,1.344,0.101,1.834,0.327c0.49,0.231,0.858,0.65,1.106,1.262c0.242,0.611,0.366,1.483,0.366,2.614
			c0.017,1.387-0.231,2.398-0.739,3.035c-0.506,0.64-1.362,0.954-2.567,0.944h-0.741V34.395z"/>
		<path fill-rule="evenodd" clip-rule="evenodd" fill="#85959D" d="M76.319,42.69c-0.188,0.052-0.368,0.1-0.538,0.138
			c-0.17,0.041-0.404,0.063-0.695,0.063c-0.691-0.02-1.225-0.225-1.603-0.618c-0.378-0.396-0.644-0.874-0.789-1.434
			c-0.148-0.56-0.218-1.101-0.211-1.615h3.963c0.014-0.208-0.015-0.522-0.091-0.95c-0.072-0.429-0.28-0.825-0.619-1.191
			c-0.343-0.363-0.906-0.56-1.688-0.582c-0.979,0.018-1.684,0.332-2.112,0.945c-0.43,0.61-0.636,1.406-0.629,2.389
			c0.013,1.245,0.316,2.177,0.912,2.801c0.595,0.624,1.403,0.935,2.424,0.935c0.371-0.002,0.677-0.026,0.919-0.074
			c0.239-0.05,0.492-0.116,0.758-0.194V42.69z M72.512,38.601c-0.005-0.134,0.03-0.324,0.109-0.56
			c0.079-0.241,0.228-0.461,0.44-0.657c0.21-0.201,0.517-0.307,0.913-0.319c0.397,0.011,0.696,0.098,0.895,0.271
			c0.201,0.17,0.327,0.373,0.395,0.607c0.064,0.236,0.096,0.457,0.089,0.657H72.512z"/>
		<polygon fill-rule="evenodd" clip-rule="evenodd" fill="#85959D" points="79.855,43.412 80.835,43.412 83.26,36.655 82.24,36.655 
			80.393,41.995 78.334,36.655 77.169,36.655 		"/>
		<path fill-rule="evenodd" clip-rule="evenodd" fill="#85959D" d="M89.033,42.69c-0.187,0.052-0.363,0.1-0.535,0.138
			c-0.17,0.041-0.404,0.063-0.698,0.063c-0.688-0.02-1.222-0.225-1.603-0.618c-0.378-0.396-0.641-0.874-0.787-1.434
			c-0.147-0.56-0.22-1.101-0.21-1.615h3.965c0.012-0.208-0.017-0.522-0.091-0.95c-0.076-0.429-0.282-0.825-0.622-1.191
			c-0.339-0.363-0.903-0.56-1.688-0.582c-0.978,0.018-1.684,0.332-2.111,0.945c-0.428,0.61-0.639,1.406-0.629,2.389
			c0.012,1.245,0.316,2.177,0.911,2.801c0.596,0.624,1.403,0.935,2.425,0.935c0.371-0.002,0.68-0.026,0.921-0.074
			c0.239-0.05,0.49-0.116,0.753-0.194V42.69z M85.228,38.601c-0.004-0.134,0.031-0.324,0.113-0.56
			c0.076-0.241,0.222-0.461,0.435-0.657c0.213-0.201,0.519-0.307,0.916-0.319c0.397,0.011,0.696,0.098,0.895,0.271
			c0.198,0.17,0.329,0.373,0.395,0.607c0.066,0.236,0.098,0.457,0.091,0.657H85.228z"/>
		<rect x="90.953" y="33.617" fill-rule="evenodd" clip-rule="evenodd" fill="#85959D" width="1.05" height="9.795"/>
		<path fill-rule="evenodd" clip-rule="evenodd" fill="#85959D" d="M96.716,43.569c1.006-0.005,1.745-0.311,2.226-0.911
			c0.48-0.6,0.715-1.452,0.715-2.554c0-1.095-0.234-1.963-0.715-2.611c-0.48-0.647-1.22-0.978-2.226-0.993
			c-1.002,0.016-1.731,0.346-2.191,0.993c-0.456,0.648-0.684,1.517-0.674,2.611c-0.01,1.102,0.218,1.954,0.674,2.554
			C94.985,43.259,95.714,43.564,96.716,43.569z M95.025,40.148c-0.004-0.503,0.033-0.987,0.117-1.457
			c0.084-0.468,0.246-0.852,0.49-1.155c0.246-0.304,0.605-0.459,1.084-0.472c0.482,0.013,0.851,0.168,1.109,0.472
			c0.253,0.304,0.426,0.688,0.521,1.155c0.093,0.47,0.136,0.954,0.131,1.457c0.005,0.474-0.038,0.927-0.131,1.357
			c-0.096,0.433-0.269,0.789-0.521,1.067c-0.259,0.276-0.627,0.421-1.109,0.432c-0.479-0.011-0.838-0.155-1.084-0.432
			c-0.244-0.278-0.406-0.635-0.49-1.067C95.058,41.075,95.021,40.622,95.025,40.148z"/>
		<path fill-rule="evenodd" clip-rule="evenodd" fill="#85959D" d="M101.433,46.452h1.048v-4.245h0.028
			c0.049,0.152,0.135,0.334,0.259,0.545c0.124,0.208,0.311,0.396,0.558,0.562c0.248,0.161,0.576,0.249,0.989,0.256
			c0.579-0.005,1.048-0.165,1.408-0.475c0.359-0.31,0.622-0.724,0.787-1.242c0.167-0.518,0.246-1.098,0.244-1.732
			c0.002-1.082-0.187-1.952-0.577-2.607c-0.387-0.657-0.984-0.995-1.791-1.013c-0.367,0.01-0.679,0.101-0.939,0.269
			c-0.263,0.17-0.469,0.366-0.626,0.595c-0.155,0.224-0.261,0.422-0.312,0.599h-0.028v-1.307h-1.048V46.452z M102.481,39.978
			c0.003-0.468,0.074-0.913,0.213-1.339c0.139-0.421,0.33-0.772,0.574-1.04c0.243-0.269,0.525-0.409,0.849-0.419
			c0.49,0.018,0.855,0.295,1.098,0.835c0.241,0.54,0.363,1.235,0.363,2.093c0.002,0.43-0.036,0.859-0.119,1.283
			c-0.082,0.422-0.232,0.776-0.445,1.059c-0.205,0.282-0.504,0.431-0.885,0.441c-0.418-0.02-0.746-0.197-0.99-0.533
			c-0.238-0.339-0.411-0.732-0.512-1.182C102.527,40.727,102.476,40.327,102.481,39.978z"/>
		<path fill-rule="evenodd" clip-rule="evenodd" fill="#85959D" d="M108.533,43.412h1.048v-2.895c0-0.451,0.06-0.918,0.185-1.398
			c0.126-0.481,0.315-0.892,0.573-1.227c0.261-0.337,0.589-0.514,0.99-0.528c0.311,0.01,0.528,0.099,0.66,0.275
			c0.136,0.174,0.215,0.388,0.246,0.642c0.026,0.257,0.038,0.511,0.033,0.758v4.373h1.048v-3.037
			c-0.003-0.385,0.06-0.811,0.182-1.272c0.122-0.464,0.311-0.863,0.568-1.205c0.254-0.338,0.582-0.517,0.983-0.533
			c0.313,0.01,0.536,0.101,0.669,0.275c0.137,0.169,0.221,0.375,0.247,0.605c0.033,0.232,0.043,0.441,0.036,0.623v4.544h1.052V38.4
			c0-0.563-0.137-1.017-0.407-1.366c-0.271-0.346-0.681-0.521-1.227-0.534c-0.43,0.013-0.786,0.133-1.073,0.355
			c-0.289,0.225-0.512,0.475-0.675,0.75c-0.162,0.275-0.27,0.498-0.324,0.668h-0.031c0-0.259-0.048-0.524-0.158-0.794
			c-0.105-0.271-0.279-0.5-0.517-0.688c-0.236-0.187-0.552-0.282-0.942-0.292c-0.583,0.022-1.037,0.219-1.367,0.59
			c-0.33,0.369-0.581,0.776-0.751,1.227h-0.026v-1.661h-1.021V43.412z"/>
		<path fill-rule="evenodd" clip-rule="evenodd" fill="#85959D" d="M123.828,42.69c-0.187,0.052-0.366,0.1-0.541,0.138
			c-0.17,0.041-0.398,0.063-0.693,0.063c-0.691-0.02-1.225-0.225-1.604-0.618c-0.378-0.396-0.641-0.874-0.786-1.434
			c-0.148-0.56-0.218-1.101-0.211-1.615h3.963c0.017-0.208-0.015-0.522-0.087-0.95c-0.073-0.429-0.284-0.825-0.626-1.191
			c-0.34-0.363-0.901-0.56-1.686-0.582c-0.979,0.018-1.684,0.332-2.111,0.945c-0.429,0.61-0.639,1.406-0.629,2.389
			c0.012,1.245,0.315,2.177,0.913,2.801c0.593,0.624,1.401,0.935,2.425,0.935c0.368-0.002,0.677-0.026,0.916-0.074
			c0.241-0.05,0.492-0.116,0.758-0.194V42.69z M120.021,38.601c-0.005-0.134,0.031-0.324,0.109-0.56
			c0.082-0.241,0.225-0.461,0.438-0.657c0.211-0.201,0.52-0.307,0.916-0.319c0.399,0.011,0.696,0.098,0.895,0.271
			c0.198,0.17,0.33,0.373,0.395,0.607c0.066,0.236,0.094,0.457,0.088,0.657H120.021z"/>
		<path fill-rule="evenodd" clip-rule="evenodd" fill="#85959D" d="M125.7,43.412h1.052v-2.895c0-0.451,0.074-0.918,0.221-1.398
			c0.143-0.481,0.371-0.892,0.674-1.227c0.304-0.337,0.693-0.514,1.164-0.528c0.309,0.01,0.526,0.099,0.663,0.275
			c0.132,0.174,0.215,0.388,0.239,0.642c0.031,0.257,0.043,0.511,0.038,0.758v4.373h1.05v-5.139c0-0.259-0.053-0.524-0.158-0.794
			c-0.107-0.271-0.282-0.5-0.517-0.688c-0.239-0.187-0.555-0.282-0.944-0.292c-0.66,0.022-1.179,0.219-1.562,0.59
			c-0.38,0.369-0.669,0.776-0.869,1.227h-0.028v-1.661H125.7V43.412z"/>
		<path fill-rule="evenodd" clip-rule="evenodd" fill="#85959D" d="M136.439,42.806c-0.061,0.022-0.137,0.042-0.232,0.059
			c-0.098,0.016-0.231,0.026-0.406,0.026c-0.56-0.017-0.899-0.18-1.025-0.489c-0.125-0.312-0.17-0.676-0.139-1.088V37.31h1.848
			v-0.654h-1.848v-2.244l-1.051,0.646v1.599h-1.19v0.654h1.19v4.559c-0.009,0.604,0.153,1.039,0.483,1.308
			c0.327,0.27,0.837,0.399,1.533,0.394c0.139,0.003,0.27-0.001,0.399-0.005c0.124-0.007,0.27-0.024,0.438-0.053V42.806z"/>
		<polygon fill-rule="evenodd" clip-rule="evenodd" fill="#85959D" points="141.686,43.412 146.301,43.412 146.301,42.577 
			142.861,42.577 142.861,33.617 141.686,33.617 		"/>
		<path fill-rule="evenodd" clip-rule="evenodd" fill="#85959D" d="M150.801,42.806c-0.06,0.022-0.137,0.042-0.234,0.059
			c-0.096,0.016-0.232,0.026-0.404,0.026c-0.56-0.017-0.898-0.18-1.023-0.489c-0.124-0.312-0.172-0.676-0.141-1.088V37.31h1.848
			v-0.654h-1.848v-2.244l-1.048,0.646v1.599h-1.19v0.654h1.19v4.559c-0.012,0.604,0.151,1.039,0.481,1.308
			c0.327,0.27,0.839,0.399,1.532,0.394c0.139,0.003,0.271-0.001,0.397-0.005c0.126-0.007,0.271-0.024,0.439-0.053V42.806z"/>
		<path fill-rule="evenodd" clip-rule="evenodd" fill="#85959D" d="M156.088,43.412h1.05v-9.795h-1.05v4.243h-0.029
			c-0.043-0.144-0.134-0.324-0.258-0.534c-0.124-0.212-0.313-0.399-0.56-0.564c-0.249-0.165-0.581-0.252-0.999-0.262
			c-0.567,0.01-1.029,0.172-1.388,0.492c-0.356,0.317-0.619,0.744-0.789,1.278c-0.169,0.534-0.251,1.125-0.251,1.779
			c-0.007,0.61,0.058,1.183,0.189,1.713c0.131,0.532,0.363,0.964,0.695,1.294c0.332,0.334,0.801,0.503,1.401,0.513
			c0.414-0.01,0.758-0.103,1.03-0.278c0.277-0.175,0.486-0.374,0.637-0.602c0.148-0.227,0.248-0.418,0.291-0.581h0.029V43.412z
			 M152.991,40.12c-0.003-0.481,0.036-0.948,0.127-1.393c0.086-0.447,0.234-0.813,0.444-1.101c0.208-0.289,0.498-0.436,0.863-0.447
			c0.418,0.018,0.751,0.196,0.995,0.529c0.243,0.334,0.416,0.715,0.517,1.138c0.104,0.424,0.155,0.774,0.15,1.06
			c-0.008,0.864-0.168,1.566-0.479,2.112c-0.313,0.546-0.736,0.826-1.27,0.845c-0.356-0.014-0.631-0.151-0.83-0.419
			c-0.193-0.269-0.332-0.608-0.408-1.025C153.024,41.003,152.988,40.569,152.991,40.12z"/>
	</g>
	<g>
		<path fill-rule="evenodd" clip-rule="evenodd" fill="#85959D" d="M23.748,6.958v13.4c0,1.37-0.069,2.52-0.205,3.452
			c-0.137,0.931-0.455,1.807-0.954,2.626c-0.5,0.814-1.284,1.464-2.349,1.942c-1.064,0.479-2.461,0.719-4.187,0.719
			c-1.847,0-3.346-0.287-4.505-0.859c-1.162-0.576-1.994-1.412-2.506-2.515c-0.512-1.1-0.768-2.481-0.768-4.146V11.23
			c0-0.968-0.053-1.634-0.158-1.989c-0.105-0.358-0.35-0.606-0.734-0.743C6.996,8.36,6.213,8.213,5.032,8.055V7.343l6.806-0.741
			v13.374c0,1.231,0.028,2.233,0.086,3.003c0.058,0.768,0.234,1.52,0.531,2.249c0.294,0.734,0.763,1.307,1.405,1.723
			c0.644,0.419,1.507,0.627,2.595,0.627c1.188,0,2.131-0.192,2.822-0.579c0.69-0.382,1.181-0.891,1.478-1.518
			c0.296-0.627,0.478-1.304,0.555-2.03c0.071-0.729,0.11-1.64,0.11-2.735V6.958H23.748z"/>
		<path fill-rule="evenodd" clip-rule="evenodd" fill="#85959D" d="M40.829,7.188v2.405c-0.632-0.325-1.471-0.653-2.521-0.98
			c-1.045-0.325-2.133-0.491-3.262-0.491c-0.914,0-1.659,0.271-2.24,0.807c-0.579,0.536-0.868,1.316-0.868,2.338
			c0,1.086,0.388,1.929,1.162,2.527c0.772,0.599,2.059,1.371,3.861,2.313c1.799,0.942,3.169,1.889,4.102,2.845
			c0.93,0.95,1.396,2.208,1.396,3.767c0,2.167-0.751,3.776-2.253,4.817s-3.457,1.563-5.87,1.563c-0.687,0-1.425-0.051-2.222-0.157
			c-0.797-0.104-1.49-0.223-2.085-0.353c-0.598-0.13-1.052-0.241-1.368-0.336v-2.617c2.243,1.293,4.307,1.942,6.193,1.942
			c1.179,0,2.147-0.289,2.905-0.87c0.758-0.579,1.139-1.55,1.139-2.908c0-1.159-0.411-2.073-1.241-2.741
			c-0.825-0.669-2.126-1.472-3.896-2.404c-1.767-0.932-3.108-1.862-4.022-2.788c-0.908-0.928-1.365-2.15-1.365-3.67
			c0-1.18,0.292-2.188,0.871-3.024c0.578-0.838,1.415-1.477,2.506-1.915c1.09-0.437,2.394-0.654,3.912-0.654
			c0.504,0,0.999,0.019,1.482,0.057c0.482,0.036,0.997,0.092,1.54,0.164c0.545,0.074,1.019,0.147,1.423,0.223
			C40.515,7.119,40.754,7.167,40.829,7.188z"/>
		<path fill-rule="evenodd" clip-rule="evenodd" fill="#85959D" d="M46.964,28.741V11.354c0-1.179-0.051-1.969-0.15-2.37
			c-0.104-0.402-0.335-0.675-0.703-0.823c-0.369-0.148-1.107-0.311-2.215-0.49V6.958h9.602c5.119,0,7.678,1.745,7.678,5.231
			c0,2.439-1.294,4.082-3.879,4.936v0.061c1.423,0.275,2.609,0.839,3.556,1.692c0.95,0.854,1.426,2.207,1.426,4.063
			c0,1.351-0.333,2.432-0.99,3.25c-0.66,0.815-1.468,1.401-2.425,1.755c-0.961,0.352-1.906,0.571-2.836,0.661
			c-0.935,0.092-1.928,0.135-2.979,0.135H46.964z M50.525,10.154v6.32h2.169c1.527,0,2.73-0.311,3.608-0.932
			c0.872-0.623,1.314-1.681,1.314-3.177c0-1.41-0.383-2.412-1.141-3.002c-0.76-0.589-1.915-0.886-3.467-0.886
			c-1.035,0-1.705,0.091-2.019,0.271C50.68,8.926,50.525,9.395,50.525,10.154z M50.525,17.994v7.899c0,0.603,0.239,0.971,0.72,1.112
			c0.478,0.141,1.272,0.215,2.379,0.215c1.782,0,3.075-0.4,3.884-1.203c0.803-0.796,1.207-2.029,1.207-3.691
			c0-1.507-0.487-2.606-1.463-3.297c-0.974-0.689-2.238-1.035-3.788-1.035H50.525z"/>
	</g>
	<g>
		<path fill-rule="evenodd" clip-rule="evenodd" fill="#85959D" d="M66.299,19.583c0-4.899,9.419-8.871,9.419-8.871
			s3.807,1.601,6.581,4.024c-1.591,1.392-2.843,3.056-2.843,4.842c0,1.787,1.252,3.451,2.843,4.844
			c-2.774,2.428-6.581,4.033-6.581,4.033S66.299,24.482,66.299,19.583z"/>
		<path fill-rule="evenodd" clip-rule="evenodd" fill="#938B33" d="M88.868,10.712c0,0,3.81,1.604,6.583,4.031
			c-1.585,1.391-2.834,3.052-2.834,4.835c0,1.787,1.254,3.451,2.844,4.844c-2.776,2.428-6.593,4.031-6.593,4.031
			s-3.8-1.61-6.575-4.035c1.595-1.392,2.845-3.056,2.845-4.842s-1.25-3.448-2.845-4.842C85.068,12.308,88.868,10.712,88.868,10.712z
			"/>
		<path fill-rule="evenodd" clip-rule="evenodd" fill="#A91D39" d="M95.465,14.736c2.773-2.424,6.575-4.024,6.575-4.024
			s9.424,3.972,9.424,8.871s-9.424,8.872-9.424,8.872s-3.802-1.607-6.575-4.033c1.593-1.393,2.843-3.057,2.843-4.844
			C98.308,17.792,97.058,16.128,95.465,14.736z"/>
		<g>
			
				<circle fill-rule="evenodd" clip-rule="evenodd" fill="#938B33" stroke="#938B33" stroke-width="0.2978" stroke-miterlimit="3.8637" cx="89.241" cy="3.715" r="2.96"/>
			
				<circle fill-rule="evenodd" clip-rule="evenodd" fill="#85959D" stroke="#85959D" stroke-width="0.2978" stroke-miterlimit="3.8637" cx="76.077" cy="3.827" r="2.96"/>
			
				<circle fill-rule="evenodd" clip-rule="evenodd" fill="#A91D39" stroke="#A91D39" stroke-width="0.2978" stroke-miterlimit="3.8637" cx="102.401" cy="3.842" r="2.959"/>
		</g>
	</g>
	<g>
		<path fill-rule="evenodd" clip-rule="evenodd" fill="#85959D" d="M11.179,49.742h-0.901v4.674c0.01,0.34-0.009,0.696-0.058,1.062
			c-0.047,0.366-0.184,0.677-0.406,0.934c-0.22,0.258-0.586,0.389-1.095,0.402C8.203,56.8,7.832,56.669,7.61,56.411
			c-0.226-0.257-0.364-0.567-0.414-0.934c-0.046-0.365-0.067-0.722-0.055-1.062v-4.674H6.237v4.695
			c-0.017,0.393,0.015,0.818,0.091,1.265c0.074,0.452,0.287,0.84,0.637,1.165c0.347,0.325,0.92,0.495,1.721,0.509
			c0.816-0.014,1.402-0.184,1.758-0.509c0.352-0.325,0.569-0.713,0.646-1.165c0.078-0.446,0.107-0.872,0.09-1.265V49.742z"/>
		<path fill-rule="evenodd" clip-rule="evenodd" fill="#85959D" d="M13.013,57.257h0.809v-2.222c0-0.347,0.053-0.703,0.165-1.072
			c0.112-0.371,0.287-0.683,0.519-0.942c0.234-0.258,0.533-0.394,0.897-0.403c0.234,0.006,0.401,0.075,0.504,0.211
			c0.104,0.134,0.165,0.298,0.189,0.494c0.019,0.194,0.028,0.39,0.023,0.58v3.354h0.806v-3.943c0.003-0.199-0.038-0.401-0.121-0.609
			c-0.082-0.206-0.216-0.383-0.395-0.526c-0.182-0.144-0.426-0.218-0.725-0.224c-0.508,0.016-0.904,0.168-1.198,0.451
			c-0.292,0.284-0.515,0.595-0.665,0.942h-0.023v-1.273h-0.785V57.257z"/>
		<path fill-rule="evenodd" clip-rule="evenodd" fill="#85959D" d="M18.812,57.257h0.807v-5.183h-0.807V57.257z M18.757,50.722
			h0.916v-0.979h-0.916V50.722z"/>
		<polygon fill-rule="evenodd" clip-rule="evenodd" fill="#85959D" points="22.777,57.257 23.528,57.257 25.388,52.074 
			24.607,52.074 23.191,56.169 21.613,52.074 20.718,52.074 		"/>
		<path fill-rule="evenodd" clip-rule="evenodd" fill="#85959D" d="M29.929,56.704c-0.146,0.037-0.282,0.074-0.414,0.104
			c-0.131,0.032-0.311,0.045-0.535,0.048c-0.528-0.013-0.938-0.17-1.229-0.473c-0.289-0.304-0.49-0.673-0.603-1.103
			c-0.114-0.428-0.17-0.843-0.16-1.237h3.037c0.012-0.156-0.012-0.401-0.069-0.729c-0.058-0.326-0.216-0.632-0.476-0.913
			c-0.264-0.278-0.691-0.428-1.297-0.446c-0.75,0.015-1.288,0.256-1.618,0.725c-0.328,0.467-0.488,1.079-0.483,1.832
			c0.01,0.956,0.244,1.669,0.701,2.148c0.454,0.479,1.073,0.717,1.86,0.717c0.284-0.002,0.519-0.019,0.705-0.055
			c0.182-0.039,0.378-0.09,0.581-0.15V56.704z M27.007,53.566c-0.003-0.104,0.026-0.248,0.084-0.432
			c0.062-0.185,0.174-0.352,0.337-0.505c0.162-0.151,0.396-0.231,0.703-0.243c0.306,0.009,0.53,0.076,0.687,0.207
			c0.152,0.132,0.25,0.287,0.301,0.469c0.05,0.181,0.071,0.347,0.069,0.504H27.007z"/>
		<path fill-rule="evenodd" clip-rule="evenodd" fill="#85959D" d="M31.476,57.257h0.804v-2.451
			c-0.003-0.321,0.04-0.626,0.127-0.916c0.088-0.286,0.239-0.523,0.449-0.707c0.213-0.183,0.509-0.275,0.885-0.285h0.228v-0.943
			c-0.28,0.006-0.529,0.08-0.746,0.224c-0.223,0.142-0.412,0.315-0.564,0.523c-0.153,0.207-0.272,0.407-0.359,0.602H32.28v-1.229
			h-0.804V57.257z"/>
		<path fill-rule="evenodd" clip-rule="evenodd" fill="#85959D" d="M37.488,52.14c-0.107-0.028-0.266-0.064-0.479-0.111
			c-0.213-0.042-0.454-0.07-0.729-0.074c-0.594,0.001-1.033,0.127-1.33,0.373c-0.297,0.243-0.445,0.592-0.445,1.042
			c0.018,0.428,0.168,0.746,0.457,0.955c0.285,0.213,0.603,0.405,0.947,0.581c0.313,0.17,0.574,0.331,0.784,0.482
			c0.208,0.154,0.318,0.354,0.327,0.606c-0.009,0.292-0.117,0.506-0.32,0.641c-0.205,0.132-0.463,0.201-0.77,0.2
			c-0.35-0.017-0.662-0.093-0.938-0.224c-0.275-0.128-0.444-0.22-0.512-0.266v0.814c0.125,0.051,0.304,0.101,0.531,0.145
			c0.229,0.045,0.519,0.069,0.875,0.071c0.674-0.013,1.167-0.168,1.478-0.464c0.313-0.297,0.464-0.653,0.459-1.068
			c-0.007-0.358-0.091-0.645-0.256-0.857c-0.167-0.21-0.38-0.388-0.636-0.529c-0.464-0.255-0.854-0.467-1.17-0.639
			c-0.311-0.172-0.476-0.405-0.484-0.699c0.004-0.212,0.096-0.37,0.27-0.471c0.172-0.103,0.381-0.152,0.622-0.15
			c0.311,0.01,0.583,0.067,0.822,0.17c0.237,0.102,0.401,0.185,0.495,0.242V52.14z"/>
		<path fill-rule="evenodd" clip-rule="evenodd" fill="#85959D" d="M39.04,57.257h0.804v-5.183H39.04V57.257z M38.985,50.722h0.913
			v-0.979h-0.913V50.722z"/>
		<path fill-rule="evenodd" clip-rule="evenodd" fill="#85959D" d="M44.32,56.788c-0.046,0.019-0.107,0.033-0.18,0.047
			c-0.074,0.013-0.177,0.021-0.313,0.021c-0.425-0.013-0.688-0.139-0.784-0.376c-0.094-0.24-0.129-0.515-0.105-0.833v-3.073h1.416
			v-0.499h-1.416v-1.721l-0.806,0.492v1.229h-0.915v0.499h0.915v3.497c-0.007,0.466,0.115,0.801,0.368,1.006
			c0.254,0.206,0.646,0.307,1.177,0.3c0.105,0.003,0.208-0.002,0.306-0.005c0.099-0.004,0.211-0.018,0.338-0.038V56.788z"/>
		<polygon fill-rule="evenodd" clip-rule="evenodd" fill="#85959D" points="46.118,59.34 46.849,59.34 49.487,52.074 48.669,52.074 
			47.253,56.148 45.673,52.074 44.769,52.074 46.826,57.291 		"/>
		<path fill-rule="evenodd" clip-rule="evenodd" fill="#85959D" d="M55.297,57.376c0.771-0.005,1.339-0.237,1.71-0.698
			c0.365-0.461,0.548-1.114,0.543-1.958c0.005-0.839-0.178-1.507-0.543-2.004c-0.371-0.497-0.939-0.749-1.71-0.762
			c-0.77,0.013-1.329,0.265-1.681,0.762s-0.523,1.165-0.52,2.004c-0.004,0.844,0.168,1.497,0.52,1.958S54.528,57.371,55.297,57.376z
			 M54,54.751c-0.003-0.385,0.023-0.756,0.093-1.115c0.06-0.358,0.188-0.655,0.376-0.887c0.186-0.234,0.463-0.351,0.829-0.362
			c0.371,0.012,0.653,0.128,0.849,0.362c0.196,0.231,0.33,0.528,0.402,0.887c0.069,0.359,0.105,0.73,0.103,1.115
			c0.003,0.366-0.033,0.711-0.103,1.045c-0.072,0.33-0.206,0.604-0.402,0.815c-0.195,0.213-0.478,0.321-0.849,0.332
			c-0.366-0.011-0.644-0.119-0.829-0.332c-0.188-0.211-0.316-0.485-0.376-0.815C54.023,55.462,53.997,55.117,54,54.751z"/>
		<path fill-rule="evenodd" clip-rule="evenodd" fill="#85959D" d="M59.458,57.257h0.809v-4.684h1.501v-0.499h-1.501V51.44
			c-0.022-0.283,0.035-0.552,0.162-0.804c0.127-0.256,0.423-0.388,0.895-0.405c0.174,0.003,0.33,0.026,0.466,0.071
			c0.134,0.046,0.256,0.096,0.371,0.146v-0.64c-0.096-0.021-0.216-0.04-0.354-0.063c-0.143-0.021-0.317-0.033-0.528-0.036
			c-0.543,0.004-0.946,0.101-1.208,0.29c-0.263,0.186-0.428,0.432-0.506,0.736c-0.079,0.304-0.113,0.638-0.105,0.999v0.339h-0.957
			v0.499h0.957V57.257z"/>
		<path fill-rule="evenodd" clip-rule="evenodd" fill="#85959D" d="M69.343,49.81c-0.167-0.037-0.401-0.077-0.707-0.118
			c-0.307-0.042-0.612-0.064-0.916-0.067c-0.732,0.003-1.304,0.169-1.722,0.491c-0.419,0.326-0.634,0.793-0.642,1.402
			c0.008,0.488,0.135,0.878,0.376,1.167c0.239,0.292,0.53,0.521,0.873,0.693c0.378,0.2,0.738,0.388,1.081,0.567
			c0.342,0.177,0.621,0.383,0.841,0.609c0.216,0.229,0.328,0.517,0.335,0.862c-0.002,0.432-0.144,0.759-0.418,0.983
			c-0.273,0.223-0.65,0.333-1.129,0.335c-0.375-0.01-0.732-0.075-1.069-0.191c-0.339-0.119-0.609-0.229-0.815-0.332v0.937
			c0.101,0.033,0.302,0.08,0.61,0.135c0.306,0.058,0.687,0.088,1.131,0.093c0.761,0.004,1.39-0.165,1.887-0.509
			c0.497-0.347,0.756-0.886,0.772-1.624c0-0.474-0.101-0.842-0.304-1.1c-0.203-0.261-0.507-0.521-0.916-0.774
			c-0.345-0.211-0.693-0.404-1.06-0.579c-0.365-0.175-0.674-0.375-0.928-0.601c-0.253-0.222-0.387-0.514-0.399-0.867
			c0.008-0.328,0.13-0.592,0.366-0.794c0.236-0.201,0.553-0.302,0.954-0.307c0.373,0.007,0.72,0.064,1.045,0.17
			s0.574,0.201,0.753,0.287V49.81z"/>
		<path fill-rule="evenodd" clip-rule="evenodd" fill="#85959D" d="M73.75,56.788c-0.046,0.019-0.105,0.033-0.179,0.047
			c-0.074,0.013-0.178,0.021-0.309,0.021c-0.431-0.013-0.693-0.139-0.789-0.376c-0.096-0.24-0.13-0.515-0.108-0.833v-3.073h1.416
			v-0.499h-1.416v-1.721l-0.804,0.492v1.229h-0.913v0.499h0.913v3.497c-0.007,0.466,0.115,0.801,0.369,1.006
			c0.253,0.206,0.647,0.307,1.176,0.3c0.107,0.003,0.209-0.002,0.307-0.005c0.096-0.004,0.21-0.018,0.337-0.038V56.788z"/>
		<path fill-rule="evenodd" clip-rule="evenodd" fill="#85959D" d="M78.468,56.704c-0.141,0.037-0.279,0.074-0.411,0.104
			c-0.132,0.032-0.311,0.045-0.536,0.048c-0.525-0.013-0.937-0.17-1.229-0.473c-0.289-0.304-0.492-0.673-0.603-1.103
			c-0.112-0.428-0.167-0.843-0.163-1.237h3.042c0.01-0.156-0.012-0.401-0.069-0.729c-0.055-0.326-0.215-0.632-0.476-0.913
			c-0.261-0.278-0.696-0.428-1.299-0.446c-0.746,0.015-1.286,0.256-1.616,0.725c-0.33,0.467-0.49,1.079-0.483,1.832
			c0.01,0.956,0.244,1.669,0.701,2.148c0.454,0.479,1.073,0.717,1.857,0.717c0.285-0.002,0.519-0.019,0.706-0.055
			c0.186-0.039,0.377-0.09,0.578-0.15V56.704z M75.551,53.566c-0.005-0.104,0.026-0.248,0.083-0.432
			c0.061-0.185,0.173-0.352,0.336-0.505c0.162-0.151,0.396-0.231,0.702-0.243c0.307,0.009,0.533,0.076,0.687,0.207
			c0.153,0.132,0.254,0.287,0.304,0.469c0.048,0.181,0.071,0.347,0.067,0.504H75.551z"/>
		<rect x="80.051" y="49.742" fill-rule="evenodd" clip-rule="evenodd" fill="#85959D" width="0.804" height="7.515"/>
		<rect x="82.785" y="49.742" fill-rule="evenodd" clip-rule="evenodd" fill="#85959D" width="0.804" height="7.515"/>
		<path fill-rule="evenodd" clip-rule="evenodd" fill="#85959D" d="M88.949,56.704c-0.146,0.037-0.284,0.074-0.416,0.104
			c-0.129,0.032-0.309,0.045-0.533,0.048c-0.528-0.013-0.939-0.17-1.229-0.473c-0.289-0.304-0.49-0.673-0.603-1.103
			c-0.112-0.428-0.168-0.843-0.163-1.237h3.039c0.012-0.156-0.012-0.401-0.069-0.729C88.92,52.987,88.76,52.682,88.5,52.4
			c-0.261-0.278-0.693-0.428-1.296-0.446c-0.751,0.015-1.291,0.256-1.619,0.725c-0.327,0.467-0.49,1.079-0.483,1.832
			c0.013,0.956,0.247,1.669,0.701,2.148c0.457,0.479,1.076,0.717,1.857,0.717c0.287-0.002,0.524-0.019,0.706-0.055
			c0.185-0.039,0.378-0.09,0.583-0.15V56.704z M86.03,53.566c-0.008-0.104,0.023-0.248,0.083-0.432
			c0.061-0.185,0.17-0.352,0.335-0.505c0.163-0.151,0.395-0.231,0.703-0.243c0.304,0.009,0.533,0.076,0.687,0.207
			c0.15,0.132,0.251,0.287,0.301,0.469c0.051,0.181,0.074,0.347,0.067,0.504H86.03z"/>
		<path fill-rule="evenodd" clip-rule="evenodd" fill="#85959D" d="M90.497,57.257H91.3v-2.222
			c-0.003-0.347,0.055-0.703,0.169-1.072c0.11-0.371,0.282-0.683,0.515-0.942c0.236-0.258,0.533-0.394,0.896-0.403
			c0.234,0.006,0.404,0.075,0.507,0.211c0.101,0.134,0.163,0.298,0.185,0.494c0.023,0.194,0.031,0.39,0.028,0.58v3.354h0.806v-3.943
			c0-0.199-0.038-0.401-0.122-0.609c-0.081-0.206-0.213-0.383-0.396-0.526c-0.185-0.144-0.424-0.218-0.725-0.224
			c-0.505,0.016-0.904,0.168-1.196,0.451C91.675,52.689,91.453,53,91.3,53.348h-0.022v-1.273h-0.781V57.257z"/>
		<path fill-rule="evenodd" clip-rule="evenodd" fill="#85959D" d="M96.912,49.742h-0.806v5.023
			c-0.012,0.296,0.012,0.646,0.077,1.049c0.062,0.404,0.238,0.761,0.527,1.069c0.29,0.313,0.768,0.476,1.431,0.492
			c0.684,0.003,1.22-0.217,1.604-0.659c0.383-0.442,0.581-1.116,0.588-2.018c-0.005-0.842-0.165-1.51-0.487-1.999
			c-0.321-0.489-0.792-0.735-1.409-0.746c-0.303,0.006-0.557,0.073-0.763,0.202c-0.205,0.129-0.365,0.275-0.485,0.438
			c-0.119,0.165-0.205,0.303-0.253,0.418h-0.024V49.742z M96.912,54.84c-0.002-0.329,0.039-0.673,0.12-1.033
			c0.086-0.362,0.222-0.672,0.416-0.931c0.193-0.256,0.454-0.39,0.782-0.399c0.317,0.009,0.562,0.134,0.736,0.366
			c0.174,0.234,0.299,0.526,0.363,0.873c0.069,0.348,0.103,0.693,0.101,1.037c0,0.354-0.036,0.691-0.11,1.01
			c-0.076,0.319-0.213,0.578-0.401,0.779c-0.191,0.203-0.45,0.306-0.784,0.313c-0.345-0.008-0.601-0.113-0.777-0.313
			c-0.178-0.203-0.297-0.456-0.359-0.763C96.936,55.472,96.907,55.158,96.912,54.84z"/>
		<path fill-rule="evenodd" clip-rule="evenodd" fill="#85959D" d="M103.633,57.376c0.771-0.005,1.342-0.237,1.708-0.698
			c0.365-0.461,0.55-1.114,0.547-1.958c0.003-0.839-0.182-1.507-0.547-2.004c-0.366-0.497-0.938-0.749-1.708-0.762
			c-0.768,0.013-1.327,0.265-1.681,0.762c-0.35,0.497-0.523,1.165-0.52,2.004c-0.004,0.844,0.17,1.497,0.52,1.958
			C102.306,57.139,102.866,57.371,103.633,57.376z M102.337,54.751c-0.005-0.385,0.023-0.756,0.091-1.115
			c0.063-0.358,0.188-0.655,0.376-0.887c0.188-0.234,0.464-0.351,0.829-0.362c0.371,0.012,0.653,0.128,0.849,0.362
			c0.196,0.231,0.33,0.528,0.402,0.887c0.071,0.359,0.105,0.73,0.101,1.115c0.005,0.366-0.029,0.711-0.101,1.045
			c-0.072,0.33-0.206,0.604-0.402,0.815c-0.195,0.213-0.478,0.321-0.849,0.332c-0.365-0.011-0.641-0.119-0.829-0.332
			c-0.188-0.211-0.313-0.485-0.376-0.815C102.361,55.462,102.333,55.117,102.337,54.751z"/>
		<path fill-rule="evenodd" clip-rule="evenodd" fill="#85959D" d="M109.798,52.14c-0.107-0.028-0.266-0.064-0.477-0.111
			c-0.213-0.042-0.456-0.07-0.731-0.074c-0.591,0.001-1.03,0.127-1.332,0.373c-0.294,0.243-0.442,0.592-0.444,1.042
			c0.02,0.428,0.17,0.746,0.459,0.955c0.289,0.213,0.603,0.405,0.944,0.581c0.315,0.17,0.579,0.331,0.787,0.482
			c0.21,0.154,0.317,0.354,0.327,0.606c-0.01,0.292-0.117,0.506-0.317,0.641c-0.211,0.132-0.467,0.201-0.772,0.2
			c-0.35-0.017-0.662-0.093-0.938-0.224c-0.275-0.128-0.445-0.22-0.51-0.266v0.814c0.122,0.051,0.299,0.101,0.529,0.145
			c0.229,0.045,0.521,0.069,0.872,0.071c0.679-0.013,1.172-0.168,1.482-0.464c0.309-0.297,0.462-0.653,0.457-1.068
			c-0.005-0.358-0.091-0.645-0.259-0.857c-0.164-0.21-0.377-0.388-0.631-0.529c-0.469-0.255-0.855-0.467-1.169-0.639
			s-0.476-0.405-0.488-0.699c0.007-0.212,0.096-0.37,0.269-0.471c0.177-0.103,0.382-0.152,0.623-0.15
			c0.313,0.01,0.586,0.067,0.823,0.17c0.236,0.102,0.404,0.185,0.495,0.242V52.14z"/>
		<path fill-rule="evenodd" clip-rule="evenodd" fill="#85959D" d="M114.683,56.714c-0.139,0.041-0.268,0.073-0.392,0.101
			c-0.122,0.026-0.285,0.038-0.49,0.041c-0.5-0.01-0.892-0.148-1.182-0.415c-0.289-0.265-0.492-0.592-0.614-0.979
			c-0.125-0.388-0.18-0.773-0.177-1.153c-0.003-0.297,0.028-0.592,0.095-0.883c0.065-0.29,0.185-0.534,0.354-0.73
			c0.167-0.196,0.404-0.299,0.703-0.308c0.299,0.012,0.512,0.09,0.639,0.243c0.129,0.153,0.208,0.327,0.233,0.526
			c0.029,0.198,0.039,0.371,0.036,0.519h0.936c0.005-0.483-0.132-0.888-0.411-1.212c-0.28-0.328-0.739-0.495-1.375-0.509
			c-0.646,0-1.16,0.212-1.535,0.636c-0.378,0.426-0.572,1.063-0.582,1.913c0,0.544,0.08,1.034,0.244,1.468
			c0.165,0.43,0.438,0.771,0.818,1.021c0.38,0.254,0.892,0.38,1.53,0.385c0.228,0,0.433-0.014,0.614-0.048
			c0.182-0.03,0.366-0.075,0.555-0.136V56.714z"/>
		<path fill-rule="evenodd" clip-rule="evenodd" fill="#85959D" d="M116.044,57.257h0.806v-2.298c0-0.328,0.06-0.672,0.179-1.029
			c0.12-0.357,0.295-0.664,0.52-0.917c0.227-0.254,0.504-0.386,0.827-0.396c0.32,0.01,0.538,0.13,0.636,0.358
			c0.101,0.227,0.148,0.496,0.139,0.807v3.475h0.804v-3.833c-0.012-0.52-0.148-0.895-0.409-1.128
			c-0.263-0.232-0.568-0.347-0.918-0.342c-0.358,0.011-0.657,0.11-0.901,0.299c-0.241,0.19-0.433,0.401-0.571,0.638
			c-0.139,0.234-0.232,0.428-0.28,0.575h-0.023v-3.724h-0.806V57.257z"/>
		<path fill-rule="evenodd" clip-rule="evenodd" fill="#85959D" d="M124.784,57.257h1.634c0.215,0.005,0.476-0.004,0.785-0.031
			c0.304-0.028,0.607-0.103,0.911-0.225c0.301-0.126,0.552-0.327,0.756-0.612c0.2-0.282,0.306-0.682,0.313-1.189
			c-0.002-0.41-0.088-0.752-0.254-1.019c-0.162-0.267-0.373-0.47-0.623-0.614c-0.256-0.143-0.518-0.238-0.787-0.286v-0.02
			c0.318-0.048,0.612-0.21,0.883-0.491c0.271-0.281,0.418-0.683,0.438-1.207c-0.02-0.583-0.173-1.004-0.472-1.262
			c-0.294-0.261-0.636-0.421-1.028-0.48c-0.39-0.063-0.737-0.088-1.042-0.078h-1.512V57.257z M125.685,50.342h0.68
			c0.227-0.009,0.461,0.017,0.701,0.069c0.239,0.055,0.442,0.172,0.607,0.352c0.167,0.184,0.251,0.461,0.261,0.843
			c-0.01,0.39-0.098,0.69-0.268,0.896c-0.17,0.203-0.376,0.344-0.615,0.418c-0.242,0.074-0.471,0.107-0.686,0.102h-0.68V50.342z
			 M125.685,53.619h0.68c0.223-0.008,0.473,0.02,0.76,0.077c0.282,0.063,0.536,0.203,0.751,0.426c0.216,0.22,0.328,0.569,0.34,1.045
			c-0.012,0.471-0.124,0.814-0.34,1.027c-0.215,0.211-0.469,0.345-0.751,0.397c-0.288,0.056-0.538,0.077-0.76,0.067h-0.68V53.619z"
			/>
		<path fill-rule="evenodd" clip-rule="evenodd" fill="#85959D" d="M133.789,57.257h0.785v-5.183h-0.809v2.223
			c0.002,0.344-0.045,0.701-0.144,1.071c-0.098,0.37-0.249,0.685-0.452,0.94c-0.2,0.26-0.461,0.396-0.774,0.405
			c-0.231-0.005-0.416-0.076-0.55-0.213c-0.137-0.131-0.236-0.296-0.294-0.492c-0.058-0.194-0.087-0.39-0.084-0.579v-3.355h-0.806
			v3.702c0,0.234,0.043,0.472,0.131,0.716c0.089,0.243,0.223,0.451,0.404,0.621c0.185,0.17,0.421,0.256,0.706,0.263
			c0.342,0.003,0.616-0.035,0.832-0.12c0.215-0.083,0.401-0.227,0.557-0.43c0.153-0.2,0.313-0.479,0.474-0.832h0.023V57.257z"/>
		<path fill-rule="evenodd" clip-rule="evenodd" fill="#85959D" d="M138.899,52.14c-0.107-0.028-0.268-0.064-0.478-0.111
			c-0.216-0.042-0.455-0.07-0.732-0.074c-0.588,0.001-1.033,0.127-1.329,0.373c-0.294,0.243-0.444,0.592-0.444,1.042
			c0.016,0.428,0.169,0.746,0.456,0.955c0.287,0.213,0.603,0.405,0.947,0.581c0.313,0.17,0.578,0.331,0.784,0.482
			c0.21,0.154,0.322,0.354,0.327,0.606c-0.005,0.292-0.114,0.506-0.317,0.641c-0.206,0.132-0.464,0.201-0.772,0.2
			c-0.35-0.017-0.66-0.093-0.938-0.224c-0.275-0.128-0.444-0.22-0.512-0.266v0.814c0.124,0.051,0.304,0.101,0.533,0.145
			c0.228,0.045,0.519,0.069,0.873,0.071c0.677-0.013,1.171-0.168,1.479-0.464c0.312-0.297,0.465-0.653,0.457-1.068
			c-0.005-0.358-0.088-0.645-0.256-0.857c-0.17-0.21-0.38-0.388-0.634-0.529c-0.466-0.255-0.856-0.467-1.167-0.639
			c-0.313-0.172-0.479-0.405-0.492-0.699c0.012-0.212,0.101-0.37,0.272-0.471c0.175-0.103,0.38-0.152,0.624-0.15
			c0.311,0.01,0.584,0.067,0.82,0.17c0.239,0.102,0.404,0.185,0.497,0.242V52.14z"/>
		<path fill-rule="evenodd" clip-rule="evenodd" fill="#85959D" d="M140.449,57.257h0.804v-5.183h-0.804V57.257z M140.396,50.722
			h0.914v-0.979h-0.914V50.722z"/>
		<path fill-rule="evenodd" clip-rule="evenodd" fill="#85959D" d="M143.14,57.257h0.804v-2.222c0-0.347,0.055-0.703,0.169-1.072
			c0.11-0.371,0.284-0.683,0.517-0.942c0.234-0.258,0.535-0.394,0.895-0.403c0.236,0.006,0.406,0.075,0.51,0.211
			c0.1,0.134,0.162,0.298,0.186,0.494c0.02,0.194,0.029,0.39,0.024,0.58v3.354h0.806v-3.943c0.002-0.199-0.038-0.401-0.119-0.609
			c-0.084-0.206-0.216-0.383-0.399-0.526c-0.182-0.144-0.421-0.218-0.72-0.224c-0.51,0.016-0.906,0.168-1.201,0.451
			c-0.291,0.284-0.512,0.595-0.666,0.942h-0.022v-1.273h-0.781V57.257z"/>
		<path fill-rule="evenodd" clip-rule="evenodd" fill="#85959D" d="M152.355,56.704c-0.144,0.037-0.28,0.074-0.412,0.104
			c-0.129,0.032-0.311,0.045-0.535,0.048c-0.528-0.013-0.939-0.17-1.229-0.473c-0.289-0.304-0.489-0.673-0.604-1.103
			c-0.112-0.428-0.163-0.843-0.16-1.237h3.039c0.012-0.156-0.01-0.401-0.069-0.729c-0.055-0.326-0.213-0.632-0.476-0.913
			c-0.264-0.278-0.691-0.428-1.294-0.446c-0.753,0.015-1.291,0.256-1.619,0.725c-0.329,0.467-0.49,1.079-0.482,1.832
			c0.009,0.956,0.241,1.669,0.7,2.148c0.457,0.479,1.074,0.717,1.858,0.717c0.284-0.002,0.517-0.019,0.705-0.055
			c0.185-0.039,0.376-0.09,0.579-0.15V56.704z M149.436,53.566c-0.002-0.104,0.023-0.248,0.086-0.432
			c0.058-0.185,0.17-0.352,0.337-0.505c0.16-0.151,0.395-0.231,0.701-0.243c0.304,0.009,0.533,0.076,0.684,0.207
			c0.153,0.132,0.256,0.287,0.304,0.469c0.05,0.181,0.072,0.347,0.066,0.504H149.436z"/>
		<path fill-rule="evenodd" clip-rule="evenodd" fill="#85959D" d="M156.344,52.14c-0.105-0.028-0.266-0.064-0.479-0.111
			c-0.213-0.042-0.457-0.07-0.731-0.074c-0.589,0.001-1.03,0.127-1.327,0.373c-0.299,0.243-0.447,0.592-0.449,1.042
			c0.019,0.428,0.172,0.746,0.459,0.955c0.287,0.213,0.603,0.405,0.946,0.581c0.315,0.17,0.577,0.331,0.784,0.482
			c0.211,0.154,0.318,0.354,0.328,0.606c-0.01,0.292-0.115,0.506-0.32,0.641c-0.203,0.132-0.462,0.201-0.771,0.2
			c-0.349-0.017-0.659-0.093-0.937-0.224c-0.273-0.128-0.443-0.22-0.51-0.266v0.814c0.124,0.051,0.301,0.101,0.528,0.145
			c0.229,0.045,0.521,0.069,0.875,0.071c0.68-0.013,1.172-0.168,1.48-0.464c0.311-0.297,0.464-0.653,0.459-1.068
			c-0.005-0.358-0.093-0.645-0.258-0.857c-0.168-0.21-0.378-0.388-0.634-0.529c-0.467-0.255-0.854-0.467-1.17-0.639
			c-0.313-0.172-0.476-0.405-0.487-0.699c0.007-0.212,0.096-0.37,0.271-0.471c0.172-0.103,0.38-0.152,0.621-0.15
			c0.311,0.01,0.586,0.067,0.825,0.17c0.234,0.102,0.401,0.185,0.495,0.242V52.14z"/>
		<path fill-rule="evenodd" clip-rule="evenodd" fill="#85959D" d="M160.289,52.14c-0.107-0.028-0.266-0.064-0.479-0.111
			c-0.213-0.042-0.456-0.07-0.729-0.074c-0.591,0.001-1.033,0.127-1.33,0.373c-0.299,0.243-0.447,0.592-0.447,1.042
			c0.017,0.428,0.17,0.746,0.457,0.955c0.287,0.213,0.603,0.405,0.947,0.581c0.313,0.17,0.576,0.331,0.786,0.482
			c0.21,0.154,0.318,0.354,0.327,0.606c-0.009,0.292-0.114,0.506-0.322,0.641c-0.203,0.132-0.461,0.201-0.768,0.2
			c-0.35-0.017-0.662-0.093-0.938-0.224c-0.275-0.128-0.447-0.22-0.512-0.266v0.814c0.125,0.051,0.302,0.101,0.531,0.145
			c0.229,0.045,0.521,0.069,0.875,0.071c0.674-0.013,1.169-0.168,1.48-0.464c0.306-0.297,0.461-0.653,0.456-1.068
			c-0.005-0.358-0.091-0.645-0.258-0.857c-0.167-0.21-0.378-0.388-0.634-0.529c-0.464-0.255-0.854-0.467-1.17-0.639
			c-0.313-0.172-0.473-0.405-0.484-0.699c0.004-0.212,0.098-0.37,0.27-0.471c0.172-0.103,0.378-0.152,0.622-0.15
			c0.311,0.01,0.586,0.067,0.822,0.17c0.239,0.102,0.404,0.185,0.495,0.242V52.14z"/>
		<path fill-rule="evenodd" clip-rule="evenodd" fill="#85959D" d="M168.269,49.81c-0.167-0.037-0.399-0.077-0.708-0.118
			c-0.301-0.042-0.611-0.064-0.916-0.067c-0.729,0.003-1.303,0.169-1.724,0.491c-0.419,0.326-0.632,0.793-0.641,1.402
			c0.009,0.488,0.136,0.878,0.375,1.167c0.241,0.292,0.533,0.521,0.876,0.693c0.377,0.2,0.738,0.388,1.082,0.567
			c0.34,0.177,0.62,0.383,0.835,0.609c0.22,0.229,0.333,0.517,0.34,0.862c-0.005,0.432-0.146,0.759-0.416,0.983
			c-0.275,0.223-0.65,0.333-1.132,0.335c-0.375-0.01-0.729-0.075-1.068-0.191c-0.34-0.119-0.609-0.229-0.815-0.332v0.937
			c0.099,0.033,0.302,0.08,0.61,0.135c0.306,0.058,0.684,0.088,1.133,0.093c0.758,0.004,1.387-0.165,1.885-0.509
			c0.497-0.347,0.753-0.886,0.771-1.624c0-0.474-0.1-0.842-0.301-1.1c-0.203-0.261-0.512-0.521-0.918-0.774
			c-0.34-0.211-0.696-0.404-1.06-0.579s-0.675-0.375-0.928-0.601c-0.256-0.222-0.388-0.514-0.397-0.867
			c0.006-0.328,0.127-0.592,0.364-0.794c0.236-0.201,0.555-0.302,0.951-0.307c0.373,0.007,0.723,0.064,1.048,0.17
			s0.576,0.201,0.753,0.287V49.81z"/>
		<path fill-rule="evenodd" clip-rule="evenodd" fill="#85959D" d="M173.46,56.714c-0.139,0.041-0.271,0.073-0.392,0.101
			c-0.123,0.026-0.285,0.038-0.488,0.041c-0.5-0.01-0.89-0.148-1.182-0.415c-0.289-0.265-0.492-0.592-0.617-0.979
			c-0.119-0.388-0.179-0.773-0.177-1.153c-0.002-0.297,0.031-0.592,0.101-0.883c0.064-0.29,0.182-0.534,0.35-0.73
			c0.17-0.196,0.406-0.299,0.705-0.308c0.299,0.012,0.51,0.09,0.641,0.243c0.125,0.153,0.203,0.327,0.232,0.526
			c0.028,0.198,0.038,0.371,0.035,0.519h0.934c0.007-0.483-0.13-0.888-0.412-1.212c-0.279-0.328-0.736-0.495-1.375-0.509
			c-0.643,0-1.154,0.212-1.532,0.636c-0.378,0.426-0.569,1.063-0.576,1.913c-0.005,0.544,0.073,1.034,0.239,1.468
			c0.164,0.43,0.435,0.771,0.814,1.021c0.383,0.254,0.893,0.38,1.538,0.385c0.223,0,0.428-0.014,0.607-0.048
			c0.185-0.03,0.37-0.075,0.555-0.136V56.714z"/>
		<path fill-rule="evenodd" clip-rule="evenodd" fill="#85959D" d="M174.825,57.257h0.804v-2.298c0-0.328,0.057-0.672,0.18-1.029
			c0.119-0.357,0.291-0.664,0.521-0.917c0.226-0.254,0.5-0.386,0.825-0.396c0.322,0.01,0.535,0.13,0.639,0.358
			c0.098,0.227,0.144,0.496,0.134,0.807v3.475h0.806v-3.833c-0.012-0.52-0.15-0.895-0.411-1.128
			c-0.261-0.232-0.566-0.347-0.916-0.342c-0.358,0.011-0.657,0.11-0.901,0.299c-0.239,0.19-0.431,0.401-0.571,0.638
			c-0.139,0.234-0.234,0.428-0.282,0.575h-0.021v-3.724h-0.804V57.257z"/>
		<path fill-rule="evenodd" clip-rule="evenodd" fill="#85959D" d="M182.408,57.376c0.77-0.005,1.339-0.237,1.705-0.698
			c0.367-0.461,0.55-1.114,0.547-1.958c0.003-0.839-0.18-1.507-0.547-2.004c-0.366-0.497-0.936-0.749-1.705-0.762
			c-0.771,0.013-1.33,0.265-1.682,0.762c-0.354,0.497-0.525,1.165-0.519,2.004c-0.007,0.844,0.165,1.497,0.519,1.958
			C181.078,57.139,181.638,57.371,182.408,57.376z M181.109,54.751c-0.005-0.385,0.026-0.756,0.089-1.115
			c0.066-0.358,0.188-0.655,0.378-0.887c0.188-0.234,0.466-0.351,0.832-0.362c0.37,0.012,0.65,0.128,0.849,0.362
			c0.196,0.231,0.33,0.528,0.399,0.887c0.071,0.359,0.105,0.73,0.103,1.115c0.003,0.366-0.031,0.711-0.103,1.045
			c-0.069,0.33-0.203,0.604-0.399,0.815c-0.198,0.213-0.479,0.321-0.849,0.332c-0.366-0.011-0.644-0.119-0.832-0.332
			c-0.189-0.211-0.312-0.485-0.378-0.815C181.136,55.462,181.104,55.117,181.109,54.751z"/>
		<path fill-rule="evenodd" clip-rule="evenodd" fill="#85959D" d="M187.96,57.376c0.772-0.005,1.345-0.237,1.71-0.698
			c0.366-0.461,0.548-1.114,0.548-1.958c0-0.839-0.182-1.507-0.548-2.004c-0.365-0.497-0.938-0.749-1.71-0.762
			c-0.768,0.013-1.324,0.265-1.679,0.762c-0.349,0.497-0.523,1.165-0.519,2.004c-0.005,0.844,0.17,1.497,0.519,1.958
			C186.636,57.139,187.192,57.371,187.96,57.376z M186.664,54.751c-0.005-0.385,0.026-0.756,0.089-1.115
			c0.066-0.358,0.19-0.655,0.38-0.887c0.187-0.234,0.464-0.351,0.827-0.362c0.373,0.012,0.655,0.128,0.852,0.362
			c0.196,0.231,0.33,0.528,0.401,0.887c0.069,0.359,0.105,0.73,0.104,1.115c0.002,0.366-0.034,0.711-0.104,1.045
			c-0.071,0.33-0.205,0.604-0.401,0.815c-0.196,0.213-0.479,0.321-0.852,0.332c-0.363-0.011-0.641-0.119-0.827-0.332
			c-0.189-0.211-0.313-0.485-0.38-0.815C186.69,55.462,186.659,55.117,186.664,54.751z"/>
		<rect x="191.722" y="49.742" fill-rule="evenodd" clip-rule="evenodd" fill="#85959D" width="0.806" height="7.515"/>
	</g>
</g>
</svg>
