<?xml version="1.0" encoding="utf-8"?>
<!-- Generator: Adobe Illustrator 15.0.0, SVG Export Plug-In . SVG Version: 6.00 Build 0)  -->
<!DOCTYPE svg PUBLIC "-//W3C//DTD SVG 1.1//EN" "http://www.w3.org/Graphics/SVG/1.1/DTD/svg11.dtd">
<svg version="1.1" id="Layer_1" xmlns="http://www.w3.org/2000/svg" xmlns:xlink="http://www.w3.org/1999/xlink" x="0px" y="0px"
	 width="257.82px" height="86.82px" viewBox="0 0 257.82 86.82" enable-background="new 0 0 257.82 86.82" xml:space="preserve">
<g>
	<rect fill-rule="evenodd" clip-rule="evenodd" fill="#292723" width="257.82" height="86.82"/>
	<g>
		<g>
			<polygon fill-rule="evenodd" clip-rule="evenodd" fill="#FFFFFF" points="19.585,56.541 24,56.541 24,55.783 20.652,55.783 
				20.652,52.266 23.704,52.266 23.704,51.533 20.652,51.533 20.652,48.363 23.871,48.363 23.871,47.654 19.585,47.654 			"/>
			<polygon fill-rule="evenodd" clip-rule="evenodd" fill="#FFFFFF" points="24.603,56.541 25.646,56.541 27.281,54.043 
				28.955,56.541 30.102,56.541 27.938,53.338 29.867,50.412 28.852,50.412 27.436,52.563 26.005,50.412 24.859,50.412 
				26.766,53.283 			"/>
			<path fill-rule="evenodd" clip-rule="evenodd" fill="#FFFFFF" d="M35.382,55.885c-0.171,0.049-0.333,0.09-0.487,0.125
				c-0.156,0.035-0.367,0.055-0.632,0.057c-0.628-0.016-1.109-0.203-1.454-0.563c-0.346-0.359-0.583-0.791-0.715-1.299
				c-0.136-0.508-0.197-0.996-0.191-1.463h3.594c0.014-0.188-0.014-0.477-0.081-0.863c-0.065-0.389-0.255-0.748-0.563-1.078
				c-0.312-0.332-0.821-0.508-1.533-0.529c-0.885,0.018-1.522,0.301-1.912,0.854c-0.389,0.555-0.579,1.279-0.571,2.172
				c0.011,1.127,0.288,1.973,0.828,2.537c0.537,0.566,1.272,0.848,2.199,0.848c0.335,0,0.612-0.023,0.831-0.068
				s0.447-0.102,0.688-0.176V55.885z M31.928,52.176c-0.003-0.123,0.029-0.291,0.103-0.51c0.069-0.217,0.202-0.414,0.396-0.596
				c0.193-0.18,0.471-0.273,0.83-0.287c0.36,0.008,0.631,0.09,0.812,0.246c0.18,0.152,0.3,0.338,0.358,0.553
				c0.058,0.211,0.084,0.41,0.08,0.594H31.928z"/>
			<path fill-rule="evenodd" clip-rule="evenodd" fill="#FFFFFF" d="M41.072,55.898c-0.163,0.047-0.317,0.084-0.462,0.117
				c-0.146,0.033-0.339,0.049-0.579,0.051c-0.59-0.012-1.055-0.178-1.395-0.49c-0.341-0.314-0.585-0.701-0.729-1.16
				c-0.145-0.459-0.215-0.914-0.209-1.363c-0.003-0.35,0.033-0.697,0.114-1.041c0.078-0.346,0.216-0.633,0.415-0.867
				c0.199-0.23,0.479-0.35,0.836-0.361c0.349,0.012,0.6,0.107,0.754,0.287c0.15,0.182,0.242,0.389,0.274,0.623
				c0.035,0.234,0.048,0.439,0.041,0.611h1.105c0.008-0.568-0.153-1.047-0.484-1.432c-0.332-0.387-0.874-0.586-1.627-0.602
				c-0.763,0-1.367,0.252-1.813,0.752c-0.447,0.502-0.675,1.254-0.684,2.26c-0.005,0.646,0.088,1.225,0.285,1.734
				c0.193,0.51,0.515,0.914,0.963,1.211c0.451,0.295,1.055,0.447,1.816,0.453c0.265,0,0.507-0.018,0.721-0.057
				c0.217-0.037,0.436-0.09,0.655-0.16V55.898z"/>
			<path fill-rule="evenodd" clip-rule="evenodd" fill="#FFFFFF" d="M46.2,56.541h0.924v-6.129h-0.95v2.625
				c0.002,0.412-0.055,0.834-0.173,1.27c-0.114,0.438-0.291,0.809-0.53,1.113c-0.24,0.305-0.548,0.465-0.919,0.479
				c-0.276-0.006-0.491-0.09-0.65-0.248c-0.164-0.16-0.278-0.355-0.344-0.586c-0.07-0.23-0.105-0.461-0.104-0.688v-3.965h-0.95
				v4.379c-0.002,0.273,0.051,0.555,0.156,0.846c0.103,0.287,0.261,0.533,0.479,0.732c0.218,0.201,0.494,0.303,0.832,0.313
				c0.401,0.004,0.729-0.043,0.985-0.143c0.254-0.1,0.473-0.27,0.654-0.508c0.185-0.238,0.373-0.564,0.564-0.984H46.2V56.541z"/>
			<path fill-rule="evenodd" clip-rule="evenodd" fill="#FFFFFF" d="M52.292,55.988c-0.055,0.02-0.128,0.037-0.212,0.053
				c-0.088,0.016-0.209,0.025-0.368,0.025c-0.505-0.014-0.815-0.164-0.929-0.445c-0.112-0.281-0.154-0.609-0.128-0.986v-3.633h1.675
				v-0.59h-1.675v-2.033l-0.95,0.584v1.449h-1.081v0.59h1.081v4.137c-0.01,0.549,0.138,0.945,0.436,1.186
				c0.299,0.244,0.763,0.363,1.391,0.357c0.125,0,0.245,0,0.361-0.006c0.116-0.004,0.248-0.02,0.399-0.047V55.988z"/>
			<path fill-rule="evenodd" clip-rule="evenodd" fill="#FFFFFF" d="M53.7,56.541h0.951v-6.129H53.7V56.541z M53.633,48.814h1.082
				v-1.16h-1.082V48.814z"/>
			<polygon fill-rule="evenodd" clip-rule="evenodd" fill="#FFFFFF" points="58.258,56.541 59.144,56.541 61.346,50.412 
				60.419,50.412 58.746,55.254 56.879,50.412 55.824,50.412 			"/>
			<path fill-rule="evenodd" clip-rule="evenodd" fill="#FFFFFF" d="M66.582,55.885c-0.171,0.049-0.333,0.09-0.486,0.125
				c-0.156,0.035-0.366,0.055-0.634,0.057c-0.625-0.016-1.108-0.203-1.452-0.563c-0.345-0.359-0.582-0.791-0.717-1.299
				c-0.134-0.508-0.193-0.996-0.188-1.463h3.593c0.014-0.188-0.013-0.477-0.082-0.863c-0.064-0.389-0.254-0.748-0.563-1.078
				c-0.31-0.332-0.821-0.508-1.531-0.529c-0.887,0.018-1.524,0.301-1.913,0.854c-0.391,0.555-0.581,1.279-0.571,2.172
				c0.012,1.127,0.287,1.973,0.827,2.537c0.538,0.566,1.271,0.848,2.199,0.848c0.336,0,0.614-0.023,0.83-0.068
				c0.22-0.045,0.449-0.102,0.688-0.176V55.885z M63.131,52.176c-0.006-0.123,0.028-0.291,0.101-0.51
				c0.069-0.217,0.201-0.414,0.396-0.596c0.193-0.18,0.469-0.273,0.83-0.287c0.36,0.008,0.63,0.09,0.81,0.246
				c0.182,0.152,0.302,0.338,0.358,0.553c0.061,0.211,0.087,0.41,0.082,0.594H63.131z"/>
			<path fill-rule="evenodd" clip-rule="evenodd" fill="#FFFFFF" d="M71.683,56.541h1.468c0.905,0.016,1.689-0.09,2.347-0.316
				c0.661-0.223,1.168-0.662,1.526-1.313c0.357-0.65,0.539-1.605,0.544-2.865c-0.001-1.113-0.161-1.99-0.481-2.633
				c-0.32-0.641-0.796-1.098-1.432-1.365c-0.634-0.27-1.422-0.4-2.361-0.395h-1.61V56.541z M72.752,48.363h0.67
				c0.665-0.012,1.219,0.088,1.664,0.297c0.445,0.207,0.78,0.588,1.004,1.143c0.222,0.555,0.333,1.344,0.333,2.373
				c0.013,1.254-0.208,2.172-0.669,2.75s-1.238,0.865-2.332,0.857h-0.67V48.363z"/>
			<path fill-rule="evenodd" clip-rule="evenodd" fill="#FFFFFF" d="M83.352,55.885c-0.169,0.049-0.33,0.09-0.485,0.125
				c-0.157,0.035-0.367,0.055-0.632,0.057c-0.627-0.016-1.111-0.203-1.453-0.563c-0.345-0.359-0.581-0.791-0.715-1.299
				c-0.135-0.508-0.198-0.996-0.192-1.463h3.595c0.015-0.188-0.015-0.477-0.082-0.863c-0.066-0.389-0.254-0.748-0.563-1.078
				c-0.309-0.332-0.82-0.508-1.532-0.529c-0.887,0.018-1.524,0.301-1.912,0.854c-0.39,0.555-0.58,1.279-0.572,2.172
				c0.012,1.127,0.286,1.973,0.827,2.537c0.541,0.566,1.271,0.848,2.2,0.848c0.334,0,0.612-0.023,0.832-0.068
				c0.219-0.045,0.445-0.102,0.685-0.176V55.885z M79.901,52.176c-0.005-0.123,0.029-0.291,0.1-0.51
				c0.071-0.217,0.204-0.414,0.396-0.596c0.194-0.18,0.472-0.273,0.832-0.287c0.359,0.008,0.63,0.09,0.81,0.246
				c0.181,0.152,0.301,0.338,0.359,0.553c0.058,0.211,0.086,0.41,0.081,0.594H79.901z"/>
			<polygon fill-rule="evenodd" clip-rule="evenodd" fill="#FFFFFF" points="86.561,56.541 87.449,56.541 89.65,50.412 
				88.723,50.412 87.05,55.254 85.184,50.412 84.127,50.412 			"/>
			<path fill-rule="evenodd" clip-rule="evenodd" fill="#FFFFFF" d="M94.886,55.885c-0.171,0.049-0.332,0.09-0.486,0.125
				c-0.158,0.035-0.368,0.055-0.634,0.057c-0.626-0.016-1.109-0.203-1.454-0.563c-0.343-0.359-0.58-0.791-0.714-1.299
				s-0.195-0.996-0.19-1.463H95c0.014-0.188-0.014-0.477-0.081-0.863c-0.065-0.389-0.256-0.748-0.563-1.078
				c-0.31-0.332-0.82-0.508-1.531-0.529c-0.887,0.018-1.525,0.301-1.914,0.854c-0.389,0.555-0.578,1.279-0.57,2.172
				c0.01,1.127,0.288,1.973,0.827,2.537c0.539,0.566,1.271,0.848,2.198,0.848c0.337,0,0.615-0.023,0.833-0.068
				c0.219-0.045,0.446-0.102,0.688-0.176V55.885z M91.433,52.176c-0.002-0.123,0.031-0.291,0.102-0.51
				c0.07-0.217,0.203-0.414,0.395-0.596c0.192-0.18,0.47-0.273,0.831-0.287c0.36,0.008,0.631,0.09,0.811,0.246
				c0.18,0.152,0.303,0.338,0.359,0.553c0.059,0.211,0.084,0.41,0.079,0.594H91.433z"/>
			<rect x="96.624" y="47.654" fill-rule="evenodd" clip-rule="evenodd" fill="#FFFFFF" width="0.95" height="8.887"/>
			<path fill-rule="evenodd" clip-rule="evenodd" fill="#FFFFFF" d="M101.851,56.682c0.913-0.006,1.587-0.281,2.02-0.826
				c0.434-0.545,0.649-1.314,0.646-2.316c0.004-0.992-0.212-1.781-0.646-2.369c-0.433-0.584-1.106-0.885-2.02-0.898
				c-0.908,0.014-1.571,0.314-1.985,0.898c-0.414,0.588-0.62,1.377-0.614,2.369c-0.006,1.002,0.2,1.771,0.614,2.316
				S100.942,56.676,101.851,56.682z M100.317,53.58c-0.005-0.459,0.031-0.898,0.106-1.322c0.076-0.422,0.224-0.771,0.446-1.047
				s0.55-0.416,0.98-0.428c0.438,0.012,0.771,0.152,1.006,0.428c0.231,0.275,0.389,0.625,0.474,1.047
				c0.085,0.424,0.124,0.863,0.12,1.322c0.004,0.43-0.035,0.842-0.12,1.23c-0.085,0.395-0.242,0.715-0.474,0.967
				c-0.235,0.254-0.567,0.383-1.006,0.393c-0.431-0.01-0.758-0.139-0.98-0.393c-0.223-0.252-0.37-0.572-0.446-0.967
				C100.349,54.422,100.313,54.01,100.317,53.58z"/>
			<path fill-rule="evenodd" clip-rule="evenodd" fill="#FFFFFF" d="M106.128,59.297h0.951v-3.85h0.024
				c0.046,0.137,0.124,0.301,0.238,0.492c0.112,0.191,0.28,0.359,0.503,0.51c0.225,0.146,0.521,0.225,0.896,0.232
				c0.527-0.006,0.952-0.15,1.279-0.432c0.324-0.277,0.563-0.652,0.714-1.123s0.224-0.996,0.223-1.572
				c0.001-0.98-0.174-1.773-0.526-2.365c-0.351-0.598-0.892-0.9-1.624-0.918c-0.332,0.006-0.614,0.09-0.85,0.242
				c-0.238,0.156-0.427,0.336-0.569,0.539c-0.139,0.205-0.236,0.383-0.283,0.543h-0.024v-1.184h-0.951V59.297z M107.079,53.424
				c0.001-0.424,0.066-0.828,0.193-1.213c0.125-0.383,0.302-0.699,0.521-0.943c0.222-0.246,0.479-0.371,0.769-0.381
				c0.443,0.016,0.776,0.27,0.997,0.76c0.221,0.486,0.328,1.119,0.328,1.895c0.004,0.393-0.031,0.779-0.107,1.164
				s-0.207,0.705-0.401,0.961c-0.19,0.258-0.459,0.391-0.805,0.4c-0.378-0.016-0.679-0.18-0.897-0.486s-0.372-0.664-0.464-1.068
				C107.12,54.104,107.076,53.74,107.079,53.424z"/>
			<path fill-rule="evenodd" clip-rule="evenodd" fill="#FFFFFF" d="M112.569,56.541h0.949v-2.627
				c-0.001-0.408,0.055-0.832,0.168-1.268c0.112-0.438,0.286-0.811,0.519-1.115c0.234-0.305,0.533-0.463,0.898-0.477
				c0.279,0.008,0.477,0.09,0.6,0.248c0.119,0.16,0.193,0.355,0.22,0.586c0.026,0.232,0.037,0.461,0.033,0.686v3.967h0.95v-2.758
				c-0.001-0.348,0.053-0.732,0.163-1.152c0.111-0.42,0.282-0.783,0.513-1.09c0.232-0.309,0.532-0.471,0.895-0.486
				c0.282,0.01,0.485,0.09,0.608,0.248s0.198,0.342,0.224,0.551c0.027,0.211,0.038,0.4,0.033,0.566v4.121h0.952v-4.547
				c0-0.512-0.123-0.924-0.368-1.238c-0.247-0.314-0.617-0.477-1.113-0.484c-0.389,0.014-0.715,0.119-0.974,0.32
				c-0.261,0.205-0.464,0.43-0.613,0.682c-0.146,0.25-0.242,0.451-0.294,0.605h-0.025c0.001-0.232-0.047-0.477-0.145-0.719
				c-0.095-0.248-0.253-0.453-0.468-0.625c-0.216-0.168-0.5-0.258-0.855-0.264c-0.528,0.02-0.942,0.197-1.24,0.533
				c-0.297,0.336-0.527,0.705-0.68,1.113h-0.024v-1.506h-0.925V56.541z"/>
			<path fill-rule="evenodd" clip-rule="evenodd" fill="#FFFFFF" d="M126.437,55.885c-0.169,0.049-0.331,0.09-0.486,0.125
				s-0.366,0.055-0.632,0.057c-0.625-0.016-1.111-0.203-1.454-0.563c-0.345-0.359-0.58-0.791-0.712-1.299
				c-0.135-0.508-0.199-0.996-0.193-1.463h3.595c0.013-0.188-0.015-0.477-0.081-0.863c-0.067-0.389-0.257-0.748-0.565-1.078
				c-0.308-0.332-0.818-0.508-1.53-0.529c-0.887,0.018-1.525,0.301-1.914,0.854c-0.389,0.555-0.579,1.279-0.569,2.172
				c0.01,1.127,0.285,1.973,0.825,2.537c0.539,0.566,1.272,0.848,2.199,0.848c0.337,0,0.613-0.023,0.834-0.068
				c0.216-0.045,0.444-0.102,0.685-0.176V55.885z M122.985,52.176c-0.004-0.123,0.029-0.291,0.1-0.51
				c0.071-0.217,0.204-0.414,0.397-0.596c0.192-0.18,0.472-0.273,0.83-0.287c0.36,0.008,0.631,0.09,0.81,0.246
				c0.18,0.152,0.301,0.338,0.359,0.553c0.059,0.211,0.087,0.41,0.083,0.594H122.985z"/>
			<path fill-rule="evenodd" clip-rule="evenodd" fill="#FFFFFF" d="M128.137,56.541h0.951v-2.627c0-0.408,0.067-0.832,0.199-1.268
				c0.133-0.438,0.338-0.811,0.613-1.115c0.276-0.305,0.63-0.463,1.058-0.477c0.278,0.008,0.478,0.09,0.599,0.248
				c0.123,0.16,0.193,0.355,0.219,0.586c0.028,0.232,0.039,0.461,0.034,0.686v3.967h0.95v-4.662
				c0.001-0.232-0.045-0.477-0.143-0.719c-0.097-0.248-0.253-0.453-0.469-0.625c-0.215-0.168-0.502-0.258-0.856-0.264
				c-0.597,0.02-1.067,0.197-1.414,0.533c-0.345,0.336-0.608,0.705-0.79,1.113h-0.023v-1.506h-0.928V56.541z"/>
			<path fill-rule="evenodd" clip-rule="evenodd" fill="#FFFFFF" d="M137.876,55.988c-0.057,0.02-0.125,0.037-0.213,0.053
				s-0.21,0.025-0.368,0.025c-0.507-0.014-0.816-0.164-0.928-0.445c-0.113-0.281-0.154-0.609-0.128-0.986v-3.633h1.674v-0.59h-1.674
				v-2.033l-0.95,0.584v1.449h-1.082v0.59h1.082v4.137c-0.01,0.549,0.137,0.945,0.435,1.186c0.298,0.244,0.763,0.363,1.392,0.357
				c0.125,0,0.245,0,0.362-0.006c0.113-0.004,0.249-0.02,0.398-0.047V55.988z"/>
			<polygon fill-rule="evenodd" clip-rule="evenodd" fill="#FFFFFF" points="142.632,56.541 146.815,56.541 146.815,55.783 
				143.698,55.783 143.698,47.654 142.632,47.654 			"/>
			<path fill-rule="evenodd" clip-rule="evenodd" fill="#FFFFFF" d="M150.901,55.988c-0.056,0.02-0.127,0.037-0.215,0.053
				s-0.21,0.025-0.366,0.025c-0.509-0.014-0.816-0.164-0.929-0.445s-0.154-0.609-0.126-0.986v-3.633h1.673v-0.59h-1.673v-2.033
				l-0.952,0.584v1.449h-1.083v0.59h1.083v4.137c-0.01,0.549,0.136,0.945,0.437,1.186c0.298,0.244,0.762,0.363,1.391,0.357
				c0.125,0,0.243,0,0.359-0.006c0.118-0.004,0.248-0.02,0.401-0.047V55.988z"/>
			<path fill-rule="evenodd" clip-rule="evenodd" fill="#FFFFFF" d="M155.694,56.541h0.95v-8.887h-0.95v3.852h-0.026
				c-0.041-0.133-0.121-0.295-0.235-0.488c-0.112-0.189-0.282-0.359-0.508-0.51c-0.226-0.148-0.526-0.229-0.903-0.236
				c-0.516,0.006-0.936,0.154-1.261,0.445c-0.323,0.289-0.563,0.676-0.715,1.16c-0.153,0.484-0.229,1.021-0.228,1.611
				c-0.007,0.555,0.051,1.074,0.17,1.555c0.12,0.482,0.33,0.875,0.634,1.174c0.3,0.303,0.724,0.455,1.269,0.465
				c0.376-0.01,0.688-0.092,0.937-0.252c0.248-0.16,0.438-0.34,0.576-0.545c0.134-0.205,0.225-0.381,0.265-0.527h0.026V56.541z
				 M152.884,53.555c-0.001-0.441,0.036-0.859,0.114-1.268c0.08-0.4,0.214-0.734,0.404-0.996c0.189-0.258,0.451-0.395,0.782-0.404
				c0.382,0.018,0.682,0.178,0.901,0.482c0.222,0.303,0.378,0.645,0.471,1.029c0.094,0.383,0.141,0.707,0.138,0.961
				c-0.007,0.783-0.149,1.422-0.435,1.916c-0.283,0.492-0.666,0.75-1.152,0.764c-0.321-0.008-0.571-0.135-0.75-0.379
				c-0.179-0.242-0.305-0.553-0.372-0.932C152.915,54.354,152.883,53.961,152.884,53.555z"/>
		</g>
		<g>
			<path fill-rule="evenodd" clip-rule="evenodd" fill="#FFFFFF" d="M35.681,23.479v12.154c0,1.242-0.064,2.285-0.188,3.133
				c-0.123,0.844-0.412,1.637-0.867,2.377c-0.454,0.742-1.163,1.33-2.127,1.766c-0.965,0.432-2.232,0.65-3.802,0.65
				c-1.671,0-3.031-0.262-4.083-0.781c-1.051-0.521-1.809-1.279-2.272-2.277c-0.464-1-0.694-2.254-0.694-3.762v-9.385
				c0-0.877-0.048-1.48-0.144-1.805c-0.097-0.324-0.317-0.549-0.669-0.672c-0.347-0.127-1.058-0.26-2.13-0.402V23.83l6.171-0.672
				v12.127c0,1.117,0.027,2.025,0.078,2.721c0.054,0.699,0.215,1.379,0.48,2.043c0.269,0.666,0.691,1.188,1.277,1.564
				c0.585,0.375,1.366,0.564,2.353,0.564c1.079,0,1.933-0.174,2.559-0.521c0.627-0.35,1.073-0.809,1.342-1.379
				c0.268-0.568,0.434-1.182,0.501-1.842c0.069-0.66,0.102-1.486,0.102-2.48V23.479H35.681z"/>
			<path fill-rule="evenodd" clip-rule="evenodd" fill="#FFFFFF" d="M51.168,23.688v2.182c-0.574-0.295-1.333-0.594-2.284-0.889
				c-0.95-0.297-1.937-0.443-2.956-0.443c-0.832,0-1.509,0.242-2.035,0.73c-0.525,0.486-0.786,1.193-0.786,2.117
				c0,0.984,0.349,1.75,1.052,2.293c0.701,0.545,1.871,1.244,3.502,2.098c1.633,0.855,2.874,1.715,3.718,2.58
				c0.846,0.863,1.269,2.002,1.269,3.416c0,1.969-0.682,3.424-2.043,4.369c-1.36,0.945-3.135,1.418-5.322,1.418
				c-0.624,0-1.294-0.049-2.016-0.143c-0.72-0.094-1.352-0.203-1.892-0.32c-0.54-0.119-0.954-0.221-1.24-0.307v-2.371
				c2.033,1.172,3.906,1.76,5.615,1.76c1.07,0,1.95-0.264,2.636-0.787c0.688-0.525,1.032-1.406,1.032-2.639
				c0-1.051-0.375-1.881-1.125-2.488c-0.747-0.604-1.927-1.332-3.529-2.178c-1.605-0.846-2.821-1.688-3.647-2.529
				c-0.825-0.842-1.239-1.947-1.239-3.326c0-1.07,0.263-1.984,0.787-2.746c0.527-0.758,1.282-1.336,2.271-1.732
				c0.991-0.398,2.174-0.594,3.549-0.594c0.458,0,0.907,0.016,1.346,0.049s0.907,0.084,1.398,0.15
				c0.492,0.066,0.92,0.133,1.289,0.201C50.883,23.625,51.101,23.67,51.168,23.688z"/>
			<path fill-rule="evenodd" clip-rule="evenodd" fill="#FFFFFF" d="M56.731,43.232v-15.77c0-1.066-0.047-1.783-0.135-2.148
				c-0.092-0.361-0.304-0.613-0.639-0.744c-0.334-0.135-1.003-0.281-2.007-0.443v-0.648h8.708c4.639,0,6.96,1.584,6.96,4.748
				c0,2.207-1.174,3.697-3.514,4.473v0.057c1.287,0.25,2.362,0.762,3.223,1.535c0.857,0.775,1.29,2,1.29,3.682
				c0,1.225-0.298,2.207-0.897,2.947c-0.596,0.742-1.33,1.271-2.196,1.592c-0.87,0.322-1.73,0.521-2.575,0.604
				c-0.846,0.078-1.746,0.117-2.699,0.117H56.731z M59.96,26.377v5.732h1.968c1.389,0,2.477-0.281,3.271-0.846
				c0.794-0.564,1.19-1.521,1.19-2.877c0-1.283-0.345-2.189-1.033-2.725c-0.689-0.535-1.735-0.803-3.142-0.803
				c-0.938,0-1.55,0.08-1.83,0.244C60.102,25.266,59.96,25.689,59.96,26.377z M59.96,33.488v7.164c0,0.545,0.218,0.879,0.653,1.01
				c0.437,0.129,1.153,0.193,2.158,0.193c1.615,0,2.788-0.363,3.52-1.09c0.732-0.725,1.098-1.842,1.098-3.352
				c0-1.365-0.442-2.361-1.327-2.986s-2.028-0.939-3.436-0.939H59.96z"/>
		</g>
		<g>
			<path fill-rule="evenodd" clip-rule="evenodd" fill="#FFFFFF" d="M74.267,34.93c0-4.443,8.543-8.047,8.543-8.047
				s3.453,1.451,5.968,3.652c-1.442,1.262-2.579,2.77-2.579,4.389c0,1.621,1.137,3.129,2.579,4.391
				c-2.515,2.203-5.968,3.66-5.968,3.66S74.267,39.373,74.267,34.93z"/>
			<path fill-rule="evenodd" clip-rule="evenodd" fill="#FFFFFF" d="M94.734,26.881c0,0,3.453,1.457,5.971,3.66
				c-1.439,1.26-2.571,2.768-2.571,4.383c0,1.621,1.137,3.129,2.577,4.391c-2.514,2.205-5.977,3.658-5.977,3.658
				s-3.448-1.459-5.963-3.66c1.443-1.262,2.582-2.77,2.582-4.391s-1.139-3.127-2.582-4.391
				C91.286,28.334,94.734,26.881,94.734,26.881z"/>
			<path fill-rule="evenodd" clip-rule="evenodd" fill="#FFFFFF" d="M100.716,30.535c2.515-2.199,5.964-3.652,5.964-3.652
				s8.547,3.604,8.547,8.047s-8.547,8.045-8.547,8.045s-3.446-1.459-5.964-3.66c1.443-1.262,2.581-2.77,2.581-4.391
				C103.297,33.305,102.159,31.797,100.716,30.535z"/>
			<g>
				<circle fill-rule="evenodd" clip-rule="evenodd" fill="#FFFFFF" cx="95.07" cy="20.539" r="2.684"/>
				<circle fill-rule="evenodd" clip-rule="evenodd" fill="#FFFFFF" cx="83.136" cy="20.641" r="2.686"/>
				<circle fill-rule="evenodd" clip-rule="evenodd" fill="#FFFFFF" cx="107.006" cy="20.654" r="2.684"/>
			</g>
		</g>
		<g>
			<path fill-rule="evenodd" clip-rule="evenodd" fill="#FFFFFF" d="M24.282,62.281h-0.821v4.236
				c0.009,0.309-0.006,0.633-0.05,0.963c-0.043,0.332-0.166,0.615-0.369,0.848c-0.198,0.232-0.53,0.354-0.992,0.363
				c-0.471-0.01-0.806-0.131-1.009-0.363s-0.326-0.516-0.372-0.848c-0.045-0.33-0.062-0.654-0.053-0.963v-4.236h-0.818v4.256
				c-0.016,0.357,0.013,0.74,0.081,1.148c0.07,0.41,0.261,0.762,0.576,1.057c0.316,0.295,0.837,0.447,1.563,0.461
				c0.74-0.014,1.271-0.166,1.594-0.461c0.32-0.295,0.514-0.646,0.586-1.057c0.067-0.408,0.097-0.791,0.084-1.148V62.281z"/>
			<path fill-rule="evenodd" clip-rule="evenodd" fill="#FFFFFF" d="M25.945,69.096h0.729V67.08
				c-0.001-0.313,0.052-0.639,0.151-0.973c0.104-0.334,0.26-0.621,0.471-0.855c0.213-0.232,0.483-0.355,0.811-0.365
				c0.213,0.008,0.366,0.068,0.46,0.191c0.094,0.121,0.147,0.271,0.17,0.447c0.018,0.18,0.028,0.354,0.024,0.527v3.043h0.729V65.52
				c0-0.18-0.035-0.365-0.11-0.553c-0.075-0.189-0.193-0.348-0.359-0.479c-0.167-0.129-0.384-0.199-0.657-0.203
				c-0.456,0.016-0.82,0.152-1.086,0.41c-0.265,0.256-0.465,0.541-0.604,0.854h-0.021v-1.154h-0.709V69.096z"/>
			<path fill-rule="evenodd" clip-rule="evenodd" fill="#FFFFFF" d="M31.205,69.096h0.728v-4.701h-0.728V69.096z M31.154,63.17
				h0.828v-0.889h-0.828V63.17z"/>
			<polygon fill-rule="evenodd" clip-rule="evenodd" fill="#FFFFFF" points="34.797,69.096 35.479,69.096 37.168,64.395 
				36.458,64.395 35.172,68.109 33.739,64.395 32.93,64.395 			"/>
			<path fill-rule="evenodd" clip-rule="evenodd" fill="#FFFFFF" d="M41.28,68.592c-0.129,0.037-0.254,0.068-0.373,0.096
				c-0.118,0.027-0.279,0.043-0.484,0.043c-0.479-0.012-0.85-0.154-1.116-0.43c-0.262-0.275-0.445-0.607-0.545-0.998
				c-0.104-0.389-0.152-0.764-0.146-1.121h2.754c0.012-0.145-0.01-0.365-0.061-0.662c-0.052-0.297-0.196-0.574-0.433-0.83
				c-0.237-0.252-0.629-0.387-1.175-0.404c-0.68,0.014-1.17,0.232-1.469,0.658c-0.296,0.424-0.445,0.977-0.438,1.664
				c0.01,0.865,0.222,1.512,0.635,1.947c0.413,0.434,0.975,0.648,1.688,0.648c0.258,0,0.47-0.018,0.639-0.053
				c0.167-0.035,0.342-0.078,0.524-0.135V68.592z M38.635,65.748c-0.004-0.096,0.022-0.227,0.076-0.393
				c0.055-0.166,0.154-0.318,0.304-0.459c0.148-0.135,0.361-0.209,0.638-0.217c0.275,0.006,0.483,0.066,0.622,0.186
				c0.136,0.119,0.229,0.262,0.275,0.426c0.045,0.164,0.065,0.314,0.061,0.457H38.635z"/>
			<path fill-rule="evenodd" clip-rule="evenodd" fill="#FFFFFF" d="M42.686,69.096h0.729v-2.223
				c-0.004-0.293,0.036-0.57,0.117-0.828c0.078-0.266,0.213-0.48,0.408-0.643c0.194-0.166,0.459-0.254,0.798-0.26h0.208v-0.857
				c-0.253,0.004-0.48,0.074-0.677,0.203c-0.202,0.131-0.37,0.289-0.51,0.477s-0.248,0.369-0.324,0.545h-0.021v-1.115h-0.729V69.096
				z"/>
			<path fill-rule="evenodd" clip-rule="evenodd" fill="#FFFFFF" d="M48.137,64.453c-0.094-0.023-0.24-0.059-0.431-0.098
				c-0.192-0.041-0.413-0.066-0.664-0.07c-0.534,0.002-0.934,0.115-1.204,0.338c-0.27,0.223-0.406,0.539-0.406,0.945
				c0.017,0.387,0.154,0.676,0.413,0.869c0.264,0.189,0.55,0.365,0.86,0.525c0.284,0.152,0.522,0.299,0.713,0.438
				c0.191,0.137,0.289,0.32,0.296,0.549c-0.007,0.266-0.103,0.459-0.289,0.582c-0.188,0.121-0.42,0.182-0.697,0.182
				c-0.319-0.018-0.603-0.082-0.852-0.203c-0.249-0.119-0.402-0.199-0.462-0.244v0.738c0.111,0.051,0.271,0.092,0.48,0.135
				c0.209,0.041,0.472,0.063,0.791,0.064c0.616-0.012,1.063-0.152,1.343-0.42c0.281-0.27,0.42-0.594,0.417-0.971
				c-0.006-0.326-0.083-0.582-0.234-0.777c-0.15-0.191-0.344-0.35-0.576-0.479c-0.419-0.23-0.773-0.426-1.061-0.582
				c-0.281-0.154-0.431-0.367-0.439-0.633c0.006-0.193,0.086-0.334,0.242-0.426c0.158-0.094,0.347-0.139,0.566-0.139
				c0.283,0.012,0.53,0.063,0.746,0.156c0.216,0.092,0.363,0.166,0.447,0.221V64.453z"/>
			<path fill-rule="evenodd" clip-rule="evenodd" fill="#FFFFFF" d="M49.545,69.096h0.729v-4.701h-0.729V69.096z M49.496,63.17
				h0.827v-0.889h-0.827V63.17z"/>
			<path fill-rule="evenodd" clip-rule="evenodd" fill="#FFFFFF" d="M54.335,68.672c-0.044,0.016-0.098,0.029-0.164,0.041
				c-0.065,0.01-0.16,0.018-0.281,0.018c-0.39-0.01-0.626-0.125-0.714-0.342c-0.085-0.215-0.118-0.467-0.098-0.756v-2.785h1.287
				v-0.453h-1.287v-1.563l-0.729,0.449v1.113h-0.829v0.453h0.829v3.172c-0.006,0.42,0.106,0.725,0.335,0.912
				c0.229,0.184,0.583,0.275,1.067,0.271c0.095,0,0.188,0,0.276-0.002c0.089-0.008,0.189-0.018,0.307-0.037V68.672z"/>
			<polygon fill-rule="evenodd" clip-rule="evenodd" fill="#FFFFFF" points="55.966,70.982 56.63,70.982 59.021,64.395 
				58.279,64.395 56.993,68.09 55.563,64.395 54.741,64.395 56.607,69.125 			"/>
			<path fill-rule="evenodd" clip-rule="evenodd" fill="#FFFFFF" d="M64.29,69.203c0.699-0.002,1.214-0.215,1.549-0.635
				c0.333-0.418,0.497-1.008,0.495-1.773c0.002-0.762-0.162-1.367-0.495-1.818c-0.335-0.449-0.85-0.68-1.549-0.691
				c-0.698,0.012-1.208,0.242-1.524,0.691c-0.318,0.451-0.476,1.057-0.471,1.818c-0.005,0.766,0.152,1.355,0.471,1.773
				C63.082,68.988,63.592,69.201,64.29,69.203z M63.114,66.824c-0.006-0.352,0.021-0.688,0.08-1.014
				c0.058-0.326,0.171-0.594,0.342-0.803c0.171-0.213,0.421-0.322,0.754-0.328c0.336,0.006,0.591,0.115,0.77,0.328
				c0.178,0.209,0.3,0.477,0.366,0.803c0.062,0.326,0.094,0.662,0.089,1.014c0.005,0.328-0.027,0.645-0.089,0.945
				c-0.066,0.301-0.188,0.547-0.366,0.74c-0.179,0.193-0.434,0.293-0.77,0.299c-0.333-0.006-0.583-0.105-0.754-0.299
				s-0.284-0.439-0.342-0.74C63.136,67.469,63.108,67.152,63.114,66.824z"/>
			<path fill-rule="evenodd" clip-rule="evenodd" fill="#FFFFFF" d="M68.064,69.096h0.729v-4.248h1.362v-0.453h-1.362v-0.572
				c-0.014-0.26,0.034-0.502,0.151-0.73c0.112-0.23,0.382-0.354,0.808-0.371c0.162,0.004,0.304,0.027,0.425,0.07
				c0.122,0.039,0.232,0.084,0.337,0.129v-0.582c-0.088-0.016-0.195-0.033-0.324-0.055c-0.127-0.02-0.285-0.031-0.476-0.031
				c-0.494,0.004-0.858,0.09-1.095,0.26c-0.239,0.168-0.391,0.393-0.463,0.67c-0.068,0.275-0.101,0.578-0.092,0.906v0.307h-0.87
				v0.453h0.87V69.096z"/>
			<path fill-rule="evenodd" clip-rule="evenodd" fill="#FFFFFF" d="M77.025,62.338c-0.148-0.031-0.36-0.066-0.64-0.105
				c-0.275-0.039-0.553-0.057-0.831-0.061c-0.661,0.002-1.181,0.15-1.561,0.447c-0.38,0.295-0.573,0.717-0.582,1.271
				c0.01,0.441,0.123,0.795,0.34,1.059c0.219,0.264,0.483,0.473,0.795,0.629c0.343,0.178,0.668,0.35,0.978,0.514
				c0.31,0.16,0.565,0.346,0.763,0.553c0.196,0.207,0.299,0.469,0.304,0.783c-0.004,0.391-0.13,0.686-0.376,0.889
				c-0.25,0.201-0.593,0.305-1.027,0.307c-0.338-0.01-0.661-0.068-0.968-0.174c-0.308-0.109-0.554-0.209-0.74-0.301v0.848
				c0.089,0.031,0.273,0.072,0.554,0.123c0.278,0.051,0.622,0.082,1.027,0.084c0.688,0.002,1.258-0.15,1.709-0.461
				c0.45-0.316,0.684-0.805,0.701-1.473c0-0.43-0.093-0.764-0.275-1c-0.184-0.234-0.46-0.469-0.831-0.701
				c-0.309-0.189-0.63-0.365-0.961-0.523c-0.331-0.162-0.612-0.342-0.845-0.545c-0.229-0.201-0.35-0.467-0.359-0.789
				c0.005-0.297,0.116-0.535,0.332-0.717c0.215-0.182,0.502-0.275,0.864-0.279c0.339,0.006,0.655,0.059,0.948,0.154
				c0.294,0.094,0.522,0.182,0.682,0.26V62.338z"/>
			<path fill-rule="evenodd" clip-rule="evenodd" fill="#FFFFFF" d="M81.023,68.672c-0.042,0.016-0.097,0.029-0.162,0.041
				c-0.065,0.01-0.161,0.018-0.281,0.018c-0.389-0.01-0.626-0.125-0.713-0.342c-0.085-0.215-0.119-0.467-0.098-0.756v-2.785h1.285
				v-0.453H79.77v-1.563l-0.729,0.449v1.113h-0.829v0.453h0.829v3.172c-0.005,0.42,0.104,0.725,0.335,0.912
				c0.229,0.184,0.584,0.275,1.067,0.271c0.095,0,0.188,0,0.275-0.002c0.091-0.008,0.19-0.018,0.306-0.037V68.672z"/>
			<path fill-rule="evenodd" clip-rule="evenodd" fill="#FFFFFF" d="M85.303,68.592c-0.13,0.037-0.253,0.068-0.372,0.096
				s-0.281,0.043-0.486,0.043c-0.479-0.012-0.849-0.154-1.115-0.43c-0.263-0.275-0.443-0.607-0.547-0.998
				c-0.102-0.389-0.149-0.764-0.146-1.121h2.758c0.009-0.145-0.012-0.365-0.063-0.662c-0.05-0.297-0.195-0.574-0.431-0.83
				c-0.237-0.252-0.631-0.387-1.174-0.404c-0.683,0.014-1.172,0.232-1.472,0.658c-0.296,0.424-0.443,0.977-0.437,1.664
				c0.01,0.865,0.221,1.512,0.636,1.947c0.413,0.434,0.975,0.648,1.686,0.648c0.258,0,0.472-0.018,0.64-0.053
				c0.165-0.035,0.343-0.078,0.524-0.135V68.592z M82.656,65.748c-0.004-0.096,0.021-0.227,0.077-0.393
				c0.053-0.166,0.154-0.318,0.302-0.459c0.149-0.135,0.361-0.209,0.64-0.217c0.274,0.006,0.483,0.066,0.62,0.186
				c0.139,0.119,0.231,0.262,0.276,0.426c0.044,0.164,0.064,0.314,0.063,0.457H82.656z"/>
			<rect x="86.735" y="62.281" fill-rule="evenodd" clip-rule="evenodd" fill="#FFFFFF" width="0.732" height="6.814"/>
			<rect x="89.216" y="62.281" fill-rule="evenodd" clip-rule="evenodd" fill="#FFFFFF" width="0.73" height="6.814"/>
			<path fill-rule="evenodd" clip-rule="evenodd" fill="#FFFFFF" d="M94.807,68.592c-0.132,0.037-0.256,0.068-0.377,0.096
				c-0.117,0.027-0.277,0.043-0.481,0.043c-0.482-0.012-0.852-0.154-1.117-0.43c-0.263-0.275-0.444-0.607-0.547-0.998
				c-0.102-0.389-0.152-0.764-0.147-1.121h2.757c0.011-0.145-0.008-0.365-0.063-0.662c-0.051-0.297-0.193-0.574-0.432-0.83
				c-0.238-0.252-0.628-0.387-1.175-0.404c-0.68,0.014-1.17,0.232-1.469,0.658c-0.296,0.424-0.443,0.977-0.437,1.664
				c0.01,0.865,0.22,1.512,0.635,1.947c0.413,0.434,0.976,0.648,1.687,0.648c0.26,0,0.472-0.018,0.638-0.053
				c0.169-0.035,0.343-0.078,0.528-0.135V68.592z M92.156,65.748c-0.002-0.096,0.024-0.227,0.076-0.393
				c0.057-0.166,0.16-0.318,0.306-0.459c0.147-0.135,0.36-0.209,0.638-0.217c0.277,0.006,0.485,0.066,0.622,0.186
				c0.138,0.119,0.23,0.262,0.275,0.426s0.065,0.314,0.063,0.457H92.156z"/>
			<path fill-rule="evenodd" clip-rule="evenodd" fill="#FFFFFF" d="M96.209,69.096h0.73V67.08c-0.001-0.313,0.05-0.639,0.153-0.973
				c0.101-0.334,0.258-0.621,0.469-0.855c0.212-0.232,0.482-0.355,0.811-0.365c0.215,0.008,0.368,0.068,0.461,0.191
				c0.091,0.121,0.147,0.271,0.169,0.447c0.018,0.18,0.026,0.354,0.023,0.527v3.043h0.727V65.52c0.003-0.18-0.033-0.365-0.107-0.553
				c-0.074-0.189-0.193-0.348-0.359-0.479c-0.166-0.129-0.383-0.199-0.654-0.203c-0.46,0.016-0.821,0.152-1.088,0.41
				c-0.264,0.256-0.467,0.541-0.604,0.854h-0.021v-1.154h-0.71V69.096z"/>
			<path fill-rule="evenodd" clip-rule="evenodd" fill="#FFFFFF" d="M102.03,62.281h-0.732v4.553
				c-0.01,0.27,0.013,0.586,0.069,0.953c0.056,0.363,0.215,0.689,0.478,0.973c0.265,0.281,0.696,0.43,1.302,0.443
				c0.617,0.002,1.103-0.199,1.453-0.598c0.349-0.4,0.523-1.012,0.529-1.832c-0.001-0.764-0.146-1.369-0.438-1.811
				c-0.29-0.441-0.719-0.668-1.278-0.678c-0.277,0.004-0.505,0.068-0.691,0.184c-0.185,0.119-0.334,0.248-0.443,0.398
				c-0.107,0.148-0.183,0.273-0.229,0.377h-0.018V62.281z M102.03,66.902c-0.003-0.295,0.033-0.611,0.108-0.939
				c0.076-0.326,0.201-0.607,0.376-0.838c0.176-0.232,0.412-0.355,0.71-0.365c0.287,0.008,0.51,0.117,0.668,0.332
				c0.158,0.213,0.269,0.477,0.329,0.791c0.063,0.314,0.093,0.629,0.09,0.941c0.003,0.322-0.032,0.627-0.102,0.916
				c-0.067,0.287-0.188,0.523-0.361,0.707c-0.171,0.184-0.409,0.275-0.714,0.283c-0.31-0.008-0.545-0.1-0.705-0.285
				c-0.159-0.184-0.266-0.414-0.321-0.689C102.052,67.479,102.024,67.193,102.03,66.902z"/>
			<path fill-rule="evenodd" clip-rule="evenodd" fill="#FFFFFF" d="M108.125,69.203c0.699-0.002,1.214-0.215,1.549-0.635
				c0.333-0.418,0.497-1.008,0.496-1.773c0.001-0.762-0.163-1.367-0.496-1.818c-0.335-0.449-0.85-0.68-1.549-0.691
				c-0.698,0.012-1.205,0.242-1.523,0.691c-0.32,0.451-0.477,1.057-0.473,1.818c-0.004,0.766,0.152,1.355,0.473,1.773
				C106.92,68.988,107.427,69.201,108.125,69.203z M106.947,66.824c-0.004-0.352,0.023-0.688,0.082-1.014s0.172-0.594,0.342-0.803
				c0.172-0.213,0.422-0.322,0.754-0.328c0.333,0.006,0.592,0.115,0.77,0.328c0.177,0.209,0.298,0.477,0.362,0.803
				c0.066,0.326,0.097,0.662,0.093,1.014c0.004,0.328-0.026,0.645-0.093,0.945c-0.064,0.301-0.186,0.547-0.362,0.74
				c-0.178,0.193-0.437,0.293-0.77,0.299c-0.332-0.006-0.582-0.105-0.754-0.299c-0.17-0.193-0.283-0.439-0.342-0.74
				S106.943,67.152,106.947,66.824z"/>
			<path fill-rule="evenodd" clip-rule="evenodd" fill="#FFFFFF" d="M113.716,64.453c-0.095-0.023-0.242-0.059-0.433-0.098
				c-0.192-0.041-0.413-0.066-0.664-0.07c-0.532,0.002-0.936,0.115-1.205,0.338c-0.269,0.223-0.404,0.539-0.404,0.945
				c0.018,0.387,0.153,0.676,0.415,0.869c0.26,0.189,0.547,0.365,0.858,0.525c0.286,0.152,0.521,0.299,0.713,0.438
				c0.189,0.137,0.289,0.32,0.294,0.549c-0.005,0.266-0.103,0.459-0.287,0.582c-0.188,0.121-0.422,0.182-0.7,0.182
				c-0.315-0.018-0.6-0.082-0.85-0.203c-0.249-0.119-0.404-0.199-0.464-0.244v0.738c0.113,0.051,0.272,0.092,0.483,0.135
				c0.206,0.041,0.472,0.063,0.791,0.064c0.613-0.012,1.061-0.152,1.343-0.42c0.282-0.27,0.42-0.594,0.415-0.971
				c-0.007-0.326-0.082-0.582-0.234-0.777c-0.152-0.191-0.342-0.35-0.574-0.479c-0.422-0.23-0.773-0.426-1.061-0.582
				c-0.283-0.154-0.431-0.367-0.44-0.633c0.005-0.193,0.087-0.334,0.244-0.426c0.157-0.094,0.347-0.139,0.564-0.139
				c0.283,0.012,0.531,0.063,0.747,0.156c0.213,0.092,0.363,0.166,0.448,0.221V64.453z"/>
			<path fill-rule="evenodd" clip-rule="evenodd" fill="#FFFFFF" d="M118.145,68.605c-0.128,0.033-0.243,0.063-0.356,0.088
				c-0.108,0.023-0.259,0.037-0.444,0.037c-0.45-0.01-0.807-0.135-1.068-0.377c-0.262-0.24-0.448-0.535-0.558-0.887
				c-0.112-0.352-0.165-0.703-0.163-1.049c-0.002-0.268,0.025-0.533,0.088-0.797c0.062-0.266,0.166-0.486,0.32-0.666
				c0.151-0.178,0.365-0.27,0.641-0.275c0.268,0.006,0.46,0.08,0.577,0.217c0.117,0.141,0.188,0.299,0.212,0.48
				c0.024,0.18,0.036,0.336,0.031,0.467h0.849c0.004-0.438-0.119-0.801-0.374-1.098c-0.252-0.297-0.668-0.447-1.247-0.461
				c-0.584,0-1.048,0.193-1.389,0.578c-0.345,0.385-0.52,0.963-0.526,1.734c-0.003,0.494,0.069,0.938,0.219,1.328
				c0.148,0.391,0.396,0.703,0.741,0.93s0.808,0.346,1.392,0.348c0.204,0,0.388-0.014,0.557-0.043
				c0.162-0.027,0.331-0.068,0.5-0.123V68.605z"/>
			<path fill-rule="evenodd" clip-rule="evenodd" fill="#FFFFFF" d="M119.38,69.096h0.729V67.01
				c0.001-0.297,0.055-0.605,0.163-0.932c0.109-0.324,0.266-0.602,0.471-0.832c0.207-0.229,0.458-0.35,0.751-0.359
				c0.293,0.01,0.484,0.119,0.577,0.324c0.089,0.207,0.133,0.451,0.123,0.732v3.152h0.73v-3.479
				c-0.012-0.471-0.135-0.809-0.374-1.021c-0.234-0.209-0.512-0.314-0.831-0.311c-0.325,0.012-0.597,0.104-0.815,0.271
				c-0.22,0.172-0.391,0.365-0.519,0.578c-0.125,0.215-0.212,0.387-0.257,0.523h-0.02v-3.377h-0.729V69.096z"/>
			<path fill-rule="evenodd" clip-rule="evenodd" fill="#FFFFFF" d="M127.305,69.096h1.481c0.194,0.004,0.433-0.004,0.71-0.029
				c0.276-0.025,0.552-0.094,0.826-0.205c0.273-0.111,0.502-0.297,0.685-0.555c0.186-0.256,0.279-0.617,0.288-1.076
				c-0.005-0.375-0.083-0.684-0.232-0.924c-0.146-0.24-0.338-0.428-0.565-0.559c-0.231-0.131-0.466-0.217-0.714-0.258v-0.02
				c0.289-0.043,0.555-0.191,0.802-0.445c0.248-0.254,0.378-0.619,0.393-1.096c-0.013-0.525-0.154-0.908-0.421-1.141
				c-0.268-0.236-0.581-0.383-0.936-0.439c-0.354-0.055-0.669-0.078-0.943-0.068h-1.373V69.096z M128.125,62.824h0.611
				c0.208-0.008,0.42,0.014,0.638,0.061c0.217,0.051,0.401,0.156,0.551,0.322c0.15,0.164,0.229,0.416,0.234,0.762
				c-0.006,0.354-0.087,0.625-0.239,0.811c-0.156,0.188-0.34,0.314-0.561,0.381c-0.216,0.064-0.426,0.098-0.623,0.092h-0.611V62.824
				z M128.125,65.795h0.611c0.202-0.006,0.433,0.018,0.692,0.072c0.257,0.055,0.485,0.182,0.68,0.383
				c0.194,0.203,0.3,0.52,0.308,0.949c-0.008,0.428-0.113,0.736-0.308,0.93c-0.194,0.195-0.423,0.314-0.68,0.363
				c-0.26,0.047-0.49,0.068-0.692,0.061h-0.611V65.795z"/>
			<path fill-rule="evenodd" clip-rule="evenodd" fill="#FFFFFF" d="M135.471,69.096h0.71v-4.701h-0.729v2.014
				c0.002,0.314-0.043,0.639-0.132,0.975c-0.087,0.334-0.224,0.619-0.408,0.854c-0.184,0.232-0.419,0.355-0.706,0.369
				c-0.208-0.008-0.377-0.072-0.496-0.193c-0.126-0.121-0.213-0.271-0.266-0.447c-0.054-0.18-0.078-0.355-0.076-0.529v-3.041h-0.73
				v3.357c0,0.213,0.04,0.426,0.118,0.65c0.078,0.221,0.2,0.408,0.37,0.561c0.165,0.154,0.377,0.236,0.637,0.24
				c0.309,0.002,0.56-0.033,0.754-0.109c0.196-0.074,0.361-0.205,0.504-0.387c0.142-0.186,0.285-0.438,0.432-0.758h0.02V69.096z"/>
			<path fill-rule="evenodd" clip-rule="evenodd" fill="#FFFFFF" d="M140.106,64.453c-0.097-0.023-0.242-0.059-0.432-0.098
				c-0.194-0.041-0.415-0.066-0.666-0.07c-0.533,0.002-0.937,0.115-1.204,0.338c-0.271,0.223-0.404,0.539-0.404,0.945
				c0.015,0.387,0.153,0.676,0.412,0.869c0.262,0.189,0.548,0.365,0.861,0.525c0.285,0.152,0.52,0.299,0.711,0.438
				c0.19,0.137,0.29,0.32,0.298,0.549c-0.008,0.266-0.106,0.459-0.291,0.582c-0.188,0.121-0.42,0.182-0.698,0.182
				c-0.316-0.018-0.6-0.082-0.851-0.203c-0.249-0.119-0.403-0.199-0.463-0.244v0.738c0.113,0.051,0.272,0.092,0.48,0.135
				c0.209,0.041,0.474,0.063,0.793,0.064c0.613-0.012,1.06-0.152,1.343-0.42c0.28-0.27,0.42-0.594,0.414-0.971
				c-0.006-0.326-0.081-0.582-0.231-0.777c-0.153-0.191-0.344-0.35-0.575-0.479c-0.422-0.23-0.774-0.426-1.061-0.582
				c-0.285-0.154-0.432-0.367-0.442-0.633c0.006-0.193,0.089-0.334,0.245-0.426c0.156-0.094,0.345-0.139,0.566-0.139
				c0.281,0.012,0.529,0.063,0.744,0.156c0.215,0.092,0.366,0.166,0.45,0.221V64.453z"/>
			<path fill-rule="evenodd" clip-rule="evenodd" fill="#FFFFFF" d="M141.513,69.096h0.729v-4.701h-0.729V69.096z M141.462,63.17
				h0.829v-0.889h-0.829V63.17z"/>
			<path fill-rule="evenodd" clip-rule="evenodd" fill="#FFFFFF" d="M143.951,69.096h0.729V67.08c0-0.313,0.05-0.639,0.151-0.973
				c0.103-0.334,0.258-0.621,0.473-0.855c0.211-0.232,0.48-0.355,0.809-0.365c0.215,0.008,0.367,0.068,0.46,0.191
				c0.093,0.121,0.147,0.271,0.168,0.447c0.02,0.18,0.029,0.354,0.025,0.527v3.043h0.731V65.52c0-0.18-0.036-0.365-0.11-0.553
				c-0.076-0.189-0.193-0.348-0.36-0.479c-0.167-0.129-0.385-0.199-0.654-0.203c-0.461,0.016-0.823,0.152-1.087,0.41
				c-0.269,0.256-0.469,0.541-0.605,0.854h-0.021v-1.154h-0.708V69.096z"/>
			<path fill-rule="evenodd" clip-rule="evenodd" fill="#FFFFFF" d="M152.309,68.592c-0.13,0.037-0.253,0.068-0.375,0.096
				c-0.116,0.027-0.278,0.043-0.485,0.043c-0.479-0.012-0.85-0.154-1.113-0.43c-0.263-0.275-0.446-0.607-0.549-0.998
				c-0.101-0.389-0.149-0.764-0.146-1.121h2.758c0.011-0.145-0.011-0.365-0.062-0.662c-0.053-0.297-0.196-0.574-0.435-0.83
				c-0.236-0.252-0.628-0.387-1.174-0.404c-0.682,0.014-1.171,0.232-1.467,0.658c-0.301,0.424-0.447,0.977-0.438,1.664
				c0.01,0.865,0.22,1.512,0.636,1.947c0.411,0.434,0.975,0.648,1.684,0.648c0.261,0,0.472-0.018,0.641-0.053
				c0.168-0.035,0.343-0.078,0.525-0.135V68.592z M149.66,65.748c-0.003-0.096,0.023-0.227,0.078-0.393
				c0.057-0.166,0.155-0.318,0.305-0.459c0.146-0.135,0.359-0.209,0.637-0.217c0.275,0.006,0.482,0.066,0.623,0.186
				c0.139,0.119,0.229,0.262,0.273,0.426c0.044,0.164,0.066,0.314,0.062,0.457H149.66z"/>
			<path fill-rule="evenodd" clip-rule="evenodd" fill="#FFFFFF" d="M155.927,64.453c-0.099-0.023-0.245-0.059-0.434-0.098
				c-0.193-0.041-0.414-0.066-0.665-0.07c-0.533,0.002-0.936,0.115-1.204,0.338s-0.404,0.539-0.406,0.945
				c0.017,0.387,0.155,0.676,0.417,0.869c0.258,0.189,0.545,0.365,0.855,0.525c0.285,0.152,0.522,0.299,0.715,0.438
				c0.189,0.137,0.288,0.32,0.297,0.549c-0.009,0.266-0.104,0.459-0.292,0.582c-0.188,0.121-0.418,0.182-0.696,0.182
				c-0.318-0.018-0.602-0.082-0.851-0.203c-0.251-0.119-0.404-0.199-0.464-0.244v0.738c0.113,0.051,0.273,0.092,0.48,0.135
				c0.209,0.041,0.473,0.063,0.793,0.064c0.613-0.012,1.063-0.152,1.345-0.42c0.278-0.27,0.418-0.594,0.414-0.971
				c-0.005-0.326-0.084-0.582-0.234-0.777c-0.15-0.191-0.343-0.35-0.576-0.479c-0.419-0.23-0.773-0.426-1.057-0.582
				c-0.286-0.154-0.433-0.367-0.446-0.633c0.009-0.193,0.09-0.334,0.248-0.426c0.153-0.094,0.346-0.139,0.563-0.139
				c0.283,0.012,0.532,0.063,0.747,0.156c0.215,0.092,0.365,0.166,0.45,0.221V64.453z"/>
			<path fill-rule="evenodd" clip-rule="evenodd" fill="#FFFFFF" d="M159.504,64.453c-0.097-0.023-0.241-0.059-0.434-0.098
				c-0.192-0.041-0.412-0.066-0.662-0.07c-0.534,0.002-0.937,0.115-1.206,0.338c-0.269,0.223-0.403,0.539-0.403,0.945
				c0.016,0.387,0.152,0.676,0.413,0.869c0.26,0.189,0.549,0.365,0.86,0.525c0.283,0.152,0.52,0.299,0.71,0.438
				c0.191,0.137,0.29,0.32,0.297,0.549c-0.007,0.266-0.104,0.459-0.289,0.582c-0.188,0.121-0.419,0.182-0.699,0.182
				c-0.317-0.018-0.6-0.082-0.851-0.203c-0.246-0.119-0.402-0.199-0.462-0.244v0.738c0.111,0.051,0.27,0.092,0.482,0.135
				c0.206,0.041,0.471,0.063,0.79,0.064c0.615-0.012,1.063-0.152,1.342-0.42c0.282-0.27,0.42-0.594,0.417-0.971
				c-0.004-0.326-0.083-0.582-0.236-0.777c-0.149-0.191-0.341-0.35-0.572-0.479c-0.422-0.23-0.774-0.426-1.06-0.582
				c-0.283-0.154-0.432-0.367-0.443-0.633c0.006-0.193,0.088-0.334,0.245-0.426c0.157-0.094,0.346-0.139,0.565-0.139
				c0.281,0.012,0.531,0.063,0.746,0.156c0.216,0.092,0.364,0.166,0.449,0.221V64.453z"/>
			<path fill-rule="evenodd" clip-rule="evenodd" fill="#FFFFFF" d="M166.74,62.338c-0.15-0.031-0.363-0.066-0.642-0.105
				c-0.277-0.039-0.555-0.057-0.831-0.061c-0.661,0.002-1.182,0.15-1.561,0.447c-0.383,0.295-0.575,0.717-0.583,1.271
				c0.009,0.441,0.122,0.795,0.343,1.059c0.217,0.264,0.48,0.473,0.792,0.629c0.343,0.178,0.668,0.35,0.978,0.514
				c0.311,0.16,0.565,0.346,0.762,0.553s0.302,0.469,0.307,0.783c-0.003,0.391-0.131,0.686-0.38,0.889
				c-0.248,0.201-0.589,0.305-1.023,0.307c-0.338-0.01-0.659-0.068-0.97-0.174c-0.308-0.109-0.554-0.209-0.74-0.301v0.848
				c0.089,0.031,0.276,0.072,0.554,0.123c0.278,0.051,0.623,0.082,1.026,0.084c0.69,0.002,1.26-0.15,1.711-0.461
				c0.448-0.316,0.684-0.805,0.699-1.473c0-0.43-0.091-0.764-0.272-1c-0.187-0.234-0.461-0.469-0.833-0.701
				c-0.309-0.189-0.631-0.365-0.96-0.523c-0.33-0.162-0.611-0.342-0.841-0.545c-0.231-0.201-0.352-0.467-0.361-0.789
				c0.006-0.297,0.114-0.535,0.33-0.717s0.504-0.275,0.866-0.279c0.335,0.006,0.655,0.059,0.946,0.154
				c0.295,0.094,0.523,0.182,0.684,0.26V62.338z"/>
			<path fill-rule="evenodd" clip-rule="evenodd" fill="#FFFFFF" d="M171.449,68.605c-0.128,0.033-0.246,0.063-0.356,0.088
				c-0.109,0.023-0.258,0.037-0.442,0.037c-0.453-0.01-0.81-0.135-1.07-0.377c-0.263-0.24-0.448-0.535-0.561-0.887
				c-0.108-0.352-0.161-0.703-0.158-1.049c-0.003-0.268,0.026-0.533,0.086-0.797c0.063-0.266,0.167-0.486,0.319-0.666
				c0.152-0.178,0.366-0.27,0.642-0.275c0.27,0.006,0.46,0.08,0.576,0.217c0.118,0.141,0.188,0.299,0.213,0.48
				c0.029,0.18,0.036,0.336,0.03,0.467h0.849c0.006-0.438-0.118-0.801-0.373-1.098c-0.254-0.297-0.667-0.447-1.245-0.461
				c-0.588,0-1.05,0.193-1.393,0.578s-0.517,0.963-0.525,1.734c-0.001,0.494,0.071,0.938,0.221,1.328
				c0.148,0.391,0.396,0.703,0.739,0.93c0.346,0.227,0.811,0.346,1.393,0.348c0.204,0,0.389-0.014,0.553-0.043
				c0.168-0.027,0.335-0.068,0.504-0.123V68.605z"/>
			<path fill-rule="evenodd" clip-rule="evenodd" fill="#FFFFFF" d="M172.686,69.096h0.73V67.01c0-0.297,0.055-0.605,0.161-0.932
				c0.108-0.324,0.265-0.602,0.471-0.832c0.207-0.229,0.457-0.35,0.75-0.359c0.293,0.01,0.486,0.119,0.578,0.324
				c0.092,0.207,0.132,0.451,0.125,0.732v3.152h0.73v-3.479c-0.014-0.471-0.138-0.809-0.374-1.021
				c-0.236-0.209-0.514-0.314-0.833-0.311c-0.323,0.012-0.596,0.104-0.817,0.271c-0.218,0.172-0.389,0.365-0.517,0.578
				c-0.126,0.215-0.212,0.387-0.257,0.523h-0.018v-3.377h-0.73V69.096z"/>
			<path fill-rule="evenodd" clip-rule="evenodd" fill="#FFFFFF" d="M179.561,69.203c0.699-0.002,1.217-0.215,1.549-0.635
				c0.334-0.418,0.499-1.008,0.496-1.773c0.003-0.762-0.162-1.367-0.496-1.818c-0.332-0.449-0.85-0.68-1.549-0.691
				c-0.695,0.012-1.203,0.242-1.522,0.691c-0.318,0.451-0.477,1.057-0.472,1.818c-0.005,0.766,0.153,1.355,0.472,1.773
				C178.357,68.988,178.865,69.201,179.561,69.203z M178.385,66.824c-0.004-0.352,0.024-0.688,0.08-1.014
				c0.06-0.326,0.173-0.594,0.345-0.803c0.169-0.213,0.421-0.322,0.751-0.328c0.336,0.006,0.595,0.115,0.772,0.328
				c0.178,0.209,0.299,0.477,0.362,0.803c0.064,0.326,0.095,0.662,0.092,1.014c0.003,0.328-0.027,0.645-0.092,0.945
				c-0.063,0.301-0.185,0.547-0.362,0.74s-0.437,0.293-0.772,0.299c-0.33-0.006-0.582-0.105-0.751-0.299
				c-0.172-0.193-0.285-0.439-0.345-0.74C178.409,67.469,178.381,67.152,178.385,66.824z"/>
			<path fill-rule="evenodd" clip-rule="evenodd" fill="#FFFFFF" d="M184.599,69.203c0.699-0.002,1.216-0.215,1.551-0.635
				c0.332-0.418,0.498-1.008,0.495-1.773c0.003-0.762-0.163-1.367-0.495-1.818c-0.335-0.449-0.852-0.68-1.551-0.691
				c-0.695,0.012-1.205,0.242-1.523,0.691c-0.317,0.451-0.476,1.057-0.472,1.818c-0.004,0.766,0.154,1.355,0.472,1.773
				C183.394,68.988,183.903,69.201,184.599,69.203z M183.424,66.824c-0.005-0.352,0.022-0.688,0.08-1.014
				c0.059-0.326,0.174-0.594,0.342-0.803c0.171-0.213,0.421-0.322,0.753-0.328c0.337,0.006,0.595,0.115,0.772,0.328
				c0.177,0.209,0.298,0.477,0.362,0.803c0.066,0.326,0.096,0.662,0.093,1.014c0.003,0.328-0.026,0.645-0.093,0.945
				c-0.064,0.301-0.186,0.547-0.362,0.74c-0.178,0.193-0.436,0.293-0.772,0.299c-0.332-0.006-0.582-0.105-0.753-0.299
				c-0.168-0.193-0.283-0.439-0.342-0.74C183.446,67.469,183.419,67.152,183.424,66.824z"/>
			<rect x="188.009" y="62.281" fill-rule="evenodd" clip-rule="evenodd" fill="#FFFFFF" width="0.729" height="6.814"/>
		</g>
	</g>
</g>
</svg>
