<?xml version="1.0" encoding="utf-8"?>
<!-- Generator: Adobe Illustrator 15.0.0, SVG Export Plug-In . SVG Version: 6.00 Build 0)  -->
<!DOCTYPE svg PUBLIC "-//W3C//DTD SVG 1.1//EN" "http://www.w3.org/Graphics/SVG/1.1/DTD/svg11.dtd">
<svg version="1.1" id="Layer_1" xmlns="http://www.w3.org/2000/svg" xmlns:xlink="http://www.w3.org/1999/xlink" x="0px" y="0px"
	 width="197px" height="60.094px" viewBox="0 0 197 60.094" enable-background="new 0 0 197 60.094" xml:space="preserve">
<g>
	<g>
		<g>
			<defs>
				<rect id="SVGID_1_" x="0.91" y="5.017" width="195.181" height="47.64"/>
			</defs>
			<clipPath id="SVGID_2_">
				<use xlink:href="#SVGID_1_"  overflow="visible"/>
			</clipPath>
			<path clip-path="url(#SVGID_2_)" fill="#86959D" d="M21.439,11.905h-2.558v15.266c0,3.628,0,7.617-5.434,7.617
				c-5.078,0-5.078-4.347-5.078-8.442V11.509l-7.46,0.827v0.79c3.445,0.467,3.551,0.504,3.551,3.521V28.14
				c0,5.355,2.273,8.336,8.525,8.336c8.029,0,8.454-4.888,8.454-9.701V11.905z"/>
		</g>
		<g>
			<defs>
				<rect id="SVGID_3_" x="0.91" y="5.017" width="195.181" height="47.64"/>
			</defs>
			<clipPath id="SVGID_4_">
				<use xlink:href="#SVGID_3_"  overflow="visible"/>
			</clipPath>
			<path clip-path="url(#SVGID_4_)" fill="#86959D" d="M40.196,12.156c-0.921-0.18-3.232-0.647-5.683-0.647
				c-5.007,0-7.992,2.264-7.992,6.215c0,7.58,11.542,7.041,11.542,12.86c0,3.269-2.2,4.203-4.438,4.203
				c-2.842,0-5.684-1.508-6.785-2.156v2.91c0.746,0.18,3.48,0.936,6.217,0.936c4.9,0,8.915-1.941,8.915-7.079
				c0-7.686-11.543-7.183-11.543-12.715c0-2.371,1.526-3.484,3.409-3.484c2.771,0,5.399,1.148,6.357,1.617L40.196,12.156
				L40.196,12.156z"/>
		</g>
		<g>
			<defs>
				<rect id="SVGID_5_" x="0.91" y="5.017" width="195.181" height="47.64"/>
			</defs>
			<clipPath id="SVGID_6_">
				<use xlink:href="#SVGID_5_"  overflow="visible"/>
			</clipPath>
			<path clip-path="url(#SVGID_6_)" fill="#86959D" d="M50.821,24.154h3.231c3.127,0,5.754,1.257,5.754,4.813
				c0,3.665-1.667,5.422-5.575,5.422c-1.954,0-3.41,0-3.41-1.471V24.154z M50.821,15.461c0-1.761,0.604-1.869,2.734-1.869
				c3.234,0,5.043,1.079,5.043,4.313c0,3.556-2.344,4.561-5.398,4.561h-2.379V15.461z M46.914,36.081h6.679
				c2.912,0,10.124,0,10.124-6.431c0-4.562-2.95-5.892-5.47-6.395v-0.071c1.74-0.575,4.262-1.939,4.262-5.46
				c0-4.85-4.333-5.819-8.417-5.819h-10.55v0.79c3.304,0.539,3.373,0.539,3.373,4.096L46.914,36.081L46.914,36.081z"/>
		</g>
		<g>
			<defs>
				<rect id="SVGID_7_" x="0.91" y="5.017" width="195.181" height="47.64"/>
			</defs>
			<clipPath id="SVGID_8_">
				<use xlink:href="#SVGID_7_"  overflow="visible"/>
			</clipPath>
			<path clip-path="url(#SVGID_8_)" fill="#86959D" d="M67.658,26.247c0-5.422,10.332-9.819,10.332-9.819s4.175,1.771,7.217,4.454
				c-1.746,1.541-3.118,3.382-3.118,5.36c0,1.977,1.372,3.818,3.118,5.36c-3.042,2.688-7.217,4.464-7.217,4.464
				S67.658,31.668,67.658,26.247"/>
		</g>
		<g>
			<defs>
				<rect id="SVGID_9_" x="0.91" y="5.017" width="195.181" height="47.64"/>
			</defs>
			<clipPath id="SVGID_10_">
				<use xlink:href="#SVGID_9_"  overflow="visible"/>
			</clipPath>
			<path clip-path="url(#SVGID_10_)" fill="#948B27" d="M92.42,16.424c0,0,4.176,1.777,7.221,4.465
				c-1.741,1.54-3.11,3.378-3.11,5.352c0,1.979,1.375,3.819,3.12,5.36c-3.043,2.689-7.229,4.463-7.229,4.463
				s-4.169-1.777-7.212-4.465c1.746-1.542,3.122-3.381,3.122-5.36c0-1.978-1.375-3.819-3.122-5.36
				C88.249,18.195,92.42,16.424,92.42,16.424"/>
		</g>
		<g>
			<defs>
				<rect id="SVGID_11_" x="0.91" y="5.017" width="195.181" height="47.64"/>
			</defs>
			<clipPath id="SVGID_12_">
				<use xlink:href="#SVGID_11_"  overflow="visible"/>
			</clipPath>
			<path clip-path="url(#SVGID_12_)" fill="#A90C37" d="M99.661,20.881c3.042-2.684,7.211-4.454,7.211-4.454
				s10.337,4.397,10.337,9.819c0,5.42-10.337,9.819-10.337,9.819s-4.168-1.779-7.211-4.464c1.747-1.542,3.121-3.383,3.121-5.36
				C102.782,24.263,101.408,22.422,99.661,20.881"/>
		</g>
		<g>
			<defs>
				<rect id="SVGID_13_" x="0.91" y="5.017" width="195.181" height="47.64"/>
			</defs>
			<clipPath id="SVGID_14_">
				<use xlink:href="#SVGID_13_"  overflow="visible"/>
			</clipPath>
			<path clip-path="url(#SVGID_14_)" fill="#948B27" d="M90.06,8.302c0-1.813,1.454-3.285,3.248-3.285
				c1.795,0,3.249,1.472,3.249,3.285c0,1.815-1.453,3.288-3.249,3.288C91.514,11.589,90.06,10.117,90.06,8.302"/>
		</g>
		<g>
			<defs>
				<rect id="SVGID_15_" x="0.91" y="5.017" width="195.181" height="47.64"/>
			</defs>
			<clipPath id="SVGID_16_">
				<use xlink:href="#SVGID_15_"  overflow="visible"/>
			</clipPath>
			<path clip-path="url(#SVGID_16_)" fill="#86959D" d="M75.617,8.428c0-1.813,1.454-3.286,3.249-3.286
				c1.795,0,3.249,1.472,3.249,3.286c0,1.815-1.454,3.285-3.249,3.285C77.071,11.713,75.617,10.243,75.617,8.428"/>
		</g>
		<g>
			<defs>
				<rect id="SVGID_17_" x="0.91" y="5.017" width="195.181" height="47.64"/>
			</defs>
			<clipPath id="SVGID_18_">
				<use xlink:href="#SVGID_17_"  overflow="visible"/>
			</clipPath>
			<path clip-path="url(#SVGID_18_)" fill="#A90C37" d="M104.504,8.445c0-1.814,1.453-3.285,3.249-3.285
				c1.793,0,3.248,1.47,3.248,3.285c0,1.813-1.455,3.286-3.248,3.286C105.957,11.731,104.504,10.259,104.504,8.445"/>
		</g>
		<g>
			<defs>
				<rect id="SVGID_19_" x="0.91" y="5.017" width="195.181" height="47.64"/>
			</defs>
			<clipPath id="SVGID_20_">
				<use xlink:href="#SVGID_19_"  overflow="visible"/>
			</clipPath>
			<path clip-path="url(#SVGID_20_)" fill="#86959D" d="M9.823,42.454v4.992c0,0.43-0.019,0.807-0.058,1.127
				c-0.039,0.322-0.138,0.637-0.295,0.941c-0.16,0.307-0.423,0.559-0.787,0.759c-0.365,0.198-0.858,0.3-1.482,0.3
				c-0.786,0-1.366-0.162-1.746-0.486c-0.378-0.324-0.611-0.699-0.699-1.125c-0.088-0.426-0.13-0.93-0.13-1.516v-4.992h0.949v4.967
				c0,0.369,0.013,0.681,0.034,0.933c0.023,0.252,0.086,0.507,0.19,0.763c0.104,0.258,0.272,0.463,0.504,0.621
				c0.235,0.155,0.544,0.234,0.932,0.234c0.384,0,0.69-0.079,0.919-0.232c0.228-0.154,0.395-0.357,0.498-0.607
				s0.164-0.508,0.187-0.768c0.022-0.26,0.034-0.574,0.034-0.943v-4.967H9.823z"/>
		</g>
		<g>
			<defs>
				<rect id="SVGID_21_" x="0.91" y="5.017" width="195.181" height="47.64"/>
			</defs>
			<clipPath id="SVGID_22_">
				<use xlink:href="#SVGID_21_"  overflow="visible"/>
			</clipPath>
			<path clip-path="url(#SVGID_22_)" fill="#86959D" d="M11.639,50.446V44.93h0.824v1.355h0.021c0.208-0.43,0.463-0.785,0.772-1.063
				c0.311-0.277,0.708-0.42,1.191-0.42c0.228,0,0.424,0.043,0.593,0.132c0.168,0.086,0.303,0.202,0.41,0.349
				c0.107,0.145,0.182,0.301,0.229,0.469c0.047,0.168,0.07,0.334,0.07,0.502v4.191h-0.845v-3.57c0-0.422-0.044-0.756-0.13-1
				s-0.294-0.365-0.629-0.365c-0.354,0-0.656,0.134-0.908,0.4c-0.25,0.266-0.438,0.598-0.563,0.998s-0.189,0.791-0.189,1.172v2.365
				H11.639L11.639,50.446z"/>
		</g>
	</g>
	<path fill="#86959D" d="M17.645,50.446h0.849V44.93h-0.849V50.446z M17.588,43.497h0.962v-1.043h-0.962V43.497z"/>
	<polygon fill="#86959D" points="21.697,50.446 19.533,44.93 20.473,44.93 22.133,49.286 23.624,44.93 24.446,44.93 22.489,50.446 	
		"/>
	<g>
		<g>
			<defs>
				<rect id="SVGID_23_" x="0.91" y="5.017" width="195.181" height="47.64"/>
			</defs>
			<clipPath id="SVGID_24_">
				<use xlink:href="#SVGID_23_"  overflow="visible"/>
			</clipPath>
			<path clip-path="url(#SVGID_24_)" fill="#86959D" d="M26.034,46.518h2.291c0-0.329-0.079-0.619-0.234-0.872
				c-0.156-0.252-0.448-0.379-0.88-0.379c-0.295,0-0.528,0.075-0.704,0.228c-0.176,0.149-0.299,0.324-0.368,0.52
				C26.066,46.209,26.034,46.379,26.034,46.518 M29.1,49.858v0.494c-0.314,0.088-0.547,0.146-0.703,0.176
				c-0.154,0.029-0.369,0.043-0.65,0.043c-0.543,0-1.017-0.113-1.42-0.342c-0.406-0.229-0.717-0.57-0.937-1.027
				c-0.219-0.459-0.33-1.02-0.33-1.68c0-0.406,0.042-0.775,0.126-1.104c0.084-0.332,0.215-0.617,0.394-0.861
				c0.179-0.244,0.406-0.43,0.682-0.559c0.275-0.131,0.61-0.195,1.005-0.195c0.824,0,1.354,0.24,1.588,0.721s0.352,0.98,0.352,1.504
				H26.01c0,0.766,0.162,1.455,0.482,2.066c0.322,0.613,0.861,0.92,1.612,0.92c0.119,0,0.24-0.006,0.362-0.02
				c0.12-0.013,0.231-0.033,0.332-0.061C28.898,49.911,28.998,49.883,29.1,49.858"/>
		</g>
		<g>
			<defs>
				<rect id="SVGID_25_" x="0.91" y="5.017" width="195.181" height="47.64"/>
			</defs>
			<clipPath id="SVGID_26_">
				<use xlink:href="#SVGID_25_"  overflow="visible"/>
			</clipPath>
			<path clip-path="url(#SVGID_26_)" fill="#86959D" d="M30.613,50.446V44.93h0.848v1.313h0.021c0.102-0.229,0.235-0.451,0.4-0.668
				c0.166-0.22,0.364-0.402,0.595-0.549c0.232-0.148,0.484-0.223,0.76-0.223v1.009h-0.24c-0.377,0-0.679,0.097-0.906,0.282
				c-0.228,0.189-0.39,0.438-0.485,0.742c-0.097,0.305-0.145,0.639-0.145,1.002v2.607H30.613z"/>
		</g>
		<g>
			<defs>
				<rect id="SVGID_27_" x="0.91" y="5.017" width="195.181" height="47.64"/>
			</defs>
			<clipPath id="SVGID_28_">
				<use xlink:href="#SVGID_27_"  overflow="visible"/>
			</clipPath>
			<path clip-path="url(#SVGID_28_)" fill="#86959D" d="M36.789,44.997v0.828c-0.502-0.293-0.965-0.441-1.387-0.441
				c-0.269,0-0.492,0.057-0.671,0.168c-0.179,0.115-0.268,0.277-0.268,0.492c0,0.199,0.068,0.367,0.206,0.5
				c0.14,0.133,0.388,0.295,0.751,0.488c0.363,0.191,0.623,0.336,0.779,0.434c0.19,0.111,0.355,0.232,0.497,0.365
				c0.14,0.133,0.25,0.293,0.329,0.471c0.078,0.184,0.118,0.395,0.118,0.637c0,0.294-0.073,0.564-0.219,0.813
				c-0.146,0.25-0.372,0.449-0.676,0.6c-0.304,0.148-0.687,0.223-1.146,0.223c-0.59,0-1.085-0.078-1.486-0.234v-0.879
				c0.041,0.023,0.118,0.064,0.229,0.125c0.113,0.062,0.231,0.119,0.354,0.172c0.123,0.056,0.271,0.107,0.443,0.154
				c0.171,0.047,0.338,0.07,0.505,0.07c0.216,0,0.409-0.031,0.583-0.094c0.171-0.063,0.309-0.159,0.411-0.293
				c0.104-0.135,0.154-0.303,0.154-0.506c0-0.236-0.078-0.42-0.238-0.551c-0.16-0.129-0.471-0.33-0.934-0.6
				c-0.069-0.046-0.225-0.137-0.468-0.271c-0.24-0.137-0.428-0.26-0.561-0.373c-0.132-0.115-0.241-0.25-0.327-0.412
				c-0.087-0.164-0.128-0.354-0.128-0.576c0-0.48,0.158-0.854,0.474-1.111c0.315-0.261,0.781-0.393,1.399-0.393
				c0.167,0,0.327,0.012,0.477,0.033c0.148,0.021,0.295,0.047,0.44,0.078C36.572,44.948,36.693,44.974,36.789,44.997"/>
		</g>
	</g>
	<path fill="#86959D" d="M38.302,50.446h0.848V44.93h-0.848V50.446z M38.244,43.497h0.964v-1.043h-0.964V43.497z"/>
	<g>
		<g>
			<defs>
				<rect id="SVGID_29_" x="0.91" y="5.017" width="195.181" height="47.64"/>
			</defs>
			<clipPath id="SVGID_30_">
				<use xlink:href="#SVGID_29_"  overflow="visible"/>
			</clipPath>
			<path clip-path="url(#SVGID_30_)" fill="#86959D" d="M43.742,49.948v0.578c-0.183,0.032-0.409,0.047-0.677,0.047
				c-0.372,0-0.678-0.048-0.919-0.143c-0.244-0.094-0.421-0.244-0.536-0.448c-0.114-0.204-0.172-0.472-0.172-0.8v-3.717h-0.961
				v-0.533h0.961v-1.297l0.85-0.52v1.817h1.489v0.532h-1.489v3.269c0,0.286,0.015,0.515,0.047,0.685
				c0.031,0.17,0.114,0.312,0.25,0.426c0.132,0.115,0.347,0.173,0.644,0.173C43.436,50.016,43.607,49.993,43.742,49.948"/>
		</g>
	</g>
	<polygon fill="#86959D" points="45.518,52.657 46.262,50.479 44.099,44.93 45.048,44.93 46.708,49.262 48.196,44.93 49.057,44.93 
		46.283,52.657 	"/>
	<g>
		<g>
			<defs>
				<rect id="SVGID_31_" x="0.91" y="5.017" width="195.181" height="47.64"/>
			</defs>
			<clipPath id="SVGID_32_">
				<use xlink:href="#SVGID_31_"  overflow="visible"/>
			</clipPath>
			<path clip-path="url(#SVGID_32_)" fill="#86959D" d="M53.576,47.778c0,0.689,0.097,1.252,0.287,1.684
				c0.192,0.43,0.553,0.647,1.076,0.647c0.947,0,1.418-0.778,1.418-2.331c0-1.674-0.472-2.511-1.418-2.511
				c-0.523,0-0.884,0.233-1.076,0.702C53.672,46.437,53.576,47.04,53.576,47.778 M54.939,50.573c-1.541,0-2.313-0.943-2.313-2.828
				c0-0.918,0.188-1.641,0.566-2.16c0.377-0.521,0.96-0.781,1.746-0.781c0.794,0,1.388,0.261,1.781,0.783
				c0.394,0.521,0.59,1.242,0.59,2.158c0,0.594-0.086,1.105-0.257,1.533c-0.171,0.426-0.433,0.748-0.783,0.967
				C55.919,50.461,55.477,50.573,54.939,50.573"/>
		</g>
		<g>
			<defs>
				<rect id="SVGID_33_" x="0.91" y="5.017" width="195.181" height="47.64"/>
			</defs>
			<clipPath id="SVGID_34_">
				<use xlink:href="#SVGID_33_"  overflow="visible"/>
			</clipPath>
			<path clip-path="url(#SVGID_34_)" fill="#86959D" d="M59.226,50.446v-4.982h-1.008V44.93h1.008v-0.355
				c0-0.336,0.021-0.625,0.064-0.871s0.128-0.465,0.257-0.66c0.128-0.195,0.322-0.348,0.581-0.459
				c0.258-0.111,0.594-0.166,1.013-0.166c0.205,0,0.515,0.035,0.93,0.103v0.687c-0.366-0.156-0.663-0.231-0.886-0.231
				c-0.316,0-0.556,0.063-0.72,0.188c-0.167,0.125-0.271,0.283-0.319,0.469c-0.048,0.188-0.073,0.396-0.073,0.625v0.674h1.583v0.533
				h-1.583v4.98H59.226L59.226,50.446z"/>
		</g>
		<g>
			<defs>
				<rect id="SVGID_35_" x="0.91" y="5.017" width="195.181" height="47.64"/>
			</defs>
			<clipPath id="SVGID_36_">
				<use xlink:href="#SVGID_35_"  overflow="visible"/>
			</clipPath>
			<path clip-path="url(#SVGID_36_)" fill="#86959D" d="M69.39,42.522v0.926c-0.699-0.324-1.328-0.484-1.89-0.484
				c-0.275,0-0.517,0.049-0.727,0.148c-0.208,0.1-0.372,0.24-0.487,0.418c-0.116,0.178-0.174,0.381-0.174,0.604
				c0,0.264,0.074,0.496,0.226,0.697s0.326,0.365,0.523,0.486c0.196,0.124,0.493,0.288,0.889,0.495
				c0.399,0.208,0.69,0.374,0.872,0.499c0.334,0.221,0.587,0.414,0.762,0.576c0.173,0.162,0.305,0.354,0.395,0.572
				c0.09,0.221,0.134,0.502,0.134,0.842c0,0.377-0.069,0.711-0.211,1.004c-0.142,0.295-0.341,0.535-0.598,0.717
				c-0.255,0.182-0.552,0.32-0.889,0.413c-0.336,0.091-0.703,0.138-1.104,0.138c-0.662,0-1.274-0.082-1.838-0.244v-1
				c0.779,0.375,1.442,0.561,1.987,0.561c0.504,0,0.9-0.121,1.189-0.364c0.289-0.243,0.434-0.589,0.434-1.038
				c0-0.271-0.064-0.506-0.19-0.703c-0.127-0.199-0.289-0.367-0.485-0.51c-0.195-0.141-0.44-0.29-0.736-0.447
				c-0.294-0.156-0.616-0.324-0.964-0.506c-0.409-0.225-0.731-0.492-0.963-0.799c-0.234-0.309-0.35-0.699-0.35-1.18
				c0-0.422,0.102-0.783,0.304-1.088c0.2-0.303,0.487-0.533,0.858-0.691s0.813-0.236,1.325-0.236
				C68.201,42.325,68.771,42.389,69.39,42.522"/>
		</g>
		<g>
			<defs>
				<rect id="SVGID_37_" x="0.91" y="5.017" width="195.181" height="47.64"/>
			</defs>
			<clipPath id="SVGID_38_">
				<use xlink:href="#SVGID_37_"  overflow="visible"/>
			</clipPath>
			<path clip-path="url(#SVGID_38_)" fill="#86959D" d="M73.91,49.948v0.578c-0.183,0.032-0.409,0.047-0.679,0.047
				c-0.371,0-0.676-0.048-0.918-0.143c-0.244-0.094-0.422-0.244-0.535-0.448c-0.115-0.204-0.172-0.472-0.172-0.8v-3.717h-0.962
				v-0.533h0.962v-1.297l0.849-0.52v1.817h1.488v0.532h-1.488v3.269c0,0.286,0.015,0.515,0.046,0.685
				c0.032,0.17,0.115,0.312,0.25,0.426c0.132,0.115,0.348,0.173,0.643,0.173C73.603,50.016,73.774,49.993,73.91,49.948"/>
		</g>
		<g>
			<defs>
				<rect id="SVGID_39_" x="0.91" y="5.017" width="195.181" height="47.64"/>
			</defs>
			<clipPath id="SVGID_40_">
				<use xlink:href="#SVGID_39_"  overflow="visible"/>
			</clipPath>
			<path clip-path="url(#SVGID_40_)" fill="#86959D" d="M75.686,46.518h2.291c0-0.329-0.079-0.619-0.232-0.872
				c-0.155-0.252-0.448-0.379-0.88-0.379c-0.294,0-0.528,0.075-0.704,0.228c-0.175,0.149-0.298,0.324-0.367,0.52
				C75.72,46.209,75.686,46.379,75.686,46.518 M78.751,49.858v0.494c-0.313,0.088-0.546,0.146-0.701,0.176
				c-0.156,0.029-0.37,0.043-0.651,0.043c-0.544,0-1.017-0.113-1.421-0.342c-0.405-0.229-0.717-0.57-0.936-1.027
				c-0.22-0.459-0.331-1.02-0.331-1.68c0-0.406,0.042-0.775,0.126-1.104c0.084-0.332,0.214-0.617,0.393-0.861
				s0.406-0.43,0.684-0.559c0.275-0.131,0.61-0.195,1.004-0.195c0.824,0,1.354,0.24,1.588,0.721c0.235,0.48,0.352,0.98,0.352,1.504
				h-3.196c0,0.766,0.162,1.455,0.482,2.066c0.323,0.613,0.861,0.92,1.612,0.92c0.121,0,0.24-0.006,0.362-0.02
				c0.121-0.013,0.232-0.033,0.333-0.061C78.55,49.911,78.65,49.883,78.751,49.858"/>
		</g>
	</g>
	<rect x="80.301" y="42.454" fill="#86959D" width="0.847" height="7.992"/>
	<rect x="83.06" y="42.454" fill="#86959D" width="0.847" height="7.992"/>
	<g>
		<g>
			<defs>
				<rect id="SVGID_41_" x="0.91" y="5.017" width="195.181" height="47.64"/>
			</defs>
			<clipPath id="SVGID_42_">
				<use xlink:href="#SVGID_41_"  overflow="visible"/>
			</clipPath>
			<path clip-path="url(#SVGID_42_)" fill="#86959D" d="M86.357,46.518h2.291c0-0.329-0.078-0.619-0.233-0.872
				c-0.155-0.252-0.448-0.379-0.879-0.379c-0.295,0-0.529,0.075-0.705,0.228c-0.174,0.149-0.296,0.324-0.368,0.52
				C86.393,46.209,86.357,46.379,86.357,46.518 M89.423,49.858v0.494c-0.313,0.088-0.546,0.146-0.701,0.176
				c-0.154,0.029-0.371,0.043-0.65,0.043c-0.543,0-1.018-0.113-1.422-0.342c-0.404-0.229-0.715-0.57-0.936-1.027
				c-0.22-0.459-0.33-1.02-0.33-1.68c0-0.406,0.042-0.775,0.126-1.104c0.084-0.332,0.215-0.617,0.395-0.861
				c0.179-0.244,0.406-0.43,0.681-0.559c0.276-0.131,0.611-0.195,1.006-0.195c0.823,0,1.353,0.24,1.588,0.721
				c0.233,0.48,0.351,0.98,0.351,1.504h-3.196c0,0.766,0.161,1.455,0.483,2.066c0.324,0.613,0.859,0.92,1.612,0.92
				c0.119,0,0.238-0.006,0.36-0.02c0.122-0.013,0.232-0.033,0.333-0.061C89.223,49.911,89.323,49.883,89.423,49.858"/>
		</g>
		<g>
			<defs>
				<rect id="SVGID_43_" x="0.91" y="5.017" width="195.181" height="47.64"/>
			</defs>
			<clipPath id="SVGID_44_">
				<use xlink:href="#SVGID_43_"  overflow="visible"/>
			</clipPath>
			<path clip-path="url(#SVGID_44_)" fill="#86959D" d="M90.938,50.446V44.93h0.826v1.355h0.021c0.205-0.43,0.462-0.785,0.771-1.063
				c0.31-0.277,0.707-0.42,1.19-0.42c0.228,0,0.426,0.043,0.593,0.132c0.168,0.086,0.305,0.202,0.411,0.349
				c0.106,0.145,0.182,0.301,0.23,0.469c0.045,0.168,0.069,0.334,0.069,0.502v4.191H94.2v-3.57c0-0.422-0.042-0.756-0.127-1
				c-0.086-0.244-0.296-0.365-0.631-0.365c-0.353,0-0.655,0.134-0.906,0.4c-0.251,0.266-0.438,0.598-0.563,0.998
				s-0.188,0.791-0.188,1.172v2.365H90.938L90.938,50.446z"/>
		</g>
		<g>
			<defs>
				<rect id="SVGID_45_" x="0.91" y="5.017" width="195.181" height="47.64"/>
			</defs>
			<clipPath id="SVGID_46_">
				<use xlink:href="#SVGID_45_"  overflow="visible"/>
			</clipPath>
			<path clip-path="url(#SVGID_46_)" fill="#86959D" d="M97.598,47.872c0,1.43,0.426,2.145,1.282,2.145
				c0.491,0,0.841-0.211,1.05-0.633c0.209-0.424,0.314-0.957,0.314-1.602c0-0.656-0.098-1.224-0.291-1.703
				c-0.195-0.479-0.518-0.719-0.969-0.719c-0.47,0-0.817,0.262-1.046,0.786C97.711,46.67,97.598,47.245,97.598,47.872
				 M97.598,42.454v3.473h0.021c0.083-0.17,0.186-0.338,0.312-0.498c0.125-0.164,0.293-0.309,0.506-0.436
				c0.212-0.125,0.466-0.189,0.758-0.189c0.427,0,0.787,0.117,1.087,0.354c0.299,0.236,0.524,0.574,0.679,1.016
				c0.156,0.441,0.232,0.957,0.232,1.549c0,0.477-0.053,0.891-0.154,1.244c-0.102,0.355-0.252,0.65-0.452,0.889
				s-0.442,0.416-0.728,0.537c-0.283,0.121-0.607,0.18-0.969,0.18c-0.649,0-1.13-0.152-1.448-0.463
				c-0.316-0.309-0.511-0.656-0.584-1.041c-0.073-0.384-0.107-0.811-0.107-1.277v-5.336H97.598z"/>
		</g>
		<g>
			<defs>
				<rect id="SVGID_47_" x="0.91" y="5.017" width="195.181" height="47.64"/>
			</defs>
			<clipPath id="SVGID_48_">
				<use xlink:href="#SVGID_47_"  overflow="visible"/>
			</clipPath>
			<path clip-path="url(#SVGID_48_)" fill="#86959D" d="M103.212,47.778c0,0.689,0.097,1.252,0.288,1.684
				c0.191,0.43,0.55,0.647,1.076,0.647c0.947,0,1.418-0.778,1.418-2.331c0-1.674-0.473-2.511-1.418-2.511
				c-0.526,0-0.883,0.233-1.076,0.702C103.309,46.437,103.212,47.04,103.212,47.778 M104.576,50.573
				c-1.543,0-2.314-0.943-2.314-2.828c0-0.918,0.19-1.641,0.568-2.16c0.378-0.521,0.96-0.781,1.746-0.781
				c0.793,0,1.388,0.261,1.779,0.783c0.394,0.521,0.59,1.242,0.59,2.158c0,0.594-0.084,1.105-0.256,1.533
				c-0.172,0.426-0.433,0.748-0.783,0.967C105.557,50.461,105.113,50.573,104.576,50.573"/>
		</g>
		<g>
			<defs>
				<rect id="SVGID_49_" x="0.91" y="5.017" width="195.181" height="47.64"/>
			</defs>
			<clipPath id="SVGID_50_">
				<use xlink:href="#SVGID_49_"  overflow="visible"/>
			</clipPath>
			<path clip-path="url(#SVGID_50_)" fill="#86959D" d="M110.971,44.997v0.828c-0.504-0.293-0.966-0.441-1.387-0.441
				c-0.268,0-0.491,0.057-0.67,0.168c-0.18,0.115-0.27,0.277-0.27,0.492c0,0.199,0.069,0.367,0.207,0.5
				c0.139,0.133,0.389,0.295,0.75,0.488c0.364,0.191,0.625,0.336,0.779,0.434c0.192,0.111,0.357,0.232,0.497,0.365
				c0.142,0.133,0.249,0.293,0.329,0.471c0.079,0.184,0.118,0.395,0.118,0.637c0,0.294-0.074,0.564-0.22,0.813
				c-0.146,0.25-0.371,0.449-0.676,0.6c-0.305,0.148-0.688,0.223-1.146,0.223c-0.59,0-1.086-0.078-1.486-0.234v-0.879
				c0.041,0.023,0.118,0.064,0.23,0.125c0.111,0.062,0.229,0.119,0.354,0.172c0.123,0.056,0.271,0.107,0.443,0.154
				c0.17,0.047,0.338,0.07,0.503,0.07c0.218,0,0.411-0.031,0.584-0.094c0.172-0.063,0.31-0.159,0.411-0.293
				c0.103-0.135,0.154-0.303,0.154-0.506c0-0.236-0.078-0.42-0.238-0.551c-0.16-0.129-0.471-0.33-0.934-0.6
				c-0.07-0.046-0.226-0.137-0.469-0.271c-0.24-0.137-0.426-0.26-0.561-0.373c-0.133-0.115-0.24-0.25-0.328-0.412
				c-0.086-0.164-0.129-0.354-0.129-0.576c0-0.48,0.158-0.854,0.474-1.111c0.317-0.261,0.783-0.393,1.399-0.393
				c0.168,0,0.326,0.012,0.478,0.033c0.149,0.021,0.294,0.047,0.438,0.078C110.753,44.948,110.873,44.974,110.971,44.997"/>
		</g>
		<g>
			<defs>
				<rect id="SVGID_51_" x="0.91" y="5.017" width="195.181" height="47.64"/>
			</defs>
			<clipPath id="SVGID_52_">
				<use xlink:href="#SVGID_51_"  overflow="visible"/>
			</clipPath>
			<path clip-path="url(#SVGID_52_)" fill="#86959D" d="M115.992,49.87v0.506c-0.43,0.131-0.838,0.195-1.227,0.195
				c-0.957,0-1.652-0.275-2.082-0.828c-0.433-0.553-0.646-1.295-0.646-2.23c0-0.592,0.092-1.092,0.273-1.495
				c0.183-0.405,0.441-0.709,0.776-0.911c0.333-0.201,0.722-0.303,1.17-0.303c0.429,0,0.785,0.08,1.065,0.24
				c0.281,0.16,0.488,0.377,0.617,0.647c0.131,0.272,0.197,0.585,0.197,0.94h-0.984c0-0.375-0.055-0.694-0.166-0.963
				c-0.108-0.268-0.371-0.401-0.786-0.401c-0.435,0-0.747,0.2-0.933,0.601c-0.188,0.4-0.281,0.879-0.281,1.438
				c0,0.302,0.037,0.613,0.109,0.938c0.074,0.322,0.19,0.619,0.357,0.887c0.162,0.271,0.377,0.486,0.645,0.646
				c0.266,0.161,0.59,0.24,0.965,0.24c0.203,0,0.348-0.01,0.438-0.027C115.589,49.969,115.754,49.928,115.992,49.87"/>
		</g>
		<g>
			<defs>
				<rect id="SVGID_53_" x="0.91" y="5.017" width="195.181" height="47.64"/>
			</defs>
			<clipPath id="SVGID_54_">
				<use xlink:href="#SVGID_53_"  overflow="visible"/>
			</clipPath>
			<path clip-path="url(#SVGID_54_)" fill="#86959D" d="M117.331,50.446v-7.992h0.849v3.957h0.021
				c0.087-0.223,0.2-0.453,0.347-0.689c0.146-0.234,0.348-0.446,0.604-0.635c0.258-0.188,0.557-0.283,0.896-0.283
				c0.392,0,0.722,0.131,0.992,0.393c0.271,0.258,0.403,0.648,0.403,1.17v4.08h-0.846v-3.697c0-0.381-0.056-0.682-0.168-0.904
				c-0.111-0.223-0.328-0.334-0.648-0.334c-0.312,0-0.59,0.133-0.838,0.396s-0.437,0.592-0.565,0.984s-0.194,0.764-0.194,1.109
				v2.445H117.331z"/>
		</g>
		<g>
			<defs>
				<rect id="SVGID_55_" x="0.91" y="5.017" width="195.181" height="47.64"/>
			</defs>
			<clipPath id="SVGID_56_">
				<use xlink:href="#SVGID_55_"  overflow="visible"/>
			</clipPath>
			<path clip-path="url(#SVGID_56_)" fill="#86959D" d="M127.268,46.577v3.232h0.709c0.321,0,0.619-0.031,0.896-0.092
				s0.521-0.209,0.733-0.442s0.318-0.583,0.318-1.052c0-0.672-0.193-1.114-0.582-1.327c-0.388-0.214-0.841-0.321-1.365-0.321h-0.709
				V46.577z M127.268,43.09v2.85h0.709c0.432,0,0.815-0.111,1.147-0.332c0.335-0.221,0.501-0.613,0.501-1.176
				c0-0.547-0.157-0.908-0.469-1.081c-0.314-0.175-0.707-0.261-1.182-0.261H127.268z M126.316,50.446v-7.992h1.595
				c0.44,0,0.853,0.035,1.228,0.106c0.373,0.071,0.707,0.25,1,0.538c0.291,0.287,0.438,0.716,0.438,1.289
				c0,0.348-0.068,0.652-0.206,0.916c-0.14,0.268-0.313,0.472-0.526,0.617c-0.214,0.148-0.431,0.238-0.654,0.273v0.021
				c0.484,0.082,0.898,0.291,1.24,0.627c0.34,0.336,0.514,0.808,0.514,1.414c0,0.504-0.104,0.91-0.307,1.219
				c-0.203,0.307-0.457,0.529-0.764,0.667s-0.604,0.224-0.896,0.254c-0.291,0.032-0.605,0.048-0.943,0.048h-1.717V50.446z"/>
		</g>
		<g>
			<defs>
				<rect id="SVGID_57_" x="0.91" y="5.017" width="195.181" height="47.64"/>
			</defs>
			<clipPath id="SVGID_58_">
				<use xlink:href="#SVGID_57_"  overflow="visible"/>
			</clipPath>
			<path clip-path="url(#SVGID_58_)" fill="#86959D" d="M135.668,50.446v-1.35h-0.02c-0.182,0.393-0.352,0.693-0.512,0.902
				c-0.162,0.207-0.352,0.355-0.574,0.442s-0.514,0.13-0.877,0.13c-0.287,0-0.527-0.088-0.726-0.266
				c-0.194-0.178-0.34-0.396-0.435-0.66c-0.098-0.266-0.143-0.525-0.143-0.781v-3.936h0.846v3.568c0,0.346,0.08,0.662,0.238,0.943
				c0.158,0.283,0.404,0.424,0.735,0.424c0.312,0,0.575-0.134,0.793-0.404c0.217-0.269,0.38-0.603,0.489-1
				c0.105-0.396,0.164-0.787,0.164-1.168v-2.363h0.845v5.516h-0.825V50.446z"/>
		</g>
		<g>
			<defs>
				<rect id="SVGID_59_" x="0.91" y="5.017" width="195.181" height="47.64"/>
			</defs>
			<clipPath id="SVGID_60_">
				<use xlink:href="#SVGID_59_"  overflow="visible"/>
			</clipPath>
			<path clip-path="url(#SVGID_60_)" fill="#86959D" d="M140.955,44.997v0.828c-0.503-0.293-0.965-0.441-1.387-0.441
				c-0.27,0-0.492,0.057-0.67,0.168c-0.182,0.115-0.27,0.277-0.27,0.492c0,0.199,0.068,0.367,0.206,0.5s0.39,0.295,0.751,0.488
				c0.364,0.191,0.623,0.336,0.779,0.434c0.191,0.111,0.357,0.232,0.496,0.365c0.142,0.133,0.25,0.293,0.328,0.471
				c0.08,0.184,0.119,0.395,0.119,0.637c0,0.294-0.072,0.564-0.219,0.813c-0.145,0.25-0.369,0.449-0.675,0.6
				c-0.306,0.148-0.688,0.223-1.147,0.223c-0.59,0-1.086-0.078-1.484-0.234v-0.879c0.041,0.023,0.117,0.064,0.229,0.125
				c0.114,0.062,0.232,0.119,0.354,0.172c0.125,0.056,0.272,0.107,0.442,0.154c0.172,0.047,0.34,0.07,0.506,0.07
				c0.217,0,0.41-0.031,0.584-0.094c0.17-0.063,0.308-0.159,0.41-0.293c0.104-0.135,0.155-0.303,0.155-0.506
				c0-0.236-0.079-0.42-0.239-0.551c-0.158-0.129-0.47-0.33-0.933-0.6c-0.069-0.046-0.228-0.137-0.468-0.271
				c-0.241-0.137-0.43-0.26-0.563-0.373c-0.131-0.115-0.24-0.25-0.326-0.412c-0.086-0.164-0.129-0.354-0.129-0.576
				c0-0.48,0.158-0.854,0.475-1.111c0.314-0.261,0.781-0.393,1.398-0.393c0.166,0,0.327,0.012,0.479,0.033
				c0.146,0.021,0.294,0.047,0.438,0.078C140.736,44.948,140.857,44.974,140.955,44.997"/>
		</g>
	</g>
	<path fill="#86959D" d="M142.468,50.446h0.851V44.93h-0.851V50.446z M142.412,43.497h0.961v-1.043h-0.961V43.497z"/>
	<g>
		<g>
			<defs>
				<rect id="SVGID_61_" x="0.91" y="5.017" width="195.181" height="47.64"/>
			</defs>
			<clipPath id="SVGID_62_">
				<use xlink:href="#SVGID_61_"  overflow="visible"/>
			</clipPath>
			<path clip-path="url(#SVGID_62_)" fill="#86959D" d="M145.182,50.446V44.93h0.826v1.355h0.021
				c0.205-0.43,0.463-0.785,0.771-1.063s0.707-0.42,1.191-0.42c0.227,0,0.424,0.043,0.593,0.132c0.166,0.086,0.304,0.202,0.41,0.349
				c0.104,0.145,0.183,0.301,0.229,0.469s0.069,0.334,0.069,0.502v4.191h-0.847v-3.57c0-0.422-0.043-0.756-0.131-1
				c-0.084-0.244-0.295-0.365-0.629-0.365c-0.354,0-0.655,0.134-0.905,0.4c-0.253,0.266-0.441,0.598-0.563,0.998
				c-0.127,0.4-0.189,0.791-0.189,1.172v2.365H145.182L145.182,50.446z"/>
		</g>
		<g>
			<defs>
				<rect id="SVGID_63_" x="0.91" y="5.017" width="195.181" height="47.64"/>
			</defs>
			<clipPath id="SVGID_64_">
				<use xlink:href="#SVGID_63_"  overflow="visible"/>
			</clipPath>
			<path clip-path="url(#SVGID_64_)" fill="#86959D" d="M151.715,46.518h2.291c0-0.329-0.078-0.619-0.234-0.872
				c-0.152-0.252-0.446-0.379-0.879-0.379c-0.293,0-0.527,0.075-0.705,0.228c-0.172,0.149-0.297,0.324-0.367,0.52
				S151.715,46.379,151.715,46.518 M154.782,49.858v0.494c-0.313,0.088-0.548,0.146-0.701,0.176
				c-0.156,0.029-0.372,0.043-0.651,0.043c-0.543,0-1.018-0.113-1.421-0.342c-0.405-0.229-0.717-0.57-0.938-1.027
				c-0.217-0.459-0.327-1.02-0.327-1.68c0-0.406,0.042-0.775,0.125-1.104c0.085-0.332,0.214-0.617,0.394-0.861
				s0.406-0.43,0.682-0.559c0.277-0.131,0.611-0.195,1.007-0.195c0.821,0,1.354,0.24,1.587,0.721c0.234,0.48,0.352,0.98,0.352,1.504
				h-3.197c0,0.766,0.162,1.455,0.484,2.066c0.323,0.613,0.859,0.92,1.61,0.92c0.12,0,0.241-0.006,0.36-0.02
				c0.123-0.013,0.232-0.033,0.334-0.061C154.58,49.911,154.682,49.883,154.782,49.858"/>
		</g>
		<g>
			<defs>
				<rect id="SVGID_65_" x="0.91" y="5.017" width="195.181" height="47.64"/>
			</defs>
			<clipPath id="SVGID_66_">
				<use xlink:href="#SVGID_65_"  overflow="visible"/>
			</clipPath>
			<path clip-path="url(#SVGID_66_)" fill="#86959D" d="M158.863,44.997v0.828c-0.502-0.293-0.965-0.441-1.385-0.441
				c-0.271,0-0.492,0.057-0.672,0.168c-0.181,0.115-0.269,0.277-0.269,0.492c0,0.199,0.069,0.367,0.206,0.5s0.389,0.295,0.751,0.488
				c0.364,0.191,0.623,0.336,0.778,0.434c0.191,0.111,0.357,0.232,0.498,0.365c0.14,0.133,0.25,0.293,0.328,0.471
				c0.08,0.184,0.117,0.395,0.117,0.637c0,0.294-0.072,0.564-0.219,0.813c-0.145,0.25-0.371,0.449-0.676,0.6
				c-0.303,0.148-0.686,0.223-1.146,0.223c-0.591,0-1.085-0.078-1.484-0.234v-0.879c0.041,0.023,0.117,0.064,0.228,0.125
				c0.113,0.062,0.231,0.119,0.354,0.172c0.125,0.056,0.271,0.107,0.441,0.154c0.174,0.047,0.34,0.07,0.506,0.07
				c0.217,0,0.409-0.031,0.582-0.094c0.172-0.063,0.311-0.159,0.412-0.293c0.104-0.135,0.154-0.303,0.154-0.506
				c0-0.236-0.08-0.42-0.239-0.551c-0.159-0.129-0.471-0.33-0.935-0.6c-0.069-0.046-0.227-0.137-0.467-0.271
				c-0.242-0.137-0.429-0.26-0.562-0.373c-0.132-0.115-0.241-0.25-0.328-0.412c-0.086-0.164-0.13-0.354-0.13-0.576
				c0-0.48,0.16-0.854,0.475-1.111c0.317-0.261,0.782-0.393,1.399-0.393c0.169,0,0.327,0.012,0.478,0.033
				c0.148,0.021,0.295,0.047,0.439,0.078C158.646,44.948,158.766,44.974,158.863,44.997"/>
		</g>
		<g>
			<defs>
				<rect id="SVGID_67_" x="0.91" y="5.017" width="195.181" height="47.64"/>
			</defs>
			<clipPath id="SVGID_68_">
				<use xlink:href="#SVGID_67_"  overflow="visible"/>
			</clipPath>
			<path clip-path="url(#SVGID_68_)" fill="#86959D" d="M162.898,44.997v0.828c-0.504-0.293-0.967-0.441-1.389-0.441
				c-0.269,0-0.49,0.057-0.67,0.168c-0.179,0.115-0.27,0.277-0.27,0.492c0,0.199,0.07,0.367,0.209,0.5
				c0.136,0.133,0.388,0.295,0.75,0.488c0.363,0.191,0.623,0.336,0.779,0.434c0.189,0.111,0.355,0.232,0.496,0.365
				s0.252,0.293,0.327,0.471c0.079,0.184,0.119,0.395,0.119,0.637c0,0.294-0.071,0.564-0.218,0.813
				c-0.146,0.25-0.37,0.449-0.676,0.6c-0.305,0.148-0.688,0.223-1.146,0.223c-0.59,0-1.086-0.078-1.486-0.234v-0.879
				c0.041,0.023,0.117,0.064,0.23,0.125c0.111,0.062,0.229,0.119,0.352,0.172c0.125,0.056,0.273,0.107,0.444,0.154
				c0.172,0.047,0.34,0.07,0.505,0.07c0.217,0,0.41-0.031,0.584-0.094c0.17-0.063,0.309-0.159,0.411-0.293
				c0.104-0.135,0.155-0.303,0.155-0.506c0-0.236-0.078-0.42-0.239-0.551c-0.16-0.129-0.47-0.33-0.933-0.6
				c-0.071-0.046-0.227-0.137-0.469-0.271c-0.24-0.137-0.428-0.26-0.562-0.373c-0.132-0.115-0.241-0.25-0.327-0.412
				c-0.086-0.164-0.128-0.354-0.128-0.576c0-0.48,0.159-0.854,0.474-1.111c0.316-0.261,0.781-0.393,1.398-0.393
				c0.168,0,0.328,0.012,0.477,0.033c0.149,0.021,0.297,0.047,0.441,0.078C162.68,44.948,162.801,44.974,162.898,44.997"/>
		</g>
		<g>
			<defs>
				<rect id="SVGID_69_" x="0.91" y="5.017" width="195.181" height="47.64"/>
			</defs>
			<clipPath id="SVGID_70_">
				<use xlink:href="#SVGID_69_"  overflow="visible"/>
			</clipPath>
			<path clip-path="url(#SVGID_70_)" fill="#86959D" d="M171.059,42.522v0.926c-0.701-0.324-1.33-0.484-1.89-0.484
				c-0.276,0-0.519,0.049-0.728,0.148s-0.373,0.24-0.487,0.418c-0.116,0.178-0.175,0.381-0.175,0.604
				c0,0.264,0.074,0.496,0.228,0.697c0.151,0.201,0.325,0.365,0.521,0.486c0.197,0.124,0.494,0.288,0.893,0.495
				c0.398,0.208,0.689,0.374,0.873,0.499c0.333,0.221,0.586,0.414,0.76,0.576s0.305,0.354,0.395,0.572
				c0.09,0.221,0.136,0.502,0.136,0.842c0,0.377-0.071,0.711-0.213,1.004c-0.142,0.295-0.341,0.535-0.597,0.717
				s-0.553,0.32-0.89,0.413c-0.336,0.091-0.704,0.138-1.104,0.138c-0.661,0-1.272-0.082-1.838-0.244v-1
				c0.779,0.375,1.442,0.561,1.988,0.561c0.504,0,0.898-0.121,1.188-0.364s0.435-0.589,0.435-1.038c0-0.271-0.063-0.506-0.19-0.703
				c-0.127-0.199-0.289-0.367-0.483-0.51c-0.196-0.141-0.44-0.29-0.737-0.447c-0.293-0.156-0.615-0.324-0.961-0.506
				c-0.41-0.225-0.732-0.492-0.966-0.799c-0.233-0.309-0.351-0.699-0.351-1.18c0-0.422,0.102-0.783,0.305-1.088
				c0.201-0.303,0.486-0.533,0.857-0.691c0.373-0.158,0.815-0.236,1.326-0.236C169.868,42.325,170.438,42.389,171.059,42.522"/>
		</g>
		<g>
			<defs>
				<rect id="SVGID_71_" x="0.91" y="5.017" width="195.181" height="47.64"/>
			</defs>
			<clipPath id="SVGID_72_">
				<use xlink:href="#SVGID_71_"  overflow="visible"/>
			</clipPath>
			<path clip-path="url(#SVGID_72_)" fill="#86959D" d="M176.404,49.87v0.506c-0.428,0.131-0.838,0.195-1.225,0.195
				c-0.959,0-1.652-0.275-2.084-0.828c-0.431-0.553-0.646-1.295-0.646-2.23c0-0.592,0.091-1.092,0.274-1.495
				c0.183-0.405,0.439-0.709,0.774-0.911c0.333-0.201,0.726-0.303,1.171-0.303c0.43,0,0.784,0.08,1.066,0.24
				c0.281,0.16,0.488,0.377,0.619,0.647c0.129,0.272,0.193,0.585,0.193,0.94h-0.982c0-0.375-0.057-0.694-0.166-0.963
				c-0.111-0.268-0.373-0.401-0.787-0.401c-0.438,0-0.748,0.2-0.936,0.601c-0.185,0.4-0.277,0.879-0.277,1.438
				c0,0.302,0.037,0.613,0.107,0.938c0.073,0.322,0.191,0.619,0.355,0.887c0.166,0.271,0.381,0.486,0.646,0.646
				c0.268,0.161,0.59,0.24,0.967,0.24c0.199,0,0.346-0.01,0.436-0.027C176.001,49.969,176.166,49.928,176.404,49.87"/>
		</g>
		<g>
			<defs>
				<rect id="SVGID_73_" x="0.91" y="5.017" width="195.181" height="47.64"/>
			</defs>
			<clipPath id="SVGID_74_">
				<use xlink:href="#SVGID_73_"  overflow="visible"/>
			</clipPath>
			<path clip-path="url(#SVGID_74_)" fill="#86959D" d="M177.744,50.446v-7.992h0.848v3.957h0.023
				c0.085-0.223,0.201-0.453,0.346-0.689c0.146-0.234,0.346-0.446,0.604-0.635c0.256-0.188,0.555-0.283,0.895-0.283
				c0.391,0,0.721,0.131,0.993,0.393c0.269,0.258,0.405,0.648,0.405,1.17v4.08h-0.849v-3.697c0-0.381-0.057-0.682-0.168-0.904
				c-0.11-0.223-0.327-0.334-0.646-0.334c-0.315,0-0.594,0.133-0.842,0.396c-0.246,0.264-0.436,0.592-0.564,0.984
				c-0.13,0.393-0.196,0.764-0.196,1.109v2.445H177.744z"/>
		</g>
		<g>
			<defs>
				<rect id="SVGID_75_" x="0.91" y="5.017" width="195.181" height="47.64"/>
			</defs>
			<clipPath id="SVGID_76_">
				<use xlink:href="#SVGID_75_"  overflow="visible"/>
			</clipPath>
			<path clip-path="url(#SVGID_76_)" fill="#86959D" d="M184.266,47.778c0,0.689,0.098,1.252,0.289,1.684
				c0.19,0.43,0.551,0.647,1.075,0.647c0.945,0,1.419-0.778,1.419-2.331c0-1.674-0.474-2.511-1.419-2.511
				c-0.524,0-0.885,0.233-1.075,0.702C184.361,46.437,184.266,47.04,184.266,47.778 M185.63,50.573
				c-1.543,0-2.315-0.943-2.315-2.828c0-0.918,0.189-1.641,0.567-2.16c0.378-0.521,0.961-0.781,1.748-0.781
				c0.793,0,1.388,0.261,1.78,0.783c0.395,0.521,0.59,1.242,0.59,2.158c0,0.594-0.086,1.105-0.257,1.533
				c-0.173,0.426-0.433,0.748-0.783,0.967C186.609,50.461,186.165,50.573,185.63,50.573"/>
		</g>
		<g>
			<defs>
				<rect id="SVGID_77_" x="0.91" y="5.017" width="195.181" height="47.64"/>
			</defs>
			<clipPath id="SVGID_78_">
				<use xlink:href="#SVGID_77_"  overflow="visible"/>
			</clipPath>
			<path clip-path="url(#SVGID_78_)" fill="#86959D" d="M190.02,47.778c0,0.689,0.096,1.252,0.287,1.684
				c0.19,0.43,0.549,0.647,1.075,0.647c0.945,0,1.418-0.778,1.418-2.331c0-1.674-0.473-2.511-1.418-2.511
				c-0.526,0-0.885,0.233-1.075,0.702C190.115,46.437,190.02,47.04,190.02,47.778 M191.382,50.573c-1.543,0-2.315-0.943-2.315-2.828
				c0-0.918,0.189-1.641,0.568-2.16c0.379-0.521,0.961-0.781,1.747-0.781c0.792,0,1.386,0.261,1.78,0.783
				c0.395,0.521,0.59,1.242,0.59,2.158c0,0.594-0.086,1.105-0.257,1.533c-0.173,0.426-0.433,0.748-0.783,0.967
				C192.361,50.461,191.918,50.573,191.382,50.573"/>
		</g>
	</g>
	<rect x="195.244" y="42.454" fill="#86959D" width="0.847" height="7.992"/>
</g>
</svg>
