<?xml version="1.0" encoding="utf-8"?>
<!-- Generator: Adobe Illustrator 15.0.0, SVG Export Plug-In . SVG Version: 6.00 Build 0)  -->
<!DOCTYPE svg PUBLIC "-//W3C//DTD SVG 1.1//EN" "http://www.w3.org/Graphics/SVG/1.1/DTD/svg11.dtd">
<svg version="1.1" id="Layer_1" xmlns="http://www.w3.org/2000/svg" xmlns:xlink="http://www.w3.org/1999/xlink" x="0px" y="0px"
	 width="257.82px" height="84.385px" viewBox="0 0 257.82 84.385" enable-background="new 0 0 257.82 84.385" xml:space="preserve">
<g>
	<g>
		<rect y="-1.238" fill-rule="evenodd" clip-rule="evenodd" fill="#292723" width="257.82" height="86.82"/>
		<g>
			<g>
				<polygon fill-rule="evenodd" clip-rule="evenodd" fill="#FFFFFF" points="19.585,55.302 24,55.302 24,54.544 20.652,54.544 
					20.652,51.026 23.704,51.026 23.704,50.294 20.652,50.294 20.652,47.125 23.871,47.125 23.871,46.416 19.585,46.416 				"/>
				<polygon fill-rule="evenodd" clip-rule="evenodd" fill="#FFFFFF" points="24.603,55.302 25.646,55.302 27.281,52.804 
					28.955,55.302 30.102,55.302 27.938,52.099 29.867,49.174 28.852,49.174 27.436,51.323 26.005,49.174 24.859,49.174 
					26.766,52.045 				"/>
				<path fill-rule="evenodd" clip-rule="evenodd" fill="#FFFFFF" d="M35.382,54.646c-0.171,0.049-0.333,0.091-0.487,0.125
					c-0.156,0.036-0.367,0.055-0.632,0.057c-0.628-0.016-1.109-0.203-1.454-0.563c-0.346-0.359-0.583-0.791-0.715-1.299
					c-0.136-0.508-0.197-0.995-0.191-1.463h3.594c0.014-0.188-0.014-0.477-0.081-0.863c-0.065-0.388-0.255-0.747-0.563-1.078
					c-0.312-0.331-0.821-0.508-1.533-0.529c-0.885,0.018-1.522,0.301-1.912,0.854c-0.389,0.555-0.579,1.278-0.571,2.171
					c0.011,1.127,0.288,1.973,0.828,2.538c0.537,0.565,1.272,0.847,2.199,0.848c0.335-0.001,0.612-0.024,0.831-0.069
					c0.219-0.044,0.447-0.102,0.688-0.176V54.646z M31.928,50.938c-0.003-0.123,0.029-0.292,0.103-0.51
					c0.069-0.217,0.202-0.415,0.396-0.597c0.193-0.179,0.471-0.273,0.83-0.286c0.36,0.007,0.631,0.089,0.812,0.245
					c0.18,0.153,0.3,0.339,0.358,0.553c0.058,0.212,0.084,0.411,0.08,0.595H31.928z"/>
				<path fill-rule="evenodd" clip-rule="evenodd" fill="#FFFFFF" d="M41.072,54.659c-0.163,0.047-0.317,0.085-0.462,0.117
					c-0.146,0.033-0.339,0.049-0.579,0.051c-0.59-0.012-1.055-0.177-1.395-0.49c-0.341-0.314-0.585-0.7-0.729-1.159
					c-0.145-0.459-0.215-0.915-0.209-1.364c-0.003-0.349,0.033-0.696,0.114-1.041c0.078-0.346,0.216-0.633,0.415-0.866
					c0.199-0.231,0.479-0.351,0.836-0.361c0.349,0.012,0.6,0.106,0.754,0.286c0.15,0.182,0.242,0.389,0.274,0.623
					c0.035,0.235,0.048,0.439,0.041,0.612h1.105c0.008-0.569-0.153-1.047-0.484-1.433c-0.332-0.386-0.874-0.586-1.627-0.602
					c-0.763,0-1.367,0.252-1.813,0.753c-0.447,0.501-0.675,1.254-0.684,2.26c-0.005,0.646,0.088,1.224,0.285,1.734
					c0.193,0.509,0.515,0.913,0.963,1.21c0.451,0.296,1.055,0.447,1.816,0.454c0.265-0.001,0.507-0.018,0.721-0.057
					c0.217-0.037,0.436-0.091,0.655-0.161V54.659z"/>
				<path fill-rule="evenodd" clip-rule="evenodd" fill="#FFFFFF" d="M46.2,55.302h0.924v-6.128h-0.95v2.625
					c0.002,0.411-0.055,0.833-0.173,1.27c-0.114,0.438-0.291,0.808-0.53,1.112c-0.24,0.306-0.548,0.465-0.919,0.479
					c-0.276-0.005-0.491-0.09-0.65-0.248c-0.164-0.159-0.278-0.355-0.344-0.585c-0.07-0.231-0.105-0.461-0.104-0.688v-3.965h-0.95
					v4.378c-0.002,0.274,0.051,0.555,0.156,0.846c0.103,0.287,0.261,0.533,0.479,0.732c0.218,0.201,0.494,0.303,0.832,0.313
					c0.401,0.003,0.729-0.044,0.985-0.144c0.254-0.099,0.473-0.269,0.654-0.507c0.185-0.238,0.373-0.565,0.564-0.984H46.2V55.302z"
					/>
				<path fill-rule="evenodd" clip-rule="evenodd" fill="#FFFFFF" d="M52.292,54.749c-0.055,0.021-0.128,0.038-0.212,0.053
					c-0.088,0.017-0.209,0.025-0.368,0.025c-0.505-0.014-0.815-0.163-0.929-0.445c-0.112-0.281-0.154-0.609-0.128-0.986v-3.632
					h1.675v-0.59h-1.675V47.14l-0.95,0.584v1.45h-1.081v0.59h1.081v4.136c-0.01,0.549,0.138,0.945,0.436,1.187
					c0.299,0.244,0.763,0.362,1.391,0.357c0.125,0,0.245-0.001,0.361-0.007c0.116-0.004,0.248-0.02,0.399-0.046V54.749z"/>
				<path fill-rule="evenodd" clip-rule="evenodd" fill="#FFFFFF" d="M53.7,55.302h0.951v-6.128H53.7V55.302z M53.633,47.575h1.082
					v-1.159h-1.082V47.575z"/>
				<polygon fill-rule="evenodd" clip-rule="evenodd" fill="#FFFFFF" points="58.258,55.302 59.144,55.302 61.346,49.174 
					60.419,49.174 58.746,54.015 56.879,49.174 55.824,49.174 				"/>
				<path fill-rule="evenodd" clip-rule="evenodd" fill="#FFFFFF" d="M66.582,54.646c-0.171,0.049-0.333,0.091-0.486,0.125
					c-0.156,0.036-0.366,0.055-0.634,0.057c-0.625-0.016-1.108-0.203-1.452-0.563c-0.345-0.359-0.582-0.791-0.717-1.299
					c-0.134-0.508-0.193-0.995-0.188-1.463h3.593c0.014-0.188-0.013-0.477-0.082-0.863c-0.064-0.388-0.254-0.747-0.563-1.078
					c-0.31-0.331-0.821-0.508-1.531-0.529c-0.887,0.018-1.524,0.301-1.913,0.854c-0.391,0.555-0.581,1.278-0.571,2.171
					c0.012,1.127,0.287,1.973,0.827,2.538c0.538,0.565,1.271,0.847,2.199,0.848c0.336-0.001,0.614-0.024,0.83-0.069
					c0.22-0.044,0.449-0.102,0.688-0.176V54.646z M63.131,50.938c-0.006-0.123,0.028-0.292,0.101-0.51
					c0.069-0.217,0.201-0.415,0.396-0.597c0.193-0.179,0.469-0.273,0.83-0.286c0.36,0.007,0.63,0.089,0.81,0.245
					c0.182,0.153,0.302,0.339,0.358,0.553c0.061,0.212,0.087,0.411,0.082,0.595H63.131z"/>
				<path fill-rule="evenodd" clip-rule="evenodd" fill="#FFFFFF" d="M71.683,55.302h1.468c0.905,0.016,1.689-0.09,2.347-0.315
					c0.661-0.224,1.168-0.663,1.526-1.313c0.357-0.65,0.539-1.605,0.544-2.865c-0.001-1.113-0.161-1.99-0.481-2.633
					c-0.32-0.641-0.796-1.097-1.432-1.365c-0.634-0.27-1.422-0.399-2.361-0.394h-1.61V55.302z M72.752,47.125h0.67
					c0.665-0.012,1.219,0.087,1.664,0.296c0.445,0.207,0.78,0.589,1.004,1.143c0.222,0.555,0.333,1.345,0.333,2.374
					c0.013,1.254-0.208,2.171-0.669,2.749s-1.238,0.865-2.332,0.857h-0.67V47.125z"/>
				<path fill-rule="evenodd" clip-rule="evenodd" fill="#FFFFFF" d="M83.352,54.646c-0.169,0.049-0.33,0.091-0.485,0.125
					c-0.157,0.036-0.367,0.055-0.632,0.057c-0.627-0.016-1.111-0.203-1.453-0.563c-0.345-0.359-0.581-0.791-0.715-1.299
					c-0.135-0.508-0.198-0.995-0.192-1.463h3.595c0.015-0.188-0.015-0.477-0.082-0.863c-0.066-0.388-0.254-0.747-0.563-1.078
					s-0.82-0.508-1.532-0.529c-0.887,0.018-1.524,0.301-1.912,0.854c-0.39,0.555-0.58,1.278-0.572,2.171
					c0.012,1.127,0.286,1.973,0.827,2.538s1.271,0.847,2.2,0.848c0.334-0.001,0.612-0.024,0.832-0.069
					c0.219-0.044,0.445-0.102,0.685-0.176V54.646z M79.901,50.938c-0.005-0.123,0.029-0.292,0.1-0.51
					c0.071-0.217,0.204-0.415,0.396-0.597c0.194-0.179,0.472-0.273,0.832-0.286c0.359,0.007,0.63,0.089,0.81,0.245
					c0.181,0.153,0.301,0.339,0.359,0.553c0.058,0.212,0.086,0.411,0.081,0.595H79.901z"/>
				<polygon fill-rule="evenodd" clip-rule="evenodd" fill="#FFFFFF" points="86.561,55.302 87.449,55.302 89.65,49.174 
					88.723,49.174 87.05,54.015 85.184,49.174 84.127,49.174 				"/>
				<path fill-rule="evenodd" clip-rule="evenodd" fill="#FFFFFF" d="M94.886,54.646c-0.171,0.049-0.332,0.091-0.486,0.125
					c-0.158,0.036-0.368,0.055-0.634,0.057c-0.626-0.016-1.109-0.203-1.454-0.563c-0.343-0.359-0.58-0.791-0.714-1.299
					s-0.195-0.995-0.19-1.463H95c0.014-0.188-0.014-0.477-0.081-0.863c-0.065-0.388-0.256-0.747-0.563-1.078
					c-0.31-0.331-0.82-0.508-1.531-0.529c-0.887,0.018-1.525,0.301-1.914,0.854c-0.389,0.555-0.578,1.278-0.57,2.171
					c0.01,1.127,0.288,1.973,0.827,2.538s1.271,0.847,2.198,0.848c0.337-0.001,0.615-0.024,0.833-0.069
					c0.219-0.044,0.446-0.102,0.688-0.176V54.646z M91.433,50.938c-0.002-0.123,0.031-0.292,0.102-0.51
					c0.07-0.217,0.203-0.415,0.395-0.597c0.192-0.179,0.47-0.273,0.831-0.286c0.36,0.007,0.631,0.089,0.811,0.245
					c0.18,0.153,0.303,0.339,0.359,0.553c0.059,0.212,0.084,0.411,0.079,0.595H91.433z"/>
				<rect x="96.624" y="46.416" fill-rule="evenodd" clip-rule="evenodd" fill="#FFFFFF" width="0.95" height="8.886"/>
				<path fill-rule="evenodd" clip-rule="evenodd" fill="#FFFFFF" d="M101.851,55.443c0.913-0.007,1.587-0.282,2.02-0.827
					c0.434-0.544,0.649-1.314,0.646-2.315c0.004-0.992-0.212-1.782-0.646-2.369c-0.433-0.585-1.106-0.886-2.02-0.899
					c-0.908,0.014-1.571,0.314-1.985,0.899c-0.414,0.587-0.62,1.377-0.614,2.369c-0.006,1.001,0.2,1.771,0.614,2.315
					C100.279,55.161,100.942,55.437,101.851,55.443z M100.317,52.341c-0.005-0.458,0.031-0.897,0.106-1.321
					c0.076-0.423,0.224-0.771,0.446-1.048c0.223-0.275,0.55-0.415,0.98-0.427c0.438,0.012,0.771,0.151,1.006,0.427
					c0.231,0.276,0.389,0.625,0.474,1.048c0.085,0.424,0.124,0.863,0.12,1.321c0.004,0.43-0.035,0.842-0.12,1.231
					c-0.085,0.394-0.242,0.714-0.474,0.967c-0.235,0.253-0.567,0.383-1.006,0.392c-0.431-0.009-0.758-0.139-0.98-0.392
					s-0.37-0.573-0.446-0.967C100.349,53.183,100.313,52.771,100.317,52.341z"/>
				<path fill-rule="evenodd" clip-rule="evenodd" fill="#FFFFFF" d="M106.128,58.058h0.951v-3.849h0.024
					c0.046,0.136,0.124,0.301,0.238,0.492c0.112,0.19,0.28,0.359,0.503,0.509c0.225,0.146,0.521,0.226,0.896,0.233
					c0.527-0.007,0.952-0.15,1.279-0.432c0.324-0.277,0.563-0.653,0.714-1.124s0.224-0.995,0.223-1.572
					c0.001-0.98-0.174-1.772-0.526-2.365c-0.351-0.597-0.892-0.9-1.624-0.918c-0.332,0.006-0.614,0.09-0.85,0.243
					c-0.238,0.155-0.427,0.335-0.569,0.538c-0.139,0.205-0.236,0.383-0.283,0.544h-0.024v-1.184h-0.951V58.058z M107.079,52.185
					c0.001-0.423,0.066-0.828,0.193-1.213c0.125-0.383,0.302-0.698,0.521-0.943c0.222-0.245,0.479-0.371,0.769-0.381
					c0.443,0.017,0.776,0.271,0.997,0.76c0.221,0.486,0.328,1.119,0.328,1.895c0.004,0.393-0.031,0.78-0.107,1.165
					c-0.076,0.384-0.207,0.704-0.401,0.961c-0.19,0.257-0.459,0.39-0.805,0.399c-0.378-0.016-0.679-0.179-0.897-0.485
					s-0.372-0.665-0.464-1.069C107.12,52.864,107.076,52.501,107.079,52.185z"/>
				<path fill-rule="evenodd" clip-rule="evenodd" fill="#FFFFFF" d="M112.569,55.302h0.949v-2.626
					c-0.001-0.408,0.055-0.833,0.168-1.268c0.112-0.438,0.286-0.811,0.519-1.115c0.234-0.306,0.533-0.464,0.898-0.478
					c0.279,0.008,0.477,0.09,0.6,0.248c0.119,0.161,0.193,0.355,0.22,0.586c0.026,0.232,0.037,0.461,0.033,0.687v3.966h0.95v-2.757
					c-0.001-0.349,0.053-0.733,0.163-1.152c0.111-0.421,0.282-0.783,0.513-1.09c0.232-0.309,0.532-0.472,0.895-0.487
					c0.282,0.01,0.485,0.09,0.608,0.248s0.198,0.342,0.224,0.552c0.027,0.21,0.038,0.399,0.033,0.565v4.121h0.952v-4.546
					c0-0.512-0.123-0.925-0.368-1.238c-0.247-0.315-0.617-0.478-1.113-0.485c-0.389,0.014-0.715,0.119-0.974,0.321
					c-0.261,0.204-0.464,0.43-0.613,0.681c-0.146,0.25-0.242,0.452-0.294,0.605h-0.025c0.001-0.232-0.047-0.477-0.145-0.719
					c-0.095-0.248-0.253-0.453-0.468-0.625c-0.216-0.168-0.5-0.258-0.855-0.264c-0.528,0.021-0.942,0.198-1.24,0.533
					c-0.297,0.336-0.527,0.705-0.68,1.113h-0.024v-1.505h-0.925V55.302z"/>
				<path fill-rule="evenodd" clip-rule="evenodd" fill="#FFFFFF" d="M126.437,54.646c-0.169,0.049-0.331,0.091-0.486,0.125
					c-0.155,0.036-0.366,0.055-0.632,0.057c-0.625-0.016-1.111-0.203-1.454-0.563c-0.345-0.359-0.58-0.791-0.712-1.299
					c-0.135-0.508-0.199-0.995-0.193-1.463h3.595c0.013-0.188-0.015-0.477-0.081-0.863c-0.067-0.388-0.257-0.747-0.565-1.078
					c-0.308-0.331-0.818-0.508-1.53-0.529c-0.887,0.018-1.525,0.301-1.914,0.854c-0.389,0.555-0.579,1.278-0.569,2.171
					c0.01,1.127,0.285,1.973,0.825,2.538c0.539,0.565,1.272,0.847,2.199,0.848c0.337-0.001,0.613-0.024,0.834-0.069
					c0.216-0.044,0.444-0.102,0.685-0.176V54.646z M122.985,50.938c-0.004-0.123,0.029-0.292,0.1-0.51
					c0.071-0.217,0.204-0.415,0.397-0.597c0.192-0.179,0.472-0.273,0.83-0.286c0.36,0.007,0.631,0.089,0.81,0.245
					c0.18,0.153,0.301,0.339,0.359,0.553c0.059,0.212,0.087,0.411,0.083,0.595H122.985z"/>
				<path fill-rule="evenodd" clip-rule="evenodd" fill="#FFFFFF" d="M128.137,55.302h0.951v-2.626c0-0.408,0.067-0.833,0.199-1.268
					c0.133-0.438,0.338-0.811,0.613-1.115c0.276-0.306,0.63-0.464,1.058-0.478c0.278,0.008,0.478,0.09,0.599,0.248
					c0.123,0.161,0.193,0.355,0.219,0.586c0.028,0.232,0.039,0.461,0.034,0.687v3.966h0.95V50.64
					c0.001-0.232-0.045-0.477-0.143-0.719c-0.097-0.248-0.253-0.453-0.469-0.625c-0.215-0.168-0.502-0.258-0.856-0.264
					c-0.597,0.021-1.067,0.198-1.414,0.533c-0.345,0.336-0.608,0.705-0.79,1.113h-0.023v-1.505h-0.928V55.302z"/>
				<path fill-rule="evenodd" clip-rule="evenodd" fill="#FFFFFF" d="M137.876,54.749c-0.057,0.021-0.125,0.038-0.213,0.053
					c-0.088,0.017-0.21,0.025-0.368,0.025c-0.507-0.014-0.816-0.163-0.928-0.445c-0.113-0.281-0.154-0.609-0.128-0.986v-3.632h1.674
					v-0.59h-1.674V47.14l-0.95,0.584v1.45h-1.082v0.59h1.082v4.136c-0.01,0.549,0.137,0.945,0.435,1.187
					c0.298,0.244,0.763,0.362,1.392,0.357c0.125,0,0.245-0.001,0.362-0.007c0.113-0.004,0.249-0.02,0.398-0.046V54.749z"/>
				<polygon fill-rule="evenodd" clip-rule="evenodd" fill="#FFFFFF" points="142.632,55.302 146.815,55.302 146.815,54.544 
					143.698,54.544 143.698,46.416 142.632,46.416 				"/>
				<path fill-rule="evenodd" clip-rule="evenodd" fill="#FFFFFF" d="M150.901,54.749c-0.056,0.021-0.127,0.038-0.215,0.053
					c-0.088,0.017-0.21,0.025-0.366,0.025c-0.509-0.014-0.816-0.163-0.929-0.445c-0.112-0.281-0.154-0.609-0.126-0.986v-3.632h1.673
					v-0.59h-1.673V47.14l-0.952,0.584v1.45h-1.083v0.59h1.083v4.136c-0.01,0.549,0.136,0.945,0.437,1.187
					c0.298,0.244,0.762,0.362,1.391,0.357c0.125,0,0.243-0.001,0.359-0.007c0.118-0.004,0.248-0.02,0.401-0.046V54.749z"/>
				<path fill-rule="evenodd" clip-rule="evenodd" fill="#FFFFFF" d="M155.694,55.302h0.95v-8.886h-0.95v3.852h-0.026
					c-0.041-0.134-0.121-0.296-0.235-0.489c-0.112-0.189-0.282-0.359-0.508-0.51c-0.226-0.148-0.526-0.229-0.903-0.236
					c-0.516,0.006-0.936,0.155-1.261,0.446c-0.323,0.289-0.563,0.675-0.715,1.159c-0.153,0.484-0.229,1.022-0.228,1.612
					c-0.007,0.554,0.051,1.073,0.17,1.554c0.12,0.482,0.33,0.875,0.634,1.174c0.3,0.303,0.724,0.455,1.269,0.466
					c0.376-0.011,0.688-0.093,0.937-0.253c0.248-0.16,0.438-0.34,0.576-0.545c0.134-0.205,0.225-0.381,0.265-0.526h0.026V55.302z
					 M152.884,52.315c-0.001-0.44,0.036-0.859,0.114-1.267c0.08-0.401,0.214-0.735,0.404-0.996c0.189-0.259,0.451-0.396,0.782-0.405
					c0.382,0.019,0.682,0.179,0.901,0.482c0.222,0.304,0.378,0.646,0.471,1.029c0.094,0.384,0.141,0.707,0.138,0.962
					c-0.007,0.782-0.149,1.422-0.435,1.916c-0.283,0.492-0.666,0.749-1.152,0.763c-0.321-0.008-0.571-0.134-0.75-0.379
					c-0.179-0.242-0.305-0.553-0.372-0.931C152.915,53.115,152.883,52.722,152.884,52.315z"/>
			</g>
			<g>
				<path fill-rule="evenodd" clip-rule="evenodd" fill="#FFFFFF" d="M35.681,22.24v12.153c0,1.243-0.064,2.286-0.188,3.133
					c-0.123,0.844-0.412,1.638-0.867,2.378c-0.454,0.741-1.163,1.329-2.127,1.765c-0.965,0.433-2.232,0.65-3.802,0.65
					c-1.671,0-3.031-0.261-4.083-0.78c-1.051-0.521-1.809-1.28-2.272-2.278c-0.464-0.999-0.694-2.253-0.694-3.761v-9.385
					c0-0.878-0.048-1.48-0.144-1.805c-0.097-0.324-0.317-0.55-0.669-0.673c-0.347-0.127-1.058-0.26-2.13-0.402v-0.644l6.171-0.673
					v12.127c0,1.117,0.027,2.025,0.078,2.721c0.054,0.699,0.215,1.379,0.48,2.044c0.269,0.665,0.691,1.188,1.277,1.563
					c0.585,0.376,1.366,0.565,2.353,0.565c1.079,0,1.933-0.175,2.559-0.522c0.627-0.35,1.073-0.809,1.342-1.378
					c0.268-0.568,0.434-1.183,0.501-1.843c0.069-0.659,0.102-1.486,0.102-2.48V22.24H35.681z"/>
				<path fill-rule="evenodd" clip-rule="evenodd" fill="#FFFFFF" d="M51.168,22.449v2.181c-0.574-0.295-1.333-0.594-2.284-0.889
					c-0.95-0.296-1.937-0.443-2.956-0.443c-0.832,0-1.509,0.242-2.035,0.731c-0.525,0.485-0.786,1.192-0.786,2.117
					c0,0.983,0.349,1.749,1.052,2.292c0.701,0.545,1.871,1.245,3.502,2.098c1.633,0.855,2.874,1.715,3.718,2.58
					c0.846,0.864,1.269,2.002,1.269,3.416c0,1.969-0.682,3.424-2.043,4.369c-1.36,0.946-3.135,1.418-5.322,1.418
					c-0.624,0-1.294-0.049-2.016-0.143c-0.72-0.094-1.352-0.202-1.892-0.32s-0.954-0.22-1.24-0.306v-2.372
					c2.033,1.173,3.906,1.761,5.615,1.761c1.07,0,1.95-0.265,2.636-0.788c0.688-0.525,1.032-1.405,1.032-2.639
					c0-1.05-0.375-1.88-1.125-2.487c-0.747-0.604-1.927-1.332-3.529-2.178c-1.605-0.847-2.821-1.688-3.647-2.53
					c-0.825-0.841-1.239-1.947-1.239-3.326c0-1.07,0.263-1.983,0.787-2.745c0.527-0.759,1.282-1.337,2.271-1.733
					c0.991-0.397,2.174-0.594,3.549-0.594c0.458,0,0.907,0.017,1.346,0.05c0.438,0.032,0.907,0.083,1.398,0.149
					c0.492,0.066,0.92,0.134,1.289,0.201C50.883,22.386,51.101,22.431,51.168,22.449z"/>
				<path fill-rule="evenodd" clip-rule="evenodd" fill="#FFFFFF" d="M56.731,41.994v-15.77c0-1.067-0.047-1.784-0.135-2.148
					c-0.092-0.361-0.304-0.613-0.639-0.744c-0.334-0.135-1.003-0.282-2.007-0.444V22.24h8.708c4.639,0,6.96,1.583,6.96,4.747
					c0,2.207-1.174,3.697-3.514,4.473v0.058c1.287,0.249,2.362,0.761,3.223,1.534c0.857,0.775,1.29,2.001,1.29,3.683
					c0,1.224-0.298,2.207-0.897,2.947c-0.596,0.741-1.33,1.271-2.196,1.591c-0.87,0.322-1.73,0.521-2.575,0.604
					c-0.846,0.079-1.746,0.118-2.699,0.118H56.731z M59.96,25.139v5.731h1.968c1.389,0,2.477-0.281,3.271-0.845
					c0.794-0.565,1.19-1.522,1.19-2.878c0-1.282-0.345-2.189-1.033-2.725c-0.689-0.535-1.735-0.803-3.142-0.803
					c-0.938,0-1.55,0.08-1.83,0.244C60.102,24.026,59.96,24.451,59.96,25.139z M59.96,32.25v7.164c0,0.545,0.218,0.878,0.653,1.009
					c0.437,0.13,1.153,0.193,2.158,0.193c1.615,0,2.788-0.363,3.52-1.089c0.732-0.725,1.098-1.843,1.098-3.352
					c0-1.365-0.442-2.362-1.327-2.987c-0.885-0.624-2.028-0.938-3.436-0.938H59.96z"/>
			</g>
			<g>
				<path fill-rule="evenodd" clip-rule="evenodd" fill="#FFFFFF" d="M74.267,33.69c0-4.443,8.543-8.046,8.543-8.046
					s3.453,1.451,5.968,3.651c-1.442,1.262-2.579,2.77-2.579,4.389c0,1.621,1.137,3.13,2.579,4.391
					c-2.515,2.203-5.968,3.66-5.968,3.66S74.267,38.134,74.267,33.69z"/>
				<path fill-rule="evenodd" clip-rule="evenodd" fill="#FFFFFF" d="M94.734,25.643c0,0,3.453,1.456,5.971,3.659
					c-1.439,1.261-2.571,2.768-2.571,4.383c0,1.621,1.137,3.13,2.577,4.391c-2.514,2.205-5.977,3.658-5.977,3.658
					s-3.448-1.458-5.963-3.66c1.443-1.261,2.582-2.77,2.582-4.391c0-1.62-1.139-3.127-2.582-4.39
					C91.286,27.095,94.734,25.643,94.734,25.643z"/>
				<path fill-rule="evenodd" clip-rule="evenodd" fill="#FFFFFF" d="M100.716,29.296c2.515-2.199,5.964-3.651,5.964-3.651
					s8.547,3.603,8.547,8.046s-8.547,8.045-8.547,8.045s-3.446-1.458-5.964-3.66c1.443-1.261,2.581-2.77,2.581-4.391
					C103.297,32.065,102.159,30.558,100.716,29.296z"/>
				<g>
					<circle fill-rule="evenodd" clip-rule="evenodd" fill="#FFFFFF" cx="95.07" cy="19.301" r="2.684"/>
					<circle fill-rule="evenodd" clip-rule="evenodd" fill="#FFFFFF" cx="83.136" cy="19.401" r="2.686"/>
					<circle fill-rule="evenodd" clip-rule="evenodd" fill="#FFFFFF" cx="107.006" cy="19.416" r="2.684"/>
				</g>
			</g>
			<g>
				<path fill-rule="evenodd" clip-rule="evenodd" fill="#FFFFFF" d="M24.282,61.042h-0.821v4.236
					c0.009,0.31-0.006,0.633-0.05,0.964c-0.043,0.331-0.166,0.615-0.369,0.848c-0.198,0.231-0.53,0.353-0.992,0.362
					c-0.471-0.01-0.806-0.131-1.009-0.362c-0.203-0.232-0.326-0.517-0.372-0.848c-0.045-0.331-0.062-0.654-0.053-0.964v-4.236
					h-0.818v4.257c-0.016,0.356,0.013,0.739,0.081,1.147c0.07,0.411,0.261,0.762,0.576,1.057c0.316,0.295,0.837,0.448,1.563,0.462
					c0.74-0.014,1.271-0.167,1.594-0.462c0.32-0.295,0.514-0.646,0.586-1.057c0.067-0.408,0.097-0.791,0.084-1.147V61.042z"/>
				<path fill-rule="evenodd" clip-rule="evenodd" fill="#FFFFFF" d="M25.945,67.856h0.729v-2.016
					c-0.001-0.313,0.052-0.639,0.151-0.973c0.104-0.334,0.26-0.62,0.471-0.854c0.213-0.233,0.483-0.356,0.811-0.365
					c0.213,0.007,0.366,0.067,0.46,0.19c0.094,0.121,0.147,0.271,0.17,0.448c0.018,0.179,0.028,0.354,0.024,0.526v3.043h0.729V64.28
					c0-0.18-0.035-0.364-0.11-0.552c-0.075-0.189-0.193-0.349-0.359-0.479c-0.167-0.129-0.384-0.198-0.657-0.203
					c-0.456,0.016-0.82,0.153-1.086,0.411c-0.265,0.256-0.465,0.541-0.604,0.853h-0.021v-1.154h-0.709V67.856z"/>
				<path fill-rule="evenodd" clip-rule="evenodd" fill="#FFFFFF" d="M31.205,67.856h0.728v-4.701h-0.728V67.856z M31.154,61.931
					h0.828v-0.889h-0.828V61.931z"/>
				<polygon fill-rule="evenodd" clip-rule="evenodd" fill="#FFFFFF" points="34.797,67.856 35.479,67.856 37.168,63.155 
					36.458,63.155 35.172,66.87 33.739,63.155 32.93,63.155 				"/>
				<path fill-rule="evenodd" clip-rule="evenodd" fill="#FFFFFF" d="M41.28,67.353c-0.129,0.037-0.254,0.068-0.373,0.096
					c-0.118,0.027-0.279,0.043-0.484,0.043c-0.479-0.012-0.85-0.154-1.116-0.43c-0.262-0.275-0.445-0.606-0.545-0.998
					c-0.104-0.389-0.152-0.764-0.146-1.121h2.754c0.012-0.144-0.01-0.365-0.061-0.662c-0.052-0.297-0.196-0.573-0.433-0.829
					c-0.237-0.253-0.629-0.388-1.175-0.405c-0.68,0.014-1.17,0.232-1.469,0.658c-0.296,0.424-0.445,0.978-0.438,1.664
					c0.01,0.865,0.222,1.513,0.635,1.947c0.413,0.434,0.975,0.649,1.688,0.649c0.258-0.001,0.47-0.018,0.639-0.054
					c0.167-0.035,0.342-0.078,0.524-0.134V67.353z M38.635,64.509c-0.004-0.095,0.022-0.226,0.076-0.392
					c0.055-0.166,0.154-0.319,0.304-0.459c0.148-0.136,0.361-0.21,0.638-0.218c0.275,0.006,0.483,0.066,0.622,0.187
					c0.136,0.119,0.229,0.261,0.275,0.425c0.045,0.164,0.065,0.314,0.061,0.457H38.635z"/>
				<path fill-rule="evenodd" clip-rule="evenodd" fill="#FFFFFF" d="M42.686,67.856h0.729v-2.223
					c-0.004-0.293,0.036-0.569,0.117-0.828c0.078-0.265,0.213-0.479,0.408-0.643c0.194-0.166,0.459-0.254,0.798-0.259h0.208v-0.858
					c-0.253,0.005-0.48,0.074-0.677,0.203c-0.202,0.131-0.37,0.289-0.51,0.477s-0.248,0.369-0.324,0.545h-0.021v-1.115h-0.729
					V67.856z"/>
				<path fill-rule="evenodd" clip-rule="evenodd" fill="#FFFFFF" d="M48.137,63.214c-0.094-0.023-0.24-0.058-0.431-0.097
					c-0.192-0.042-0.413-0.066-0.664-0.071c-0.534,0.002-0.934,0.115-1.204,0.339c-0.27,0.222-0.406,0.538-0.406,0.944
					c0.017,0.387,0.154,0.677,0.413,0.869c0.264,0.189,0.55,0.365,0.86,0.525c0.284,0.152,0.522,0.3,0.713,0.438
					c0.191,0.138,0.289,0.321,0.296,0.55c-0.007,0.266-0.103,0.458-0.289,0.582c-0.188,0.12-0.42,0.181-0.697,0.181
					c-0.319-0.017-0.603-0.082-0.852-0.202s-0.402-0.2-0.462-0.245v0.739c0.111,0.05,0.271,0.092,0.48,0.134
					s0.472,0.063,0.791,0.065c0.616-0.012,1.063-0.153,1.343-0.421c0.281-0.27,0.42-0.594,0.417-0.971
					c-0.006-0.326-0.083-0.582-0.234-0.777c-0.15-0.19-0.344-0.35-0.576-0.479c-0.419-0.23-0.773-0.425-1.061-0.582
					c-0.281-0.154-0.431-0.367-0.439-0.633c0.006-0.193,0.086-0.334,0.242-0.426c0.158-0.093,0.347-0.138,0.566-0.138
					c0.283,0.011,0.53,0.062,0.746,0.155c0.216,0.092,0.363,0.166,0.447,0.221V63.214z"/>
				<path fill-rule="evenodd" clip-rule="evenodd" fill="#FFFFFF" d="M49.545,67.856h0.729v-4.701h-0.729V67.856z M49.496,61.931
					h0.827v-0.889h-0.827V61.931z"/>
				<path fill-rule="evenodd" clip-rule="evenodd" fill="#FFFFFF" d="M54.335,67.433c-0.044,0.016-0.098,0.029-0.164,0.041
					c-0.065,0.01-0.16,0.018-0.281,0.018c-0.39-0.01-0.626-0.124-0.714-0.341c-0.085-0.216-0.118-0.468-0.098-0.756v-2.785h1.287
					v-0.454h-1.287v-1.563l-0.729,0.449v1.113h-0.829v0.454h0.829v3.171c-0.006,0.42,0.106,0.726,0.335,0.912
					c0.229,0.184,0.583,0.275,1.067,0.272c0.095,0,0.188-0.001,0.276-0.003c0.089-0.007,0.189-0.018,0.307-0.036V67.433z"/>
				<polygon fill-rule="evenodd" clip-rule="evenodd" fill="#FFFFFF" points="55.966,69.743 56.63,69.743 59.021,63.155 
					58.279,63.155 56.993,66.851 55.563,63.155 54.741,63.155 56.607,67.886 				"/>
				<path fill-rule="evenodd" clip-rule="evenodd" fill="#FFFFFF" d="M64.29,67.965c0.699-0.003,1.214-0.216,1.549-0.635
					c0.333-0.418,0.497-1.008,0.495-1.774c0.002-0.762-0.162-1.367-0.495-1.818c-0.335-0.449-0.85-0.68-1.549-0.691
					c-0.698,0.012-1.208,0.242-1.524,0.691c-0.318,0.451-0.476,1.057-0.471,1.818c-0.005,0.767,0.152,1.356,0.471,1.774
					C63.082,67.749,63.592,67.962,64.29,67.965z M63.114,65.585c-0.006-0.352,0.021-0.688,0.08-1.014
					c0.058-0.326,0.171-0.593,0.342-0.803c0.171-0.212,0.421-0.321,0.754-0.328c0.336,0.007,0.591,0.116,0.77,0.328
					c0.178,0.21,0.3,0.477,0.366,0.803c0.062,0.326,0.094,0.662,0.089,1.014c0.005,0.328-0.027,0.645-0.089,0.945
					c-0.066,0.301-0.188,0.548-0.366,0.741c-0.179,0.193-0.434,0.292-0.77,0.298c-0.333-0.006-0.583-0.104-0.754-0.298
					s-0.284-0.44-0.342-0.741C63.136,66.229,63.108,65.913,63.114,65.585z"/>
				<path fill-rule="evenodd" clip-rule="evenodd" fill="#FFFFFF" d="M68.064,67.856h0.729v-4.247h1.362v-0.454h-1.362v-0.572
					c-0.014-0.259,0.034-0.502,0.151-0.729c0.112-0.23,0.382-0.354,0.808-0.371c0.162,0.004,0.304,0.026,0.425,0.069
					c0.122,0.039,0.232,0.084,0.337,0.13V61.1c-0.088-0.017-0.195-0.034-0.324-0.056c-0.127-0.019-0.285-0.031-0.476-0.031
					c-0.494,0.004-0.858,0.09-1.095,0.261c-0.239,0.167-0.391,0.392-0.463,0.669c-0.068,0.275-0.101,0.579-0.092,0.906v0.307h-0.87
					v0.454h0.87V67.856z"/>
				<path fill-rule="evenodd" clip-rule="evenodd" fill="#FFFFFF" d="M77.025,61.1c-0.148-0.032-0.36-0.067-0.64-0.105
					c-0.275-0.039-0.553-0.058-0.831-0.061c-0.661,0.001-1.181,0.149-1.561,0.447c-0.38,0.294-0.573,0.717-0.582,1.271
					c0.01,0.442,0.123,0.796,0.34,1.059c0.219,0.264,0.483,0.474,0.795,0.63c0.343,0.177,0.668,0.35,0.978,0.513
					c0.31,0.16,0.565,0.347,0.763,0.554c0.196,0.206,0.299,0.468,0.304,0.782c-0.004,0.391-0.13,0.686-0.376,0.89
					c-0.25,0.201-0.593,0.304-1.027,0.306c-0.338-0.01-0.661-0.068-0.968-0.174c-0.308-0.109-0.554-0.209-0.74-0.301v0.848
					c0.089,0.031,0.273,0.072,0.554,0.123c0.278,0.051,0.622,0.082,1.027,0.085c0.688,0.002,1.258-0.151,1.709-0.462
					c0.45-0.315,0.684-0.804,0.701-1.473c0-0.43-0.093-0.763-0.275-1c-0.184-0.234-0.46-0.469-0.831-0.701
					c-0.309-0.189-0.63-0.365-0.961-0.522c-0.331-0.162-0.612-0.343-0.845-0.546c-0.229-0.201-0.35-0.466-0.359-0.789
					c0.005-0.297,0.116-0.535,0.332-0.717c0.215-0.182,0.502-0.275,0.864-0.278c0.339,0.005,0.655,0.059,0.948,0.153
					c0.294,0.095,0.522,0.182,0.682,0.26V61.1z"/>
				<path fill-rule="evenodd" clip-rule="evenodd" fill="#FFFFFF" d="M81.023,67.433c-0.042,0.016-0.097,0.029-0.162,0.041
					c-0.065,0.01-0.161,0.018-0.281,0.018c-0.389-0.01-0.626-0.124-0.713-0.341c-0.085-0.216-0.119-0.468-0.098-0.756v-2.785h1.285
					v-0.454H79.77v-1.563l-0.729,0.449v1.113h-0.829v0.454h0.829v3.171c-0.005,0.42,0.104,0.726,0.335,0.912
					c0.229,0.184,0.584,0.275,1.067,0.272c0.095,0,0.188-0.001,0.275-0.003c0.091-0.007,0.19-0.018,0.306-0.036V67.433z"/>
				<path fill-rule="evenodd" clip-rule="evenodd" fill="#FFFFFF" d="M85.303,67.353c-0.13,0.037-0.253,0.068-0.372,0.096
					s-0.281,0.043-0.486,0.043c-0.479-0.012-0.849-0.154-1.115-0.43c-0.263-0.275-0.443-0.606-0.547-0.998
					c-0.102-0.389-0.149-0.764-0.146-1.121h2.758c0.009-0.144-0.012-0.365-0.063-0.662c-0.05-0.297-0.195-0.573-0.431-0.829
					c-0.237-0.253-0.631-0.388-1.174-0.405c-0.683,0.014-1.172,0.232-1.472,0.658c-0.296,0.424-0.443,0.978-0.437,1.664
					c0.01,0.865,0.221,1.513,0.636,1.947c0.413,0.434,0.975,0.649,1.686,0.649c0.258-0.001,0.472-0.018,0.64-0.054
					c0.165-0.035,0.343-0.078,0.524-0.134V67.353z M82.656,64.509c-0.004-0.095,0.021-0.226,0.077-0.392
					c0.053-0.166,0.154-0.319,0.302-0.459c0.149-0.136,0.361-0.21,0.64-0.218c0.274,0.006,0.483,0.066,0.62,0.187
					c0.139,0.119,0.231,0.261,0.276,0.425c0.044,0.164,0.064,0.314,0.063,0.457H82.656z"/>
				<rect x="86.735" y="61.042" fill-rule="evenodd" clip-rule="evenodd" fill="#FFFFFF" width="0.732" height="6.814"/>
				<rect x="89.216" y="61.042" fill-rule="evenodd" clip-rule="evenodd" fill="#FFFFFF" width="0.73" height="6.814"/>
				<path fill-rule="evenodd" clip-rule="evenodd" fill="#FFFFFF" d="M94.807,67.353c-0.132,0.037-0.256,0.068-0.377,0.096
					c-0.117,0.027-0.277,0.043-0.481,0.043c-0.482-0.012-0.852-0.154-1.117-0.43c-0.263-0.275-0.444-0.606-0.547-0.998
					c-0.102-0.389-0.152-0.764-0.147-1.121h2.757c0.011-0.144-0.008-0.365-0.063-0.662c-0.051-0.297-0.193-0.573-0.432-0.829
					c-0.238-0.253-0.628-0.388-1.175-0.405c-0.68,0.014-1.17,0.232-1.469,0.658c-0.296,0.424-0.443,0.978-0.437,1.664
					c0.01,0.865,0.22,1.513,0.635,1.947c0.413,0.434,0.976,0.649,1.687,0.649c0.26-0.001,0.472-0.018,0.638-0.054
					c0.169-0.035,0.343-0.078,0.528-0.134V67.353z M92.156,64.509c-0.002-0.095,0.024-0.226,0.076-0.392
					c0.057-0.166,0.16-0.319,0.306-0.459c0.147-0.136,0.36-0.21,0.638-0.218c0.277,0.006,0.485,0.066,0.622,0.187
					c0.138,0.119,0.23,0.261,0.275,0.425s0.065,0.314,0.063,0.457H92.156z"/>
				<path fill-rule="evenodd" clip-rule="evenodd" fill="#FFFFFF" d="M96.209,67.856h0.73v-2.016
					c-0.001-0.313,0.05-0.639,0.153-0.973c0.101-0.334,0.258-0.62,0.469-0.854c0.212-0.233,0.482-0.356,0.811-0.365
					c0.215,0.007,0.368,0.067,0.461,0.19c0.091,0.121,0.147,0.271,0.169,0.448c0.018,0.179,0.026,0.354,0.023,0.526v3.043h0.727
					V64.28c0.003-0.18-0.033-0.364-0.107-0.552c-0.074-0.189-0.193-0.349-0.359-0.479c-0.166-0.129-0.383-0.198-0.654-0.203
					c-0.46,0.016-0.821,0.153-1.088,0.411c-0.264,0.256-0.467,0.541-0.604,0.853h-0.021v-1.154h-0.71V67.856z"/>
				<path fill-rule="evenodd" clip-rule="evenodd" fill="#FFFFFF" d="M102.03,61.042h-0.732v4.554
					c-0.01,0.269,0.013,0.586,0.069,0.952c0.056,0.364,0.215,0.69,0.478,0.973c0.265,0.281,0.696,0.43,1.302,0.444
					c0.617,0.002,1.103-0.199,1.453-0.599c0.349-0.4,0.523-1.012,0.529-1.831c-0.001-0.765-0.146-1.369-0.438-1.811
					c-0.29-0.442-0.719-0.669-1.278-0.679c-0.277,0.005-0.505,0.069-0.691,0.185c-0.185,0.118-0.334,0.248-0.443,0.397
					c-0.107,0.148-0.183,0.274-0.229,0.378h-0.018V61.042z M102.03,65.664c-0.003-0.296,0.033-0.611,0.108-0.939
					c0.076-0.327,0.201-0.607,0.376-0.839c0.176-0.232,0.412-0.354,0.71-0.365c0.287,0.009,0.51,0.118,0.668,0.332
					s0.269,0.477,0.329,0.791c0.063,0.315,0.093,0.629,0.09,0.941c0.003,0.323-0.032,0.627-0.102,0.916
					c-0.067,0.288-0.188,0.524-0.361,0.707c-0.171,0.184-0.409,0.276-0.714,0.283c-0.31-0.008-0.545-0.1-0.705-0.285
					c-0.159-0.184-0.266-0.413-0.321-0.689C102.052,66.239,102.024,65.954,102.03,65.664z"/>
				<path fill-rule="evenodd" clip-rule="evenodd" fill="#FFFFFF" d="M108.125,67.965c0.699-0.003,1.214-0.216,1.549-0.635
					c0.333-0.418,0.497-1.008,0.496-1.774c0.001-0.762-0.163-1.367-0.496-1.818c-0.335-0.449-0.85-0.68-1.549-0.691
					c-0.698,0.012-1.205,0.242-1.523,0.691c-0.32,0.451-0.477,1.057-0.473,1.818c-0.004,0.767,0.152,1.356,0.473,1.774
					C106.92,67.749,107.427,67.962,108.125,67.965z M106.947,65.585c-0.004-0.352,0.023-0.688,0.082-1.014s0.172-0.593,0.342-0.803
					c0.172-0.212,0.422-0.321,0.754-0.328c0.333,0.007,0.592,0.116,0.77,0.328c0.177,0.21,0.298,0.477,0.362,0.803
					c0.066,0.326,0.097,0.662,0.093,1.014c0.004,0.328-0.026,0.645-0.093,0.945c-0.064,0.301-0.186,0.548-0.362,0.741
					c-0.178,0.193-0.437,0.292-0.77,0.298c-0.332-0.006-0.582-0.104-0.754-0.298c-0.17-0.193-0.283-0.44-0.342-0.741
					S106.943,65.913,106.947,65.585z"/>
				<path fill-rule="evenodd" clip-rule="evenodd" fill="#FFFFFF" d="M113.716,63.214c-0.095-0.023-0.242-0.058-0.433-0.097
					c-0.192-0.042-0.413-0.066-0.664-0.071c-0.532,0.002-0.936,0.115-1.205,0.339c-0.269,0.222-0.404,0.538-0.404,0.944
					c0.018,0.387,0.153,0.677,0.415,0.869c0.26,0.189,0.547,0.365,0.858,0.525c0.286,0.152,0.521,0.3,0.713,0.438
					c0.189,0.138,0.289,0.321,0.294,0.55c-0.005,0.266-0.103,0.458-0.287,0.582c-0.188,0.12-0.422,0.181-0.7,0.181
					c-0.315-0.017-0.6-0.082-0.85-0.202c-0.249-0.12-0.404-0.2-0.464-0.245v0.739c0.113,0.05,0.272,0.092,0.483,0.134
					c0.206,0.042,0.472,0.063,0.791,0.065c0.613-0.012,1.061-0.153,1.343-0.421c0.282-0.27,0.42-0.594,0.415-0.971
					c-0.007-0.326-0.082-0.582-0.234-0.777c-0.152-0.19-0.342-0.35-0.574-0.479c-0.422-0.23-0.773-0.425-1.061-0.582
					c-0.283-0.154-0.431-0.367-0.44-0.633c0.005-0.193,0.087-0.334,0.244-0.426c0.157-0.093,0.347-0.138,0.564-0.138
					c0.283,0.011,0.531,0.062,0.747,0.155c0.213,0.092,0.363,0.166,0.448,0.221V63.214z"/>
				<path fill-rule="evenodd" clip-rule="evenodd" fill="#FFFFFF" d="M118.145,67.366c-0.128,0.033-0.243,0.063-0.356,0.088
					c-0.108,0.023-0.259,0.037-0.444,0.037c-0.45-0.009-0.807-0.135-1.068-0.376s-0.448-0.536-0.558-0.888
					c-0.112-0.352-0.165-0.702-0.163-1.049c-0.002-0.267,0.025-0.533,0.088-0.797c0.062-0.265,0.166-0.485,0.32-0.665
					c0.151-0.178,0.365-0.27,0.641-0.276c0.268,0.007,0.46,0.08,0.577,0.218c0.117,0.14,0.188,0.299,0.212,0.479
					c0.024,0.18,0.036,0.337,0.031,0.468h0.849c0.004-0.438-0.119-0.801-0.374-1.099c-0.252-0.296-0.668-0.447-1.247-0.461
					c-0.584,0-1.048,0.193-1.389,0.578c-0.345,0.386-0.52,0.964-0.526,1.734c-0.003,0.494,0.069,0.938,0.219,1.329
					c0.148,0.391,0.396,0.702,0.741,0.929s0.808,0.346,1.392,0.349c0.204,0,0.388-0.015,0.557-0.044
					c0.162-0.027,0.331-0.068,0.5-0.123V67.366z"/>
				<path fill-rule="evenodd" clip-rule="evenodd" fill="#FFFFFF" d="M119.38,67.856h0.729v-2.086
					c0.001-0.296,0.055-0.605,0.163-0.932c0.109-0.324,0.266-0.601,0.471-0.832c0.207-0.229,0.458-0.35,0.751-0.358
					c0.293,0.009,0.484,0.118,0.577,0.324c0.089,0.207,0.133,0.45,0.123,0.731v3.152h0.73v-3.478
					c-0.012-0.471-0.135-0.81-0.374-1.022c-0.234-0.209-0.512-0.313-0.831-0.311c-0.325,0.012-0.597,0.104-0.815,0.271
					c-0.22,0.173-0.391,0.366-0.519,0.579c-0.125,0.214-0.212,0.387-0.257,0.523h-0.02v-3.378h-0.729V67.856z"/>
				<path fill-rule="evenodd" clip-rule="evenodd" fill="#FFFFFF" d="M127.305,67.856h1.481c0.194,0.004,0.433-0.004,0.71-0.029
					c0.276-0.025,0.552-0.093,0.826-0.204c0.273-0.111,0.502-0.298,0.685-0.556c0.186-0.256,0.279-0.617,0.288-1.076
					c-0.005-0.375-0.083-0.684-0.232-0.924c-0.146-0.24-0.338-0.428-0.565-0.559c-0.231-0.131-0.466-0.217-0.714-0.258v-0.02
					c0.289-0.042,0.555-0.191,0.802-0.445c0.248-0.253,0.378-0.618,0.393-1.096c-0.013-0.525-0.154-0.907-0.421-1.141
					c-0.268-0.236-0.581-0.383-0.936-0.439c-0.354-0.055-0.669-0.078-0.943-0.068h-1.373V67.856z M128.125,61.585h0.611
					c0.208-0.008,0.42,0.014,0.638,0.062c0.217,0.051,0.401,0.156,0.551,0.321c0.15,0.164,0.229,0.417,0.234,0.763
					c-0.006,0.353-0.087,0.624-0.239,0.811c-0.156,0.188-0.34,0.313-0.561,0.381c-0.216,0.064-0.426,0.098-0.623,0.092h-0.611
					V61.585z M128.125,64.556h0.611c0.202-0.005,0.433,0.019,0.692,0.073c0.257,0.054,0.485,0.182,0.68,0.383
					c0.194,0.203,0.3,0.519,0.308,0.948c-0.008,0.429-0.113,0.737-0.308,0.931c-0.194,0.194-0.423,0.314-0.68,0.362
					c-0.26,0.048-0.49,0.068-0.692,0.061h-0.611V64.556z"/>
				<path fill-rule="evenodd" clip-rule="evenodd" fill="#FFFFFF" d="M135.471,67.856h0.71v-4.701h-0.729v2.015
					c0.002,0.314-0.043,0.638-0.132,0.975c-0.087,0.333-0.224,0.618-0.408,0.853c-0.184,0.232-0.419,0.355-0.706,0.369
					c-0.208-0.007-0.377-0.071-0.496-0.192c-0.126-0.121-0.213-0.272-0.266-0.448c-0.054-0.18-0.078-0.355-0.076-0.528v-3.042h-0.73
					v3.357c0,0.213,0.04,0.427,0.118,0.65c0.078,0.221,0.2,0.408,0.37,0.561c0.165,0.154,0.377,0.236,0.637,0.241
					c0.309,0.002,0.56-0.034,0.754-0.109c0.196-0.075,0.361-0.206,0.504-0.388c0.142-0.185,0.285-0.437,0.432-0.757h0.02V67.856z"/>
				<path fill-rule="evenodd" clip-rule="evenodd" fill="#FFFFFF" d="M140.106,63.214c-0.097-0.023-0.242-0.058-0.432-0.097
					c-0.194-0.042-0.415-0.066-0.666-0.071c-0.533,0.002-0.937,0.115-1.204,0.339c-0.271,0.222-0.404,0.538-0.404,0.944
					c0.015,0.387,0.153,0.677,0.412,0.869c0.262,0.189,0.548,0.365,0.861,0.525c0.285,0.152,0.52,0.3,0.711,0.438
					c0.19,0.138,0.29,0.321,0.298,0.55c-0.008,0.266-0.106,0.458-0.291,0.582c-0.188,0.12-0.42,0.181-0.698,0.181
					c-0.316-0.017-0.6-0.082-0.851-0.202c-0.249-0.12-0.403-0.2-0.463-0.245v0.739c0.113,0.05,0.272,0.092,0.48,0.134
					c0.209,0.042,0.474,0.063,0.793,0.065c0.613-0.012,1.06-0.153,1.343-0.421c0.28-0.27,0.42-0.594,0.414-0.971
					c-0.006-0.326-0.081-0.582-0.231-0.777c-0.153-0.19-0.344-0.35-0.575-0.479c-0.422-0.23-0.774-0.425-1.061-0.582
					c-0.285-0.154-0.432-0.367-0.442-0.633c0.006-0.193,0.089-0.334,0.245-0.426c0.156-0.093,0.345-0.138,0.566-0.138
					c0.281,0.011,0.529,0.062,0.744,0.155c0.215,0.092,0.366,0.166,0.45,0.221V63.214z"/>
				<path fill-rule="evenodd" clip-rule="evenodd" fill="#FFFFFF" d="M141.513,67.856h0.729v-4.701h-0.729V67.856z M141.462,61.931
					h0.829v-0.889h-0.829V61.931z"/>
				<path fill-rule="evenodd" clip-rule="evenodd" fill="#FFFFFF" d="M143.951,67.856h0.729v-2.016c0-0.313,0.05-0.639,0.151-0.973
					c0.103-0.334,0.258-0.62,0.473-0.854c0.211-0.233,0.48-0.356,0.809-0.365c0.215,0.007,0.367,0.067,0.46,0.19
					c0.093,0.121,0.147,0.271,0.168,0.448c0.02,0.179,0.029,0.354,0.025,0.526v3.043h0.731V64.28c0-0.18-0.036-0.364-0.11-0.552
					c-0.076-0.189-0.193-0.349-0.36-0.479c-0.167-0.129-0.385-0.198-0.654-0.203c-0.461,0.016-0.823,0.153-1.087,0.411
					c-0.269,0.256-0.469,0.541-0.605,0.853h-0.021v-1.154h-0.708V67.856z"/>
				<path fill-rule="evenodd" clip-rule="evenodd" fill="#FFFFFF" d="M152.309,67.353c-0.13,0.037-0.253,0.068-0.375,0.096
					c-0.116,0.027-0.278,0.043-0.485,0.043c-0.479-0.012-0.85-0.154-1.113-0.43c-0.263-0.275-0.446-0.606-0.549-0.998
					c-0.101-0.389-0.149-0.764-0.146-1.121h2.758c0.011-0.144-0.011-0.365-0.062-0.662c-0.053-0.297-0.196-0.573-0.435-0.829
					c-0.236-0.253-0.628-0.388-1.174-0.405c-0.682,0.014-1.171,0.232-1.467,0.658c-0.301,0.424-0.447,0.978-0.438,1.664
					c0.01,0.865,0.22,1.513,0.636,1.947c0.411,0.434,0.975,0.649,1.684,0.649c0.261-0.001,0.472-0.018,0.641-0.054
					c0.168-0.035,0.343-0.078,0.525-0.134V67.353z M149.66,64.509c-0.003-0.095,0.023-0.226,0.078-0.392
					c0.057-0.166,0.155-0.319,0.305-0.459c0.146-0.136,0.359-0.21,0.637-0.218c0.275,0.006,0.482,0.066,0.623,0.187
					c0.139,0.119,0.229,0.261,0.273,0.425c0.044,0.164,0.066,0.314,0.062,0.457H149.66z"/>
				<path fill-rule="evenodd" clip-rule="evenodd" fill="#FFFFFF" d="M155.927,63.214c-0.099-0.023-0.245-0.058-0.434-0.097
					c-0.193-0.042-0.414-0.066-0.665-0.071c-0.533,0.002-0.936,0.115-1.204,0.339c-0.269,0.222-0.404,0.538-0.406,0.944
					c0.017,0.387,0.155,0.677,0.417,0.869c0.258,0.189,0.545,0.365,0.855,0.525c0.285,0.152,0.522,0.3,0.715,0.438
					c0.189,0.138,0.288,0.321,0.297,0.55c-0.009,0.266-0.104,0.458-0.292,0.582c-0.188,0.12-0.418,0.181-0.696,0.181
					c-0.318-0.017-0.602-0.082-0.851-0.202c-0.251-0.12-0.404-0.2-0.464-0.245v0.739c0.113,0.05,0.273,0.092,0.48,0.134
					c0.209,0.042,0.473,0.063,0.793,0.065c0.613-0.012,1.063-0.153,1.345-0.421c0.278-0.27,0.418-0.594,0.414-0.971
					c-0.005-0.326-0.084-0.582-0.234-0.777c-0.15-0.19-0.343-0.35-0.576-0.479c-0.419-0.23-0.773-0.425-1.057-0.582
					c-0.286-0.154-0.433-0.367-0.446-0.633c0.009-0.193,0.09-0.334,0.248-0.426c0.153-0.093,0.346-0.138,0.563-0.138
					c0.283,0.011,0.532,0.062,0.747,0.155c0.215,0.092,0.365,0.166,0.45,0.221V63.214z"/>
				<path fill-rule="evenodd" clip-rule="evenodd" fill="#FFFFFF" d="M159.504,63.214c-0.097-0.023-0.241-0.058-0.434-0.097
					c-0.192-0.042-0.412-0.066-0.662-0.071c-0.534,0.002-0.937,0.115-1.206,0.339c-0.269,0.222-0.403,0.538-0.403,0.944
					c0.016,0.387,0.152,0.677,0.413,0.869c0.26,0.189,0.549,0.365,0.86,0.525c0.283,0.152,0.52,0.3,0.71,0.438
					c0.191,0.138,0.29,0.321,0.297,0.55c-0.007,0.266-0.104,0.458-0.289,0.582c-0.188,0.12-0.419,0.181-0.699,0.181
					c-0.317-0.017-0.6-0.082-0.851-0.202c-0.246-0.12-0.402-0.2-0.462-0.245v0.739c0.111,0.05,0.27,0.092,0.482,0.134
					c0.206,0.042,0.471,0.063,0.79,0.065c0.615-0.012,1.063-0.153,1.342-0.421c0.282-0.27,0.42-0.594,0.417-0.971
					c-0.004-0.326-0.083-0.582-0.236-0.777c-0.149-0.19-0.341-0.35-0.572-0.479c-0.422-0.23-0.774-0.425-1.06-0.582
					c-0.283-0.154-0.432-0.367-0.443-0.633c0.006-0.193,0.088-0.334,0.245-0.426c0.157-0.093,0.346-0.138,0.565-0.138
					c0.281,0.011,0.531,0.062,0.746,0.155c0.216,0.092,0.364,0.166,0.449,0.221V63.214z"/>
				<path fill-rule="evenodd" clip-rule="evenodd" fill="#FFFFFF" d="M166.74,61.1c-0.15-0.032-0.363-0.067-0.642-0.105
					c-0.277-0.039-0.555-0.058-0.831-0.061c-0.661,0.001-1.182,0.149-1.561,0.447c-0.383,0.294-0.575,0.717-0.583,1.271
					c0.009,0.442,0.122,0.796,0.343,1.059c0.217,0.264,0.48,0.474,0.792,0.63c0.343,0.177,0.668,0.35,0.978,0.513
					c0.311,0.16,0.565,0.347,0.762,0.554c0.196,0.206,0.302,0.468,0.307,0.782c-0.003,0.391-0.131,0.686-0.38,0.89
					c-0.248,0.201-0.589,0.304-1.023,0.306c-0.338-0.01-0.659-0.068-0.97-0.174c-0.308-0.109-0.554-0.209-0.74-0.301v0.848
					c0.089,0.031,0.276,0.072,0.554,0.123c0.278,0.051,0.623,0.082,1.026,0.085c0.69,0.002,1.26-0.151,1.711-0.462
					c0.448-0.315,0.684-0.804,0.699-1.473c0-0.43-0.091-0.763-0.272-1c-0.187-0.234-0.461-0.469-0.833-0.701
					c-0.309-0.189-0.631-0.365-0.96-0.522c-0.33-0.162-0.611-0.343-0.841-0.546c-0.231-0.201-0.352-0.466-0.361-0.789
					c0.006-0.297,0.114-0.535,0.33-0.717s0.504-0.275,0.866-0.278c0.335,0.005,0.655,0.059,0.946,0.153
					c0.295,0.095,0.523,0.182,0.684,0.26V61.1z"/>
				<path fill-rule="evenodd" clip-rule="evenodd" fill="#FFFFFF" d="M171.449,67.366c-0.128,0.033-0.246,0.063-0.356,0.088
					c-0.109,0.023-0.258,0.037-0.442,0.037c-0.453-0.009-0.81-0.135-1.07-0.376c-0.263-0.241-0.448-0.536-0.561-0.888
					c-0.108-0.352-0.161-0.702-0.158-1.049c-0.003-0.267,0.026-0.533,0.086-0.797c0.063-0.265,0.167-0.485,0.319-0.665
					c0.152-0.178,0.366-0.27,0.642-0.276c0.27,0.007,0.46,0.08,0.576,0.218c0.118,0.14,0.188,0.299,0.213,0.479
					c0.029,0.18,0.036,0.337,0.03,0.468h0.849c0.006-0.438-0.118-0.801-0.373-1.099c-0.254-0.296-0.667-0.447-1.245-0.461
					c-0.588,0-1.05,0.193-1.393,0.578c-0.343,0.386-0.517,0.964-0.525,1.734c-0.001,0.494,0.071,0.938,0.221,1.329
					c0.148,0.391,0.396,0.702,0.739,0.929c0.346,0.227,0.811,0.346,1.393,0.349c0.204,0,0.389-0.015,0.553-0.044
					c0.168-0.027,0.335-0.068,0.504-0.123V67.366z"/>
				<path fill-rule="evenodd" clip-rule="evenodd" fill="#FFFFFF" d="M172.686,67.856h0.73v-2.086c0-0.296,0.055-0.605,0.161-0.932
					c0.108-0.324,0.265-0.601,0.471-0.832c0.207-0.229,0.457-0.35,0.75-0.358c0.293,0.009,0.486,0.118,0.578,0.324
					c0.092,0.207,0.132,0.45,0.125,0.731v3.152h0.73v-3.478c-0.014-0.471-0.138-0.81-0.374-1.022
					c-0.236-0.209-0.514-0.313-0.833-0.311c-0.323,0.012-0.596,0.104-0.817,0.271c-0.218,0.173-0.389,0.366-0.517,0.579
					c-0.126,0.214-0.212,0.387-0.257,0.523h-0.018v-3.378h-0.73V67.856z"/>
				<path fill-rule="evenodd" clip-rule="evenodd" fill="#FFFFFF" d="M179.561,67.965c0.699-0.003,1.217-0.216,1.549-0.635
					c0.334-0.418,0.499-1.008,0.496-1.774c0.003-0.762-0.162-1.367-0.496-1.818c-0.332-0.449-0.85-0.68-1.549-0.691
					c-0.695,0.012-1.203,0.242-1.522,0.691c-0.318,0.451-0.477,1.057-0.472,1.818c-0.005,0.767,0.153,1.356,0.472,1.774
					C178.357,67.749,178.865,67.962,179.561,67.965z M178.385,65.585c-0.004-0.352,0.024-0.688,0.08-1.014
					c0.06-0.326,0.173-0.593,0.345-0.803c0.169-0.212,0.421-0.321,0.751-0.328c0.336,0.007,0.595,0.116,0.772,0.328
					c0.178,0.21,0.299,0.477,0.362,0.803c0.064,0.326,0.095,0.662,0.092,1.014c0.003,0.328-0.027,0.645-0.092,0.945
					c-0.063,0.301-0.185,0.548-0.362,0.741s-0.437,0.292-0.772,0.298c-0.33-0.006-0.582-0.104-0.751-0.298
					c-0.172-0.193-0.285-0.44-0.345-0.741C178.409,66.229,178.381,65.913,178.385,65.585z"/>
				<path fill-rule="evenodd" clip-rule="evenodd" fill="#FFFFFF" d="M184.599,67.965c0.699-0.003,1.216-0.216,1.551-0.635
					c0.332-0.418,0.498-1.008,0.495-1.774c0.003-0.762-0.163-1.367-0.495-1.818c-0.335-0.449-0.852-0.68-1.551-0.691
					c-0.695,0.012-1.205,0.242-1.523,0.691c-0.317,0.451-0.476,1.057-0.472,1.818c-0.004,0.767,0.154,1.356,0.472,1.774
					C183.394,67.749,183.903,67.962,184.599,67.965z M183.424,65.585c-0.005-0.352,0.022-0.688,0.08-1.014
					c0.059-0.326,0.174-0.593,0.342-0.803c0.171-0.212,0.421-0.321,0.753-0.328c0.337,0.007,0.595,0.116,0.772,0.328
					c0.177,0.21,0.298,0.477,0.362,0.803c0.066,0.326,0.096,0.662,0.093,1.014c0.003,0.328-0.026,0.645-0.093,0.945
					c-0.064,0.301-0.186,0.548-0.362,0.741c-0.178,0.193-0.436,0.292-0.772,0.298c-0.332-0.006-0.582-0.104-0.753-0.298
					c-0.168-0.193-0.283-0.44-0.342-0.741C183.446,66.229,183.419,65.913,183.424,65.585z"/>
				<rect x="188.009" y="61.042" fill-rule="evenodd" clip-rule="evenodd" fill="#FFFFFF" width="0.729" height="6.814"/>
			</g>
		</g>
	</g>
</g>
</svg>
